G04 #@! TF.FileFunction,Legend,Top*
%FSLAX46Y46*%
G04 Gerber Fmt 4.6, Leading zero omitted, Abs format (unit mm)*
G04 Created by KiCad (PCBNEW 4.0.4-stable) date Thursday, September 28, 2017 'AMt' 07:08:36 AM*
%MOMM*%
%LPD*%
G01*
G04 APERTURE LIST*
%ADD10C,0.100000*%
%ADD11C,0.150000*%
%ADD12C,0.120000*%
G04 APERTURE END LIST*
D10*
D11*
X147142857Y-131461905D02*
X147295238Y-131461905D01*
X147371429Y-131500000D01*
X147447619Y-131576190D01*
X147485714Y-131728571D01*
X147485714Y-131995238D01*
X147447619Y-132147619D01*
X147371429Y-132223810D01*
X147295238Y-132261905D01*
X147142857Y-132261905D01*
X147066667Y-132223810D01*
X146990476Y-132147619D01*
X146952381Y-131995238D01*
X146952381Y-131728571D01*
X146990476Y-131576190D01*
X147066667Y-131500000D01*
X147142857Y-131461905D01*
X148095238Y-131842857D02*
X147828571Y-131842857D01*
X147828571Y-132261905D02*
X147828571Y-131461905D01*
X148209524Y-131461905D01*
X148780952Y-131842857D02*
X148514285Y-131842857D01*
X148514285Y-132261905D02*
X148514285Y-131461905D01*
X148895238Y-131461905D01*
X149771428Y-131423810D02*
X149085713Y-132452381D01*
X150495237Y-132185714D02*
X150457142Y-132223810D01*
X150342856Y-132261905D01*
X150266666Y-132261905D01*
X150152380Y-132223810D01*
X150076189Y-132147619D01*
X150038094Y-132071429D01*
X149999999Y-131919048D01*
X149999999Y-131804762D01*
X150038094Y-131652381D01*
X150076189Y-131576190D01*
X150152380Y-131500000D01*
X150266666Y-131461905D01*
X150342856Y-131461905D01*
X150457142Y-131500000D01*
X150495237Y-131538095D01*
X150838094Y-132261905D02*
X150838094Y-131461905D01*
X150838094Y-131842857D02*
X151295237Y-131842857D01*
X151295237Y-132261905D02*
X151295237Y-131461905D01*
X152133332Y-132261905D02*
X151866665Y-131880952D01*
X151676189Y-132261905D02*
X151676189Y-131461905D01*
X151980951Y-131461905D01*
X152057142Y-131500000D01*
X152095237Y-131538095D01*
X152133332Y-131614286D01*
X152133332Y-131728571D01*
X152095237Y-131804762D01*
X152057142Y-131842857D01*
X151980951Y-131880952D01*
X151676189Y-131880952D01*
X152895237Y-131500000D02*
X152819046Y-131461905D01*
X152704761Y-131461905D01*
X152590475Y-131500000D01*
X152514284Y-131576190D01*
X152476189Y-131652381D01*
X152438094Y-131804762D01*
X152438094Y-131919048D01*
X152476189Y-132071429D01*
X152514284Y-132147619D01*
X152590475Y-132223810D01*
X152704761Y-132261905D01*
X152780951Y-132261905D01*
X152895237Y-132223810D01*
X152933332Y-132185714D01*
X152933332Y-131919048D01*
X152780951Y-131919048D01*
X147142857Y-121561905D02*
X147295238Y-121561905D01*
X147371429Y-121600000D01*
X147447619Y-121676190D01*
X147485714Y-121828571D01*
X147485714Y-122095238D01*
X147447619Y-122247619D01*
X147371429Y-122323810D01*
X147295238Y-122361905D01*
X147142857Y-122361905D01*
X147066667Y-122323810D01*
X146990476Y-122247619D01*
X146952381Y-122095238D01*
X146952381Y-121828571D01*
X146990476Y-121676190D01*
X147066667Y-121600000D01*
X147142857Y-121561905D01*
X147828571Y-122361905D02*
X147828571Y-121561905D01*
X148285714Y-122361905D01*
X148285714Y-121561905D01*
X166238095Y-100176190D02*
X165438095Y-100442857D01*
X166238095Y-100709524D01*
X165438095Y-100976190D02*
X166238095Y-100976190D01*
X166238095Y-101166666D01*
X166200000Y-101280952D01*
X166123810Y-101357143D01*
X166047619Y-101395238D01*
X165895238Y-101433333D01*
X165780952Y-101433333D01*
X165628571Y-101395238D01*
X165552381Y-101357143D01*
X165476190Y-101280952D01*
X165438095Y-101166666D01*
X165438095Y-100976190D01*
X165438095Y-101776190D02*
X166238095Y-101776190D01*
X166238095Y-101966666D01*
X166200000Y-102080952D01*
X166123810Y-102157143D01*
X166047619Y-102195238D01*
X165895238Y-102233333D01*
X165780952Y-102233333D01*
X165628571Y-102195238D01*
X165552381Y-102157143D01*
X165476190Y-102080952D01*
X165438095Y-101966666D01*
X165438095Y-101776190D01*
X171200000Y-100709524D02*
X171238095Y-100633333D01*
X171238095Y-100519048D01*
X171200000Y-100404762D01*
X171123810Y-100328571D01*
X171047619Y-100290476D01*
X170895238Y-100252381D01*
X170780952Y-100252381D01*
X170628571Y-100290476D01*
X170552381Y-100328571D01*
X170476190Y-100404762D01*
X170438095Y-100519048D01*
X170438095Y-100595238D01*
X170476190Y-100709524D01*
X170514286Y-100747619D01*
X170780952Y-100747619D01*
X170780952Y-100595238D01*
X170438095Y-101090476D02*
X171238095Y-101090476D01*
X170438095Y-101547619D01*
X171238095Y-101547619D01*
X170438095Y-101928571D02*
X171238095Y-101928571D01*
X171238095Y-102119047D01*
X171200000Y-102233333D01*
X171123810Y-102309524D01*
X171047619Y-102347619D01*
X170895238Y-102385714D01*
X170780952Y-102385714D01*
X170628571Y-102347619D01*
X170552381Y-102309524D01*
X170476190Y-102233333D01*
X170438095Y-102119047D01*
X170438095Y-101928571D01*
X168014286Y-100747619D02*
X167976190Y-100709524D01*
X167938095Y-100595238D01*
X167938095Y-100519048D01*
X167976190Y-100404762D01*
X168052381Y-100328571D01*
X168128571Y-100290476D01*
X168280952Y-100252381D01*
X168395238Y-100252381D01*
X168547619Y-100290476D01*
X168623810Y-100328571D01*
X168700000Y-100404762D01*
X168738095Y-100519048D01*
X168738095Y-100595238D01*
X168700000Y-100709524D01*
X168661905Y-100747619D01*
X168738095Y-100976190D02*
X168738095Y-101433333D01*
X167938095Y-101204762D02*
X168738095Y-101204762D01*
X167976190Y-101661905D02*
X167938095Y-101776191D01*
X167938095Y-101966667D01*
X167976190Y-102042857D01*
X168014286Y-102080953D01*
X168090476Y-102119048D01*
X168166667Y-102119048D01*
X168242857Y-102080953D01*
X168280952Y-102042857D01*
X168319048Y-101966667D01*
X168357143Y-101814286D01*
X168395238Y-101738095D01*
X168433333Y-101700000D01*
X168509524Y-101661905D01*
X168585714Y-101661905D01*
X168661905Y-101700000D01*
X168700000Y-101738095D01*
X168738095Y-101814286D01*
X168738095Y-102004762D01*
X168700000Y-102119048D01*
X162838095Y-100747619D02*
X163219048Y-100480952D01*
X162838095Y-100290476D02*
X163638095Y-100290476D01*
X163638095Y-100595238D01*
X163600000Y-100671429D01*
X163561905Y-100709524D01*
X163485714Y-100747619D01*
X163371429Y-100747619D01*
X163295238Y-100709524D01*
X163257143Y-100671429D01*
X163219048Y-100595238D01*
X163219048Y-100290476D01*
X163638095Y-101014286D02*
X162838095Y-101547619D01*
X163638095Y-101547619D02*
X162838095Y-101014286D01*
X161038095Y-100176190D02*
X161038095Y-100633333D01*
X160238095Y-100404762D02*
X161038095Y-100404762D01*
X161038095Y-100823810D02*
X160238095Y-101357143D01*
X161038095Y-101357143D02*
X160238095Y-100823810D01*
X157838095Y-100290476D02*
X158638095Y-100290476D01*
X158638095Y-100480952D01*
X158600000Y-100595238D01*
X158523810Y-100671429D01*
X158447619Y-100709524D01*
X158295238Y-100747619D01*
X158180952Y-100747619D01*
X158028571Y-100709524D01*
X157952381Y-100671429D01*
X157876190Y-100595238D01*
X157838095Y-100480952D01*
X157838095Y-100290476D01*
X158638095Y-100976190D02*
X158638095Y-101433333D01*
X157838095Y-101204762D02*
X158638095Y-101204762D01*
X157838095Y-102157143D02*
X158219048Y-101890476D01*
X157838095Y-101700000D02*
X158638095Y-101700000D01*
X158638095Y-102004762D01*
X158600000Y-102080953D01*
X158561905Y-102119048D01*
X158485714Y-102157143D01*
X158371429Y-102157143D01*
X158295238Y-102119048D01*
X158257143Y-102080953D01*
X158219048Y-102004762D01*
X158219048Y-101700000D01*
X147157143Y-137342857D02*
X147271429Y-137380952D01*
X147309524Y-137419048D01*
X147347619Y-137495238D01*
X147347619Y-137609524D01*
X147309524Y-137685714D01*
X147271429Y-137723810D01*
X147195238Y-137761905D01*
X146890476Y-137761905D01*
X146890476Y-136961905D01*
X147157143Y-136961905D01*
X147233333Y-137000000D01*
X147271429Y-137038095D01*
X147309524Y-137114286D01*
X147309524Y-137190476D01*
X147271429Y-137266667D01*
X147233333Y-137304762D01*
X147157143Y-137342857D01*
X146890476Y-137342857D01*
X147652381Y-137533333D02*
X148033333Y-137533333D01*
X147576190Y-137761905D02*
X147842857Y-136961905D01*
X148109524Y-137761905D01*
X148261904Y-136961905D02*
X148719047Y-136961905D01*
X148490476Y-137761905D02*
X148490476Y-136961905D01*
X148871428Y-136961905D02*
X149328571Y-136961905D01*
X149100000Y-137761905D02*
X149100000Y-136961905D01*
X149595238Y-137342857D02*
X149861905Y-137342857D01*
X149976191Y-137761905D02*
X149595238Y-137761905D01*
X149595238Y-136961905D01*
X149976191Y-136961905D01*
X150776191Y-137761905D02*
X150509524Y-137380952D01*
X150319048Y-137761905D02*
X150319048Y-136961905D01*
X150623810Y-136961905D01*
X150700001Y-137000000D01*
X150738096Y-137038095D01*
X150776191Y-137114286D01*
X150776191Y-137228571D01*
X150738096Y-137304762D01*
X150700001Y-137342857D01*
X150623810Y-137380952D01*
X150319048Y-137380952D01*
X151271429Y-137380952D02*
X151271429Y-137761905D01*
X151004762Y-136961905D02*
X151271429Y-137380952D01*
X151538096Y-136961905D01*
X147447619Y-142785714D02*
X147409524Y-142823810D01*
X147295238Y-142861905D01*
X147219048Y-142861905D01*
X147104762Y-142823810D01*
X147028571Y-142747619D01*
X146990476Y-142671429D01*
X146952381Y-142519048D01*
X146952381Y-142404762D01*
X146990476Y-142252381D01*
X147028571Y-142176190D01*
X147104762Y-142100000D01*
X147219048Y-142061905D01*
X147295238Y-142061905D01*
X147409524Y-142100000D01*
X147447619Y-142138095D01*
X147790476Y-142861905D02*
X147790476Y-142061905D01*
X147790476Y-142442857D02*
X148247619Y-142442857D01*
X148247619Y-142861905D02*
X148247619Y-142061905D01*
X148590476Y-142633333D02*
X148971428Y-142633333D01*
X148514285Y-142861905D02*
X148780952Y-142061905D01*
X149047619Y-142861905D01*
X149771428Y-142861905D02*
X149504761Y-142480952D01*
X149314285Y-142861905D02*
X149314285Y-142061905D01*
X149619047Y-142061905D01*
X149695238Y-142100000D01*
X149733333Y-142138095D01*
X149771428Y-142214286D01*
X149771428Y-142328571D01*
X149733333Y-142404762D01*
X149695238Y-142442857D01*
X149619047Y-142480952D01*
X149314285Y-142480952D01*
X150533333Y-142100000D02*
X150457142Y-142061905D01*
X150342857Y-142061905D01*
X150228571Y-142100000D01*
X150152380Y-142176190D01*
X150114285Y-142252381D01*
X150076190Y-142404762D01*
X150076190Y-142519048D01*
X150114285Y-142671429D01*
X150152380Y-142747619D01*
X150228571Y-142823810D01*
X150342857Y-142861905D01*
X150419047Y-142861905D01*
X150533333Y-142823810D01*
X150571428Y-142785714D01*
X150571428Y-142519048D01*
X150419047Y-142519048D01*
X150914285Y-142442857D02*
X151180952Y-142442857D01*
X151295238Y-142861905D02*
X150914285Y-142861905D01*
X150914285Y-142061905D01*
X151295238Y-142061905D01*
X152095238Y-142861905D02*
X151828571Y-142480952D01*
X151638095Y-142861905D02*
X151638095Y-142061905D01*
X151942857Y-142061905D01*
X152019048Y-142100000D01*
X152057143Y-142138095D01*
X152095238Y-142214286D01*
X152095238Y-142328571D01*
X152057143Y-142404762D01*
X152019048Y-142442857D01*
X151942857Y-142480952D01*
X151638095Y-142480952D01*
D12*
X176630000Y-111655000D02*
X176630000Y-102705000D01*
X176630000Y-102705000D02*
X173970000Y-102705000D01*
X173970000Y-102705000D02*
X173970000Y-111655000D01*
X173970000Y-111655000D02*
X176630000Y-111655000D01*
X176630000Y-112290000D02*
X176630000Y-112985000D01*
X176630000Y-112985000D02*
X175300000Y-112985000D01*
X151730000Y-97070000D02*
X141510000Y-97070000D01*
X141510000Y-97070000D02*
X141510000Y-99730000D01*
X141510000Y-99730000D02*
X151730000Y-99730000D01*
X151730000Y-99730000D02*
X151730000Y-97070000D01*
X153000000Y-97070000D02*
X154330000Y-97070000D01*
X154330000Y-97070000D02*
X154330000Y-98400000D01*
X169530000Y-96970000D02*
X156770000Y-96970000D01*
X156770000Y-96970000D02*
X156770000Y-99630000D01*
X156770000Y-99630000D02*
X169530000Y-99630000D01*
X169530000Y-99630000D02*
X169530000Y-96970000D01*
X170800000Y-96970000D02*
X172130000Y-96970000D01*
X172130000Y-96970000D02*
X172130000Y-98300000D01*
D11*
X159573476Y-112500000D02*
X159732575Y-112659099D01*
X164700000Y-107373476D02*
X164929810Y-107603286D01*
X169826524Y-112500000D02*
X169596714Y-112270190D01*
X164700000Y-117626524D02*
X164470190Y-117396714D01*
X159573476Y-112500000D02*
X159803286Y-112270190D01*
X164700000Y-117626524D02*
X164929810Y-117396714D01*
X169826524Y-112500000D02*
X169596714Y-112729810D01*
X164700000Y-107373476D02*
X164470190Y-107603286D01*
X159732575Y-112659099D02*
X158724948Y-113666726D01*
D12*
X169023223Y-106771751D02*
X168528249Y-106276777D01*
X169376777Y-105428249D02*
X169871751Y-105923223D01*
X156450000Y-118100000D02*
X155750000Y-118100000D01*
X155750000Y-116900000D02*
X156450000Y-116900000D01*
X159150000Y-103900000D02*
X158450000Y-103900000D01*
X158450000Y-102700000D02*
X159150000Y-102700000D01*
X170523223Y-105271751D02*
X170028249Y-104776777D01*
X170876777Y-103928249D02*
X171371751Y-104423223D01*
X149050000Y-119200000D02*
X149750000Y-119200000D01*
X149750000Y-120400000D02*
X149050000Y-120400000D01*
X149750000Y-117800000D02*
X149050000Y-117800000D01*
X149050000Y-116600000D02*
X149750000Y-116600000D01*
X149550000Y-110600000D02*
X148850000Y-110600000D01*
X148850000Y-109400000D02*
X149550000Y-109400000D01*
X174620000Y-117500000D02*
X174620000Y-116500000D01*
X175980000Y-116500000D02*
X175980000Y-117500000D01*
X159100000Y-106380000D02*
X158100000Y-106380000D01*
X158100000Y-105020000D02*
X159100000Y-105020000D01*
D10*
X151150000Y-122650000D02*
X147650000Y-122650000D01*
X151150000Y-131150000D02*
X147650000Y-131150000D01*
X147650000Y-122650000D02*
X147650000Y-131150000D01*
X151150000Y-122650000D02*
X151150000Y-131150000D01*
D12*
X147900000Y-115110000D02*
X149700000Y-115110000D01*
X149700000Y-111890000D02*
X147250000Y-111890000D01*
X149300000Y-134240000D02*
X147240000Y-134240000D01*
X147240000Y-134240000D02*
X147240000Y-136360000D01*
X147240000Y-136360000D02*
X149300000Y-136360000D01*
X149300000Y-136360000D02*
X149300000Y-134240000D01*
X150300000Y-134240000D02*
X151360000Y-134240000D01*
X151360000Y-134240000D02*
X151360000Y-135300000D01*
X174750000Y-123800000D02*
X175850000Y-123800000D01*
X175850000Y-123800000D02*
X175850000Y-121200000D01*
X174750000Y-123800000D02*
X174750000Y-121200000D01*
X149300000Y-139402000D02*
X147240000Y-139402000D01*
X147240000Y-139402000D02*
X147240000Y-141522000D01*
X147240000Y-141522000D02*
X149300000Y-141522000D01*
X149300000Y-141522000D02*
X149300000Y-139402000D01*
X150300000Y-139402000D02*
X151360000Y-139402000D01*
X151360000Y-139402000D02*
X151360000Y-140462000D01*
D10*
X174783334Y-114206667D02*
X174783334Y-113506667D01*
X175050000Y-113506667D01*
X175116667Y-113540000D01*
X175150000Y-113573333D01*
X175183334Y-113640000D01*
X175183334Y-113740000D01*
X175150000Y-113806667D01*
X175116667Y-113840000D01*
X175050000Y-113873333D01*
X174783334Y-113873333D01*
X175450000Y-113573333D02*
X175483334Y-113540000D01*
X175550000Y-113506667D01*
X175716667Y-113506667D01*
X175783334Y-113540000D01*
X175816667Y-113573333D01*
X175850000Y-113640000D01*
X175850000Y-113706667D01*
X175816667Y-113806667D01*
X175416667Y-114206667D01*
X175850000Y-114206667D01*
X152483334Y-100916667D02*
X152483334Y-100216667D01*
X152750000Y-100216667D01*
X152816667Y-100250000D01*
X152850000Y-100283333D01*
X152883334Y-100350000D01*
X152883334Y-100450000D01*
X152850000Y-100516667D01*
X152816667Y-100550000D01*
X152750000Y-100583333D01*
X152483334Y-100583333D01*
X153483334Y-100450000D02*
X153483334Y-100916667D01*
X153316667Y-100183333D02*
X153150000Y-100683333D01*
X153583334Y-100683333D01*
X172598334Y-98616667D02*
X172598334Y-97916667D01*
X172865000Y-97916667D01*
X172931667Y-97950000D01*
X172965000Y-97983333D01*
X172998334Y-98050000D01*
X172998334Y-98150000D01*
X172965000Y-98216667D01*
X172931667Y-98250000D01*
X172865000Y-98283333D01*
X172598334Y-98283333D01*
X173665000Y-98616667D02*
X173265000Y-98616667D01*
X173465000Y-98616667D02*
X173465000Y-97916667D01*
X173398334Y-98016667D01*
X173331667Y-98083333D01*
X173265000Y-98116667D01*
X158156332Y-112883333D02*
X158089666Y-112850000D01*
X158022999Y-112783333D01*
X157922999Y-112683333D01*
X157856332Y-112650000D01*
X157789666Y-112650000D01*
X157822999Y-112816667D02*
X157756332Y-112783333D01*
X157689666Y-112716667D01*
X157656332Y-112583333D01*
X157656332Y-112350000D01*
X157689666Y-112216667D01*
X157756332Y-112150000D01*
X157822999Y-112116667D01*
X157956332Y-112116667D01*
X158022999Y-112150000D01*
X158089666Y-112216667D01*
X158122999Y-112350000D01*
X158122999Y-112583333D01*
X158089666Y-112716667D01*
X158022999Y-112783333D01*
X157956332Y-112816667D01*
X157822999Y-112816667D01*
X158789665Y-112816667D02*
X158389665Y-112816667D01*
X158589665Y-112816667D02*
X158589665Y-112116667D01*
X158522999Y-112216667D01*
X158456332Y-112283333D01*
X158389665Y-112316667D01*
X170884334Y-108170000D02*
X170851000Y-108203333D01*
X170751000Y-108236667D01*
X170684334Y-108236667D01*
X170584334Y-108203333D01*
X170517667Y-108136667D01*
X170484334Y-108070000D01*
X170451000Y-107936667D01*
X170451000Y-107836667D01*
X170484334Y-107703333D01*
X170517667Y-107636667D01*
X170584334Y-107570000D01*
X170684334Y-107536667D01*
X170751000Y-107536667D01*
X170851000Y-107570000D01*
X170884334Y-107603333D01*
X171551000Y-108236667D02*
X171151000Y-108236667D01*
X171351000Y-108236667D02*
X171351000Y-107536667D01*
X171284334Y-107636667D01*
X171217667Y-107703333D01*
X171151000Y-107736667D01*
X155983334Y-116607000D02*
X155950000Y-116640333D01*
X155850000Y-116673667D01*
X155783334Y-116673667D01*
X155683334Y-116640333D01*
X155616667Y-116573667D01*
X155583334Y-116507000D01*
X155550000Y-116373667D01*
X155550000Y-116273667D01*
X155583334Y-116140333D01*
X155616667Y-116073667D01*
X155683334Y-116007000D01*
X155783334Y-115973667D01*
X155850000Y-115973667D01*
X155950000Y-116007000D01*
X155983334Y-116040333D01*
X156250000Y-116040333D02*
X156283334Y-116007000D01*
X156350000Y-115973667D01*
X156516667Y-115973667D01*
X156583334Y-116007000D01*
X156616667Y-116040333D01*
X156650000Y-116107000D01*
X156650000Y-116173667D01*
X156616667Y-116273667D01*
X156216667Y-116673667D01*
X156650000Y-116673667D01*
X156283334Y-103553571D02*
X156250000Y-103587381D01*
X156150000Y-103621190D01*
X156083334Y-103621190D01*
X155983334Y-103587381D01*
X155916667Y-103519762D01*
X155883334Y-103452143D01*
X155850000Y-103316905D01*
X155850000Y-103215476D01*
X155883334Y-103080238D01*
X155916667Y-103012619D01*
X155983334Y-102945000D01*
X156083334Y-102911190D01*
X156150000Y-102911190D01*
X156250000Y-102945000D01*
X156283334Y-102978810D01*
X156516667Y-102911190D02*
X156950000Y-102911190D01*
X156716667Y-103181667D01*
X156816667Y-103181667D01*
X156883334Y-103215476D01*
X156916667Y-103249286D01*
X156950000Y-103316905D01*
X156950000Y-103485952D01*
X156916667Y-103553571D01*
X156883334Y-103587381D01*
X156816667Y-103621190D01*
X156616667Y-103621190D01*
X156550000Y-103587381D01*
X156516667Y-103553571D01*
X171683334Y-103850000D02*
X171650000Y-103883333D01*
X171550000Y-103916667D01*
X171483334Y-103916667D01*
X171383334Y-103883333D01*
X171316667Y-103816667D01*
X171283334Y-103750000D01*
X171250000Y-103616667D01*
X171250000Y-103516667D01*
X171283334Y-103383333D01*
X171316667Y-103316667D01*
X171383334Y-103250000D01*
X171483334Y-103216667D01*
X171550000Y-103216667D01*
X171650000Y-103250000D01*
X171683334Y-103283333D01*
X172283334Y-103450000D02*
X172283334Y-103916667D01*
X172116667Y-103183333D02*
X171950000Y-103683333D01*
X172383334Y-103683333D01*
X151823334Y-120050000D02*
X151790000Y-120083333D01*
X151690000Y-120116667D01*
X151623334Y-120116667D01*
X151523334Y-120083333D01*
X151456667Y-120016667D01*
X151423334Y-119950000D01*
X151390000Y-119816667D01*
X151390000Y-119716667D01*
X151423334Y-119583333D01*
X151456667Y-119516667D01*
X151523334Y-119450000D01*
X151623334Y-119416667D01*
X151690000Y-119416667D01*
X151790000Y-119450000D01*
X151823334Y-119483333D01*
X152456667Y-119416667D02*
X152123334Y-119416667D01*
X152090000Y-119750000D01*
X152123334Y-119716667D01*
X152190000Y-119683333D01*
X152356667Y-119683333D01*
X152423334Y-119716667D01*
X152456667Y-119750000D01*
X152490000Y-119816667D01*
X152490000Y-119983333D01*
X152456667Y-120050000D01*
X152423334Y-120083333D01*
X152356667Y-120116667D01*
X152190000Y-120116667D01*
X152123334Y-120083333D01*
X152090000Y-120050000D01*
X151823334Y-117450000D02*
X151790000Y-117483333D01*
X151690000Y-117516667D01*
X151623334Y-117516667D01*
X151523334Y-117483333D01*
X151456667Y-117416667D01*
X151423334Y-117350000D01*
X151390000Y-117216667D01*
X151390000Y-117116667D01*
X151423334Y-116983333D01*
X151456667Y-116916667D01*
X151523334Y-116850000D01*
X151623334Y-116816667D01*
X151690000Y-116816667D01*
X151790000Y-116850000D01*
X151823334Y-116883333D01*
X152423334Y-116816667D02*
X152290000Y-116816667D01*
X152223334Y-116850000D01*
X152190000Y-116883333D01*
X152123334Y-116983333D01*
X152090000Y-117116667D01*
X152090000Y-117383333D01*
X152123334Y-117450000D01*
X152156667Y-117483333D01*
X152223334Y-117516667D01*
X152356667Y-117516667D01*
X152423334Y-117483333D01*
X152456667Y-117450000D01*
X152490000Y-117383333D01*
X152490000Y-117216667D01*
X152456667Y-117150000D01*
X152423334Y-117116667D01*
X152356667Y-117083333D01*
X152223334Y-117083333D01*
X152156667Y-117116667D01*
X152123334Y-117150000D01*
X152090000Y-117216667D01*
X149083334Y-109150000D02*
X149050000Y-109183333D01*
X148950000Y-109216667D01*
X148883334Y-109216667D01*
X148783334Y-109183333D01*
X148716667Y-109116667D01*
X148683334Y-109050000D01*
X148650000Y-108916667D01*
X148650000Y-108816667D01*
X148683334Y-108683333D01*
X148716667Y-108616667D01*
X148783334Y-108550000D01*
X148883334Y-108516667D01*
X148950000Y-108516667D01*
X149050000Y-108550000D01*
X149083334Y-108583333D01*
X149316667Y-108516667D02*
X149783334Y-108516667D01*
X149483334Y-109216667D01*
X173783334Y-117316667D02*
X173550000Y-116983333D01*
X173383334Y-117316667D02*
X173383334Y-116616667D01*
X173650000Y-116616667D01*
X173716667Y-116650000D01*
X173750000Y-116683333D01*
X173783334Y-116750000D01*
X173783334Y-116850000D01*
X173750000Y-116916667D01*
X173716667Y-116950000D01*
X173650000Y-116983333D01*
X173383334Y-116983333D01*
X174450000Y-117316667D02*
X174050000Y-117316667D01*
X174250000Y-117316667D02*
X174250000Y-116616667D01*
X174183334Y-116716667D01*
X174116667Y-116783333D01*
X174050000Y-116816667D01*
X155883334Y-106016667D02*
X155650000Y-105683333D01*
X155483334Y-106016667D02*
X155483334Y-105316667D01*
X155750000Y-105316667D01*
X155816667Y-105350000D01*
X155850000Y-105383333D01*
X155883334Y-105450000D01*
X155883334Y-105550000D01*
X155850000Y-105616667D01*
X155816667Y-105650000D01*
X155750000Y-105683333D01*
X155483334Y-105683333D01*
X156150000Y-105383333D02*
X156183334Y-105350000D01*
X156250000Y-105316667D01*
X156416667Y-105316667D01*
X156483334Y-105350000D01*
X156516667Y-105383333D01*
X156550000Y-105450000D01*
X156550000Y-105516667D01*
X156516667Y-105616667D01*
X156116667Y-106016667D01*
X156550000Y-106016667D01*
X151566666Y-125683333D02*
X151666666Y-125716667D01*
X151833333Y-125716667D01*
X151900000Y-125683333D01*
X151933333Y-125650000D01*
X151966666Y-125583333D01*
X151966666Y-125516667D01*
X151933333Y-125450000D01*
X151900000Y-125416667D01*
X151833333Y-125383333D01*
X151700000Y-125350000D01*
X151633333Y-125316667D01*
X151600000Y-125283333D01*
X151566666Y-125216667D01*
X151566666Y-125150000D01*
X151600000Y-125083333D01*
X151633333Y-125050000D01*
X151700000Y-125016667D01*
X151866666Y-125016667D01*
X151966666Y-125050000D01*
X152200000Y-125016667D02*
X152366667Y-125716667D01*
X152500000Y-125216667D01*
X152633333Y-125716667D01*
X152800000Y-125016667D01*
X153433333Y-125716667D02*
X153033333Y-125716667D01*
X153233333Y-125716667D02*
X153233333Y-125016667D01*
X153166667Y-125116667D01*
X153100000Y-125183333D01*
X153033333Y-125216667D01*
X145091667Y-112100667D02*
X145091667Y-112667333D01*
X145125000Y-112734000D01*
X145158333Y-112767333D01*
X145225000Y-112800667D01*
X145358333Y-112800667D01*
X145425000Y-112767333D01*
X145458333Y-112734000D01*
X145491667Y-112667333D01*
X145491667Y-112100667D01*
X146191666Y-112800667D02*
X145791666Y-112800667D01*
X145991666Y-112800667D02*
X145991666Y-112100667D01*
X145925000Y-112200667D01*
X145858333Y-112267333D01*
X145791666Y-112300667D01*
X151883334Y-135616667D02*
X151883334Y-134916667D01*
X152150000Y-134916667D01*
X152216667Y-134950000D01*
X152250000Y-134983333D01*
X152283334Y-135050000D01*
X152283334Y-135150000D01*
X152250000Y-135216667D01*
X152216667Y-135250000D01*
X152150000Y-135283333D01*
X151883334Y-135283333D01*
X152916667Y-134916667D02*
X152583334Y-134916667D01*
X152550000Y-135250000D01*
X152583334Y-135216667D01*
X152650000Y-135183333D01*
X152816667Y-135183333D01*
X152883334Y-135216667D01*
X152916667Y-135250000D01*
X152950000Y-135316667D01*
X152950000Y-135483333D01*
X152916667Y-135550000D01*
X152883334Y-135583333D01*
X152816667Y-135616667D01*
X152650000Y-135616667D01*
X152583334Y-135583333D01*
X152550000Y-135550000D01*
X173383334Y-122316667D02*
X173383334Y-121616667D01*
X173550000Y-121616667D01*
X173650000Y-121650000D01*
X173716667Y-121716667D01*
X173750000Y-121783333D01*
X173783334Y-121916667D01*
X173783334Y-122016667D01*
X173750000Y-122150000D01*
X173716667Y-122216667D01*
X173650000Y-122283333D01*
X173550000Y-122316667D01*
X173383334Y-122316667D01*
X174450000Y-122316667D02*
X174050000Y-122316667D01*
X174250000Y-122316667D02*
X174250000Y-121616667D01*
X174183334Y-121716667D01*
X174116667Y-121783333D01*
X174050000Y-121816667D01*
X151883334Y-140816667D02*
X151883334Y-140116667D01*
X152150000Y-140116667D01*
X152216667Y-140150000D01*
X152250000Y-140183333D01*
X152283334Y-140250000D01*
X152283334Y-140350000D01*
X152250000Y-140416667D01*
X152216667Y-140450000D01*
X152150000Y-140483333D01*
X151883334Y-140483333D01*
X152883334Y-140116667D02*
X152750000Y-140116667D01*
X152683334Y-140150000D01*
X152650000Y-140183333D01*
X152583334Y-140283333D01*
X152550000Y-140416667D01*
X152550000Y-140683333D01*
X152583334Y-140750000D01*
X152616667Y-140783333D01*
X152683334Y-140816667D01*
X152816667Y-140816667D01*
X152883334Y-140783333D01*
X152916667Y-140750000D01*
X152950000Y-140683333D01*
X152950000Y-140516667D01*
X152916667Y-140450000D01*
X152883334Y-140416667D01*
X152816667Y-140383333D01*
X152683334Y-140383333D01*
X152616667Y-140416667D01*
X152583334Y-140450000D01*
X152550000Y-140516667D01*
M02*
