M48
;DRILL file {KiCad 4.0.4-stable} date Wednesday, September 27, 2017 'PMt' 07:18:43 PM
;FORMAT={-:-/ absolute / inch / decimal}
FMAT,2
INCH,TZ
T1C0.016
T2C0.028
T3C0.031
T4C0.039
T5C0.035
T6C0.087
%
G90
G05
M72
T1
X5.7559Y-4.4685
X5.7913Y-4.3307
X5.8425Y-4.6496
X5.9173Y-4.752
X5.9567Y-4.3307
X6.063Y-4.626
X6.1299Y-3.9803
X6.1417Y-4.0197
X6.2362Y-4.2283
X6.315Y-4.2638
X6.3189Y-4.6142
X6.3189Y-4.7598
X6.3443Y-4.2301
X6.37Y-4.2087
X6.3937Y-4.185
X6.5984Y-4.185
X6.6811Y-4.1378
X6.689Y-4.7244
X6.7165Y-4.5197
X6.7323Y-4.3268
X6.7474Y-4.4482
X6.7795Y-4.1102
T2
X6.4843Y-4.0451
X6.9016Y-4.0709
X6.9016Y-4.1209
X6.9016Y-4.1709
X6.9016Y-4.2209
X6.9016Y-4.2709
X6.9016Y-4.3209
X6.9016Y-4.3709
X6.9016Y-4.4209
T3
X5.8386Y-5.3268
X5.8386Y-5.53
X5.9173Y-5.3268
X5.9173Y-5.53
T4
X5.6236Y-3.874
X5.7236Y-3.874
X5.8236Y-3.874
X5.9236Y-3.874
X6.0236Y-3.874
X6.2244Y-3.8701
X6.3244Y-3.8701
X6.4244Y-3.8701
X6.5244Y-3.8701
X6.6244Y-3.8701
X6.7244Y-3.8701
T5
X5.8819Y-4.8622
X5.8819Y-5.1299
T6
X5.5906Y-4.685
X5.8071Y-5.7205
X6.1063Y-4.9646
X6.1063Y-5.5354
X6.7244Y-4.9646
X6.7244Y-5.5354
X6.9291Y-3.8465
X6.9291Y-5.7205
T0
M30
