G04 #@! TF.FileFunction,Legend,Top*
%FSLAX46Y46*%
G04 Gerber Fmt 4.6, Leading zero omitted, Abs format (unit mm)*
G04 Created by KiCad (PCBNEW 4.0.2+dfsg1-stable) date Sun 14 May 2017 07:44:14 PM MDT*
%MOMM*%
G01*
G04 APERTURE LIST*
%ADD10C,0.100000*%
%ADD11C,0.150000*%
G04 APERTURE END LIST*
D10*
D11*
X141823607Y-92060000D02*
G75*
G03X141823607Y-92060000I-223607J0D01*
G01*
X141700000Y-92060000D02*
G75*
G03X141700000Y-92060000I-100000J0D01*
G01*
X123100000Y-92360000D02*
X141100000Y-92360000D01*
X123100000Y-80360000D02*
X123100000Y-92360000D01*
X141100000Y-80360000D02*
X123100000Y-80360000D01*
X141100000Y-92360000D02*
X141100000Y-80360000D01*
X144995000Y-92321000D02*
X144995000Y-91321000D01*
X143295000Y-91321000D02*
X143295000Y-92321000D01*
X152400000Y-81280000D02*
X152400000Y-91440000D01*
X152400000Y-91440000D02*
X147320000Y-91440000D01*
X147320000Y-91440000D02*
X147320000Y-83834430D01*
X149860000Y-81280000D02*
X152400000Y-81280000D01*
X147066000Y-82550000D02*
X147066000Y-81000000D01*
X149860000Y-81280000D02*
X149860000Y-83820000D01*
X147320000Y-83834430D02*
X149860000Y-83834430D01*
X148590000Y-81026000D02*
X147040000Y-81026000D01*
X140970095Y-92670381D02*
X140970095Y-93479905D01*
X141017714Y-93575143D01*
X141065333Y-93622762D01*
X141160571Y-93670381D01*
X141351048Y-93670381D01*
X141446286Y-93622762D01*
X141493905Y-93575143D01*
X141541524Y-93479905D01*
X141541524Y-92670381D01*
X142541524Y-93670381D02*
X141970095Y-93670381D01*
X142255809Y-93670381D02*
X142255809Y-92670381D01*
X142160571Y-92813238D01*
X142065333Y-92908476D01*
X141970095Y-92956095D01*
X145883334Y-93321143D02*
X145835715Y-93368762D01*
X145692858Y-93416381D01*
X145597620Y-93416381D01*
X145454762Y-93368762D01*
X145359524Y-93273524D01*
X145311905Y-93178286D01*
X145264286Y-92987810D01*
X145264286Y-92844952D01*
X145311905Y-92654476D01*
X145359524Y-92559238D01*
X145454762Y-92464000D01*
X145597620Y-92416381D01*
X145692858Y-92416381D01*
X145835715Y-92464000D01*
X145883334Y-92511619D01*
X146835715Y-93416381D02*
X146264286Y-93416381D01*
X146550000Y-93416381D02*
X146550000Y-92416381D01*
X146454762Y-92559238D01*
X146359524Y-92654476D01*
X146264286Y-92702095D01*
X147851905Y-80716381D02*
X147851905Y-79716381D01*
X148232858Y-79716381D01*
X148328096Y-79764000D01*
X148375715Y-79811619D01*
X148423334Y-79906857D01*
X148423334Y-80049714D01*
X148375715Y-80144952D01*
X148328096Y-80192571D01*
X148232858Y-80240190D01*
X147851905Y-80240190D01*
X149375715Y-80716381D02*
X148804286Y-80716381D01*
X149090000Y-80716381D02*
X149090000Y-79716381D01*
X148994762Y-79859238D01*
X148899524Y-79954476D01*
X148804286Y-80002095D01*
M02*
