G04 #@! TF.FileFunction,Copper,L2,Bot,Signal*
%FSLAX46Y46*%
G04 Gerber Fmt 4.6, Leading zero omitted, Abs format (unit mm)*
G04 Created by KiCad (PCBNEW 4.0.2+dfsg1-stable) date Sun 14 May 2017 07:44:14 PM MDT*
%MOMM*%
G01*
G04 APERTURE LIST*
%ADD10C,0.100000*%
%ADD11O,2.400000X1.000000*%
%ADD12R,1.000000X1.000000*%
%ADD13C,1.727200*%
%ADD14R,1.727200X1.727200*%
%ADD15O,1.727200X1.727200*%
%ADD16C,0.600000*%
%ADD17C,0.250000*%
%ADD18C,0.254000*%
G04 APERTURE END LIST*
D10*
D11*
X140800000Y-85725000D03*
X140800000Y-86995000D03*
X140800000Y-84455000D03*
X140800000Y-88265000D03*
X140800000Y-89535000D03*
X140800000Y-83185000D03*
X140800000Y-90805000D03*
X140800000Y-81915000D03*
D12*
X129600000Y-81260000D03*
D13*
X151130000Y-82550000D03*
D14*
X148590000Y-82550000D03*
D15*
X151130000Y-85090000D03*
X148590000Y-85090000D03*
X151130000Y-87630000D03*
X148590000Y-87630000D03*
X151130000Y-90170000D03*
X148590000Y-90170000D03*
D16*
X143002000Y-92837000D03*
D17*
X151340000Y-87480000D02*
X149920000Y-88900000D01*
X149920000Y-88900000D02*
X143764000Y-88900000D01*
X143764000Y-88900000D02*
X143129000Y-88265000D01*
X143129000Y-88265000D02*
X140200000Y-88265000D01*
X140200000Y-83185000D02*
X144907000Y-83185000D01*
X147678000Y-87480000D02*
X148800000Y-87480000D01*
X144907000Y-83185000D02*
X145796000Y-84074000D01*
X145796000Y-84074000D02*
X145796000Y-85598000D01*
X145796000Y-85598000D02*
X147678000Y-87480000D01*
D18*
G36*
X152623377Y-79470719D02*
X152812747Y-79597251D01*
X152939280Y-79786622D01*
X152996900Y-80076296D01*
X152996900Y-92643704D01*
X152939280Y-92933378D01*
X152812747Y-93122749D01*
X152623377Y-93249281D01*
X152333704Y-93306900D01*
X137795000Y-93306900D01*
X137795000Y-90805000D01*
X138929050Y-90805000D01*
X139015447Y-91239346D01*
X139261484Y-91607566D01*
X139629704Y-91853603D01*
X140064050Y-91940000D01*
X141535950Y-91940000D01*
X141970296Y-91853603D01*
X142338516Y-91607566D01*
X142584553Y-91239346D01*
X142670950Y-90805000D01*
X142584553Y-90370654D01*
X142438992Y-90152807D01*
X142594119Y-89836874D01*
X142467954Y-89662000D01*
X140927000Y-89662000D01*
X140927000Y-89670000D01*
X140673000Y-89670000D01*
X140673000Y-89662000D01*
X139132046Y-89662000D01*
X139005881Y-89836874D01*
X139161008Y-90152807D01*
X139015447Y-90370654D01*
X138929050Y-90805000D01*
X137795000Y-90805000D01*
X137795000Y-81915000D01*
X138929050Y-81915000D01*
X139015447Y-82349346D01*
X139149520Y-82550000D01*
X139015447Y-82750654D01*
X138929050Y-83185000D01*
X139015447Y-83619346D01*
X139149520Y-83820000D01*
X139015447Y-84020654D01*
X138929050Y-84455000D01*
X139015447Y-84889346D01*
X139149520Y-85090000D01*
X139015447Y-85290654D01*
X138929050Y-85725000D01*
X139015447Y-86159346D01*
X139149520Y-86360000D01*
X139015447Y-86560654D01*
X138929050Y-86995000D01*
X139015447Y-87429346D01*
X139149520Y-87630000D01*
X139015447Y-87830654D01*
X138929050Y-88265000D01*
X139015447Y-88699346D01*
X139161008Y-88917193D01*
X139005881Y-89233126D01*
X139132046Y-89408000D01*
X140673000Y-89408000D01*
X140673000Y-89400000D01*
X140927000Y-89400000D01*
X140927000Y-89408000D01*
X142467954Y-89408000D01*
X142594119Y-89233126D01*
X142491927Y-89025000D01*
X142814198Y-89025000D01*
X143226599Y-89437401D01*
X143473161Y-89602148D01*
X143764000Y-89660000D01*
X147187005Y-89660000D01*
X147091400Y-90140641D01*
X147091400Y-90199359D01*
X147205474Y-90772848D01*
X147530330Y-91259029D01*
X148016511Y-91583885D01*
X148590000Y-91697959D01*
X149163489Y-91583885D01*
X149649670Y-91259029D01*
X149860000Y-90944248D01*
X150070330Y-91259029D01*
X150556511Y-91583885D01*
X151130000Y-91697959D01*
X151703489Y-91583885D01*
X152189670Y-91259029D01*
X152514526Y-90772848D01*
X152628600Y-90199359D01*
X152628600Y-90140641D01*
X152514526Y-89567152D01*
X152189670Y-89080971D01*
X151918828Y-88900000D01*
X152189670Y-88719029D01*
X152514526Y-88232848D01*
X152628600Y-87659359D01*
X152628600Y-87600641D01*
X152514526Y-87027152D01*
X152189670Y-86540971D01*
X151918839Y-86360008D01*
X152336821Y-85978490D01*
X152584968Y-85449027D01*
X152464469Y-85217000D01*
X151257000Y-85217000D01*
X151257000Y-85237000D01*
X151003000Y-85237000D01*
X151003000Y-85217000D01*
X150983000Y-85217000D01*
X150983000Y-84963000D01*
X151003000Y-84963000D01*
X151003000Y-84943000D01*
X151257000Y-84943000D01*
X151257000Y-84963000D01*
X152464469Y-84963000D01*
X152584968Y-84730973D01*
X152336821Y-84201510D01*
X151938111Y-83837583D01*
X151977780Y-83821192D01*
X152399710Y-83399997D01*
X152628339Y-82849398D01*
X152628859Y-82253218D01*
X152401192Y-81702220D01*
X151979997Y-81280290D01*
X151429398Y-81051661D01*
X150833218Y-81051141D01*
X150282220Y-81278808D01*
X150065124Y-81495525D01*
X150056762Y-81451083D01*
X149917690Y-81234959D01*
X149705490Y-81089969D01*
X149453600Y-81038960D01*
X147726400Y-81038960D01*
X147491083Y-81083238D01*
X147274959Y-81222310D01*
X147129969Y-81434510D01*
X147078960Y-81686400D01*
X147078960Y-83413600D01*
X147099949Y-83525147D01*
X146222401Y-82647599D01*
X145975839Y-82482852D01*
X145685000Y-82425000D01*
X142534003Y-82425000D01*
X142584553Y-82349346D01*
X142670950Y-81915000D01*
X142584553Y-81480654D01*
X142338516Y-81112434D01*
X141970296Y-80866397D01*
X141535950Y-80780000D01*
X140064050Y-80780000D01*
X139629704Y-80866397D01*
X139261484Y-81112434D01*
X139015447Y-81480654D01*
X138929050Y-81915000D01*
X137795000Y-81915000D01*
X137795000Y-79413100D01*
X152333704Y-79413100D01*
X152623377Y-79470719D01*
X152623377Y-79470719D01*
G37*
X152623377Y-79470719D02*
X152812747Y-79597251D01*
X152939280Y-79786622D01*
X152996900Y-80076296D01*
X152996900Y-92643704D01*
X152939280Y-92933378D01*
X152812747Y-93122749D01*
X152623377Y-93249281D01*
X152333704Y-93306900D01*
X137795000Y-93306900D01*
X137795000Y-90805000D01*
X138929050Y-90805000D01*
X139015447Y-91239346D01*
X139261484Y-91607566D01*
X139629704Y-91853603D01*
X140064050Y-91940000D01*
X141535950Y-91940000D01*
X141970296Y-91853603D01*
X142338516Y-91607566D01*
X142584553Y-91239346D01*
X142670950Y-90805000D01*
X142584553Y-90370654D01*
X142438992Y-90152807D01*
X142594119Y-89836874D01*
X142467954Y-89662000D01*
X140927000Y-89662000D01*
X140927000Y-89670000D01*
X140673000Y-89670000D01*
X140673000Y-89662000D01*
X139132046Y-89662000D01*
X139005881Y-89836874D01*
X139161008Y-90152807D01*
X139015447Y-90370654D01*
X138929050Y-90805000D01*
X137795000Y-90805000D01*
X137795000Y-81915000D01*
X138929050Y-81915000D01*
X139015447Y-82349346D01*
X139149520Y-82550000D01*
X139015447Y-82750654D01*
X138929050Y-83185000D01*
X139015447Y-83619346D01*
X139149520Y-83820000D01*
X139015447Y-84020654D01*
X138929050Y-84455000D01*
X139015447Y-84889346D01*
X139149520Y-85090000D01*
X139015447Y-85290654D01*
X138929050Y-85725000D01*
X139015447Y-86159346D01*
X139149520Y-86360000D01*
X139015447Y-86560654D01*
X138929050Y-86995000D01*
X139015447Y-87429346D01*
X139149520Y-87630000D01*
X139015447Y-87830654D01*
X138929050Y-88265000D01*
X139015447Y-88699346D01*
X139161008Y-88917193D01*
X139005881Y-89233126D01*
X139132046Y-89408000D01*
X140673000Y-89408000D01*
X140673000Y-89400000D01*
X140927000Y-89400000D01*
X140927000Y-89408000D01*
X142467954Y-89408000D01*
X142594119Y-89233126D01*
X142491927Y-89025000D01*
X142814198Y-89025000D01*
X143226599Y-89437401D01*
X143473161Y-89602148D01*
X143764000Y-89660000D01*
X147187005Y-89660000D01*
X147091400Y-90140641D01*
X147091400Y-90199359D01*
X147205474Y-90772848D01*
X147530330Y-91259029D01*
X148016511Y-91583885D01*
X148590000Y-91697959D01*
X149163489Y-91583885D01*
X149649670Y-91259029D01*
X149860000Y-90944248D01*
X150070330Y-91259029D01*
X150556511Y-91583885D01*
X151130000Y-91697959D01*
X151703489Y-91583885D01*
X152189670Y-91259029D01*
X152514526Y-90772848D01*
X152628600Y-90199359D01*
X152628600Y-90140641D01*
X152514526Y-89567152D01*
X152189670Y-89080971D01*
X151918828Y-88900000D01*
X152189670Y-88719029D01*
X152514526Y-88232848D01*
X152628600Y-87659359D01*
X152628600Y-87600641D01*
X152514526Y-87027152D01*
X152189670Y-86540971D01*
X151918839Y-86360008D01*
X152336821Y-85978490D01*
X152584968Y-85449027D01*
X152464469Y-85217000D01*
X151257000Y-85217000D01*
X151257000Y-85237000D01*
X151003000Y-85237000D01*
X151003000Y-85217000D01*
X150983000Y-85217000D01*
X150983000Y-84963000D01*
X151003000Y-84963000D01*
X151003000Y-84943000D01*
X151257000Y-84943000D01*
X151257000Y-84963000D01*
X152464469Y-84963000D01*
X152584968Y-84730973D01*
X152336821Y-84201510D01*
X151938111Y-83837583D01*
X151977780Y-83821192D01*
X152399710Y-83399997D01*
X152628339Y-82849398D01*
X152628859Y-82253218D01*
X152401192Y-81702220D01*
X151979997Y-81280290D01*
X151429398Y-81051661D01*
X150833218Y-81051141D01*
X150282220Y-81278808D01*
X150065124Y-81495525D01*
X150056762Y-81451083D01*
X149917690Y-81234959D01*
X149705490Y-81089969D01*
X149453600Y-81038960D01*
X147726400Y-81038960D01*
X147491083Y-81083238D01*
X147274959Y-81222310D01*
X147129969Y-81434510D01*
X147078960Y-81686400D01*
X147078960Y-83413600D01*
X147099949Y-83525147D01*
X146222401Y-82647599D01*
X145975839Y-82482852D01*
X145685000Y-82425000D01*
X142534003Y-82425000D01*
X142584553Y-82349346D01*
X142670950Y-81915000D01*
X142584553Y-81480654D01*
X142338516Y-81112434D01*
X141970296Y-80866397D01*
X141535950Y-80780000D01*
X140064050Y-80780000D01*
X139629704Y-80866397D01*
X139261484Y-81112434D01*
X139015447Y-81480654D01*
X138929050Y-81915000D01*
X137795000Y-81915000D01*
X137795000Y-79413100D01*
X152333704Y-79413100D01*
X152623377Y-79470719D01*
M02*
