G04 #@! TF.FileFunction,Legend,Bot*
%FSLAX46Y46*%
G04 Gerber Fmt 4.6, Leading zero omitted, Abs format (unit mm)*
G04 Created by KiCad (PCBNEW 4.0.2+dfsg1-stable) date Sun 14 May 2017 07:44:14 PM MDT*
%MOMM*%
G01*
G04 APERTURE LIST*
%ADD10C,0.100000*%
%ADD11C,0.254000*%
%ADD12C,0.200000*%
G04 APERTURE END LIST*
D10*
D11*
X152811238Y-92238286D02*
X152424190Y-92238286D01*
X152666095Y-91899619D02*
X152666095Y-92770476D01*
X152617714Y-92867238D01*
X152520952Y-92915619D01*
X152424190Y-92915619D01*
X151650096Y-92915619D02*
X151650096Y-92383429D01*
X151698477Y-92286667D01*
X151795239Y-92238286D01*
X151988762Y-92238286D01*
X152085524Y-92286667D01*
X151650096Y-92867238D02*
X151746858Y-92915619D01*
X151988762Y-92915619D01*
X152085524Y-92867238D01*
X152133905Y-92770476D01*
X152133905Y-92673714D01*
X152085524Y-92576952D01*
X151988762Y-92528571D01*
X151746858Y-92528571D01*
X151650096Y-92480190D01*
X151166286Y-92238286D02*
X151166286Y-93254286D01*
X151166286Y-92286667D02*
X151069524Y-92238286D01*
X150876001Y-92238286D01*
X150779239Y-92286667D01*
X150730858Y-92335048D01*
X150682477Y-92431810D01*
X150682477Y-92722095D01*
X150730858Y-92818857D01*
X150779239Y-92867238D01*
X150876001Y-92915619D01*
X151069524Y-92915619D01*
X151166286Y-92867238D01*
X150247048Y-92915619D02*
X150247048Y-92238286D01*
X150247048Y-92431810D02*
X150198667Y-92335048D01*
X150150286Y-92286667D01*
X150053524Y-92238286D01*
X149956763Y-92238286D01*
X149618096Y-92818857D02*
X149569715Y-92867238D01*
X149618096Y-92915619D01*
X149666477Y-92867238D01*
X149618096Y-92818857D01*
X149618096Y-92915619D01*
X148989143Y-92915619D02*
X149085905Y-92867238D01*
X149134286Y-92818857D01*
X149182667Y-92722095D01*
X149182667Y-92431810D01*
X149134286Y-92335048D01*
X149085905Y-92286667D01*
X148989143Y-92238286D01*
X148844001Y-92238286D01*
X148747239Y-92286667D01*
X148698858Y-92335048D01*
X148650477Y-92431810D01*
X148650477Y-92722095D01*
X148698858Y-92818857D01*
X148747239Y-92867238D01*
X148844001Y-92915619D01*
X148989143Y-92915619D01*
X148215048Y-92915619D02*
X148215048Y-92238286D01*
X148215048Y-92431810D02*
X148166667Y-92335048D01*
X148118286Y-92286667D01*
X148021524Y-92238286D01*
X147924763Y-92238286D01*
X147150668Y-92238286D02*
X147150668Y-93060762D01*
X147199049Y-93157524D01*
X147247430Y-93205905D01*
X147344191Y-93254286D01*
X147489334Y-93254286D01*
X147586096Y-93205905D01*
X147150668Y-92867238D02*
X147247430Y-92915619D01*
X147440953Y-92915619D01*
X147537715Y-92867238D01*
X147586096Y-92818857D01*
X147634477Y-92722095D01*
X147634477Y-92431810D01*
X147586096Y-92335048D01*
X147537715Y-92286667D01*
X147440953Y-92238286D01*
X147247430Y-92238286D01*
X147150668Y-92286667D01*
X145941144Y-91851238D02*
X146812001Y-93157524D01*
X145457334Y-92915619D02*
X145554096Y-92867238D01*
X145602477Y-92818857D01*
X145650858Y-92722095D01*
X145650858Y-92431810D01*
X145602477Y-92335048D01*
X145554096Y-92286667D01*
X145457334Y-92238286D01*
X145312192Y-92238286D01*
X145215430Y-92286667D01*
X145167049Y-92335048D01*
X145118668Y-92431810D01*
X145118668Y-92722095D01*
X145167049Y-92818857D01*
X145215430Y-92867238D01*
X145312192Y-92915619D01*
X145457334Y-92915619D01*
X144683239Y-92915619D02*
X144683239Y-91899619D01*
X144247811Y-92915619D02*
X144247811Y-92383429D01*
X144296192Y-92286667D01*
X144392954Y-92238286D01*
X144538096Y-92238286D01*
X144634858Y-92286667D01*
X144683239Y-92335048D01*
X143618858Y-92915619D02*
X143715620Y-92867238D01*
X143764001Y-92770476D01*
X143764001Y-91899619D01*
X152230667Y-80421238D02*
X152327429Y-80469619D01*
X152520952Y-80469619D01*
X152617714Y-80421238D01*
X152666095Y-80372857D01*
X152714476Y-80276095D01*
X152714476Y-79985810D01*
X152666095Y-79889048D01*
X152617714Y-79840667D01*
X152520952Y-79792286D01*
X152327429Y-79792286D01*
X152230667Y-79840667D01*
X151359810Y-80469619D02*
X151359810Y-79937429D01*
X151408191Y-79840667D01*
X151504953Y-79792286D01*
X151698476Y-79792286D01*
X151795238Y-79840667D01*
X151359810Y-80421238D02*
X151456572Y-80469619D01*
X151698476Y-80469619D01*
X151795238Y-80421238D01*
X151843619Y-80324476D01*
X151843619Y-80227714D01*
X151795238Y-80130952D01*
X151698476Y-80082571D01*
X151456572Y-80082571D01*
X151359810Y-80034190D01*
X150730857Y-80469619D02*
X150827619Y-80421238D01*
X150876000Y-80324476D01*
X150876000Y-79453619D01*
X149908382Y-80421238D02*
X150005144Y-80469619D01*
X150198667Y-80469619D01*
X150295429Y-80421238D01*
X150343810Y-80372857D01*
X150392191Y-80276095D01*
X150392191Y-79985810D01*
X150343810Y-79889048D01*
X150295429Y-79840667D01*
X150198667Y-79792286D01*
X150005144Y-79792286D01*
X149908382Y-79840667D01*
X149472953Y-80469619D02*
X149472953Y-79792286D01*
X149472953Y-79453619D02*
X149521334Y-79502000D01*
X149472953Y-79550381D01*
X149424572Y-79502000D01*
X149472953Y-79453619D01*
X149472953Y-79550381D01*
X148553715Y-79792286D02*
X148553715Y-80469619D01*
X148989143Y-79792286D02*
X148989143Y-80324476D01*
X148940762Y-80421238D01*
X148844000Y-80469619D01*
X148698858Y-80469619D01*
X148602096Y-80421238D01*
X148553715Y-80372857D01*
X148069905Y-80469619D02*
X148069905Y-79792286D01*
X148069905Y-79889048D02*
X148021524Y-79840667D01*
X147924762Y-79792286D01*
X147779620Y-79792286D01*
X147682858Y-79840667D01*
X147634477Y-79937429D01*
X147634477Y-80469619D01*
X147634477Y-79937429D02*
X147586096Y-79840667D01*
X147489334Y-79792286D01*
X147344191Y-79792286D01*
X147247429Y-79840667D01*
X147199048Y-79937429D01*
X147199048Y-80469619D01*
X146812000Y-79453619D02*
X146183048Y-79453619D01*
X146521714Y-79840667D01*
X146376572Y-79840667D01*
X146279810Y-79889048D01*
X146231429Y-79937429D01*
X146183048Y-80034190D01*
X146183048Y-80276095D01*
X146231429Y-80372857D01*
X146279810Y-80421238D01*
X146376572Y-80469619D01*
X146666857Y-80469619D01*
X146763619Y-80421238D01*
X146812000Y-80372857D01*
X145554095Y-79453619D02*
X145457334Y-79453619D01*
X145360572Y-79502000D01*
X145312191Y-79550381D01*
X145263810Y-79647143D01*
X145215429Y-79840667D01*
X145215429Y-80082571D01*
X145263810Y-80276095D01*
X145312191Y-80372857D01*
X145360572Y-80421238D01*
X145457334Y-80469619D01*
X145554095Y-80469619D01*
X145650857Y-80421238D01*
X145699238Y-80372857D01*
X145747619Y-80276095D01*
X145796000Y-80082571D01*
X145796000Y-79840667D01*
X145747619Y-79647143D01*
X145699238Y-79550381D01*
X145650857Y-79502000D01*
X145554095Y-79453619D01*
X144586476Y-79453619D02*
X144489715Y-79453619D01*
X144392953Y-79502000D01*
X144344572Y-79550381D01*
X144296191Y-79647143D01*
X144247810Y-79840667D01*
X144247810Y-80082571D01*
X144296191Y-80276095D01*
X144344572Y-80372857D01*
X144392953Y-80421238D01*
X144489715Y-80469619D01*
X144586476Y-80469619D01*
X144683238Y-80421238D01*
X144731619Y-80372857D01*
X144780000Y-80276095D01*
X144828381Y-80082571D01*
X144828381Y-79840667D01*
X144780000Y-79647143D01*
X144731619Y-79550381D01*
X144683238Y-79502000D01*
X144586476Y-79453619D01*
X143618857Y-79453619D02*
X143522096Y-79453619D01*
X143425334Y-79502000D01*
X143376953Y-79550381D01*
X143328572Y-79647143D01*
X143280191Y-79840667D01*
X143280191Y-80082571D01*
X143328572Y-80276095D01*
X143376953Y-80372857D01*
X143425334Y-80421238D01*
X143522096Y-80469619D01*
X143618857Y-80469619D01*
X143715619Y-80421238D01*
X143764000Y-80372857D01*
X143812381Y-80276095D01*
X143860762Y-80082571D01*
X143860762Y-79840667D01*
X143812381Y-79647143D01*
X143764000Y-79550381D01*
X143715619Y-79502000D01*
X143618857Y-79453619D01*
X142844762Y-80372857D02*
X142796381Y-80421238D01*
X142844762Y-80469619D01*
X142893143Y-80421238D01*
X142844762Y-80372857D01*
X142844762Y-80469619D01*
X142457714Y-79792286D02*
X142264190Y-80469619D01*
X142070667Y-79985810D01*
X141877143Y-80469619D01*
X141683619Y-79792286D01*
X141151428Y-80469619D02*
X141248190Y-80421238D01*
X141296571Y-80372857D01*
X141344952Y-80276095D01*
X141344952Y-79985810D01*
X141296571Y-79889048D01*
X141248190Y-79840667D01*
X141151428Y-79792286D01*
X141006286Y-79792286D01*
X140909524Y-79840667D01*
X140861143Y-79889048D01*
X140812762Y-79985810D01*
X140812762Y-80276095D01*
X140861143Y-80372857D01*
X140909524Y-80421238D01*
X141006286Y-80469619D01*
X141151428Y-80469619D01*
X140377333Y-80469619D02*
X140377333Y-79792286D01*
X140377333Y-79985810D02*
X140328952Y-79889048D01*
X140280571Y-79840667D01*
X140183809Y-79792286D01*
X140087048Y-79792286D01*
X139312953Y-80469619D02*
X139312953Y-79453619D01*
X139312953Y-80421238D02*
X139409715Y-80469619D01*
X139603238Y-80469619D01*
X139700000Y-80421238D01*
X139748381Y-80372857D01*
X139796762Y-80276095D01*
X139796762Y-79985810D01*
X139748381Y-79889048D01*
X139700000Y-79840667D01*
X139603238Y-79792286D01*
X139409715Y-79792286D01*
X139312953Y-79840667D01*
X138829143Y-79792286D02*
X138829143Y-80808286D01*
X138829143Y-79840667D02*
X138732381Y-79792286D01*
X138538858Y-79792286D01*
X138442096Y-79840667D01*
X138393715Y-79889048D01*
X138345334Y-79985810D01*
X138345334Y-80276095D01*
X138393715Y-80372857D01*
X138442096Y-80421238D01*
X138538858Y-80469619D01*
X138732381Y-80469619D01*
X138829143Y-80421238D01*
X137909905Y-80469619D02*
X137909905Y-79792286D01*
X137909905Y-79985810D02*
X137861524Y-79889048D01*
X137813143Y-79840667D01*
X137716381Y-79792286D01*
X137619620Y-79792286D01*
X136893906Y-80421238D02*
X136990668Y-80469619D01*
X137184191Y-80469619D01*
X137280953Y-80421238D01*
X137329334Y-80324476D01*
X137329334Y-79937429D01*
X137280953Y-79840667D01*
X137184191Y-79792286D01*
X136990668Y-79792286D01*
X136893906Y-79840667D01*
X136845525Y-79937429D01*
X136845525Y-80034190D01*
X137329334Y-80130952D01*
X136458477Y-80421238D02*
X136361715Y-80469619D01*
X136168191Y-80469619D01*
X136071430Y-80421238D01*
X136023049Y-80324476D01*
X136023049Y-80276095D01*
X136071430Y-80179333D01*
X136168191Y-80130952D01*
X136313334Y-80130952D01*
X136410096Y-80082571D01*
X136458477Y-79985810D01*
X136458477Y-79937429D01*
X136410096Y-79840667D01*
X136313334Y-79792286D01*
X136168191Y-79792286D01*
X136071430Y-79840667D01*
X135636001Y-80421238D02*
X135539239Y-80469619D01*
X135345715Y-80469619D01*
X135248954Y-80421238D01*
X135200573Y-80324476D01*
X135200573Y-80276095D01*
X135248954Y-80179333D01*
X135345715Y-80130952D01*
X135490858Y-80130952D01*
X135587620Y-80082571D01*
X135636001Y-79985810D01*
X135636001Y-79937429D01*
X135587620Y-79840667D01*
X135490858Y-79792286D01*
X135345715Y-79792286D01*
X135248954Y-79840667D01*
X134765144Y-80372857D02*
X134716763Y-80421238D01*
X134765144Y-80469619D01*
X134813525Y-80421238D01*
X134765144Y-80372857D01*
X134765144Y-80469619D01*
X133845906Y-80421238D02*
X133942668Y-80469619D01*
X134136191Y-80469619D01*
X134232953Y-80421238D01*
X134281334Y-80372857D01*
X134329715Y-80276095D01*
X134329715Y-79985810D01*
X134281334Y-79889048D01*
X134232953Y-79840667D01*
X134136191Y-79792286D01*
X133942668Y-79792286D01*
X133845906Y-79840667D01*
X133265334Y-80469619D02*
X133362096Y-80421238D01*
X133410477Y-80372857D01*
X133458858Y-80276095D01*
X133458858Y-79985810D01*
X133410477Y-79889048D01*
X133362096Y-79840667D01*
X133265334Y-79792286D01*
X133120192Y-79792286D01*
X133023430Y-79840667D01*
X132975049Y-79889048D01*
X132926668Y-79985810D01*
X132926668Y-80276095D01*
X132975049Y-80372857D01*
X133023430Y-80421238D01*
X133120192Y-80469619D01*
X133265334Y-80469619D01*
X132491239Y-80469619D02*
X132491239Y-79792286D01*
X132491239Y-79889048D02*
X132442858Y-79840667D01*
X132346096Y-79792286D01*
X132200954Y-79792286D01*
X132104192Y-79840667D01*
X132055811Y-79937429D01*
X132055811Y-80469619D01*
X132055811Y-79937429D02*
X132007430Y-79840667D01*
X131910668Y-79792286D01*
X131765525Y-79792286D01*
X131668763Y-79840667D01*
X131620382Y-79937429D01*
X131620382Y-80469619D01*
X127749905Y-80952219D02*
X128330476Y-80952219D01*
X128040190Y-80952219D02*
X128040190Y-79936219D01*
X128136952Y-80081362D01*
X128233714Y-80178124D01*
X128330476Y-80226505D01*
X126685524Y-79936219D02*
X126346857Y-80952219D01*
X126008191Y-79936219D01*
X125669524Y-80952219D02*
X125669524Y-79936219D01*
X125427619Y-79936219D01*
X125282477Y-79984600D01*
X125185715Y-80081362D01*
X125137334Y-80178124D01*
X125088953Y-80371648D01*
X125088953Y-80516790D01*
X125137334Y-80710314D01*
X125185715Y-80807076D01*
X125282477Y-80903838D01*
X125427619Y-80952219D01*
X125669524Y-80952219D01*
X124653524Y-80952219D02*
X124653524Y-79936219D01*
X124411619Y-79936219D01*
X124266477Y-79984600D01*
X124169715Y-80081362D01*
X124121334Y-80178124D01*
X124072953Y-80371648D01*
X124072953Y-80516790D01*
X124121334Y-80710314D01*
X124169715Y-80807076D01*
X124266477Y-80903838D01*
X124411619Y-80952219D01*
X124653524Y-80952219D01*
X128330476Y-81709381D02*
X128282095Y-81661000D01*
X128185333Y-81612619D01*
X127943429Y-81612619D01*
X127846667Y-81661000D01*
X127798286Y-81709381D01*
X127749905Y-81806143D01*
X127749905Y-81902905D01*
X127798286Y-82048048D01*
X128378857Y-82628619D01*
X127749905Y-82628619D01*
X126540381Y-82628619D02*
X126540381Y-81612619D01*
X125476000Y-82628619D02*
X125814666Y-82144810D01*
X126056571Y-82628619D02*
X126056571Y-81612619D01*
X125669524Y-81612619D01*
X125572762Y-81661000D01*
X125524381Y-81709381D01*
X125476000Y-81806143D01*
X125476000Y-81951286D01*
X125524381Y-82048048D01*
X125572762Y-82096429D01*
X125669524Y-82144810D01*
X126056571Y-82144810D01*
X124363238Y-82725381D02*
X124460000Y-82677000D01*
X124556762Y-82580238D01*
X124701905Y-82435095D01*
X124798666Y-82386714D01*
X124895428Y-82386714D01*
X124847047Y-82628619D02*
X124943809Y-82580238D01*
X125040571Y-82483476D01*
X125088952Y-82289952D01*
X125088952Y-81951286D01*
X125040571Y-81757762D01*
X124943809Y-81661000D01*
X124847047Y-81612619D01*
X124653524Y-81612619D01*
X124556762Y-81661000D01*
X124460000Y-81757762D01*
X124411619Y-81951286D01*
X124411619Y-82289952D01*
X124460000Y-82483476D01*
X124556762Y-82580238D01*
X124653524Y-82628619D01*
X124847047Y-82628619D01*
X126782286Y-81437480D02*
X124218095Y-81437480D01*
X128378857Y-83289019D02*
X127749905Y-83289019D01*
X128088571Y-83676067D01*
X127943429Y-83676067D01*
X127846667Y-83724448D01*
X127798286Y-83772829D01*
X127749905Y-83869590D01*
X127749905Y-84111495D01*
X127798286Y-84208257D01*
X127846667Y-84256638D01*
X127943429Y-84305019D01*
X128233714Y-84305019D01*
X128330476Y-84256638D01*
X128378857Y-84208257D01*
X126540381Y-84305019D02*
X126540381Y-83289019D01*
X126201715Y-84014733D01*
X125863048Y-83289019D01*
X125863048Y-84305019D01*
X125185714Y-83289019D02*
X124992191Y-83289019D01*
X124895429Y-83337400D01*
X124798667Y-83434162D01*
X124750286Y-83627686D01*
X124750286Y-83966352D01*
X124798667Y-84159876D01*
X124895429Y-84256638D01*
X124992191Y-84305019D01*
X125185714Y-84305019D01*
X125282476Y-84256638D01*
X125379238Y-84159876D01*
X125427619Y-83966352D01*
X125427619Y-83627686D01*
X125379238Y-83434162D01*
X125282476Y-83337400D01*
X125185714Y-83289019D01*
X124363238Y-84256638D02*
X124218095Y-84305019D01*
X123976191Y-84305019D01*
X123879429Y-84256638D01*
X123831048Y-84208257D01*
X123782667Y-84111495D01*
X123782667Y-84014733D01*
X123831048Y-83917971D01*
X123879429Y-83869590D01*
X123976191Y-83821210D01*
X124169714Y-83772829D01*
X124266476Y-83724448D01*
X124314857Y-83676067D01*
X124363238Y-83579305D01*
X124363238Y-83482543D01*
X124314857Y-83385781D01*
X124266476Y-83337400D01*
X124169714Y-83289019D01*
X123927810Y-83289019D01*
X123782667Y-83337400D01*
X123347238Y-84305019D02*
X123347238Y-83289019D01*
X127846667Y-85304086D02*
X127846667Y-85981419D01*
X128088571Y-84917038D02*
X128330476Y-85642752D01*
X127701524Y-85642752D01*
X126008191Y-85013800D02*
X126104953Y-84965419D01*
X126250096Y-84965419D01*
X126395238Y-85013800D01*
X126492000Y-85110562D01*
X126540381Y-85207324D01*
X126588762Y-85400848D01*
X126588762Y-85545990D01*
X126540381Y-85739514D01*
X126492000Y-85836276D01*
X126395238Y-85933038D01*
X126250096Y-85981419D01*
X126153334Y-85981419D01*
X126008191Y-85933038D01*
X125959810Y-85884657D01*
X125959810Y-85545990D01*
X126153334Y-85545990D01*
X125524381Y-85981419D02*
X125524381Y-84965419D01*
X124943810Y-85981419D01*
X124943810Y-84965419D01*
X124460000Y-85981419D02*
X124460000Y-84965419D01*
X124218095Y-84965419D01*
X124072953Y-85013800D01*
X123976191Y-85110562D01*
X123927810Y-85207324D01*
X123879429Y-85400848D01*
X123879429Y-85545990D01*
X123927810Y-85739514D01*
X123976191Y-85836276D01*
X124072953Y-85933038D01*
X124218095Y-85981419D01*
X124460000Y-85981419D01*
X127798286Y-86641819D02*
X128282095Y-86641819D01*
X128330476Y-87125629D01*
X128282095Y-87077248D01*
X128185333Y-87028867D01*
X127943429Y-87028867D01*
X127846667Y-87077248D01*
X127798286Y-87125629D01*
X127749905Y-87222390D01*
X127749905Y-87464295D01*
X127798286Y-87561057D01*
X127846667Y-87609438D01*
X127943429Y-87657819D01*
X128185333Y-87657819D01*
X128282095Y-87609438D01*
X128330476Y-87561057D01*
X126540381Y-87657819D02*
X126540381Y-86641819D01*
X126201715Y-87367533D01*
X125863048Y-86641819D01*
X125863048Y-87657819D01*
X125379238Y-87657819D02*
X125379238Y-86641819D01*
X124943809Y-87609438D02*
X124798666Y-87657819D01*
X124556762Y-87657819D01*
X124460000Y-87609438D01*
X124411619Y-87561057D01*
X124363238Y-87464295D01*
X124363238Y-87367533D01*
X124411619Y-87270771D01*
X124460000Y-87222390D01*
X124556762Y-87174010D01*
X124750285Y-87125629D01*
X124847047Y-87077248D01*
X124895428Y-87028867D01*
X124943809Y-86932105D01*
X124943809Y-86835343D01*
X124895428Y-86738581D01*
X124847047Y-86690200D01*
X124750285Y-86641819D01*
X124508381Y-86641819D01*
X124363238Y-86690200D01*
X123734285Y-86641819D02*
X123540762Y-86641819D01*
X123444000Y-86690200D01*
X123347238Y-86786962D01*
X123298857Y-86980486D01*
X123298857Y-87319152D01*
X123347238Y-87512676D01*
X123444000Y-87609438D01*
X123540762Y-87657819D01*
X123734285Y-87657819D01*
X123831047Y-87609438D01*
X123927809Y-87512676D01*
X123976190Y-87319152D01*
X123976190Y-86980486D01*
X123927809Y-86786962D01*
X123831047Y-86690200D01*
X123734285Y-86641819D01*
X127846667Y-88318219D02*
X128040190Y-88318219D01*
X128136952Y-88366600D01*
X128185333Y-88414981D01*
X128282095Y-88560124D01*
X128330476Y-88753648D01*
X128330476Y-89140695D01*
X128282095Y-89237457D01*
X128233714Y-89285838D01*
X128136952Y-89334219D01*
X127943429Y-89334219D01*
X127846667Y-89285838D01*
X127798286Y-89237457D01*
X127749905Y-89140695D01*
X127749905Y-88898790D01*
X127798286Y-88802029D01*
X127846667Y-88753648D01*
X127943429Y-88705267D01*
X128136952Y-88705267D01*
X128233714Y-88753648D01*
X128282095Y-88802029D01*
X128330476Y-88898790D01*
X125959810Y-89237457D02*
X126008191Y-89285838D01*
X126153334Y-89334219D01*
X126250096Y-89334219D01*
X126395238Y-89285838D01*
X126492000Y-89189076D01*
X126540381Y-89092314D01*
X126588762Y-88898790D01*
X126588762Y-88753648D01*
X126540381Y-88560124D01*
X126492000Y-88463362D01*
X126395238Y-88366600D01*
X126250096Y-88318219D01*
X126153334Y-88318219D01*
X126008191Y-88366600D01*
X125959810Y-88414981D01*
X125524381Y-88802029D02*
X125185715Y-88802029D01*
X125040572Y-89334219D02*
X125524381Y-89334219D01*
X125524381Y-88318219D01*
X125040572Y-88318219D01*
X128378857Y-89994619D02*
X127701524Y-89994619D01*
X128136952Y-91010619D01*
X126588762Y-90962238D02*
X126443619Y-91010619D01*
X126201715Y-91010619D01*
X126104953Y-90962238D01*
X126056572Y-90913857D01*
X126008191Y-90817095D01*
X126008191Y-90720333D01*
X126056572Y-90623571D01*
X126104953Y-90575190D01*
X126201715Y-90526810D01*
X126395238Y-90478429D01*
X126492000Y-90430048D01*
X126540381Y-90381667D01*
X126588762Y-90284905D01*
X126588762Y-90188143D01*
X126540381Y-90091381D01*
X126492000Y-90043000D01*
X126395238Y-89994619D01*
X126153334Y-89994619D01*
X126008191Y-90043000D01*
X124992191Y-90913857D02*
X125040572Y-90962238D01*
X125185715Y-91010619D01*
X125282477Y-91010619D01*
X125427619Y-90962238D01*
X125524381Y-90865476D01*
X125572762Y-90768714D01*
X125621143Y-90575190D01*
X125621143Y-90430048D01*
X125572762Y-90236524D01*
X125524381Y-90139762D01*
X125427619Y-90043000D01*
X125282477Y-89994619D01*
X125185715Y-89994619D01*
X125040572Y-90043000D01*
X124992191Y-90091381D01*
X124556762Y-91010619D02*
X124556762Y-89994619D01*
X123976191Y-91010619D02*
X124411619Y-90430048D01*
X123976191Y-89994619D02*
X124556762Y-90575190D01*
X128136952Y-92106448D02*
X128233714Y-92058067D01*
X128282095Y-92009686D01*
X128330476Y-91912924D01*
X128330476Y-91864543D01*
X128282095Y-91767781D01*
X128233714Y-91719400D01*
X128136952Y-91671019D01*
X127943429Y-91671019D01*
X127846667Y-91719400D01*
X127798286Y-91767781D01*
X127749905Y-91864543D01*
X127749905Y-91912924D01*
X127798286Y-92009686D01*
X127846667Y-92058067D01*
X127943429Y-92106448D01*
X128136952Y-92106448D01*
X128233714Y-92154829D01*
X128282095Y-92203210D01*
X128330476Y-92299971D01*
X128330476Y-92493495D01*
X128282095Y-92590257D01*
X128233714Y-92638638D01*
X128136952Y-92687019D01*
X127943429Y-92687019D01*
X127846667Y-92638638D01*
X127798286Y-92590257D01*
X127749905Y-92493495D01*
X127749905Y-92299971D01*
X127798286Y-92203210D01*
X127846667Y-92154829D01*
X127943429Y-92106448D01*
X125959810Y-92590257D02*
X126008191Y-92638638D01*
X126153334Y-92687019D01*
X126250096Y-92687019D01*
X126395238Y-92638638D01*
X126492000Y-92541876D01*
X126540381Y-92445114D01*
X126588762Y-92251590D01*
X126588762Y-92106448D01*
X126540381Y-91912924D01*
X126492000Y-91816162D01*
X126395238Y-91719400D01*
X126250096Y-91671019D01*
X126153334Y-91671019D01*
X126008191Y-91719400D01*
X125959810Y-91767781D01*
X125572762Y-92638638D02*
X125427619Y-92687019D01*
X125185715Y-92687019D01*
X125088953Y-92638638D01*
X125040572Y-92590257D01*
X124992191Y-92493495D01*
X124992191Y-92396733D01*
X125040572Y-92299971D01*
X125088953Y-92251590D01*
X125185715Y-92203210D01*
X125379238Y-92154829D01*
X125476000Y-92106448D01*
X125524381Y-92058067D01*
X125572762Y-91961305D01*
X125572762Y-91864543D01*
X125524381Y-91767781D01*
X125476000Y-91719400D01*
X125379238Y-91671019D01*
X125137334Y-91671019D01*
X124992191Y-91719400D01*
X124556762Y-92687019D02*
X124556762Y-91671019D01*
X123976191Y-92687019D01*
X123976191Y-91671019D01*
X126782286Y-91495880D02*
X123734286Y-91495880D01*
X133446761Y-91319048D02*
X133543523Y-91270667D01*
X133591904Y-91222286D01*
X133640285Y-91125524D01*
X133640285Y-91077143D01*
X133591904Y-90980381D01*
X133543523Y-90932000D01*
X133446761Y-90883619D01*
X133253238Y-90883619D01*
X133156476Y-90932000D01*
X133108095Y-90980381D01*
X133059714Y-91077143D01*
X133059714Y-91125524D01*
X133108095Y-91222286D01*
X133156476Y-91270667D01*
X133253238Y-91319048D01*
X133446761Y-91319048D01*
X133543523Y-91367429D01*
X133591904Y-91415810D01*
X133640285Y-91512571D01*
X133640285Y-91706095D01*
X133591904Y-91802857D01*
X133543523Y-91851238D01*
X133446761Y-91899619D01*
X133253238Y-91899619D01*
X133156476Y-91851238D01*
X133108095Y-91802857D01*
X133059714Y-91706095D01*
X133059714Y-91512571D01*
X133108095Y-91415810D01*
X133156476Y-91367429D01*
X133253238Y-91319048D01*
X133156476Y-88343619D02*
X133349999Y-88343619D01*
X133446761Y-88392000D01*
X133495142Y-88440381D01*
X133591904Y-88585524D01*
X133640285Y-88779048D01*
X133640285Y-89166095D01*
X133591904Y-89262857D01*
X133543523Y-89311238D01*
X133446761Y-89359619D01*
X133253238Y-89359619D01*
X133156476Y-89311238D01*
X133108095Y-89262857D01*
X133059714Y-89166095D01*
X133059714Y-88924190D01*
X133108095Y-88827429D01*
X133156476Y-88779048D01*
X133253238Y-88730667D01*
X133446761Y-88730667D01*
X133543523Y-88779048D01*
X133591904Y-88827429D01*
X133640285Y-88924190D01*
X130568095Y-88343619D02*
X131051904Y-88343619D01*
X131100285Y-88827429D01*
X131051904Y-88779048D01*
X130955142Y-88730667D01*
X130713238Y-88730667D01*
X130616476Y-88779048D01*
X130568095Y-88827429D01*
X130519714Y-88924190D01*
X130519714Y-89166095D01*
X130568095Y-89262857D01*
X130616476Y-89311238D01*
X130713238Y-89359619D01*
X130955142Y-89359619D01*
X131051904Y-89311238D01*
X131100285Y-89262857D01*
X131148666Y-90883619D02*
X130471333Y-90883619D01*
X130906761Y-91899619D01*
X133156476Y-86142286D02*
X133156476Y-86819619D01*
X133398380Y-85755238D02*
X133640285Y-86480952D01*
X133011333Y-86480952D01*
X131148666Y-85803619D02*
X130519714Y-85803619D01*
X130858380Y-86190667D01*
X130713238Y-86190667D01*
X130616476Y-86239048D01*
X130568095Y-86287429D01*
X130519714Y-86384190D01*
X130519714Y-86626095D01*
X130568095Y-86722857D01*
X130616476Y-86771238D01*
X130713238Y-86819619D01*
X131003523Y-86819619D01*
X131100285Y-86771238D01*
X131148666Y-86722857D01*
X133640285Y-83360381D02*
X133591904Y-83312000D01*
X133495142Y-83263619D01*
X133253238Y-83263619D01*
X133156476Y-83312000D01*
X133108095Y-83360381D01*
X133059714Y-83457143D01*
X133059714Y-83553905D01*
X133108095Y-83699048D01*
X133688666Y-84279619D01*
X133059714Y-84279619D01*
X130519714Y-84279619D02*
X131100285Y-84279619D01*
X130809999Y-84279619D02*
X130809999Y-83263619D01*
X130906761Y-83408762D01*
X131003523Y-83505524D01*
X131100285Y-83553905D01*
D12*
X132080000Y-92710000D02*
X132080000Y-82550000D01*
X134620000Y-90170000D02*
X129540000Y-90170000D01*
X129540000Y-87630000D02*
X134620000Y-87630000D01*
X134620000Y-85090000D02*
X129540000Y-85090000D01*
X129540000Y-92710000D02*
X129540000Y-82550000D01*
X134620000Y-92710000D02*
X129540000Y-92710000D01*
X134620000Y-82550000D02*
X134620000Y-92710000D01*
X129540000Y-82550000D02*
X134620000Y-82550000D01*
M02*
