G04 #@! TF.FileFunction,Copper,L1,Top,Signal*
%FSLAX46Y46*%
G04 Gerber Fmt 4.6, Leading zero omitted, Abs format (unit mm)*
G04 Created by KiCad (PCBNEW 4.0.4-stable) date Wednesday, September 27, 2017 'PMt' 07:19:19 PM*
%MOMM*%
%LPD*%
G01*
G04 APERTURE LIST*
%ADD10C,0.100000*%
%ADD11R,1.000000X1.000000*%
%ADD12O,1.000000X1.000000*%
%ADD13R,1.700000X1.700000*%
%ADD14O,1.700000X1.700000*%
%ADD15R,1.200000X0.750000*%
%ADD16R,1.200000X0.900000*%
%ADD17R,1.200000X1.400000*%
%ADD18R,1.560000X0.650000*%
%ADD19R,1.350000X1.350000*%
%ADD20O,1.350000X1.350000*%
%ADD21C,0.650000*%
%ADD22C,0.600000*%
%ADD23C,0.400000*%
%ADD24C,0.406400*%
%ADD25C,0.635000*%
%ADD26C,0.250000*%
G04 APERTURE END LIST*
D10*
D11*
X175300000Y-112290000D03*
D12*
X175300000Y-111020000D03*
X175300000Y-109750000D03*
X175300000Y-108480000D03*
X175300000Y-107210000D03*
X175300000Y-105940000D03*
X175300000Y-104670000D03*
X175300000Y-103400000D03*
X164700000Y-102745000D03*
D13*
X153000000Y-98400000D03*
D14*
X150460000Y-98400000D03*
X147920000Y-98400000D03*
X145380000Y-98400000D03*
X142840000Y-98400000D03*
D13*
X170800000Y-98300000D03*
D14*
X168260000Y-98300000D03*
X165720000Y-98300000D03*
X163180000Y-98300000D03*
X160640000Y-98300000D03*
X158100000Y-98300000D03*
D10*
G36*
X159343666Y-114285445D02*
X158954757Y-113896536D01*
X160086128Y-112765165D01*
X160475037Y-113154074D01*
X159343666Y-114285445D01*
X159343666Y-114285445D01*
G37*
G36*
X159909352Y-114851130D02*
X159520443Y-114462221D01*
X160651814Y-113330850D01*
X161040723Y-113719759D01*
X159909352Y-114851130D01*
X159909352Y-114851130D01*
G37*
G36*
X160475037Y-115416816D02*
X160086128Y-115027907D01*
X161217499Y-113896536D01*
X161606408Y-114285445D01*
X160475037Y-115416816D01*
X160475037Y-115416816D01*
G37*
G36*
X161040722Y-115982501D02*
X160651813Y-115593592D01*
X161783184Y-114462221D01*
X162172093Y-114851130D01*
X161040722Y-115982501D01*
X161040722Y-115982501D01*
G37*
G36*
X161606408Y-116548187D02*
X161217499Y-116159278D01*
X162348870Y-115027907D01*
X162737779Y-115416816D01*
X161606408Y-116548187D01*
X161606408Y-116548187D01*
G37*
G36*
X162172093Y-117113872D02*
X161783184Y-116724963D01*
X162914555Y-115593592D01*
X163303464Y-115982501D01*
X162172093Y-117113872D01*
X162172093Y-117113872D01*
G37*
G36*
X162737779Y-117679557D02*
X162348870Y-117290648D01*
X163480241Y-116159277D01*
X163869150Y-116548186D01*
X162737779Y-117679557D01*
X162737779Y-117679557D01*
G37*
G36*
X163303464Y-118245243D02*
X162914555Y-117856334D01*
X164045926Y-116724963D01*
X164434835Y-117113872D01*
X163303464Y-118245243D01*
X163303464Y-118245243D01*
G37*
G36*
X166485445Y-117856334D02*
X166096536Y-118245243D01*
X164965165Y-117113872D01*
X165354074Y-116724963D01*
X166485445Y-117856334D01*
X166485445Y-117856334D01*
G37*
G36*
X167051130Y-117290648D02*
X166662221Y-117679557D01*
X165530850Y-116548186D01*
X165919759Y-116159277D01*
X167051130Y-117290648D01*
X167051130Y-117290648D01*
G37*
G36*
X167616816Y-116724963D02*
X167227907Y-117113872D01*
X166096536Y-115982501D01*
X166485445Y-115593592D01*
X167616816Y-116724963D01*
X167616816Y-116724963D01*
G37*
G36*
X168182501Y-116159278D02*
X167793592Y-116548187D01*
X166662221Y-115416816D01*
X167051130Y-115027907D01*
X168182501Y-116159278D01*
X168182501Y-116159278D01*
G37*
G36*
X168748187Y-115593592D02*
X168359278Y-115982501D01*
X167227907Y-114851130D01*
X167616816Y-114462221D01*
X168748187Y-115593592D01*
X168748187Y-115593592D01*
G37*
G36*
X169313872Y-115027907D02*
X168924963Y-115416816D01*
X167793592Y-114285445D01*
X168182501Y-113896536D01*
X169313872Y-115027907D01*
X169313872Y-115027907D01*
G37*
G36*
X169879557Y-114462221D02*
X169490648Y-114851130D01*
X168359277Y-113719759D01*
X168748186Y-113330850D01*
X169879557Y-114462221D01*
X169879557Y-114462221D01*
G37*
G36*
X170445243Y-113896536D02*
X170056334Y-114285445D01*
X168924963Y-113154074D01*
X169313872Y-112765165D01*
X170445243Y-113896536D01*
X170445243Y-113896536D01*
G37*
G36*
X169313872Y-112234835D02*
X168924963Y-111845926D01*
X170056334Y-110714555D01*
X170445243Y-111103464D01*
X169313872Y-112234835D01*
X169313872Y-112234835D01*
G37*
G36*
X168748186Y-111669150D02*
X168359277Y-111280241D01*
X169490648Y-110148870D01*
X169879557Y-110537779D01*
X168748186Y-111669150D01*
X168748186Y-111669150D01*
G37*
G36*
X168182501Y-111103464D02*
X167793592Y-110714555D01*
X168924963Y-109583184D01*
X169313872Y-109972093D01*
X168182501Y-111103464D01*
X168182501Y-111103464D01*
G37*
G36*
X167616816Y-110537779D02*
X167227907Y-110148870D01*
X168359278Y-109017499D01*
X168748187Y-109406408D01*
X167616816Y-110537779D01*
X167616816Y-110537779D01*
G37*
G36*
X167051130Y-109972093D02*
X166662221Y-109583184D01*
X167793592Y-108451813D01*
X168182501Y-108840722D01*
X167051130Y-109972093D01*
X167051130Y-109972093D01*
G37*
G36*
X166485445Y-109406408D02*
X166096536Y-109017499D01*
X167227907Y-107886128D01*
X167616816Y-108275037D01*
X166485445Y-109406408D01*
X166485445Y-109406408D01*
G37*
G36*
X165919759Y-108840723D02*
X165530850Y-108451814D01*
X166662221Y-107320443D01*
X167051130Y-107709352D01*
X165919759Y-108840723D01*
X165919759Y-108840723D01*
G37*
G36*
X165354074Y-108275037D02*
X164965165Y-107886128D01*
X166096536Y-106754757D01*
X166485445Y-107143666D01*
X165354074Y-108275037D01*
X165354074Y-108275037D01*
G37*
G36*
X164434835Y-107886128D02*
X164045926Y-108275037D01*
X162914555Y-107143666D01*
X163303464Y-106754757D01*
X164434835Y-107886128D01*
X164434835Y-107886128D01*
G37*
G36*
X163869150Y-108451814D02*
X163480241Y-108840723D01*
X162348870Y-107709352D01*
X162737779Y-107320443D01*
X163869150Y-108451814D01*
X163869150Y-108451814D01*
G37*
G36*
X163303464Y-109017499D02*
X162914555Y-109406408D01*
X161783184Y-108275037D01*
X162172093Y-107886128D01*
X163303464Y-109017499D01*
X163303464Y-109017499D01*
G37*
G36*
X162737779Y-109583184D02*
X162348870Y-109972093D01*
X161217499Y-108840722D01*
X161606408Y-108451813D01*
X162737779Y-109583184D01*
X162737779Y-109583184D01*
G37*
G36*
X162172093Y-110148870D02*
X161783184Y-110537779D01*
X160651813Y-109406408D01*
X161040722Y-109017499D01*
X162172093Y-110148870D01*
X162172093Y-110148870D01*
G37*
G36*
X161606408Y-110714555D02*
X161217499Y-111103464D01*
X160086128Y-109972093D01*
X160475037Y-109583184D01*
X161606408Y-110714555D01*
X161606408Y-110714555D01*
G37*
G36*
X161040723Y-111280241D02*
X160651814Y-111669150D01*
X159520443Y-110537779D01*
X159909352Y-110148870D01*
X161040723Y-111280241D01*
X161040723Y-111280241D01*
G37*
G36*
X160475037Y-111845926D02*
X160086128Y-112234835D01*
X158954757Y-111103464D01*
X159343666Y-110714555D01*
X160475037Y-111845926D01*
X160475037Y-111845926D01*
G37*
G36*
X170561180Y-106930850D02*
X170030850Y-107461180D01*
X169182322Y-106612652D01*
X169712652Y-106082322D01*
X170561180Y-106930850D01*
X170561180Y-106930850D01*
G37*
G36*
X169217678Y-105587348D02*
X168687348Y-106117678D01*
X167838820Y-105269150D01*
X168369150Y-104738820D01*
X169217678Y-105587348D01*
X169217678Y-105587348D01*
G37*
D15*
X157150000Y-117400000D03*
X155250000Y-117400000D03*
X159750000Y-103300000D03*
X157850000Y-103300000D03*
D10*
G36*
X172061180Y-105430850D02*
X171530850Y-105961180D01*
X170682322Y-105112652D01*
X171212652Y-104582322D01*
X172061180Y-105430850D01*
X172061180Y-105430850D01*
G37*
G36*
X170717678Y-104087348D02*
X170187348Y-104617678D01*
X169338820Y-103769150D01*
X169869150Y-103238820D01*
X170717678Y-104087348D01*
X170717678Y-104087348D01*
G37*
D15*
X147250000Y-117200000D03*
X145350000Y-117200000D03*
X150200000Y-117200000D03*
X152100000Y-117200000D03*
X150150000Y-110000000D03*
X148250000Y-110000000D03*
D10*
G36*
X174333883Y-115479721D02*
X174970279Y-116116117D01*
X174121751Y-116964645D01*
X173485355Y-116328249D01*
X174333883Y-115479721D01*
X174333883Y-115479721D01*
G37*
G36*
X172778249Y-117035355D02*
X173414645Y-117671751D01*
X172566117Y-118520279D01*
X171929721Y-117883883D01*
X172778249Y-117035355D01*
X172778249Y-117035355D01*
G37*
D16*
X157500000Y-105700000D03*
X159700000Y-105700000D03*
D17*
X148000000Y-124300000D03*
X153000000Y-124300000D03*
X150500000Y-119900000D03*
D18*
X147450000Y-112550000D03*
X147450000Y-113500000D03*
X147450000Y-114450000D03*
X150150000Y-114450000D03*
X150150000Y-112550000D03*
D10*
G36*
X173116117Y-120870279D02*
X172479721Y-120233883D01*
X173328249Y-119385355D01*
X173964645Y-120021751D01*
X173116117Y-120870279D01*
X173116117Y-120870279D01*
G37*
G36*
X174671751Y-119314645D02*
X174035355Y-118678249D01*
X174883883Y-117829721D01*
X175520279Y-118466117D01*
X174671751Y-119314645D01*
X174671751Y-119314645D01*
G37*
D19*
X160500000Y-122200000D03*
D20*
X162500000Y-122200000D03*
D19*
X167500000Y-122150000D03*
D20*
X169500000Y-122150000D03*
D21*
X154100000Y-117400000D03*
X160881500Y-116889384D03*
X169700000Y-105100000D03*
X167600000Y-106300000D03*
X147100000Y-110000000D03*
X155100000Y-111200000D03*
X158800000Y-107500000D03*
X152487347Y-113812653D03*
X153200000Y-109200000D03*
X157500000Y-107325000D03*
X146500000Y-106600000D03*
X156725000Y-102525000D03*
X172200000Y-104400000D03*
X169900000Y-120000000D03*
X161145875Y-107445088D03*
X161798958Y-106901042D03*
X162400000Y-106300000D03*
X171000000Y-109900000D03*
X172887347Y-114050000D03*
X171400000Y-113200000D03*
X155100000Y-100300000D03*
X155900000Y-101200000D03*
D22*
X164034314Y-112600000D02*
X162850000Y-113784314D01*
X162850000Y-113784314D02*
X162850000Y-114915686D01*
X162850000Y-114915686D02*
X162211962Y-115553724D01*
X162211962Y-115553724D02*
X162211961Y-115553724D01*
X164034314Y-112600000D02*
X162834314Y-113800000D01*
X162834314Y-113800000D02*
X161702930Y-113800000D01*
X161702930Y-113800000D02*
X161080577Y-114422353D01*
X161080577Y-114422353D02*
X160846261Y-114656669D01*
X167422361Y-109211953D02*
X164034314Y-112600000D01*
D23*
X167422361Y-109211953D02*
X167388047Y-109211953D01*
D22*
X155250000Y-117400000D02*
X154100000Y-117400000D01*
X147450000Y-113500000D02*
X148505002Y-113500000D01*
X148505002Y-113500000D02*
X148800000Y-113205002D01*
X148800000Y-113205002D02*
X148800000Y-111525000D01*
X148800000Y-111525000D02*
X148250000Y-110975000D01*
X148250000Y-110975000D02*
X148250000Y-110000000D01*
D23*
X161977639Y-115788047D02*
X161977639Y-115793245D01*
X161977639Y-115793245D02*
X160881500Y-116889384D01*
D22*
X169256498Y-104700000D02*
X170028249Y-103928249D01*
X169256498Y-104700000D02*
X169300000Y-104700000D01*
X168528249Y-105428249D02*
X169256498Y-104700000D01*
X169300000Y-104700000D02*
X169700000Y-105100000D01*
X168100000Y-105856498D02*
X168043502Y-105856498D01*
X168043502Y-105856498D02*
X167600000Y-106300000D01*
X167422361Y-109211953D02*
X168100000Y-108534314D01*
X168116826Y-108067924D02*
X168100000Y-108051098D01*
X168100000Y-108534314D02*
X168100000Y-108498974D01*
X168100000Y-108498974D02*
X168116826Y-108482148D01*
X168116826Y-108482148D02*
X168116826Y-108067924D01*
X168100000Y-108051098D02*
X168100000Y-105856498D01*
X168100000Y-105856498D02*
X168528249Y-105428249D01*
D23*
X148250000Y-110000000D02*
X147100000Y-110000000D01*
X155100000Y-111200000D02*
X152487347Y-113812653D01*
X159700000Y-105700000D02*
X159700000Y-107500000D01*
X159700000Y-107500000D02*
X159700000Y-108065686D01*
X158800000Y-107500000D02*
X159700000Y-107500000D01*
X159700000Y-108065686D02*
X160100000Y-108465686D01*
X160100000Y-108465686D02*
X161411953Y-109777639D01*
X159750000Y-103300000D02*
X159750000Y-105650000D01*
X159750000Y-105650000D02*
X159700000Y-105700000D01*
D24*
X158120000Y-98430000D02*
X158115000Y-98425000D01*
X158000000Y-102997000D02*
X158000000Y-98430000D01*
D22*
X175300000Y-112290000D02*
X175300000Y-115150000D01*
X175300000Y-115150000D02*
X174227817Y-116222183D01*
X157300000Y-116100000D02*
X153553692Y-116100000D01*
X159400000Y-116100000D02*
X157300000Y-116100000D01*
X157300000Y-116100000D02*
X157150000Y-116250000D01*
X157150000Y-116250000D02*
X157150000Y-117400000D01*
X153553692Y-116100000D02*
X151662346Y-114208654D01*
X151662346Y-114208654D02*
X151662346Y-113607346D01*
X151662346Y-113607346D02*
X150605000Y-112550000D01*
X150605000Y-112550000D02*
X150150000Y-112550000D01*
X150150000Y-110000000D02*
X150150000Y-109300000D01*
X150150000Y-109300000D02*
X150150000Y-109025000D01*
X153200000Y-109200000D02*
X150250000Y-109200000D01*
X150250000Y-109200000D02*
X150150000Y-109300000D01*
X157500000Y-105700000D02*
X157500000Y-107325000D01*
X150150000Y-109025000D02*
X147125000Y-106000000D01*
X147125000Y-106000000D02*
X142840000Y-101715000D01*
X146824999Y-106275001D02*
X146849999Y-106275001D01*
X146500000Y-106600000D02*
X146824999Y-106275001D01*
X146849999Y-106275001D02*
X147125000Y-106000000D01*
X156725000Y-102525000D02*
X156725000Y-104925000D01*
X156725000Y-104925000D02*
X157500000Y-105700000D01*
X161597056Y-118200000D02*
X159900000Y-118200000D01*
X159900000Y-118200000D02*
X159400000Y-117700000D01*
X159400000Y-117700000D02*
X159400000Y-116100000D01*
X161597056Y-118200000D02*
X161597056Y-119397056D01*
X161597056Y-117300000D02*
X161597056Y-118200000D01*
X160534314Y-116100000D02*
X159400000Y-116100000D01*
X161411953Y-115222361D02*
X160534314Y-116100000D01*
X162543324Y-116353732D02*
X161597056Y-117300000D01*
X161597056Y-119397056D02*
X162200000Y-120000000D01*
X162200000Y-120000000D02*
X169900000Y-120000000D01*
X172200000Y-104400000D02*
X172200000Y-104443502D01*
X172200000Y-104443502D02*
X171371751Y-105271751D01*
X169119417Y-110909010D02*
X169119417Y-110873669D01*
X169119417Y-110873669D02*
X169813882Y-110179204D01*
X169813882Y-110179204D02*
X169813882Y-109186118D01*
X169813882Y-109186118D02*
X171200000Y-107800000D01*
X171200000Y-107800000D02*
X171200000Y-105443502D01*
X171200000Y-105443502D02*
X171371751Y-105271751D01*
X142840000Y-101715000D02*
X142840000Y-99602081D01*
X142840000Y-99602081D02*
X142840000Y-98400000D01*
X150150000Y-112550000D02*
X150150000Y-110000000D01*
D25*
X150175000Y-112569000D02*
X150194000Y-112588000D01*
X150175000Y-117221000D02*
X150175000Y-114507000D01*
X150175000Y-114507000D02*
X150194000Y-114488000D01*
D22*
X148050001Y-122556001D02*
X148050001Y-117250000D01*
X148050001Y-117250000D02*
X148050001Y-115975001D01*
X147250000Y-117200000D02*
X148000001Y-117200000D01*
X148000001Y-117200000D02*
X148050001Y-117250000D01*
X148000000Y-124300000D02*
X148000000Y-122606002D01*
X148000000Y-122606002D02*
X148050001Y-122556001D01*
X148050001Y-115975001D02*
X147450000Y-115375000D01*
X147450000Y-115375000D02*
X147450000Y-114450000D01*
X147450000Y-112550000D02*
X146300000Y-112550000D01*
X146300000Y-112550000D02*
X145900000Y-112950000D01*
X145900000Y-112950000D02*
X145900000Y-114050000D01*
X145900000Y-114050000D02*
X146300000Y-114450000D01*
X146300000Y-114450000D02*
X147450000Y-114450000D01*
D23*
X161145875Y-107445088D02*
X161270002Y-107445088D01*
X161270002Y-107445088D02*
X161834787Y-108009873D01*
X161834787Y-108009873D02*
X161906929Y-108009873D01*
X161906929Y-108009873D02*
X162543324Y-108646268D01*
X161798958Y-106901042D02*
X161929469Y-106901042D01*
X161929469Y-106901042D02*
X163109010Y-108080583D01*
X162400000Y-106300000D02*
X162459798Y-106300000D01*
X162459798Y-106300000D02*
X163674695Y-107514897D01*
X167988047Y-115222361D02*
X169465686Y-116700000D01*
X169465686Y-116700000D02*
X172400000Y-116700000D01*
X174300010Y-109999990D02*
X174550000Y-109750000D01*
X172400000Y-116700000D02*
X174300010Y-114799990D01*
X174300010Y-114799990D02*
X174300010Y-109999990D01*
X174550000Y-109750000D02*
X175300000Y-109750000D01*
X175300000Y-108480000D02*
X175280000Y-108500000D01*
X175280000Y-108500000D02*
X174600000Y-108500000D01*
X174600000Y-108500000D02*
X173550000Y-109550000D01*
X172050000Y-116000000D02*
X169894056Y-116000000D01*
X173550000Y-109550000D02*
X173550000Y-113639651D01*
X173700000Y-113789651D02*
X173700000Y-114350000D01*
X173700000Y-114350000D02*
X172050000Y-116000000D01*
X173550000Y-113639651D02*
X173700000Y-113789651D01*
D24*
X169894056Y-116000000D02*
X169209127Y-115315071D01*
X169209127Y-115315071D02*
X168572732Y-114678676D01*
D23*
X169685103Y-111474695D02*
X171000000Y-110159798D01*
X171000000Y-110159798D02*
X171000000Y-109900000D01*
D24*
X169704103Y-111496695D02*
X169704103Y-111480459D01*
D23*
X172900000Y-113100000D02*
X172750000Y-113100000D01*
X172750000Y-113100000D02*
X170650000Y-115200000D01*
X170650000Y-115200000D02*
X170228427Y-115200000D01*
X170228427Y-115200000D02*
X169119417Y-114090990D01*
X172887347Y-114050000D02*
X172887347Y-113590381D01*
X172887347Y-113590381D02*
X172900000Y-113577728D01*
X172900000Y-113577728D02*
X172900000Y-113100000D01*
X175300000Y-105940000D02*
X174592894Y-105940000D01*
X174592894Y-105940000D02*
X172900000Y-107632894D01*
X172900000Y-107632894D02*
X172900000Y-113100000D01*
X175270000Y-104700000D02*
X174000000Y-104700000D01*
X172100000Y-110150000D02*
X171300000Y-110950000D01*
X174000000Y-104700000D02*
X172100000Y-106600000D01*
X172100000Y-106600000D02*
X172100000Y-110150000D01*
X171300000Y-110950000D02*
X171300000Y-111330526D01*
X169685103Y-113525305D02*
X170710408Y-112500000D01*
X170710408Y-112500000D02*
X171259000Y-111951408D01*
X171400000Y-113200000D02*
X171075001Y-112875001D01*
X171075001Y-112875001D02*
X171075001Y-112864593D01*
X171075001Y-112864593D02*
X170710408Y-112500000D01*
X171259000Y-111951408D02*
X171300000Y-111951408D01*
D24*
X171300000Y-111330526D02*
X171300000Y-111951408D01*
D23*
X175300000Y-103400000D02*
X174600000Y-102700000D01*
X174600000Y-102700000D02*
X169600000Y-102700000D01*
X165725305Y-107025988D02*
X165725305Y-107514897D01*
X169600000Y-102700000D02*
X165725305Y-106574695D01*
X165725305Y-106574695D02*
X165725305Y-107025988D01*
X155100000Y-100300000D02*
X155100000Y-107400000D01*
X155100000Y-107400000D02*
X157000000Y-109300000D01*
X157000000Y-109300000D02*
X158671573Y-109300000D01*
X158671573Y-109300000D02*
X160280583Y-110909010D01*
X155900000Y-101200000D02*
X155900000Y-107200000D01*
X155900000Y-107200000D02*
X157200000Y-108500000D01*
X157200000Y-108500000D02*
X159002944Y-108500000D01*
X159002944Y-108500000D02*
X160209873Y-109706929D01*
X160209873Y-109706929D02*
X160846268Y-110343324D01*
D22*
X150500000Y-119900000D02*
X155150000Y-119900000D01*
X155150000Y-119900000D02*
X157450000Y-122200000D01*
X157450000Y-122200000D02*
X160500000Y-122200000D01*
X173222183Y-120127817D02*
X171903541Y-120127817D01*
X171903541Y-120127817D02*
X168258235Y-116482511D01*
X168258235Y-116482511D02*
X168116825Y-116482511D01*
X168116825Y-116482511D02*
X168058756Y-116424442D01*
X168058756Y-116424442D02*
X167422361Y-115788047D01*
X167988047Y-109777639D02*
X169800000Y-107965686D01*
X169800000Y-107965686D02*
X169800000Y-106700000D01*
X174777817Y-118572183D02*
X174372359Y-118166725D01*
X174372359Y-118166725D02*
X173061091Y-118166725D01*
X173061091Y-118166725D02*
X172672183Y-117777817D01*
X153000000Y-124300000D02*
X163900000Y-124300000D01*
X163900000Y-124300000D02*
X166050000Y-122150000D01*
X166050000Y-122150000D02*
X167500000Y-122150000D01*
D26*
G36*
X152363397Y-116217853D02*
X152225000Y-116356250D01*
X152225000Y-117075000D01*
X153168750Y-117075000D01*
X153274320Y-116969430D01*
X153553692Y-117025000D01*
X154025000Y-117025000D01*
X154025000Y-117118750D01*
X154181250Y-117275000D01*
X155125000Y-117275000D01*
X155125000Y-117255000D01*
X155375000Y-117255000D01*
X155375000Y-117275000D01*
X155395000Y-117275000D01*
X155395000Y-117525000D01*
X155375000Y-117525000D01*
X155375000Y-118243750D01*
X155531250Y-118400000D01*
X155974320Y-118400000D01*
X156204034Y-118304850D01*
X156209857Y-118299027D01*
X156302076Y-118362038D01*
X156550000Y-118412244D01*
X157750000Y-118412244D01*
X157981611Y-118368663D01*
X158194332Y-118231781D01*
X158337038Y-118022924D01*
X158387244Y-117775000D01*
X158387244Y-117025000D01*
X158475000Y-117025000D01*
X158475000Y-117700000D01*
X158545411Y-118053983D01*
X158745926Y-118354074D01*
X159245926Y-118854074D01*
X159546018Y-119054589D01*
X159900000Y-119125000D01*
X160672056Y-119125000D01*
X160672056Y-119397056D01*
X160742467Y-119751039D01*
X160942982Y-120051130D01*
X161545924Y-120654071D01*
X161545926Y-120654074D01*
X161801735Y-120825000D01*
X161846018Y-120854589D01*
X162200000Y-120925001D01*
X162200005Y-120925000D01*
X162374998Y-120925000D01*
X162374998Y-121063100D01*
X162174117Y-120941509D01*
X161840540Y-121079670D01*
X161707500Y-121198339D01*
X161631781Y-121080668D01*
X161422924Y-120937962D01*
X161175000Y-120887756D01*
X159825000Y-120887756D01*
X159593389Y-120931337D01*
X159380668Y-121068219D01*
X159239380Y-121275000D01*
X157833148Y-121275000D01*
X155804074Y-119245926D01*
X155503983Y-119045411D01*
X155150000Y-118975000D01*
X151694907Y-118975000D01*
X151693663Y-118968389D01*
X151556781Y-118755668D01*
X151347924Y-118612962D01*
X151100000Y-118562756D01*
X149900000Y-118562756D01*
X149668389Y-118606337D01*
X149455668Y-118743219D01*
X149312962Y-118952076D01*
X149262756Y-119200000D01*
X149262756Y-120600000D01*
X149306337Y-120831611D01*
X149443219Y-121044332D01*
X149652076Y-121187038D01*
X149900000Y-121237244D01*
X151100000Y-121237244D01*
X151331611Y-121193663D01*
X151544332Y-121056781D01*
X151687038Y-120847924D01*
X151691680Y-120825000D01*
X154766852Y-120825000D01*
X156795926Y-122854074D01*
X157096017Y-123054589D01*
X157450000Y-123125000D01*
X159243170Y-123125000D01*
X159368219Y-123319332D01*
X159449692Y-123375000D01*
X154194907Y-123375000D01*
X154193663Y-123368389D01*
X154069316Y-123175148D01*
X154112893Y-123175186D01*
X154508143Y-123011872D01*
X154810809Y-122709733D01*
X154974813Y-122314769D01*
X154975186Y-121887107D01*
X154811872Y-121491857D01*
X154509733Y-121189191D01*
X154114769Y-121025187D01*
X153687107Y-121024814D01*
X153291857Y-121188128D01*
X152989191Y-121490267D01*
X152825187Y-121885231D01*
X152824814Y-122312893D01*
X152988128Y-122708143D01*
X153242298Y-122962756D01*
X152400000Y-122962756D01*
X152168389Y-123006337D01*
X151955668Y-123143219D01*
X151812962Y-123352076D01*
X151762756Y-123600000D01*
X151762756Y-124825000D01*
X149237244Y-124825000D01*
X149237244Y-123600000D01*
X149193663Y-123368389D01*
X149056781Y-123155668D01*
X148925000Y-123065626D01*
X148925000Y-122807375D01*
X148975001Y-122556001D01*
X148975001Y-117640076D01*
X149006337Y-117806611D01*
X149143219Y-118019332D01*
X149352076Y-118162038D01*
X149600000Y-118212244D01*
X150800000Y-118212244D01*
X151031611Y-118168663D01*
X151140020Y-118098904D01*
X151145966Y-118104850D01*
X151375680Y-118200000D01*
X151818750Y-118200000D01*
X151975000Y-118043750D01*
X151975000Y-117325000D01*
X152225000Y-117325000D01*
X152225000Y-118043750D01*
X152381250Y-118200000D01*
X152824320Y-118200000D01*
X153054034Y-118104850D01*
X153229849Y-117929034D01*
X153325000Y-117699320D01*
X153325000Y-117681250D01*
X154025000Y-117681250D01*
X154025000Y-117899320D01*
X154120151Y-118129034D01*
X154295966Y-118304850D01*
X154525680Y-118400000D01*
X154968750Y-118400000D01*
X155125000Y-118243750D01*
X155125000Y-117525000D01*
X154181250Y-117525000D01*
X154025000Y-117681250D01*
X153325000Y-117681250D01*
X153325000Y-117481250D01*
X153168750Y-117325000D01*
X152225000Y-117325000D01*
X151975000Y-117325000D01*
X151955000Y-117325000D01*
X151955000Y-117075000D01*
X151975000Y-117075000D01*
X151975000Y-116356250D01*
X151818750Y-116200000D01*
X151375680Y-116200000D01*
X151145966Y-116295150D01*
X151140143Y-116300973D01*
X151117500Y-116285501D01*
X151117500Y-115376963D01*
X151161611Y-115368663D01*
X151374332Y-115231781D01*
X151375547Y-115230003D01*
X152363397Y-116217853D01*
X152363397Y-116217853D01*
G37*
X152363397Y-116217853D02*
X152225000Y-116356250D01*
X152225000Y-117075000D01*
X153168750Y-117075000D01*
X153274320Y-116969430D01*
X153553692Y-117025000D01*
X154025000Y-117025000D01*
X154025000Y-117118750D01*
X154181250Y-117275000D01*
X155125000Y-117275000D01*
X155125000Y-117255000D01*
X155375000Y-117255000D01*
X155375000Y-117275000D01*
X155395000Y-117275000D01*
X155395000Y-117525000D01*
X155375000Y-117525000D01*
X155375000Y-118243750D01*
X155531250Y-118400000D01*
X155974320Y-118400000D01*
X156204034Y-118304850D01*
X156209857Y-118299027D01*
X156302076Y-118362038D01*
X156550000Y-118412244D01*
X157750000Y-118412244D01*
X157981611Y-118368663D01*
X158194332Y-118231781D01*
X158337038Y-118022924D01*
X158387244Y-117775000D01*
X158387244Y-117025000D01*
X158475000Y-117025000D01*
X158475000Y-117700000D01*
X158545411Y-118053983D01*
X158745926Y-118354074D01*
X159245926Y-118854074D01*
X159546018Y-119054589D01*
X159900000Y-119125000D01*
X160672056Y-119125000D01*
X160672056Y-119397056D01*
X160742467Y-119751039D01*
X160942982Y-120051130D01*
X161545924Y-120654071D01*
X161545926Y-120654074D01*
X161801735Y-120825000D01*
X161846018Y-120854589D01*
X162200000Y-120925001D01*
X162200005Y-120925000D01*
X162374998Y-120925000D01*
X162374998Y-121063100D01*
X162174117Y-120941509D01*
X161840540Y-121079670D01*
X161707500Y-121198339D01*
X161631781Y-121080668D01*
X161422924Y-120937962D01*
X161175000Y-120887756D01*
X159825000Y-120887756D01*
X159593389Y-120931337D01*
X159380668Y-121068219D01*
X159239380Y-121275000D01*
X157833148Y-121275000D01*
X155804074Y-119245926D01*
X155503983Y-119045411D01*
X155150000Y-118975000D01*
X151694907Y-118975000D01*
X151693663Y-118968389D01*
X151556781Y-118755668D01*
X151347924Y-118612962D01*
X151100000Y-118562756D01*
X149900000Y-118562756D01*
X149668389Y-118606337D01*
X149455668Y-118743219D01*
X149312962Y-118952076D01*
X149262756Y-119200000D01*
X149262756Y-120600000D01*
X149306337Y-120831611D01*
X149443219Y-121044332D01*
X149652076Y-121187038D01*
X149900000Y-121237244D01*
X151100000Y-121237244D01*
X151331611Y-121193663D01*
X151544332Y-121056781D01*
X151687038Y-120847924D01*
X151691680Y-120825000D01*
X154766852Y-120825000D01*
X156795926Y-122854074D01*
X157096017Y-123054589D01*
X157450000Y-123125000D01*
X159243170Y-123125000D01*
X159368219Y-123319332D01*
X159449692Y-123375000D01*
X154194907Y-123375000D01*
X154193663Y-123368389D01*
X154069316Y-123175148D01*
X154112893Y-123175186D01*
X154508143Y-123011872D01*
X154810809Y-122709733D01*
X154974813Y-122314769D01*
X154975186Y-121887107D01*
X154811872Y-121491857D01*
X154509733Y-121189191D01*
X154114769Y-121025187D01*
X153687107Y-121024814D01*
X153291857Y-121188128D01*
X152989191Y-121490267D01*
X152825187Y-121885231D01*
X152824814Y-122312893D01*
X152988128Y-122708143D01*
X153242298Y-122962756D01*
X152400000Y-122962756D01*
X152168389Y-123006337D01*
X151955668Y-123143219D01*
X151812962Y-123352076D01*
X151762756Y-123600000D01*
X151762756Y-124825000D01*
X149237244Y-124825000D01*
X149237244Y-123600000D01*
X149193663Y-123368389D01*
X149056781Y-123155668D01*
X148925000Y-123065626D01*
X148925000Y-122807375D01*
X148975001Y-122556001D01*
X148975001Y-117640076D01*
X149006337Y-117806611D01*
X149143219Y-118019332D01*
X149352076Y-118162038D01*
X149600000Y-118212244D01*
X150800000Y-118212244D01*
X151031611Y-118168663D01*
X151140020Y-118098904D01*
X151145966Y-118104850D01*
X151375680Y-118200000D01*
X151818750Y-118200000D01*
X151975000Y-118043750D01*
X151975000Y-117325000D01*
X152225000Y-117325000D01*
X152225000Y-118043750D01*
X152381250Y-118200000D01*
X152824320Y-118200000D01*
X153054034Y-118104850D01*
X153229849Y-117929034D01*
X153325000Y-117699320D01*
X153325000Y-117681250D01*
X154025000Y-117681250D01*
X154025000Y-117899320D01*
X154120151Y-118129034D01*
X154295966Y-118304850D01*
X154525680Y-118400000D01*
X154968750Y-118400000D01*
X155125000Y-118243750D01*
X155125000Y-117525000D01*
X154181250Y-117525000D01*
X154025000Y-117681250D01*
X153325000Y-117681250D01*
X153325000Y-117481250D01*
X153168750Y-117325000D01*
X152225000Y-117325000D01*
X151975000Y-117325000D01*
X151955000Y-117325000D01*
X151955000Y-117075000D01*
X151975000Y-117075000D01*
X151975000Y-116356250D01*
X151818750Y-116200000D01*
X151375680Y-116200000D01*
X151145966Y-116295150D01*
X151140143Y-116300973D01*
X151117500Y-116285501D01*
X151117500Y-115376963D01*
X151161611Y-115368663D01*
X151374332Y-115231781D01*
X151375547Y-115230003D01*
X152363397Y-116217853D01*
G36*
X174538469Y-96721590D02*
X174275300Y-97355371D01*
X174274701Y-98041618D01*
X174536763Y-98675858D01*
X175021590Y-99161531D01*
X175655371Y-99424700D01*
X176341618Y-99425299D01*
X176975858Y-99163237D01*
X177325000Y-98814703D01*
X177325000Y-122385664D01*
X176978410Y-122038469D01*
X176344629Y-121775300D01*
X175658382Y-121774701D01*
X175024142Y-122036763D01*
X174538469Y-122521590D01*
X174275300Y-123155371D01*
X174274701Y-123841618D01*
X174536763Y-124475858D01*
X174885297Y-124825000D01*
X164683148Y-124825000D01*
X166317553Y-123190595D01*
X166368219Y-123269332D01*
X166577076Y-123412038D01*
X166825000Y-123462244D01*
X168175000Y-123462244D01*
X168406611Y-123418663D01*
X168619332Y-123281781D01*
X168707959Y-123152071D01*
X168840540Y-123270330D01*
X169174117Y-123408491D01*
X169375000Y-123286899D01*
X169375000Y-122275000D01*
X169625000Y-122275000D01*
X169625000Y-123286899D01*
X169825883Y-123408491D01*
X170159460Y-123270330D01*
X170537993Y-122932686D01*
X170758502Y-122475885D01*
X170637737Y-122275000D01*
X169625000Y-122275000D01*
X169375000Y-122275000D01*
X169355000Y-122275000D01*
X169355000Y-122025000D01*
X169375000Y-122025000D01*
X169375000Y-122005000D01*
X169625000Y-122005000D01*
X169625000Y-122025000D01*
X170637737Y-122025000D01*
X170758502Y-121824115D01*
X170537993Y-121367314D01*
X170159460Y-121029670D01*
X169967248Y-120950059D01*
X170088138Y-120950165D01*
X170437429Y-120805841D01*
X170704902Y-120538835D01*
X170793366Y-120325790D01*
X171249467Y-120781891D01*
X171549558Y-120982406D01*
X171903541Y-121052817D01*
X172397455Y-121052817D01*
X172665517Y-121320879D01*
X172860107Y-121453836D01*
X173107314Y-121507462D01*
X173355907Y-121460686D01*
X173566717Y-121320879D01*
X174415245Y-120472351D01*
X174548202Y-120277761D01*
X174601828Y-120030554D01*
X174583783Y-119934655D01*
X174662948Y-119951828D01*
X174911541Y-119905052D01*
X175122351Y-119765245D01*
X175970879Y-118916717D01*
X176103836Y-118722127D01*
X176157462Y-118474920D01*
X176110686Y-118226327D01*
X175970879Y-118015517D01*
X175334483Y-117379121D01*
X175139893Y-117246164D01*
X174892686Y-117192538D01*
X174772430Y-117215166D01*
X175420879Y-116566717D01*
X175553836Y-116372127D01*
X175600324Y-116157824D01*
X175954074Y-115804074D01*
X176154589Y-115503982D01*
X176225001Y-115150000D01*
X176225000Y-115149995D01*
X176225000Y-113259221D01*
X176244332Y-113246781D01*
X176387038Y-113037924D01*
X176437244Y-112790000D01*
X176437244Y-111790000D01*
X176393663Y-111558389D01*
X176327736Y-111455936D01*
X176384715Y-111318360D01*
X176260652Y-111145000D01*
X175425000Y-111145000D01*
X175425000Y-111152756D01*
X175175000Y-111152756D01*
X175175000Y-111145000D01*
X175155000Y-111145000D01*
X175155000Y-110895000D01*
X175175000Y-110895000D01*
X175175000Y-110875000D01*
X175425000Y-110875000D01*
X175425000Y-110895000D01*
X176260652Y-110895000D01*
X176384715Y-110721640D01*
X176277992Y-110463955D01*
X176218193Y-110394850D01*
X176361404Y-110180519D01*
X176447040Y-109750000D01*
X176361404Y-109319481D01*
X176224774Y-109115000D01*
X176361404Y-108910519D01*
X176447040Y-108480000D01*
X176361404Y-108049481D01*
X176224774Y-107845000D01*
X176361404Y-107640519D01*
X176447040Y-107210000D01*
X176361404Y-106779481D01*
X176224774Y-106575000D01*
X176361404Y-106370519D01*
X176447040Y-105940000D01*
X176361404Y-105509481D01*
X176224774Y-105305000D01*
X176361404Y-105100519D01*
X176447040Y-104670000D01*
X176361404Y-104239481D01*
X176224774Y-104035000D01*
X176361404Y-103830519D01*
X176447040Y-103400000D01*
X176361404Y-102969481D01*
X176117535Y-102604505D01*
X175752559Y-102360636D01*
X175346614Y-102279888D01*
X175183363Y-102116637D01*
X174915714Y-101937799D01*
X174600000Y-101875000D01*
X169600000Y-101875000D01*
X169284286Y-101937799D01*
X169016637Y-102116637D01*
X165141942Y-105991332D01*
X164963104Y-106258981D01*
X164900305Y-106574695D01*
X164900305Y-107049788D01*
X164700000Y-107250093D01*
X163754064Y-106304157D01*
X163559474Y-106171200D01*
X163480618Y-106154094D01*
X163288046Y-105961522D01*
X163205841Y-105762571D01*
X162938835Y-105495098D01*
X162589796Y-105350165D01*
X162211862Y-105349835D01*
X161862571Y-105494159D01*
X161595098Y-105761165D01*
X161496752Y-105998009D01*
X161261529Y-106095201D01*
X160994056Y-106362207D01*
X160935056Y-106504294D01*
X160766878Y-106573784D01*
X160887038Y-106397924D01*
X160937244Y-106150000D01*
X160937244Y-105250000D01*
X160893663Y-105018389D01*
X160756781Y-104805668D01*
X160575000Y-104681462D01*
X160575000Y-104269907D01*
X160581611Y-104268663D01*
X160794332Y-104131781D01*
X160937038Y-103922924D01*
X160987244Y-103675000D01*
X160987244Y-103043360D01*
X163615285Y-103043360D01*
X163722008Y-103301045D01*
X164009242Y-103632980D01*
X164401638Y-103829728D01*
X164575000Y-103706797D01*
X164575000Y-102870000D01*
X164825000Y-102870000D01*
X164825000Y-103706797D01*
X164998362Y-103829728D01*
X165390758Y-103632980D01*
X165677992Y-103301045D01*
X165784715Y-103043360D01*
X165660652Y-102870000D01*
X164825000Y-102870000D01*
X164575000Y-102870000D01*
X163739348Y-102870000D01*
X163615285Y-103043360D01*
X160987244Y-103043360D01*
X160987244Y-102925000D01*
X160943663Y-102693389D01*
X160806781Y-102480668D01*
X160756980Y-102446640D01*
X163615285Y-102446640D01*
X163739348Y-102620000D01*
X164575000Y-102620000D01*
X164575000Y-101783203D01*
X164825000Y-101783203D01*
X164825000Y-102620000D01*
X165660652Y-102620000D01*
X165784715Y-102446640D01*
X165677992Y-102188955D01*
X165390758Y-101857020D01*
X164998362Y-101660272D01*
X164825000Y-101783203D01*
X164575000Y-101783203D01*
X164401638Y-101660272D01*
X164009242Y-101857020D01*
X163722008Y-102188955D01*
X163615285Y-102446640D01*
X160756980Y-102446640D01*
X160597924Y-102337962D01*
X160350000Y-102287756D01*
X159150000Y-102287756D01*
X158918389Y-102331337D01*
X158828200Y-102389372D01*
X158828200Y-99582210D01*
X159142983Y-99371880D01*
X159370000Y-99032124D01*
X159597017Y-99371880D01*
X160075542Y-99691619D01*
X160640000Y-99803897D01*
X161204458Y-99691619D01*
X161682983Y-99371880D01*
X161910000Y-99032124D01*
X162137017Y-99371880D01*
X162615542Y-99691619D01*
X163180000Y-99803897D01*
X163744458Y-99691619D01*
X164222983Y-99371880D01*
X164450000Y-99032124D01*
X164677017Y-99371880D01*
X165155542Y-99691619D01*
X165720000Y-99803897D01*
X166284458Y-99691619D01*
X166762983Y-99371880D01*
X166999085Y-99018527D01*
X167072185Y-99174497D01*
X167497258Y-99562487D01*
X167906628Y-99732045D01*
X168135000Y-99612812D01*
X168135000Y-98425000D01*
X168385000Y-98425000D01*
X168385000Y-99612812D01*
X168613372Y-99732045D01*
X169022742Y-99562487D01*
X169328690Y-99283229D01*
X169420150Y-99504034D01*
X169595966Y-99679849D01*
X169825680Y-99775000D01*
X170518750Y-99775000D01*
X170675000Y-99618750D01*
X170675000Y-98425000D01*
X170925000Y-98425000D01*
X170925000Y-99618750D01*
X171081250Y-99775000D01*
X171774320Y-99775000D01*
X172004034Y-99679849D01*
X172179850Y-99504034D01*
X172275000Y-99274320D01*
X172275000Y-98581250D01*
X172118750Y-98425000D01*
X170925000Y-98425000D01*
X170675000Y-98425000D01*
X168385000Y-98425000D01*
X168135000Y-98425000D01*
X168115000Y-98425000D01*
X168115000Y-98175000D01*
X168135000Y-98175000D01*
X168135000Y-96987188D01*
X168385000Y-96987188D01*
X168385000Y-98175000D01*
X170675000Y-98175000D01*
X170675000Y-96981250D01*
X170925000Y-96981250D01*
X170925000Y-98175000D01*
X172118750Y-98175000D01*
X172275000Y-98018750D01*
X172275000Y-97325680D01*
X172179850Y-97095966D01*
X172004034Y-96920151D01*
X171774320Y-96825000D01*
X171081250Y-96825000D01*
X170925000Y-96981250D01*
X170675000Y-96981250D01*
X170518750Y-96825000D01*
X169825680Y-96825000D01*
X169595966Y-96920151D01*
X169420150Y-97095966D01*
X169328690Y-97316771D01*
X169022742Y-97037513D01*
X168613372Y-96867955D01*
X168385000Y-96987188D01*
X168135000Y-96987188D01*
X167906628Y-96867955D01*
X167497258Y-97037513D01*
X167072185Y-97425503D01*
X166999085Y-97581473D01*
X166762983Y-97228120D01*
X166284458Y-96908381D01*
X165720000Y-96796103D01*
X165155542Y-96908381D01*
X164677017Y-97228120D01*
X164450000Y-97567876D01*
X164222983Y-97228120D01*
X163744458Y-96908381D01*
X163180000Y-96796103D01*
X162615542Y-96908381D01*
X162137017Y-97228120D01*
X161910000Y-97567876D01*
X161682983Y-97228120D01*
X161204458Y-96908381D01*
X160640000Y-96796103D01*
X160075542Y-96908381D01*
X159597017Y-97228120D01*
X159370000Y-97567876D01*
X159142983Y-97228120D01*
X158664458Y-96908381D01*
X158100000Y-96796103D01*
X157535542Y-96908381D01*
X157057017Y-97228120D01*
X156737278Y-97706645D01*
X156625000Y-98271103D01*
X156625000Y-98328897D01*
X156737278Y-98893355D01*
X157057017Y-99371880D01*
X157171800Y-99448575D01*
X157171800Y-101681882D01*
X156914796Y-101575165D01*
X156772915Y-101575041D01*
X156849835Y-101389796D01*
X156850165Y-101011862D01*
X156705841Y-100662571D01*
X156438835Y-100395098D01*
X156089796Y-100250165D01*
X156050044Y-100250130D01*
X156050165Y-100111862D01*
X155905841Y-99762571D01*
X155638835Y-99495098D01*
X155289796Y-99350165D01*
X154911862Y-99349835D01*
X154562571Y-99494159D01*
X154295098Y-99761165D01*
X154150165Y-100110204D01*
X154149835Y-100488138D01*
X154275000Y-100791061D01*
X154275000Y-107400000D01*
X154337799Y-107715714D01*
X154516637Y-107983363D01*
X156416637Y-109883363D01*
X156684286Y-110062201D01*
X157000000Y-110125000D01*
X158329847Y-110125000D01*
X158680934Y-110476087D01*
X158504157Y-110652864D01*
X158371200Y-110847454D01*
X158317574Y-111094661D01*
X158364350Y-111343254D01*
X158504157Y-111554064D01*
X159450093Y-112500000D01*
X158504157Y-113445936D01*
X158371200Y-113640526D01*
X158317574Y-113887733D01*
X158364350Y-114136326D01*
X158504157Y-114347136D01*
X158893066Y-114736045D01*
X159001943Y-114810437D01*
X159069843Y-114912821D01*
X159332022Y-115175000D01*
X153936840Y-115175000D01*
X153202710Y-114440870D01*
X153292249Y-114351488D01*
X153417942Y-114048784D01*
X155336575Y-112130151D01*
X155637429Y-112005841D01*
X155904902Y-111738835D01*
X156049835Y-111389796D01*
X156050165Y-111011862D01*
X155905841Y-110662571D01*
X155638835Y-110395098D01*
X155289796Y-110250165D01*
X154911862Y-110249835D01*
X154562571Y-110394159D01*
X154295098Y-110661165D01*
X154169405Y-110963869D01*
X152250772Y-112882502D01*
X152247147Y-112883999D01*
X151562399Y-112199251D01*
X151523663Y-111993389D01*
X151386781Y-111780668D01*
X151177924Y-111637962D01*
X151075000Y-111617119D01*
X151075000Y-110908569D01*
X151194332Y-110831781D01*
X151337038Y-110622924D01*
X151387244Y-110375000D01*
X151387244Y-110125000D01*
X152950394Y-110125000D01*
X153010204Y-110149835D01*
X153388138Y-110150165D01*
X153737429Y-110005841D01*
X154004902Y-109738835D01*
X154149835Y-109389796D01*
X154150165Y-109011862D01*
X154005841Y-108662571D01*
X153738835Y-108395098D01*
X153389796Y-108250165D01*
X153011862Y-108249835D01*
X152950958Y-108275000D01*
X150708148Y-108275000D01*
X143765000Y-101331852D01*
X143765000Y-99550713D01*
X143882983Y-99471880D01*
X144110000Y-99132124D01*
X144337017Y-99471880D01*
X144815542Y-99791619D01*
X145380000Y-99903897D01*
X145944458Y-99791619D01*
X146422983Y-99471880D01*
X146650000Y-99132124D01*
X146877017Y-99471880D01*
X147355542Y-99791619D01*
X147920000Y-99903897D01*
X148484458Y-99791619D01*
X148962983Y-99471880D01*
X149190000Y-99132124D01*
X149417017Y-99471880D01*
X149895542Y-99791619D01*
X150460000Y-99903897D01*
X151024458Y-99791619D01*
X151502983Y-99471880D01*
X151541521Y-99414204D01*
X151620150Y-99604034D01*
X151795966Y-99779849D01*
X152025680Y-99875000D01*
X152718750Y-99875000D01*
X152875000Y-99718750D01*
X152875000Y-98525000D01*
X153125000Y-98525000D01*
X153125000Y-99718750D01*
X153281250Y-99875000D01*
X153974320Y-99875000D01*
X154204034Y-99779849D01*
X154379850Y-99604034D01*
X154475000Y-99374320D01*
X154475000Y-98681250D01*
X154318750Y-98525000D01*
X153125000Y-98525000D01*
X152875000Y-98525000D01*
X152855000Y-98525000D01*
X152855000Y-98275000D01*
X152875000Y-98275000D01*
X152875000Y-97081250D01*
X153125000Y-97081250D01*
X153125000Y-98275000D01*
X154318750Y-98275000D01*
X154475000Y-98118750D01*
X154475000Y-97425680D01*
X154379850Y-97195966D01*
X154204034Y-97020151D01*
X153974320Y-96925000D01*
X153281250Y-96925000D01*
X153125000Y-97081250D01*
X152875000Y-97081250D01*
X152718750Y-96925000D01*
X152025680Y-96925000D01*
X151795966Y-97020151D01*
X151620150Y-97195966D01*
X151541521Y-97385796D01*
X151502983Y-97328120D01*
X151024458Y-97008381D01*
X150460000Y-96896103D01*
X149895542Y-97008381D01*
X149417017Y-97328120D01*
X149190000Y-97667876D01*
X148962983Y-97328120D01*
X148484458Y-97008381D01*
X147920000Y-96896103D01*
X147355542Y-97008381D01*
X146877017Y-97328120D01*
X146650000Y-97667876D01*
X146422983Y-97328120D01*
X145944458Y-97008381D01*
X145380000Y-96896103D01*
X144815542Y-97008381D01*
X144337017Y-97328120D01*
X144110000Y-97667876D01*
X143882983Y-97328120D01*
X143404458Y-97008381D01*
X142840000Y-96896103D01*
X142275542Y-97008381D01*
X141797017Y-97328120D01*
X141477278Y-97806645D01*
X141365000Y-98371103D01*
X141365000Y-98428897D01*
X141477278Y-98993355D01*
X141797017Y-99471880D01*
X141915000Y-99550713D01*
X141915000Y-101715000D01*
X141985411Y-102068983D01*
X142185926Y-102369074D01*
X145786637Y-105969785D01*
X145695098Y-106061165D01*
X145550165Y-106410204D01*
X145549835Y-106788138D01*
X145694159Y-107137429D01*
X145961165Y-107404902D01*
X146310204Y-107549835D01*
X146688138Y-107550165D01*
X147037429Y-107405841D01*
X147130142Y-107313290D01*
X148816852Y-109000000D01*
X148531250Y-109000000D01*
X148375000Y-109156250D01*
X148375000Y-109875000D01*
X148395000Y-109875000D01*
X148395000Y-110125000D01*
X148375000Y-110125000D01*
X148375000Y-110843750D01*
X148531250Y-111000000D01*
X148974320Y-111000000D01*
X149204034Y-110904850D01*
X149209857Y-110899027D01*
X149225000Y-110909374D01*
X149225000Y-111615040D01*
X149138389Y-111631337D01*
X148925668Y-111768219D01*
X148798517Y-111954311D01*
X148686781Y-111780668D01*
X148477924Y-111637962D01*
X148230000Y-111587756D01*
X146670000Y-111587756D01*
X146472067Y-111625000D01*
X146300000Y-111625000D01*
X145946018Y-111695411D01*
X145645926Y-111895926D01*
X145645924Y-111895929D01*
X145245926Y-112295926D01*
X145045411Y-112596017D01*
X145022021Y-112713609D01*
X144975000Y-112950000D01*
X144975000Y-114050000D01*
X145045411Y-114403983D01*
X145245926Y-114704074D01*
X145645924Y-115104071D01*
X145645926Y-115104074D01*
X145946018Y-115304589D01*
X146300000Y-115375000D01*
X146486084Y-115375000D01*
X146526633Y-115383211D01*
X146595411Y-115728983D01*
X146795926Y-116029074D01*
X146954608Y-116187756D01*
X146650000Y-116187756D01*
X146418389Y-116231337D01*
X146309980Y-116301096D01*
X146304034Y-116295150D01*
X146074320Y-116200000D01*
X145631250Y-116200000D01*
X145475000Y-116356250D01*
X145475000Y-117075000D01*
X145495000Y-117075000D01*
X145495000Y-117325000D01*
X145475000Y-117325000D01*
X145475000Y-118043750D01*
X145631250Y-118200000D01*
X146074320Y-118200000D01*
X146304034Y-118104850D01*
X146309857Y-118099027D01*
X146402076Y-118162038D01*
X146650000Y-118212244D01*
X147125001Y-118212244D01*
X147125001Y-121025021D01*
X146887107Y-121024814D01*
X146491857Y-121188128D01*
X146189191Y-121490267D01*
X146025187Y-121885231D01*
X146024814Y-122312893D01*
X146188128Y-122708143D01*
X146490267Y-123010809D01*
X146885231Y-123174813D01*
X146934052Y-123174856D01*
X146812962Y-123352076D01*
X146762756Y-123600000D01*
X146762756Y-124825000D01*
X146066481Y-124825000D01*
X145498004Y-124711923D01*
X145072435Y-124427567D01*
X144788077Y-124001996D01*
X144675000Y-123433519D01*
X144675000Y-123000000D01*
X144662030Y-122934795D01*
X144662030Y-122868314D01*
X144509789Y-122102947D01*
X144409001Y-121859623D01*
X143975456Y-121210777D01*
X143975455Y-121210775D01*
X143896366Y-121131686D01*
X143789225Y-121024544D01*
X143789220Y-121024542D01*
X143140376Y-120590999D01*
X142903806Y-120493008D01*
X142975858Y-120463237D01*
X143461531Y-119978410D01*
X143724700Y-119344629D01*
X143725299Y-118658382D01*
X143463237Y-118024142D01*
X142978410Y-117538469D01*
X142840612Y-117481250D01*
X144125000Y-117481250D01*
X144125000Y-117699320D01*
X144220151Y-117929034D01*
X144395966Y-118104850D01*
X144625680Y-118200000D01*
X145068750Y-118200000D01*
X145225000Y-118043750D01*
X145225000Y-117325000D01*
X144281250Y-117325000D01*
X144125000Y-117481250D01*
X142840612Y-117481250D01*
X142344629Y-117275300D01*
X141658382Y-117274701D01*
X141024142Y-117536763D01*
X140675000Y-117885297D01*
X140675000Y-116700680D01*
X144125000Y-116700680D01*
X144125000Y-116918750D01*
X144281250Y-117075000D01*
X145225000Y-117075000D01*
X145225000Y-116356250D01*
X145068750Y-116200000D01*
X144625680Y-116200000D01*
X144395966Y-116295150D01*
X144220151Y-116470966D01*
X144125000Y-116700680D01*
X140675000Y-116700680D01*
X140675000Y-110281250D01*
X147025000Y-110281250D01*
X147025000Y-110499320D01*
X147120151Y-110729034D01*
X147295966Y-110904850D01*
X147525680Y-111000000D01*
X147968750Y-111000000D01*
X148125000Y-110843750D01*
X148125000Y-110125000D01*
X147181250Y-110125000D01*
X147025000Y-110281250D01*
X140675000Y-110281250D01*
X140675000Y-109500680D01*
X147025000Y-109500680D01*
X147025000Y-109718750D01*
X147181250Y-109875000D01*
X148125000Y-109875000D01*
X148125000Y-109156250D01*
X147968750Y-109000000D01*
X147525680Y-109000000D01*
X147295966Y-109095150D01*
X147120151Y-109270966D01*
X147025000Y-109500680D01*
X140675000Y-109500680D01*
X140675000Y-97766481D01*
X140788077Y-97198004D01*
X141072435Y-96772433D01*
X141498004Y-96488077D01*
X142066481Y-96375000D01*
X174885664Y-96375000D01*
X174538469Y-96721590D01*
X174538469Y-96721590D01*
G37*
X174538469Y-96721590D02*
X174275300Y-97355371D01*
X174274701Y-98041618D01*
X174536763Y-98675858D01*
X175021590Y-99161531D01*
X175655371Y-99424700D01*
X176341618Y-99425299D01*
X176975858Y-99163237D01*
X177325000Y-98814703D01*
X177325000Y-122385664D01*
X176978410Y-122038469D01*
X176344629Y-121775300D01*
X175658382Y-121774701D01*
X175024142Y-122036763D01*
X174538469Y-122521590D01*
X174275300Y-123155371D01*
X174274701Y-123841618D01*
X174536763Y-124475858D01*
X174885297Y-124825000D01*
X164683148Y-124825000D01*
X166317553Y-123190595D01*
X166368219Y-123269332D01*
X166577076Y-123412038D01*
X166825000Y-123462244D01*
X168175000Y-123462244D01*
X168406611Y-123418663D01*
X168619332Y-123281781D01*
X168707959Y-123152071D01*
X168840540Y-123270330D01*
X169174117Y-123408491D01*
X169375000Y-123286899D01*
X169375000Y-122275000D01*
X169625000Y-122275000D01*
X169625000Y-123286899D01*
X169825883Y-123408491D01*
X170159460Y-123270330D01*
X170537993Y-122932686D01*
X170758502Y-122475885D01*
X170637737Y-122275000D01*
X169625000Y-122275000D01*
X169375000Y-122275000D01*
X169355000Y-122275000D01*
X169355000Y-122025000D01*
X169375000Y-122025000D01*
X169375000Y-122005000D01*
X169625000Y-122005000D01*
X169625000Y-122025000D01*
X170637737Y-122025000D01*
X170758502Y-121824115D01*
X170537993Y-121367314D01*
X170159460Y-121029670D01*
X169967248Y-120950059D01*
X170088138Y-120950165D01*
X170437429Y-120805841D01*
X170704902Y-120538835D01*
X170793366Y-120325790D01*
X171249467Y-120781891D01*
X171549558Y-120982406D01*
X171903541Y-121052817D01*
X172397455Y-121052817D01*
X172665517Y-121320879D01*
X172860107Y-121453836D01*
X173107314Y-121507462D01*
X173355907Y-121460686D01*
X173566717Y-121320879D01*
X174415245Y-120472351D01*
X174548202Y-120277761D01*
X174601828Y-120030554D01*
X174583783Y-119934655D01*
X174662948Y-119951828D01*
X174911541Y-119905052D01*
X175122351Y-119765245D01*
X175970879Y-118916717D01*
X176103836Y-118722127D01*
X176157462Y-118474920D01*
X176110686Y-118226327D01*
X175970879Y-118015517D01*
X175334483Y-117379121D01*
X175139893Y-117246164D01*
X174892686Y-117192538D01*
X174772430Y-117215166D01*
X175420879Y-116566717D01*
X175553836Y-116372127D01*
X175600324Y-116157824D01*
X175954074Y-115804074D01*
X176154589Y-115503982D01*
X176225001Y-115150000D01*
X176225000Y-115149995D01*
X176225000Y-113259221D01*
X176244332Y-113246781D01*
X176387038Y-113037924D01*
X176437244Y-112790000D01*
X176437244Y-111790000D01*
X176393663Y-111558389D01*
X176327736Y-111455936D01*
X176384715Y-111318360D01*
X176260652Y-111145000D01*
X175425000Y-111145000D01*
X175425000Y-111152756D01*
X175175000Y-111152756D01*
X175175000Y-111145000D01*
X175155000Y-111145000D01*
X175155000Y-110895000D01*
X175175000Y-110895000D01*
X175175000Y-110875000D01*
X175425000Y-110875000D01*
X175425000Y-110895000D01*
X176260652Y-110895000D01*
X176384715Y-110721640D01*
X176277992Y-110463955D01*
X176218193Y-110394850D01*
X176361404Y-110180519D01*
X176447040Y-109750000D01*
X176361404Y-109319481D01*
X176224774Y-109115000D01*
X176361404Y-108910519D01*
X176447040Y-108480000D01*
X176361404Y-108049481D01*
X176224774Y-107845000D01*
X176361404Y-107640519D01*
X176447040Y-107210000D01*
X176361404Y-106779481D01*
X176224774Y-106575000D01*
X176361404Y-106370519D01*
X176447040Y-105940000D01*
X176361404Y-105509481D01*
X176224774Y-105305000D01*
X176361404Y-105100519D01*
X176447040Y-104670000D01*
X176361404Y-104239481D01*
X176224774Y-104035000D01*
X176361404Y-103830519D01*
X176447040Y-103400000D01*
X176361404Y-102969481D01*
X176117535Y-102604505D01*
X175752559Y-102360636D01*
X175346614Y-102279888D01*
X175183363Y-102116637D01*
X174915714Y-101937799D01*
X174600000Y-101875000D01*
X169600000Y-101875000D01*
X169284286Y-101937799D01*
X169016637Y-102116637D01*
X165141942Y-105991332D01*
X164963104Y-106258981D01*
X164900305Y-106574695D01*
X164900305Y-107049788D01*
X164700000Y-107250093D01*
X163754064Y-106304157D01*
X163559474Y-106171200D01*
X163480618Y-106154094D01*
X163288046Y-105961522D01*
X163205841Y-105762571D01*
X162938835Y-105495098D01*
X162589796Y-105350165D01*
X162211862Y-105349835D01*
X161862571Y-105494159D01*
X161595098Y-105761165D01*
X161496752Y-105998009D01*
X161261529Y-106095201D01*
X160994056Y-106362207D01*
X160935056Y-106504294D01*
X160766878Y-106573784D01*
X160887038Y-106397924D01*
X160937244Y-106150000D01*
X160937244Y-105250000D01*
X160893663Y-105018389D01*
X160756781Y-104805668D01*
X160575000Y-104681462D01*
X160575000Y-104269907D01*
X160581611Y-104268663D01*
X160794332Y-104131781D01*
X160937038Y-103922924D01*
X160987244Y-103675000D01*
X160987244Y-103043360D01*
X163615285Y-103043360D01*
X163722008Y-103301045D01*
X164009242Y-103632980D01*
X164401638Y-103829728D01*
X164575000Y-103706797D01*
X164575000Y-102870000D01*
X164825000Y-102870000D01*
X164825000Y-103706797D01*
X164998362Y-103829728D01*
X165390758Y-103632980D01*
X165677992Y-103301045D01*
X165784715Y-103043360D01*
X165660652Y-102870000D01*
X164825000Y-102870000D01*
X164575000Y-102870000D01*
X163739348Y-102870000D01*
X163615285Y-103043360D01*
X160987244Y-103043360D01*
X160987244Y-102925000D01*
X160943663Y-102693389D01*
X160806781Y-102480668D01*
X160756980Y-102446640D01*
X163615285Y-102446640D01*
X163739348Y-102620000D01*
X164575000Y-102620000D01*
X164575000Y-101783203D01*
X164825000Y-101783203D01*
X164825000Y-102620000D01*
X165660652Y-102620000D01*
X165784715Y-102446640D01*
X165677992Y-102188955D01*
X165390758Y-101857020D01*
X164998362Y-101660272D01*
X164825000Y-101783203D01*
X164575000Y-101783203D01*
X164401638Y-101660272D01*
X164009242Y-101857020D01*
X163722008Y-102188955D01*
X163615285Y-102446640D01*
X160756980Y-102446640D01*
X160597924Y-102337962D01*
X160350000Y-102287756D01*
X159150000Y-102287756D01*
X158918389Y-102331337D01*
X158828200Y-102389372D01*
X158828200Y-99582210D01*
X159142983Y-99371880D01*
X159370000Y-99032124D01*
X159597017Y-99371880D01*
X160075542Y-99691619D01*
X160640000Y-99803897D01*
X161204458Y-99691619D01*
X161682983Y-99371880D01*
X161910000Y-99032124D01*
X162137017Y-99371880D01*
X162615542Y-99691619D01*
X163180000Y-99803897D01*
X163744458Y-99691619D01*
X164222983Y-99371880D01*
X164450000Y-99032124D01*
X164677017Y-99371880D01*
X165155542Y-99691619D01*
X165720000Y-99803897D01*
X166284458Y-99691619D01*
X166762983Y-99371880D01*
X166999085Y-99018527D01*
X167072185Y-99174497D01*
X167497258Y-99562487D01*
X167906628Y-99732045D01*
X168135000Y-99612812D01*
X168135000Y-98425000D01*
X168385000Y-98425000D01*
X168385000Y-99612812D01*
X168613372Y-99732045D01*
X169022742Y-99562487D01*
X169328690Y-99283229D01*
X169420150Y-99504034D01*
X169595966Y-99679849D01*
X169825680Y-99775000D01*
X170518750Y-99775000D01*
X170675000Y-99618750D01*
X170675000Y-98425000D01*
X170925000Y-98425000D01*
X170925000Y-99618750D01*
X171081250Y-99775000D01*
X171774320Y-99775000D01*
X172004034Y-99679849D01*
X172179850Y-99504034D01*
X172275000Y-99274320D01*
X172275000Y-98581250D01*
X172118750Y-98425000D01*
X170925000Y-98425000D01*
X170675000Y-98425000D01*
X168385000Y-98425000D01*
X168135000Y-98425000D01*
X168115000Y-98425000D01*
X168115000Y-98175000D01*
X168135000Y-98175000D01*
X168135000Y-96987188D01*
X168385000Y-96987188D01*
X168385000Y-98175000D01*
X170675000Y-98175000D01*
X170675000Y-96981250D01*
X170925000Y-96981250D01*
X170925000Y-98175000D01*
X172118750Y-98175000D01*
X172275000Y-98018750D01*
X172275000Y-97325680D01*
X172179850Y-97095966D01*
X172004034Y-96920151D01*
X171774320Y-96825000D01*
X171081250Y-96825000D01*
X170925000Y-96981250D01*
X170675000Y-96981250D01*
X170518750Y-96825000D01*
X169825680Y-96825000D01*
X169595966Y-96920151D01*
X169420150Y-97095966D01*
X169328690Y-97316771D01*
X169022742Y-97037513D01*
X168613372Y-96867955D01*
X168385000Y-96987188D01*
X168135000Y-96987188D01*
X167906628Y-96867955D01*
X167497258Y-97037513D01*
X167072185Y-97425503D01*
X166999085Y-97581473D01*
X166762983Y-97228120D01*
X166284458Y-96908381D01*
X165720000Y-96796103D01*
X165155542Y-96908381D01*
X164677017Y-97228120D01*
X164450000Y-97567876D01*
X164222983Y-97228120D01*
X163744458Y-96908381D01*
X163180000Y-96796103D01*
X162615542Y-96908381D01*
X162137017Y-97228120D01*
X161910000Y-97567876D01*
X161682983Y-97228120D01*
X161204458Y-96908381D01*
X160640000Y-96796103D01*
X160075542Y-96908381D01*
X159597017Y-97228120D01*
X159370000Y-97567876D01*
X159142983Y-97228120D01*
X158664458Y-96908381D01*
X158100000Y-96796103D01*
X157535542Y-96908381D01*
X157057017Y-97228120D01*
X156737278Y-97706645D01*
X156625000Y-98271103D01*
X156625000Y-98328897D01*
X156737278Y-98893355D01*
X157057017Y-99371880D01*
X157171800Y-99448575D01*
X157171800Y-101681882D01*
X156914796Y-101575165D01*
X156772915Y-101575041D01*
X156849835Y-101389796D01*
X156850165Y-101011862D01*
X156705841Y-100662571D01*
X156438835Y-100395098D01*
X156089796Y-100250165D01*
X156050044Y-100250130D01*
X156050165Y-100111862D01*
X155905841Y-99762571D01*
X155638835Y-99495098D01*
X155289796Y-99350165D01*
X154911862Y-99349835D01*
X154562571Y-99494159D01*
X154295098Y-99761165D01*
X154150165Y-100110204D01*
X154149835Y-100488138D01*
X154275000Y-100791061D01*
X154275000Y-107400000D01*
X154337799Y-107715714D01*
X154516637Y-107983363D01*
X156416637Y-109883363D01*
X156684286Y-110062201D01*
X157000000Y-110125000D01*
X158329847Y-110125000D01*
X158680934Y-110476087D01*
X158504157Y-110652864D01*
X158371200Y-110847454D01*
X158317574Y-111094661D01*
X158364350Y-111343254D01*
X158504157Y-111554064D01*
X159450093Y-112500000D01*
X158504157Y-113445936D01*
X158371200Y-113640526D01*
X158317574Y-113887733D01*
X158364350Y-114136326D01*
X158504157Y-114347136D01*
X158893066Y-114736045D01*
X159001943Y-114810437D01*
X159069843Y-114912821D01*
X159332022Y-115175000D01*
X153936840Y-115175000D01*
X153202710Y-114440870D01*
X153292249Y-114351488D01*
X153417942Y-114048784D01*
X155336575Y-112130151D01*
X155637429Y-112005841D01*
X155904902Y-111738835D01*
X156049835Y-111389796D01*
X156050165Y-111011862D01*
X155905841Y-110662571D01*
X155638835Y-110395098D01*
X155289796Y-110250165D01*
X154911862Y-110249835D01*
X154562571Y-110394159D01*
X154295098Y-110661165D01*
X154169405Y-110963869D01*
X152250772Y-112882502D01*
X152247147Y-112883999D01*
X151562399Y-112199251D01*
X151523663Y-111993389D01*
X151386781Y-111780668D01*
X151177924Y-111637962D01*
X151075000Y-111617119D01*
X151075000Y-110908569D01*
X151194332Y-110831781D01*
X151337038Y-110622924D01*
X151387244Y-110375000D01*
X151387244Y-110125000D01*
X152950394Y-110125000D01*
X153010204Y-110149835D01*
X153388138Y-110150165D01*
X153737429Y-110005841D01*
X154004902Y-109738835D01*
X154149835Y-109389796D01*
X154150165Y-109011862D01*
X154005841Y-108662571D01*
X153738835Y-108395098D01*
X153389796Y-108250165D01*
X153011862Y-108249835D01*
X152950958Y-108275000D01*
X150708148Y-108275000D01*
X143765000Y-101331852D01*
X143765000Y-99550713D01*
X143882983Y-99471880D01*
X144110000Y-99132124D01*
X144337017Y-99471880D01*
X144815542Y-99791619D01*
X145380000Y-99903897D01*
X145944458Y-99791619D01*
X146422983Y-99471880D01*
X146650000Y-99132124D01*
X146877017Y-99471880D01*
X147355542Y-99791619D01*
X147920000Y-99903897D01*
X148484458Y-99791619D01*
X148962983Y-99471880D01*
X149190000Y-99132124D01*
X149417017Y-99471880D01*
X149895542Y-99791619D01*
X150460000Y-99903897D01*
X151024458Y-99791619D01*
X151502983Y-99471880D01*
X151541521Y-99414204D01*
X151620150Y-99604034D01*
X151795966Y-99779849D01*
X152025680Y-99875000D01*
X152718750Y-99875000D01*
X152875000Y-99718750D01*
X152875000Y-98525000D01*
X153125000Y-98525000D01*
X153125000Y-99718750D01*
X153281250Y-99875000D01*
X153974320Y-99875000D01*
X154204034Y-99779849D01*
X154379850Y-99604034D01*
X154475000Y-99374320D01*
X154475000Y-98681250D01*
X154318750Y-98525000D01*
X153125000Y-98525000D01*
X152875000Y-98525000D01*
X152855000Y-98525000D01*
X152855000Y-98275000D01*
X152875000Y-98275000D01*
X152875000Y-97081250D01*
X153125000Y-97081250D01*
X153125000Y-98275000D01*
X154318750Y-98275000D01*
X154475000Y-98118750D01*
X154475000Y-97425680D01*
X154379850Y-97195966D01*
X154204034Y-97020151D01*
X153974320Y-96925000D01*
X153281250Y-96925000D01*
X153125000Y-97081250D01*
X152875000Y-97081250D01*
X152718750Y-96925000D01*
X152025680Y-96925000D01*
X151795966Y-97020151D01*
X151620150Y-97195966D01*
X151541521Y-97385796D01*
X151502983Y-97328120D01*
X151024458Y-97008381D01*
X150460000Y-96896103D01*
X149895542Y-97008381D01*
X149417017Y-97328120D01*
X149190000Y-97667876D01*
X148962983Y-97328120D01*
X148484458Y-97008381D01*
X147920000Y-96896103D01*
X147355542Y-97008381D01*
X146877017Y-97328120D01*
X146650000Y-97667876D01*
X146422983Y-97328120D01*
X145944458Y-97008381D01*
X145380000Y-96896103D01*
X144815542Y-97008381D01*
X144337017Y-97328120D01*
X144110000Y-97667876D01*
X143882983Y-97328120D01*
X143404458Y-97008381D01*
X142840000Y-96896103D01*
X142275542Y-97008381D01*
X141797017Y-97328120D01*
X141477278Y-97806645D01*
X141365000Y-98371103D01*
X141365000Y-98428897D01*
X141477278Y-98993355D01*
X141797017Y-99471880D01*
X141915000Y-99550713D01*
X141915000Y-101715000D01*
X141985411Y-102068983D01*
X142185926Y-102369074D01*
X145786637Y-105969785D01*
X145695098Y-106061165D01*
X145550165Y-106410204D01*
X145549835Y-106788138D01*
X145694159Y-107137429D01*
X145961165Y-107404902D01*
X146310204Y-107549835D01*
X146688138Y-107550165D01*
X147037429Y-107405841D01*
X147130142Y-107313290D01*
X148816852Y-109000000D01*
X148531250Y-109000000D01*
X148375000Y-109156250D01*
X148375000Y-109875000D01*
X148395000Y-109875000D01*
X148395000Y-110125000D01*
X148375000Y-110125000D01*
X148375000Y-110843750D01*
X148531250Y-111000000D01*
X148974320Y-111000000D01*
X149204034Y-110904850D01*
X149209857Y-110899027D01*
X149225000Y-110909374D01*
X149225000Y-111615040D01*
X149138389Y-111631337D01*
X148925668Y-111768219D01*
X148798517Y-111954311D01*
X148686781Y-111780668D01*
X148477924Y-111637962D01*
X148230000Y-111587756D01*
X146670000Y-111587756D01*
X146472067Y-111625000D01*
X146300000Y-111625000D01*
X145946018Y-111695411D01*
X145645926Y-111895926D01*
X145645924Y-111895929D01*
X145245926Y-112295926D01*
X145045411Y-112596017D01*
X145022021Y-112713609D01*
X144975000Y-112950000D01*
X144975000Y-114050000D01*
X145045411Y-114403983D01*
X145245926Y-114704074D01*
X145645924Y-115104071D01*
X145645926Y-115104074D01*
X145946018Y-115304589D01*
X146300000Y-115375000D01*
X146486084Y-115375000D01*
X146526633Y-115383211D01*
X146595411Y-115728983D01*
X146795926Y-116029074D01*
X146954608Y-116187756D01*
X146650000Y-116187756D01*
X146418389Y-116231337D01*
X146309980Y-116301096D01*
X146304034Y-116295150D01*
X146074320Y-116200000D01*
X145631250Y-116200000D01*
X145475000Y-116356250D01*
X145475000Y-117075000D01*
X145495000Y-117075000D01*
X145495000Y-117325000D01*
X145475000Y-117325000D01*
X145475000Y-118043750D01*
X145631250Y-118200000D01*
X146074320Y-118200000D01*
X146304034Y-118104850D01*
X146309857Y-118099027D01*
X146402076Y-118162038D01*
X146650000Y-118212244D01*
X147125001Y-118212244D01*
X147125001Y-121025021D01*
X146887107Y-121024814D01*
X146491857Y-121188128D01*
X146189191Y-121490267D01*
X146025187Y-121885231D01*
X146024814Y-122312893D01*
X146188128Y-122708143D01*
X146490267Y-123010809D01*
X146885231Y-123174813D01*
X146934052Y-123174856D01*
X146812962Y-123352076D01*
X146762756Y-123600000D01*
X146762756Y-124825000D01*
X146066481Y-124825000D01*
X145498004Y-124711923D01*
X145072435Y-124427567D01*
X144788077Y-124001996D01*
X144675000Y-123433519D01*
X144675000Y-123000000D01*
X144662030Y-122934795D01*
X144662030Y-122868314D01*
X144509789Y-122102947D01*
X144409001Y-121859623D01*
X143975456Y-121210777D01*
X143975455Y-121210775D01*
X143896366Y-121131686D01*
X143789225Y-121024544D01*
X143789220Y-121024542D01*
X143140376Y-120590999D01*
X142903806Y-120493008D01*
X142975858Y-120463237D01*
X143461531Y-119978410D01*
X143724700Y-119344629D01*
X143725299Y-118658382D01*
X143463237Y-118024142D01*
X142978410Y-117538469D01*
X142840612Y-117481250D01*
X144125000Y-117481250D01*
X144125000Y-117699320D01*
X144220151Y-117929034D01*
X144395966Y-118104850D01*
X144625680Y-118200000D01*
X145068750Y-118200000D01*
X145225000Y-118043750D01*
X145225000Y-117325000D01*
X144281250Y-117325000D01*
X144125000Y-117481250D01*
X142840612Y-117481250D01*
X142344629Y-117275300D01*
X141658382Y-117274701D01*
X141024142Y-117536763D01*
X140675000Y-117885297D01*
X140675000Y-116700680D01*
X144125000Y-116700680D01*
X144125000Y-116918750D01*
X144281250Y-117075000D01*
X145225000Y-117075000D01*
X145225000Y-116356250D01*
X145068750Y-116200000D01*
X144625680Y-116200000D01*
X144395966Y-116295150D01*
X144220151Y-116470966D01*
X144125000Y-116700680D01*
X140675000Y-116700680D01*
X140675000Y-110281250D01*
X147025000Y-110281250D01*
X147025000Y-110499320D01*
X147120151Y-110729034D01*
X147295966Y-110904850D01*
X147525680Y-111000000D01*
X147968750Y-111000000D01*
X148125000Y-110843750D01*
X148125000Y-110125000D01*
X147181250Y-110125000D01*
X147025000Y-110281250D01*
X140675000Y-110281250D01*
X140675000Y-109500680D01*
X147025000Y-109500680D01*
X147025000Y-109718750D01*
X147181250Y-109875000D01*
X148125000Y-109875000D01*
X148125000Y-109156250D01*
X147968750Y-109000000D01*
X147525680Y-109000000D01*
X147295966Y-109095150D01*
X147120151Y-109270966D01*
X147025000Y-109500680D01*
X140675000Y-109500680D01*
X140675000Y-97766481D01*
X140788077Y-97198004D01*
X141072435Y-96772433D01*
X141498004Y-96488077D01*
X142066481Y-96375000D01*
X174885664Y-96375000D01*
X174538469Y-96721590D01*
G36*
X166380668Y-121018219D02*
X166239380Y-121225000D01*
X166050000Y-121225000D01*
X165696017Y-121295411D01*
X165395926Y-121495926D01*
X163516852Y-123375000D01*
X163027464Y-123375000D01*
X163159460Y-123320330D01*
X163537993Y-122982686D01*
X163758502Y-122525885D01*
X163637737Y-122325000D01*
X162625000Y-122325000D01*
X162625000Y-122345000D01*
X162375000Y-122345000D01*
X162375000Y-122325000D01*
X162355000Y-122325000D01*
X162355000Y-122075000D01*
X162375000Y-122075000D01*
X162375000Y-122055000D01*
X162625000Y-122055000D01*
X162625000Y-122075000D01*
X163637737Y-122075000D01*
X163758502Y-121874115D01*
X163537993Y-121417314D01*
X163159460Y-121079670D01*
X162825883Y-120941509D01*
X162625002Y-121063100D01*
X162625002Y-120925000D01*
X166525535Y-120925000D01*
X166380668Y-121018219D01*
X166380668Y-121018219D01*
G37*
X166380668Y-121018219D02*
X166239380Y-121225000D01*
X166050000Y-121225000D01*
X165696017Y-121295411D01*
X165395926Y-121495926D01*
X163516852Y-123375000D01*
X163027464Y-123375000D01*
X163159460Y-123320330D01*
X163537993Y-122982686D01*
X163758502Y-122525885D01*
X163637737Y-122325000D01*
X162625000Y-122325000D01*
X162625000Y-122345000D01*
X162375000Y-122345000D01*
X162375000Y-122325000D01*
X162355000Y-122325000D01*
X162355000Y-122075000D01*
X162375000Y-122075000D01*
X162375000Y-122055000D01*
X162625000Y-122055000D01*
X162625000Y-122075000D01*
X163637737Y-122075000D01*
X163758502Y-121874115D01*
X163537993Y-121417314D01*
X163159460Y-121079670D01*
X162825883Y-120941509D01*
X162625002Y-121063100D01*
X162625002Y-120925000D01*
X166525535Y-120925000D01*
X166380668Y-121018219D01*
G36*
X164903474Y-108725637D02*
X165012348Y-108800027D01*
X165080250Y-108902414D01*
X165469159Y-109291323D01*
X165578036Y-109365715D01*
X165645936Y-109468099D01*
X166034845Y-109857008D01*
X166124531Y-109918287D01*
X166132372Y-109937218D01*
X166215860Y-110020706D01*
X166371146Y-110020706D01*
X166476642Y-110043591D01*
X166617398Y-110017106D01*
X166590724Y-110140067D01*
X166613608Y-110261685D01*
X166613608Y-110418454D01*
X166697096Y-110501942D01*
X166718510Y-110510812D01*
X166777307Y-110599470D01*
X167166216Y-110988379D01*
X167275091Y-111062770D01*
X167342992Y-111165155D01*
X167731901Y-111554064D01*
X167840775Y-111628454D01*
X167908677Y-111730841D01*
X168297586Y-112119750D01*
X168406463Y-112194142D01*
X168474363Y-112296526D01*
X168677837Y-112500000D01*
X168474363Y-112703474D01*
X168399973Y-112812348D01*
X168297586Y-112880250D01*
X167908677Y-113269159D01*
X167834285Y-113378036D01*
X167731901Y-113445936D01*
X167342992Y-113834845D01*
X167268601Y-113943720D01*
X167166216Y-114011621D01*
X166777307Y-114400530D01*
X166702916Y-114509406D01*
X166600530Y-114577307D01*
X166211621Y-114966216D01*
X166137230Y-115075091D01*
X166034845Y-115142992D01*
X165645936Y-115531901D01*
X165571546Y-115640775D01*
X165469159Y-115708677D01*
X165080250Y-116097586D01*
X165005858Y-116206463D01*
X164903474Y-116274363D01*
X164700000Y-116477837D01*
X164496526Y-116274363D01*
X164387652Y-116199973D01*
X164319750Y-116097586D01*
X163930841Y-115708677D01*
X163821964Y-115634285D01*
X163754064Y-115531901D01*
X163365155Y-115142992D01*
X163275469Y-115081713D01*
X163267628Y-115062782D01*
X163184140Y-114979294D01*
X163028854Y-114979294D01*
X162923358Y-114956409D01*
X162782602Y-114982894D01*
X162809276Y-114859933D01*
X162786392Y-114738315D01*
X162786392Y-114581546D01*
X162702904Y-114498058D01*
X162681490Y-114489188D01*
X162622693Y-114400530D01*
X162233784Y-114011621D01*
X162144098Y-113950342D01*
X162136257Y-113931411D01*
X162052769Y-113847923D01*
X161897483Y-113847923D01*
X161791987Y-113825038D01*
X161651232Y-113851523D01*
X161677906Y-113728562D01*
X161655021Y-113606939D01*
X161655021Y-113450175D01*
X161571533Y-113366687D01*
X161550121Y-113357818D01*
X161491323Y-113269159D01*
X161102414Y-112880250D01*
X160993537Y-112805858D01*
X160925637Y-112703474D01*
X160722163Y-112500000D01*
X160925637Y-112296526D01*
X161000027Y-112187652D01*
X161102414Y-112119750D01*
X161491323Y-111730841D01*
X161565715Y-111621964D01*
X161668099Y-111554064D01*
X162057008Y-111165155D01*
X162131399Y-111056280D01*
X162233784Y-110988379D01*
X162622693Y-110599470D01*
X162697084Y-110490594D01*
X162799470Y-110422693D01*
X163188379Y-110033784D01*
X163262770Y-109924909D01*
X163365155Y-109857008D01*
X163754064Y-109468099D01*
X163828454Y-109359225D01*
X163930841Y-109291323D01*
X164319750Y-108902414D01*
X164394142Y-108793537D01*
X164496526Y-108725637D01*
X164700000Y-108522163D01*
X164903474Y-108725637D01*
X164903474Y-108725637D01*
G37*
X164903474Y-108725637D02*
X165012348Y-108800027D01*
X165080250Y-108902414D01*
X165469159Y-109291323D01*
X165578036Y-109365715D01*
X165645936Y-109468099D01*
X166034845Y-109857008D01*
X166124531Y-109918287D01*
X166132372Y-109937218D01*
X166215860Y-110020706D01*
X166371146Y-110020706D01*
X166476642Y-110043591D01*
X166617398Y-110017106D01*
X166590724Y-110140067D01*
X166613608Y-110261685D01*
X166613608Y-110418454D01*
X166697096Y-110501942D01*
X166718510Y-110510812D01*
X166777307Y-110599470D01*
X167166216Y-110988379D01*
X167275091Y-111062770D01*
X167342992Y-111165155D01*
X167731901Y-111554064D01*
X167840775Y-111628454D01*
X167908677Y-111730841D01*
X168297586Y-112119750D01*
X168406463Y-112194142D01*
X168474363Y-112296526D01*
X168677837Y-112500000D01*
X168474363Y-112703474D01*
X168399973Y-112812348D01*
X168297586Y-112880250D01*
X167908677Y-113269159D01*
X167834285Y-113378036D01*
X167731901Y-113445936D01*
X167342992Y-113834845D01*
X167268601Y-113943720D01*
X167166216Y-114011621D01*
X166777307Y-114400530D01*
X166702916Y-114509406D01*
X166600530Y-114577307D01*
X166211621Y-114966216D01*
X166137230Y-115075091D01*
X166034845Y-115142992D01*
X165645936Y-115531901D01*
X165571546Y-115640775D01*
X165469159Y-115708677D01*
X165080250Y-116097586D01*
X165005858Y-116206463D01*
X164903474Y-116274363D01*
X164700000Y-116477837D01*
X164496526Y-116274363D01*
X164387652Y-116199973D01*
X164319750Y-116097586D01*
X163930841Y-115708677D01*
X163821964Y-115634285D01*
X163754064Y-115531901D01*
X163365155Y-115142992D01*
X163275469Y-115081713D01*
X163267628Y-115062782D01*
X163184140Y-114979294D01*
X163028854Y-114979294D01*
X162923358Y-114956409D01*
X162782602Y-114982894D01*
X162809276Y-114859933D01*
X162786392Y-114738315D01*
X162786392Y-114581546D01*
X162702904Y-114498058D01*
X162681490Y-114489188D01*
X162622693Y-114400530D01*
X162233784Y-114011621D01*
X162144098Y-113950342D01*
X162136257Y-113931411D01*
X162052769Y-113847923D01*
X161897483Y-113847923D01*
X161791987Y-113825038D01*
X161651232Y-113851523D01*
X161677906Y-113728562D01*
X161655021Y-113606939D01*
X161655021Y-113450175D01*
X161571533Y-113366687D01*
X161550121Y-113357818D01*
X161491323Y-113269159D01*
X161102414Y-112880250D01*
X160993537Y-112805858D01*
X160925637Y-112703474D01*
X160722163Y-112500000D01*
X160925637Y-112296526D01*
X161000027Y-112187652D01*
X161102414Y-112119750D01*
X161491323Y-111730841D01*
X161565715Y-111621964D01*
X161668099Y-111554064D01*
X162057008Y-111165155D01*
X162131399Y-111056280D01*
X162233784Y-110988379D01*
X162622693Y-110599470D01*
X162697084Y-110490594D01*
X162799470Y-110422693D01*
X163188379Y-110033784D01*
X163262770Y-109924909D01*
X163365155Y-109857008D01*
X163754064Y-109468099D01*
X163828454Y-109359225D01*
X163930841Y-109291323D01*
X164319750Y-108902414D01*
X164394142Y-108793537D01*
X164496526Y-108725637D01*
X164700000Y-108522163D01*
X164903474Y-108725637D01*
G36*
X148913219Y-113319332D02*
X149122076Y-113462038D01*
X149307318Y-113499551D01*
X149138389Y-113531337D01*
X148925668Y-113668219D01*
X148851101Y-113777351D01*
X148698750Y-113625000D01*
X148605308Y-113625000D01*
X148477924Y-113537962D01*
X148292682Y-113500449D01*
X148461611Y-113468663D01*
X148607168Y-113375000D01*
X148698750Y-113375000D01*
X148851043Y-113222707D01*
X148913219Y-113319332D01*
X148913219Y-113319332D01*
G37*
X148913219Y-113319332D02*
X149122076Y-113462038D01*
X149307318Y-113499551D01*
X149138389Y-113531337D01*
X148925668Y-113668219D01*
X148851101Y-113777351D01*
X148698750Y-113625000D01*
X148605308Y-113625000D01*
X148477924Y-113537962D01*
X148292682Y-113500449D01*
X148461611Y-113468663D01*
X148607168Y-113375000D01*
X148698750Y-113375000D01*
X148851043Y-113222707D01*
X148913219Y-113319332D01*
G36*
X170219168Y-103914107D02*
X170205026Y-103928249D01*
X170219168Y-103942391D01*
X170042391Y-104119168D01*
X170028249Y-104105026D01*
X169520016Y-104613259D01*
X169520016Y-104834230D01*
X169833314Y-105147527D01*
X170063027Y-105242678D01*
X170071261Y-105242678D01*
X170091915Y-105352442D01*
X170231722Y-105563252D01*
X170275000Y-105606530D01*
X170275000Y-105743470D01*
X170163252Y-105631722D01*
X169968662Y-105498765D01*
X169842678Y-105471436D01*
X169842678Y-105463027D01*
X169747527Y-105233314D01*
X169434230Y-104920016D01*
X169213259Y-104920016D01*
X168705026Y-105428249D01*
X168719168Y-105442391D01*
X168542391Y-105619168D01*
X168528249Y-105605026D01*
X168020016Y-106113259D01*
X168020016Y-106334230D01*
X168333314Y-106647527D01*
X168563027Y-106742678D01*
X168571261Y-106742678D01*
X168591915Y-106852442D01*
X168731722Y-107063252D01*
X168875000Y-107206530D01*
X168875000Y-107582539D01*
X168341600Y-108115938D01*
X168341598Y-108115936D01*
X168241281Y-108216253D01*
X168231114Y-108162217D01*
X168231114Y-108005452D01*
X168147626Y-107921964D01*
X168126213Y-107913094D01*
X168067416Y-107824437D01*
X167678507Y-107435528D01*
X167569630Y-107361136D01*
X167501730Y-107258752D01*
X167112821Y-106869843D01*
X167003947Y-106795453D01*
X166936045Y-106693066D01*
X166854853Y-106611874D01*
X167576256Y-105890470D01*
X167622268Y-105936482D01*
X167843239Y-105936482D01*
X168351472Y-105428249D01*
X168337330Y-105414107D01*
X168514107Y-105237330D01*
X168528249Y-105251472D01*
X169036482Y-104743239D01*
X169036482Y-104522268D01*
X168990470Y-104476256D01*
X169076256Y-104390470D01*
X169122268Y-104436482D01*
X169343239Y-104436482D01*
X169851472Y-103928249D01*
X169837330Y-103914107D01*
X170014107Y-103737330D01*
X170028249Y-103751472D01*
X170042391Y-103737330D01*
X170219168Y-103914107D01*
X170219168Y-103914107D01*
G37*
X170219168Y-103914107D02*
X170205026Y-103928249D01*
X170219168Y-103942391D01*
X170042391Y-104119168D01*
X170028249Y-104105026D01*
X169520016Y-104613259D01*
X169520016Y-104834230D01*
X169833314Y-105147527D01*
X170063027Y-105242678D01*
X170071261Y-105242678D01*
X170091915Y-105352442D01*
X170231722Y-105563252D01*
X170275000Y-105606530D01*
X170275000Y-105743470D01*
X170163252Y-105631722D01*
X169968662Y-105498765D01*
X169842678Y-105471436D01*
X169842678Y-105463027D01*
X169747527Y-105233314D01*
X169434230Y-104920016D01*
X169213259Y-104920016D01*
X168705026Y-105428249D01*
X168719168Y-105442391D01*
X168542391Y-105619168D01*
X168528249Y-105605026D01*
X168020016Y-106113259D01*
X168020016Y-106334230D01*
X168333314Y-106647527D01*
X168563027Y-106742678D01*
X168571261Y-106742678D01*
X168591915Y-106852442D01*
X168731722Y-107063252D01*
X168875000Y-107206530D01*
X168875000Y-107582539D01*
X168341600Y-108115938D01*
X168341598Y-108115936D01*
X168241281Y-108216253D01*
X168231114Y-108162217D01*
X168231114Y-108005452D01*
X168147626Y-107921964D01*
X168126213Y-107913094D01*
X168067416Y-107824437D01*
X167678507Y-107435528D01*
X167569630Y-107361136D01*
X167501730Y-107258752D01*
X167112821Y-106869843D01*
X167003947Y-106795453D01*
X166936045Y-106693066D01*
X166854853Y-106611874D01*
X167576256Y-105890470D01*
X167622268Y-105936482D01*
X167843239Y-105936482D01*
X168351472Y-105428249D01*
X168337330Y-105414107D01*
X168514107Y-105237330D01*
X168528249Y-105251472D01*
X169036482Y-104743239D01*
X169036482Y-104522268D01*
X168990470Y-104476256D01*
X169076256Y-104390470D01*
X169122268Y-104436482D01*
X169343239Y-104436482D01*
X169851472Y-103928249D01*
X169837330Y-103914107D01*
X170014107Y-103737330D01*
X170028249Y-103751472D01*
X170042391Y-103737330D01*
X170219168Y-103914107D01*
M02*
