M48
;DRILL file {KiCad 4.0.4-stable} date Wednesday, September 27, 2017 'PMt' 07:19:28 PM
;FORMAT={-:-/ absolute / inch / decimal}
FMAT,2
INCH,TZ
T1C0.016
T2C0.028
T3C0.031
T4C0.039
T5C0.035
T6C0.087
%
G90
G05
M72
T1
X5.7677Y-4.1969
X5.7913Y-4.3307
X6.0034Y-4.4808
X6.0315Y-4.2992
X6.0669Y-4.622
X6.1063Y-3.9488
X6.1063Y-4.378
X6.1378Y-3.9843
X6.1703Y-4.0364
X6.2008Y-4.2254
X6.252Y-4.2323
X6.3339Y-4.6019
X6.3443Y-4.2301
X6.37Y-4.2087
X6.3937Y-4.185
X6.5984Y-4.185
X6.6811Y-4.1378
X6.689Y-4.7244
X6.7323Y-4.3268
X6.748Y-4.4567
X6.7795Y-4.1102
X6.8066Y-4.4902
T2
X6.4843Y-4.0451
X6.9016Y-4.0709
X6.9016Y-4.1209
X6.9016Y-4.1709
X6.9016Y-4.2209
X6.9016Y-4.2709
X6.9016Y-4.3209
X6.9016Y-4.3709
X6.9016Y-4.4209
T3
X6.3189Y-4.811
X6.3976Y-4.811
X6.5945Y-4.8091
X6.6732Y-4.8091
T4
X5.6236Y-3.874
X5.7236Y-3.874
X5.8236Y-3.874
X5.9236Y-3.874
X6.0236Y-3.874
X6.2244Y-3.8701
X6.3244Y-3.8701
X6.4244Y-3.8701
X6.5244Y-3.8701
X6.6244Y-3.8701
X6.7244Y-3.8701
T5
X5.7913Y-4.8071
X6.0591Y-4.8071
T6
X5.5906Y-4.685
X6.9291Y-3.8465
X6.9291Y-4.8622
T0
M30
