G04 #@! TF.FileFunction,Copper,L2,Bot,Signal*
%FSLAX46Y46*%
G04 Gerber Fmt 4.6, Leading zero omitted, Abs format (unit mm)*
G04 Created by KiCad (PCBNEW 4.0.4-stable) date Wednesday, September 27, 2017 'PMt' 07:19:19 PM*
%MOMM*%
%LPD*%
G01*
G04 APERTURE LIST*
%ADD10C,0.100000*%
%ADD11R,3.000000X1.000000*%
%ADD12R,1.000000X1.000000*%
%ADD13O,1.000000X1.000000*%
%ADD14R,1.700000X1.700000*%
%ADD15O,1.700000X1.700000*%
%ADD16R,1.350000X1.350000*%
%ADD17O,1.350000X1.350000*%
%ADD18C,0.650000*%
%ADD19C,0.400000*%
%ADD20C,0.600000*%
%ADD21C,0.406400*%
%ADD22C,0.250000*%
G04 APERTURE END LIST*
D10*
D11*
X145380000Y-108760000D03*
X150420000Y-108760000D03*
X145380000Y-111300000D03*
X150420000Y-111300000D03*
X145380000Y-113840000D03*
X150420000Y-113840000D03*
D12*
X175300000Y-112290000D03*
D13*
X175300000Y-111020000D03*
X175300000Y-109750000D03*
X175300000Y-108480000D03*
X175300000Y-107210000D03*
X175300000Y-105940000D03*
X175300000Y-104670000D03*
X175300000Y-103400000D03*
X164700000Y-102745000D03*
D14*
X153000000Y-98400000D03*
D15*
X150460000Y-98400000D03*
X147920000Y-98400000D03*
X145380000Y-98400000D03*
X142840000Y-98400000D03*
D14*
X170800000Y-98300000D03*
D15*
X168260000Y-98300000D03*
X165720000Y-98300000D03*
X163180000Y-98300000D03*
X160640000Y-98300000D03*
X158100000Y-98300000D03*
D16*
X160500000Y-122200000D03*
D17*
X162500000Y-122200000D03*
D16*
X167500000Y-122150000D03*
D17*
X169500000Y-122150000D03*
D18*
X154100000Y-117400000D03*
X160881500Y-116889384D03*
X169700000Y-105100000D03*
X167600000Y-106300000D03*
X147100000Y-110000000D03*
X155100000Y-111200000D03*
X158800000Y-107500000D03*
X152487347Y-113812653D03*
X153200000Y-109200000D03*
X157500000Y-107325000D03*
X146500000Y-106600000D03*
X156725000Y-102525000D03*
X172200000Y-104400000D03*
X169900000Y-120000000D03*
X161145875Y-107445088D03*
X161798958Y-106901042D03*
X162400000Y-106300000D03*
X171000000Y-109900000D03*
X172887347Y-114050000D03*
X171400000Y-113200000D03*
X155100000Y-100300000D03*
X155900000Y-101200000D03*
D19*
X158800000Y-107500000D02*
X155100000Y-111200000D01*
X150420000Y-113840000D02*
X152460000Y-113840000D01*
X152460000Y-113840000D02*
X152487347Y-113812653D01*
D20*
X155625000Y-109200000D02*
X153200000Y-109200000D01*
X157500000Y-107325000D02*
X155625000Y-109200000D01*
X145380000Y-108760000D02*
X145380000Y-107720000D01*
X145380000Y-107720000D02*
X146500000Y-106600000D01*
X165735000Y-99735000D02*
X162945000Y-102525000D01*
X162945000Y-102525000D02*
X156725000Y-102525000D01*
X175300000Y-112290000D02*
X176010000Y-112290000D01*
X176600000Y-102700000D02*
X175900000Y-102000000D01*
X176010000Y-112290000D02*
X176600000Y-111700000D01*
X176600000Y-111700000D02*
X176600000Y-102700000D01*
X175900000Y-102000000D02*
X171900000Y-102000000D01*
X169900000Y-120000000D02*
X175300000Y-114600000D01*
X175300000Y-114600000D02*
X175300000Y-112290000D01*
X165735000Y-98400000D02*
X165735000Y-99735000D01*
X165735000Y-99735000D02*
X168000000Y-102000000D01*
X168000000Y-102000000D02*
X171900000Y-102000000D01*
X171900000Y-102000000D02*
X172200000Y-102300000D01*
X172200000Y-102300000D02*
X172200000Y-104400000D01*
D19*
X145380000Y-98400000D02*
X145380000Y-99680000D01*
X145380000Y-99680000D02*
X152200000Y-106500000D01*
X152200000Y-106500000D02*
X160200787Y-106500000D01*
X160200787Y-106500000D02*
X161145875Y-107445088D01*
X147920000Y-98400000D02*
X147920000Y-99620000D01*
X147920000Y-99620000D02*
X153700000Y-105400000D01*
X153700000Y-105400000D02*
X160297916Y-105400000D01*
X160297916Y-105400000D02*
X161798958Y-106901042D01*
X150460000Y-98400000D02*
X150460000Y-99660000D01*
X150460000Y-99660000D02*
X155100000Y-104300000D01*
X155100000Y-104300000D02*
X160400000Y-104300000D01*
X160400000Y-104300000D02*
X162400000Y-106300000D01*
D21*
X175387000Y-109855000D02*
X175133000Y-109855000D01*
D19*
X150420000Y-111300000D02*
X152251458Y-111300000D01*
X152251458Y-111300000D02*
X160451458Y-119500000D01*
X160451458Y-119500000D02*
X166950000Y-119500000D01*
X172125001Y-114324999D02*
X172125001Y-110025001D01*
X166950000Y-119500000D02*
X172125001Y-114324999D01*
X172125001Y-110025001D02*
X171300000Y-109200000D01*
X171000000Y-109500000D02*
X171300000Y-109200000D01*
X171300000Y-109200000D02*
X171500000Y-109000000D01*
X171000000Y-109500000D02*
X171000000Y-109900000D01*
X171500000Y-109000000D02*
X172500000Y-109000000D01*
X174000000Y-109000000D02*
X172500000Y-109000000D01*
X174200000Y-108800000D02*
X174000000Y-109000000D01*
X174200000Y-107602894D02*
X174200000Y-108800000D01*
X175300000Y-107210000D02*
X174592894Y-107210000D01*
X174592894Y-107210000D02*
X174200000Y-107602894D01*
X172887347Y-114862653D02*
X172887347Y-114050000D01*
X172887347Y-114862653D02*
X167250000Y-120500000D01*
X160200000Y-120500000D02*
X152300000Y-112600000D01*
X167250000Y-120500000D02*
X160200000Y-120500000D01*
X152300000Y-112600000D02*
X147680000Y-112600000D01*
X147680000Y-112600000D02*
X146380000Y-111300000D01*
X146380000Y-111300000D02*
X145380000Y-111300000D01*
X150420000Y-108760000D02*
X151060000Y-108760000D01*
X151060000Y-108760000D02*
X161000000Y-118700000D01*
X161000000Y-118700000D02*
X166600000Y-118700000D01*
X166600000Y-118700000D02*
X171400000Y-113900000D01*
X171400000Y-113900000D02*
X171400000Y-113700000D01*
X171400000Y-113700000D02*
X171400000Y-113200000D01*
X171300000Y-113100000D02*
X171400000Y-113200000D01*
X155100000Y-100300000D02*
X159700000Y-100300000D01*
X159700000Y-100300000D02*
X160600000Y-99400000D01*
X160640000Y-98300000D02*
X160600000Y-98340000D01*
X160600000Y-98340000D02*
X160600000Y-99400000D01*
X155900000Y-101200000D02*
X161900000Y-101200000D01*
X161900000Y-101200000D02*
X163180000Y-99920000D01*
X163180000Y-99920000D02*
X163180000Y-98300000D01*
D22*
G36*
X174538469Y-96721590D02*
X174275300Y-97355371D01*
X174274701Y-98041618D01*
X174536763Y-98675858D01*
X175021590Y-99161531D01*
X175655371Y-99424700D01*
X176341618Y-99425299D01*
X176975858Y-99163237D01*
X177325000Y-98814703D01*
X177325000Y-102152074D01*
X177254074Y-102045926D01*
X177254071Y-102045924D01*
X176554074Y-101345926D01*
X176253983Y-101145411D01*
X175900000Y-101075000D01*
X168383148Y-101075000D01*
X166713255Y-99405107D01*
X166762983Y-99371880D01*
X166999085Y-99018527D01*
X167072185Y-99174497D01*
X167497258Y-99562487D01*
X167906628Y-99732045D01*
X168135000Y-99612812D01*
X168135000Y-98425000D01*
X168385000Y-98425000D01*
X168385000Y-99612812D01*
X168613372Y-99732045D01*
X169022742Y-99562487D01*
X169328690Y-99283229D01*
X169420150Y-99504034D01*
X169595966Y-99679849D01*
X169825680Y-99775000D01*
X170518750Y-99775000D01*
X170675000Y-99618750D01*
X170675000Y-98425000D01*
X170925000Y-98425000D01*
X170925000Y-99618750D01*
X171081250Y-99775000D01*
X171774320Y-99775000D01*
X172004034Y-99679849D01*
X172179850Y-99504034D01*
X172275000Y-99274320D01*
X172275000Y-98581250D01*
X172118750Y-98425000D01*
X170925000Y-98425000D01*
X170675000Y-98425000D01*
X168385000Y-98425000D01*
X168135000Y-98425000D01*
X168115000Y-98425000D01*
X168115000Y-98175000D01*
X168135000Y-98175000D01*
X168135000Y-96987188D01*
X168385000Y-96987188D01*
X168385000Y-98175000D01*
X170675000Y-98175000D01*
X170675000Y-96981250D01*
X170925000Y-96981250D01*
X170925000Y-98175000D01*
X172118750Y-98175000D01*
X172275000Y-98018750D01*
X172275000Y-97325680D01*
X172179850Y-97095966D01*
X172004034Y-96920151D01*
X171774320Y-96825000D01*
X171081250Y-96825000D01*
X170925000Y-96981250D01*
X170675000Y-96981250D01*
X170518750Y-96825000D01*
X169825680Y-96825000D01*
X169595966Y-96920151D01*
X169420150Y-97095966D01*
X169328690Y-97316771D01*
X169022742Y-97037513D01*
X168613372Y-96867955D01*
X168385000Y-96987188D01*
X168135000Y-96987188D01*
X167906628Y-96867955D01*
X167497258Y-97037513D01*
X167072185Y-97425503D01*
X166999085Y-97581473D01*
X166762983Y-97228120D01*
X166284458Y-96908381D01*
X165720000Y-96796103D01*
X165155542Y-96908381D01*
X164677017Y-97228120D01*
X164450000Y-97567876D01*
X164222983Y-97228120D01*
X163744458Y-96908381D01*
X163180000Y-96796103D01*
X162615542Y-96908381D01*
X162137017Y-97228120D01*
X161910000Y-97567876D01*
X161682983Y-97228120D01*
X161204458Y-96908381D01*
X160640000Y-96796103D01*
X160075542Y-96908381D01*
X159597017Y-97228120D01*
X159370000Y-97567876D01*
X159142983Y-97228120D01*
X158664458Y-96908381D01*
X158100000Y-96796103D01*
X157535542Y-96908381D01*
X157057017Y-97228120D01*
X156737278Y-97706645D01*
X156625000Y-98271103D01*
X156625000Y-98328897D01*
X156737278Y-98893355D01*
X157057017Y-99371880D01*
X157211348Y-99475000D01*
X155590433Y-99475000D01*
X155289796Y-99350165D01*
X154911862Y-99349835D01*
X154562571Y-99494159D01*
X154295098Y-99761165D01*
X154150165Y-100110204D01*
X154149835Y-100488138D01*
X154294159Y-100837429D01*
X154561165Y-101104902D01*
X154910204Y-101249835D01*
X154949956Y-101249870D01*
X154949835Y-101388138D01*
X155094159Y-101737429D01*
X155361165Y-102004902D01*
X155710204Y-102149835D01*
X155852085Y-102149959D01*
X155775165Y-102335204D01*
X155774835Y-102713138D01*
X155919159Y-103062429D01*
X156186165Y-103329902D01*
X156535204Y-103474835D01*
X156724171Y-103475000D01*
X155441726Y-103475000D01*
X151464392Y-99497666D01*
X151502983Y-99471880D01*
X151541521Y-99414204D01*
X151620150Y-99604034D01*
X151795966Y-99779849D01*
X152025680Y-99875000D01*
X152718750Y-99875000D01*
X152875000Y-99718750D01*
X152875000Y-98525000D01*
X153125000Y-98525000D01*
X153125000Y-99718750D01*
X153281250Y-99875000D01*
X153974320Y-99875000D01*
X154204034Y-99779849D01*
X154379850Y-99604034D01*
X154475000Y-99374320D01*
X154475000Y-98681250D01*
X154318750Y-98525000D01*
X153125000Y-98525000D01*
X152875000Y-98525000D01*
X152855000Y-98525000D01*
X152855000Y-98275000D01*
X152875000Y-98275000D01*
X152875000Y-97081250D01*
X153125000Y-97081250D01*
X153125000Y-98275000D01*
X154318750Y-98275000D01*
X154475000Y-98118750D01*
X154475000Y-97425680D01*
X154379850Y-97195966D01*
X154204034Y-97020151D01*
X153974320Y-96925000D01*
X153281250Y-96925000D01*
X153125000Y-97081250D01*
X152875000Y-97081250D01*
X152718750Y-96925000D01*
X152025680Y-96925000D01*
X151795966Y-97020151D01*
X151620150Y-97195966D01*
X151541521Y-97385796D01*
X151502983Y-97328120D01*
X151024458Y-97008381D01*
X150460000Y-96896103D01*
X149895542Y-97008381D01*
X149417017Y-97328120D01*
X149190000Y-97667876D01*
X148962983Y-97328120D01*
X148484458Y-97008381D01*
X147920000Y-96896103D01*
X147355542Y-97008381D01*
X146877017Y-97328120D01*
X146650000Y-97667876D01*
X146422983Y-97328120D01*
X145944458Y-97008381D01*
X145380000Y-96896103D01*
X144815542Y-97008381D01*
X144337017Y-97328120D01*
X144110000Y-97667876D01*
X143882983Y-97328120D01*
X143404458Y-97008381D01*
X142840000Y-96896103D01*
X142275542Y-97008381D01*
X141797017Y-97328120D01*
X141477278Y-97806645D01*
X141365000Y-98371103D01*
X141365000Y-98428897D01*
X141477278Y-98993355D01*
X141797017Y-99471880D01*
X142275542Y-99791619D01*
X142840000Y-99903897D01*
X143404458Y-99791619D01*
X143882983Y-99471880D01*
X144110000Y-99132124D01*
X144337017Y-99471880D01*
X144555000Y-99617531D01*
X144555000Y-99680000D01*
X144617799Y-99995714D01*
X144796637Y-100263363D01*
X151616637Y-107083363D01*
X151884286Y-107262201D01*
X152200000Y-107325000D01*
X156191853Y-107325000D01*
X155241852Y-108275000D01*
X153449606Y-108275000D01*
X153389796Y-108250165D01*
X153011862Y-108249835D01*
X152662571Y-108394159D01*
X152557244Y-108499302D01*
X152557244Y-108260000D01*
X152513663Y-108028389D01*
X152376781Y-107815668D01*
X152167924Y-107672962D01*
X151920000Y-107622756D01*
X148920000Y-107622756D01*
X148688389Y-107666337D01*
X148475668Y-107803219D01*
X148332962Y-108012076D01*
X148282756Y-108260000D01*
X148282756Y-109260000D01*
X148326337Y-109491611D01*
X148463219Y-109704332D01*
X148672076Y-109847038D01*
X148920000Y-109897244D01*
X151030518Y-109897244D01*
X151296030Y-110162756D01*
X148920000Y-110162756D01*
X148688389Y-110206337D01*
X148475668Y-110343219D01*
X148332962Y-110552076D01*
X148282756Y-110800000D01*
X148282756Y-111775000D01*
X148021726Y-111775000D01*
X147517244Y-111270518D01*
X147517244Y-110800000D01*
X147473663Y-110568389D01*
X147336781Y-110355668D01*
X147127924Y-110212962D01*
X146880000Y-110162756D01*
X143880000Y-110162756D01*
X143648389Y-110206337D01*
X143435668Y-110343219D01*
X143292962Y-110552076D01*
X143242756Y-110800000D01*
X143242756Y-111800000D01*
X143286337Y-112031611D01*
X143423219Y-112244332D01*
X143632076Y-112387038D01*
X143880000Y-112437244D01*
X146350518Y-112437244D01*
X146628274Y-112715000D01*
X145661250Y-112715000D01*
X145505000Y-112871250D01*
X145505000Y-113715000D01*
X147348750Y-113715000D01*
X147505000Y-113558750D01*
X147505000Y-113390191D01*
X147680000Y-113425000D01*
X148282756Y-113425000D01*
X148282756Y-114340000D01*
X148326337Y-114571611D01*
X148463219Y-114784332D01*
X148672076Y-114927038D01*
X148920000Y-114977244D01*
X151920000Y-114977244D01*
X152151611Y-114933663D01*
X152364332Y-114796781D01*
X152387710Y-114762567D01*
X152675485Y-114762818D01*
X153024776Y-114618494D01*
X153088327Y-114555053D01*
X159515032Y-120981758D01*
X159380668Y-121068219D01*
X159237962Y-121277076D01*
X159187756Y-121525000D01*
X159187756Y-122875000D01*
X159231337Y-123106611D01*
X159368219Y-123319332D01*
X159577076Y-123462038D01*
X159825000Y-123512244D01*
X161175000Y-123512244D01*
X161406611Y-123468663D01*
X161619332Y-123331781D01*
X161707959Y-123202071D01*
X161840540Y-123320330D01*
X162174117Y-123458491D01*
X162375000Y-123336899D01*
X162375000Y-122325000D01*
X162625000Y-122325000D01*
X162625000Y-123336899D01*
X162825883Y-123458491D01*
X163159460Y-123320330D01*
X163537993Y-122982686D01*
X163758502Y-122525885D01*
X163637737Y-122325000D01*
X162625000Y-122325000D01*
X162375000Y-122325000D01*
X162355000Y-122325000D01*
X162355000Y-122075000D01*
X162375000Y-122075000D01*
X162375000Y-122055000D01*
X162625000Y-122055000D01*
X162625000Y-122075000D01*
X163637737Y-122075000D01*
X163758502Y-121874115D01*
X163537993Y-121417314D01*
X163434500Y-121325000D01*
X166218132Y-121325000D01*
X166187756Y-121475000D01*
X166187756Y-122825000D01*
X166231337Y-123056611D01*
X166368219Y-123269332D01*
X166577076Y-123412038D01*
X166825000Y-123462244D01*
X168175000Y-123462244D01*
X168406611Y-123418663D01*
X168619332Y-123281781D01*
X168707959Y-123152071D01*
X168840540Y-123270330D01*
X169174117Y-123408491D01*
X169375000Y-123286899D01*
X169375000Y-122275000D01*
X169625000Y-122275000D01*
X169625000Y-123286899D01*
X169825883Y-123408491D01*
X170159460Y-123270330D01*
X170537993Y-122932686D01*
X170758502Y-122475885D01*
X170637737Y-122275000D01*
X169625000Y-122275000D01*
X169375000Y-122275000D01*
X169355000Y-122275000D01*
X169355000Y-122025000D01*
X169375000Y-122025000D01*
X169375000Y-122005000D01*
X169625000Y-122005000D01*
X169625000Y-122025000D01*
X170637737Y-122025000D01*
X170758502Y-121824115D01*
X170537993Y-121367314D01*
X170159460Y-121029670D01*
X169967248Y-120950059D01*
X170088138Y-120950165D01*
X170437429Y-120805841D01*
X170704902Y-120538835D01*
X170730173Y-120477975D01*
X175954074Y-115254074D01*
X176154589Y-114953983D01*
X176225000Y-114600000D01*
X176225000Y-113259221D01*
X176244332Y-113246781D01*
X176306320Y-113156059D01*
X176363983Y-113144589D01*
X176664074Y-112944074D01*
X177254074Y-112354074D01*
X177325000Y-112247926D01*
X177325000Y-122385664D01*
X176978410Y-122038469D01*
X176344629Y-121775300D01*
X175658382Y-121774701D01*
X175024142Y-122036763D01*
X174538469Y-122521590D01*
X174275300Y-123155371D01*
X174274701Y-123841618D01*
X174536763Y-124475858D01*
X174885297Y-124825000D01*
X146066481Y-124825000D01*
X145498004Y-124711923D01*
X145072435Y-124427567D01*
X144788077Y-124001996D01*
X144675000Y-123433519D01*
X144675000Y-123000000D01*
X144662030Y-122934795D01*
X144662030Y-122868314D01*
X144551550Y-122312893D01*
X146024814Y-122312893D01*
X146188128Y-122708143D01*
X146490267Y-123010809D01*
X146885231Y-123174813D01*
X147312893Y-123175186D01*
X147708143Y-123011872D01*
X148010809Y-122709733D01*
X148174813Y-122314769D01*
X148174814Y-122312893D01*
X152824814Y-122312893D01*
X152988128Y-122708143D01*
X153290267Y-123010809D01*
X153685231Y-123174813D01*
X154112893Y-123175186D01*
X154508143Y-123011872D01*
X154810809Y-122709733D01*
X154974813Y-122314769D01*
X154975186Y-121887107D01*
X154811872Y-121491857D01*
X154509733Y-121189191D01*
X154114769Y-121025187D01*
X153687107Y-121024814D01*
X153291857Y-121188128D01*
X152989191Y-121490267D01*
X152825187Y-121885231D01*
X152824814Y-122312893D01*
X148174814Y-122312893D01*
X148175186Y-121887107D01*
X148011872Y-121491857D01*
X147709733Y-121189191D01*
X147314769Y-121025187D01*
X146887107Y-121024814D01*
X146491857Y-121188128D01*
X146189191Y-121490267D01*
X146025187Y-121885231D01*
X146024814Y-122312893D01*
X144551550Y-122312893D01*
X144509789Y-122102947D01*
X144409001Y-121859623D01*
X143975456Y-121210777D01*
X143975455Y-121210775D01*
X143896366Y-121131686D01*
X143789225Y-121024544D01*
X143789220Y-121024542D01*
X143140376Y-120590999D01*
X142903806Y-120493008D01*
X142975858Y-120463237D01*
X143461531Y-119978410D01*
X143724700Y-119344629D01*
X143725299Y-118658382D01*
X143463237Y-118024142D01*
X142978410Y-117538469D01*
X142344629Y-117275300D01*
X141658382Y-117274701D01*
X141024142Y-117536763D01*
X140675000Y-117885297D01*
X140675000Y-114121250D01*
X143255000Y-114121250D01*
X143255000Y-114464320D01*
X143350151Y-114694034D01*
X143525966Y-114869850D01*
X143755680Y-114965000D01*
X145098750Y-114965000D01*
X145255000Y-114808750D01*
X145255000Y-113965000D01*
X145505000Y-113965000D01*
X145505000Y-114808750D01*
X145661250Y-114965000D01*
X147004320Y-114965000D01*
X147234034Y-114869850D01*
X147409849Y-114694034D01*
X147505000Y-114464320D01*
X147505000Y-114121250D01*
X147348750Y-113965000D01*
X145505000Y-113965000D01*
X145255000Y-113965000D01*
X143411250Y-113965000D01*
X143255000Y-114121250D01*
X140675000Y-114121250D01*
X140675000Y-113215680D01*
X143255000Y-113215680D01*
X143255000Y-113558750D01*
X143411250Y-113715000D01*
X145255000Y-113715000D01*
X145255000Y-112871250D01*
X145098750Y-112715000D01*
X143755680Y-112715000D01*
X143525966Y-112810150D01*
X143350151Y-112985966D01*
X143255000Y-113215680D01*
X140675000Y-113215680D01*
X140675000Y-108260000D01*
X143242756Y-108260000D01*
X143242756Y-109260000D01*
X143286337Y-109491611D01*
X143423219Y-109704332D01*
X143632076Y-109847038D01*
X143880000Y-109897244D01*
X146880000Y-109897244D01*
X147111611Y-109853663D01*
X147324332Y-109716781D01*
X147467038Y-109507924D01*
X147517244Y-109260000D01*
X147517244Y-108260000D01*
X147473663Y-108028389D01*
X147336781Y-107815668D01*
X147127924Y-107672962D01*
X146880000Y-107622756D01*
X146785392Y-107622756D01*
X146977576Y-107430572D01*
X147037429Y-107405841D01*
X147304902Y-107138835D01*
X147449835Y-106789796D01*
X147450165Y-106411862D01*
X147305841Y-106062571D01*
X147038835Y-105795098D01*
X146689796Y-105650165D01*
X146311862Y-105649835D01*
X145962571Y-105794159D01*
X145695098Y-106061165D01*
X145669827Y-106122025D01*
X144725926Y-107065926D01*
X144525411Y-107366017D01*
X144474343Y-107622756D01*
X143880000Y-107622756D01*
X143648389Y-107666337D01*
X143435668Y-107803219D01*
X143292962Y-108012076D01*
X143242756Y-108260000D01*
X140675000Y-108260000D01*
X140675000Y-97766481D01*
X140788077Y-97198004D01*
X141072435Y-96772433D01*
X141498004Y-96488077D01*
X142066481Y-96375000D01*
X174885664Y-96375000D01*
X174538469Y-96721590D01*
X174538469Y-96721590D01*
G37*
X174538469Y-96721590D02*
X174275300Y-97355371D01*
X174274701Y-98041618D01*
X174536763Y-98675858D01*
X175021590Y-99161531D01*
X175655371Y-99424700D01*
X176341618Y-99425299D01*
X176975858Y-99163237D01*
X177325000Y-98814703D01*
X177325000Y-102152074D01*
X177254074Y-102045926D01*
X177254071Y-102045924D01*
X176554074Y-101345926D01*
X176253983Y-101145411D01*
X175900000Y-101075000D01*
X168383148Y-101075000D01*
X166713255Y-99405107D01*
X166762983Y-99371880D01*
X166999085Y-99018527D01*
X167072185Y-99174497D01*
X167497258Y-99562487D01*
X167906628Y-99732045D01*
X168135000Y-99612812D01*
X168135000Y-98425000D01*
X168385000Y-98425000D01*
X168385000Y-99612812D01*
X168613372Y-99732045D01*
X169022742Y-99562487D01*
X169328690Y-99283229D01*
X169420150Y-99504034D01*
X169595966Y-99679849D01*
X169825680Y-99775000D01*
X170518750Y-99775000D01*
X170675000Y-99618750D01*
X170675000Y-98425000D01*
X170925000Y-98425000D01*
X170925000Y-99618750D01*
X171081250Y-99775000D01*
X171774320Y-99775000D01*
X172004034Y-99679849D01*
X172179850Y-99504034D01*
X172275000Y-99274320D01*
X172275000Y-98581250D01*
X172118750Y-98425000D01*
X170925000Y-98425000D01*
X170675000Y-98425000D01*
X168385000Y-98425000D01*
X168135000Y-98425000D01*
X168115000Y-98425000D01*
X168115000Y-98175000D01*
X168135000Y-98175000D01*
X168135000Y-96987188D01*
X168385000Y-96987188D01*
X168385000Y-98175000D01*
X170675000Y-98175000D01*
X170675000Y-96981250D01*
X170925000Y-96981250D01*
X170925000Y-98175000D01*
X172118750Y-98175000D01*
X172275000Y-98018750D01*
X172275000Y-97325680D01*
X172179850Y-97095966D01*
X172004034Y-96920151D01*
X171774320Y-96825000D01*
X171081250Y-96825000D01*
X170925000Y-96981250D01*
X170675000Y-96981250D01*
X170518750Y-96825000D01*
X169825680Y-96825000D01*
X169595966Y-96920151D01*
X169420150Y-97095966D01*
X169328690Y-97316771D01*
X169022742Y-97037513D01*
X168613372Y-96867955D01*
X168385000Y-96987188D01*
X168135000Y-96987188D01*
X167906628Y-96867955D01*
X167497258Y-97037513D01*
X167072185Y-97425503D01*
X166999085Y-97581473D01*
X166762983Y-97228120D01*
X166284458Y-96908381D01*
X165720000Y-96796103D01*
X165155542Y-96908381D01*
X164677017Y-97228120D01*
X164450000Y-97567876D01*
X164222983Y-97228120D01*
X163744458Y-96908381D01*
X163180000Y-96796103D01*
X162615542Y-96908381D01*
X162137017Y-97228120D01*
X161910000Y-97567876D01*
X161682983Y-97228120D01*
X161204458Y-96908381D01*
X160640000Y-96796103D01*
X160075542Y-96908381D01*
X159597017Y-97228120D01*
X159370000Y-97567876D01*
X159142983Y-97228120D01*
X158664458Y-96908381D01*
X158100000Y-96796103D01*
X157535542Y-96908381D01*
X157057017Y-97228120D01*
X156737278Y-97706645D01*
X156625000Y-98271103D01*
X156625000Y-98328897D01*
X156737278Y-98893355D01*
X157057017Y-99371880D01*
X157211348Y-99475000D01*
X155590433Y-99475000D01*
X155289796Y-99350165D01*
X154911862Y-99349835D01*
X154562571Y-99494159D01*
X154295098Y-99761165D01*
X154150165Y-100110204D01*
X154149835Y-100488138D01*
X154294159Y-100837429D01*
X154561165Y-101104902D01*
X154910204Y-101249835D01*
X154949956Y-101249870D01*
X154949835Y-101388138D01*
X155094159Y-101737429D01*
X155361165Y-102004902D01*
X155710204Y-102149835D01*
X155852085Y-102149959D01*
X155775165Y-102335204D01*
X155774835Y-102713138D01*
X155919159Y-103062429D01*
X156186165Y-103329902D01*
X156535204Y-103474835D01*
X156724171Y-103475000D01*
X155441726Y-103475000D01*
X151464392Y-99497666D01*
X151502983Y-99471880D01*
X151541521Y-99414204D01*
X151620150Y-99604034D01*
X151795966Y-99779849D01*
X152025680Y-99875000D01*
X152718750Y-99875000D01*
X152875000Y-99718750D01*
X152875000Y-98525000D01*
X153125000Y-98525000D01*
X153125000Y-99718750D01*
X153281250Y-99875000D01*
X153974320Y-99875000D01*
X154204034Y-99779849D01*
X154379850Y-99604034D01*
X154475000Y-99374320D01*
X154475000Y-98681250D01*
X154318750Y-98525000D01*
X153125000Y-98525000D01*
X152875000Y-98525000D01*
X152855000Y-98525000D01*
X152855000Y-98275000D01*
X152875000Y-98275000D01*
X152875000Y-97081250D01*
X153125000Y-97081250D01*
X153125000Y-98275000D01*
X154318750Y-98275000D01*
X154475000Y-98118750D01*
X154475000Y-97425680D01*
X154379850Y-97195966D01*
X154204034Y-97020151D01*
X153974320Y-96925000D01*
X153281250Y-96925000D01*
X153125000Y-97081250D01*
X152875000Y-97081250D01*
X152718750Y-96925000D01*
X152025680Y-96925000D01*
X151795966Y-97020151D01*
X151620150Y-97195966D01*
X151541521Y-97385796D01*
X151502983Y-97328120D01*
X151024458Y-97008381D01*
X150460000Y-96896103D01*
X149895542Y-97008381D01*
X149417017Y-97328120D01*
X149190000Y-97667876D01*
X148962983Y-97328120D01*
X148484458Y-97008381D01*
X147920000Y-96896103D01*
X147355542Y-97008381D01*
X146877017Y-97328120D01*
X146650000Y-97667876D01*
X146422983Y-97328120D01*
X145944458Y-97008381D01*
X145380000Y-96896103D01*
X144815542Y-97008381D01*
X144337017Y-97328120D01*
X144110000Y-97667876D01*
X143882983Y-97328120D01*
X143404458Y-97008381D01*
X142840000Y-96896103D01*
X142275542Y-97008381D01*
X141797017Y-97328120D01*
X141477278Y-97806645D01*
X141365000Y-98371103D01*
X141365000Y-98428897D01*
X141477278Y-98993355D01*
X141797017Y-99471880D01*
X142275542Y-99791619D01*
X142840000Y-99903897D01*
X143404458Y-99791619D01*
X143882983Y-99471880D01*
X144110000Y-99132124D01*
X144337017Y-99471880D01*
X144555000Y-99617531D01*
X144555000Y-99680000D01*
X144617799Y-99995714D01*
X144796637Y-100263363D01*
X151616637Y-107083363D01*
X151884286Y-107262201D01*
X152200000Y-107325000D01*
X156191853Y-107325000D01*
X155241852Y-108275000D01*
X153449606Y-108275000D01*
X153389796Y-108250165D01*
X153011862Y-108249835D01*
X152662571Y-108394159D01*
X152557244Y-108499302D01*
X152557244Y-108260000D01*
X152513663Y-108028389D01*
X152376781Y-107815668D01*
X152167924Y-107672962D01*
X151920000Y-107622756D01*
X148920000Y-107622756D01*
X148688389Y-107666337D01*
X148475668Y-107803219D01*
X148332962Y-108012076D01*
X148282756Y-108260000D01*
X148282756Y-109260000D01*
X148326337Y-109491611D01*
X148463219Y-109704332D01*
X148672076Y-109847038D01*
X148920000Y-109897244D01*
X151030518Y-109897244D01*
X151296030Y-110162756D01*
X148920000Y-110162756D01*
X148688389Y-110206337D01*
X148475668Y-110343219D01*
X148332962Y-110552076D01*
X148282756Y-110800000D01*
X148282756Y-111775000D01*
X148021726Y-111775000D01*
X147517244Y-111270518D01*
X147517244Y-110800000D01*
X147473663Y-110568389D01*
X147336781Y-110355668D01*
X147127924Y-110212962D01*
X146880000Y-110162756D01*
X143880000Y-110162756D01*
X143648389Y-110206337D01*
X143435668Y-110343219D01*
X143292962Y-110552076D01*
X143242756Y-110800000D01*
X143242756Y-111800000D01*
X143286337Y-112031611D01*
X143423219Y-112244332D01*
X143632076Y-112387038D01*
X143880000Y-112437244D01*
X146350518Y-112437244D01*
X146628274Y-112715000D01*
X145661250Y-112715000D01*
X145505000Y-112871250D01*
X145505000Y-113715000D01*
X147348750Y-113715000D01*
X147505000Y-113558750D01*
X147505000Y-113390191D01*
X147680000Y-113425000D01*
X148282756Y-113425000D01*
X148282756Y-114340000D01*
X148326337Y-114571611D01*
X148463219Y-114784332D01*
X148672076Y-114927038D01*
X148920000Y-114977244D01*
X151920000Y-114977244D01*
X152151611Y-114933663D01*
X152364332Y-114796781D01*
X152387710Y-114762567D01*
X152675485Y-114762818D01*
X153024776Y-114618494D01*
X153088327Y-114555053D01*
X159515032Y-120981758D01*
X159380668Y-121068219D01*
X159237962Y-121277076D01*
X159187756Y-121525000D01*
X159187756Y-122875000D01*
X159231337Y-123106611D01*
X159368219Y-123319332D01*
X159577076Y-123462038D01*
X159825000Y-123512244D01*
X161175000Y-123512244D01*
X161406611Y-123468663D01*
X161619332Y-123331781D01*
X161707959Y-123202071D01*
X161840540Y-123320330D01*
X162174117Y-123458491D01*
X162375000Y-123336899D01*
X162375000Y-122325000D01*
X162625000Y-122325000D01*
X162625000Y-123336899D01*
X162825883Y-123458491D01*
X163159460Y-123320330D01*
X163537993Y-122982686D01*
X163758502Y-122525885D01*
X163637737Y-122325000D01*
X162625000Y-122325000D01*
X162375000Y-122325000D01*
X162355000Y-122325000D01*
X162355000Y-122075000D01*
X162375000Y-122075000D01*
X162375000Y-122055000D01*
X162625000Y-122055000D01*
X162625000Y-122075000D01*
X163637737Y-122075000D01*
X163758502Y-121874115D01*
X163537993Y-121417314D01*
X163434500Y-121325000D01*
X166218132Y-121325000D01*
X166187756Y-121475000D01*
X166187756Y-122825000D01*
X166231337Y-123056611D01*
X166368219Y-123269332D01*
X166577076Y-123412038D01*
X166825000Y-123462244D01*
X168175000Y-123462244D01*
X168406611Y-123418663D01*
X168619332Y-123281781D01*
X168707959Y-123152071D01*
X168840540Y-123270330D01*
X169174117Y-123408491D01*
X169375000Y-123286899D01*
X169375000Y-122275000D01*
X169625000Y-122275000D01*
X169625000Y-123286899D01*
X169825883Y-123408491D01*
X170159460Y-123270330D01*
X170537993Y-122932686D01*
X170758502Y-122475885D01*
X170637737Y-122275000D01*
X169625000Y-122275000D01*
X169375000Y-122275000D01*
X169355000Y-122275000D01*
X169355000Y-122025000D01*
X169375000Y-122025000D01*
X169375000Y-122005000D01*
X169625000Y-122005000D01*
X169625000Y-122025000D01*
X170637737Y-122025000D01*
X170758502Y-121824115D01*
X170537993Y-121367314D01*
X170159460Y-121029670D01*
X169967248Y-120950059D01*
X170088138Y-120950165D01*
X170437429Y-120805841D01*
X170704902Y-120538835D01*
X170730173Y-120477975D01*
X175954074Y-115254074D01*
X176154589Y-114953983D01*
X176225000Y-114600000D01*
X176225000Y-113259221D01*
X176244332Y-113246781D01*
X176306320Y-113156059D01*
X176363983Y-113144589D01*
X176664074Y-112944074D01*
X177254074Y-112354074D01*
X177325000Y-112247926D01*
X177325000Y-122385664D01*
X176978410Y-122038469D01*
X176344629Y-121775300D01*
X175658382Y-121774701D01*
X175024142Y-122036763D01*
X174538469Y-122521590D01*
X174275300Y-123155371D01*
X174274701Y-123841618D01*
X174536763Y-124475858D01*
X174885297Y-124825000D01*
X146066481Y-124825000D01*
X145498004Y-124711923D01*
X145072435Y-124427567D01*
X144788077Y-124001996D01*
X144675000Y-123433519D01*
X144675000Y-123000000D01*
X144662030Y-122934795D01*
X144662030Y-122868314D01*
X144551550Y-122312893D01*
X146024814Y-122312893D01*
X146188128Y-122708143D01*
X146490267Y-123010809D01*
X146885231Y-123174813D01*
X147312893Y-123175186D01*
X147708143Y-123011872D01*
X148010809Y-122709733D01*
X148174813Y-122314769D01*
X148174814Y-122312893D01*
X152824814Y-122312893D01*
X152988128Y-122708143D01*
X153290267Y-123010809D01*
X153685231Y-123174813D01*
X154112893Y-123175186D01*
X154508143Y-123011872D01*
X154810809Y-122709733D01*
X154974813Y-122314769D01*
X154975186Y-121887107D01*
X154811872Y-121491857D01*
X154509733Y-121189191D01*
X154114769Y-121025187D01*
X153687107Y-121024814D01*
X153291857Y-121188128D01*
X152989191Y-121490267D01*
X152825187Y-121885231D01*
X152824814Y-122312893D01*
X148174814Y-122312893D01*
X148175186Y-121887107D01*
X148011872Y-121491857D01*
X147709733Y-121189191D01*
X147314769Y-121025187D01*
X146887107Y-121024814D01*
X146491857Y-121188128D01*
X146189191Y-121490267D01*
X146025187Y-121885231D01*
X146024814Y-122312893D01*
X144551550Y-122312893D01*
X144509789Y-122102947D01*
X144409001Y-121859623D01*
X143975456Y-121210777D01*
X143975455Y-121210775D01*
X143896366Y-121131686D01*
X143789225Y-121024544D01*
X143789220Y-121024542D01*
X143140376Y-120590999D01*
X142903806Y-120493008D01*
X142975858Y-120463237D01*
X143461531Y-119978410D01*
X143724700Y-119344629D01*
X143725299Y-118658382D01*
X143463237Y-118024142D01*
X142978410Y-117538469D01*
X142344629Y-117275300D01*
X141658382Y-117274701D01*
X141024142Y-117536763D01*
X140675000Y-117885297D01*
X140675000Y-114121250D01*
X143255000Y-114121250D01*
X143255000Y-114464320D01*
X143350151Y-114694034D01*
X143525966Y-114869850D01*
X143755680Y-114965000D01*
X145098750Y-114965000D01*
X145255000Y-114808750D01*
X145255000Y-113965000D01*
X145505000Y-113965000D01*
X145505000Y-114808750D01*
X145661250Y-114965000D01*
X147004320Y-114965000D01*
X147234034Y-114869850D01*
X147409849Y-114694034D01*
X147505000Y-114464320D01*
X147505000Y-114121250D01*
X147348750Y-113965000D01*
X145505000Y-113965000D01*
X145255000Y-113965000D01*
X143411250Y-113965000D01*
X143255000Y-114121250D01*
X140675000Y-114121250D01*
X140675000Y-113215680D01*
X143255000Y-113215680D01*
X143255000Y-113558750D01*
X143411250Y-113715000D01*
X145255000Y-113715000D01*
X145255000Y-112871250D01*
X145098750Y-112715000D01*
X143755680Y-112715000D01*
X143525966Y-112810150D01*
X143350151Y-112985966D01*
X143255000Y-113215680D01*
X140675000Y-113215680D01*
X140675000Y-108260000D01*
X143242756Y-108260000D01*
X143242756Y-109260000D01*
X143286337Y-109491611D01*
X143423219Y-109704332D01*
X143632076Y-109847038D01*
X143880000Y-109897244D01*
X146880000Y-109897244D01*
X147111611Y-109853663D01*
X147324332Y-109716781D01*
X147467038Y-109507924D01*
X147517244Y-109260000D01*
X147517244Y-108260000D01*
X147473663Y-108028389D01*
X147336781Y-107815668D01*
X147127924Y-107672962D01*
X146880000Y-107622756D01*
X146785392Y-107622756D01*
X146977576Y-107430572D01*
X147037429Y-107405841D01*
X147304902Y-107138835D01*
X147449835Y-106789796D01*
X147450165Y-106411862D01*
X147305841Y-106062571D01*
X147038835Y-105795098D01*
X146689796Y-105650165D01*
X146311862Y-105649835D01*
X145962571Y-105794159D01*
X145695098Y-106061165D01*
X145669827Y-106122025D01*
X144725926Y-107065926D01*
X144525411Y-107366017D01*
X144474343Y-107622756D01*
X143880000Y-107622756D01*
X143648389Y-107666337D01*
X143435668Y-107803219D01*
X143292962Y-108012076D01*
X143242756Y-108260000D01*
X140675000Y-108260000D01*
X140675000Y-97766481D01*
X140788077Y-97198004D01*
X141072435Y-96772433D01*
X141498004Y-96488077D01*
X142066481Y-96375000D01*
X174885664Y-96375000D01*
X174538469Y-96721590D01*
G36*
X167345926Y-102654074D02*
X167646018Y-102854589D01*
X168000000Y-102925001D01*
X168000005Y-102925000D01*
X171275000Y-102925000D01*
X171275000Y-104150394D01*
X171250165Y-104210204D01*
X171249835Y-104588138D01*
X171394159Y-104937429D01*
X171661165Y-105204902D01*
X172010204Y-105349835D01*
X172388138Y-105350165D01*
X172737429Y-105205841D01*
X173004902Y-104938835D01*
X173149835Y-104589796D01*
X173150165Y-104211862D01*
X173125000Y-104150958D01*
X173125000Y-102925000D01*
X174268317Y-102925000D01*
X174238596Y-102969481D01*
X174152960Y-103400000D01*
X174238596Y-103830519D01*
X174375226Y-104035000D01*
X174238596Y-104239481D01*
X174152960Y-104670000D01*
X174238596Y-105100519D01*
X174375226Y-105305000D01*
X174238596Y-105509481D01*
X174152960Y-105940000D01*
X174238596Y-106370519D01*
X174288702Y-106445507D01*
X174277180Y-106447799D01*
X174009531Y-106626637D01*
X173616637Y-107019531D01*
X173437799Y-107287180D01*
X173375000Y-107602894D01*
X173375000Y-108175000D01*
X171500000Y-108175000D01*
X171184286Y-108237799D01*
X170916637Y-108416637D01*
X170416637Y-108916637D01*
X170237799Y-109184286D01*
X170204478Y-109351801D01*
X170195098Y-109361165D01*
X170050165Y-109710204D01*
X170049835Y-110088138D01*
X170194159Y-110437429D01*
X170461165Y-110704902D01*
X170810204Y-110849835D01*
X171188138Y-110850165D01*
X171300001Y-110803944D01*
X171300001Y-112249912D01*
X171211862Y-112249835D01*
X171012606Y-112332166D01*
X170984286Y-112337799D01*
X170960487Y-112353701D01*
X170862571Y-112394159D01*
X170786928Y-112469670D01*
X170716637Y-112516637D01*
X170670081Y-112586313D01*
X170595098Y-112661165D01*
X170554111Y-112759874D01*
X170537799Y-112784286D01*
X170532121Y-112812831D01*
X170450165Y-113010204D01*
X170449835Y-113388138D01*
X170536176Y-113597098D01*
X166258274Y-117875000D01*
X161341726Y-117875000D01*
X155520770Y-112054044D01*
X155637429Y-112005841D01*
X155904902Y-111738835D01*
X156030595Y-111436131D01*
X159036575Y-108430151D01*
X159337429Y-108305841D01*
X159604902Y-108038835D01*
X159749835Y-107689796D01*
X159750154Y-107325000D01*
X159859061Y-107325000D01*
X160215724Y-107681663D01*
X160340034Y-107982517D01*
X160607040Y-108249990D01*
X160956079Y-108394923D01*
X161334013Y-108395253D01*
X161683304Y-108250929D01*
X161950777Y-107983923D01*
X162009777Y-107841836D01*
X162336387Y-107706883D01*
X162603860Y-107439877D01*
X162702206Y-107203033D01*
X162937429Y-107105841D01*
X163204902Y-106838835D01*
X163349835Y-106489796D01*
X163350165Y-106111862D01*
X163205841Y-105762571D01*
X162938835Y-105495098D01*
X162636131Y-105369405D01*
X160983363Y-103716637D01*
X160715714Y-103537799D01*
X160400000Y-103475000D01*
X156913537Y-103475000D01*
X156974042Y-103450000D01*
X162945000Y-103450000D01*
X163298983Y-103379589D01*
X163599074Y-103179074D01*
X163650283Y-103127865D01*
X163722008Y-103301045D01*
X164009242Y-103632980D01*
X164401638Y-103829728D01*
X164575000Y-103706797D01*
X164575000Y-102870000D01*
X164825000Y-102870000D01*
X164825000Y-103706797D01*
X164998362Y-103829728D01*
X165390758Y-103632980D01*
X165677992Y-103301045D01*
X165784715Y-103043360D01*
X165660652Y-102870000D01*
X164825000Y-102870000D01*
X164575000Y-102870000D01*
X164555000Y-102870000D01*
X164555000Y-102620000D01*
X164575000Y-102620000D01*
X164575000Y-102600000D01*
X164825000Y-102600000D01*
X164825000Y-102620000D01*
X165660652Y-102620000D01*
X165784715Y-102446640D01*
X165677992Y-102188955D01*
X165390758Y-101857020D01*
X165077964Y-101700184D01*
X165735000Y-101043148D01*
X167345926Y-102654074D01*
X167345926Y-102654074D01*
G37*
X167345926Y-102654074D02*
X167646018Y-102854589D01*
X168000000Y-102925001D01*
X168000005Y-102925000D01*
X171275000Y-102925000D01*
X171275000Y-104150394D01*
X171250165Y-104210204D01*
X171249835Y-104588138D01*
X171394159Y-104937429D01*
X171661165Y-105204902D01*
X172010204Y-105349835D01*
X172388138Y-105350165D01*
X172737429Y-105205841D01*
X173004902Y-104938835D01*
X173149835Y-104589796D01*
X173150165Y-104211862D01*
X173125000Y-104150958D01*
X173125000Y-102925000D01*
X174268317Y-102925000D01*
X174238596Y-102969481D01*
X174152960Y-103400000D01*
X174238596Y-103830519D01*
X174375226Y-104035000D01*
X174238596Y-104239481D01*
X174152960Y-104670000D01*
X174238596Y-105100519D01*
X174375226Y-105305000D01*
X174238596Y-105509481D01*
X174152960Y-105940000D01*
X174238596Y-106370519D01*
X174288702Y-106445507D01*
X174277180Y-106447799D01*
X174009531Y-106626637D01*
X173616637Y-107019531D01*
X173437799Y-107287180D01*
X173375000Y-107602894D01*
X173375000Y-108175000D01*
X171500000Y-108175000D01*
X171184286Y-108237799D01*
X170916637Y-108416637D01*
X170416637Y-108916637D01*
X170237799Y-109184286D01*
X170204478Y-109351801D01*
X170195098Y-109361165D01*
X170050165Y-109710204D01*
X170049835Y-110088138D01*
X170194159Y-110437429D01*
X170461165Y-110704902D01*
X170810204Y-110849835D01*
X171188138Y-110850165D01*
X171300001Y-110803944D01*
X171300001Y-112249912D01*
X171211862Y-112249835D01*
X171012606Y-112332166D01*
X170984286Y-112337799D01*
X170960487Y-112353701D01*
X170862571Y-112394159D01*
X170786928Y-112469670D01*
X170716637Y-112516637D01*
X170670081Y-112586313D01*
X170595098Y-112661165D01*
X170554111Y-112759874D01*
X170537799Y-112784286D01*
X170532121Y-112812831D01*
X170450165Y-113010204D01*
X170449835Y-113388138D01*
X170536176Y-113597098D01*
X166258274Y-117875000D01*
X161341726Y-117875000D01*
X155520770Y-112054044D01*
X155637429Y-112005841D01*
X155904902Y-111738835D01*
X156030595Y-111436131D01*
X159036575Y-108430151D01*
X159337429Y-108305841D01*
X159604902Y-108038835D01*
X159749835Y-107689796D01*
X159750154Y-107325000D01*
X159859061Y-107325000D01*
X160215724Y-107681663D01*
X160340034Y-107982517D01*
X160607040Y-108249990D01*
X160956079Y-108394923D01*
X161334013Y-108395253D01*
X161683304Y-108250929D01*
X161950777Y-107983923D01*
X162009777Y-107841836D01*
X162336387Y-107706883D01*
X162603860Y-107439877D01*
X162702206Y-107203033D01*
X162937429Y-107105841D01*
X163204902Y-106838835D01*
X163349835Y-106489796D01*
X163350165Y-106111862D01*
X163205841Y-105762571D01*
X162938835Y-105495098D01*
X162636131Y-105369405D01*
X160983363Y-103716637D01*
X160715714Y-103537799D01*
X160400000Y-103475000D01*
X156913537Y-103475000D01*
X156974042Y-103450000D01*
X162945000Y-103450000D01*
X163298983Y-103379589D01*
X163599074Y-103179074D01*
X163650283Y-103127865D01*
X163722008Y-103301045D01*
X164009242Y-103632980D01*
X164401638Y-103829728D01*
X164575000Y-103706797D01*
X164575000Y-102870000D01*
X164825000Y-102870000D01*
X164825000Y-103706797D01*
X164998362Y-103829728D01*
X165390758Y-103632980D01*
X165677992Y-103301045D01*
X165784715Y-103043360D01*
X165660652Y-102870000D01*
X164825000Y-102870000D01*
X164575000Y-102870000D01*
X164555000Y-102870000D01*
X164555000Y-102620000D01*
X164575000Y-102620000D01*
X164575000Y-102600000D01*
X164825000Y-102600000D01*
X164825000Y-102620000D01*
X165660652Y-102620000D01*
X165784715Y-102446640D01*
X165677992Y-102188955D01*
X165390758Y-101857020D01*
X165077964Y-101700184D01*
X165735000Y-101043148D01*
X167345926Y-102654074D01*
G36*
X174238596Y-110180519D02*
X174381807Y-110394850D01*
X174322008Y-110463955D01*
X174215285Y-110721640D01*
X174339348Y-110895000D01*
X175175000Y-110895000D01*
X175175000Y-110875000D01*
X175425000Y-110875000D01*
X175425000Y-110895000D01*
X175445000Y-110895000D01*
X175445000Y-111145000D01*
X175425000Y-111145000D01*
X175425000Y-111152756D01*
X175175000Y-111152756D01*
X175175000Y-111145000D01*
X174339348Y-111145000D01*
X174215285Y-111318360D01*
X174272096Y-111455531D01*
X174212962Y-111542076D01*
X174162756Y-111790000D01*
X174162756Y-112790000D01*
X174206337Y-113021611D01*
X174343219Y-113234332D01*
X174375000Y-113256047D01*
X174375000Y-114216852D01*
X173708163Y-114883689D01*
X173712347Y-114862653D01*
X173712347Y-114540433D01*
X173837182Y-114239796D01*
X173837512Y-113861862D01*
X173693188Y-113512571D01*
X173426182Y-113245098D01*
X173077143Y-113100165D01*
X172950001Y-113100054D01*
X172950001Y-110025001D01*
X172910219Y-109825000D01*
X174000000Y-109825000D01*
X174161489Y-109792878D01*
X174238596Y-110180519D01*
X174238596Y-110180519D01*
G37*
X174238596Y-110180519D02*
X174381807Y-110394850D01*
X174322008Y-110463955D01*
X174215285Y-110721640D01*
X174339348Y-110895000D01*
X175175000Y-110895000D01*
X175175000Y-110875000D01*
X175425000Y-110875000D01*
X175425000Y-110895000D01*
X175445000Y-110895000D01*
X175445000Y-111145000D01*
X175425000Y-111145000D01*
X175425000Y-111152756D01*
X175175000Y-111152756D01*
X175175000Y-111145000D01*
X174339348Y-111145000D01*
X174215285Y-111318360D01*
X174272096Y-111455531D01*
X174212962Y-111542076D01*
X174162756Y-111790000D01*
X174162756Y-112790000D01*
X174206337Y-113021611D01*
X174343219Y-113234332D01*
X174375000Y-113256047D01*
X174375000Y-114216852D01*
X173708163Y-114883689D01*
X173712347Y-114862653D01*
X173712347Y-114540433D01*
X173837182Y-114239796D01*
X173837512Y-113861862D01*
X173693188Y-113512571D01*
X173426182Y-113245098D01*
X173077143Y-113100165D01*
X172950001Y-113100054D01*
X172950001Y-110025001D01*
X172910219Y-109825000D01*
X174000000Y-109825000D01*
X174161489Y-109792878D01*
X174238596Y-110180519D01*
M02*
