M48
;DRILL file {KiCad 4.0.2+dfsg1-stable} date Sun 14 May 2017 07:45:43 PM MDT
;FORMAT={-:-/ absolute / inch / decimal}
FMAT,2
INCH,TZ
T1C0.016
T2C0.028
T3C0.033
T4C0.040
T5C0.045
T6C0.098
T7C0.035
%
G90
G05
M72
T1
X6.4291Y-4.0433
X6.4882Y-4.0827
X6.4921Y-3.815
X6.5945Y-3.8543
X6.7598Y-4.3189
X6.7953Y-4.3858
X6.8346Y-4.2205
X6.8622Y-4.7087
X6.8701Y-4.0551
X6.9291Y-4.6614
X6.9961Y-4.2559
X6.9961Y-4.4094
X7.0276Y-4.5669
X7.1102Y-4.185
X7.1772Y-4.5551
X7.1772Y-4.6181
X7.2205Y-4.2628
X7.248Y-3.9764
X7.2559Y-4.5157
X7.2756Y-4.2628
X7.3273Y-4.4094
X7.3386Y-4.2628
X7.378Y-4.5984
X7.3898Y-4.1181
T2
X7.8819Y-4.5591
T3
X6.4094Y-4.2559
X6.4094Y-4.4528
T4
X7.0795Y-4.7362
X7.1795Y-4.7362
X7.2795Y-4.7362
X7.3795Y-4.7362
X7.4795Y-4.7362
T5
X6.3031Y-4.2165
X6.3031Y-4.4921
T6
X6.3386Y-3.6969
X6.3386Y-4.7087
X8.0472Y-3.6969
X8.0472Y-4.7087
T7
X6.5394Y-4.6693
X6.8071Y-4.6693
T0
M30
