G04 #@! TF.FileFunction,Legend,Bot*
%FSLAX46Y46*%
G04 Gerber Fmt 4.6, Leading zero omitted, Abs format (unit mm)*
G04 Created by KiCad (PCBNEW 4.0.2+dfsg1-stable) date Sun 14 May 2017 07:45:38 PM MDT*
%MOMM*%
G01*
G04 APERTURE LIST*
%ADD10C,0.100000*%
%ADD11C,0.200000*%
%ADD12C,0.150000*%
G04 APERTURE END LIST*
D10*
D11*
X179347619Y-118261905D02*
X180347619Y-118261905D01*
X179442857Y-117214286D02*
X179395238Y-117261905D01*
X179347619Y-117404762D01*
X179347619Y-117500000D01*
X179395238Y-117642858D01*
X179490476Y-117738096D01*
X179585714Y-117785715D01*
X179776190Y-117833334D01*
X179919048Y-117833334D01*
X180109524Y-117785715D01*
X180204762Y-117738096D01*
X180300000Y-117642858D01*
X180347619Y-117500000D01*
X180347619Y-117404762D01*
X180300000Y-117261905D01*
X180252381Y-117214286D01*
X179395238Y-116833334D02*
X179347619Y-116690477D01*
X179347619Y-116452381D01*
X179395238Y-116357143D01*
X179442857Y-116309524D01*
X179538095Y-116261905D01*
X179633333Y-116261905D01*
X179728571Y-116309524D01*
X179776190Y-116357143D01*
X179823810Y-116452381D01*
X179871429Y-116642858D01*
X179919048Y-116738096D01*
X179966667Y-116785715D01*
X180061905Y-116833334D01*
X180157143Y-116833334D01*
X180252381Y-116785715D01*
X180300000Y-116738096D01*
X180347619Y-116642858D01*
X180347619Y-116404762D01*
X180300000Y-116261905D01*
X179347619Y-115833334D02*
X180347619Y-115833334D01*
X180347619Y-115452381D01*
X180300000Y-115357143D01*
X180252381Y-115309524D01*
X180157143Y-115261905D01*
X180014286Y-115261905D01*
X179919048Y-115309524D01*
X179871429Y-115357143D01*
X179823810Y-115452381D01*
X179823810Y-115833334D01*
X179442857Y-114261905D02*
X179395238Y-114309524D01*
X179347619Y-114452381D01*
X179347619Y-114547619D01*
X179395238Y-114690477D01*
X179490476Y-114785715D01*
X179585714Y-114833334D01*
X179776190Y-114880953D01*
X179919048Y-114880953D01*
X180109524Y-114833334D01*
X180204762Y-114785715D01*
X180300000Y-114690477D01*
X180347619Y-114547619D01*
X180347619Y-114452381D01*
X180300000Y-114309524D01*
X180252381Y-114261905D01*
X179347619Y-113357143D02*
X179347619Y-113833334D01*
X180347619Y-113833334D01*
X179347619Y-113023810D02*
X180347619Y-113023810D01*
X179347619Y-112452381D02*
X179919048Y-112880953D01*
X180347619Y-112452381D02*
X179776190Y-113023810D01*
X181947619Y-118261905D02*
X182947619Y-118261905D01*
X182042857Y-117214286D02*
X181995238Y-117261905D01*
X181947619Y-117404762D01*
X181947619Y-117500000D01*
X181995238Y-117642858D01*
X182090476Y-117738096D01*
X182185714Y-117785715D01*
X182376190Y-117833334D01*
X182519048Y-117833334D01*
X182709524Y-117785715D01*
X182804762Y-117738096D01*
X182900000Y-117642858D01*
X182947619Y-117500000D01*
X182947619Y-117404762D01*
X182900000Y-117261905D01*
X182852381Y-117214286D01*
X181995238Y-116833334D02*
X181947619Y-116690477D01*
X181947619Y-116452381D01*
X181995238Y-116357143D01*
X182042857Y-116309524D01*
X182138095Y-116261905D01*
X182233333Y-116261905D01*
X182328571Y-116309524D01*
X182376190Y-116357143D01*
X182423810Y-116452381D01*
X182471429Y-116642858D01*
X182519048Y-116738096D01*
X182566667Y-116785715D01*
X182661905Y-116833334D01*
X182757143Y-116833334D01*
X182852381Y-116785715D01*
X182900000Y-116738096D01*
X182947619Y-116642858D01*
X182947619Y-116404762D01*
X182900000Y-116261905D01*
X181947619Y-115833334D02*
X182947619Y-115833334D01*
X182947619Y-115452381D01*
X182900000Y-115357143D01*
X182852381Y-115309524D01*
X182757143Y-115261905D01*
X182614286Y-115261905D01*
X182519048Y-115309524D01*
X182471429Y-115357143D01*
X182423810Y-115452381D01*
X182423810Y-115833334D01*
X181947619Y-114833334D02*
X182947619Y-114833334D01*
X182947619Y-114595239D01*
X182900000Y-114452381D01*
X182804762Y-114357143D01*
X182709524Y-114309524D01*
X182519048Y-114261905D01*
X182376190Y-114261905D01*
X182185714Y-114309524D01*
X182090476Y-114357143D01*
X181995238Y-114452381D01*
X181947619Y-114595239D01*
X181947619Y-114833334D01*
X182233333Y-113880953D02*
X182233333Y-113404762D01*
X181947619Y-113976191D02*
X182947619Y-113642858D01*
X181947619Y-113309524D01*
X182947619Y-113119048D02*
X182947619Y-112547619D01*
X181947619Y-112833334D02*
X182947619Y-112833334D01*
X185400000Y-117738095D02*
X185447619Y-117833333D01*
X185447619Y-117976190D01*
X185400000Y-118119048D01*
X185304762Y-118214286D01*
X185209524Y-118261905D01*
X185019048Y-118309524D01*
X184876190Y-118309524D01*
X184685714Y-118261905D01*
X184590476Y-118214286D01*
X184495238Y-118119048D01*
X184447619Y-117976190D01*
X184447619Y-117880952D01*
X184495238Y-117738095D01*
X184542857Y-117690476D01*
X184876190Y-117690476D01*
X184876190Y-117880952D01*
X184447619Y-117261905D02*
X185447619Y-117261905D01*
X184447619Y-116690476D01*
X185447619Y-116690476D01*
X184447619Y-116214286D02*
X185447619Y-116214286D01*
X185447619Y-115976191D01*
X185400000Y-115833333D01*
X185304762Y-115738095D01*
X185209524Y-115690476D01*
X185019048Y-115642857D01*
X184876190Y-115642857D01*
X184685714Y-115690476D01*
X184590476Y-115738095D01*
X184495238Y-115833333D01*
X184447619Y-115976191D01*
X184447619Y-116214286D01*
X188047619Y-118404762D02*
X187047619Y-118071429D01*
X188047619Y-117738095D01*
X187047619Y-117404762D02*
X188047619Y-117404762D01*
X188047619Y-117166667D01*
X188000000Y-117023809D01*
X187904762Y-116928571D01*
X187809524Y-116880952D01*
X187619048Y-116833333D01*
X187476190Y-116833333D01*
X187285714Y-116880952D01*
X187190476Y-116928571D01*
X187095238Y-117023809D01*
X187047619Y-117166667D01*
X187047619Y-117404762D01*
X187047619Y-116404762D02*
X188047619Y-116404762D01*
X188047619Y-116166667D01*
X188000000Y-116023809D01*
X187904762Y-115928571D01*
X187809524Y-115880952D01*
X187619048Y-115833333D01*
X187476190Y-115833333D01*
X187285714Y-115880952D01*
X187190476Y-115928571D01*
X187095238Y-116023809D01*
X187047619Y-116166667D01*
X187047619Y-116404762D01*
X190547619Y-118404762D02*
X189547619Y-118071429D01*
X190547619Y-117738095D01*
X189547619Y-117404762D02*
X190547619Y-117404762D01*
X190547619Y-117023809D01*
X190500000Y-116928571D01*
X190452381Y-116880952D01*
X190357143Y-116833333D01*
X190214286Y-116833333D01*
X190119048Y-116880952D01*
X190071429Y-116928571D01*
X190023810Y-117023809D01*
X190023810Y-117404762D01*
X189547619Y-116404762D02*
X190547619Y-116404762D01*
X190547619Y-116023809D01*
X190500000Y-115928571D01*
X190452381Y-115880952D01*
X190357143Y-115833333D01*
X190214286Y-115833333D01*
X190119048Y-115880952D01*
X190071429Y-115928571D01*
X190023810Y-116023809D01*
X190023810Y-116404762D01*
D10*
X173750000Y-116850000D02*
X173750000Y-120350000D01*
X165250000Y-116850000D02*
X165250000Y-120350000D01*
X173750000Y-120350000D02*
X165250000Y-120350000D01*
X173750000Y-116850000D02*
X165250000Y-116850000D01*
D12*
X163800000Y-114800000D02*
X158650000Y-114800000D01*
X163800000Y-106400000D02*
X158650000Y-106400000D01*
X163800000Y-114800000D02*
X163800000Y-106400000D01*
X162750000Y-97500000D02*
X163450000Y-97500000D01*
X163450000Y-96300000D02*
X162750000Y-96300000D01*
D10*
X160100000Y-98400000D02*
X160900000Y-98400000D01*
D12*
X165008252Y-101449617D02*
G75*
G03X165008252Y-101449617I-100000J0D01*
G01*
X162800000Y-104300000D02*
X163500000Y-104300000D01*
X163500000Y-103100000D02*
X162800000Y-103100000D01*
X167300000Y-98325000D02*
X166300000Y-98325000D01*
X166300000Y-99675000D02*
X167300000Y-99675000D01*
X204285714Y-104528571D02*
X204142857Y-104576190D01*
X204095238Y-104623810D01*
X204047619Y-104719048D01*
X204047619Y-104861905D01*
X204095238Y-104957143D01*
X204142857Y-105004762D01*
X204238095Y-105052381D01*
X204619048Y-105052381D01*
X204619048Y-104052381D01*
X204285714Y-104052381D01*
X204190476Y-104100000D01*
X204142857Y-104147619D01*
X204095238Y-104242857D01*
X204095238Y-104338095D01*
X204142857Y-104433333D01*
X204190476Y-104480952D01*
X204285714Y-104528571D01*
X204619048Y-104528571D01*
X203761905Y-104052381D02*
X203190476Y-104052381D01*
X203476191Y-105052381D02*
X203476191Y-104052381D01*
X202333333Y-105052381D02*
X202904762Y-105052381D01*
X202619048Y-105052381D02*
X202619048Y-104052381D01*
X202714286Y-104195238D01*
X202809524Y-104290476D01*
X202904762Y-104338095D01*
X176733333Y-117904762D02*
X176590476Y-117952381D01*
X176352380Y-117952381D01*
X176257142Y-117904762D01*
X176209523Y-117857143D01*
X176161904Y-117761905D01*
X176161904Y-117666667D01*
X176209523Y-117571429D01*
X176257142Y-117523810D01*
X176352380Y-117476190D01*
X176542857Y-117428571D01*
X176638095Y-117380952D01*
X176685714Y-117333333D01*
X176733333Y-117238095D01*
X176733333Y-117142857D01*
X176685714Y-117047619D01*
X176638095Y-117000000D01*
X176542857Y-116952381D01*
X176304761Y-116952381D01*
X176161904Y-117000000D01*
X175828571Y-116952381D02*
X175590476Y-117952381D01*
X175399999Y-117238095D01*
X175209523Y-117952381D01*
X174971428Y-116952381D01*
X174066666Y-117952381D02*
X174638095Y-117952381D01*
X174352381Y-117952381D02*
X174352381Y-116952381D01*
X174447619Y-117095238D01*
X174542857Y-117190476D01*
X174638095Y-117238095D01*
X163738095Y-116252381D02*
X163738095Y-115252381D01*
X163357142Y-115252381D01*
X163261904Y-115300000D01*
X163214285Y-115347619D01*
X163166666Y-115442857D01*
X163166666Y-115585714D01*
X163214285Y-115680952D01*
X163261904Y-115728571D01*
X163357142Y-115776190D01*
X163738095Y-115776190D01*
X162214285Y-116252381D02*
X162785714Y-116252381D01*
X162500000Y-116252381D02*
X162500000Y-115252381D01*
X162595238Y-115395238D01*
X162690476Y-115490476D01*
X162785714Y-115538095D01*
X163266666Y-95957143D02*
X163314285Y-96004762D01*
X163457142Y-96052381D01*
X163552380Y-96052381D01*
X163695238Y-96004762D01*
X163790476Y-95909524D01*
X163838095Y-95814286D01*
X163885714Y-95623810D01*
X163885714Y-95480952D01*
X163838095Y-95290476D01*
X163790476Y-95195238D01*
X163695238Y-95100000D01*
X163552380Y-95052381D01*
X163457142Y-95052381D01*
X163314285Y-95100000D01*
X163266666Y-95147619D01*
X162409523Y-95385714D02*
X162409523Y-96052381D01*
X162647619Y-95004762D02*
X162885714Y-95719048D01*
X162266666Y-95719048D01*
X161238095Y-98152381D02*
X161238095Y-97152381D01*
X161000000Y-97152381D01*
X160857142Y-97200000D01*
X160761904Y-97295238D01*
X160714285Y-97390476D01*
X160666666Y-97580952D01*
X160666666Y-97723810D01*
X160714285Y-97914286D01*
X160761904Y-98009524D01*
X160857142Y-98104762D01*
X161000000Y-98152381D01*
X161238095Y-98152381D01*
X159714285Y-98152381D02*
X160285714Y-98152381D01*
X160000000Y-98152381D02*
X160000000Y-97152381D01*
X160095238Y-97295238D01*
X160190476Y-97390476D01*
X160285714Y-97438095D01*
X166620157Y-99952381D02*
X166620157Y-100761905D01*
X166572538Y-100857143D01*
X166524919Y-100904762D01*
X166429681Y-100952381D01*
X166239204Y-100952381D01*
X166143966Y-100904762D01*
X166096347Y-100857143D01*
X166048728Y-100761905D01*
X166048728Y-99952381D01*
X165620157Y-100047619D02*
X165572538Y-100000000D01*
X165477300Y-99952381D01*
X165239204Y-99952381D01*
X165143966Y-100000000D01*
X165096347Y-100047619D01*
X165048728Y-100142857D01*
X165048728Y-100238095D01*
X165096347Y-100380952D01*
X165667776Y-100952381D01*
X165048728Y-100952381D01*
X163316666Y-105457143D02*
X163364285Y-105504762D01*
X163507142Y-105552381D01*
X163602380Y-105552381D01*
X163745238Y-105504762D01*
X163840476Y-105409524D01*
X163888095Y-105314286D01*
X163935714Y-105123810D01*
X163935714Y-104980952D01*
X163888095Y-104790476D01*
X163840476Y-104695238D01*
X163745238Y-104600000D01*
X163602380Y-104552381D01*
X163507142Y-104552381D01*
X163364285Y-104600000D01*
X163316666Y-104647619D01*
X162983333Y-104552381D02*
X162316666Y-104552381D01*
X162745238Y-105552381D01*
X166466666Y-98052381D02*
X166800000Y-97576190D01*
X167038095Y-98052381D02*
X167038095Y-97052381D01*
X166657142Y-97052381D01*
X166561904Y-97100000D01*
X166514285Y-97147619D01*
X166466666Y-97242857D01*
X166466666Y-97385714D01*
X166514285Y-97480952D01*
X166561904Y-97528571D01*
X166657142Y-97576190D01*
X167038095Y-97576190D01*
X166085714Y-97147619D02*
X166038095Y-97100000D01*
X165942857Y-97052381D01*
X165704761Y-97052381D01*
X165609523Y-97100000D01*
X165561904Y-97147619D01*
X165514285Y-97242857D01*
X165514285Y-97338095D01*
X165561904Y-97480952D01*
X166133333Y-98052381D01*
X165514285Y-98052381D01*
M02*
