G04 #@! TF.FileFunction,Copper,L2,Bot,Signal*
%FSLAX45Y45*%
G04 Gerber Fmt 4.5, Leading zero omitted, Abs format (unit mm)*
G04 Created by KiCad (PCBNEW 4.0.2+e4-6225~38~ubuntu14.04.1-stable) date Sat 30 Jul 2016 12:01:36 AM CDT*
%MOMM*%
G01*
G04 APERTURE LIST*
%ADD10C,0.100000*%
%ADD11R,2.032000X1.727200*%
%ADD12O,2.032000X1.727200*%
%ADD13O,1.100000X1.500000*%
%ADD14O,1.200000X1.700000*%
%ADD15R,1.727200X2.032000*%
%ADD16O,1.727200X2.032000*%
%ADD17O,1.500000X1.100000*%
%ADD18O,1.700000X1.200000*%
%ADD19C,0.500000*%
%ADD20C,0.400000*%
%ADD21C,0.250000*%
%ADD22C,0.160000*%
G04 APERTURE END LIST*
D10*
D11*
X19890000Y-10017500D03*
D12*
X19890000Y-10271500D03*
X19890000Y-10525500D03*
X19890000Y-10779500D03*
X19890000Y-11033500D03*
D13*
X19342500Y-8362500D03*
X18857500Y-8362500D03*
D14*
X19372500Y-8062500D03*
X18827500Y-8062500D03*
D13*
X19342500Y-3362500D03*
X18857500Y-3362500D03*
D14*
X19372500Y-3062500D03*
X18827500Y-3062500D03*
D11*
X19890000Y-5017500D03*
D12*
X19890000Y-5271500D03*
X19890000Y-5525500D03*
X19890000Y-5779500D03*
X19890000Y-6033500D03*
D15*
X12977500Y-12555000D03*
D16*
X12723500Y-12555000D03*
X12469500Y-12555000D03*
X12215500Y-12555000D03*
X11961500Y-12555000D03*
D17*
X14632500Y-12007500D03*
X14632500Y-11522500D03*
D18*
X14932500Y-12037500D03*
X14932500Y-11492500D03*
D17*
X9432500Y-12007500D03*
X9432500Y-11522500D03*
D18*
X9732500Y-12037500D03*
X9732500Y-11492500D03*
D15*
X7777500Y-12555000D03*
D16*
X7523500Y-12555000D03*
X7269500Y-12555000D03*
X7015500Y-12555000D03*
X6761500Y-12555000D03*
D15*
X12977500Y-6255000D03*
D16*
X12723500Y-6255000D03*
X12469500Y-6255000D03*
X12215500Y-6255000D03*
X11961500Y-6255000D03*
D17*
X14632500Y-5707500D03*
X14632500Y-5222500D03*
D18*
X14932500Y-5737500D03*
X14932500Y-5192500D03*
D17*
X9432500Y-5707500D03*
X9432500Y-5222500D03*
D18*
X9732500Y-5737500D03*
X9732500Y-5192500D03*
D15*
X7777500Y-6255000D03*
D16*
X7523500Y-6255000D03*
X7269500Y-6255000D03*
X7015500Y-6255000D03*
X6761500Y-6255000D03*
D19*
X19220000Y-9635000D03*
X19175000Y-9750000D03*
X19565000Y-10370000D03*
X18720000Y-9260000D03*
X19410000Y-9255000D03*
X19525000Y-8385000D03*
X19320000Y-10040000D03*
X19370000Y-7910000D03*
X18700000Y-8380000D03*
X18700000Y-8085000D03*
X19695000Y-10630000D03*
X19245000Y-9040000D03*
X18845000Y-8955000D03*
X18780000Y-8660000D03*
X19645000Y-9540000D03*
X19785000Y-11570000D03*
X19570000Y-11670000D03*
X19565000Y-11145000D03*
X19680000Y-11145000D03*
X18780000Y-11830000D03*
X17675000Y-9805000D03*
X17675000Y-10660000D03*
X18125000Y-10230000D03*
X19060000Y-10135000D03*
X19050000Y-10795000D03*
X18895000Y-11185000D03*
X18975000Y-12020000D03*
X18575000Y-11625000D03*
X18575000Y-6625000D03*
X18975000Y-7020000D03*
X18895000Y-6185000D03*
X19050000Y-5795000D03*
X19060000Y-5135000D03*
X18125000Y-5230000D03*
X17675000Y-5660000D03*
X17675000Y-4805000D03*
X18780000Y-6830000D03*
X19680000Y-6145000D03*
X19565000Y-6145000D03*
X19570000Y-6670000D03*
X19785000Y-6570000D03*
X19645000Y-4540000D03*
X18780000Y-3660000D03*
X18845000Y-3955000D03*
X19245000Y-4040000D03*
X19695000Y-5630000D03*
X18700000Y-3085000D03*
X18700000Y-3380000D03*
X19370000Y-2910000D03*
X19320000Y-5040000D03*
X19525000Y-3385000D03*
X19410000Y-4255000D03*
X18720000Y-4260000D03*
X19565000Y-5370000D03*
X19175000Y-4750000D03*
X19220000Y-4635000D03*
X13360000Y-11885000D03*
X13245000Y-11840000D03*
X12625000Y-12230000D03*
X13735000Y-11385000D03*
X13740000Y-12075000D03*
X14610000Y-12190000D03*
X12955000Y-11985000D03*
X15085000Y-12035000D03*
X14615000Y-11365000D03*
X14910000Y-11365000D03*
X12365000Y-12360000D03*
X13955000Y-11910000D03*
X14040000Y-11510000D03*
X14335000Y-11445000D03*
X13455000Y-12310000D03*
X11425000Y-12450000D03*
X11325000Y-12235000D03*
X11850000Y-12230000D03*
X11850000Y-12345000D03*
X11165000Y-11445000D03*
X13190000Y-10340000D03*
X12335000Y-10340000D03*
X12765000Y-10790000D03*
X12860000Y-11725000D03*
X12200000Y-11715000D03*
X11810000Y-11560000D03*
X10975000Y-11640000D03*
X11370000Y-11240000D03*
X6170000Y-11240000D03*
X5775000Y-11640000D03*
X6610000Y-11560000D03*
X7000000Y-11715000D03*
X7660000Y-11725000D03*
X7565000Y-10790000D03*
X7135000Y-10340000D03*
X7990000Y-10340000D03*
X5965000Y-11445000D03*
X6650000Y-12345000D03*
X6650000Y-12230000D03*
X6125000Y-12235000D03*
X6225000Y-12450000D03*
X8255000Y-12310000D03*
X9135000Y-11445000D03*
X8840000Y-11510000D03*
X8755000Y-11910000D03*
X7165000Y-12360000D03*
X9710000Y-11365000D03*
X9415000Y-11365000D03*
X9885000Y-12035000D03*
X7755000Y-11985000D03*
X9410000Y-12190000D03*
X8540000Y-12075000D03*
X8535000Y-11385000D03*
X7425000Y-12230000D03*
X8045000Y-11840000D03*
X8160000Y-11885000D03*
X13360000Y-5585000D03*
X13245000Y-5540000D03*
X12625000Y-5930000D03*
X13735000Y-5085000D03*
X13740000Y-5775000D03*
X14610000Y-5890000D03*
X12955000Y-5685000D03*
X15085000Y-5735000D03*
X14615000Y-5065000D03*
X14910000Y-5065000D03*
X12365000Y-6060000D03*
X13955000Y-5610000D03*
X14040000Y-5210000D03*
X14335000Y-5145000D03*
X13455000Y-6010000D03*
X11425000Y-6150000D03*
X11325000Y-5935000D03*
X11850000Y-5930000D03*
X11850000Y-6045000D03*
X11165000Y-5145000D03*
X13190000Y-4040000D03*
X12335000Y-4040000D03*
X12765000Y-4490000D03*
X12860000Y-5425000D03*
X12200000Y-5415000D03*
X11810000Y-5260000D03*
X10975000Y-5340000D03*
X11370000Y-4940000D03*
X6170000Y-4940000D03*
X5775000Y-5340000D03*
X6610000Y-5260000D03*
X7000000Y-5415000D03*
X7660000Y-5425000D03*
X7565000Y-4490000D03*
X7135000Y-4040000D03*
X7990000Y-4040000D03*
X5965000Y-5145000D03*
X6650000Y-6045000D03*
X6650000Y-5930000D03*
X6125000Y-5935000D03*
X6225000Y-6150000D03*
X8255000Y-6010000D03*
X9135000Y-5145000D03*
X8840000Y-5210000D03*
X8755000Y-5610000D03*
X7165000Y-6060000D03*
X9710000Y-5065000D03*
X9415000Y-5065000D03*
X9885000Y-5735000D03*
X7755000Y-5685000D03*
X9410000Y-5890000D03*
X8540000Y-5775000D03*
X8535000Y-5085000D03*
X7425000Y-5930000D03*
X8045000Y-5540000D03*
X8160000Y-5585000D03*
X19585000Y-9970000D03*
X19780000Y-11395000D03*
X19680000Y-10485000D03*
X19700000Y-9980000D03*
X19700000Y-4980000D03*
X19680000Y-5485000D03*
X19780000Y-6395000D03*
X19585000Y-4970000D03*
X13025000Y-12250000D03*
X11600000Y-12445000D03*
X12510000Y-12345000D03*
X13015000Y-12365000D03*
X7815000Y-12365000D03*
X7310000Y-12345000D03*
X6400000Y-12445000D03*
X7825000Y-12250000D03*
X13025000Y-5950000D03*
X11600000Y-6145000D03*
X12510000Y-6045000D03*
X13015000Y-6065000D03*
X7815000Y-6065000D03*
X7310000Y-6045000D03*
X6400000Y-6145000D03*
X7825000Y-5950000D03*
D20*
X19370000Y-10265000D03*
X19535000Y-10170000D03*
X19535000Y-5170000D03*
X19370000Y-5265000D03*
X12730000Y-12035000D03*
X12825000Y-12200000D03*
X7625000Y-12200000D03*
X7530000Y-12035000D03*
X12730000Y-5735000D03*
X12825000Y-5900000D03*
X7625000Y-5900000D03*
X7530000Y-5735000D03*
X19320000Y-10955000D03*
X19190000Y-11085000D03*
X19190000Y-6085000D03*
X19320000Y-5955000D03*
X12040000Y-11985000D03*
X11910000Y-11855000D03*
X6710000Y-11855000D03*
X6840000Y-11985000D03*
X12040000Y-5685000D03*
X11910000Y-5555000D03*
X6710000Y-5555000D03*
X6840000Y-5685000D03*
X19095000Y-10345000D03*
X18905000Y-8855000D03*
X18905000Y-3855000D03*
X19095000Y-5345000D03*
X12650000Y-11760000D03*
X14140000Y-11570000D03*
X8940000Y-11570000D03*
X7450000Y-11760000D03*
X12650000Y-5460000D03*
X14140000Y-5270000D03*
X8940000Y-5270000D03*
X7450000Y-5460000D03*
D21*
X18720000Y-9260000D02*
X18710000Y-9260000D01*
X18720000Y-4260000D02*
X18710000Y-4260000D01*
X13735000Y-11385000D02*
X13735000Y-11375000D01*
X8535000Y-11385000D02*
X8535000Y-11375000D01*
X13735000Y-5085000D02*
X13735000Y-5075000D01*
X8535000Y-5085000D02*
X8535000Y-5075000D01*
X19585000Y-9970000D02*
X19645000Y-10030000D01*
X19750000Y-10485000D02*
X19750000Y-10390000D01*
X19750000Y-10520000D02*
X19750000Y-10485000D01*
X19780000Y-11395000D02*
X19780000Y-11140000D01*
X19780000Y-11140000D02*
X19750000Y-11110000D01*
X19750000Y-11110000D02*
X19750000Y-10520000D01*
X19645000Y-10030000D02*
X19750000Y-10135000D01*
X19750000Y-10450000D02*
X19750000Y-10135000D01*
X19750000Y-10525000D02*
X19750000Y-10520000D01*
X19750000Y-10485000D02*
X19680000Y-10485000D01*
X19700000Y-9980000D02*
X19695000Y-9980000D01*
X19645000Y-10030000D02*
X19695000Y-9980000D01*
X19645000Y-5030000D02*
X19695000Y-4980000D01*
X19700000Y-4980000D02*
X19695000Y-4980000D01*
X19750000Y-5485000D02*
X19680000Y-5485000D01*
X19750000Y-5525000D02*
X19750000Y-5520000D01*
X19750000Y-5450000D02*
X19750000Y-5135000D01*
X19645000Y-5030000D02*
X19750000Y-5135000D01*
X19750000Y-6110000D02*
X19750000Y-5520000D01*
X19780000Y-6140000D02*
X19750000Y-6110000D01*
X19780000Y-6395000D02*
X19780000Y-6140000D01*
X19750000Y-5520000D02*
X19750000Y-5485000D01*
X19750000Y-5485000D02*
X19750000Y-5390000D01*
X19585000Y-4970000D02*
X19645000Y-5030000D01*
X13025000Y-12250000D02*
X12965000Y-12310000D01*
X12510000Y-12415000D02*
X12605000Y-12415000D01*
X12475000Y-12415000D02*
X12510000Y-12415000D01*
X11600000Y-12445000D02*
X11855000Y-12445000D01*
X11855000Y-12445000D02*
X11885000Y-12415000D01*
X11885000Y-12415000D02*
X12475000Y-12415000D01*
X12965000Y-12310000D02*
X12860000Y-12415000D01*
X12545000Y-12415000D02*
X12860000Y-12415000D01*
X12470000Y-12415000D02*
X12475000Y-12415000D01*
X12510000Y-12415000D02*
X12510000Y-12345000D01*
X13015000Y-12365000D02*
X13015000Y-12360000D01*
X12965000Y-12310000D02*
X13015000Y-12360000D01*
X7765000Y-12310000D02*
X7815000Y-12360000D01*
X7815000Y-12365000D02*
X7815000Y-12360000D01*
X7310000Y-12415000D02*
X7310000Y-12345000D01*
X7270000Y-12415000D02*
X7275000Y-12415000D01*
X7345000Y-12415000D02*
X7660000Y-12415000D01*
X7765000Y-12310000D02*
X7660000Y-12415000D01*
X6685000Y-12415000D02*
X7275000Y-12415000D01*
X6655000Y-12445000D02*
X6685000Y-12415000D01*
X6400000Y-12445000D02*
X6655000Y-12445000D01*
X7275000Y-12415000D02*
X7310000Y-12415000D01*
X7310000Y-12415000D02*
X7405000Y-12415000D01*
X7825000Y-12250000D02*
X7765000Y-12310000D01*
X13025000Y-5950000D02*
X12965000Y-6010000D01*
X12510000Y-6115000D02*
X12605000Y-6115000D01*
X12475000Y-6115000D02*
X12510000Y-6115000D01*
X11600000Y-6145000D02*
X11855000Y-6145000D01*
X11855000Y-6145000D02*
X11885000Y-6115000D01*
X11885000Y-6115000D02*
X12475000Y-6115000D01*
X12965000Y-6010000D02*
X12860000Y-6115000D01*
X12545000Y-6115000D02*
X12860000Y-6115000D01*
X12470000Y-6115000D02*
X12475000Y-6115000D01*
X12510000Y-6115000D02*
X12510000Y-6045000D01*
X13015000Y-6065000D02*
X13015000Y-6060000D01*
X12965000Y-6010000D02*
X13015000Y-6060000D01*
X7765000Y-6010000D02*
X7815000Y-6060000D01*
X7815000Y-6065000D02*
X7815000Y-6060000D01*
X7310000Y-6115000D02*
X7310000Y-6045000D01*
X7270000Y-6115000D02*
X7275000Y-6115000D01*
X7345000Y-6115000D02*
X7660000Y-6115000D01*
X7765000Y-6010000D02*
X7660000Y-6115000D01*
X6685000Y-6115000D02*
X7275000Y-6115000D01*
X6655000Y-6145000D02*
X6685000Y-6115000D01*
X6400000Y-6145000D02*
X6655000Y-6145000D01*
X7275000Y-6115000D02*
X7310000Y-6115000D01*
X7310000Y-6115000D02*
X7405000Y-6115000D01*
X7825000Y-5950000D02*
X7765000Y-6010000D01*
D22*
X19370000Y-10265000D02*
X19465000Y-10170000D01*
X19465000Y-10170000D02*
X19535000Y-10170000D01*
X19465000Y-5170000D02*
X19535000Y-5170000D01*
X19370000Y-5265000D02*
X19465000Y-5170000D01*
X12730000Y-12035000D02*
X12825000Y-12130000D01*
X12825000Y-12130000D02*
X12825000Y-12200000D01*
X7625000Y-12130000D02*
X7625000Y-12200000D01*
X7530000Y-12035000D02*
X7625000Y-12130000D01*
X12730000Y-5735000D02*
X12825000Y-5830000D01*
X12825000Y-5830000D02*
X12825000Y-5900000D01*
X7625000Y-5830000D02*
X7625000Y-5900000D01*
X7530000Y-5735000D02*
X7625000Y-5830000D01*
X19190000Y-11085000D02*
X19320000Y-10955000D01*
X19190000Y-6085000D02*
X19320000Y-5955000D01*
X11910000Y-11855000D02*
X12040000Y-11985000D01*
X6710000Y-11855000D02*
X6840000Y-11985000D01*
X11910000Y-5555000D02*
X12040000Y-5685000D01*
X6710000Y-5555000D02*
X6840000Y-5685000D01*
X18905000Y-10155000D02*
X19095000Y-10345000D01*
X18905000Y-10155000D02*
X18905000Y-8855000D01*
X18905000Y-5155000D02*
X18905000Y-3855000D01*
X18905000Y-5155000D02*
X19095000Y-5345000D01*
X12840000Y-11570000D02*
X12650000Y-11760000D01*
X12840000Y-11570000D02*
X14140000Y-11570000D01*
X7640000Y-11570000D02*
X8940000Y-11570000D01*
X7640000Y-11570000D02*
X7450000Y-11760000D01*
X12840000Y-5270000D02*
X12650000Y-5460000D01*
X12840000Y-5270000D02*
X14140000Y-5270000D01*
X7640000Y-5270000D02*
X8940000Y-5270000D01*
X7640000Y-5270000D02*
X7450000Y-5460000D01*
G36*
X9807734Y-2785411D02*
X9928737Y-2866263D01*
X10009589Y-2987266D01*
X10038500Y-3132610D01*
X10038500Y-4775000D01*
X10038997Y-4777500D01*
X10038500Y-4780000D01*
X10038500Y-6027390D01*
X10009589Y-6172733D01*
X9928737Y-6293737D01*
X9807734Y-6374589D01*
X9662390Y-6403500D01*
X7320532Y-6403500D01*
X7352868Y-6387980D01*
X7391579Y-6347114D01*
X7411705Y-6294545D01*
X7399257Y-6272000D01*
X7413140Y-6272000D01*
X7413140Y-6272701D01*
X7421541Y-6314933D01*
X7445464Y-6350737D01*
X7481267Y-6374660D01*
X7523500Y-6383061D01*
X7565733Y-6374660D01*
X7601536Y-6350737D01*
X7625459Y-6314933D01*
X7633860Y-6272701D01*
X7633860Y-6237299D01*
X7625459Y-6195066D01*
X7601536Y-6159263D01*
X7589918Y-6151500D01*
X7660000Y-6151500D01*
X7667351Y-6150038D01*
X7666670Y-6153400D01*
X7666670Y-6356600D01*
X7668343Y-6365494D01*
X7673600Y-6373662D01*
X7681620Y-6379142D01*
X7691140Y-6381070D01*
X7863860Y-6381070D01*
X7872754Y-6379397D01*
X7880922Y-6374140D01*
X7886402Y-6366120D01*
X7888330Y-6356600D01*
X7888330Y-6153400D01*
X7886657Y-6144506D01*
X7881400Y-6136338D01*
X7873380Y-6130858D01*
X7863860Y-6128930D01*
X7697689Y-6128930D01*
X7765000Y-6061619D01*
X7766002Y-6062621D01*
X7765991Y-6074704D01*
X7773436Y-6092720D01*
X7787207Y-6106516D01*
X7805210Y-6113991D01*
X7824704Y-6114008D01*
X7842720Y-6106564D01*
X7856516Y-6092792D01*
X7862382Y-6078665D01*
X8415988Y-6078665D01*
X8426471Y-6104034D01*
X8445864Y-6123461D01*
X8471215Y-6133988D01*
X8498665Y-6134012D01*
X8524034Y-6123529D01*
X8543461Y-6104136D01*
X8553988Y-6078785D01*
X8553988Y-6078665D01*
X9095988Y-6078665D01*
X9106471Y-6104034D01*
X9125864Y-6123461D01*
X9151215Y-6133988D01*
X9178665Y-6134012D01*
X9204034Y-6123529D01*
X9223461Y-6104136D01*
X9224541Y-6101537D01*
X9575977Y-6101537D01*
X9596334Y-6150806D01*
X9633996Y-6188533D01*
X9683229Y-6208977D01*
X9736537Y-6209023D01*
X9785806Y-6188666D01*
X9823533Y-6151004D01*
X9843977Y-6101771D01*
X9844023Y-6048463D01*
X9823666Y-5999194D01*
X9786004Y-5961467D01*
X9736771Y-5941023D01*
X9683463Y-5940977D01*
X9634194Y-5961334D01*
X9596467Y-5998996D01*
X9576023Y-6048229D01*
X9575977Y-6101537D01*
X9224541Y-6101537D01*
X9233988Y-6078785D01*
X9234012Y-6051335D01*
X9223530Y-6025966D01*
X9204136Y-6006539D01*
X9178785Y-5996012D01*
X9151335Y-5995988D01*
X9125966Y-6006470D01*
X9106539Y-6025864D01*
X9096012Y-6051215D01*
X9095988Y-6078665D01*
X8553988Y-6078665D01*
X8554012Y-6051335D01*
X8543530Y-6025966D01*
X8524136Y-6006539D01*
X8498785Y-5996012D01*
X8471335Y-5995988D01*
X8445966Y-6006470D01*
X8426539Y-6025864D01*
X8416012Y-6051215D01*
X8415988Y-6078665D01*
X7862382Y-6078665D01*
X7863991Y-6074789D01*
X7864008Y-6055296D01*
X7856564Y-6037280D01*
X7842792Y-6023484D01*
X7824789Y-6016008D01*
X7822625Y-6016007D01*
X7816619Y-6010000D01*
X7827616Y-5999002D01*
X7834704Y-5999008D01*
X7852720Y-5991564D01*
X7866516Y-5977792D01*
X7873991Y-5959789D01*
X7874008Y-5940296D01*
X7866564Y-5922280D01*
X7852792Y-5908484D01*
X7834789Y-5901008D01*
X7815296Y-5900991D01*
X7797280Y-5908436D01*
X7783484Y-5922207D01*
X7776008Y-5940210D01*
X7776002Y-5947379D01*
X7644881Y-6078500D01*
X7346500Y-6078500D01*
X7346500Y-6077800D01*
X7351516Y-6072792D01*
X7358991Y-6054789D01*
X7359008Y-6035296D01*
X7351564Y-6017280D01*
X7337792Y-6003484D01*
X7319789Y-5996008D01*
X7300296Y-5995991D01*
X7282280Y-6003436D01*
X7268484Y-6017207D01*
X7261008Y-6035210D01*
X7260991Y-6054704D01*
X7268436Y-6072720D01*
X7273500Y-6077793D01*
X7273500Y-6078500D01*
X6685000Y-6078500D01*
X6671032Y-6081278D01*
X6659191Y-6089191D01*
X6639881Y-6108500D01*
X6432800Y-6108500D01*
X6427792Y-6103484D01*
X6409789Y-6096008D01*
X6390296Y-6095991D01*
X6372280Y-6103436D01*
X6358484Y-6117207D01*
X6351008Y-6135210D01*
X6350991Y-6154704D01*
X6358436Y-6172720D01*
X6372207Y-6186516D01*
X6390210Y-6193991D01*
X6409704Y-6194008D01*
X6427720Y-6186564D01*
X6432793Y-6181500D01*
X6655000Y-6181500D01*
X6668968Y-6178722D01*
X6671667Y-6176918D01*
X6659541Y-6195066D01*
X6651140Y-6237299D01*
X6651140Y-6272701D01*
X6659541Y-6314933D01*
X6683464Y-6350737D01*
X6719267Y-6374660D01*
X6761500Y-6383061D01*
X6803733Y-6374660D01*
X6839536Y-6350737D01*
X6863459Y-6314933D01*
X6871860Y-6272701D01*
X6871860Y-6237299D01*
X6863459Y-6195066D01*
X6839536Y-6159263D01*
X6827918Y-6151500D01*
X6949082Y-6151500D01*
X6937464Y-6159263D01*
X6913541Y-6195066D01*
X6905140Y-6237299D01*
X6905140Y-6272701D01*
X6913541Y-6314933D01*
X6937464Y-6350737D01*
X6973267Y-6374660D01*
X7015500Y-6383061D01*
X7057733Y-6374660D01*
X7093536Y-6350737D01*
X7117459Y-6314933D01*
X7125860Y-6272701D01*
X7125860Y-6272000D01*
X7139743Y-6272000D01*
X7127295Y-6294545D01*
X7147421Y-6347114D01*
X7186132Y-6387980D01*
X7218467Y-6403500D01*
X5467610Y-6403500D01*
X5322267Y-6374589D01*
X5201263Y-6293737D01*
X5120411Y-6172734D01*
X5091621Y-6028000D01*
X5284423Y-6028000D01*
X5276023Y-6048229D01*
X5275977Y-6101537D01*
X5296334Y-6150806D01*
X5333996Y-6188533D01*
X5383229Y-6208977D01*
X5436537Y-6209023D01*
X5485806Y-6188666D01*
X5523533Y-6151004D01*
X5543977Y-6101771D01*
X5544023Y-6048463D01*
X5535568Y-6028000D01*
X5720000Y-6028000D01*
X5722908Y-6027453D01*
X5725578Y-6025734D01*
X5727370Y-6023112D01*
X5728000Y-6020000D01*
X5728000Y-5743714D01*
X7485992Y-5743714D01*
X7492677Y-5759891D01*
X7505043Y-5772280D01*
X7521209Y-5778992D01*
X7528744Y-5778999D01*
X7593000Y-5843255D01*
X7593000Y-5869773D01*
X7587720Y-5875043D01*
X7581008Y-5891209D01*
X7580992Y-5908714D01*
X7587677Y-5924891D01*
X7600043Y-5937280D01*
X7616209Y-5943992D01*
X7633714Y-5944008D01*
X7649891Y-5937323D01*
X7662280Y-5924956D01*
X7668992Y-5908790D01*
X7669008Y-5891286D01*
X7662323Y-5875109D01*
X7657000Y-5869776D01*
X7657000Y-5830000D01*
X7654564Y-5817754D01*
X7647627Y-5807373D01*
X7582021Y-5741767D01*
X9304821Y-5741767D01*
X9322662Y-5776479D01*
X9355898Y-5805608D01*
X9397751Y-5819800D01*
X9415500Y-5806225D01*
X9415500Y-5724500D01*
X9449500Y-5724500D01*
X9449500Y-5806225D01*
X9467249Y-5819800D01*
X9509102Y-5805608D01*
X9542338Y-5776479D01*
X9544353Y-5772557D01*
X9594828Y-5772557D01*
X9616274Y-5813668D01*
X9652366Y-5842781D01*
X9696852Y-5855866D01*
X9715500Y-5841574D01*
X9715500Y-5754500D01*
X9749500Y-5754500D01*
X9749500Y-5841574D01*
X9768148Y-5855866D01*
X9812634Y-5842781D01*
X9848726Y-5813668D01*
X9870172Y-5772557D01*
X9859594Y-5754500D01*
X9749500Y-5754500D01*
X9715500Y-5754500D01*
X9605406Y-5754500D01*
X9594828Y-5772557D01*
X9544353Y-5772557D01*
X9560179Y-5741767D01*
X9549522Y-5724500D01*
X9449500Y-5724500D01*
X9415500Y-5724500D01*
X9315478Y-5724500D01*
X9304821Y-5741767D01*
X7582021Y-5741767D01*
X7574001Y-5733746D01*
X7574008Y-5726286D01*
X7567323Y-5710109D01*
X7559670Y-5702443D01*
X9594828Y-5702443D01*
X9605406Y-5720500D01*
X9715500Y-5720500D01*
X9715500Y-5633426D01*
X9749500Y-5633426D01*
X9749500Y-5720500D01*
X9859594Y-5720500D01*
X9870172Y-5702443D01*
X9848726Y-5661332D01*
X9812634Y-5632219D01*
X9768148Y-5619134D01*
X9749500Y-5633426D01*
X9715500Y-5633426D01*
X9696852Y-5619134D01*
X9652366Y-5632219D01*
X9616274Y-5661332D01*
X9594828Y-5702443D01*
X7559670Y-5702443D01*
X7554956Y-5697720D01*
X7538790Y-5691008D01*
X7521286Y-5690992D01*
X7505109Y-5697677D01*
X7492720Y-5710043D01*
X7486008Y-5726209D01*
X7485992Y-5743714D01*
X5728000Y-5743714D01*
X5728000Y-5563714D01*
X6665992Y-5563714D01*
X6672677Y-5579891D01*
X6685043Y-5592280D01*
X6701209Y-5598992D01*
X6708744Y-5598999D01*
X6795999Y-5686254D01*
X6795992Y-5693714D01*
X6802677Y-5709891D01*
X6815043Y-5722280D01*
X6831209Y-5728992D01*
X6848714Y-5729008D01*
X6864891Y-5722323D01*
X6877280Y-5709956D01*
X6883992Y-5693790D01*
X6884008Y-5676286D01*
X6882746Y-5673233D01*
X9304821Y-5673233D01*
X9315478Y-5690500D01*
X9415500Y-5690500D01*
X9415500Y-5608775D01*
X9449500Y-5608775D01*
X9449500Y-5690500D01*
X9549522Y-5690500D01*
X9560179Y-5673233D01*
X9542338Y-5638521D01*
X9509102Y-5609392D01*
X9467249Y-5595200D01*
X9449500Y-5608775D01*
X9415500Y-5608775D01*
X9397751Y-5595200D01*
X9355898Y-5609392D01*
X9322662Y-5638521D01*
X9304821Y-5673233D01*
X6882746Y-5673233D01*
X6877323Y-5660109D01*
X6864956Y-5647720D01*
X6848790Y-5641008D01*
X6841256Y-5641001D01*
X6754001Y-5553746D01*
X6754008Y-5546286D01*
X6747323Y-5530109D01*
X6734956Y-5517720D01*
X6718790Y-5511008D01*
X6701286Y-5510992D01*
X6685109Y-5517677D01*
X6672720Y-5530044D01*
X6666008Y-5546210D01*
X6665992Y-5563714D01*
X5728000Y-5563714D01*
X5728000Y-5468714D01*
X7405992Y-5468714D01*
X7412677Y-5484891D01*
X7425043Y-5497280D01*
X7441209Y-5503992D01*
X7458714Y-5504008D01*
X7474891Y-5497323D01*
X7487280Y-5484957D01*
X7493992Y-5468791D01*
X7493999Y-5461256D01*
X7653255Y-5302000D01*
X8909773Y-5302000D01*
X8915044Y-5307280D01*
X8931210Y-5313992D01*
X8948714Y-5314008D01*
X8964891Y-5307323D01*
X8977280Y-5294957D01*
X8983992Y-5278791D01*
X8984008Y-5261286D01*
X8982140Y-5256767D01*
X9304821Y-5256767D01*
X9322662Y-5291479D01*
X9355898Y-5320608D01*
X9397751Y-5334800D01*
X9415500Y-5321225D01*
X9415500Y-5239500D01*
X9449500Y-5239500D01*
X9449500Y-5321225D01*
X9467249Y-5334800D01*
X9509102Y-5320608D01*
X9542338Y-5291479D01*
X9560179Y-5256767D01*
X9549522Y-5239500D01*
X9449500Y-5239500D01*
X9415500Y-5239500D01*
X9315478Y-5239500D01*
X9304821Y-5256767D01*
X8982140Y-5256767D01*
X8977323Y-5245109D01*
X8964957Y-5232720D01*
X8952523Y-5227557D01*
X9594828Y-5227557D01*
X9616274Y-5268668D01*
X9652366Y-5297781D01*
X9696852Y-5310866D01*
X9715500Y-5296574D01*
X9715500Y-5209500D01*
X9749500Y-5209500D01*
X9749500Y-5296574D01*
X9768148Y-5310866D01*
X9812634Y-5297781D01*
X9848726Y-5268668D01*
X9870172Y-5227557D01*
X9859594Y-5209500D01*
X9749500Y-5209500D01*
X9715500Y-5209500D01*
X9605406Y-5209500D01*
X9594828Y-5227557D01*
X8952523Y-5227557D01*
X8948791Y-5226008D01*
X8931286Y-5225992D01*
X8915109Y-5232677D01*
X8909776Y-5238000D01*
X7640000Y-5238000D01*
X7627754Y-5240436D01*
X7617373Y-5247373D01*
X7448746Y-5415999D01*
X7441286Y-5415992D01*
X7425109Y-5422677D01*
X7412720Y-5435044D01*
X7406008Y-5451210D01*
X7405992Y-5468714D01*
X5728000Y-5468714D01*
X5728000Y-5188233D01*
X9304821Y-5188233D01*
X9315478Y-5205500D01*
X9415500Y-5205500D01*
X9415500Y-5123775D01*
X9449500Y-5123775D01*
X9449500Y-5205500D01*
X9549522Y-5205500D01*
X9560179Y-5188233D01*
X9544353Y-5157443D01*
X9594828Y-5157443D01*
X9605406Y-5175500D01*
X9715500Y-5175500D01*
X9715500Y-5088426D01*
X9749500Y-5088426D01*
X9749500Y-5175500D01*
X9859594Y-5175500D01*
X9870172Y-5157443D01*
X9848726Y-5116332D01*
X9812634Y-5087219D01*
X9768148Y-5074134D01*
X9749500Y-5088426D01*
X9715500Y-5088426D01*
X9696852Y-5074134D01*
X9652366Y-5087219D01*
X9616274Y-5116332D01*
X9594828Y-5157443D01*
X9544353Y-5157443D01*
X9542338Y-5153521D01*
X9509102Y-5124392D01*
X9467249Y-5110200D01*
X9449500Y-5123775D01*
X9415500Y-5123775D01*
X9397751Y-5110200D01*
X9355898Y-5124392D01*
X9322662Y-5153521D01*
X9304821Y-5188233D01*
X5728000Y-5188233D01*
X5728000Y-5020000D01*
X5727453Y-5017092D01*
X5725734Y-5014422D01*
X5723112Y-5012630D01*
X5720000Y-5012000D01*
X5091500Y-5012000D01*
X5091500Y-4764361D01*
X5265961Y-4764361D01*
X5299991Y-4846720D01*
X5362949Y-4909787D01*
X5445248Y-4943961D01*
X5534361Y-4944039D01*
X5616720Y-4910009D01*
X5679787Y-4847052D01*
X5713961Y-4764752D01*
X5714039Y-4675639D01*
X5709379Y-4664361D01*
X9415961Y-4664361D01*
X9449991Y-4746720D01*
X9512949Y-4809787D01*
X9595248Y-4843961D01*
X9684361Y-4844039D01*
X9766720Y-4810009D01*
X9829787Y-4747052D01*
X9863961Y-4664752D01*
X9864039Y-4575639D01*
X9830009Y-4493280D01*
X9767052Y-4430213D01*
X9684752Y-4396039D01*
X9595639Y-4395961D01*
X9513280Y-4429991D01*
X9450213Y-4492949D01*
X9416039Y-4575248D01*
X9415961Y-4664361D01*
X5709379Y-4664361D01*
X5680009Y-4593280D01*
X5617051Y-4530213D01*
X5534752Y-4496039D01*
X5445639Y-4495961D01*
X5363280Y-4529991D01*
X5300213Y-4592949D01*
X5266039Y-4675248D01*
X5265961Y-4764361D01*
X5091500Y-4764361D01*
X5091500Y-3132610D01*
X5097681Y-3101537D01*
X5275977Y-3101537D01*
X5296334Y-3150806D01*
X5333996Y-3188533D01*
X5383229Y-3208977D01*
X5436537Y-3209023D01*
X5485806Y-3188666D01*
X5523533Y-3151004D01*
X5541998Y-3106537D01*
X9580977Y-3106537D01*
X9601334Y-3155806D01*
X9638996Y-3193533D01*
X9688229Y-3213977D01*
X9741537Y-3214023D01*
X9790806Y-3193666D01*
X9828533Y-3156004D01*
X9848977Y-3106771D01*
X9849023Y-3053463D01*
X9828666Y-3004194D01*
X9791004Y-2966467D01*
X9741771Y-2946023D01*
X9688463Y-2945977D01*
X9639194Y-2966334D01*
X9601467Y-3003996D01*
X9581023Y-3053229D01*
X9580977Y-3106537D01*
X5541998Y-3106537D01*
X5543977Y-3101771D01*
X5544023Y-3048463D01*
X5523666Y-2999194D01*
X5486004Y-2961467D01*
X5436771Y-2941023D01*
X5383463Y-2940977D01*
X5334194Y-2961334D01*
X5296467Y-2998996D01*
X5276023Y-3048229D01*
X5275977Y-3101537D01*
X5097681Y-3101537D01*
X5120411Y-2987266D01*
X5201263Y-2866263D01*
X5322267Y-2785411D01*
X5467610Y-2756500D01*
X9662390Y-2756500D01*
X9807734Y-2785411D01*
X9807734Y-2785411D01*
G37*
X9807734Y-2785411D02*
X9928737Y-2866263D01*
X10009589Y-2987266D01*
X10038500Y-3132610D01*
X10038500Y-4775000D01*
X10038997Y-4777500D01*
X10038500Y-4780000D01*
X10038500Y-6027390D01*
X10009589Y-6172733D01*
X9928737Y-6293737D01*
X9807734Y-6374589D01*
X9662390Y-6403500D01*
X7320532Y-6403500D01*
X7352868Y-6387980D01*
X7391579Y-6347114D01*
X7411705Y-6294545D01*
X7399257Y-6272000D01*
X7413140Y-6272000D01*
X7413140Y-6272701D01*
X7421541Y-6314933D01*
X7445464Y-6350737D01*
X7481267Y-6374660D01*
X7523500Y-6383061D01*
X7565733Y-6374660D01*
X7601536Y-6350737D01*
X7625459Y-6314933D01*
X7633860Y-6272701D01*
X7633860Y-6237299D01*
X7625459Y-6195066D01*
X7601536Y-6159263D01*
X7589918Y-6151500D01*
X7660000Y-6151500D01*
X7667351Y-6150038D01*
X7666670Y-6153400D01*
X7666670Y-6356600D01*
X7668343Y-6365494D01*
X7673600Y-6373662D01*
X7681620Y-6379142D01*
X7691140Y-6381070D01*
X7863860Y-6381070D01*
X7872754Y-6379397D01*
X7880922Y-6374140D01*
X7886402Y-6366120D01*
X7888330Y-6356600D01*
X7888330Y-6153400D01*
X7886657Y-6144506D01*
X7881400Y-6136338D01*
X7873380Y-6130858D01*
X7863860Y-6128930D01*
X7697689Y-6128930D01*
X7765000Y-6061619D01*
X7766002Y-6062621D01*
X7765991Y-6074704D01*
X7773436Y-6092720D01*
X7787207Y-6106516D01*
X7805210Y-6113991D01*
X7824704Y-6114008D01*
X7842720Y-6106564D01*
X7856516Y-6092792D01*
X7862382Y-6078665D01*
X8415988Y-6078665D01*
X8426471Y-6104034D01*
X8445864Y-6123461D01*
X8471215Y-6133988D01*
X8498665Y-6134012D01*
X8524034Y-6123529D01*
X8543461Y-6104136D01*
X8553988Y-6078785D01*
X8553988Y-6078665D01*
X9095988Y-6078665D01*
X9106471Y-6104034D01*
X9125864Y-6123461D01*
X9151215Y-6133988D01*
X9178665Y-6134012D01*
X9204034Y-6123529D01*
X9223461Y-6104136D01*
X9224541Y-6101537D01*
X9575977Y-6101537D01*
X9596334Y-6150806D01*
X9633996Y-6188533D01*
X9683229Y-6208977D01*
X9736537Y-6209023D01*
X9785806Y-6188666D01*
X9823533Y-6151004D01*
X9843977Y-6101771D01*
X9844023Y-6048463D01*
X9823666Y-5999194D01*
X9786004Y-5961467D01*
X9736771Y-5941023D01*
X9683463Y-5940977D01*
X9634194Y-5961334D01*
X9596467Y-5998996D01*
X9576023Y-6048229D01*
X9575977Y-6101537D01*
X9224541Y-6101537D01*
X9233988Y-6078785D01*
X9234012Y-6051335D01*
X9223530Y-6025966D01*
X9204136Y-6006539D01*
X9178785Y-5996012D01*
X9151335Y-5995988D01*
X9125966Y-6006470D01*
X9106539Y-6025864D01*
X9096012Y-6051215D01*
X9095988Y-6078665D01*
X8553988Y-6078665D01*
X8554012Y-6051335D01*
X8543530Y-6025966D01*
X8524136Y-6006539D01*
X8498785Y-5996012D01*
X8471335Y-5995988D01*
X8445966Y-6006470D01*
X8426539Y-6025864D01*
X8416012Y-6051215D01*
X8415988Y-6078665D01*
X7862382Y-6078665D01*
X7863991Y-6074789D01*
X7864008Y-6055296D01*
X7856564Y-6037280D01*
X7842792Y-6023484D01*
X7824789Y-6016008D01*
X7822625Y-6016007D01*
X7816619Y-6010000D01*
X7827616Y-5999002D01*
X7834704Y-5999008D01*
X7852720Y-5991564D01*
X7866516Y-5977792D01*
X7873991Y-5959789D01*
X7874008Y-5940296D01*
X7866564Y-5922280D01*
X7852792Y-5908484D01*
X7834789Y-5901008D01*
X7815296Y-5900991D01*
X7797280Y-5908436D01*
X7783484Y-5922207D01*
X7776008Y-5940210D01*
X7776002Y-5947379D01*
X7644881Y-6078500D01*
X7346500Y-6078500D01*
X7346500Y-6077800D01*
X7351516Y-6072792D01*
X7358991Y-6054789D01*
X7359008Y-6035296D01*
X7351564Y-6017280D01*
X7337792Y-6003484D01*
X7319789Y-5996008D01*
X7300296Y-5995991D01*
X7282280Y-6003436D01*
X7268484Y-6017207D01*
X7261008Y-6035210D01*
X7260991Y-6054704D01*
X7268436Y-6072720D01*
X7273500Y-6077793D01*
X7273500Y-6078500D01*
X6685000Y-6078500D01*
X6671032Y-6081278D01*
X6659191Y-6089191D01*
X6639881Y-6108500D01*
X6432800Y-6108500D01*
X6427792Y-6103484D01*
X6409789Y-6096008D01*
X6390296Y-6095991D01*
X6372280Y-6103436D01*
X6358484Y-6117207D01*
X6351008Y-6135210D01*
X6350991Y-6154704D01*
X6358436Y-6172720D01*
X6372207Y-6186516D01*
X6390210Y-6193991D01*
X6409704Y-6194008D01*
X6427720Y-6186564D01*
X6432793Y-6181500D01*
X6655000Y-6181500D01*
X6668968Y-6178722D01*
X6671667Y-6176918D01*
X6659541Y-6195066D01*
X6651140Y-6237299D01*
X6651140Y-6272701D01*
X6659541Y-6314933D01*
X6683464Y-6350737D01*
X6719267Y-6374660D01*
X6761500Y-6383061D01*
X6803733Y-6374660D01*
X6839536Y-6350737D01*
X6863459Y-6314933D01*
X6871860Y-6272701D01*
X6871860Y-6237299D01*
X6863459Y-6195066D01*
X6839536Y-6159263D01*
X6827918Y-6151500D01*
X6949082Y-6151500D01*
X6937464Y-6159263D01*
X6913541Y-6195066D01*
X6905140Y-6237299D01*
X6905140Y-6272701D01*
X6913541Y-6314933D01*
X6937464Y-6350737D01*
X6973267Y-6374660D01*
X7015500Y-6383061D01*
X7057733Y-6374660D01*
X7093536Y-6350737D01*
X7117459Y-6314933D01*
X7125860Y-6272701D01*
X7125860Y-6272000D01*
X7139743Y-6272000D01*
X7127295Y-6294545D01*
X7147421Y-6347114D01*
X7186132Y-6387980D01*
X7218467Y-6403500D01*
X5467610Y-6403500D01*
X5322267Y-6374589D01*
X5201263Y-6293737D01*
X5120411Y-6172734D01*
X5091621Y-6028000D01*
X5284423Y-6028000D01*
X5276023Y-6048229D01*
X5275977Y-6101537D01*
X5296334Y-6150806D01*
X5333996Y-6188533D01*
X5383229Y-6208977D01*
X5436537Y-6209023D01*
X5485806Y-6188666D01*
X5523533Y-6151004D01*
X5543977Y-6101771D01*
X5544023Y-6048463D01*
X5535568Y-6028000D01*
X5720000Y-6028000D01*
X5722908Y-6027453D01*
X5725578Y-6025734D01*
X5727370Y-6023112D01*
X5728000Y-6020000D01*
X5728000Y-5743714D01*
X7485992Y-5743714D01*
X7492677Y-5759891D01*
X7505043Y-5772280D01*
X7521209Y-5778992D01*
X7528744Y-5778999D01*
X7593000Y-5843255D01*
X7593000Y-5869773D01*
X7587720Y-5875043D01*
X7581008Y-5891209D01*
X7580992Y-5908714D01*
X7587677Y-5924891D01*
X7600043Y-5937280D01*
X7616209Y-5943992D01*
X7633714Y-5944008D01*
X7649891Y-5937323D01*
X7662280Y-5924956D01*
X7668992Y-5908790D01*
X7669008Y-5891286D01*
X7662323Y-5875109D01*
X7657000Y-5869776D01*
X7657000Y-5830000D01*
X7654564Y-5817754D01*
X7647627Y-5807373D01*
X7582021Y-5741767D01*
X9304821Y-5741767D01*
X9322662Y-5776479D01*
X9355898Y-5805608D01*
X9397751Y-5819800D01*
X9415500Y-5806225D01*
X9415500Y-5724500D01*
X9449500Y-5724500D01*
X9449500Y-5806225D01*
X9467249Y-5819800D01*
X9509102Y-5805608D01*
X9542338Y-5776479D01*
X9544353Y-5772557D01*
X9594828Y-5772557D01*
X9616274Y-5813668D01*
X9652366Y-5842781D01*
X9696852Y-5855866D01*
X9715500Y-5841574D01*
X9715500Y-5754500D01*
X9749500Y-5754500D01*
X9749500Y-5841574D01*
X9768148Y-5855866D01*
X9812634Y-5842781D01*
X9848726Y-5813668D01*
X9870172Y-5772557D01*
X9859594Y-5754500D01*
X9749500Y-5754500D01*
X9715500Y-5754500D01*
X9605406Y-5754500D01*
X9594828Y-5772557D01*
X9544353Y-5772557D01*
X9560179Y-5741767D01*
X9549522Y-5724500D01*
X9449500Y-5724500D01*
X9415500Y-5724500D01*
X9315478Y-5724500D01*
X9304821Y-5741767D01*
X7582021Y-5741767D01*
X7574001Y-5733746D01*
X7574008Y-5726286D01*
X7567323Y-5710109D01*
X7559670Y-5702443D01*
X9594828Y-5702443D01*
X9605406Y-5720500D01*
X9715500Y-5720500D01*
X9715500Y-5633426D01*
X9749500Y-5633426D01*
X9749500Y-5720500D01*
X9859594Y-5720500D01*
X9870172Y-5702443D01*
X9848726Y-5661332D01*
X9812634Y-5632219D01*
X9768148Y-5619134D01*
X9749500Y-5633426D01*
X9715500Y-5633426D01*
X9696852Y-5619134D01*
X9652366Y-5632219D01*
X9616274Y-5661332D01*
X9594828Y-5702443D01*
X7559670Y-5702443D01*
X7554956Y-5697720D01*
X7538790Y-5691008D01*
X7521286Y-5690992D01*
X7505109Y-5697677D01*
X7492720Y-5710043D01*
X7486008Y-5726209D01*
X7485992Y-5743714D01*
X5728000Y-5743714D01*
X5728000Y-5563714D01*
X6665992Y-5563714D01*
X6672677Y-5579891D01*
X6685043Y-5592280D01*
X6701209Y-5598992D01*
X6708744Y-5598999D01*
X6795999Y-5686254D01*
X6795992Y-5693714D01*
X6802677Y-5709891D01*
X6815043Y-5722280D01*
X6831209Y-5728992D01*
X6848714Y-5729008D01*
X6864891Y-5722323D01*
X6877280Y-5709956D01*
X6883992Y-5693790D01*
X6884008Y-5676286D01*
X6882746Y-5673233D01*
X9304821Y-5673233D01*
X9315478Y-5690500D01*
X9415500Y-5690500D01*
X9415500Y-5608775D01*
X9449500Y-5608775D01*
X9449500Y-5690500D01*
X9549522Y-5690500D01*
X9560179Y-5673233D01*
X9542338Y-5638521D01*
X9509102Y-5609392D01*
X9467249Y-5595200D01*
X9449500Y-5608775D01*
X9415500Y-5608775D01*
X9397751Y-5595200D01*
X9355898Y-5609392D01*
X9322662Y-5638521D01*
X9304821Y-5673233D01*
X6882746Y-5673233D01*
X6877323Y-5660109D01*
X6864956Y-5647720D01*
X6848790Y-5641008D01*
X6841256Y-5641001D01*
X6754001Y-5553746D01*
X6754008Y-5546286D01*
X6747323Y-5530109D01*
X6734956Y-5517720D01*
X6718790Y-5511008D01*
X6701286Y-5510992D01*
X6685109Y-5517677D01*
X6672720Y-5530044D01*
X6666008Y-5546210D01*
X6665992Y-5563714D01*
X5728000Y-5563714D01*
X5728000Y-5468714D01*
X7405992Y-5468714D01*
X7412677Y-5484891D01*
X7425043Y-5497280D01*
X7441209Y-5503992D01*
X7458714Y-5504008D01*
X7474891Y-5497323D01*
X7487280Y-5484957D01*
X7493992Y-5468791D01*
X7493999Y-5461256D01*
X7653255Y-5302000D01*
X8909773Y-5302000D01*
X8915044Y-5307280D01*
X8931210Y-5313992D01*
X8948714Y-5314008D01*
X8964891Y-5307323D01*
X8977280Y-5294957D01*
X8983992Y-5278791D01*
X8984008Y-5261286D01*
X8982140Y-5256767D01*
X9304821Y-5256767D01*
X9322662Y-5291479D01*
X9355898Y-5320608D01*
X9397751Y-5334800D01*
X9415500Y-5321225D01*
X9415500Y-5239500D01*
X9449500Y-5239500D01*
X9449500Y-5321225D01*
X9467249Y-5334800D01*
X9509102Y-5320608D01*
X9542338Y-5291479D01*
X9560179Y-5256767D01*
X9549522Y-5239500D01*
X9449500Y-5239500D01*
X9415500Y-5239500D01*
X9315478Y-5239500D01*
X9304821Y-5256767D01*
X8982140Y-5256767D01*
X8977323Y-5245109D01*
X8964957Y-5232720D01*
X8952523Y-5227557D01*
X9594828Y-5227557D01*
X9616274Y-5268668D01*
X9652366Y-5297781D01*
X9696852Y-5310866D01*
X9715500Y-5296574D01*
X9715500Y-5209500D01*
X9749500Y-5209500D01*
X9749500Y-5296574D01*
X9768148Y-5310866D01*
X9812634Y-5297781D01*
X9848726Y-5268668D01*
X9870172Y-5227557D01*
X9859594Y-5209500D01*
X9749500Y-5209500D01*
X9715500Y-5209500D01*
X9605406Y-5209500D01*
X9594828Y-5227557D01*
X8952523Y-5227557D01*
X8948791Y-5226008D01*
X8931286Y-5225992D01*
X8915109Y-5232677D01*
X8909776Y-5238000D01*
X7640000Y-5238000D01*
X7627754Y-5240436D01*
X7617373Y-5247373D01*
X7448746Y-5415999D01*
X7441286Y-5415992D01*
X7425109Y-5422677D01*
X7412720Y-5435044D01*
X7406008Y-5451210D01*
X7405992Y-5468714D01*
X5728000Y-5468714D01*
X5728000Y-5188233D01*
X9304821Y-5188233D01*
X9315478Y-5205500D01*
X9415500Y-5205500D01*
X9415500Y-5123775D01*
X9449500Y-5123775D01*
X9449500Y-5205500D01*
X9549522Y-5205500D01*
X9560179Y-5188233D01*
X9544353Y-5157443D01*
X9594828Y-5157443D01*
X9605406Y-5175500D01*
X9715500Y-5175500D01*
X9715500Y-5088426D01*
X9749500Y-5088426D01*
X9749500Y-5175500D01*
X9859594Y-5175500D01*
X9870172Y-5157443D01*
X9848726Y-5116332D01*
X9812634Y-5087219D01*
X9768148Y-5074134D01*
X9749500Y-5088426D01*
X9715500Y-5088426D01*
X9696852Y-5074134D01*
X9652366Y-5087219D01*
X9616274Y-5116332D01*
X9594828Y-5157443D01*
X9544353Y-5157443D01*
X9542338Y-5153521D01*
X9509102Y-5124392D01*
X9467249Y-5110200D01*
X9449500Y-5123775D01*
X9415500Y-5123775D01*
X9397751Y-5110200D01*
X9355898Y-5124392D01*
X9322662Y-5153521D01*
X9304821Y-5188233D01*
X5728000Y-5188233D01*
X5728000Y-5020000D01*
X5727453Y-5017092D01*
X5725734Y-5014422D01*
X5723112Y-5012630D01*
X5720000Y-5012000D01*
X5091500Y-5012000D01*
X5091500Y-4764361D01*
X5265961Y-4764361D01*
X5299991Y-4846720D01*
X5362949Y-4909787D01*
X5445248Y-4943961D01*
X5534361Y-4944039D01*
X5616720Y-4910009D01*
X5679787Y-4847052D01*
X5713961Y-4764752D01*
X5714039Y-4675639D01*
X5709379Y-4664361D01*
X9415961Y-4664361D01*
X9449991Y-4746720D01*
X9512949Y-4809787D01*
X9595248Y-4843961D01*
X9684361Y-4844039D01*
X9766720Y-4810009D01*
X9829787Y-4747052D01*
X9863961Y-4664752D01*
X9864039Y-4575639D01*
X9830009Y-4493280D01*
X9767052Y-4430213D01*
X9684752Y-4396039D01*
X9595639Y-4395961D01*
X9513280Y-4429991D01*
X9450213Y-4492949D01*
X9416039Y-4575248D01*
X9415961Y-4664361D01*
X5709379Y-4664361D01*
X5680009Y-4593280D01*
X5617051Y-4530213D01*
X5534752Y-4496039D01*
X5445639Y-4495961D01*
X5363280Y-4529991D01*
X5300213Y-4592949D01*
X5266039Y-4675248D01*
X5265961Y-4764361D01*
X5091500Y-4764361D01*
X5091500Y-3132610D01*
X5097681Y-3101537D01*
X5275977Y-3101537D01*
X5296334Y-3150806D01*
X5333996Y-3188533D01*
X5383229Y-3208977D01*
X5436537Y-3209023D01*
X5485806Y-3188666D01*
X5523533Y-3151004D01*
X5541998Y-3106537D01*
X9580977Y-3106537D01*
X9601334Y-3155806D01*
X9638996Y-3193533D01*
X9688229Y-3213977D01*
X9741537Y-3214023D01*
X9790806Y-3193666D01*
X9828533Y-3156004D01*
X9848977Y-3106771D01*
X9849023Y-3053463D01*
X9828666Y-3004194D01*
X9791004Y-2966467D01*
X9741771Y-2946023D01*
X9688463Y-2945977D01*
X9639194Y-2966334D01*
X9601467Y-3003996D01*
X9581023Y-3053229D01*
X9580977Y-3106537D01*
X5541998Y-3106537D01*
X5543977Y-3101771D01*
X5544023Y-3048463D01*
X5523666Y-2999194D01*
X5486004Y-2961467D01*
X5436771Y-2941023D01*
X5383463Y-2940977D01*
X5334194Y-2961334D01*
X5296467Y-2998996D01*
X5276023Y-3048229D01*
X5275977Y-3101537D01*
X5097681Y-3101537D01*
X5120411Y-2987266D01*
X5201263Y-2866263D01*
X5322267Y-2785411D01*
X5467610Y-2756500D01*
X9662390Y-2756500D01*
X9807734Y-2785411D01*
G36*
X7286500Y-6238000D02*
X7288500Y-6238000D01*
X7288500Y-6272000D01*
X7286500Y-6272000D01*
X7286500Y-6274000D01*
X7252500Y-6274000D01*
X7252500Y-6272000D01*
X7250500Y-6272000D01*
X7250500Y-6238000D01*
X7252500Y-6238000D01*
X7252500Y-6236000D01*
X7286500Y-6236000D01*
X7286500Y-6238000D01*
X7286500Y-6238000D01*
G37*
X7286500Y-6238000D02*
X7288500Y-6238000D01*
X7288500Y-6272000D01*
X7286500Y-6272000D01*
X7286500Y-6274000D01*
X7252500Y-6274000D01*
X7252500Y-6272000D01*
X7250500Y-6272000D01*
X7250500Y-6238000D01*
X7252500Y-6238000D01*
X7252500Y-6236000D01*
X7286500Y-6236000D01*
X7286500Y-6238000D01*
G36*
X15007734Y-2785411D02*
X15128737Y-2866263D01*
X15209589Y-2987266D01*
X15238500Y-3132610D01*
X15238500Y-6027390D01*
X15209589Y-6172733D01*
X15128737Y-6293737D01*
X15007734Y-6374589D01*
X14862390Y-6403500D01*
X12520532Y-6403500D01*
X12552868Y-6387980D01*
X12591579Y-6347114D01*
X12611705Y-6294545D01*
X12599257Y-6272000D01*
X12613140Y-6272000D01*
X12613140Y-6272701D01*
X12621541Y-6314933D01*
X12645464Y-6350737D01*
X12681267Y-6374660D01*
X12723500Y-6383061D01*
X12765733Y-6374660D01*
X12801536Y-6350737D01*
X12825459Y-6314933D01*
X12833860Y-6272701D01*
X12833860Y-6237299D01*
X12825459Y-6195066D01*
X12801536Y-6159263D01*
X12789918Y-6151500D01*
X12860000Y-6151500D01*
X12867351Y-6150038D01*
X12866670Y-6153400D01*
X12866670Y-6356600D01*
X12868343Y-6365494D01*
X12873600Y-6373662D01*
X12881620Y-6379142D01*
X12891140Y-6381070D01*
X13063860Y-6381070D01*
X13072754Y-6379397D01*
X13080922Y-6374140D01*
X13086402Y-6366120D01*
X13088330Y-6356600D01*
X13088330Y-6153400D01*
X13086657Y-6144506D01*
X13081400Y-6136338D01*
X13073380Y-6130858D01*
X13063860Y-6128930D01*
X12897689Y-6128930D01*
X12965000Y-6061619D01*
X12966002Y-6062621D01*
X12965991Y-6074704D01*
X12973436Y-6092720D01*
X12987207Y-6106516D01*
X13005210Y-6113991D01*
X13024704Y-6114008D01*
X13042720Y-6106564D01*
X13056516Y-6092792D01*
X13062382Y-6078665D01*
X13615988Y-6078665D01*
X13626470Y-6104034D01*
X13645864Y-6123461D01*
X13671215Y-6133988D01*
X13698665Y-6134012D01*
X13724034Y-6123529D01*
X13743461Y-6104136D01*
X13753988Y-6078785D01*
X13753988Y-6078665D01*
X14295988Y-6078665D01*
X14306470Y-6104034D01*
X14325864Y-6123461D01*
X14351215Y-6133988D01*
X14378665Y-6134012D01*
X14404034Y-6123529D01*
X14423461Y-6104136D01*
X14424540Y-6101537D01*
X14775977Y-6101537D01*
X14796334Y-6150806D01*
X14833996Y-6188533D01*
X14883229Y-6208977D01*
X14936537Y-6209023D01*
X14985806Y-6188666D01*
X15023533Y-6151004D01*
X15043977Y-6101771D01*
X15044023Y-6048463D01*
X15023666Y-5999194D01*
X14986004Y-5961467D01*
X14936771Y-5941023D01*
X14883463Y-5940977D01*
X14834194Y-5961334D01*
X14796467Y-5998996D01*
X14776023Y-6048229D01*
X14775977Y-6101537D01*
X14424540Y-6101537D01*
X14433988Y-6078785D01*
X14434012Y-6051335D01*
X14423529Y-6025966D01*
X14404136Y-6006539D01*
X14378785Y-5996012D01*
X14351335Y-5995988D01*
X14325966Y-6006470D01*
X14306539Y-6025864D01*
X14296012Y-6051215D01*
X14295988Y-6078665D01*
X13753988Y-6078665D01*
X13754012Y-6051335D01*
X13743529Y-6025966D01*
X13724136Y-6006539D01*
X13698785Y-5996012D01*
X13671335Y-5995988D01*
X13645966Y-6006470D01*
X13626539Y-6025864D01*
X13616012Y-6051215D01*
X13615988Y-6078665D01*
X13062382Y-6078665D01*
X13063991Y-6074789D01*
X13064008Y-6055296D01*
X13056564Y-6037280D01*
X13042792Y-6023484D01*
X13024789Y-6016008D01*
X13022625Y-6016007D01*
X13016619Y-6010000D01*
X13027616Y-5999002D01*
X13034704Y-5999008D01*
X13052720Y-5991564D01*
X13066516Y-5977792D01*
X13073991Y-5959789D01*
X13074008Y-5940296D01*
X13066564Y-5922280D01*
X13052792Y-5908484D01*
X13034789Y-5901008D01*
X13015296Y-5900991D01*
X12997280Y-5908436D01*
X12983484Y-5922207D01*
X12976008Y-5940210D01*
X12976002Y-5947379D01*
X12844881Y-6078500D01*
X12546500Y-6078500D01*
X12546500Y-6077800D01*
X12551516Y-6072792D01*
X12558991Y-6054789D01*
X12559008Y-6035296D01*
X12551564Y-6017280D01*
X12537792Y-6003484D01*
X12519789Y-5996008D01*
X12500296Y-5995991D01*
X12482280Y-6003436D01*
X12468484Y-6017207D01*
X12461008Y-6035210D01*
X12460991Y-6054704D01*
X12468436Y-6072720D01*
X12473500Y-6077793D01*
X12473500Y-6078500D01*
X11885000Y-6078500D01*
X11871032Y-6081278D01*
X11859191Y-6089191D01*
X11839881Y-6108500D01*
X11632800Y-6108500D01*
X11627792Y-6103484D01*
X11609789Y-6096008D01*
X11590296Y-6095991D01*
X11572280Y-6103436D01*
X11558484Y-6117207D01*
X11551008Y-6135210D01*
X11550991Y-6154704D01*
X11558436Y-6172720D01*
X11572207Y-6186516D01*
X11590210Y-6193991D01*
X11609704Y-6194008D01*
X11627720Y-6186564D01*
X11632793Y-6181500D01*
X11855000Y-6181500D01*
X11868968Y-6178722D01*
X11871667Y-6176918D01*
X11859541Y-6195066D01*
X11851140Y-6237299D01*
X11851140Y-6272701D01*
X11859541Y-6314933D01*
X11883464Y-6350737D01*
X11919267Y-6374660D01*
X11961500Y-6383061D01*
X12003733Y-6374660D01*
X12039536Y-6350737D01*
X12063459Y-6314933D01*
X12071860Y-6272701D01*
X12071860Y-6237299D01*
X12063459Y-6195066D01*
X12039536Y-6159263D01*
X12027918Y-6151500D01*
X12149082Y-6151500D01*
X12137464Y-6159263D01*
X12113541Y-6195066D01*
X12105140Y-6237299D01*
X12105140Y-6272701D01*
X12113541Y-6314933D01*
X12137464Y-6350737D01*
X12173267Y-6374660D01*
X12215500Y-6383061D01*
X12257733Y-6374660D01*
X12293536Y-6350737D01*
X12317459Y-6314933D01*
X12325860Y-6272701D01*
X12325860Y-6272000D01*
X12339743Y-6272000D01*
X12327295Y-6294545D01*
X12347421Y-6347114D01*
X12386132Y-6387980D01*
X12418467Y-6403500D01*
X10667610Y-6403500D01*
X10522267Y-6374589D01*
X10401263Y-6293737D01*
X10320411Y-6172734D01*
X10291621Y-6028000D01*
X10484423Y-6028000D01*
X10476023Y-6048229D01*
X10475977Y-6101537D01*
X10496334Y-6150806D01*
X10533996Y-6188533D01*
X10583229Y-6208977D01*
X10636537Y-6209023D01*
X10685806Y-6188666D01*
X10723533Y-6151004D01*
X10743977Y-6101771D01*
X10744023Y-6048463D01*
X10735568Y-6028000D01*
X10920000Y-6028000D01*
X10922908Y-6027453D01*
X10925578Y-6025734D01*
X10927370Y-6023112D01*
X10928000Y-6020000D01*
X10928000Y-5743714D01*
X12685992Y-5743714D01*
X12692677Y-5759891D01*
X12705043Y-5772280D01*
X12721209Y-5778992D01*
X12728744Y-5778999D01*
X12793000Y-5843255D01*
X12793000Y-5869773D01*
X12787720Y-5875043D01*
X12781008Y-5891209D01*
X12780992Y-5908714D01*
X12787677Y-5924891D01*
X12800043Y-5937280D01*
X12816209Y-5943992D01*
X12833714Y-5944008D01*
X12849891Y-5937323D01*
X12862280Y-5924956D01*
X12868992Y-5908790D01*
X12869008Y-5891286D01*
X12862323Y-5875109D01*
X12857000Y-5869776D01*
X12857000Y-5830000D01*
X12854564Y-5817754D01*
X12847627Y-5807373D01*
X12782021Y-5741767D01*
X14504821Y-5741767D01*
X14522662Y-5776479D01*
X14555898Y-5805608D01*
X14597751Y-5819800D01*
X14615500Y-5806225D01*
X14615500Y-5724500D01*
X14649500Y-5724500D01*
X14649500Y-5806225D01*
X14667249Y-5819800D01*
X14709102Y-5805608D01*
X14742338Y-5776479D01*
X14744353Y-5772557D01*
X14794828Y-5772557D01*
X14816274Y-5813668D01*
X14852366Y-5842781D01*
X14896852Y-5855866D01*
X14915500Y-5841574D01*
X14915500Y-5754500D01*
X14949500Y-5754500D01*
X14949500Y-5841574D01*
X14968148Y-5855866D01*
X15012634Y-5842781D01*
X15048726Y-5813668D01*
X15070172Y-5772557D01*
X15059594Y-5754500D01*
X14949500Y-5754500D01*
X14915500Y-5754500D01*
X14805406Y-5754500D01*
X14794828Y-5772557D01*
X14744353Y-5772557D01*
X14760179Y-5741767D01*
X14749522Y-5724500D01*
X14649500Y-5724500D01*
X14615500Y-5724500D01*
X14515478Y-5724500D01*
X14504821Y-5741767D01*
X12782021Y-5741767D01*
X12774001Y-5733746D01*
X12774008Y-5726286D01*
X12767323Y-5710109D01*
X12759670Y-5702443D01*
X14794828Y-5702443D01*
X14805406Y-5720500D01*
X14915500Y-5720500D01*
X14915500Y-5633426D01*
X14949500Y-5633426D01*
X14949500Y-5720500D01*
X15059594Y-5720500D01*
X15070172Y-5702443D01*
X15048726Y-5661332D01*
X15012634Y-5632219D01*
X14968148Y-5619134D01*
X14949500Y-5633426D01*
X14915500Y-5633426D01*
X14896852Y-5619134D01*
X14852366Y-5632219D01*
X14816274Y-5661332D01*
X14794828Y-5702443D01*
X12759670Y-5702443D01*
X12754956Y-5697720D01*
X12738790Y-5691008D01*
X12721286Y-5690992D01*
X12705109Y-5697677D01*
X12692720Y-5710043D01*
X12686008Y-5726209D01*
X12685992Y-5743714D01*
X10928000Y-5743714D01*
X10928000Y-5563714D01*
X11865992Y-5563714D01*
X11872677Y-5579891D01*
X11885043Y-5592280D01*
X11901209Y-5598992D01*
X11908744Y-5598999D01*
X11995999Y-5686254D01*
X11995992Y-5693714D01*
X12002677Y-5709891D01*
X12015043Y-5722280D01*
X12031209Y-5728992D01*
X12048714Y-5729008D01*
X12064891Y-5722323D01*
X12077280Y-5709956D01*
X12083992Y-5693790D01*
X12084008Y-5676286D01*
X12082746Y-5673233D01*
X14504821Y-5673233D01*
X14515478Y-5690500D01*
X14615500Y-5690500D01*
X14615500Y-5608775D01*
X14649500Y-5608775D01*
X14649500Y-5690500D01*
X14749522Y-5690500D01*
X14760179Y-5673233D01*
X14742338Y-5638521D01*
X14709102Y-5609392D01*
X14667249Y-5595200D01*
X14649500Y-5608775D01*
X14615500Y-5608775D01*
X14597751Y-5595200D01*
X14555898Y-5609392D01*
X14522662Y-5638521D01*
X14504821Y-5673233D01*
X12082746Y-5673233D01*
X12077323Y-5660109D01*
X12064956Y-5647720D01*
X12048790Y-5641008D01*
X12041256Y-5641001D01*
X11954001Y-5553746D01*
X11954008Y-5546286D01*
X11947323Y-5530109D01*
X11934956Y-5517720D01*
X11918790Y-5511008D01*
X11901286Y-5510992D01*
X11885109Y-5517677D01*
X11872720Y-5530044D01*
X11866008Y-5546210D01*
X11865992Y-5563714D01*
X10928000Y-5563714D01*
X10928000Y-5468714D01*
X12605992Y-5468714D01*
X12612677Y-5484891D01*
X12625043Y-5497280D01*
X12641209Y-5503992D01*
X12658714Y-5504008D01*
X12674891Y-5497323D01*
X12687280Y-5484957D01*
X12693992Y-5468791D01*
X12693999Y-5461256D01*
X12853255Y-5302000D01*
X14109773Y-5302000D01*
X14115043Y-5307280D01*
X14131209Y-5313992D01*
X14148714Y-5314008D01*
X14164891Y-5307323D01*
X14177280Y-5294957D01*
X14183992Y-5278791D01*
X14184008Y-5261286D01*
X14182140Y-5256767D01*
X14504821Y-5256767D01*
X14522662Y-5291479D01*
X14555898Y-5320608D01*
X14597751Y-5334800D01*
X14615500Y-5321225D01*
X14615500Y-5239500D01*
X14649500Y-5239500D01*
X14649500Y-5321225D01*
X14667249Y-5334800D01*
X14709102Y-5320608D01*
X14742338Y-5291479D01*
X14760179Y-5256767D01*
X14749522Y-5239500D01*
X14649500Y-5239500D01*
X14615500Y-5239500D01*
X14515478Y-5239500D01*
X14504821Y-5256767D01*
X14182140Y-5256767D01*
X14177323Y-5245109D01*
X14164956Y-5232720D01*
X14152523Y-5227557D01*
X14794828Y-5227557D01*
X14816274Y-5268668D01*
X14852366Y-5297781D01*
X14896852Y-5310866D01*
X14915500Y-5296574D01*
X14915500Y-5209500D01*
X14949500Y-5209500D01*
X14949500Y-5296574D01*
X14968148Y-5310866D01*
X15012634Y-5297781D01*
X15048726Y-5268668D01*
X15070172Y-5227557D01*
X15059594Y-5209500D01*
X14949500Y-5209500D01*
X14915500Y-5209500D01*
X14805406Y-5209500D01*
X14794828Y-5227557D01*
X14152523Y-5227557D01*
X14148790Y-5226008D01*
X14131286Y-5225992D01*
X14115109Y-5232677D01*
X14109776Y-5238000D01*
X12840000Y-5238000D01*
X12827754Y-5240436D01*
X12817373Y-5247373D01*
X12648746Y-5415999D01*
X12641286Y-5415992D01*
X12625109Y-5422677D01*
X12612720Y-5435044D01*
X12606008Y-5451210D01*
X12605992Y-5468714D01*
X10928000Y-5468714D01*
X10928000Y-5188233D01*
X14504821Y-5188233D01*
X14515478Y-5205500D01*
X14615500Y-5205500D01*
X14615500Y-5123775D01*
X14649500Y-5123775D01*
X14649500Y-5205500D01*
X14749522Y-5205500D01*
X14760179Y-5188233D01*
X14744353Y-5157443D01*
X14794828Y-5157443D01*
X14805406Y-5175500D01*
X14915500Y-5175500D01*
X14915500Y-5088426D01*
X14949500Y-5088426D01*
X14949500Y-5175500D01*
X15059594Y-5175500D01*
X15070172Y-5157443D01*
X15048726Y-5116332D01*
X15012634Y-5087219D01*
X14968148Y-5074134D01*
X14949500Y-5088426D01*
X14915500Y-5088426D01*
X14896852Y-5074134D01*
X14852366Y-5087219D01*
X14816274Y-5116332D01*
X14794828Y-5157443D01*
X14744353Y-5157443D01*
X14742338Y-5153521D01*
X14709102Y-5124392D01*
X14667249Y-5110200D01*
X14649500Y-5123775D01*
X14615500Y-5123775D01*
X14597751Y-5110200D01*
X14555898Y-5124392D01*
X14522662Y-5153521D01*
X14504821Y-5188233D01*
X10928000Y-5188233D01*
X10928000Y-5020000D01*
X10927453Y-5017092D01*
X10925735Y-5014422D01*
X10923112Y-5012630D01*
X10920000Y-5012000D01*
X10291500Y-5012000D01*
X10291500Y-4780000D01*
X10291003Y-4777500D01*
X10291500Y-4775000D01*
X10291500Y-4764361D01*
X10465961Y-4764361D01*
X10499991Y-4846720D01*
X10562949Y-4909787D01*
X10645248Y-4943961D01*
X10734361Y-4944039D01*
X10816720Y-4910009D01*
X10879787Y-4847052D01*
X10913961Y-4764752D01*
X10914039Y-4675639D01*
X10909379Y-4664361D01*
X14615961Y-4664361D01*
X14649991Y-4746720D01*
X14712948Y-4809787D01*
X14795248Y-4843961D01*
X14884361Y-4844039D01*
X14966720Y-4810009D01*
X15029787Y-4747052D01*
X15063961Y-4664752D01*
X15064039Y-4575639D01*
X15030009Y-4493280D01*
X14967051Y-4430213D01*
X14884752Y-4396039D01*
X14795639Y-4395961D01*
X14713280Y-4429991D01*
X14650213Y-4492949D01*
X14616039Y-4575248D01*
X14615961Y-4664361D01*
X10909379Y-4664361D01*
X10880009Y-4593280D01*
X10817052Y-4530213D01*
X10734752Y-4496039D01*
X10645639Y-4495961D01*
X10563280Y-4529991D01*
X10500213Y-4592949D01*
X10466039Y-4675248D01*
X10465961Y-4764361D01*
X10291500Y-4764361D01*
X10291500Y-3132610D01*
X10297681Y-3101537D01*
X10475977Y-3101537D01*
X10496334Y-3150806D01*
X10533996Y-3188533D01*
X10583229Y-3208977D01*
X10636537Y-3209023D01*
X10685806Y-3188666D01*
X10723533Y-3151004D01*
X10741998Y-3106537D01*
X14780977Y-3106537D01*
X14801334Y-3155806D01*
X14838996Y-3193533D01*
X14888229Y-3213977D01*
X14941537Y-3214023D01*
X14990806Y-3193666D01*
X15028533Y-3156004D01*
X15048977Y-3106771D01*
X15049023Y-3053463D01*
X15028666Y-3004194D01*
X14991004Y-2966467D01*
X14941771Y-2946023D01*
X14888463Y-2945977D01*
X14839194Y-2966334D01*
X14801467Y-3003996D01*
X14781023Y-3053229D01*
X14780977Y-3106537D01*
X10741998Y-3106537D01*
X10743977Y-3101771D01*
X10744023Y-3048463D01*
X10723666Y-2999194D01*
X10686004Y-2961467D01*
X10636771Y-2941023D01*
X10583463Y-2940977D01*
X10534194Y-2961334D01*
X10496467Y-2998996D01*
X10476023Y-3048229D01*
X10475977Y-3101537D01*
X10297681Y-3101537D01*
X10320411Y-2987266D01*
X10401263Y-2866263D01*
X10522267Y-2785411D01*
X10667610Y-2756500D01*
X14862390Y-2756500D01*
X15007734Y-2785411D01*
X15007734Y-2785411D01*
G37*
X15007734Y-2785411D02*
X15128737Y-2866263D01*
X15209589Y-2987266D01*
X15238500Y-3132610D01*
X15238500Y-6027390D01*
X15209589Y-6172733D01*
X15128737Y-6293737D01*
X15007734Y-6374589D01*
X14862390Y-6403500D01*
X12520532Y-6403500D01*
X12552868Y-6387980D01*
X12591579Y-6347114D01*
X12611705Y-6294545D01*
X12599257Y-6272000D01*
X12613140Y-6272000D01*
X12613140Y-6272701D01*
X12621541Y-6314933D01*
X12645464Y-6350737D01*
X12681267Y-6374660D01*
X12723500Y-6383061D01*
X12765733Y-6374660D01*
X12801536Y-6350737D01*
X12825459Y-6314933D01*
X12833860Y-6272701D01*
X12833860Y-6237299D01*
X12825459Y-6195066D01*
X12801536Y-6159263D01*
X12789918Y-6151500D01*
X12860000Y-6151500D01*
X12867351Y-6150038D01*
X12866670Y-6153400D01*
X12866670Y-6356600D01*
X12868343Y-6365494D01*
X12873600Y-6373662D01*
X12881620Y-6379142D01*
X12891140Y-6381070D01*
X13063860Y-6381070D01*
X13072754Y-6379397D01*
X13080922Y-6374140D01*
X13086402Y-6366120D01*
X13088330Y-6356600D01*
X13088330Y-6153400D01*
X13086657Y-6144506D01*
X13081400Y-6136338D01*
X13073380Y-6130858D01*
X13063860Y-6128930D01*
X12897689Y-6128930D01*
X12965000Y-6061619D01*
X12966002Y-6062621D01*
X12965991Y-6074704D01*
X12973436Y-6092720D01*
X12987207Y-6106516D01*
X13005210Y-6113991D01*
X13024704Y-6114008D01*
X13042720Y-6106564D01*
X13056516Y-6092792D01*
X13062382Y-6078665D01*
X13615988Y-6078665D01*
X13626470Y-6104034D01*
X13645864Y-6123461D01*
X13671215Y-6133988D01*
X13698665Y-6134012D01*
X13724034Y-6123529D01*
X13743461Y-6104136D01*
X13753988Y-6078785D01*
X13753988Y-6078665D01*
X14295988Y-6078665D01*
X14306470Y-6104034D01*
X14325864Y-6123461D01*
X14351215Y-6133988D01*
X14378665Y-6134012D01*
X14404034Y-6123529D01*
X14423461Y-6104136D01*
X14424540Y-6101537D01*
X14775977Y-6101537D01*
X14796334Y-6150806D01*
X14833996Y-6188533D01*
X14883229Y-6208977D01*
X14936537Y-6209023D01*
X14985806Y-6188666D01*
X15023533Y-6151004D01*
X15043977Y-6101771D01*
X15044023Y-6048463D01*
X15023666Y-5999194D01*
X14986004Y-5961467D01*
X14936771Y-5941023D01*
X14883463Y-5940977D01*
X14834194Y-5961334D01*
X14796467Y-5998996D01*
X14776023Y-6048229D01*
X14775977Y-6101537D01*
X14424540Y-6101537D01*
X14433988Y-6078785D01*
X14434012Y-6051335D01*
X14423529Y-6025966D01*
X14404136Y-6006539D01*
X14378785Y-5996012D01*
X14351335Y-5995988D01*
X14325966Y-6006470D01*
X14306539Y-6025864D01*
X14296012Y-6051215D01*
X14295988Y-6078665D01*
X13753988Y-6078665D01*
X13754012Y-6051335D01*
X13743529Y-6025966D01*
X13724136Y-6006539D01*
X13698785Y-5996012D01*
X13671335Y-5995988D01*
X13645966Y-6006470D01*
X13626539Y-6025864D01*
X13616012Y-6051215D01*
X13615988Y-6078665D01*
X13062382Y-6078665D01*
X13063991Y-6074789D01*
X13064008Y-6055296D01*
X13056564Y-6037280D01*
X13042792Y-6023484D01*
X13024789Y-6016008D01*
X13022625Y-6016007D01*
X13016619Y-6010000D01*
X13027616Y-5999002D01*
X13034704Y-5999008D01*
X13052720Y-5991564D01*
X13066516Y-5977792D01*
X13073991Y-5959789D01*
X13074008Y-5940296D01*
X13066564Y-5922280D01*
X13052792Y-5908484D01*
X13034789Y-5901008D01*
X13015296Y-5900991D01*
X12997280Y-5908436D01*
X12983484Y-5922207D01*
X12976008Y-5940210D01*
X12976002Y-5947379D01*
X12844881Y-6078500D01*
X12546500Y-6078500D01*
X12546500Y-6077800D01*
X12551516Y-6072792D01*
X12558991Y-6054789D01*
X12559008Y-6035296D01*
X12551564Y-6017280D01*
X12537792Y-6003484D01*
X12519789Y-5996008D01*
X12500296Y-5995991D01*
X12482280Y-6003436D01*
X12468484Y-6017207D01*
X12461008Y-6035210D01*
X12460991Y-6054704D01*
X12468436Y-6072720D01*
X12473500Y-6077793D01*
X12473500Y-6078500D01*
X11885000Y-6078500D01*
X11871032Y-6081278D01*
X11859191Y-6089191D01*
X11839881Y-6108500D01*
X11632800Y-6108500D01*
X11627792Y-6103484D01*
X11609789Y-6096008D01*
X11590296Y-6095991D01*
X11572280Y-6103436D01*
X11558484Y-6117207D01*
X11551008Y-6135210D01*
X11550991Y-6154704D01*
X11558436Y-6172720D01*
X11572207Y-6186516D01*
X11590210Y-6193991D01*
X11609704Y-6194008D01*
X11627720Y-6186564D01*
X11632793Y-6181500D01*
X11855000Y-6181500D01*
X11868968Y-6178722D01*
X11871667Y-6176918D01*
X11859541Y-6195066D01*
X11851140Y-6237299D01*
X11851140Y-6272701D01*
X11859541Y-6314933D01*
X11883464Y-6350737D01*
X11919267Y-6374660D01*
X11961500Y-6383061D01*
X12003733Y-6374660D01*
X12039536Y-6350737D01*
X12063459Y-6314933D01*
X12071860Y-6272701D01*
X12071860Y-6237299D01*
X12063459Y-6195066D01*
X12039536Y-6159263D01*
X12027918Y-6151500D01*
X12149082Y-6151500D01*
X12137464Y-6159263D01*
X12113541Y-6195066D01*
X12105140Y-6237299D01*
X12105140Y-6272701D01*
X12113541Y-6314933D01*
X12137464Y-6350737D01*
X12173267Y-6374660D01*
X12215500Y-6383061D01*
X12257733Y-6374660D01*
X12293536Y-6350737D01*
X12317459Y-6314933D01*
X12325860Y-6272701D01*
X12325860Y-6272000D01*
X12339743Y-6272000D01*
X12327295Y-6294545D01*
X12347421Y-6347114D01*
X12386132Y-6387980D01*
X12418467Y-6403500D01*
X10667610Y-6403500D01*
X10522267Y-6374589D01*
X10401263Y-6293737D01*
X10320411Y-6172734D01*
X10291621Y-6028000D01*
X10484423Y-6028000D01*
X10476023Y-6048229D01*
X10475977Y-6101537D01*
X10496334Y-6150806D01*
X10533996Y-6188533D01*
X10583229Y-6208977D01*
X10636537Y-6209023D01*
X10685806Y-6188666D01*
X10723533Y-6151004D01*
X10743977Y-6101771D01*
X10744023Y-6048463D01*
X10735568Y-6028000D01*
X10920000Y-6028000D01*
X10922908Y-6027453D01*
X10925578Y-6025734D01*
X10927370Y-6023112D01*
X10928000Y-6020000D01*
X10928000Y-5743714D01*
X12685992Y-5743714D01*
X12692677Y-5759891D01*
X12705043Y-5772280D01*
X12721209Y-5778992D01*
X12728744Y-5778999D01*
X12793000Y-5843255D01*
X12793000Y-5869773D01*
X12787720Y-5875043D01*
X12781008Y-5891209D01*
X12780992Y-5908714D01*
X12787677Y-5924891D01*
X12800043Y-5937280D01*
X12816209Y-5943992D01*
X12833714Y-5944008D01*
X12849891Y-5937323D01*
X12862280Y-5924956D01*
X12868992Y-5908790D01*
X12869008Y-5891286D01*
X12862323Y-5875109D01*
X12857000Y-5869776D01*
X12857000Y-5830000D01*
X12854564Y-5817754D01*
X12847627Y-5807373D01*
X12782021Y-5741767D01*
X14504821Y-5741767D01*
X14522662Y-5776479D01*
X14555898Y-5805608D01*
X14597751Y-5819800D01*
X14615500Y-5806225D01*
X14615500Y-5724500D01*
X14649500Y-5724500D01*
X14649500Y-5806225D01*
X14667249Y-5819800D01*
X14709102Y-5805608D01*
X14742338Y-5776479D01*
X14744353Y-5772557D01*
X14794828Y-5772557D01*
X14816274Y-5813668D01*
X14852366Y-5842781D01*
X14896852Y-5855866D01*
X14915500Y-5841574D01*
X14915500Y-5754500D01*
X14949500Y-5754500D01*
X14949500Y-5841574D01*
X14968148Y-5855866D01*
X15012634Y-5842781D01*
X15048726Y-5813668D01*
X15070172Y-5772557D01*
X15059594Y-5754500D01*
X14949500Y-5754500D01*
X14915500Y-5754500D01*
X14805406Y-5754500D01*
X14794828Y-5772557D01*
X14744353Y-5772557D01*
X14760179Y-5741767D01*
X14749522Y-5724500D01*
X14649500Y-5724500D01*
X14615500Y-5724500D01*
X14515478Y-5724500D01*
X14504821Y-5741767D01*
X12782021Y-5741767D01*
X12774001Y-5733746D01*
X12774008Y-5726286D01*
X12767323Y-5710109D01*
X12759670Y-5702443D01*
X14794828Y-5702443D01*
X14805406Y-5720500D01*
X14915500Y-5720500D01*
X14915500Y-5633426D01*
X14949500Y-5633426D01*
X14949500Y-5720500D01*
X15059594Y-5720500D01*
X15070172Y-5702443D01*
X15048726Y-5661332D01*
X15012634Y-5632219D01*
X14968148Y-5619134D01*
X14949500Y-5633426D01*
X14915500Y-5633426D01*
X14896852Y-5619134D01*
X14852366Y-5632219D01*
X14816274Y-5661332D01*
X14794828Y-5702443D01*
X12759670Y-5702443D01*
X12754956Y-5697720D01*
X12738790Y-5691008D01*
X12721286Y-5690992D01*
X12705109Y-5697677D01*
X12692720Y-5710043D01*
X12686008Y-5726209D01*
X12685992Y-5743714D01*
X10928000Y-5743714D01*
X10928000Y-5563714D01*
X11865992Y-5563714D01*
X11872677Y-5579891D01*
X11885043Y-5592280D01*
X11901209Y-5598992D01*
X11908744Y-5598999D01*
X11995999Y-5686254D01*
X11995992Y-5693714D01*
X12002677Y-5709891D01*
X12015043Y-5722280D01*
X12031209Y-5728992D01*
X12048714Y-5729008D01*
X12064891Y-5722323D01*
X12077280Y-5709956D01*
X12083992Y-5693790D01*
X12084008Y-5676286D01*
X12082746Y-5673233D01*
X14504821Y-5673233D01*
X14515478Y-5690500D01*
X14615500Y-5690500D01*
X14615500Y-5608775D01*
X14649500Y-5608775D01*
X14649500Y-5690500D01*
X14749522Y-5690500D01*
X14760179Y-5673233D01*
X14742338Y-5638521D01*
X14709102Y-5609392D01*
X14667249Y-5595200D01*
X14649500Y-5608775D01*
X14615500Y-5608775D01*
X14597751Y-5595200D01*
X14555898Y-5609392D01*
X14522662Y-5638521D01*
X14504821Y-5673233D01*
X12082746Y-5673233D01*
X12077323Y-5660109D01*
X12064956Y-5647720D01*
X12048790Y-5641008D01*
X12041256Y-5641001D01*
X11954001Y-5553746D01*
X11954008Y-5546286D01*
X11947323Y-5530109D01*
X11934956Y-5517720D01*
X11918790Y-5511008D01*
X11901286Y-5510992D01*
X11885109Y-5517677D01*
X11872720Y-5530044D01*
X11866008Y-5546210D01*
X11865992Y-5563714D01*
X10928000Y-5563714D01*
X10928000Y-5468714D01*
X12605992Y-5468714D01*
X12612677Y-5484891D01*
X12625043Y-5497280D01*
X12641209Y-5503992D01*
X12658714Y-5504008D01*
X12674891Y-5497323D01*
X12687280Y-5484957D01*
X12693992Y-5468791D01*
X12693999Y-5461256D01*
X12853255Y-5302000D01*
X14109773Y-5302000D01*
X14115043Y-5307280D01*
X14131209Y-5313992D01*
X14148714Y-5314008D01*
X14164891Y-5307323D01*
X14177280Y-5294957D01*
X14183992Y-5278791D01*
X14184008Y-5261286D01*
X14182140Y-5256767D01*
X14504821Y-5256767D01*
X14522662Y-5291479D01*
X14555898Y-5320608D01*
X14597751Y-5334800D01*
X14615500Y-5321225D01*
X14615500Y-5239500D01*
X14649500Y-5239500D01*
X14649500Y-5321225D01*
X14667249Y-5334800D01*
X14709102Y-5320608D01*
X14742338Y-5291479D01*
X14760179Y-5256767D01*
X14749522Y-5239500D01*
X14649500Y-5239500D01*
X14615500Y-5239500D01*
X14515478Y-5239500D01*
X14504821Y-5256767D01*
X14182140Y-5256767D01*
X14177323Y-5245109D01*
X14164956Y-5232720D01*
X14152523Y-5227557D01*
X14794828Y-5227557D01*
X14816274Y-5268668D01*
X14852366Y-5297781D01*
X14896852Y-5310866D01*
X14915500Y-5296574D01*
X14915500Y-5209500D01*
X14949500Y-5209500D01*
X14949500Y-5296574D01*
X14968148Y-5310866D01*
X15012634Y-5297781D01*
X15048726Y-5268668D01*
X15070172Y-5227557D01*
X15059594Y-5209500D01*
X14949500Y-5209500D01*
X14915500Y-5209500D01*
X14805406Y-5209500D01*
X14794828Y-5227557D01*
X14152523Y-5227557D01*
X14148790Y-5226008D01*
X14131286Y-5225992D01*
X14115109Y-5232677D01*
X14109776Y-5238000D01*
X12840000Y-5238000D01*
X12827754Y-5240436D01*
X12817373Y-5247373D01*
X12648746Y-5415999D01*
X12641286Y-5415992D01*
X12625109Y-5422677D01*
X12612720Y-5435044D01*
X12606008Y-5451210D01*
X12605992Y-5468714D01*
X10928000Y-5468714D01*
X10928000Y-5188233D01*
X14504821Y-5188233D01*
X14515478Y-5205500D01*
X14615500Y-5205500D01*
X14615500Y-5123775D01*
X14649500Y-5123775D01*
X14649500Y-5205500D01*
X14749522Y-5205500D01*
X14760179Y-5188233D01*
X14744353Y-5157443D01*
X14794828Y-5157443D01*
X14805406Y-5175500D01*
X14915500Y-5175500D01*
X14915500Y-5088426D01*
X14949500Y-5088426D01*
X14949500Y-5175500D01*
X15059594Y-5175500D01*
X15070172Y-5157443D01*
X15048726Y-5116332D01*
X15012634Y-5087219D01*
X14968148Y-5074134D01*
X14949500Y-5088426D01*
X14915500Y-5088426D01*
X14896852Y-5074134D01*
X14852366Y-5087219D01*
X14816274Y-5116332D01*
X14794828Y-5157443D01*
X14744353Y-5157443D01*
X14742338Y-5153521D01*
X14709102Y-5124392D01*
X14667249Y-5110200D01*
X14649500Y-5123775D01*
X14615500Y-5123775D01*
X14597751Y-5110200D01*
X14555898Y-5124392D01*
X14522662Y-5153521D01*
X14504821Y-5188233D01*
X10928000Y-5188233D01*
X10928000Y-5020000D01*
X10927453Y-5017092D01*
X10925735Y-5014422D01*
X10923112Y-5012630D01*
X10920000Y-5012000D01*
X10291500Y-5012000D01*
X10291500Y-4780000D01*
X10291003Y-4777500D01*
X10291500Y-4775000D01*
X10291500Y-4764361D01*
X10465961Y-4764361D01*
X10499991Y-4846720D01*
X10562949Y-4909787D01*
X10645248Y-4943961D01*
X10734361Y-4944039D01*
X10816720Y-4910009D01*
X10879787Y-4847052D01*
X10913961Y-4764752D01*
X10914039Y-4675639D01*
X10909379Y-4664361D01*
X14615961Y-4664361D01*
X14649991Y-4746720D01*
X14712948Y-4809787D01*
X14795248Y-4843961D01*
X14884361Y-4844039D01*
X14966720Y-4810009D01*
X15029787Y-4747052D01*
X15063961Y-4664752D01*
X15064039Y-4575639D01*
X15030009Y-4493280D01*
X14967051Y-4430213D01*
X14884752Y-4396039D01*
X14795639Y-4395961D01*
X14713280Y-4429991D01*
X14650213Y-4492949D01*
X14616039Y-4575248D01*
X14615961Y-4664361D01*
X10909379Y-4664361D01*
X10880009Y-4593280D01*
X10817052Y-4530213D01*
X10734752Y-4496039D01*
X10645639Y-4495961D01*
X10563280Y-4529991D01*
X10500213Y-4592949D01*
X10466039Y-4675248D01*
X10465961Y-4764361D01*
X10291500Y-4764361D01*
X10291500Y-3132610D01*
X10297681Y-3101537D01*
X10475977Y-3101537D01*
X10496334Y-3150806D01*
X10533996Y-3188533D01*
X10583229Y-3208977D01*
X10636537Y-3209023D01*
X10685806Y-3188666D01*
X10723533Y-3151004D01*
X10741998Y-3106537D01*
X14780977Y-3106537D01*
X14801334Y-3155806D01*
X14838996Y-3193533D01*
X14888229Y-3213977D01*
X14941537Y-3214023D01*
X14990806Y-3193666D01*
X15028533Y-3156004D01*
X15048977Y-3106771D01*
X15049023Y-3053463D01*
X15028666Y-3004194D01*
X14991004Y-2966467D01*
X14941771Y-2946023D01*
X14888463Y-2945977D01*
X14839194Y-2966334D01*
X14801467Y-3003996D01*
X14781023Y-3053229D01*
X14780977Y-3106537D01*
X10741998Y-3106537D01*
X10743977Y-3101771D01*
X10744023Y-3048463D01*
X10723666Y-2999194D01*
X10686004Y-2961467D01*
X10636771Y-2941023D01*
X10583463Y-2940977D01*
X10534194Y-2961334D01*
X10496467Y-2998996D01*
X10476023Y-3048229D01*
X10475977Y-3101537D01*
X10297681Y-3101537D01*
X10320411Y-2987266D01*
X10401263Y-2866263D01*
X10522267Y-2785411D01*
X10667610Y-2756500D01*
X14862390Y-2756500D01*
X15007734Y-2785411D01*
G36*
X12486500Y-6238000D02*
X12488500Y-6238000D01*
X12488500Y-6272000D01*
X12486500Y-6272000D01*
X12486500Y-6274000D01*
X12452500Y-6274000D01*
X12452500Y-6272000D01*
X12450500Y-6272000D01*
X12450500Y-6238000D01*
X12452500Y-6238000D01*
X12452500Y-6236000D01*
X12486500Y-6236000D01*
X12486500Y-6238000D01*
X12486500Y-6238000D01*
G37*
X12486500Y-6238000D02*
X12488500Y-6238000D01*
X12488500Y-6272000D01*
X12486500Y-6272000D01*
X12486500Y-6274000D01*
X12452500Y-6274000D01*
X12452500Y-6272000D01*
X12450500Y-6272000D01*
X12450500Y-6238000D01*
X12452500Y-6238000D01*
X12452500Y-6236000D01*
X12486500Y-6236000D01*
X12486500Y-6238000D01*
G36*
X9807734Y-9085411D02*
X9928737Y-9166263D01*
X10009589Y-9287267D01*
X10038500Y-9432610D01*
X10038500Y-12327390D01*
X10009589Y-12472733D01*
X9928737Y-12593737D01*
X9807734Y-12674589D01*
X9662390Y-12703500D01*
X7320532Y-12703500D01*
X7352868Y-12687980D01*
X7391579Y-12647114D01*
X7411705Y-12594545D01*
X7399257Y-12572000D01*
X7413140Y-12572000D01*
X7413140Y-12572701D01*
X7421541Y-12614933D01*
X7445464Y-12650737D01*
X7481267Y-12674660D01*
X7523500Y-12683061D01*
X7565733Y-12674660D01*
X7601536Y-12650737D01*
X7625459Y-12614933D01*
X7633860Y-12572701D01*
X7633860Y-12537299D01*
X7625459Y-12495066D01*
X7601536Y-12459263D01*
X7589918Y-12451500D01*
X7660000Y-12451500D01*
X7667351Y-12450038D01*
X7666670Y-12453400D01*
X7666670Y-12656600D01*
X7668343Y-12665494D01*
X7673600Y-12673662D01*
X7681620Y-12679142D01*
X7691140Y-12681070D01*
X7863860Y-12681070D01*
X7872754Y-12679397D01*
X7880922Y-12674140D01*
X7886402Y-12666120D01*
X7888330Y-12656600D01*
X7888330Y-12453400D01*
X7886657Y-12444506D01*
X7881400Y-12436338D01*
X7873380Y-12430858D01*
X7863860Y-12428930D01*
X7697689Y-12428930D01*
X7765000Y-12361619D01*
X7766002Y-12362621D01*
X7765991Y-12374704D01*
X7773436Y-12392720D01*
X7787207Y-12406516D01*
X7805210Y-12413991D01*
X7824704Y-12414008D01*
X7842720Y-12406564D01*
X7856516Y-12392792D01*
X7862382Y-12378665D01*
X8415988Y-12378665D01*
X8426471Y-12404034D01*
X8445864Y-12423461D01*
X8471215Y-12433988D01*
X8498665Y-12434012D01*
X8524034Y-12423529D01*
X8543461Y-12404136D01*
X8553988Y-12378785D01*
X8553988Y-12378665D01*
X9095988Y-12378665D01*
X9106471Y-12404034D01*
X9125864Y-12423461D01*
X9151215Y-12433988D01*
X9178665Y-12434012D01*
X9204034Y-12423529D01*
X9223461Y-12404136D01*
X9224541Y-12401537D01*
X9575977Y-12401537D01*
X9596334Y-12450806D01*
X9633996Y-12488533D01*
X9683229Y-12508977D01*
X9736537Y-12509023D01*
X9785806Y-12488666D01*
X9823533Y-12451004D01*
X9843977Y-12401771D01*
X9844023Y-12348463D01*
X9823666Y-12299194D01*
X9786004Y-12261467D01*
X9736771Y-12241023D01*
X9683463Y-12240977D01*
X9634194Y-12261334D01*
X9596467Y-12298996D01*
X9576023Y-12348229D01*
X9575977Y-12401537D01*
X9224541Y-12401537D01*
X9233988Y-12378785D01*
X9234012Y-12351335D01*
X9223530Y-12325966D01*
X9204136Y-12306539D01*
X9178785Y-12296012D01*
X9151335Y-12295988D01*
X9125966Y-12306470D01*
X9106539Y-12325864D01*
X9096012Y-12351215D01*
X9095988Y-12378665D01*
X8553988Y-12378665D01*
X8554012Y-12351335D01*
X8543530Y-12325966D01*
X8524136Y-12306539D01*
X8498785Y-12296012D01*
X8471335Y-12295988D01*
X8445966Y-12306470D01*
X8426539Y-12325864D01*
X8416012Y-12351215D01*
X8415988Y-12378665D01*
X7862382Y-12378665D01*
X7863991Y-12374789D01*
X7864008Y-12355296D01*
X7856564Y-12337280D01*
X7842792Y-12323484D01*
X7824789Y-12316008D01*
X7822625Y-12316007D01*
X7816619Y-12310000D01*
X7827616Y-12299002D01*
X7834704Y-12299008D01*
X7852720Y-12291564D01*
X7866516Y-12277792D01*
X7873991Y-12259789D01*
X7874008Y-12240296D01*
X7866564Y-12222280D01*
X7852792Y-12208484D01*
X7834789Y-12201008D01*
X7815296Y-12200991D01*
X7797280Y-12208436D01*
X7783484Y-12222207D01*
X7776008Y-12240210D01*
X7776002Y-12247379D01*
X7644881Y-12378500D01*
X7346500Y-12378500D01*
X7346500Y-12377800D01*
X7351516Y-12372792D01*
X7358991Y-12354789D01*
X7359008Y-12335296D01*
X7351564Y-12317280D01*
X7337792Y-12303484D01*
X7319789Y-12296008D01*
X7300296Y-12295991D01*
X7282280Y-12303436D01*
X7268484Y-12317207D01*
X7261008Y-12335210D01*
X7260991Y-12354704D01*
X7268436Y-12372720D01*
X7273500Y-12377793D01*
X7273500Y-12378500D01*
X6685000Y-12378500D01*
X6671032Y-12381278D01*
X6659191Y-12389191D01*
X6639881Y-12408500D01*
X6432800Y-12408500D01*
X6427792Y-12403484D01*
X6409789Y-12396008D01*
X6390296Y-12395991D01*
X6372280Y-12403436D01*
X6358484Y-12417207D01*
X6351008Y-12435210D01*
X6350991Y-12454704D01*
X6358436Y-12472720D01*
X6372207Y-12486516D01*
X6390210Y-12493991D01*
X6409704Y-12494008D01*
X6427720Y-12486564D01*
X6432793Y-12481500D01*
X6655000Y-12481500D01*
X6668968Y-12478722D01*
X6671667Y-12476918D01*
X6659541Y-12495066D01*
X6651140Y-12537299D01*
X6651140Y-12572701D01*
X6659541Y-12614933D01*
X6683464Y-12650737D01*
X6719267Y-12674660D01*
X6761500Y-12683061D01*
X6803733Y-12674660D01*
X6839536Y-12650737D01*
X6863459Y-12614933D01*
X6871860Y-12572701D01*
X6871860Y-12537299D01*
X6863459Y-12495066D01*
X6839536Y-12459263D01*
X6827918Y-12451500D01*
X6949082Y-12451500D01*
X6937464Y-12459263D01*
X6913541Y-12495066D01*
X6905140Y-12537299D01*
X6905140Y-12572701D01*
X6913541Y-12614933D01*
X6937464Y-12650737D01*
X6973267Y-12674660D01*
X7015500Y-12683061D01*
X7057733Y-12674660D01*
X7093536Y-12650737D01*
X7117459Y-12614933D01*
X7125860Y-12572701D01*
X7125860Y-12572000D01*
X7139743Y-12572000D01*
X7127295Y-12594545D01*
X7147421Y-12647114D01*
X7186132Y-12687980D01*
X7218467Y-12703500D01*
X5470000Y-12703500D01*
X5468805Y-12703738D01*
X5322267Y-12674589D01*
X5201263Y-12593737D01*
X5120411Y-12472734D01*
X5091621Y-12328000D01*
X5284423Y-12328000D01*
X5276023Y-12348229D01*
X5275977Y-12401537D01*
X5296334Y-12450806D01*
X5333996Y-12488533D01*
X5383229Y-12508977D01*
X5436537Y-12509023D01*
X5485806Y-12488666D01*
X5523533Y-12451004D01*
X5543977Y-12401771D01*
X5544023Y-12348463D01*
X5535568Y-12328000D01*
X5720000Y-12328000D01*
X5722908Y-12327453D01*
X5725578Y-12325734D01*
X5727370Y-12323112D01*
X5728000Y-12320000D01*
X5728000Y-12043714D01*
X7485992Y-12043714D01*
X7492677Y-12059891D01*
X7505043Y-12072280D01*
X7521209Y-12078992D01*
X7528744Y-12078999D01*
X7593000Y-12143255D01*
X7593000Y-12169773D01*
X7587720Y-12175043D01*
X7581008Y-12191209D01*
X7580992Y-12208714D01*
X7587677Y-12224891D01*
X7600043Y-12237280D01*
X7616209Y-12243992D01*
X7633714Y-12244008D01*
X7649891Y-12237323D01*
X7662280Y-12224956D01*
X7668992Y-12208790D01*
X7669008Y-12191286D01*
X7662323Y-12175109D01*
X7657000Y-12169776D01*
X7657000Y-12130000D01*
X7654564Y-12117754D01*
X7647627Y-12107373D01*
X7582021Y-12041767D01*
X9304821Y-12041767D01*
X9322662Y-12076479D01*
X9355898Y-12105608D01*
X9397751Y-12119800D01*
X9415500Y-12106225D01*
X9415500Y-12024500D01*
X9449500Y-12024500D01*
X9449500Y-12106225D01*
X9467249Y-12119800D01*
X9509102Y-12105608D01*
X9542338Y-12076479D01*
X9544353Y-12072557D01*
X9594828Y-12072557D01*
X9616274Y-12113668D01*
X9652366Y-12142781D01*
X9696852Y-12155866D01*
X9715500Y-12141574D01*
X9715500Y-12054500D01*
X9749500Y-12054500D01*
X9749500Y-12141574D01*
X9768148Y-12155866D01*
X9812634Y-12142781D01*
X9848726Y-12113668D01*
X9870172Y-12072557D01*
X9859594Y-12054500D01*
X9749500Y-12054500D01*
X9715500Y-12054500D01*
X9605406Y-12054500D01*
X9594828Y-12072557D01*
X9544353Y-12072557D01*
X9560179Y-12041767D01*
X9549522Y-12024500D01*
X9449500Y-12024500D01*
X9415500Y-12024500D01*
X9315478Y-12024500D01*
X9304821Y-12041767D01*
X7582021Y-12041767D01*
X7574001Y-12033746D01*
X7574008Y-12026286D01*
X7567323Y-12010109D01*
X7559670Y-12002443D01*
X9594828Y-12002443D01*
X9605406Y-12020500D01*
X9715500Y-12020500D01*
X9715500Y-11933426D01*
X9749500Y-11933426D01*
X9749500Y-12020500D01*
X9859594Y-12020500D01*
X9870172Y-12002443D01*
X9848726Y-11961332D01*
X9812634Y-11932219D01*
X9768148Y-11919134D01*
X9749500Y-11933426D01*
X9715500Y-11933426D01*
X9696852Y-11919134D01*
X9652366Y-11932219D01*
X9616274Y-11961332D01*
X9594828Y-12002443D01*
X7559670Y-12002443D01*
X7554956Y-11997720D01*
X7538790Y-11991008D01*
X7521286Y-11990992D01*
X7505109Y-11997677D01*
X7492720Y-12010043D01*
X7486008Y-12026209D01*
X7485992Y-12043714D01*
X5728000Y-12043714D01*
X5728000Y-11863714D01*
X6665992Y-11863714D01*
X6672677Y-11879891D01*
X6685043Y-11892280D01*
X6701209Y-11898992D01*
X6708744Y-11898999D01*
X6795999Y-11986254D01*
X6795992Y-11993714D01*
X6802677Y-12009891D01*
X6815043Y-12022280D01*
X6831209Y-12028992D01*
X6848714Y-12029008D01*
X6864891Y-12022323D01*
X6877280Y-12009956D01*
X6883992Y-11993790D01*
X6884008Y-11976286D01*
X6882746Y-11973233D01*
X9304821Y-11973233D01*
X9315478Y-11990500D01*
X9415500Y-11990500D01*
X9415500Y-11908775D01*
X9449500Y-11908775D01*
X9449500Y-11990500D01*
X9549522Y-11990500D01*
X9560179Y-11973233D01*
X9542338Y-11938521D01*
X9509102Y-11909392D01*
X9467249Y-11895200D01*
X9449500Y-11908775D01*
X9415500Y-11908775D01*
X9397751Y-11895200D01*
X9355898Y-11909392D01*
X9322662Y-11938521D01*
X9304821Y-11973233D01*
X6882746Y-11973233D01*
X6877323Y-11960109D01*
X6864956Y-11947720D01*
X6848790Y-11941008D01*
X6841256Y-11941001D01*
X6754001Y-11853746D01*
X6754008Y-11846286D01*
X6747323Y-11830109D01*
X6734956Y-11817720D01*
X6718790Y-11811008D01*
X6701286Y-11810992D01*
X6685109Y-11817677D01*
X6672720Y-11830043D01*
X6666008Y-11846209D01*
X6665992Y-11863714D01*
X5728000Y-11863714D01*
X5728000Y-11768714D01*
X7405992Y-11768714D01*
X7412677Y-11784891D01*
X7425043Y-11797280D01*
X7441209Y-11803992D01*
X7458714Y-11804008D01*
X7474891Y-11797323D01*
X7487280Y-11784956D01*
X7493992Y-11768790D01*
X7493999Y-11761256D01*
X7653255Y-11602000D01*
X8909773Y-11602000D01*
X8915044Y-11607280D01*
X8931210Y-11613992D01*
X8948714Y-11614008D01*
X8964891Y-11607323D01*
X8977280Y-11594956D01*
X8983992Y-11578790D01*
X8984008Y-11561286D01*
X8982140Y-11556767D01*
X9304821Y-11556767D01*
X9322662Y-11591479D01*
X9355898Y-11620608D01*
X9397751Y-11634800D01*
X9415500Y-11621225D01*
X9415500Y-11539500D01*
X9449500Y-11539500D01*
X9449500Y-11621225D01*
X9467249Y-11634800D01*
X9509102Y-11620608D01*
X9542338Y-11591479D01*
X9560179Y-11556767D01*
X9549522Y-11539500D01*
X9449500Y-11539500D01*
X9415500Y-11539500D01*
X9315478Y-11539500D01*
X9304821Y-11556767D01*
X8982140Y-11556767D01*
X8977323Y-11545109D01*
X8964957Y-11532720D01*
X8952523Y-11527557D01*
X9594828Y-11527557D01*
X9616274Y-11568668D01*
X9652366Y-11597781D01*
X9696852Y-11610866D01*
X9715500Y-11596574D01*
X9715500Y-11509500D01*
X9749500Y-11509500D01*
X9749500Y-11596574D01*
X9768148Y-11610866D01*
X9812634Y-11597781D01*
X9848726Y-11568668D01*
X9870172Y-11527557D01*
X9859594Y-11509500D01*
X9749500Y-11509500D01*
X9715500Y-11509500D01*
X9605406Y-11509500D01*
X9594828Y-11527557D01*
X8952523Y-11527557D01*
X8948791Y-11526008D01*
X8931286Y-11525992D01*
X8915109Y-11532677D01*
X8909776Y-11538000D01*
X7640000Y-11538000D01*
X7627754Y-11540436D01*
X7617373Y-11547373D01*
X7448746Y-11715999D01*
X7441286Y-11715992D01*
X7425109Y-11722677D01*
X7412720Y-11735043D01*
X7406008Y-11751209D01*
X7405992Y-11768714D01*
X5728000Y-11768714D01*
X5728000Y-11488233D01*
X9304821Y-11488233D01*
X9315478Y-11505500D01*
X9415500Y-11505500D01*
X9415500Y-11423775D01*
X9449500Y-11423775D01*
X9449500Y-11505500D01*
X9549522Y-11505500D01*
X9560179Y-11488233D01*
X9544353Y-11457443D01*
X9594828Y-11457443D01*
X9605406Y-11475500D01*
X9715500Y-11475500D01*
X9715500Y-11388426D01*
X9749500Y-11388426D01*
X9749500Y-11475500D01*
X9859594Y-11475500D01*
X9870172Y-11457443D01*
X9848726Y-11416332D01*
X9812634Y-11387219D01*
X9768148Y-11374134D01*
X9749500Y-11388426D01*
X9715500Y-11388426D01*
X9696852Y-11374134D01*
X9652366Y-11387219D01*
X9616274Y-11416332D01*
X9594828Y-11457443D01*
X9544353Y-11457443D01*
X9542338Y-11453521D01*
X9509102Y-11424392D01*
X9467249Y-11410200D01*
X9449500Y-11423775D01*
X9415500Y-11423775D01*
X9397751Y-11410200D01*
X9355898Y-11424392D01*
X9322662Y-11453521D01*
X9304821Y-11488233D01*
X5728000Y-11488233D01*
X5728000Y-11320000D01*
X5727453Y-11317092D01*
X5725734Y-11314422D01*
X5723112Y-11312630D01*
X5720000Y-11312000D01*
X5091500Y-11312000D01*
X5091500Y-11064361D01*
X5265961Y-11064361D01*
X5299991Y-11146720D01*
X5362949Y-11209787D01*
X5445248Y-11243961D01*
X5534361Y-11244039D01*
X5616720Y-11210009D01*
X5679787Y-11147052D01*
X5713961Y-11064752D01*
X5714039Y-10975639D01*
X5709379Y-10964361D01*
X9415961Y-10964361D01*
X9449991Y-11046720D01*
X9512949Y-11109787D01*
X9595248Y-11143961D01*
X9684361Y-11144039D01*
X9766720Y-11110009D01*
X9829787Y-11047052D01*
X9863961Y-10964752D01*
X9864039Y-10875639D01*
X9830009Y-10793280D01*
X9767052Y-10730213D01*
X9684752Y-10696039D01*
X9595639Y-10695961D01*
X9513280Y-10729991D01*
X9450213Y-10792949D01*
X9416039Y-10875248D01*
X9415961Y-10964361D01*
X5709379Y-10964361D01*
X5680009Y-10893280D01*
X5617051Y-10830213D01*
X5534752Y-10796039D01*
X5445639Y-10795961D01*
X5363280Y-10829991D01*
X5300213Y-10892949D01*
X5266039Y-10975248D01*
X5265961Y-11064361D01*
X5091500Y-11064361D01*
X5091500Y-9432610D01*
X5097681Y-9401537D01*
X5275977Y-9401537D01*
X5296334Y-9450806D01*
X5333996Y-9488533D01*
X5383229Y-9508977D01*
X5436537Y-9509023D01*
X5485806Y-9488666D01*
X5523533Y-9451004D01*
X5541998Y-9406537D01*
X9580977Y-9406537D01*
X9601334Y-9455806D01*
X9638996Y-9493533D01*
X9688229Y-9513977D01*
X9741537Y-9514023D01*
X9790806Y-9493666D01*
X9828533Y-9456004D01*
X9848977Y-9406771D01*
X9849023Y-9353463D01*
X9828666Y-9304194D01*
X9791004Y-9266467D01*
X9741771Y-9246023D01*
X9688463Y-9245977D01*
X9639194Y-9266334D01*
X9601467Y-9303996D01*
X9581023Y-9353229D01*
X9580977Y-9406537D01*
X5541998Y-9406537D01*
X5543977Y-9401771D01*
X5544023Y-9348463D01*
X5523666Y-9299194D01*
X5486004Y-9261467D01*
X5436771Y-9241023D01*
X5383463Y-9240977D01*
X5334194Y-9261334D01*
X5296467Y-9298996D01*
X5276023Y-9348229D01*
X5275977Y-9401537D01*
X5097681Y-9401537D01*
X5120411Y-9287266D01*
X5201263Y-9166263D01*
X5322267Y-9085411D01*
X5467610Y-9056500D01*
X9662390Y-9056500D01*
X9807734Y-9085411D01*
X9807734Y-9085411D01*
G37*
X9807734Y-9085411D02*
X9928737Y-9166263D01*
X10009589Y-9287267D01*
X10038500Y-9432610D01*
X10038500Y-12327390D01*
X10009589Y-12472733D01*
X9928737Y-12593737D01*
X9807734Y-12674589D01*
X9662390Y-12703500D01*
X7320532Y-12703500D01*
X7352868Y-12687980D01*
X7391579Y-12647114D01*
X7411705Y-12594545D01*
X7399257Y-12572000D01*
X7413140Y-12572000D01*
X7413140Y-12572701D01*
X7421541Y-12614933D01*
X7445464Y-12650737D01*
X7481267Y-12674660D01*
X7523500Y-12683061D01*
X7565733Y-12674660D01*
X7601536Y-12650737D01*
X7625459Y-12614933D01*
X7633860Y-12572701D01*
X7633860Y-12537299D01*
X7625459Y-12495066D01*
X7601536Y-12459263D01*
X7589918Y-12451500D01*
X7660000Y-12451500D01*
X7667351Y-12450038D01*
X7666670Y-12453400D01*
X7666670Y-12656600D01*
X7668343Y-12665494D01*
X7673600Y-12673662D01*
X7681620Y-12679142D01*
X7691140Y-12681070D01*
X7863860Y-12681070D01*
X7872754Y-12679397D01*
X7880922Y-12674140D01*
X7886402Y-12666120D01*
X7888330Y-12656600D01*
X7888330Y-12453400D01*
X7886657Y-12444506D01*
X7881400Y-12436338D01*
X7873380Y-12430858D01*
X7863860Y-12428930D01*
X7697689Y-12428930D01*
X7765000Y-12361619D01*
X7766002Y-12362621D01*
X7765991Y-12374704D01*
X7773436Y-12392720D01*
X7787207Y-12406516D01*
X7805210Y-12413991D01*
X7824704Y-12414008D01*
X7842720Y-12406564D01*
X7856516Y-12392792D01*
X7862382Y-12378665D01*
X8415988Y-12378665D01*
X8426471Y-12404034D01*
X8445864Y-12423461D01*
X8471215Y-12433988D01*
X8498665Y-12434012D01*
X8524034Y-12423529D01*
X8543461Y-12404136D01*
X8553988Y-12378785D01*
X8553988Y-12378665D01*
X9095988Y-12378665D01*
X9106471Y-12404034D01*
X9125864Y-12423461D01*
X9151215Y-12433988D01*
X9178665Y-12434012D01*
X9204034Y-12423529D01*
X9223461Y-12404136D01*
X9224541Y-12401537D01*
X9575977Y-12401537D01*
X9596334Y-12450806D01*
X9633996Y-12488533D01*
X9683229Y-12508977D01*
X9736537Y-12509023D01*
X9785806Y-12488666D01*
X9823533Y-12451004D01*
X9843977Y-12401771D01*
X9844023Y-12348463D01*
X9823666Y-12299194D01*
X9786004Y-12261467D01*
X9736771Y-12241023D01*
X9683463Y-12240977D01*
X9634194Y-12261334D01*
X9596467Y-12298996D01*
X9576023Y-12348229D01*
X9575977Y-12401537D01*
X9224541Y-12401537D01*
X9233988Y-12378785D01*
X9234012Y-12351335D01*
X9223530Y-12325966D01*
X9204136Y-12306539D01*
X9178785Y-12296012D01*
X9151335Y-12295988D01*
X9125966Y-12306470D01*
X9106539Y-12325864D01*
X9096012Y-12351215D01*
X9095988Y-12378665D01*
X8553988Y-12378665D01*
X8554012Y-12351335D01*
X8543530Y-12325966D01*
X8524136Y-12306539D01*
X8498785Y-12296012D01*
X8471335Y-12295988D01*
X8445966Y-12306470D01*
X8426539Y-12325864D01*
X8416012Y-12351215D01*
X8415988Y-12378665D01*
X7862382Y-12378665D01*
X7863991Y-12374789D01*
X7864008Y-12355296D01*
X7856564Y-12337280D01*
X7842792Y-12323484D01*
X7824789Y-12316008D01*
X7822625Y-12316007D01*
X7816619Y-12310000D01*
X7827616Y-12299002D01*
X7834704Y-12299008D01*
X7852720Y-12291564D01*
X7866516Y-12277792D01*
X7873991Y-12259789D01*
X7874008Y-12240296D01*
X7866564Y-12222280D01*
X7852792Y-12208484D01*
X7834789Y-12201008D01*
X7815296Y-12200991D01*
X7797280Y-12208436D01*
X7783484Y-12222207D01*
X7776008Y-12240210D01*
X7776002Y-12247379D01*
X7644881Y-12378500D01*
X7346500Y-12378500D01*
X7346500Y-12377800D01*
X7351516Y-12372792D01*
X7358991Y-12354789D01*
X7359008Y-12335296D01*
X7351564Y-12317280D01*
X7337792Y-12303484D01*
X7319789Y-12296008D01*
X7300296Y-12295991D01*
X7282280Y-12303436D01*
X7268484Y-12317207D01*
X7261008Y-12335210D01*
X7260991Y-12354704D01*
X7268436Y-12372720D01*
X7273500Y-12377793D01*
X7273500Y-12378500D01*
X6685000Y-12378500D01*
X6671032Y-12381278D01*
X6659191Y-12389191D01*
X6639881Y-12408500D01*
X6432800Y-12408500D01*
X6427792Y-12403484D01*
X6409789Y-12396008D01*
X6390296Y-12395991D01*
X6372280Y-12403436D01*
X6358484Y-12417207D01*
X6351008Y-12435210D01*
X6350991Y-12454704D01*
X6358436Y-12472720D01*
X6372207Y-12486516D01*
X6390210Y-12493991D01*
X6409704Y-12494008D01*
X6427720Y-12486564D01*
X6432793Y-12481500D01*
X6655000Y-12481500D01*
X6668968Y-12478722D01*
X6671667Y-12476918D01*
X6659541Y-12495066D01*
X6651140Y-12537299D01*
X6651140Y-12572701D01*
X6659541Y-12614933D01*
X6683464Y-12650737D01*
X6719267Y-12674660D01*
X6761500Y-12683061D01*
X6803733Y-12674660D01*
X6839536Y-12650737D01*
X6863459Y-12614933D01*
X6871860Y-12572701D01*
X6871860Y-12537299D01*
X6863459Y-12495066D01*
X6839536Y-12459263D01*
X6827918Y-12451500D01*
X6949082Y-12451500D01*
X6937464Y-12459263D01*
X6913541Y-12495066D01*
X6905140Y-12537299D01*
X6905140Y-12572701D01*
X6913541Y-12614933D01*
X6937464Y-12650737D01*
X6973267Y-12674660D01*
X7015500Y-12683061D01*
X7057733Y-12674660D01*
X7093536Y-12650737D01*
X7117459Y-12614933D01*
X7125860Y-12572701D01*
X7125860Y-12572000D01*
X7139743Y-12572000D01*
X7127295Y-12594545D01*
X7147421Y-12647114D01*
X7186132Y-12687980D01*
X7218467Y-12703500D01*
X5470000Y-12703500D01*
X5468805Y-12703738D01*
X5322267Y-12674589D01*
X5201263Y-12593737D01*
X5120411Y-12472734D01*
X5091621Y-12328000D01*
X5284423Y-12328000D01*
X5276023Y-12348229D01*
X5275977Y-12401537D01*
X5296334Y-12450806D01*
X5333996Y-12488533D01*
X5383229Y-12508977D01*
X5436537Y-12509023D01*
X5485806Y-12488666D01*
X5523533Y-12451004D01*
X5543977Y-12401771D01*
X5544023Y-12348463D01*
X5535568Y-12328000D01*
X5720000Y-12328000D01*
X5722908Y-12327453D01*
X5725578Y-12325734D01*
X5727370Y-12323112D01*
X5728000Y-12320000D01*
X5728000Y-12043714D01*
X7485992Y-12043714D01*
X7492677Y-12059891D01*
X7505043Y-12072280D01*
X7521209Y-12078992D01*
X7528744Y-12078999D01*
X7593000Y-12143255D01*
X7593000Y-12169773D01*
X7587720Y-12175043D01*
X7581008Y-12191209D01*
X7580992Y-12208714D01*
X7587677Y-12224891D01*
X7600043Y-12237280D01*
X7616209Y-12243992D01*
X7633714Y-12244008D01*
X7649891Y-12237323D01*
X7662280Y-12224956D01*
X7668992Y-12208790D01*
X7669008Y-12191286D01*
X7662323Y-12175109D01*
X7657000Y-12169776D01*
X7657000Y-12130000D01*
X7654564Y-12117754D01*
X7647627Y-12107373D01*
X7582021Y-12041767D01*
X9304821Y-12041767D01*
X9322662Y-12076479D01*
X9355898Y-12105608D01*
X9397751Y-12119800D01*
X9415500Y-12106225D01*
X9415500Y-12024500D01*
X9449500Y-12024500D01*
X9449500Y-12106225D01*
X9467249Y-12119800D01*
X9509102Y-12105608D01*
X9542338Y-12076479D01*
X9544353Y-12072557D01*
X9594828Y-12072557D01*
X9616274Y-12113668D01*
X9652366Y-12142781D01*
X9696852Y-12155866D01*
X9715500Y-12141574D01*
X9715500Y-12054500D01*
X9749500Y-12054500D01*
X9749500Y-12141574D01*
X9768148Y-12155866D01*
X9812634Y-12142781D01*
X9848726Y-12113668D01*
X9870172Y-12072557D01*
X9859594Y-12054500D01*
X9749500Y-12054500D01*
X9715500Y-12054500D01*
X9605406Y-12054500D01*
X9594828Y-12072557D01*
X9544353Y-12072557D01*
X9560179Y-12041767D01*
X9549522Y-12024500D01*
X9449500Y-12024500D01*
X9415500Y-12024500D01*
X9315478Y-12024500D01*
X9304821Y-12041767D01*
X7582021Y-12041767D01*
X7574001Y-12033746D01*
X7574008Y-12026286D01*
X7567323Y-12010109D01*
X7559670Y-12002443D01*
X9594828Y-12002443D01*
X9605406Y-12020500D01*
X9715500Y-12020500D01*
X9715500Y-11933426D01*
X9749500Y-11933426D01*
X9749500Y-12020500D01*
X9859594Y-12020500D01*
X9870172Y-12002443D01*
X9848726Y-11961332D01*
X9812634Y-11932219D01*
X9768148Y-11919134D01*
X9749500Y-11933426D01*
X9715500Y-11933426D01*
X9696852Y-11919134D01*
X9652366Y-11932219D01*
X9616274Y-11961332D01*
X9594828Y-12002443D01*
X7559670Y-12002443D01*
X7554956Y-11997720D01*
X7538790Y-11991008D01*
X7521286Y-11990992D01*
X7505109Y-11997677D01*
X7492720Y-12010043D01*
X7486008Y-12026209D01*
X7485992Y-12043714D01*
X5728000Y-12043714D01*
X5728000Y-11863714D01*
X6665992Y-11863714D01*
X6672677Y-11879891D01*
X6685043Y-11892280D01*
X6701209Y-11898992D01*
X6708744Y-11898999D01*
X6795999Y-11986254D01*
X6795992Y-11993714D01*
X6802677Y-12009891D01*
X6815043Y-12022280D01*
X6831209Y-12028992D01*
X6848714Y-12029008D01*
X6864891Y-12022323D01*
X6877280Y-12009956D01*
X6883992Y-11993790D01*
X6884008Y-11976286D01*
X6882746Y-11973233D01*
X9304821Y-11973233D01*
X9315478Y-11990500D01*
X9415500Y-11990500D01*
X9415500Y-11908775D01*
X9449500Y-11908775D01*
X9449500Y-11990500D01*
X9549522Y-11990500D01*
X9560179Y-11973233D01*
X9542338Y-11938521D01*
X9509102Y-11909392D01*
X9467249Y-11895200D01*
X9449500Y-11908775D01*
X9415500Y-11908775D01*
X9397751Y-11895200D01*
X9355898Y-11909392D01*
X9322662Y-11938521D01*
X9304821Y-11973233D01*
X6882746Y-11973233D01*
X6877323Y-11960109D01*
X6864956Y-11947720D01*
X6848790Y-11941008D01*
X6841256Y-11941001D01*
X6754001Y-11853746D01*
X6754008Y-11846286D01*
X6747323Y-11830109D01*
X6734956Y-11817720D01*
X6718790Y-11811008D01*
X6701286Y-11810992D01*
X6685109Y-11817677D01*
X6672720Y-11830043D01*
X6666008Y-11846209D01*
X6665992Y-11863714D01*
X5728000Y-11863714D01*
X5728000Y-11768714D01*
X7405992Y-11768714D01*
X7412677Y-11784891D01*
X7425043Y-11797280D01*
X7441209Y-11803992D01*
X7458714Y-11804008D01*
X7474891Y-11797323D01*
X7487280Y-11784956D01*
X7493992Y-11768790D01*
X7493999Y-11761256D01*
X7653255Y-11602000D01*
X8909773Y-11602000D01*
X8915044Y-11607280D01*
X8931210Y-11613992D01*
X8948714Y-11614008D01*
X8964891Y-11607323D01*
X8977280Y-11594956D01*
X8983992Y-11578790D01*
X8984008Y-11561286D01*
X8982140Y-11556767D01*
X9304821Y-11556767D01*
X9322662Y-11591479D01*
X9355898Y-11620608D01*
X9397751Y-11634800D01*
X9415500Y-11621225D01*
X9415500Y-11539500D01*
X9449500Y-11539500D01*
X9449500Y-11621225D01*
X9467249Y-11634800D01*
X9509102Y-11620608D01*
X9542338Y-11591479D01*
X9560179Y-11556767D01*
X9549522Y-11539500D01*
X9449500Y-11539500D01*
X9415500Y-11539500D01*
X9315478Y-11539500D01*
X9304821Y-11556767D01*
X8982140Y-11556767D01*
X8977323Y-11545109D01*
X8964957Y-11532720D01*
X8952523Y-11527557D01*
X9594828Y-11527557D01*
X9616274Y-11568668D01*
X9652366Y-11597781D01*
X9696852Y-11610866D01*
X9715500Y-11596574D01*
X9715500Y-11509500D01*
X9749500Y-11509500D01*
X9749500Y-11596574D01*
X9768148Y-11610866D01*
X9812634Y-11597781D01*
X9848726Y-11568668D01*
X9870172Y-11527557D01*
X9859594Y-11509500D01*
X9749500Y-11509500D01*
X9715500Y-11509500D01*
X9605406Y-11509500D01*
X9594828Y-11527557D01*
X8952523Y-11527557D01*
X8948791Y-11526008D01*
X8931286Y-11525992D01*
X8915109Y-11532677D01*
X8909776Y-11538000D01*
X7640000Y-11538000D01*
X7627754Y-11540436D01*
X7617373Y-11547373D01*
X7448746Y-11715999D01*
X7441286Y-11715992D01*
X7425109Y-11722677D01*
X7412720Y-11735043D01*
X7406008Y-11751209D01*
X7405992Y-11768714D01*
X5728000Y-11768714D01*
X5728000Y-11488233D01*
X9304821Y-11488233D01*
X9315478Y-11505500D01*
X9415500Y-11505500D01*
X9415500Y-11423775D01*
X9449500Y-11423775D01*
X9449500Y-11505500D01*
X9549522Y-11505500D01*
X9560179Y-11488233D01*
X9544353Y-11457443D01*
X9594828Y-11457443D01*
X9605406Y-11475500D01*
X9715500Y-11475500D01*
X9715500Y-11388426D01*
X9749500Y-11388426D01*
X9749500Y-11475500D01*
X9859594Y-11475500D01*
X9870172Y-11457443D01*
X9848726Y-11416332D01*
X9812634Y-11387219D01*
X9768148Y-11374134D01*
X9749500Y-11388426D01*
X9715500Y-11388426D01*
X9696852Y-11374134D01*
X9652366Y-11387219D01*
X9616274Y-11416332D01*
X9594828Y-11457443D01*
X9544353Y-11457443D01*
X9542338Y-11453521D01*
X9509102Y-11424392D01*
X9467249Y-11410200D01*
X9449500Y-11423775D01*
X9415500Y-11423775D01*
X9397751Y-11410200D01*
X9355898Y-11424392D01*
X9322662Y-11453521D01*
X9304821Y-11488233D01*
X5728000Y-11488233D01*
X5728000Y-11320000D01*
X5727453Y-11317092D01*
X5725734Y-11314422D01*
X5723112Y-11312630D01*
X5720000Y-11312000D01*
X5091500Y-11312000D01*
X5091500Y-11064361D01*
X5265961Y-11064361D01*
X5299991Y-11146720D01*
X5362949Y-11209787D01*
X5445248Y-11243961D01*
X5534361Y-11244039D01*
X5616720Y-11210009D01*
X5679787Y-11147052D01*
X5713961Y-11064752D01*
X5714039Y-10975639D01*
X5709379Y-10964361D01*
X9415961Y-10964361D01*
X9449991Y-11046720D01*
X9512949Y-11109787D01*
X9595248Y-11143961D01*
X9684361Y-11144039D01*
X9766720Y-11110009D01*
X9829787Y-11047052D01*
X9863961Y-10964752D01*
X9864039Y-10875639D01*
X9830009Y-10793280D01*
X9767052Y-10730213D01*
X9684752Y-10696039D01*
X9595639Y-10695961D01*
X9513280Y-10729991D01*
X9450213Y-10792949D01*
X9416039Y-10875248D01*
X9415961Y-10964361D01*
X5709379Y-10964361D01*
X5680009Y-10893280D01*
X5617051Y-10830213D01*
X5534752Y-10796039D01*
X5445639Y-10795961D01*
X5363280Y-10829991D01*
X5300213Y-10892949D01*
X5266039Y-10975248D01*
X5265961Y-11064361D01*
X5091500Y-11064361D01*
X5091500Y-9432610D01*
X5097681Y-9401537D01*
X5275977Y-9401537D01*
X5296334Y-9450806D01*
X5333996Y-9488533D01*
X5383229Y-9508977D01*
X5436537Y-9509023D01*
X5485806Y-9488666D01*
X5523533Y-9451004D01*
X5541998Y-9406537D01*
X9580977Y-9406537D01*
X9601334Y-9455806D01*
X9638996Y-9493533D01*
X9688229Y-9513977D01*
X9741537Y-9514023D01*
X9790806Y-9493666D01*
X9828533Y-9456004D01*
X9848977Y-9406771D01*
X9849023Y-9353463D01*
X9828666Y-9304194D01*
X9791004Y-9266467D01*
X9741771Y-9246023D01*
X9688463Y-9245977D01*
X9639194Y-9266334D01*
X9601467Y-9303996D01*
X9581023Y-9353229D01*
X9580977Y-9406537D01*
X5541998Y-9406537D01*
X5543977Y-9401771D01*
X5544023Y-9348463D01*
X5523666Y-9299194D01*
X5486004Y-9261467D01*
X5436771Y-9241023D01*
X5383463Y-9240977D01*
X5334194Y-9261334D01*
X5296467Y-9298996D01*
X5276023Y-9348229D01*
X5275977Y-9401537D01*
X5097681Y-9401537D01*
X5120411Y-9287266D01*
X5201263Y-9166263D01*
X5322267Y-9085411D01*
X5467610Y-9056500D01*
X9662390Y-9056500D01*
X9807734Y-9085411D01*
G36*
X7286500Y-12538000D02*
X7288500Y-12538000D01*
X7288500Y-12572000D01*
X7286500Y-12572000D01*
X7286500Y-12574000D01*
X7252500Y-12574000D01*
X7252500Y-12572000D01*
X7250500Y-12572000D01*
X7250500Y-12538000D01*
X7252500Y-12538000D01*
X7252500Y-12536000D01*
X7286500Y-12536000D01*
X7286500Y-12538000D01*
X7286500Y-12538000D01*
G37*
X7286500Y-12538000D02*
X7288500Y-12538000D01*
X7288500Y-12572000D01*
X7286500Y-12572000D01*
X7286500Y-12574000D01*
X7252500Y-12574000D01*
X7252500Y-12572000D01*
X7250500Y-12572000D01*
X7250500Y-12538000D01*
X7252500Y-12538000D01*
X7252500Y-12536000D01*
X7286500Y-12536000D01*
X7286500Y-12538000D01*
G36*
X15007734Y-9085411D02*
X15128737Y-9166263D01*
X15209589Y-9287267D01*
X15238500Y-9432610D01*
X15238500Y-12327390D01*
X15209589Y-12472733D01*
X15128737Y-12593737D01*
X15007734Y-12674589D01*
X14862390Y-12703500D01*
X12520532Y-12703500D01*
X12552868Y-12687980D01*
X12591579Y-12647114D01*
X12611705Y-12594545D01*
X12599257Y-12572000D01*
X12613140Y-12572000D01*
X12613140Y-12572701D01*
X12621541Y-12614933D01*
X12645464Y-12650737D01*
X12681267Y-12674660D01*
X12723500Y-12683061D01*
X12765733Y-12674660D01*
X12801536Y-12650737D01*
X12825459Y-12614933D01*
X12833860Y-12572701D01*
X12833860Y-12537299D01*
X12825459Y-12495066D01*
X12801536Y-12459263D01*
X12789918Y-12451500D01*
X12860000Y-12451500D01*
X12867351Y-12450038D01*
X12866670Y-12453400D01*
X12866670Y-12656600D01*
X12868343Y-12665494D01*
X12873600Y-12673662D01*
X12881620Y-12679142D01*
X12891140Y-12681070D01*
X13063860Y-12681070D01*
X13072754Y-12679397D01*
X13080922Y-12674140D01*
X13086402Y-12666120D01*
X13088330Y-12656600D01*
X13088330Y-12453400D01*
X13086657Y-12444506D01*
X13081400Y-12436338D01*
X13073380Y-12430858D01*
X13063860Y-12428930D01*
X12897689Y-12428930D01*
X12965000Y-12361619D01*
X12966002Y-12362621D01*
X12965991Y-12374704D01*
X12973436Y-12392720D01*
X12987207Y-12406516D01*
X13005210Y-12413991D01*
X13024704Y-12414008D01*
X13042720Y-12406564D01*
X13056516Y-12392792D01*
X13062382Y-12378665D01*
X13615988Y-12378665D01*
X13626470Y-12404034D01*
X13645864Y-12423461D01*
X13671215Y-12433988D01*
X13698665Y-12434012D01*
X13724034Y-12423529D01*
X13743461Y-12404136D01*
X13753988Y-12378785D01*
X13753988Y-12378665D01*
X14295988Y-12378665D01*
X14306470Y-12404034D01*
X14325864Y-12423461D01*
X14351215Y-12433988D01*
X14378665Y-12434012D01*
X14404034Y-12423529D01*
X14423461Y-12404136D01*
X14424540Y-12401537D01*
X14775977Y-12401537D01*
X14796334Y-12450806D01*
X14833996Y-12488533D01*
X14883229Y-12508977D01*
X14936537Y-12509023D01*
X14985806Y-12488666D01*
X15023533Y-12451004D01*
X15043977Y-12401771D01*
X15044023Y-12348463D01*
X15023666Y-12299194D01*
X14986004Y-12261467D01*
X14936771Y-12241023D01*
X14883463Y-12240977D01*
X14834194Y-12261334D01*
X14796467Y-12298996D01*
X14776023Y-12348229D01*
X14775977Y-12401537D01*
X14424540Y-12401537D01*
X14433988Y-12378785D01*
X14434012Y-12351335D01*
X14423529Y-12325966D01*
X14404136Y-12306539D01*
X14378785Y-12296012D01*
X14351335Y-12295988D01*
X14325966Y-12306470D01*
X14306539Y-12325864D01*
X14296012Y-12351215D01*
X14295988Y-12378665D01*
X13753988Y-12378665D01*
X13754012Y-12351335D01*
X13743529Y-12325966D01*
X13724136Y-12306539D01*
X13698785Y-12296012D01*
X13671335Y-12295988D01*
X13645966Y-12306470D01*
X13626539Y-12325864D01*
X13616012Y-12351215D01*
X13615988Y-12378665D01*
X13062382Y-12378665D01*
X13063991Y-12374789D01*
X13064008Y-12355296D01*
X13056564Y-12337280D01*
X13042792Y-12323484D01*
X13024789Y-12316008D01*
X13022625Y-12316007D01*
X13016619Y-12310000D01*
X13027616Y-12299002D01*
X13034704Y-12299008D01*
X13052720Y-12291564D01*
X13066516Y-12277792D01*
X13073991Y-12259789D01*
X13074008Y-12240296D01*
X13066564Y-12222280D01*
X13052792Y-12208484D01*
X13034789Y-12201008D01*
X13015296Y-12200991D01*
X12997280Y-12208436D01*
X12983484Y-12222207D01*
X12976008Y-12240210D01*
X12976002Y-12247379D01*
X12844881Y-12378500D01*
X12546500Y-12378500D01*
X12546500Y-12377800D01*
X12551516Y-12372792D01*
X12558991Y-12354789D01*
X12559008Y-12335296D01*
X12551564Y-12317280D01*
X12537792Y-12303484D01*
X12519789Y-12296008D01*
X12500296Y-12295991D01*
X12482280Y-12303436D01*
X12468484Y-12317207D01*
X12461008Y-12335210D01*
X12460991Y-12354704D01*
X12468436Y-12372720D01*
X12473500Y-12377793D01*
X12473500Y-12378500D01*
X11885000Y-12378500D01*
X11871032Y-12381278D01*
X11859191Y-12389191D01*
X11839881Y-12408500D01*
X11632800Y-12408500D01*
X11627792Y-12403484D01*
X11609789Y-12396008D01*
X11590296Y-12395991D01*
X11572280Y-12403436D01*
X11558484Y-12417207D01*
X11551008Y-12435210D01*
X11550991Y-12454704D01*
X11558436Y-12472720D01*
X11572207Y-12486516D01*
X11590210Y-12493991D01*
X11609704Y-12494008D01*
X11627720Y-12486564D01*
X11632793Y-12481500D01*
X11855000Y-12481500D01*
X11868968Y-12478722D01*
X11871667Y-12476918D01*
X11859541Y-12495066D01*
X11851140Y-12537299D01*
X11851140Y-12572701D01*
X11859541Y-12614933D01*
X11883464Y-12650737D01*
X11919267Y-12674660D01*
X11961500Y-12683061D01*
X12003733Y-12674660D01*
X12039536Y-12650737D01*
X12063459Y-12614933D01*
X12071860Y-12572701D01*
X12071860Y-12537299D01*
X12063459Y-12495066D01*
X12039536Y-12459263D01*
X12027918Y-12451500D01*
X12149082Y-12451500D01*
X12137464Y-12459263D01*
X12113541Y-12495066D01*
X12105140Y-12537299D01*
X12105140Y-12572701D01*
X12113541Y-12614933D01*
X12137464Y-12650737D01*
X12173267Y-12674660D01*
X12215500Y-12683061D01*
X12257733Y-12674660D01*
X12293536Y-12650737D01*
X12317459Y-12614933D01*
X12325860Y-12572701D01*
X12325860Y-12572000D01*
X12339743Y-12572000D01*
X12327295Y-12594545D01*
X12347421Y-12647114D01*
X12386132Y-12687980D01*
X12418467Y-12703500D01*
X10670000Y-12703500D01*
X10668805Y-12703738D01*
X10522267Y-12674589D01*
X10401263Y-12593737D01*
X10320411Y-12472734D01*
X10291621Y-12328000D01*
X10484423Y-12328000D01*
X10476023Y-12348229D01*
X10475977Y-12401537D01*
X10496334Y-12450806D01*
X10533996Y-12488533D01*
X10583229Y-12508977D01*
X10636537Y-12509023D01*
X10685806Y-12488666D01*
X10723533Y-12451004D01*
X10743977Y-12401771D01*
X10744023Y-12348463D01*
X10735568Y-12328000D01*
X10920000Y-12328000D01*
X10922908Y-12327453D01*
X10925578Y-12325734D01*
X10927370Y-12323112D01*
X10928000Y-12320000D01*
X10928000Y-12043714D01*
X12685992Y-12043714D01*
X12692677Y-12059891D01*
X12705043Y-12072280D01*
X12721209Y-12078992D01*
X12728744Y-12078999D01*
X12793000Y-12143255D01*
X12793000Y-12169773D01*
X12787720Y-12175043D01*
X12781008Y-12191209D01*
X12780992Y-12208714D01*
X12787677Y-12224891D01*
X12800043Y-12237280D01*
X12816209Y-12243992D01*
X12833714Y-12244008D01*
X12849891Y-12237323D01*
X12862280Y-12224956D01*
X12868992Y-12208790D01*
X12869008Y-12191286D01*
X12862323Y-12175109D01*
X12857000Y-12169776D01*
X12857000Y-12130000D01*
X12854564Y-12117754D01*
X12847627Y-12107373D01*
X12782021Y-12041767D01*
X14504821Y-12041767D01*
X14522662Y-12076479D01*
X14555898Y-12105608D01*
X14597751Y-12119800D01*
X14615500Y-12106225D01*
X14615500Y-12024500D01*
X14649500Y-12024500D01*
X14649500Y-12106225D01*
X14667249Y-12119800D01*
X14709102Y-12105608D01*
X14742338Y-12076479D01*
X14744353Y-12072557D01*
X14794828Y-12072557D01*
X14816274Y-12113668D01*
X14852366Y-12142781D01*
X14896852Y-12155866D01*
X14915500Y-12141574D01*
X14915500Y-12054500D01*
X14949500Y-12054500D01*
X14949500Y-12141574D01*
X14968148Y-12155866D01*
X15012634Y-12142781D01*
X15048726Y-12113668D01*
X15070172Y-12072557D01*
X15059594Y-12054500D01*
X14949500Y-12054500D01*
X14915500Y-12054500D01*
X14805406Y-12054500D01*
X14794828Y-12072557D01*
X14744353Y-12072557D01*
X14760179Y-12041767D01*
X14749522Y-12024500D01*
X14649500Y-12024500D01*
X14615500Y-12024500D01*
X14515478Y-12024500D01*
X14504821Y-12041767D01*
X12782021Y-12041767D01*
X12774001Y-12033746D01*
X12774008Y-12026286D01*
X12767323Y-12010109D01*
X12759670Y-12002443D01*
X14794828Y-12002443D01*
X14805406Y-12020500D01*
X14915500Y-12020500D01*
X14915500Y-11933426D01*
X14949500Y-11933426D01*
X14949500Y-12020500D01*
X15059594Y-12020500D01*
X15070172Y-12002443D01*
X15048726Y-11961332D01*
X15012634Y-11932219D01*
X14968148Y-11919134D01*
X14949500Y-11933426D01*
X14915500Y-11933426D01*
X14896852Y-11919134D01*
X14852366Y-11932219D01*
X14816274Y-11961332D01*
X14794828Y-12002443D01*
X12759670Y-12002443D01*
X12754956Y-11997720D01*
X12738790Y-11991008D01*
X12721286Y-11990992D01*
X12705109Y-11997677D01*
X12692720Y-12010043D01*
X12686008Y-12026209D01*
X12685992Y-12043714D01*
X10928000Y-12043714D01*
X10928000Y-11863714D01*
X11865992Y-11863714D01*
X11872677Y-11879891D01*
X11885043Y-11892280D01*
X11901209Y-11898992D01*
X11908744Y-11898999D01*
X11995999Y-11986254D01*
X11995992Y-11993714D01*
X12002677Y-12009891D01*
X12015043Y-12022280D01*
X12031209Y-12028992D01*
X12048714Y-12029008D01*
X12064891Y-12022323D01*
X12077280Y-12009956D01*
X12083992Y-11993790D01*
X12084008Y-11976286D01*
X12082746Y-11973233D01*
X14504821Y-11973233D01*
X14515478Y-11990500D01*
X14615500Y-11990500D01*
X14615500Y-11908775D01*
X14649500Y-11908775D01*
X14649500Y-11990500D01*
X14749522Y-11990500D01*
X14760179Y-11973233D01*
X14742338Y-11938521D01*
X14709102Y-11909392D01*
X14667249Y-11895200D01*
X14649500Y-11908775D01*
X14615500Y-11908775D01*
X14597751Y-11895200D01*
X14555898Y-11909392D01*
X14522662Y-11938521D01*
X14504821Y-11973233D01*
X12082746Y-11973233D01*
X12077323Y-11960109D01*
X12064956Y-11947720D01*
X12048790Y-11941008D01*
X12041256Y-11941001D01*
X11954001Y-11853746D01*
X11954008Y-11846286D01*
X11947323Y-11830109D01*
X11934956Y-11817720D01*
X11918790Y-11811008D01*
X11901286Y-11810992D01*
X11885109Y-11817677D01*
X11872720Y-11830043D01*
X11866008Y-11846209D01*
X11865992Y-11863714D01*
X10928000Y-11863714D01*
X10928000Y-11768714D01*
X12605992Y-11768714D01*
X12612677Y-11784891D01*
X12625043Y-11797280D01*
X12641209Y-11803992D01*
X12658714Y-11804008D01*
X12674891Y-11797323D01*
X12687280Y-11784956D01*
X12693992Y-11768790D01*
X12693999Y-11761256D01*
X12853255Y-11602000D01*
X14109773Y-11602000D01*
X14115043Y-11607280D01*
X14131209Y-11613992D01*
X14148714Y-11614008D01*
X14164891Y-11607323D01*
X14177280Y-11594956D01*
X14183992Y-11578790D01*
X14184008Y-11561286D01*
X14182140Y-11556767D01*
X14504821Y-11556767D01*
X14522662Y-11591479D01*
X14555898Y-11620608D01*
X14597751Y-11634800D01*
X14615500Y-11621225D01*
X14615500Y-11539500D01*
X14649500Y-11539500D01*
X14649500Y-11621225D01*
X14667249Y-11634800D01*
X14709102Y-11620608D01*
X14742338Y-11591479D01*
X14760179Y-11556767D01*
X14749522Y-11539500D01*
X14649500Y-11539500D01*
X14615500Y-11539500D01*
X14515478Y-11539500D01*
X14504821Y-11556767D01*
X14182140Y-11556767D01*
X14177323Y-11545109D01*
X14164956Y-11532720D01*
X14152523Y-11527557D01*
X14794828Y-11527557D01*
X14816274Y-11568668D01*
X14852366Y-11597781D01*
X14896852Y-11610866D01*
X14915500Y-11596574D01*
X14915500Y-11509500D01*
X14949500Y-11509500D01*
X14949500Y-11596574D01*
X14968148Y-11610866D01*
X15012634Y-11597781D01*
X15048726Y-11568668D01*
X15070172Y-11527557D01*
X15059594Y-11509500D01*
X14949500Y-11509500D01*
X14915500Y-11509500D01*
X14805406Y-11509500D01*
X14794828Y-11527557D01*
X14152523Y-11527557D01*
X14148790Y-11526008D01*
X14131286Y-11525992D01*
X14115109Y-11532677D01*
X14109776Y-11538000D01*
X12840000Y-11538000D01*
X12827754Y-11540436D01*
X12817373Y-11547373D01*
X12648746Y-11715999D01*
X12641286Y-11715992D01*
X12625109Y-11722677D01*
X12612720Y-11735043D01*
X12606008Y-11751209D01*
X12605992Y-11768714D01*
X10928000Y-11768714D01*
X10928000Y-11488233D01*
X14504821Y-11488233D01*
X14515478Y-11505500D01*
X14615500Y-11505500D01*
X14615500Y-11423775D01*
X14649500Y-11423775D01*
X14649500Y-11505500D01*
X14749522Y-11505500D01*
X14760179Y-11488233D01*
X14744353Y-11457443D01*
X14794828Y-11457443D01*
X14805406Y-11475500D01*
X14915500Y-11475500D01*
X14915500Y-11388426D01*
X14949500Y-11388426D01*
X14949500Y-11475500D01*
X15059594Y-11475500D01*
X15070172Y-11457443D01*
X15048726Y-11416332D01*
X15012634Y-11387219D01*
X14968148Y-11374134D01*
X14949500Y-11388426D01*
X14915500Y-11388426D01*
X14896852Y-11374134D01*
X14852366Y-11387219D01*
X14816274Y-11416332D01*
X14794828Y-11457443D01*
X14744353Y-11457443D01*
X14742338Y-11453521D01*
X14709102Y-11424392D01*
X14667249Y-11410200D01*
X14649500Y-11423775D01*
X14615500Y-11423775D01*
X14597751Y-11410200D01*
X14555898Y-11424392D01*
X14522662Y-11453521D01*
X14504821Y-11488233D01*
X10928000Y-11488233D01*
X10928000Y-11320000D01*
X10927453Y-11317092D01*
X10925735Y-11314422D01*
X10923112Y-11312630D01*
X10920000Y-11312000D01*
X10291500Y-11312000D01*
X10291500Y-11064361D01*
X10465961Y-11064361D01*
X10499991Y-11146720D01*
X10562949Y-11209787D01*
X10645248Y-11243961D01*
X10734361Y-11244039D01*
X10816720Y-11210009D01*
X10879787Y-11147052D01*
X10913961Y-11064752D01*
X10914039Y-10975639D01*
X10909379Y-10964361D01*
X14615961Y-10964361D01*
X14649991Y-11046720D01*
X14712948Y-11109787D01*
X14795248Y-11143961D01*
X14884361Y-11144039D01*
X14966720Y-11110009D01*
X15029787Y-11047052D01*
X15063961Y-10964752D01*
X15064039Y-10875639D01*
X15030009Y-10793280D01*
X14967051Y-10730213D01*
X14884752Y-10696039D01*
X14795639Y-10695961D01*
X14713280Y-10729991D01*
X14650213Y-10792949D01*
X14616039Y-10875248D01*
X14615961Y-10964361D01*
X10909379Y-10964361D01*
X10880009Y-10893280D01*
X10817052Y-10830213D01*
X10734752Y-10796039D01*
X10645639Y-10795961D01*
X10563280Y-10829991D01*
X10500213Y-10892949D01*
X10466039Y-10975248D01*
X10465961Y-11064361D01*
X10291500Y-11064361D01*
X10291500Y-9432610D01*
X10297681Y-9401537D01*
X10475977Y-9401537D01*
X10496334Y-9450806D01*
X10533996Y-9488533D01*
X10583229Y-9508977D01*
X10636537Y-9509023D01*
X10685806Y-9488666D01*
X10723533Y-9451004D01*
X10741998Y-9406537D01*
X14780977Y-9406537D01*
X14801334Y-9455806D01*
X14838996Y-9493533D01*
X14888229Y-9513977D01*
X14941537Y-9514023D01*
X14990806Y-9493666D01*
X15028533Y-9456004D01*
X15048977Y-9406771D01*
X15049023Y-9353463D01*
X15028666Y-9304194D01*
X14991004Y-9266467D01*
X14941771Y-9246023D01*
X14888463Y-9245977D01*
X14839194Y-9266334D01*
X14801467Y-9303996D01*
X14781023Y-9353229D01*
X14780977Y-9406537D01*
X10741998Y-9406537D01*
X10743977Y-9401771D01*
X10744023Y-9348463D01*
X10723666Y-9299194D01*
X10686004Y-9261467D01*
X10636771Y-9241023D01*
X10583463Y-9240977D01*
X10534194Y-9261334D01*
X10496467Y-9298996D01*
X10476023Y-9348229D01*
X10475977Y-9401537D01*
X10297681Y-9401537D01*
X10320411Y-9287266D01*
X10401263Y-9166263D01*
X10522267Y-9085411D01*
X10667610Y-9056500D01*
X14862390Y-9056500D01*
X15007734Y-9085411D01*
X15007734Y-9085411D01*
G37*
X15007734Y-9085411D02*
X15128737Y-9166263D01*
X15209589Y-9287267D01*
X15238500Y-9432610D01*
X15238500Y-12327390D01*
X15209589Y-12472733D01*
X15128737Y-12593737D01*
X15007734Y-12674589D01*
X14862390Y-12703500D01*
X12520532Y-12703500D01*
X12552868Y-12687980D01*
X12591579Y-12647114D01*
X12611705Y-12594545D01*
X12599257Y-12572000D01*
X12613140Y-12572000D01*
X12613140Y-12572701D01*
X12621541Y-12614933D01*
X12645464Y-12650737D01*
X12681267Y-12674660D01*
X12723500Y-12683061D01*
X12765733Y-12674660D01*
X12801536Y-12650737D01*
X12825459Y-12614933D01*
X12833860Y-12572701D01*
X12833860Y-12537299D01*
X12825459Y-12495066D01*
X12801536Y-12459263D01*
X12789918Y-12451500D01*
X12860000Y-12451500D01*
X12867351Y-12450038D01*
X12866670Y-12453400D01*
X12866670Y-12656600D01*
X12868343Y-12665494D01*
X12873600Y-12673662D01*
X12881620Y-12679142D01*
X12891140Y-12681070D01*
X13063860Y-12681070D01*
X13072754Y-12679397D01*
X13080922Y-12674140D01*
X13086402Y-12666120D01*
X13088330Y-12656600D01*
X13088330Y-12453400D01*
X13086657Y-12444506D01*
X13081400Y-12436338D01*
X13073380Y-12430858D01*
X13063860Y-12428930D01*
X12897689Y-12428930D01*
X12965000Y-12361619D01*
X12966002Y-12362621D01*
X12965991Y-12374704D01*
X12973436Y-12392720D01*
X12987207Y-12406516D01*
X13005210Y-12413991D01*
X13024704Y-12414008D01*
X13042720Y-12406564D01*
X13056516Y-12392792D01*
X13062382Y-12378665D01*
X13615988Y-12378665D01*
X13626470Y-12404034D01*
X13645864Y-12423461D01*
X13671215Y-12433988D01*
X13698665Y-12434012D01*
X13724034Y-12423529D01*
X13743461Y-12404136D01*
X13753988Y-12378785D01*
X13753988Y-12378665D01*
X14295988Y-12378665D01*
X14306470Y-12404034D01*
X14325864Y-12423461D01*
X14351215Y-12433988D01*
X14378665Y-12434012D01*
X14404034Y-12423529D01*
X14423461Y-12404136D01*
X14424540Y-12401537D01*
X14775977Y-12401537D01*
X14796334Y-12450806D01*
X14833996Y-12488533D01*
X14883229Y-12508977D01*
X14936537Y-12509023D01*
X14985806Y-12488666D01*
X15023533Y-12451004D01*
X15043977Y-12401771D01*
X15044023Y-12348463D01*
X15023666Y-12299194D01*
X14986004Y-12261467D01*
X14936771Y-12241023D01*
X14883463Y-12240977D01*
X14834194Y-12261334D01*
X14796467Y-12298996D01*
X14776023Y-12348229D01*
X14775977Y-12401537D01*
X14424540Y-12401537D01*
X14433988Y-12378785D01*
X14434012Y-12351335D01*
X14423529Y-12325966D01*
X14404136Y-12306539D01*
X14378785Y-12296012D01*
X14351335Y-12295988D01*
X14325966Y-12306470D01*
X14306539Y-12325864D01*
X14296012Y-12351215D01*
X14295988Y-12378665D01*
X13753988Y-12378665D01*
X13754012Y-12351335D01*
X13743529Y-12325966D01*
X13724136Y-12306539D01*
X13698785Y-12296012D01*
X13671335Y-12295988D01*
X13645966Y-12306470D01*
X13626539Y-12325864D01*
X13616012Y-12351215D01*
X13615988Y-12378665D01*
X13062382Y-12378665D01*
X13063991Y-12374789D01*
X13064008Y-12355296D01*
X13056564Y-12337280D01*
X13042792Y-12323484D01*
X13024789Y-12316008D01*
X13022625Y-12316007D01*
X13016619Y-12310000D01*
X13027616Y-12299002D01*
X13034704Y-12299008D01*
X13052720Y-12291564D01*
X13066516Y-12277792D01*
X13073991Y-12259789D01*
X13074008Y-12240296D01*
X13066564Y-12222280D01*
X13052792Y-12208484D01*
X13034789Y-12201008D01*
X13015296Y-12200991D01*
X12997280Y-12208436D01*
X12983484Y-12222207D01*
X12976008Y-12240210D01*
X12976002Y-12247379D01*
X12844881Y-12378500D01*
X12546500Y-12378500D01*
X12546500Y-12377800D01*
X12551516Y-12372792D01*
X12558991Y-12354789D01*
X12559008Y-12335296D01*
X12551564Y-12317280D01*
X12537792Y-12303484D01*
X12519789Y-12296008D01*
X12500296Y-12295991D01*
X12482280Y-12303436D01*
X12468484Y-12317207D01*
X12461008Y-12335210D01*
X12460991Y-12354704D01*
X12468436Y-12372720D01*
X12473500Y-12377793D01*
X12473500Y-12378500D01*
X11885000Y-12378500D01*
X11871032Y-12381278D01*
X11859191Y-12389191D01*
X11839881Y-12408500D01*
X11632800Y-12408500D01*
X11627792Y-12403484D01*
X11609789Y-12396008D01*
X11590296Y-12395991D01*
X11572280Y-12403436D01*
X11558484Y-12417207D01*
X11551008Y-12435210D01*
X11550991Y-12454704D01*
X11558436Y-12472720D01*
X11572207Y-12486516D01*
X11590210Y-12493991D01*
X11609704Y-12494008D01*
X11627720Y-12486564D01*
X11632793Y-12481500D01*
X11855000Y-12481500D01*
X11868968Y-12478722D01*
X11871667Y-12476918D01*
X11859541Y-12495066D01*
X11851140Y-12537299D01*
X11851140Y-12572701D01*
X11859541Y-12614933D01*
X11883464Y-12650737D01*
X11919267Y-12674660D01*
X11961500Y-12683061D01*
X12003733Y-12674660D01*
X12039536Y-12650737D01*
X12063459Y-12614933D01*
X12071860Y-12572701D01*
X12071860Y-12537299D01*
X12063459Y-12495066D01*
X12039536Y-12459263D01*
X12027918Y-12451500D01*
X12149082Y-12451500D01*
X12137464Y-12459263D01*
X12113541Y-12495066D01*
X12105140Y-12537299D01*
X12105140Y-12572701D01*
X12113541Y-12614933D01*
X12137464Y-12650737D01*
X12173267Y-12674660D01*
X12215500Y-12683061D01*
X12257733Y-12674660D01*
X12293536Y-12650737D01*
X12317459Y-12614933D01*
X12325860Y-12572701D01*
X12325860Y-12572000D01*
X12339743Y-12572000D01*
X12327295Y-12594545D01*
X12347421Y-12647114D01*
X12386132Y-12687980D01*
X12418467Y-12703500D01*
X10670000Y-12703500D01*
X10668805Y-12703738D01*
X10522267Y-12674589D01*
X10401263Y-12593737D01*
X10320411Y-12472734D01*
X10291621Y-12328000D01*
X10484423Y-12328000D01*
X10476023Y-12348229D01*
X10475977Y-12401537D01*
X10496334Y-12450806D01*
X10533996Y-12488533D01*
X10583229Y-12508977D01*
X10636537Y-12509023D01*
X10685806Y-12488666D01*
X10723533Y-12451004D01*
X10743977Y-12401771D01*
X10744023Y-12348463D01*
X10735568Y-12328000D01*
X10920000Y-12328000D01*
X10922908Y-12327453D01*
X10925578Y-12325734D01*
X10927370Y-12323112D01*
X10928000Y-12320000D01*
X10928000Y-12043714D01*
X12685992Y-12043714D01*
X12692677Y-12059891D01*
X12705043Y-12072280D01*
X12721209Y-12078992D01*
X12728744Y-12078999D01*
X12793000Y-12143255D01*
X12793000Y-12169773D01*
X12787720Y-12175043D01*
X12781008Y-12191209D01*
X12780992Y-12208714D01*
X12787677Y-12224891D01*
X12800043Y-12237280D01*
X12816209Y-12243992D01*
X12833714Y-12244008D01*
X12849891Y-12237323D01*
X12862280Y-12224956D01*
X12868992Y-12208790D01*
X12869008Y-12191286D01*
X12862323Y-12175109D01*
X12857000Y-12169776D01*
X12857000Y-12130000D01*
X12854564Y-12117754D01*
X12847627Y-12107373D01*
X12782021Y-12041767D01*
X14504821Y-12041767D01*
X14522662Y-12076479D01*
X14555898Y-12105608D01*
X14597751Y-12119800D01*
X14615500Y-12106225D01*
X14615500Y-12024500D01*
X14649500Y-12024500D01*
X14649500Y-12106225D01*
X14667249Y-12119800D01*
X14709102Y-12105608D01*
X14742338Y-12076479D01*
X14744353Y-12072557D01*
X14794828Y-12072557D01*
X14816274Y-12113668D01*
X14852366Y-12142781D01*
X14896852Y-12155866D01*
X14915500Y-12141574D01*
X14915500Y-12054500D01*
X14949500Y-12054500D01*
X14949500Y-12141574D01*
X14968148Y-12155866D01*
X15012634Y-12142781D01*
X15048726Y-12113668D01*
X15070172Y-12072557D01*
X15059594Y-12054500D01*
X14949500Y-12054500D01*
X14915500Y-12054500D01*
X14805406Y-12054500D01*
X14794828Y-12072557D01*
X14744353Y-12072557D01*
X14760179Y-12041767D01*
X14749522Y-12024500D01*
X14649500Y-12024500D01*
X14615500Y-12024500D01*
X14515478Y-12024500D01*
X14504821Y-12041767D01*
X12782021Y-12041767D01*
X12774001Y-12033746D01*
X12774008Y-12026286D01*
X12767323Y-12010109D01*
X12759670Y-12002443D01*
X14794828Y-12002443D01*
X14805406Y-12020500D01*
X14915500Y-12020500D01*
X14915500Y-11933426D01*
X14949500Y-11933426D01*
X14949500Y-12020500D01*
X15059594Y-12020500D01*
X15070172Y-12002443D01*
X15048726Y-11961332D01*
X15012634Y-11932219D01*
X14968148Y-11919134D01*
X14949500Y-11933426D01*
X14915500Y-11933426D01*
X14896852Y-11919134D01*
X14852366Y-11932219D01*
X14816274Y-11961332D01*
X14794828Y-12002443D01*
X12759670Y-12002443D01*
X12754956Y-11997720D01*
X12738790Y-11991008D01*
X12721286Y-11990992D01*
X12705109Y-11997677D01*
X12692720Y-12010043D01*
X12686008Y-12026209D01*
X12685992Y-12043714D01*
X10928000Y-12043714D01*
X10928000Y-11863714D01*
X11865992Y-11863714D01*
X11872677Y-11879891D01*
X11885043Y-11892280D01*
X11901209Y-11898992D01*
X11908744Y-11898999D01*
X11995999Y-11986254D01*
X11995992Y-11993714D01*
X12002677Y-12009891D01*
X12015043Y-12022280D01*
X12031209Y-12028992D01*
X12048714Y-12029008D01*
X12064891Y-12022323D01*
X12077280Y-12009956D01*
X12083992Y-11993790D01*
X12084008Y-11976286D01*
X12082746Y-11973233D01*
X14504821Y-11973233D01*
X14515478Y-11990500D01*
X14615500Y-11990500D01*
X14615500Y-11908775D01*
X14649500Y-11908775D01*
X14649500Y-11990500D01*
X14749522Y-11990500D01*
X14760179Y-11973233D01*
X14742338Y-11938521D01*
X14709102Y-11909392D01*
X14667249Y-11895200D01*
X14649500Y-11908775D01*
X14615500Y-11908775D01*
X14597751Y-11895200D01*
X14555898Y-11909392D01*
X14522662Y-11938521D01*
X14504821Y-11973233D01*
X12082746Y-11973233D01*
X12077323Y-11960109D01*
X12064956Y-11947720D01*
X12048790Y-11941008D01*
X12041256Y-11941001D01*
X11954001Y-11853746D01*
X11954008Y-11846286D01*
X11947323Y-11830109D01*
X11934956Y-11817720D01*
X11918790Y-11811008D01*
X11901286Y-11810992D01*
X11885109Y-11817677D01*
X11872720Y-11830043D01*
X11866008Y-11846209D01*
X11865992Y-11863714D01*
X10928000Y-11863714D01*
X10928000Y-11768714D01*
X12605992Y-11768714D01*
X12612677Y-11784891D01*
X12625043Y-11797280D01*
X12641209Y-11803992D01*
X12658714Y-11804008D01*
X12674891Y-11797323D01*
X12687280Y-11784956D01*
X12693992Y-11768790D01*
X12693999Y-11761256D01*
X12853255Y-11602000D01*
X14109773Y-11602000D01*
X14115043Y-11607280D01*
X14131209Y-11613992D01*
X14148714Y-11614008D01*
X14164891Y-11607323D01*
X14177280Y-11594956D01*
X14183992Y-11578790D01*
X14184008Y-11561286D01*
X14182140Y-11556767D01*
X14504821Y-11556767D01*
X14522662Y-11591479D01*
X14555898Y-11620608D01*
X14597751Y-11634800D01*
X14615500Y-11621225D01*
X14615500Y-11539500D01*
X14649500Y-11539500D01*
X14649500Y-11621225D01*
X14667249Y-11634800D01*
X14709102Y-11620608D01*
X14742338Y-11591479D01*
X14760179Y-11556767D01*
X14749522Y-11539500D01*
X14649500Y-11539500D01*
X14615500Y-11539500D01*
X14515478Y-11539500D01*
X14504821Y-11556767D01*
X14182140Y-11556767D01*
X14177323Y-11545109D01*
X14164956Y-11532720D01*
X14152523Y-11527557D01*
X14794828Y-11527557D01*
X14816274Y-11568668D01*
X14852366Y-11597781D01*
X14896852Y-11610866D01*
X14915500Y-11596574D01*
X14915500Y-11509500D01*
X14949500Y-11509500D01*
X14949500Y-11596574D01*
X14968148Y-11610866D01*
X15012634Y-11597781D01*
X15048726Y-11568668D01*
X15070172Y-11527557D01*
X15059594Y-11509500D01*
X14949500Y-11509500D01*
X14915500Y-11509500D01*
X14805406Y-11509500D01*
X14794828Y-11527557D01*
X14152523Y-11527557D01*
X14148790Y-11526008D01*
X14131286Y-11525992D01*
X14115109Y-11532677D01*
X14109776Y-11538000D01*
X12840000Y-11538000D01*
X12827754Y-11540436D01*
X12817373Y-11547373D01*
X12648746Y-11715999D01*
X12641286Y-11715992D01*
X12625109Y-11722677D01*
X12612720Y-11735043D01*
X12606008Y-11751209D01*
X12605992Y-11768714D01*
X10928000Y-11768714D01*
X10928000Y-11488233D01*
X14504821Y-11488233D01*
X14515478Y-11505500D01*
X14615500Y-11505500D01*
X14615500Y-11423775D01*
X14649500Y-11423775D01*
X14649500Y-11505500D01*
X14749522Y-11505500D01*
X14760179Y-11488233D01*
X14744353Y-11457443D01*
X14794828Y-11457443D01*
X14805406Y-11475500D01*
X14915500Y-11475500D01*
X14915500Y-11388426D01*
X14949500Y-11388426D01*
X14949500Y-11475500D01*
X15059594Y-11475500D01*
X15070172Y-11457443D01*
X15048726Y-11416332D01*
X15012634Y-11387219D01*
X14968148Y-11374134D01*
X14949500Y-11388426D01*
X14915500Y-11388426D01*
X14896852Y-11374134D01*
X14852366Y-11387219D01*
X14816274Y-11416332D01*
X14794828Y-11457443D01*
X14744353Y-11457443D01*
X14742338Y-11453521D01*
X14709102Y-11424392D01*
X14667249Y-11410200D01*
X14649500Y-11423775D01*
X14615500Y-11423775D01*
X14597751Y-11410200D01*
X14555898Y-11424392D01*
X14522662Y-11453521D01*
X14504821Y-11488233D01*
X10928000Y-11488233D01*
X10928000Y-11320000D01*
X10927453Y-11317092D01*
X10925735Y-11314422D01*
X10923112Y-11312630D01*
X10920000Y-11312000D01*
X10291500Y-11312000D01*
X10291500Y-11064361D01*
X10465961Y-11064361D01*
X10499991Y-11146720D01*
X10562949Y-11209787D01*
X10645248Y-11243961D01*
X10734361Y-11244039D01*
X10816720Y-11210009D01*
X10879787Y-11147052D01*
X10913961Y-11064752D01*
X10914039Y-10975639D01*
X10909379Y-10964361D01*
X14615961Y-10964361D01*
X14649991Y-11046720D01*
X14712948Y-11109787D01*
X14795248Y-11143961D01*
X14884361Y-11144039D01*
X14966720Y-11110009D01*
X15029787Y-11047052D01*
X15063961Y-10964752D01*
X15064039Y-10875639D01*
X15030009Y-10793280D01*
X14967051Y-10730213D01*
X14884752Y-10696039D01*
X14795639Y-10695961D01*
X14713280Y-10729991D01*
X14650213Y-10792949D01*
X14616039Y-10875248D01*
X14615961Y-10964361D01*
X10909379Y-10964361D01*
X10880009Y-10893280D01*
X10817052Y-10830213D01*
X10734752Y-10796039D01*
X10645639Y-10795961D01*
X10563280Y-10829991D01*
X10500213Y-10892949D01*
X10466039Y-10975248D01*
X10465961Y-11064361D01*
X10291500Y-11064361D01*
X10291500Y-9432610D01*
X10297681Y-9401537D01*
X10475977Y-9401537D01*
X10496334Y-9450806D01*
X10533996Y-9488533D01*
X10583229Y-9508977D01*
X10636537Y-9509023D01*
X10685806Y-9488666D01*
X10723533Y-9451004D01*
X10741998Y-9406537D01*
X14780977Y-9406537D01*
X14801334Y-9455806D01*
X14838996Y-9493533D01*
X14888229Y-9513977D01*
X14941537Y-9514023D01*
X14990806Y-9493666D01*
X15028533Y-9456004D01*
X15048977Y-9406771D01*
X15049023Y-9353463D01*
X15028666Y-9304194D01*
X14991004Y-9266467D01*
X14941771Y-9246023D01*
X14888463Y-9245977D01*
X14839194Y-9266334D01*
X14801467Y-9303996D01*
X14781023Y-9353229D01*
X14780977Y-9406537D01*
X10741998Y-9406537D01*
X10743977Y-9401771D01*
X10744023Y-9348463D01*
X10723666Y-9299194D01*
X10686004Y-9261467D01*
X10636771Y-9241023D01*
X10583463Y-9240977D01*
X10534194Y-9261334D01*
X10496467Y-9298996D01*
X10476023Y-9348229D01*
X10475977Y-9401537D01*
X10297681Y-9401537D01*
X10320411Y-9287266D01*
X10401263Y-9166263D01*
X10522267Y-9085411D01*
X10667610Y-9056500D01*
X14862390Y-9056500D01*
X15007734Y-9085411D01*
G36*
X12486500Y-12538000D02*
X12488500Y-12538000D01*
X12488500Y-12572000D01*
X12486500Y-12572000D01*
X12486500Y-12574000D01*
X12452500Y-12574000D01*
X12452500Y-12572000D01*
X12450500Y-12572000D01*
X12450500Y-12538000D01*
X12452500Y-12538000D01*
X12452500Y-12536000D01*
X12486500Y-12536000D01*
X12486500Y-12538000D01*
X12486500Y-12538000D01*
G37*
X12486500Y-12538000D02*
X12488500Y-12538000D01*
X12488500Y-12572000D01*
X12486500Y-12572000D01*
X12486500Y-12574000D01*
X12452500Y-12574000D01*
X12452500Y-12572000D01*
X12450500Y-12572000D01*
X12450500Y-12538000D01*
X12452500Y-12538000D01*
X12452500Y-12536000D01*
X12486500Y-12536000D01*
X12486500Y-12538000D01*
G36*
X20038500Y-5474468D02*
X20022980Y-5442132D01*
X19982114Y-5403421D01*
X19929545Y-5383295D01*
X19907000Y-5395743D01*
X19907000Y-5381860D01*
X19907701Y-5381860D01*
X19949934Y-5373459D01*
X19985737Y-5349536D01*
X20009660Y-5313733D01*
X20018061Y-5271500D01*
X20009660Y-5229267D01*
X19985737Y-5193464D01*
X19949934Y-5169541D01*
X19907701Y-5161140D01*
X19872299Y-5161140D01*
X19830067Y-5169541D01*
X19794263Y-5193464D01*
X19786500Y-5205082D01*
X19786500Y-5135000D01*
X19785038Y-5127649D01*
X19788400Y-5128330D01*
X19991600Y-5128330D01*
X20000494Y-5126657D01*
X20008662Y-5121400D01*
X20014142Y-5113380D01*
X20016070Y-5103860D01*
X20016070Y-4931140D01*
X20014397Y-4922246D01*
X20009140Y-4914078D01*
X20001120Y-4908598D01*
X19991600Y-4906670D01*
X19788400Y-4906670D01*
X19779506Y-4908343D01*
X19771338Y-4913600D01*
X19765858Y-4921620D01*
X19763930Y-4931140D01*
X19763930Y-5097311D01*
X19696619Y-5030000D01*
X19697621Y-5028998D01*
X19709704Y-5029009D01*
X19727720Y-5021564D01*
X19741516Y-5007793D01*
X19748992Y-4989790D01*
X19749009Y-4970296D01*
X19741564Y-4952280D01*
X19727793Y-4938484D01*
X19709790Y-4931009D01*
X19690296Y-4930992D01*
X19672280Y-4938436D01*
X19658484Y-4952208D01*
X19651009Y-4970211D01*
X19651007Y-4972375D01*
X19645000Y-4978381D01*
X19634002Y-4967384D01*
X19634009Y-4960296D01*
X19626564Y-4942280D01*
X19612793Y-4928484D01*
X19594790Y-4921009D01*
X19575296Y-4920992D01*
X19557280Y-4928436D01*
X19543484Y-4942208D01*
X19536009Y-4960211D01*
X19535992Y-4979704D01*
X19543436Y-4997720D01*
X19557208Y-5011516D01*
X19575211Y-5018992D01*
X19582379Y-5018998D01*
X19713500Y-5150119D01*
X19713500Y-5448500D01*
X19712800Y-5448500D01*
X19707793Y-5443484D01*
X19689790Y-5436009D01*
X19670296Y-5435992D01*
X19652280Y-5443436D01*
X19638484Y-5457208D01*
X19631009Y-5475211D01*
X19630992Y-5494704D01*
X19638436Y-5512720D01*
X19652208Y-5526516D01*
X19670211Y-5533992D01*
X19689704Y-5534009D01*
X19707720Y-5526564D01*
X19712793Y-5521500D01*
X19713500Y-5521500D01*
X19713500Y-6110000D01*
X19716278Y-6123968D01*
X19724191Y-6135809D01*
X19743500Y-6155119D01*
X19743500Y-6362200D01*
X19738484Y-6367207D01*
X19731009Y-6385210D01*
X19730992Y-6404704D01*
X19738436Y-6422720D01*
X19752208Y-6436516D01*
X19770211Y-6443991D01*
X19789704Y-6444008D01*
X19807720Y-6436564D01*
X19821516Y-6422792D01*
X19828992Y-6404789D01*
X19829009Y-6385296D01*
X19821564Y-6367280D01*
X19816500Y-6362207D01*
X19816500Y-6140000D01*
X19813722Y-6126032D01*
X19813722Y-6126032D01*
X19811918Y-6123333D01*
X19830067Y-6135459D01*
X19872299Y-6143860D01*
X19907701Y-6143860D01*
X19949934Y-6135459D01*
X19985737Y-6111536D01*
X20009660Y-6075733D01*
X20018061Y-6033500D01*
X20009660Y-5991267D01*
X19985737Y-5955464D01*
X19949934Y-5931541D01*
X19907701Y-5923140D01*
X19872299Y-5923140D01*
X19830067Y-5931541D01*
X19794263Y-5955464D01*
X19786500Y-5967082D01*
X19786500Y-5845918D01*
X19794263Y-5857536D01*
X19830067Y-5881459D01*
X19872299Y-5889860D01*
X19907701Y-5889860D01*
X19949934Y-5881459D01*
X19985737Y-5857536D01*
X20009660Y-5821733D01*
X20018061Y-5779500D01*
X20009660Y-5737267D01*
X19985737Y-5701464D01*
X19949934Y-5677541D01*
X19907701Y-5669140D01*
X19907000Y-5669140D01*
X19907000Y-5655257D01*
X19929545Y-5667705D01*
X19982114Y-5647579D01*
X20022980Y-5608868D01*
X20038500Y-5576533D01*
X20038500Y-7703500D01*
X19663000Y-7703500D01*
X19663000Y-7510577D01*
X19683229Y-7518977D01*
X19736537Y-7519023D01*
X19785806Y-7498666D01*
X19823533Y-7461004D01*
X19843977Y-7411771D01*
X19844023Y-7358463D01*
X19823666Y-7309194D01*
X19786004Y-7271467D01*
X19736771Y-7251023D01*
X19683463Y-7250977D01*
X19663000Y-7259432D01*
X19663000Y-7075000D01*
X19662453Y-7072092D01*
X19660735Y-7069422D01*
X19658112Y-7067630D01*
X19655000Y-7067000D01*
X18655000Y-7067000D01*
X18652092Y-7067547D01*
X18649422Y-7069265D01*
X18647630Y-7071888D01*
X18647000Y-7075000D01*
X18647000Y-7703500D01*
X16391500Y-7703500D01*
X16391500Y-7411537D01*
X16575977Y-7411537D01*
X16596334Y-7460806D01*
X16633996Y-7498533D01*
X16683229Y-7518977D01*
X16736537Y-7519023D01*
X16785806Y-7498666D01*
X16823533Y-7461004D01*
X16843977Y-7411771D01*
X16844023Y-7358463D01*
X16840263Y-7349361D01*
X18130961Y-7349361D01*
X18164991Y-7431720D01*
X18227949Y-7494787D01*
X18310248Y-7528961D01*
X18399361Y-7529039D01*
X18481720Y-7495009D01*
X18544787Y-7432051D01*
X18578961Y-7349752D01*
X18579039Y-7260639D01*
X18545009Y-7178280D01*
X18482052Y-7115213D01*
X18399752Y-7081039D01*
X18310639Y-7080961D01*
X18228280Y-7114991D01*
X18165213Y-7177948D01*
X18131039Y-7260248D01*
X18130961Y-7349361D01*
X16840263Y-7349361D01*
X16823666Y-7309194D01*
X16786004Y-7271467D01*
X16736771Y-7251023D01*
X16683463Y-7250977D01*
X16634194Y-7271334D01*
X16596467Y-7308996D01*
X16576023Y-7358229D01*
X16575977Y-7411537D01*
X16391500Y-7411537D01*
X16391500Y-6093714D01*
X19145992Y-6093714D01*
X19152677Y-6109891D01*
X19165044Y-6122280D01*
X19181210Y-6128992D01*
X19198714Y-6129008D01*
X19214891Y-6122323D01*
X19227280Y-6109956D01*
X19233992Y-6093790D01*
X19233999Y-6086256D01*
X19321254Y-5999001D01*
X19328714Y-5999008D01*
X19344891Y-5992323D01*
X19357280Y-5979956D01*
X19363992Y-5963790D01*
X19364008Y-5946286D01*
X19357323Y-5930109D01*
X19344957Y-5917720D01*
X19328791Y-5911008D01*
X19311286Y-5910992D01*
X19295109Y-5917677D01*
X19282720Y-5930043D01*
X19276008Y-5946209D01*
X19276001Y-5953744D01*
X19188746Y-6040999D01*
X19181286Y-6040992D01*
X19165109Y-6047677D01*
X19152720Y-6060043D01*
X19146008Y-6076209D01*
X19145992Y-6093714D01*
X16391500Y-6093714D01*
X16391500Y-3863714D01*
X18860992Y-3863714D01*
X18867677Y-3879891D01*
X18873000Y-3885224D01*
X18873000Y-5155000D01*
X18875436Y-5167246D01*
X18878278Y-5171500D01*
X18882373Y-5177627D01*
X19050999Y-5346254D01*
X19050992Y-5353714D01*
X19057677Y-5369891D01*
X19070044Y-5382280D01*
X19086210Y-5388992D01*
X19103714Y-5389008D01*
X19119891Y-5382323D01*
X19132280Y-5369957D01*
X19138992Y-5353791D01*
X19139008Y-5336286D01*
X19132323Y-5320109D01*
X19119957Y-5307720D01*
X19103791Y-5301008D01*
X19096256Y-5301001D01*
X19068969Y-5273714D01*
X19325992Y-5273714D01*
X19332677Y-5289891D01*
X19345044Y-5302280D01*
X19361210Y-5308992D01*
X19378714Y-5309008D01*
X19394891Y-5302323D01*
X19407280Y-5289957D01*
X19413992Y-5273791D01*
X19413999Y-5266256D01*
X19478255Y-5202000D01*
X19504773Y-5202000D01*
X19510044Y-5207280D01*
X19526210Y-5213992D01*
X19543714Y-5214008D01*
X19559891Y-5207323D01*
X19572280Y-5194957D01*
X19578992Y-5178791D01*
X19579008Y-5161286D01*
X19572323Y-5145109D01*
X19559957Y-5132720D01*
X19543791Y-5126008D01*
X19526286Y-5125992D01*
X19510109Y-5132677D01*
X19504776Y-5138000D01*
X19465000Y-5138000D01*
X19452754Y-5140436D01*
X19445761Y-5145109D01*
X19442373Y-5147373D01*
X19368746Y-5220999D01*
X19361286Y-5220992D01*
X19345109Y-5227677D01*
X19332720Y-5240044D01*
X19326008Y-5256210D01*
X19325992Y-5273714D01*
X19068969Y-5273714D01*
X18937000Y-5141745D01*
X18937000Y-4323665D01*
X19630988Y-4323665D01*
X19641471Y-4349034D01*
X19660864Y-4368461D01*
X19686215Y-4378988D01*
X19713665Y-4379012D01*
X19739034Y-4368530D01*
X19758461Y-4349136D01*
X19768988Y-4323785D01*
X19769012Y-4296335D01*
X19758530Y-4270966D01*
X19739136Y-4251539D01*
X19713785Y-4241012D01*
X19686335Y-4240988D01*
X19660966Y-4251471D01*
X19641539Y-4270864D01*
X19631012Y-4296215D01*
X19630988Y-4323665D01*
X18937000Y-4323665D01*
X18937000Y-3885227D01*
X18942280Y-3879956D01*
X18948992Y-3863790D01*
X18949008Y-3846286D01*
X18942323Y-3830109D01*
X18929957Y-3817720D01*
X18913791Y-3811008D01*
X18896286Y-3810992D01*
X18880109Y-3817677D01*
X18867720Y-3830043D01*
X18861008Y-3846209D01*
X18860992Y-3863714D01*
X16391500Y-3863714D01*
X16391500Y-3643665D01*
X19630988Y-3643665D01*
X19641471Y-3669034D01*
X19660864Y-3688461D01*
X19686215Y-3698988D01*
X19713665Y-3699012D01*
X19739034Y-3688529D01*
X19758461Y-3669136D01*
X19768988Y-3643785D01*
X19769012Y-3616335D01*
X19758530Y-3590966D01*
X19739136Y-3571539D01*
X19713785Y-3561012D01*
X19686335Y-3560988D01*
X19660966Y-3571470D01*
X19641539Y-3590864D01*
X19631012Y-3616215D01*
X19630988Y-3643665D01*
X16391500Y-3643665D01*
X16391500Y-3397249D01*
X18745200Y-3397249D01*
X18759392Y-3439102D01*
X18788521Y-3472338D01*
X18823233Y-3490179D01*
X18840500Y-3479522D01*
X18840500Y-3379500D01*
X18874500Y-3379500D01*
X18874500Y-3479522D01*
X18891767Y-3490179D01*
X18926479Y-3472338D01*
X18955608Y-3439102D01*
X18969800Y-3397249D01*
X19230200Y-3397249D01*
X19244392Y-3439102D01*
X19273521Y-3472338D01*
X19308233Y-3490179D01*
X19325500Y-3479522D01*
X19325500Y-3379500D01*
X19359500Y-3379500D01*
X19359500Y-3479522D01*
X19376767Y-3490179D01*
X19411479Y-3472338D01*
X19440608Y-3439102D01*
X19454800Y-3397249D01*
X19441225Y-3379500D01*
X19359500Y-3379500D01*
X19325500Y-3379500D01*
X19243775Y-3379500D01*
X19230200Y-3397249D01*
X18969800Y-3397249D01*
X18956225Y-3379500D01*
X18874500Y-3379500D01*
X18840500Y-3379500D01*
X18758775Y-3379500D01*
X18745200Y-3397249D01*
X16391500Y-3397249D01*
X16391500Y-3106537D01*
X16580977Y-3106537D01*
X16601334Y-3155806D01*
X16638996Y-3193533D01*
X16688229Y-3213977D01*
X16741537Y-3214023D01*
X16777023Y-3199361D01*
X18030961Y-3199361D01*
X18064991Y-3281720D01*
X18127949Y-3344787D01*
X18210248Y-3378961D01*
X18299361Y-3379039D01*
X18381720Y-3345009D01*
X18399008Y-3327751D01*
X18745200Y-3327751D01*
X18758775Y-3345500D01*
X18840500Y-3345500D01*
X18840500Y-3245478D01*
X18874500Y-3245478D01*
X18874500Y-3345500D01*
X18956225Y-3345500D01*
X18969800Y-3327751D01*
X19230200Y-3327751D01*
X19243775Y-3345500D01*
X19325500Y-3345500D01*
X19325500Y-3245478D01*
X19359500Y-3245478D01*
X19359500Y-3345500D01*
X19441225Y-3345500D01*
X19454800Y-3327751D01*
X19440608Y-3285898D01*
X19411479Y-3252662D01*
X19376767Y-3234821D01*
X19359500Y-3245478D01*
X19325500Y-3245478D01*
X19308233Y-3234821D01*
X19273521Y-3252662D01*
X19244392Y-3285898D01*
X19230200Y-3327751D01*
X18969800Y-3327751D01*
X18955608Y-3285898D01*
X18926479Y-3252662D01*
X18891767Y-3234821D01*
X18874500Y-3245478D01*
X18840500Y-3245478D01*
X18823233Y-3234821D01*
X18788521Y-3252662D01*
X18759392Y-3285898D01*
X18745200Y-3327751D01*
X18399008Y-3327751D01*
X18444787Y-3282051D01*
X18478961Y-3199752D01*
X18479039Y-3110639D01*
X18473878Y-3098148D01*
X18709134Y-3098148D01*
X18722219Y-3142634D01*
X18751332Y-3178726D01*
X18792443Y-3200172D01*
X18810500Y-3189594D01*
X18810500Y-3079500D01*
X18844500Y-3079500D01*
X18844500Y-3189594D01*
X18862557Y-3200172D01*
X18903668Y-3178726D01*
X18932781Y-3142634D01*
X18945866Y-3098148D01*
X19254134Y-3098148D01*
X19267219Y-3142634D01*
X19296332Y-3178726D01*
X19337443Y-3200172D01*
X19355500Y-3189594D01*
X19355500Y-3079500D01*
X19389500Y-3079500D01*
X19389500Y-3189594D01*
X19407557Y-3200172D01*
X19448668Y-3178726D01*
X19477781Y-3142634D01*
X19486927Y-3111537D01*
X19575977Y-3111537D01*
X19596334Y-3160806D01*
X19633996Y-3198533D01*
X19683229Y-3218977D01*
X19736537Y-3219023D01*
X19785806Y-3198666D01*
X19823533Y-3161004D01*
X19843977Y-3111771D01*
X19844023Y-3058463D01*
X19823666Y-3009194D01*
X19786004Y-2971467D01*
X19736771Y-2951023D01*
X19683463Y-2950977D01*
X19634194Y-2971334D01*
X19596467Y-3008996D01*
X19576023Y-3058229D01*
X19575977Y-3111537D01*
X19486927Y-3111537D01*
X19490866Y-3098148D01*
X19476574Y-3079500D01*
X19389500Y-3079500D01*
X19355500Y-3079500D01*
X19268426Y-3079500D01*
X19254134Y-3098148D01*
X18945866Y-3098148D01*
X18931574Y-3079500D01*
X18844500Y-3079500D01*
X18810500Y-3079500D01*
X18723426Y-3079500D01*
X18709134Y-3098148D01*
X18473878Y-3098148D01*
X18445009Y-3028280D01*
X18443584Y-3026852D01*
X18709134Y-3026852D01*
X18723426Y-3045500D01*
X18810500Y-3045500D01*
X18810500Y-2935406D01*
X18844500Y-2935406D01*
X18844500Y-3045500D01*
X18931574Y-3045500D01*
X18945866Y-3026852D01*
X19254134Y-3026852D01*
X19268426Y-3045500D01*
X19355500Y-3045500D01*
X19355500Y-2935406D01*
X19389500Y-2935406D01*
X19389500Y-3045500D01*
X19476574Y-3045500D01*
X19490866Y-3026852D01*
X19477781Y-2982366D01*
X19448668Y-2946274D01*
X19407557Y-2924828D01*
X19389500Y-2935406D01*
X19355500Y-2935406D01*
X19337443Y-2924828D01*
X19296332Y-2946274D01*
X19267219Y-2982366D01*
X19254134Y-3026852D01*
X18945866Y-3026852D01*
X18932781Y-2982366D01*
X18903668Y-2946274D01*
X18862557Y-2924828D01*
X18844500Y-2935406D01*
X18810500Y-2935406D01*
X18792443Y-2924828D01*
X18751332Y-2946274D01*
X18722219Y-2982366D01*
X18709134Y-3026852D01*
X18443584Y-3026852D01*
X18382052Y-2965213D01*
X18299752Y-2931039D01*
X18210639Y-2930961D01*
X18128280Y-2964991D01*
X18065213Y-3027948D01*
X18031039Y-3110248D01*
X18030961Y-3199361D01*
X16777023Y-3199361D01*
X16790806Y-3193666D01*
X16828533Y-3156004D01*
X16848977Y-3106771D01*
X16849023Y-3053463D01*
X16828666Y-3004194D01*
X16791004Y-2966467D01*
X16741771Y-2946023D01*
X16688463Y-2945977D01*
X16639194Y-2966334D01*
X16601467Y-3003996D01*
X16581023Y-3053229D01*
X16580977Y-3106537D01*
X16391500Y-3106537D01*
X16391500Y-2756500D01*
X20038500Y-2756500D01*
X20038500Y-5474468D01*
X20038500Y-5474468D01*
G37*
X20038500Y-5474468D02*
X20022980Y-5442132D01*
X19982114Y-5403421D01*
X19929545Y-5383295D01*
X19907000Y-5395743D01*
X19907000Y-5381860D01*
X19907701Y-5381860D01*
X19949934Y-5373459D01*
X19985737Y-5349536D01*
X20009660Y-5313733D01*
X20018061Y-5271500D01*
X20009660Y-5229267D01*
X19985737Y-5193464D01*
X19949934Y-5169541D01*
X19907701Y-5161140D01*
X19872299Y-5161140D01*
X19830067Y-5169541D01*
X19794263Y-5193464D01*
X19786500Y-5205082D01*
X19786500Y-5135000D01*
X19785038Y-5127649D01*
X19788400Y-5128330D01*
X19991600Y-5128330D01*
X20000494Y-5126657D01*
X20008662Y-5121400D01*
X20014142Y-5113380D01*
X20016070Y-5103860D01*
X20016070Y-4931140D01*
X20014397Y-4922246D01*
X20009140Y-4914078D01*
X20001120Y-4908598D01*
X19991600Y-4906670D01*
X19788400Y-4906670D01*
X19779506Y-4908343D01*
X19771338Y-4913600D01*
X19765858Y-4921620D01*
X19763930Y-4931140D01*
X19763930Y-5097311D01*
X19696619Y-5030000D01*
X19697621Y-5028998D01*
X19709704Y-5029009D01*
X19727720Y-5021564D01*
X19741516Y-5007793D01*
X19748992Y-4989790D01*
X19749009Y-4970296D01*
X19741564Y-4952280D01*
X19727793Y-4938484D01*
X19709790Y-4931009D01*
X19690296Y-4930992D01*
X19672280Y-4938436D01*
X19658484Y-4952208D01*
X19651009Y-4970211D01*
X19651007Y-4972375D01*
X19645000Y-4978381D01*
X19634002Y-4967384D01*
X19634009Y-4960296D01*
X19626564Y-4942280D01*
X19612793Y-4928484D01*
X19594790Y-4921009D01*
X19575296Y-4920992D01*
X19557280Y-4928436D01*
X19543484Y-4942208D01*
X19536009Y-4960211D01*
X19535992Y-4979704D01*
X19543436Y-4997720D01*
X19557208Y-5011516D01*
X19575211Y-5018992D01*
X19582379Y-5018998D01*
X19713500Y-5150119D01*
X19713500Y-5448500D01*
X19712800Y-5448500D01*
X19707793Y-5443484D01*
X19689790Y-5436009D01*
X19670296Y-5435992D01*
X19652280Y-5443436D01*
X19638484Y-5457208D01*
X19631009Y-5475211D01*
X19630992Y-5494704D01*
X19638436Y-5512720D01*
X19652208Y-5526516D01*
X19670211Y-5533992D01*
X19689704Y-5534009D01*
X19707720Y-5526564D01*
X19712793Y-5521500D01*
X19713500Y-5521500D01*
X19713500Y-6110000D01*
X19716278Y-6123968D01*
X19724191Y-6135809D01*
X19743500Y-6155119D01*
X19743500Y-6362200D01*
X19738484Y-6367207D01*
X19731009Y-6385210D01*
X19730992Y-6404704D01*
X19738436Y-6422720D01*
X19752208Y-6436516D01*
X19770211Y-6443991D01*
X19789704Y-6444008D01*
X19807720Y-6436564D01*
X19821516Y-6422792D01*
X19828992Y-6404789D01*
X19829009Y-6385296D01*
X19821564Y-6367280D01*
X19816500Y-6362207D01*
X19816500Y-6140000D01*
X19813722Y-6126032D01*
X19813722Y-6126032D01*
X19811918Y-6123333D01*
X19830067Y-6135459D01*
X19872299Y-6143860D01*
X19907701Y-6143860D01*
X19949934Y-6135459D01*
X19985737Y-6111536D01*
X20009660Y-6075733D01*
X20018061Y-6033500D01*
X20009660Y-5991267D01*
X19985737Y-5955464D01*
X19949934Y-5931541D01*
X19907701Y-5923140D01*
X19872299Y-5923140D01*
X19830067Y-5931541D01*
X19794263Y-5955464D01*
X19786500Y-5967082D01*
X19786500Y-5845918D01*
X19794263Y-5857536D01*
X19830067Y-5881459D01*
X19872299Y-5889860D01*
X19907701Y-5889860D01*
X19949934Y-5881459D01*
X19985737Y-5857536D01*
X20009660Y-5821733D01*
X20018061Y-5779500D01*
X20009660Y-5737267D01*
X19985737Y-5701464D01*
X19949934Y-5677541D01*
X19907701Y-5669140D01*
X19907000Y-5669140D01*
X19907000Y-5655257D01*
X19929545Y-5667705D01*
X19982114Y-5647579D01*
X20022980Y-5608868D01*
X20038500Y-5576533D01*
X20038500Y-7703500D01*
X19663000Y-7703500D01*
X19663000Y-7510577D01*
X19683229Y-7518977D01*
X19736537Y-7519023D01*
X19785806Y-7498666D01*
X19823533Y-7461004D01*
X19843977Y-7411771D01*
X19844023Y-7358463D01*
X19823666Y-7309194D01*
X19786004Y-7271467D01*
X19736771Y-7251023D01*
X19683463Y-7250977D01*
X19663000Y-7259432D01*
X19663000Y-7075000D01*
X19662453Y-7072092D01*
X19660735Y-7069422D01*
X19658112Y-7067630D01*
X19655000Y-7067000D01*
X18655000Y-7067000D01*
X18652092Y-7067547D01*
X18649422Y-7069265D01*
X18647630Y-7071888D01*
X18647000Y-7075000D01*
X18647000Y-7703500D01*
X16391500Y-7703500D01*
X16391500Y-7411537D01*
X16575977Y-7411537D01*
X16596334Y-7460806D01*
X16633996Y-7498533D01*
X16683229Y-7518977D01*
X16736537Y-7519023D01*
X16785806Y-7498666D01*
X16823533Y-7461004D01*
X16843977Y-7411771D01*
X16844023Y-7358463D01*
X16840263Y-7349361D01*
X18130961Y-7349361D01*
X18164991Y-7431720D01*
X18227949Y-7494787D01*
X18310248Y-7528961D01*
X18399361Y-7529039D01*
X18481720Y-7495009D01*
X18544787Y-7432051D01*
X18578961Y-7349752D01*
X18579039Y-7260639D01*
X18545009Y-7178280D01*
X18482052Y-7115213D01*
X18399752Y-7081039D01*
X18310639Y-7080961D01*
X18228280Y-7114991D01*
X18165213Y-7177948D01*
X18131039Y-7260248D01*
X18130961Y-7349361D01*
X16840263Y-7349361D01*
X16823666Y-7309194D01*
X16786004Y-7271467D01*
X16736771Y-7251023D01*
X16683463Y-7250977D01*
X16634194Y-7271334D01*
X16596467Y-7308996D01*
X16576023Y-7358229D01*
X16575977Y-7411537D01*
X16391500Y-7411537D01*
X16391500Y-6093714D01*
X19145992Y-6093714D01*
X19152677Y-6109891D01*
X19165044Y-6122280D01*
X19181210Y-6128992D01*
X19198714Y-6129008D01*
X19214891Y-6122323D01*
X19227280Y-6109956D01*
X19233992Y-6093790D01*
X19233999Y-6086256D01*
X19321254Y-5999001D01*
X19328714Y-5999008D01*
X19344891Y-5992323D01*
X19357280Y-5979956D01*
X19363992Y-5963790D01*
X19364008Y-5946286D01*
X19357323Y-5930109D01*
X19344957Y-5917720D01*
X19328791Y-5911008D01*
X19311286Y-5910992D01*
X19295109Y-5917677D01*
X19282720Y-5930043D01*
X19276008Y-5946209D01*
X19276001Y-5953744D01*
X19188746Y-6040999D01*
X19181286Y-6040992D01*
X19165109Y-6047677D01*
X19152720Y-6060043D01*
X19146008Y-6076209D01*
X19145992Y-6093714D01*
X16391500Y-6093714D01*
X16391500Y-3863714D01*
X18860992Y-3863714D01*
X18867677Y-3879891D01*
X18873000Y-3885224D01*
X18873000Y-5155000D01*
X18875436Y-5167246D01*
X18878278Y-5171500D01*
X18882373Y-5177627D01*
X19050999Y-5346254D01*
X19050992Y-5353714D01*
X19057677Y-5369891D01*
X19070044Y-5382280D01*
X19086210Y-5388992D01*
X19103714Y-5389008D01*
X19119891Y-5382323D01*
X19132280Y-5369957D01*
X19138992Y-5353791D01*
X19139008Y-5336286D01*
X19132323Y-5320109D01*
X19119957Y-5307720D01*
X19103791Y-5301008D01*
X19096256Y-5301001D01*
X19068969Y-5273714D01*
X19325992Y-5273714D01*
X19332677Y-5289891D01*
X19345044Y-5302280D01*
X19361210Y-5308992D01*
X19378714Y-5309008D01*
X19394891Y-5302323D01*
X19407280Y-5289957D01*
X19413992Y-5273791D01*
X19413999Y-5266256D01*
X19478255Y-5202000D01*
X19504773Y-5202000D01*
X19510044Y-5207280D01*
X19526210Y-5213992D01*
X19543714Y-5214008D01*
X19559891Y-5207323D01*
X19572280Y-5194957D01*
X19578992Y-5178791D01*
X19579008Y-5161286D01*
X19572323Y-5145109D01*
X19559957Y-5132720D01*
X19543791Y-5126008D01*
X19526286Y-5125992D01*
X19510109Y-5132677D01*
X19504776Y-5138000D01*
X19465000Y-5138000D01*
X19452754Y-5140436D01*
X19445761Y-5145109D01*
X19442373Y-5147373D01*
X19368746Y-5220999D01*
X19361286Y-5220992D01*
X19345109Y-5227677D01*
X19332720Y-5240044D01*
X19326008Y-5256210D01*
X19325992Y-5273714D01*
X19068969Y-5273714D01*
X18937000Y-5141745D01*
X18937000Y-4323665D01*
X19630988Y-4323665D01*
X19641471Y-4349034D01*
X19660864Y-4368461D01*
X19686215Y-4378988D01*
X19713665Y-4379012D01*
X19739034Y-4368530D01*
X19758461Y-4349136D01*
X19768988Y-4323785D01*
X19769012Y-4296335D01*
X19758530Y-4270966D01*
X19739136Y-4251539D01*
X19713785Y-4241012D01*
X19686335Y-4240988D01*
X19660966Y-4251471D01*
X19641539Y-4270864D01*
X19631012Y-4296215D01*
X19630988Y-4323665D01*
X18937000Y-4323665D01*
X18937000Y-3885227D01*
X18942280Y-3879956D01*
X18948992Y-3863790D01*
X18949008Y-3846286D01*
X18942323Y-3830109D01*
X18929957Y-3817720D01*
X18913791Y-3811008D01*
X18896286Y-3810992D01*
X18880109Y-3817677D01*
X18867720Y-3830043D01*
X18861008Y-3846209D01*
X18860992Y-3863714D01*
X16391500Y-3863714D01*
X16391500Y-3643665D01*
X19630988Y-3643665D01*
X19641471Y-3669034D01*
X19660864Y-3688461D01*
X19686215Y-3698988D01*
X19713665Y-3699012D01*
X19739034Y-3688529D01*
X19758461Y-3669136D01*
X19768988Y-3643785D01*
X19769012Y-3616335D01*
X19758530Y-3590966D01*
X19739136Y-3571539D01*
X19713785Y-3561012D01*
X19686335Y-3560988D01*
X19660966Y-3571470D01*
X19641539Y-3590864D01*
X19631012Y-3616215D01*
X19630988Y-3643665D01*
X16391500Y-3643665D01*
X16391500Y-3397249D01*
X18745200Y-3397249D01*
X18759392Y-3439102D01*
X18788521Y-3472338D01*
X18823233Y-3490179D01*
X18840500Y-3479522D01*
X18840500Y-3379500D01*
X18874500Y-3379500D01*
X18874500Y-3479522D01*
X18891767Y-3490179D01*
X18926479Y-3472338D01*
X18955608Y-3439102D01*
X18969800Y-3397249D01*
X19230200Y-3397249D01*
X19244392Y-3439102D01*
X19273521Y-3472338D01*
X19308233Y-3490179D01*
X19325500Y-3479522D01*
X19325500Y-3379500D01*
X19359500Y-3379500D01*
X19359500Y-3479522D01*
X19376767Y-3490179D01*
X19411479Y-3472338D01*
X19440608Y-3439102D01*
X19454800Y-3397249D01*
X19441225Y-3379500D01*
X19359500Y-3379500D01*
X19325500Y-3379500D01*
X19243775Y-3379500D01*
X19230200Y-3397249D01*
X18969800Y-3397249D01*
X18956225Y-3379500D01*
X18874500Y-3379500D01*
X18840500Y-3379500D01*
X18758775Y-3379500D01*
X18745200Y-3397249D01*
X16391500Y-3397249D01*
X16391500Y-3106537D01*
X16580977Y-3106537D01*
X16601334Y-3155806D01*
X16638996Y-3193533D01*
X16688229Y-3213977D01*
X16741537Y-3214023D01*
X16777023Y-3199361D01*
X18030961Y-3199361D01*
X18064991Y-3281720D01*
X18127949Y-3344787D01*
X18210248Y-3378961D01*
X18299361Y-3379039D01*
X18381720Y-3345009D01*
X18399008Y-3327751D01*
X18745200Y-3327751D01*
X18758775Y-3345500D01*
X18840500Y-3345500D01*
X18840500Y-3245478D01*
X18874500Y-3245478D01*
X18874500Y-3345500D01*
X18956225Y-3345500D01*
X18969800Y-3327751D01*
X19230200Y-3327751D01*
X19243775Y-3345500D01*
X19325500Y-3345500D01*
X19325500Y-3245478D01*
X19359500Y-3245478D01*
X19359500Y-3345500D01*
X19441225Y-3345500D01*
X19454800Y-3327751D01*
X19440608Y-3285898D01*
X19411479Y-3252662D01*
X19376767Y-3234821D01*
X19359500Y-3245478D01*
X19325500Y-3245478D01*
X19308233Y-3234821D01*
X19273521Y-3252662D01*
X19244392Y-3285898D01*
X19230200Y-3327751D01*
X18969800Y-3327751D01*
X18955608Y-3285898D01*
X18926479Y-3252662D01*
X18891767Y-3234821D01*
X18874500Y-3245478D01*
X18840500Y-3245478D01*
X18823233Y-3234821D01*
X18788521Y-3252662D01*
X18759392Y-3285898D01*
X18745200Y-3327751D01*
X18399008Y-3327751D01*
X18444787Y-3282051D01*
X18478961Y-3199752D01*
X18479039Y-3110639D01*
X18473878Y-3098148D01*
X18709134Y-3098148D01*
X18722219Y-3142634D01*
X18751332Y-3178726D01*
X18792443Y-3200172D01*
X18810500Y-3189594D01*
X18810500Y-3079500D01*
X18844500Y-3079500D01*
X18844500Y-3189594D01*
X18862557Y-3200172D01*
X18903668Y-3178726D01*
X18932781Y-3142634D01*
X18945866Y-3098148D01*
X19254134Y-3098148D01*
X19267219Y-3142634D01*
X19296332Y-3178726D01*
X19337443Y-3200172D01*
X19355500Y-3189594D01*
X19355500Y-3079500D01*
X19389500Y-3079500D01*
X19389500Y-3189594D01*
X19407557Y-3200172D01*
X19448668Y-3178726D01*
X19477781Y-3142634D01*
X19486927Y-3111537D01*
X19575977Y-3111537D01*
X19596334Y-3160806D01*
X19633996Y-3198533D01*
X19683229Y-3218977D01*
X19736537Y-3219023D01*
X19785806Y-3198666D01*
X19823533Y-3161004D01*
X19843977Y-3111771D01*
X19844023Y-3058463D01*
X19823666Y-3009194D01*
X19786004Y-2971467D01*
X19736771Y-2951023D01*
X19683463Y-2950977D01*
X19634194Y-2971334D01*
X19596467Y-3008996D01*
X19576023Y-3058229D01*
X19575977Y-3111537D01*
X19486927Y-3111537D01*
X19490866Y-3098148D01*
X19476574Y-3079500D01*
X19389500Y-3079500D01*
X19355500Y-3079500D01*
X19268426Y-3079500D01*
X19254134Y-3098148D01*
X18945866Y-3098148D01*
X18931574Y-3079500D01*
X18844500Y-3079500D01*
X18810500Y-3079500D01*
X18723426Y-3079500D01*
X18709134Y-3098148D01*
X18473878Y-3098148D01*
X18445009Y-3028280D01*
X18443584Y-3026852D01*
X18709134Y-3026852D01*
X18723426Y-3045500D01*
X18810500Y-3045500D01*
X18810500Y-2935406D01*
X18844500Y-2935406D01*
X18844500Y-3045500D01*
X18931574Y-3045500D01*
X18945866Y-3026852D01*
X19254134Y-3026852D01*
X19268426Y-3045500D01*
X19355500Y-3045500D01*
X19355500Y-2935406D01*
X19389500Y-2935406D01*
X19389500Y-3045500D01*
X19476574Y-3045500D01*
X19490866Y-3026852D01*
X19477781Y-2982366D01*
X19448668Y-2946274D01*
X19407557Y-2924828D01*
X19389500Y-2935406D01*
X19355500Y-2935406D01*
X19337443Y-2924828D01*
X19296332Y-2946274D01*
X19267219Y-2982366D01*
X19254134Y-3026852D01*
X18945866Y-3026852D01*
X18932781Y-2982366D01*
X18903668Y-2946274D01*
X18862557Y-2924828D01*
X18844500Y-2935406D01*
X18810500Y-2935406D01*
X18792443Y-2924828D01*
X18751332Y-2946274D01*
X18722219Y-2982366D01*
X18709134Y-3026852D01*
X18443584Y-3026852D01*
X18382052Y-2965213D01*
X18299752Y-2931039D01*
X18210639Y-2930961D01*
X18128280Y-2964991D01*
X18065213Y-3027948D01*
X18031039Y-3110248D01*
X18030961Y-3199361D01*
X16777023Y-3199361D01*
X16790806Y-3193666D01*
X16828533Y-3156004D01*
X16848977Y-3106771D01*
X16849023Y-3053463D01*
X16828666Y-3004194D01*
X16791004Y-2966467D01*
X16741771Y-2946023D01*
X16688463Y-2945977D01*
X16639194Y-2966334D01*
X16601467Y-3003996D01*
X16581023Y-3053229D01*
X16580977Y-3106537D01*
X16391500Y-3106537D01*
X16391500Y-2756500D01*
X20038500Y-2756500D01*
X20038500Y-5474468D01*
G36*
X19907000Y-5508500D02*
X19909000Y-5508500D01*
X19909000Y-5542500D01*
X19907000Y-5542500D01*
X19907000Y-5544500D01*
X19873000Y-5544500D01*
X19873000Y-5542500D01*
X19871000Y-5542500D01*
X19871000Y-5508500D01*
X19873000Y-5508500D01*
X19873000Y-5506500D01*
X19907000Y-5506500D01*
X19907000Y-5508500D01*
X19907000Y-5508500D01*
G37*
X19907000Y-5508500D02*
X19909000Y-5508500D01*
X19909000Y-5542500D01*
X19907000Y-5542500D01*
X19907000Y-5544500D01*
X19873000Y-5544500D01*
X19873000Y-5542500D01*
X19871000Y-5542500D01*
X19871000Y-5508500D01*
X19873000Y-5508500D01*
X19873000Y-5506500D01*
X19907000Y-5506500D01*
X19907000Y-5508500D01*
G36*
X20038500Y-10474468D02*
X20022980Y-10442132D01*
X19982114Y-10403421D01*
X19929545Y-10383295D01*
X19907000Y-10395743D01*
X19907000Y-10381860D01*
X19907701Y-10381860D01*
X19949934Y-10373459D01*
X19985737Y-10349536D01*
X20009660Y-10313733D01*
X20018061Y-10271500D01*
X20009660Y-10229267D01*
X19985737Y-10193464D01*
X19949934Y-10169541D01*
X19907701Y-10161140D01*
X19872299Y-10161140D01*
X19830067Y-10169541D01*
X19794263Y-10193464D01*
X19786500Y-10205082D01*
X19786500Y-10135000D01*
X19785038Y-10127649D01*
X19788400Y-10128330D01*
X19991600Y-10128330D01*
X20000494Y-10126657D01*
X20008662Y-10121400D01*
X20014142Y-10113380D01*
X20016070Y-10103860D01*
X20016070Y-9931140D01*
X20014397Y-9922246D01*
X20009140Y-9914078D01*
X20001120Y-9908598D01*
X19991600Y-9906670D01*
X19788400Y-9906670D01*
X19779506Y-9908343D01*
X19771338Y-9913600D01*
X19765858Y-9921620D01*
X19763930Y-9931140D01*
X19763930Y-10097311D01*
X19696619Y-10030000D01*
X19697621Y-10028998D01*
X19709704Y-10029009D01*
X19727720Y-10021564D01*
X19741516Y-10007793D01*
X19748992Y-9989790D01*
X19749009Y-9970296D01*
X19741564Y-9952280D01*
X19727793Y-9938484D01*
X19709790Y-9931009D01*
X19690296Y-9930992D01*
X19672280Y-9938436D01*
X19658484Y-9952208D01*
X19651009Y-9970211D01*
X19651007Y-9972375D01*
X19645000Y-9978381D01*
X19634002Y-9967384D01*
X19634009Y-9960296D01*
X19626564Y-9942280D01*
X19612793Y-9928484D01*
X19594790Y-9921009D01*
X19575296Y-9920992D01*
X19557280Y-9928436D01*
X19543484Y-9942208D01*
X19536009Y-9960211D01*
X19535992Y-9979704D01*
X19543436Y-9997720D01*
X19557208Y-10011516D01*
X19575211Y-10018992D01*
X19582379Y-10018998D01*
X19713500Y-10150119D01*
X19713500Y-10448500D01*
X19712800Y-10448500D01*
X19707793Y-10443484D01*
X19689790Y-10436009D01*
X19670296Y-10435992D01*
X19652280Y-10443436D01*
X19638484Y-10457208D01*
X19631009Y-10475211D01*
X19630992Y-10494704D01*
X19638436Y-10512720D01*
X19652208Y-10526516D01*
X19670211Y-10533992D01*
X19689704Y-10534009D01*
X19707720Y-10526564D01*
X19712793Y-10521500D01*
X19713500Y-10521500D01*
X19713500Y-11110000D01*
X19716278Y-11123968D01*
X19724191Y-11135809D01*
X19743500Y-11155119D01*
X19743500Y-11362200D01*
X19738484Y-11367207D01*
X19731009Y-11385210D01*
X19730992Y-11404704D01*
X19738436Y-11422720D01*
X19752208Y-11436516D01*
X19770211Y-11443991D01*
X19789704Y-11444008D01*
X19807720Y-11436564D01*
X19821516Y-11422792D01*
X19828992Y-11404789D01*
X19829009Y-11385296D01*
X19821564Y-11367280D01*
X19816500Y-11362207D01*
X19816500Y-11140000D01*
X19813722Y-11126032D01*
X19813722Y-11126032D01*
X19811918Y-11123333D01*
X19830067Y-11135459D01*
X19872299Y-11143860D01*
X19907701Y-11143860D01*
X19949934Y-11135459D01*
X19985737Y-11111536D01*
X20009660Y-11075733D01*
X20018061Y-11033500D01*
X20009660Y-10991267D01*
X19985737Y-10955464D01*
X19949934Y-10931541D01*
X19907701Y-10923140D01*
X19872299Y-10923140D01*
X19830067Y-10931541D01*
X19794263Y-10955464D01*
X19786500Y-10967082D01*
X19786500Y-10845918D01*
X19794263Y-10857536D01*
X19830067Y-10881459D01*
X19872299Y-10889860D01*
X19907701Y-10889860D01*
X19949934Y-10881459D01*
X19985737Y-10857536D01*
X20009660Y-10821733D01*
X20018061Y-10779500D01*
X20009660Y-10737267D01*
X19985737Y-10701464D01*
X19949934Y-10677541D01*
X19907701Y-10669140D01*
X19907000Y-10669140D01*
X19907000Y-10655257D01*
X19929545Y-10667705D01*
X19982114Y-10647579D01*
X20022980Y-10608868D01*
X20038500Y-10576533D01*
X20038500Y-12703500D01*
X19663000Y-12703500D01*
X19663000Y-12510577D01*
X19683229Y-12518977D01*
X19736537Y-12519023D01*
X19785806Y-12498666D01*
X19823533Y-12461004D01*
X19843977Y-12411771D01*
X19844023Y-12358463D01*
X19823666Y-12309194D01*
X19786004Y-12271467D01*
X19736771Y-12251023D01*
X19683463Y-12250977D01*
X19663000Y-12259432D01*
X19663000Y-12075000D01*
X19662453Y-12072092D01*
X19660735Y-12069422D01*
X19658112Y-12067630D01*
X19655000Y-12067000D01*
X18655000Y-12067000D01*
X18652092Y-12067547D01*
X18649422Y-12069265D01*
X18647630Y-12071888D01*
X18647000Y-12075000D01*
X18647000Y-12703500D01*
X16391500Y-12703500D01*
X16391500Y-12411537D01*
X16575977Y-12411537D01*
X16596334Y-12460806D01*
X16633996Y-12498533D01*
X16683229Y-12518977D01*
X16736537Y-12519023D01*
X16785806Y-12498666D01*
X16823533Y-12461004D01*
X16843977Y-12411771D01*
X16844023Y-12358463D01*
X16840263Y-12349361D01*
X18130961Y-12349361D01*
X18164991Y-12431720D01*
X18227949Y-12494787D01*
X18310248Y-12528961D01*
X18399361Y-12529039D01*
X18481720Y-12495009D01*
X18544787Y-12432051D01*
X18578961Y-12349752D01*
X18579039Y-12260639D01*
X18545009Y-12178280D01*
X18482052Y-12115213D01*
X18399752Y-12081039D01*
X18310639Y-12080961D01*
X18228280Y-12114991D01*
X18165213Y-12177948D01*
X18131039Y-12260248D01*
X18130961Y-12349361D01*
X16840263Y-12349361D01*
X16823666Y-12309194D01*
X16786004Y-12271467D01*
X16736771Y-12251023D01*
X16683463Y-12250977D01*
X16634194Y-12271334D01*
X16596467Y-12308996D01*
X16576023Y-12358229D01*
X16575977Y-12411537D01*
X16391500Y-12411537D01*
X16391500Y-11093714D01*
X19145992Y-11093714D01*
X19152677Y-11109891D01*
X19165044Y-11122280D01*
X19181210Y-11128992D01*
X19198714Y-11129008D01*
X19214891Y-11122323D01*
X19227280Y-11109957D01*
X19233992Y-11093791D01*
X19233999Y-11086256D01*
X19321254Y-10999001D01*
X19328714Y-10999008D01*
X19344891Y-10992323D01*
X19357280Y-10979957D01*
X19363992Y-10963791D01*
X19364008Y-10946286D01*
X19357323Y-10930109D01*
X19344957Y-10917720D01*
X19328791Y-10911008D01*
X19311286Y-10910992D01*
X19295109Y-10917677D01*
X19282720Y-10930044D01*
X19276008Y-10946210D01*
X19276001Y-10953744D01*
X19188746Y-11040999D01*
X19181286Y-11040992D01*
X19165109Y-11047677D01*
X19152720Y-11060044D01*
X19146008Y-11076210D01*
X19145992Y-11093714D01*
X16391500Y-11093714D01*
X16391500Y-8863714D01*
X18860992Y-8863714D01*
X18867677Y-8879891D01*
X18873000Y-8885224D01*
X18873000Y-10155000D01*
X18875436Y-10167246D01*
X18878278Y-10171500D01*
X18882373Y-10177627D01*
X19050999Y-10346254D01*
X19050992Y-10353714D01*
X19057677Y-10369891D01*
X19070044Y-10382280D01*
X19086210Y-10388992D01*
X19103714Y-10389008D01*
X19119891Y-10382323D01*
X19132280Y-10369957D01*
X19138992Y-10353791D01*
X19139008Y-10336286D01*
X19132323Y-10320109D01*
X19119957Y-10307720D01*
X19103791Y-10301008D01*
X19096256Y-10301001D01*
X19068969Y-10273714D01*
X19325992Y-10273714D01*
X19332677Y-10289891D01*
X19345044Y-10302280D01*
X19361210Y-10308992D01*
X19378714Y-10309008D01*
X19394891Y-10302323D01*
X19407280Y-10289957D01*
X19413992Y-10273791D01*
X19413999Y-10266256D01*
X19478255Y-10202000D01*
X19504773Y-10202000D01*
X19510044Y-10207280D01*
X19526210Y-10213992D01*
X19543714Y-10214008D01*
X19559891Y-10207323D01*
X19572280Y-10194957D01*
X19578992Y-10178791D01*
X19579008Y-10161286D01*
X19572323Y-10145109D01*
X19559957Y-10132720D01*
X19543791Y-10126008D01*
X19526286Y-10125992D01*
X19510109Y-10132677D01*
X19504776Y-10138000D01*
X19465000Y-10138000D01*
X19452754Y-10140436D01*
X19445761Y-10145109D01*
X19442373Y-10147373D01*
X19368746Y-10220999D01*
X19361286Y-10220992D01*
X19345109Y-10227677D01*
X19332720Y-10240044D01*
X19326008Y-10256210D01*
X19325992Y-10273714D01*
X19068969Y-10273714D01*
X18937000Y-10141745D01*
X18937000Y-9323665D01*
X19630988Y-9323665D01*
X19641471Y-9349034D01*
X19660864Y-9368461D01*
X19686215Y-9378988D01*
X19713665Y-9379012D01*
X19739034Y-9368530D01*
X19758461Y-9349136D01*
X19768988Y-9323785D01*
X19769012Y-9296335D01*
X19758530Y-9270966D01*
X19739136Y-9251539D01*
X19713785Y-9241012D01*
X19686335Y-9240988D01*
X19660966Y-9251471D01*
X19641539Y-9270864D01*
X19631012Y-9296215D01*
X19630988Y-9323665D01*
X18937000Y-9323665D01*
X18937000Y-8885227D01*
X18942280Y-8879957D01*
X18948992Y-8863791D01*
X18949008Y-8846286D01*
X18942323Y-8830109D01*
X18929957Y-8817720D01*
X18913791Y-8811008D01*
X18896286Y-8810992D01*
X18880109Y-8817677D01*
X18867720Y-8830044D01*
X18861008Y-8846210D01*
X18860992Y-8863714D01*
X16391500Y-8863714D01*
X16391500Y-8643665D01*
X19630988Y-8643665D01*
X19641471Y-8669034D01*
X19660864Y-8688461D01*
X19686215Y-8698988D01*
X19713665Y-8699012D01*
X19739034Y-8688530D01*
X19758461Y-8669136D01*
X19768988Y-8643785D01*
X19769012Y-8616335D01*
X19758530Y-8590966D01*
X19739136Y-8571539D01*
X19713785Y-8561012D01*
X19686335Y-8560988D01*
X19660966Y-8571471D01*
X19641539Y-8590864D01*
X19631012Y-8616215D01*
X19630988Y-8643665D01*
X16391500Y-8643665D01*
X16391500Y-8397249D01*
X18745200Y-8397249D01*
X18759392Y-8439102D01*
X18788521Y-8472338D01*
X18823233Y-8490179D01*
X18840500Y-8479522D01*
X18840500Y-8379500D01*
X18874500Y-8379500D01*
X18874500Y-8479522D01*
X18891767Y-8490179D01*
X18926479Y-8472338D01*
X18955608Y-8439102D01*
X18969800Y-8397249D01*
X19230200Y-8397249D01*
X19244392Y-8439102D01*
X19273521Y-8472338D01*
X19308233Y-8490179D01*
X19325500Y-8479522D01*
X19325500Y-8379500D01*
X19359500Y-8379500D01*
X19359500Y-8479522D01*
X19376767Y-8490179D01*
X19411479Y-8472338D01*
X19440608Y-8439102D01*
X19454800Y-8397249D01*
X19441225Y-8379500D01*
X19359500Y-8379500D01*
X19325500Y-8379500D01*
X19243775Y-8379500D01*
X19230200Y-8397249D01*
X18969800Y-8397249D01*
X18956225Y-8379500D01*
X18874500Y-8379500D01*
X18840500Y-8379500D01*
X18758775Y-8379500D01*
X18745200Y-8397249D01*
X16391500Y-8397249D01*
X16391500Y-8106537D01*
X16580977Y-8106537D01*
X16601334Y-8155806D01*
X16638996Y-8193533D01*
X16688229Y-8213977D01*
X16741537Y-8214023D01*
X16777023Y-8199361D01*
X18030961Y-8199361D01*
X18064991Y-8281720D01*
X18127949Y-8344787D01*
X18210248Y-8378961D01*
X18299361Y-8379039D01*
X18381720Y-8345009D01*
X18399008Y-8327751D01*
X18745200Y-8327751D01*
X18758775Y-8345500D01*
X18840500Y-8345500D01*
X18840500Y-8245478D01*
X18874500Y-8245478D01*
X18874500Y-8345500D01*
X18956225Y-8345500D01*
X18969800Y-8327751D01*
X19230200Y-8327751D01*
X19243775Y-8345500D01*
X19325500Y-8345500D01*
X19325500Y-8245478D01*
X19359500Y-8245478D01*
X19359500Y-8345500D01*
X19441225Y-8345500D01*
X19454800Y-8327751D01*
X19440608Y-8285898D01*
X19411479Y-8252662D01*
X19376767Y-8234821D01*
X19359500Y-8245478D01*
X19325500Y-8245478D01*
X19308233Y-8234821D01*
X19273521Y-8252662D01*
X19244392Y-8285898D01*
X19230200Y-8327751D01*
X18969800Y-8327751D01*
X18955608Y-8285898D01*
X18926479Y-8252662D01*
X18891767Y-8234821D01*
X18874500Y-8245478D01*
X18840500Y-8245478D01*
X18823233Y-8234821D01*
X18788521Y-8252662D01*
X18759392Y-8285898D01*
X18745200Y-8327751D01*
X18399008Y-8327751D01*
X18444787Y-8282051D01*
X18478961Y-8199752D01*
X18479039Y-8110639D01*
X18473878Y-8098148D01*
X18709134Y-8098148D01*
X18722219Y-8142634D01*
X18751332Y-8178726D01*
X18792443Y-8200172D01*
X18810500Y-8189594D01*
X18810500Y-8079500D01*
X18844500Y-8079500D01*
X18844500Y-8189594D01*
X18862557Y-8200172D01*
X18903668Y-8178726D01*
X18932781Y-8142634D01*
X18945866Y-8098148D01*
X19254134Y-8098148D01*
X19267219Y-8142634D01*
X19296332Y-8178726D01*
X19337443Y-8200172D01*
X19355500Y-8189594D01*
X19355500Y-8079500D01*
X19389500Y-8079500D01*
X19389500Y-8189594D01*
X19407557Y-8200172D01*
X19448668Y-8178726D01*
X19477781Y-8142634D01*
X19486927Y-8111537D01*
X19575977Y-8111537D01*
X19596334Y-8160806D01*
X19633996Y-8198533D01*
X19683229Y-8218977D01*
X19736537Y-8219023D01*
X19785806Y-8198666D01*
X19823533Y-8161004D01*
X19843977Y-8111771D01*
X19844023Y-8058463D01*
X19823666Y-8009194D01*
X19786004Y-7971467D01*
X19736771Y-7951023D01*
X19683463Y-7950977D01*
X19634194Y-7971334D01*
X19596467Y-8008996D01*
X19576023Y-8058229D01*
X19575977Y-8111537D01*
X19486927Y-8111537D01*
X19490866Y-8098148D01*
X19476574Y-8079500D01*
X19389500Y-8079500D01*
X19355500Y-8079500D01*
X19268426Y-8079500D01*
X19254134Y-8098148D01*
X18945866Y-8098148D01*
X18931574Y-8079500D01*
X18844500Y-8079500D01*
X18810500Y-8079500D01*
X18723426Y-8079500D01*
X18709134Y-8098148D01*
X18473878Y-8098148D01*
X18445009Y-8028280D01*
X18443584Y-8026852D01*
X18709134Y-8026852D01*
X18723426Y-8045500D01*
X18810500Y-8045500D01*
X18810500Y-7935406D01*
X18844500Y-7935406D01*
X18844500Y-8045500D01*
X18931574Y-8045500D01*
X18945866Y-8026852D01*
X19254134Y-8026852D01*
X19268426Y-8045500D01*
X19355500Y-8045500D01*
X19355500Y-7935406D01*
X19389500Y-7935406D01*
X19389500Y-8045500D01*
X19476574Y-8045500D01*
X19490866Y-8026852D01*
X19477781Y-7982366D01*
X19448668Y-7946274D01*
X19407557Y-7924828D01*
X19389500Y-7935406D01*
X19355500Y-7935406D01*
X19337443Y-7924828D01*
X19296332Y-7946274D01*
X19267219Y-7982366D01*
X19254134Y-8026852D01*
X18945866Y-8026852D01*
X18932781Y-7982366D01*
X18903668Y-7946274D01*
X18862557Y-7924828D01*
X18844500Y-7935406D01*
X18810500Y-7935406D01*
X18792443Y-7924828D01*
X18751332Y-7946274D01*
X18722219Y-7982366D01*
X18709134Y-8026852D01*
X18443584Y-8026852D01*
X18382052Y-7965213D01*
X18299752Y-7931039D01*
X18210639Y-7930961D01*
X18128280Y-7964991D01*
X18065213Y-8027948D01*
X18031039Y-8110248D01*
X18030961Y-8199361D01*
X16777023Y-8199361D01*
X16790806Y-8193666D01*
X16828533Y-8156004D01*
X16848977Y-8106771D01*
X16849023Y-8053463D01*
X16828666Y-8004194D01*
X16791004Y-7966467D01*
X16741771Y-7946023D01*
X16688463Y-7945977D01*
X16639194Y-7966334D01*
X16601467Y-8003996D01*
X16581023Y-8053229D01*
X16580977Y-8106537D01*
X16391500Y-8106537D01*
X16391500Y-7756500D01*
X20038500Y-7756500D01*
X20038500Y-10474468D01*
X20038500Y-10474468D01*
G37*
X20038500Y-10474468D02*
X20022980Y-10442132D01*
X19982114Y-10403421D01*
X19929545Y-10383295D01*
X19907000Y-10395743D01*
X19907000Y-10381860D01*
X19907701Y-10381860D01*
X19949934Y-10373459D01*
X19985737Y-10349536D01*
X20009660Y-10313733D01*
X20018061Y-10271500D01*
X20009660Y-10229267D01*
X19985737Y-10193464D01*
X19949934Y-10169541D01*
X19907701Y-10161140D01*
X19872299Y-10161140D01*
X19830067Y-10169541D01*
X19794263Y-10193464D01*
X19786500Y-10205082D01*
X19786500Y-10135000D01*
X19785038Y-10127649D01*
X19788400Y-10128330D01*
X19991600Y-10128330D01*
X20000494Y-10126657D01*
X20008662Y-10121400D01*
X20014142Y-10113380D01*
X20016070Y-10103860D01*
X20016070Y-9931140D01*
X20014397Y-9922246D01*
X20009140Y-9914078D01*
X20001120Y-9908598D01*
X19991600Y-9906670D01*
X19788400Y-9906670D01*
X19779506Y-9908343D01*
X19771338Y-9913600D01*
X19765858Y-9921620D01*
X19763930Y-9931140D01*
X19763930Y-10097311D01*
X19696619Y-10030000D01*
X19697621Y-10028998D01*
X19709704Y-10029009D01*
X19727720Y-10021564D01*
X19741516Y-10007793D01*
X19748992Y-9989790D01*
X19749009Y-9970296D01*
X19741564Y-9952280D01*
X19727793Y-9938484D01*
X19709790Y-9931009D01*
X19690296Y-9930992D01*
X19672280Y-9938436D01*
X19658484Y-9952208D01*
X19651009Y-9970211D01*
X19651007Y-9972375D01*
X19645000Y-9978381D01*
X19634002Y-9967384D01*
X19634009Y-9960296D01*
X19626564Y-9942280D01*
X19612793Y-9928484D01*
X19594790Y-9921009D01*
X19575296Y-9920992D01*
X19557280Y-9928436D01*
X19543484Y-9942208D01*
X19536009Y-9960211D01*
X19535992Y-9979704D01*
X19543436Y-9997720D01*
X19557208Y-10011516D01*
X19575211Y-10018992D01*
X19582379Y-10018998D01*
X19713500Y-10150119D01*
X19713500Y-10448500D01*
X19712800Y-10448500D01*
X19707793Y-10443484D01*
X19689790Y-10436009D01*
X19670296Y-10435992D01*
X19652280Y-10443436D01*
X19638484Y-10457208D01*
X19631009Y-10475211D01*
X19630992Y-10494704D01*
X19638436Y-10512720D01*
X19652208Y-10526516D01*
X19670211Y-10533992D01*
X19689704Y-10534009D01*
X19707720Y-10526564D01*
X19712793Y-10521500D01*
X19713500Y-10521500D01*
X19713500Y-11110000D01*
X19716278Y-11123968D01*
X19724191Y-11135809D01*
X19743500Y-11155119D01*
X19743500Y-11362200D01*
X19738484Y-11367207D01*
X19731009Y-11385210D01*
X19730992Y-11404704D01*
X19738436Y-11422720D01*
X19752208Y-11436516D01*
X19770211Y-11443991D01*
X19789704Y-11444008D01*
X19807720Y-11436564D01*
X19821516Y-11422792D01*
X19828992Y-11404789D01*
X19829009Y-11385296D01*
X19821564Y-11367280D01*
X19816500Y-11362207D01*
X19816500Y-11140000D01*
X19813722Y-11126032D01*
X19813722Y-11126032D01*
X19811918Y-11123333D01*
X19830067Y-11135459D01*
X19872299Y-11143860D01*
X19907701Y-11143860D01*
X19949934Y-11135459D01*
X19985737Y-11111536D01*
X20009660Y-11075733D01*
X20018061Y-11033500D01*
X20009660Y-10991267D01*
X19985737Y-10955464D01*
X19949934Y-10931541D01*
X19907701Y-10923140D01*
X19872299Y-10923140D01*
X19830067Y-10931541D01*
X19794263Y-10955464D01*
X19786500Y-10967082D01*
X19786500Y-10845918D01*
X19794263Y-10857536D01*
X19830067Y-10881459D01*
X19872299Y-10889860D01*
X19907701Y-10889860D01*
X19949934Y-10881459D01*
X19985737Y-10857536D01*
X20009660Y-10821733D01*
X20018061Y-10779500D01*
X20009660Y-10737267D01*
X19985737Y-10701464D01*
X19949934Y-10677541D01*
X19907701Y-10669140D01*
X19907000Y-10669140D01*
X19907000Y-10655257D01*
X19929545Y-10667705D01*
X19982114Y-10647579D01*
X20022980Y-10608868D01*
X20038500Y-10576533D01*
X20038500Y-12703500D01*
X19663000Y-12703500D01*
X19663000Y-12510577D01*
X19683229Y-12518977D01*
X19736537Y-12519023D01*
X19785806Y-12498666D01*
X19823533Y-12461004D01*
X19843977Y-12411771D01*
X19844023Y-12358463D01*
X19823666Y-12309194D01*
X19786004Y-12271467D01*
X19736771Y-12251023D01*
X19683463Y-12250977D01*
X19663000Y-12259432D01*
X19663000Y-12075000D01*
X19662453Y-12072092D01*
X19660735Y-12069422D01*
X19658112Y-12067630D01*
X19655000Y-12067000D01*
X18655000Y-12067000D01*
X18652092Y-12067547D01*
X18649422Y-12069265D01*
X18647630Y-12071888D01*
X18647000Y-12075000D01*
X18647000Y-12703500D01*
X16391500Y-12703500D01*
X16391500Y-12411537D01*
X16575977Y-12411537D01*
X16596334Y-12460806D01*
X16633996Y-12498533D01*
X16683229Y-12518977D01*
X16736537Y-12519023D01*
X16785806Y-12498666D01*
X16823533Y-12461004D01*
X16843977Y-12411771D01*
X16844023Y-12358463D01*
X16840263Y-12349361D01*
X18130961Y-12349361D01*
X18164991Y-12431720D01*
X18227949Y-12494787D01*
X18310248Y-12528961D01*
X18399361Y-12529039D01*
X18481720Y-12495009D01*
X18544787Y-12432051D01*
X18578961Y-12349752D01*
X18579039Y-12260639D01*
X18545009Y-12178280D01*
X18482052Y-12115213D01*
X18399752Y-12081039D01*
X18310639Y-12080961D01*
X18228280Y-12114991D01*
X18165213Y-12177948D01*
X18131039Y-12260248D01*
X18130961Y-12349361D01*
X16840263Y-12349361D01*
X16823666Y-12309194D01*
X16786004Y-12271467D01*
X16736771Y-12251023D01*
X16683463Y-12250977D01*
X16634194Y-12271334D01*
X16596467Y-12308996D01*
X16576023Y-12358229D01*
X16575977Y-12411537D01*
X16391500Y-12411537D01*
X16391500Y-11093714D01*
X19145992Y-11093714D01*
X19152677Y-11109891D01*
X19165044Y-11122280D01*
X19181210Y-11128992D01*
X19198714Y-11129008D01*
X19214891Y-11122323D01*
X19227280Y-11109957D01*
X19233992Y-11093791D01*
X19233999Y-11086256D01*
X19321254Y-10999001D01*
X19328714Y-10999008D01*
X19344891Y-10992323D01*
X19357280Y-10979957D01*
X19363992Y-10963791D01*
X19364008Y-10946286D01*
X19357323Y-10930109D01*
X19344957Y-10917720D01*
X19328791Y-10911008D01*
X19311286Y-10910992D01*
X19295109Y-10917677D01*
X19282720Y-10930044D01*
X19276008Y-10946210D01*
X19276001Y-10953744D01*
X19188746Y-11040999D01*
X19181286Y-11040992D01*
X19165109Y-11047677D01*
X19152720Y-11060044D01*
X19146008Y-11076210D01*
X19145992Y-11093714D01*
X16391500Y-11093714D01*
X16391500Y-8863714D01*
X18860992Y-8863714D01*
X18867677Y-8879891D01*
X18873000Y-8885224D01*
X18873000Y-10155000D01*
X18875436Y-10167246D01*
X18878278Y-10171500D01*
X18882373Y-10177627D01*
X19050999Y-10346254D01*
X19050992Y-10353714D01*
X19057677Y-10369891D01*
X19070044Y-10382280D01*
X19086210Y-10388992D01*
X19103714Y-10389008D01*
X19119891Y-10382323D01*
X19132280Y-10369957D01*
X19138992Y-10353791D01*
X19139008Y-10336286D01*
X19132323Y-10320109D01*
X19119957Y-10307720D01*
X19103791Y-10301008D01*
X19096256Y-10301001D01*
X19068969Y-10273714D01*
X19325992Y-10273714D01*
X19332677Y-10289891D01*
X19345044Y-10302280D01*
X19361210Y-10308992D01*
X19378714Y-10309008D01*
X19394891Y-10302323D01*
X19407280Y-10289957D01*
X19413992Y-10273791D01*
X19413999Y-10266256D01*
X19478255Y-10202000D01*
X19504773Y-10202000D01*
X19510044Y-10207280D01*
X19526210Y-10213992D01*
X19543714Y-10214008D01*
X19559891Y-10207323D01*
X19572280Y-10194957D01*
X19578992Y-10178791D01*
X19579008Y-10161286D01*
X19572323Y-10145109D01*
X19559957Y-10132720D01*
X19543791Y-10126008D01*
X19526286Y-10125992D01*
X19510109Y-10132677D01*
X19504776Y-10138000D01*
X19465000Y-10138000D01*
X19452754Y-10140436D01*
X19445761Y-10145109D01*
X19442373Y-10147373D01*
X19368746Y-10220999D01*
X19361286Y-10220992D01*
X19345109Y-10227677D01*
X19332720Y-10240044D01*
X19326008Y-10256210D01*
X19325992Y-10273714D01*
X19068969Y-10273714D01*
X18937000Y-10141745D01*
X18937000Y-9323665D01*
X19630988Y-9323665D01*
X19641471Y-9349034D01*
X19660864Y-9368461D01*
X19686215Y-9378988D01*
X19713665Y-9379012D01*
X19739034Y-9368530D01*
X19758461Y-9349136D01*
X19768988Y-9323785D01*
X19769012Y-9296335D01*
X19758530Y-9270966D01*
X19739136Y-9251539D01*
X19713785Y-9241012D01*
X19686335Y-9240988D01*
X19660966Y-9251471D01*
X19641539Y-9270864D01*
X19631012Y-9296215D01*
X19630988Y-9323665D01*
X18937000Y-9323665D01*
X18937000Y-8885227D01*
X18942280Y-8879957D01*
X18948992Y-8863791D01*
X18949008Y-8846286D01*
X18942323Y-8830109D01*
X18929957Y-8817720D01*
X18913791Y-8811008D01*
X18896286Y-8810992D01*
X18880109Y-8817677D01*
X18867720Y-8830044D01*
X18861008Y-8846210D01*
X18860992Y-8863714D01*
X16391500Y-8863714D01*
X16391500Y-8643665D01*
X19630988Y-8643665D01*
X19641471Y-8669034D01*
X19660864Y-8688461D01*
X19686215Y-8698988D01*
X19713665Y-8699012D01*
X19739034Y-8688530D01*
X19758461Y-8669136D01*
X19768988Y-8643785D01*
X19769012Y-8616335D01*
X19758530Y-8590966D01*
X19739136Y-8571539D01*
X19713785Y-8561012D01*
X19686335Y-8560988D01*
X19660966Y-8571471D01*
X19641539Y-8590864D01*
X19631012Y-8616215D01*
X19630988Y-8643665D01*
X16391500Y-8643665D01*
X16391500Y-8397249D01*
X18745200Y-8397249D01*
X18759392Y-8439102D01*
X18788521Y-8472338D01*
X18823233Y-8490179D01*
X18840500Y-8479522D01*
X18840500Y-8379500D01*
X18874500Y-8379500D01*
X18874500Y-8479522D01*
X18891767Y-8490179D01*
X18926479Y-8472338D01*
X18955608Y-8439102D01*
X18969800Y-8397249D01*
X19230200Y-8397249D01*
X19244392Y-8439102D01*
X19273521Y-8472338D01*
X19308233Y-8490179D01*
X19325500Y-8479522D01*
X19325500Y-8379500D01*
X19359500Y-8379500D01*
X19359500Y-8479522D01*
X19376767Y-8490179D01*
X19411479Y-8472338D01*
X19440608Y-8439102D01*
X19454800Y-8397249D01*
X19441225Y-8379500D01*
X19359500Y-8379500D01*
X19325500Y-8379500D01*
X19243775Y-8379500D01*
X19230200Y-8397249D01*
X18969800Y-8397249D01*
X18956225Y-8379500D01*
X18874500Y-8379500D01*
X18840500Y-8379500D01*
X18758775Y-8379500D01*
X18745200Y-8397249D01*
X16391500Y-8397249D01*
X16391500Y-8106537D01*
X16580977Y-8106537D01*
X16601334Y-8155806D01*
X16638996Y-8193533D01*
X16688229Y-8213977D01*
X16741537Y-8214023D01*
X16777023Y-8199361D01*
X18030961Y-8199361D01*
X18064991Y-8281720D01*
X18127949Y-8344787D01*
X18210248Y-8378961D01*
X18299361Y-8379039D01*
X18381720Y-8345009D01*
X18399008Y-8327751D01*
X18745200Y-8327751D01*
X18758775Y-8345500D01*
X18840500Y-8345500D01*
X18840500Y-8245478D01*
X18874500Y-8245478D01*
X18874500Y-8345500D01*
X18956225Y-8345500D01*
X18969800Y-8327751D01*
X19230200Y-8327751D01*
X19243775Y-8345500D01*
X19325500Y-8345500D01*
X19325500Y-8245478D01*
X19359500Y-8245478D01*
X19359500Y-8345500D01*
X19441225Y-8345500D01*
X19454800Y-8327751D01*
X19440608Y-8285898D01*
X19411479Y-8252662D01*
X19376767Y-8234821D01*
X19359500Y-8245478D01*
X19325500Y-8245478D01*
X19308233Y-8234821D01*
X19273521Y-8252662D01*
X19244392Y-8285898D01*
X19230200Y-8327751D01*
X18969800Y-8327751D01*
X18955608Y-8285898D01*
X18926479Y-8252662D01*
X18891767Y-8234821D01*
X18874500Y-8245478D01*
X18840500Y-8245478D01*
X18823233Y-8234821D01*
X18788521Y-8252662D01*
X18759392Y-8285898D01*
X18745200Y-8327751D01*
X18399008Y-8327751D01*
X18444787Y-8282051D01*
X18478961Y-8199752D01*
X18479039Y-8110639D01*
X18473878Y-8098148D01*
X18709134Y-8098148D01*
X18722219Y-8142634D01*
X18751332Y-8178726D01*
X18792443Y-8200172D01*
X18810500Y-8189594D01*
X18810500Y-8079500D01*
X18844500Y-8079500D01*
X18844500Y-8189594D01*
X18862557Y-8200172D01*
X18903668Y-8178726D01*
X18932781Y-8142634D01*
X18945866Y-8098148D01*
X19254134Y-8098148D01*
X19267219Y-8142634D01*
X19296332Y-8178726D01*
X19337443Y-8200172D01*
X19355500Y-8189594D01*
X19355500Y-8079500D01*
X19389500Y-8079500D01*
X19389500Y-8189594D01*
X19407557Y-8200172D01*
X19448668Y-8178726D01*
X19477781Y-8142634D01*
X19486927Y-8111537D01*
X19575977Y-8111537D01*
X19596334Y-8160806D01*
X19633996Y-8198533D01*
X19683229Y-8218977D01*
X19736537Y-8219023D01*
X19785806Y-8198666D01*
X19823533Y-8161004D01*
X19843977Y-8111771D01*
X19844023Y-8058463D01*
X19823666Y-8009194D01*
X19786004Y-7971467D01*
X19736771Y-7951023D01*
X19683463Y-7950977D01*
X19634194Y-7971334D01*
X19596467Y-8008996D01*
X19576023Y-8058229D01*
X19575977Y-8111537D01*
X19486927Y-8111537D01*
X19490866Y-8098148D01*
X19476574Y-8079500D01*
X19389500Y-8079500D01*
X19355500Y-8079500D01*
X19268426Y-8079500D01*
X19254134Y-8098148D01*
X18945866Y-8098148D01*
X18931574Y-8079500D01*
X18844500Y-8079500D01*
X18810500Y-8079500D01*
X18723426Y-8079500D01*
X18709134Y-8098148D01*
X18473878Y-8098148D01*
X18445009Y-8028280D01*
X18443584Y-8026852D01*
X18709134Y-8026852D01*
X18723426Y-8045500D01*
X18810500Y-8045500D01*
X18810500Y-7935406D01*
X18844500Y-7935406D01*
X18844500Y-8045500D01*
X18931574Y-8045500D01*
X18945866Y-8026852D01*
X19254134Y-8026852D01*
X19268426Y-8045500D01*
X19355500Y-8045500D01*
X19355500Y-7935406D01*
X19389500Y-7935406D01*
X19389500Y-8045500D01*
X19476574Y-8045500D01*
X19490866Y-8026852D01*
X19477781Y-7982366D01*
X19448668Y-7946274D01*
X19407557Y-7924828D01*
X19389500Y-7935406D01*
X19355500Y-7935406D01*
X19337443Y-7924828D01*
X19296332Y-7946274D01*
X19267219Y-7982366D01*
X19254134Y-8026852D01*
X18945866Y-8026852D01*
X18932781Y-7982366D01*
X18903668Y-7946274D01*
X18862557Y-7924828D01*
X18844500Y-7935406D01*
X18810500Y-7935406D01*
X18792443Y-7924828D01*
X18751332Y-7946274D01*
X18722219Y-7982366D01*
X18709134Y-8026852D01*
X18443584Y-8026852D01*
X18382052Y-7965213D01*
X18299752Y-7931039D01*
X18210639Y-7930961D01*
X18128280Y-7964991D01*
X18065213Y-8027948D01*
X18031039Y-8110248D01*
X18030961Y-8199361D01*
X16777023Y-8199361D01*
X16790806Y-8193666D01*
X16828533Y-8156004D01*
X16848977Y-8106771D01*
X16849023Y-8053463D01*
X16828666Y-8004194D01*
X16791004Y-7966467D01*
X16741771Y-7946023D01*
X16688463Y-7945977D01*
X16639194Y-7966334D01*
X16601467Y-8003996D01*
X16581023Y-8053229D01*
X16580977Y-8106537D01*
X16391500Y-8106537D01*
X16391500Y-7756500D01*
X20038500Y-7756500D01*
X20038500Y-10474468D01*
G36*
X19907000Y-10508500D02*
X19909000Y-10508500D01*
X19909000Y-10542500D01*
X19907000Y-10542500D01*
X19907000Y-10544500D01*
X19873000Y-10544500D01*
X19873000Y-10542500D01*
X19871000Y-10542500D01*
X19871000Y-10508500D01*
X19873000Y-10508500D01*
X19873000Y-10506500D01*
X19907000Y-10506500D01*
X19907000Y-10508500D01*
X19907000Y-10508500D01*
G37*
X19907000Y-10508500D02*
X19909000Y-10508500D01*
X19909000Y-10542500D01*
X19907000Y-10542500D01*
X19907000Y-10544500D01*
X19873000Y-10544500D01*
X19873000Y-10542500D01*
X19871000Y-10542500D01*
X19871000Y-10508500D01*
X19873000Y-10508500D01*
X19873000Y-10506500D01*
X19907000Y-10506500D01*
X19907000Y-10508500D01*
M02*
