G04 #@! TF.FileFunction,Soldermask,Top*
%FSLAX45Y45*%
G04 Gerber Fmt 4.5, Leading zero omitted, Abs format (unit mm)*
G04 Created by KiCad (PCBNEW 4.0.2+e4-6225~38~ubuntu14.04.1-stable) date Sat 30 Jul 2016 12:01:36 AM CDT*
%MOMM*%
G01*
G04 APERTURE LIST*
%ADD10C,0.100000*%
%ADD11C,2.600000*%
%ADD12C,4.400000*%
%ADD13R,0.800000X1.000000*%
%ADD14R,1.000000X0.800000*%
%ADD15R,6.496000X6.496000*%
%ADD16R,1.450000X1.700000*%
%ADD17O,0.750000X1.200000*%
%ADD18O,1.200000X0.750000*%
%ADD19R,2.400000X2.400000*%
%ADD20O,0.700000X1.200000*%
%ADD21O,1.200000X0.700000*%
%ADD22R,1.800000X1.600000*%
%ADD23C,1.300000*%
%ADD24R,1.150000X0.700000*%
%ADD25R,2.000000X1.200000*%
%ADD26R,1.000000X0.625000*%
%ADD27R,1.460000X1.050000*%
%ADD28R,2.432000X2.127200*%
%ADD29O,2.432000X2.127200*%
%ADD30R,0.800000X2.050000*%
%ADD31O,1.500000X1.900000*%
%ADD32O,1.600000X2.100000*%
%ADD33R,1.825000X2.900000*%
%ADD34R,1.000000X0.900000*%
%ADD35R,0.900000X1.000000*%
%ADD36R,1.400000X1.650000*%
%ADD37R,1.700000X1.450000*%
%ADD38R,1.600000X1.800000*%
%ADD39R,0.700000X1.150000*%
%ADD40R,1.200000X2.000000*%
%ADD41R,0.625000X1.000000*%
%ADD42R,1.050000X1.460000*%
%ADD43R,2.127200X2.432000*%
%ADD44O,2.127200X2.432000*%
%ADD45R,2.050000X0.800000*%
%ADD46O,1.900000X1.500000*%
%ADD47O,2.100000X1.600000*%
%ADD48R,2.900000X1.825000*%
%ADD49R,1.650000X1.400000*%
G04 APERTURE END LIST*
D10*
D11*
X19710000Y-8085000D03*
D12*
X18355000Y-12305000D03*
D11*
X19710000Y-12385000D03*
D13*
X19060000Y-10250000D03*
X19150000Y-10250000D03*
D14*
X19265000Y-10265000D03*
X19265000Y-10175000D03*
D15*
X17640000Y-11703200D03*
X17640000Y-10230000D03*
X17640000Y-8756800D03*
D16*
X18895000Y-11562500D03*
X18710000Y-11562500D03*
X18710000Y-11332500D03*
X18895000Y-11332500D03*
D17*
X19480000Y-10382500D03*
X19415000Y-10382500D03*
X19350000Y-10382500D03*
X19285000Y-10382500D03*
D18*
X19182500Y-10485000D03*
X19182500Y-10550000D03*
X19182500Y-10615000D03*
X19182500Y-10680000D03*
D17*
X19285000Y-10782500D03*
X19350000Y-10782500D03*
X19415000Y-10782500D03*
X19480000Y-10782500D03*
D18*
X19582500Y-10680000D03*
X19582500Y-10615000D03*
X19582500Y-10550000D03*
X19582500Y-10485000D03*
D19*
X19382500Y-10582500D03*
D20*
X19337500Y-11197500D03*
X19287500Y-11197500D03*
X19237500Y-11197500D03*
X19187500Y-11197500D03*
X19137500Y-11197500D03*
D21*
X19037500Y-11297500D03*
X19037500Y-11347500D03*
X19037500Y-11397500D03*
X19037500Y-11447500D03*
X19037500Y-11497500D03*
D20*
X19137500Y-11597500D03*
X19187500Y-11597500D03*
X19237500Y-11597500D03*
X19287500Y-11597500D03*
X19337500Y-11597500D03*
D21*
X19437500Y-11497500D03*
X19437500Y-11447500D03*
X19437500Y-11397500D03*
X19437500Y-11347500D03*
X19437500Y-11297500D03*
D19*
X19237500Y-11397500D03*
D22*
X19920000Y-9220000D03*
X19920000Y-8720000D03*
X19480000Y-8970000D03*
D23*
X19700000Y-9310000D03*
X19700000Y-8630000D03*
D24*
X19180000Y-8955000D03*
X19179996Y-8905000D03*
X19180000Y-8855000D03*
X19180000Y-8805000D03*
X18990000Y-8805000D03*
X18990000Y-8855000D03*
X18990000Y-8905000D03*
X18990000Y-8955000D03*
D25*
X19155000Y-12615000D03*
X19155000Y-12275000D03*
D26*
X19450000Y-9795000D03*
X19450000Y-9745000D03*
X19450000Y-9695000D03*
X19450000Y-9645000D03*
X19450000Y-9595000D03*
X19270000Y-9595000D03*
X19270000Y-9645000D03*
X19270000Y-9695000D03*
X19270000Y-9745000D03*
X19270000Y-9795000D03*
D27*
X19190000Y-9370000D03*
X19190000Y-9275000D03*
X19190000Y-9180000D03*
X18970000Y-9180000D03*
X18970000Y-9370000D03*
D14*
X19567500Y-11587500D03*
X19567500Y-11497500D03*
X19402500Y-10987500D03*
X19402500Y-10897500D03*
X19532500Y-10987500D03*
X19532500Y-10897500D03*
X19050000Y-10695000D03*
X19050000Y-10605000D03*
X19050000Y-10415000D03*
X19050000Y-10505000D03*
D13*
X19600000Y-10130000D03*
X19690000Y-10130000D03*
X18485000Y-8795000D03*
X18575000Y-8795000D03*
D14*
X19140000Y-9915000D03*
X19140000Y-9825000D03*
X19315000Y-8935000D03*
X19315000Y-9025000D03*
X19577500Y-9882500D03*
X19577500Y-9792500D03*
D28*
X19890000Y-10017500D03*
D29*
X19890000Y-10271500D03*
X19890000Y-10525500D03*
X19890000Y-10779500D03*
X19890000Y-11033500D03*
D30*
X19230000Y-8350000D03*
X19165000Y-8350000D03*
X19100090Y-8350000D03*
X19035000Y-8350000D03*
X18970000Y-8350000D03*
D31*
X19342500Y-8362500D03*
X18857500Y-8362500D03*
D32*
X19372500Y-8062500D03*
X18827500Y-8062500D03*
D33*
X19196250Y-8037500D03*
X19003750Y-8037500D03*
D13*
X19085000Y-11850000D03*
X18995000Y-11850000D03*
D14*
X19200000Y-11840000D03*
X19200000Y-11930000D03*
D13*
X19200000Y-11725000D03*
X19110000Y-11725000D03*
X18765000Y-8795000D03*
X18675000Y-8795000D03*
D34*
X18972500Y-12152500D03*
X19082500Y-12152500D03*
D35*
X19202500Y-12152500D03*
X19202500Y-12042500D03*
D34*
X19000000Y-11725000D03*
X18890000Y-11725000D03*
D35*
X18905000Y-11845000D03*
X18905000Y-11955000D03*
X19682500Y-11337500D03*
X19682500Y-11227500D03*
X19692500Y-11457500D03*
X19692500Y-11567500D03*
D34*
X18767500Y-11712500D03*
X18657500Y-11712500D03*
D35*
X18575000Y-11410000D03*
X18575000Y-11520000D03*
X19562500Y-11337500D03*
X19562500Y-11227500D03*
D34*
X19655000Y-10255000D03*
X19545000Y-10255000D03*
D35*
X18830000Y-9370000D03*
X18830000Y-9260000D03*
D34*
X18830000Y-9140000D03*
X18720000Y-9140000D03*
X19447500Y-9907500D03*
X19337500Y-9907500D03*
D35*
X19310000Y-8790000D03*
X19310000Y-8680000D03*
X19310000Y-9315000D03*
X19310000Y-9205000D03*
D36*
X19095000Y-8660000D03*
X18895000Y-8660000D03*
D35*
X19572500Y-9647500D03*
X19572500Y-9537500D03*
D34*
X19490000Y-10030000D03*
X19380000Y-10030000D03*
D35*
X19145000Y-9640000D03*
X19145000Y-9530000D03*
D11*
X16710000Y-12385000D03*
X16715000Y-8080000D03*
D12*
X18255000Y-8155000D03*
X18255000Y-3155000D03*
D11*
X16715000Y-3080000D03*
X16710000Y-7385000D03*
D35*
X19145000Y-4640000D03*
X19145000Y-4530000D03*
D34*
X19490000Y-5030000D03*
X19380000Y-5030000D03*
D35*
X19572500Y-4647500D03*
X19572500Y-4537500D03*
D36*
X19095000Y-3660000D03*
X18895000Y-3660000D03*
D35*
X19310000Y-4315000D03*
X19310000Y-4205000D03*
X19310000Y-3790000D03*
X19310000Y-3680000D03*
D34*
X19447500Y-4907500D03*
X19337500Y-4907500D03*
X18830000Y-4140000D03*
X18720000Y-4140000D03*
D35*
X18830000Y-4370000D03*
X18830000Y-4260000D03*
D34*
X19655000Y-5255000D03*
X19545000Y-5255000D03*
D35*
X19562500Y-6337500D03*
X19562500Y-6227500D03*
X18575000Y-6410000D03*
X18575000Y-6520000D03*
D34*
X18767500Y-6712500D03*
X18657500Y-6712500D03*
D35*
X19692500Y-6457500D03*
X19692500Y-6567500D03*
X19682500Y-6337500D03*
X19682500Y-6227500D03*
X18905000Y-6845000D03*
X18905000Y-6955000D03*
D34*
X19000000Y-6725000D03*
X18890000Y-6725000D03*
D35*
X19202500Y-7152500D03*
X19202500Y-7042500D03*
D34*
X18972500Y-7152500D03*
X19082500Y-7152500D03*
D13*
X18765000Y-3795000D03*
X18675000Y-3795000D03*
X19200000Y-6725000D03*
X19110000Y-6725000D03*
D14*
X19200000Y-6840000D03*
X19200000Y-6930000D03*
D13*
X19085000Y-6850000D03*
X18995000Y-6850000D03*
D30*
X19230000Y-3350000D03*
X19165000Y-3350000D03*
X19100090Y-3350000D03*
X19035000Y-3350000D03*
X18970000Y-3350000D03*
D31*
X19342500Y-3362500D03*
X18857500Y-3362500D03*
D32*
X19372500Y-3062500D03*
X18827500Y-3062500D03*
D33*
X19196250Y-3037500D03*
X19003750Y-3037500D03*
D28*
X19890000Y-5017500D03*
D29*
X19890000Y-5271500D03*
X19890000Y-5525500D03*
X19890000Y-5779500D03*
X19890000Y-6033500D03*
D14*
X19577500Y-4882500D03*
X19577500Y-4792500D03*
X19315000Y-3935000D03*
X19315000Y-4025000D03*
X19140000Y-4915000D03*
X19140000Y-4825000D03*
D13*
X18485000Y-3795000D03*
X18575000Y-3795000D03*
X19600000Y-5130000D03*
X19690000Y-5130000D03*
D14*
X19050000Y-5415000D03*
X19050000Y-5505000D03*
X19050000Y-5695000D03*
X19050000Y-5605000D03*
X19532500Y-5987500D03*
X19532500Y-5897500D03*
X19402500Y-5987500D03*
X19402500Y-5897500D03*
X19567500Y-6587500D03*
X19567500Y-6497500D03*
D27*
X19190000Y-4370000D03*
X19190000Y-4275000D03*
X19190000Y-4180000D03*
X18970000Y-4180000D03*
X18970000Y-4370000D03*
D26*
X19450000Y-4795000D03*
X19450000Y-4745000D03*
X19450000Y-4695000D03*
X19450000Y-4645000D03*
X19450000Y-4595000D03*
X19270000Y-4595000D03*
X19270000Y-4645000D03*
X19270000Y-4695000D03*
X19270000Y-4745000D03*
X19270000Y-4795000D03*
D25*
X19155000Y-7615000D03*
X19155000Y-7275000D03*
D24*
X19180000Y-3955000D03*
X19179996Y-3905000D03*
X19180000Y-3855000D03*
X19180000Y-3805000D03*
X18990000Y-3805000D03*
X18990000Y-3855000D03*
X18990000Y-3905000D03*
X18990000Y-3955000D03*
D22*
X19920000Y-4220000D03*
X19920000Y-3720000D03*
X19480000Y-3970000D03*
D23*
X19700000Y-4310000D03*
X19700000Y-3630000D03*
D20*
X19337500Y-6197500D03*
X19287500Y-6197500D03*
X19237500Y-6197500D03*
X19187500Y-6197500D03*
X19137500Y-6197500D03*
D21*
X19037500Y-6297500D03*
X19037500Y-6347500D03*
X19037500Y-6397500D03*
X19037500Y-6447500D03*
X19037500Y-6497500D03*
D20*
X19137500Y-6597500D03*
X19187500Y-6597500D03*
X19237500Y-6597500D03*
X19287500Y-6597500D03*
X19337500Y-6597500D03*
D21*
X19437500Y-6497500D03*
X19437500Y-6447500D03*
X19437500Y-6397500D03*
X19437500Y-6347500D03*
X19437500Y-6297500D03*
D19*
X19237500Y-6397500D03*
D17*
X19480000Y-5382500D03*
X19415000Y-5382500D03*
X19350000Y-5382500D03*
X19285000Y-5382500D03*
D18*
X19182500Y-5485000D03*
X19182500Y-5550000D03*
X19182500Y-5615000D03*
X19182500Y-5680000D03*
D17*
X19285000Y-5782500D03*
X19350000Y-5782500D03*
X19415000Y-5782500D03*
X19480000Y-5782500D03*
D18*
X19582500Y-5680000D03*
X19582500Y-5615000D03*
X19582500Y-5550000D03*
X19582500Y-5485000D03*
D19*
X19382500Y-5582500D03*
D16*
X18895000Y-6562500D03*
X18710000Y-6562500D03*
X18710000Y-6332500D03*
X18895000Y-6332500D03*
D15*
X17640000Y-6703200D03*
X17640000Y-5230000D03*
X17640000Y-3756800D03*
D14*
X19265000Y-5265000D03*
X19265000Y-5175000D03*
D13*
X19060000Y-5250000D03*
X19150000Y-5250000D03*
D11*
X19710000Y-7385000D03*
D12*
X18355000Y-7305000D03*
D11*
X19710000Y-3085000D03*
X14910000Y-12375000D03*
D12*
X10690000Y-11020000D03*
D11*
X10610000Y-12375000D03*
D14*
X12745000Y-11725000D03*
X12745000Y-11815000D03*
D13*
X12730000Y-11930000D03*
X12820000Y-11930000D03*
D15*
X11291800Y-10305000D03*
X12765000Y-10305000D03*
X14238200Y-10305000D03*
D37*
X11432500Y-11560000D03*
X11432500Y-11375000D03*
X11662500Y-11375000D03*
X11662500Y-11560000D03*
D18*
X12612500Y-12145000D03*
X12612500Y-12080000D03*
X12612500Y-12015000D03*
X12612500Y-11950000D03*
D17*
X12510000Y-11847500D03*
X12445000Y-11847500D03*
X12380000Y-11847500D03*
X12315000Y-11847500D03*
D18*
X12212500Y-11950000D03*
X12212500Y-12015000D03*
X12212500Y-12080000D03*
X12212500Y-12145000D03*
D17*
X12315000Y-12247500D03*
X12380000Y-12247500D03*
X12445000Y-12247500D03*
X12510000Y-12247500D03*
D19*
X12412500Y-12047500D03*
D21*
X11797500Y-12002500D03*
X11797500Y-11952500D03*
X11797500Y-11902500D03*
X11797500Y-11852500D03*
X11797500Y-11802500D03*
D20*
X11697500Y-11702500D03*
X11647500Y-11702500D03*
X11597500Y-11702500D03*
X11547500Y-11702500D03*
X11497500Y-11702500D03*
D21*
X11397500Y-11802500D03*
X11397500Y-11852500D03*
X11397500Y-11902500D03*
X11397500Y-11952500D03*
X11397500Y-12002500D03*
D20*
X11497500Y-12102500D03*
X11547500Y-12102500D03*
X11597500Y-12102500D03*
X11647500Y-12102500D03*
X11697500Y-12102500D03*
D19*
X11597500Y-11902500D03*
D38*
X13775000Y-12585000D03*
X14275000Y-12585000D03*
X14025000Y-12145000D03*
D23*
X13685000Y-12365000D03*
X14365000Y-12365000D03*
D39*
X14040000Y-11845000D03*
X14090000Y-11844996D03*
X14140000Y-11845000D03*
X14190000Y-11845000D03*
X14190000Y-11655000D03*
X14140000Y-11655000D03*
X14090000Y-11655000D03*
X14040000Y-11655000D03*
D40*
X10380000Y-11820000D03*
X10720000Y-11820000D03*
D41*
X13200000Y-12115000D03*
X13250000Y-12115000D03*
X13300000Y-12115000D03*
X13350000Y-12115000D03*
X13400000Y-12115000D03*
X13400000Y-11935000D03*
X13350000Y-11935000D03*
X13300000Y-11935000D03*
X13250000Y-11935000D03*
X13200000Y-11935000D03*
D42*
X13625000Y-11855000D03*
X13720000Y-11855000D03*
X13815000Y-11855000D03*
X13815000Y-11635000D03*
X13625000Y-11635000D03*
D13*
X11407500Y-12232500D03*
X11497500Y-12232500D03*
X12007500Y-12067500D03*
X12097500Y-12067500D03*
X12007500Y-12197500D03*
X12097500Y-12197500D03*
X12300000Y-11715000D03*
X12390000Y-11715000D03*
X12580000Y-11715000D03*
X12490000Y-11715000D03*
D14*
X12865000Y-12265000D03*
X12865000Y-12355000D03*
X14200000Y-11150000D03*
X14200000Y-11240000D03*
D13*
X13080000Y-11805000D03*
X13170000Y-11805000D03*
X14060000Y-11980000D03*
X13970000Y-11980000D03*
X13112500Y-12242500D03*
X13202500Y-12242500D03*
D43*
X12977500Y-12555000D03*
D44*
X12723500Y-12555000D03*
X12469500Y-12555000D03*
X12215500Y-12555000D03*
X11961500Y-12555000D03*
D45*
X14645000Y-11895000D03*
X14645000Y-11830000D03*
X14645000Y-11765090D03*
X14645000Y-11700000D03*
X14645000Y-11635000D03*
D46*
X14632500Y-12007500D03*
X14632500Y-11522500D03*
D47*
X14932500Y-12037500D03*
X14932500Y-11492500D03*
D48*
X14957500Y-11861250D03*
X14957500Y-11668750D03*
D14*
X11145000Y-11750000D03*
X11145000Y-11660000D03*
D13*
X11155000Y-11865000D03*
X11065000Y-11865000D03*
D14*
X11270000Y-11865000D03*
X11270000Y-11775000D03*
X14200000Y-11430000D03*
X14200000Y-11340000D03*
D35*
X10842500Y-11637500D03*
X10842500Y-11747500D03*
D34*
X10842500Y-11867500D03*
X10952500Y-11867500D03*
D35*
X11270000Y-11665000D03*
X11270000Y-11555000D03*
D34*
X11150000Y-11570000D03*
X11040000Y-11570000D03*
X11657500Y-12347500D03*
X11767500Y-12347500D03*
X11537500Y-12357500D03*
X11427500Y-12357500D03*
D35*
X11282500Y-11432500D03*
X11282500Y-11322500D03*
D34*
X11585000Y-11240000D03*
X11475000Y-11240000D03*
X11657500Y-12227500D03*
X11767500Y-12227500D03*
D35*
X12740000Y-12320000D03*
X12740000Y-12210000D03*
D34*
X13625000Y-11495000D03*
X13735000Y-11495000D03*
D35*
X13855000Y-11495000D03*
X13855000Y-11385000D03*
X13087500Y-12112500D03*
X13087500Y-12002500D03*
D34*
X14205000Y-11975000D03*
X14315000Y-11975000D03*
X13680000Y-11975000D03*
X13790000Y-11975000D03*
D49*
X14335000Y-11760000D03*
X14335000Y-11560000D03*
D34*
X13347500Y-12237500D03*
X13457500Y-12237500D03*
D35*
X12965000Y-12155000D03*
X12965000Y-12045000D03*
D34*
X13355000Y-11810000D03*
X13465000Y-11810000D03*
D11*
X10610000Y-9375000D03*
X14915000Y-9380000D03*
D12*
X14840000Y-10920000D03*
X9640000Y-10920000D03*
D11*
X9715000Y-9380000D03*
X5410000Y-9375000D03*
D34*
X8155000Y-11810000D03*
X8265000Y-11810000D03*
D35*
X7765000Y-12155000D03*
X7765000Y-12045000D03*
D34*
X8147500Y-12237500D03*
X8257500Y-12237500D03*
D49*
X9135000Y-11760000D03*
X9135000Y-11560000D03*
D34*
X8480000Y-11975000D03*
X8590000Y-11975000D03*
X9005000Y-11975000D03*
X9115000Y-11975000D03*
D35*
X7887500Y-12112500D03*
X7887500Y-12002500D03*
X8655000Y-11495000D03*
X8655000Y-11385000D03*
D34*
X8425000Y-11495000D03*
X8535000Y-11495000D03*
D35*
X7540000Y-12320000D03*
X7540000Y-12210000D03*
D34*
X6457500Y-12227500D03*
X6567500Y-12227500D03*
X6385000Y-11240000D03*
X6275000Y-11240000D03*
D35*
X6082500Y-11432500D03*
X6082500Y-11322500D03*
D34*
X6337500Y-12357500D03*
X6227500Y-12357500D03*
X6457500Y-12347500D03*
X6567500Y-12347500D03*
X5950000Y-11570000D03*
X5840000Y-11570000D03*
D35*
X6070000Y-11665000D03*
X6070000Y-11555000D03*
D34*
X5642500Y-11867500D03*
X5752500Y-11867500D03*
D35*
X5642500Y-11637500D03*
X5642500Y-11747500D03*
D14*
X9000000Y-11430000D03*
X9000000Y-11340000D03*
X6070000Y-11865000D03*
X6070000Y-11775000D03*
D13*
X5955000Y-11865000D03*
X5865000Y-11865000D03*
D14*
X5945000Y-11750000D03*
X5945000Y-11660000D03*
D45*
X9445000Y-11895000D03*
X9445000Y-11830000D03*
X9445000Y-11765090D03*
X9445000Y-11700000D03*
X9445000Y-11635000D03*
D46*
X9432500Y-12007500D03*
X9432500Y-11522500D03*
D47*
X9732500Y-12037500D03*
X9732500Y-11492500D03*
D48*
X9757500Y-11861250D03*
X9757500Y-11668750D03*
D43*
X7777500Y-12555000D03*
D44*
X7523500Y-12555000D03*
X7269500Y-12555000D03*
X7015500Y-12555000D03*
X6761500Y-12555000D03*
D13*
X7912500Y-12242500D03*
X8002500Y-12242500D03*
X8860000Y-11980000D03*
X8770000Y-11980000D03*
X7880000Y-11805000D03*
X7970000Y-11805000D03*
D14*
X9000000Y-11150000D03*
X9000000Y-11240000D03*
X7665000Y-12265000D03*
X7665000Y-12355000D03*
D13*
X7380000Y-11715000D03*
X7290000Y-11715000D03*
X7100000Y-11715000D03*
X7190000Y-11715000D03*
X6807500Y-12197500D03*
X6897500Y-12197500D03*
X6807500Y-12067500D03*
X6897500Y-12067500D03*
X6207500Y-12232500D03*
X6297500Y-12232500D03*
D42*
X8425000Y-11855000D03*
X8520000Y-11855000D03*
X8615000Y-11855000D03*
X8615000Y-11635000D03*
X8425000Y-11635000D03*
D41*
X8000000Y-12115000D03*
X8050000Y-12115000D03*
X8100000Y-12115000D03*
X8150000Y-12115000D03*
X8200000Y-12115000D03*
X8200000Y-11935000D03*
X8150000Y-11935000D03*
X8100000Y-11935000D03*
X8050000Y-11935000D03*
X8000000Y-11935000D03*
D40*
X5180000Y-11820000D03*
X5520000Y-11820000D03*
D39*
X8840000Y-11845000D03*
X8890000Y-11844996D03*
X8940000Y-11845000D03*
X8990000Y-11845000D03*
X8990000Y-11655000D03*
X8940000Y-11655000D03*
X8890000Y-11655000D03*
X8840000Y-11655000D03*
D38*
X8575000Y-12585000D03*
X9075000Y-12585000D03*
X8825000Y-12145000D03*
D23*
X8485000Y-12365000D03*
X9165000Y-12365000D03*
D21*
X6597500Y-12002500D03*
X6597500Y-11952500D03*
X6597500Y-11902500D03*
X6597500Y-11852500D03*
X6597500Y-11802500D03*
D20*
X6497500Y-11702500D03*
X6447500Y-11702500D03*
X6397500Y-11702500D03*
X6347500Y-11702500D03*
X6297500Y-11702500D03*
D21*
X6197500Y-11802500D03*
X6197500Y-11852500D03*
X6197500Y-11902500D03*
X6197500Y-11952500D03*
X6197500Y-12002500D03*
D20*
X6297500Y-12102500D03*
X6347500Y-12102500D03*
X6397500Y-12102500D03*
X6447500Y-12102500D03*
X6497500Y-12102500D03*
D19*
X6397500Y-11902500D03*
D18*
X7412500Y-12145000D03*
X7412500Y-12080000D03*
X7412500Y-12015000D03*
X7412500Y-11950000D03*
D17*
X7310000Y-11847500D03*
X7245000Y-11847500D03*
X7180000Y-11847500D03*
X7115000Y-11847500D03*
D18*
X7012500Y-11950000D03*
X7012500Y-12015000D03*
X7012500Y-12080000D03*
X7012500Y-12145000D03*
D17*
X7115000Y-12247500D03*
X7180000Y-12247500D03*
X7245000Y-12247500D03*
X7310000Y-12247500D03*
D19*
X7212500Y-12047500D03*
D37*
X6232500Y-11560000D03*
X6232500Y-11375000D03*
X6462500Y-11375000D03*
X6462500Y-11560000D03*
D15*
X6091800Y-10305000D03*
X7565000Y-10305000D03*
X9038200Y-10305000D03*
D13*
X7530000Y-11930000D03*
X7620000Y-11930000D03*
D14*
X7545000Y-11725000D03*
X7545000Y-11815000D03*
D11*
X5410000Y-12375000D03*
D12*
X5490000Y-11020000D03*
D11*
X9710000Y-12375000D03*
X14910000Y-6075000D03*
D12*
X10690000Y-4720000D03*
D11*
X10610000Y-6075000D03*
D14*
X12745000Y-5425000D03*
X12745000Y-5515000D03*
D13*
X12730000Y-5630000D03*
X12820000Y-5630000D03*
D15*
X11291800Y-4005000D03*
X12765000Y-4005000D03*
X14238200Y-4005000D03*
D37*
X11432500Y-5260000D03*
X11432500Y-5075000D03*
X11662500Y-5075000D03*
X11662500Y-5260000D03*
D18*
X12612500Y-5845000D03*
X12612500Y-5780000D03*
X12612500Y-5715000D03*
X12612500Y-5650000D03*
D17*
X12510000Y-5547500D03*
X12445000Y-5547500D03*
X12380000Y-5547500D03*
X12315000Y-5547500D03*
D18*
X12212500Y-5650000D03*
X12212500Y-5715000D03*
X12212500Y-5780000D03*
X12212500Y-5845000D03*
D17*
X12315000Y-5947500D03*
X12380000Y-5947500D03*
X12445000Y-5947500D03*
X12510000Y-5947500D03*
D19*
X12412500Y-5747500D03*
D21*
X11797500Y-5702500D03*
X11797500Y-5652500D03*
X11797500Y-5602500D03*
X11797500Y-5552500D03*
X11797500Y-5502500D03*
D20*
X11697500Y-5402500D03*
X11647500Y-5402500D03*
X11597500Y-5402500D03*
X11547500Y-5402500D03*
X11497500Y-5402500D03*
D21*
X11397500Y-5502500D03*
X11397500Y-5552500D03*
X11397500Y-5602500D03*
X11397500Y-5652500D03*
X11397500Y-5702500D03*
D20*
X11497500Y-5802500D03*
X11547500Y-5802500D03*
X11597500Y-5802500D03*
X11647500Y-5802500D03*
X11697500Y-5802500D03*
D19*
X11597500Y-5602500D03*
D38*
X13775000Y-6285000D03*
X14275000Y-6285000D03*
X14025000Y-5845000D03*
D23*
X13685000Y-6065000D03*
X14365000Y-6065000D03*
D39*
X14040000Y-5545000D03*
X14090000Y-5544996D03*
X14140000Y-5545000D03*
X14190000Y-5545000D03*
X14190000Y-5355000D03*
X14140000Y-5355000D03*
X14090000Y-5355000D03*
X14040000Y-5355000D03*
D40*
X10380000Y-5520000D03*
X10720000Y-5520000D03*
D41*
X13200000Y-5815000D03*
X13250000Y-5815000D03*
X13300000Y-5815000D03*
X13350000Y-5815000D03*
X13400000Y-5815000D03*
X13400000Y-5635000D03*
X13350000Y-5635000D03*
X13300000Y-5635000D03*
X13250000Y-5635000D03*
X13200000Y-5635000D03*
D42*
X13625000Y-5555000D03*
X13720000Y-5555000D03*
X13815000Y-5555000D03*
X13815000Y-5335000D03*
X13625000Y-5335000D03*
D13*
X11407500Y-5932500D03*
X11497500Y-5932500D03*
X12007500Y-5767500D03*
X12097500Y-5767500D03*
X12007500Y-5897500D03*
X12097500Y-5897500D03*
X12300000Y-5415000D03*
X12390000Y-5415000D03*
X12580000Y-5415000D03*
X12490000Y-5415000D03*
D14*
X12865000Y-5965000D03*
X12865000Y-6055000D03*
X14200000Y-4850000D03*
X14200000Y-4940000D03*
D13*
X13080000Y-5505000D03*
X13170000Y-5505000D03*
X14060000Y-5680000D03*
X13970000Y-5680000D03*
X13112500Y-5942500D03*
X13202500Y-5942500D03*
D43*
X12977500Y-6255000D03*
D44*
X12723500Y-6255000D03*
X12469500Y-6255000D03*
X12215500Y-6255000D03*
X11961500Y-6255000D03*
D45*
X14645000Y-5595000D03*
X14645000Y-5530000D03*
X14645000Y-5465090D03*
X14645000Y-5400000D03*
X14645000Y-5335000D03*
D46*
X14632500Y-5707500D03*
X14632500Y-5222500D03*
D47*
X14932500Y-5737500D03*
X14932500Y-5192500D03*
D48*
X14957500Y-5561250D03*
X14957500Y-5368750D03*
D14*
X11145000Y-5450000D03*
X11145000Y-5360000D03*
D13*
X11155000Y-5565000D03*
X11065000Y-5565000D03*
D14*
X11270000Y-5565000D03*
X11270000Y-5475000D03*
X14200000Y-5130000D03*
X14200000Y-5040000D03*
D35*
X10842500Y-5337500D03*
X10842500Y-5447500D03*
D34*
X10842500Y-5567500D03*
X10952500Y-5567500D03*
D35*
X11270000Y-5365000D03*
X11270000Y-5255000D03*
D34*
X11150000Y-5270000D03*
X11040000Y-5270000D03*
X11657500Y-6047500D03*
X11767500Y-6047500D03*
X11537500Y-6057500D03*
X11427500Y-6057500D03*
D35*
X11282500Y-5132500D03*
X11282500Y-5022500D03*
D34*
X11585000Y-4940000D03*
X11475000Y-4940000D03*
X11657500Y-5927500D03*
X11767500Y-5927500D03*
D35*
X12740000Y-6020000D03*
X12740000Y-5910000D03*
D34*
X13625000Y-5195000D03*
X13735000Y-5195000D03*
D35*
X13855000Y-5195000D03*
X13855000Y-5085000D03*
X13087500Y-5812500D03*
X13087500Y-5702500D03*
D34*
X14205000Y-5675000D03*
X14315000Y-5675000D03*
X13680000Y-5675000D03*
X13790000Y-5675000D03*
D49*
X14335000Y-5460000D03*
X14335000Y-5260000D03*
D34*
X13347500Y-5937500D03*
X13457500Y-5937500D03*
D35*
X12965000Y-5855000D03*
X12965000Y-5745000D03*
D34*
X13355000Y-5510000D03*
X13465000Y-5510000D03*
D11*
X10610000Y-3075000D03*
X14915000Y-3080000D03*
D12*
X14840000Y-4620000D03*
X9640000Y-4620000D03*
D11*
X9715000Y-3080000D03*
X5410000Y-3075000D03*
D34*
X8155000Y-5510000D03*
X8265000Y-5510000D03*
D35*
X7765000Y-5855000D03*
X7765000Y-5745000D03*
D34*
X8147500Y-5937500D03*
X8257500Y-5937500D03*
D49*
X9135000Y-5460000D03*
X9135000Y-5260000D03*
D34*
X8480000Y-5675000D03*
X8590000Y-5675000D03*
X9005000Y-5675000D03*
X9115000Y-5675000D03*
D35*
X7887500Y-5812500D03*
X7887500Y-5702500D03*
X8655000Y-5195000D03*
X8655000Y-5085000D03*
D34*
X8425000Y-5195000D03*
X8535000Y-5195000D03*
D35*
X7540000Y-6020000D03*
X7540000Y-5910000D03*
D34*
X6457500Y-5927500D03*
X6567500Y-5927500D03*
X6385000Y-4940000D03*
X6275000Y-4940000D03*
D35*
X6082500Y-5132500D03*
X6082500Y-5022500D03*
D34*
X6337500Y-6057500D03*
X6227500Y-6057500D03*
X6457500Y-6047500D03*
X6567500Y-6047500D03*
X5950000Y-5270000D03*
X5840000Y-5270000D03*
D35*
X6070000Y-5365000D03*
X6070000Y-5255000D03*
D34*
X5642500Y-5567500D03*
X5752500Y-5567500D03*
D35*
X5642500Y-5337500D03*
X5642500Y-5447500D03*
D14*
X9000000Y-5130000D03*
X9000000Y-5040000D03*
X6070000Y-5565000D03*
X6070000Y-5475000D03*
D13*
X5955000Y-5565000D03*
X5865000Y-5565000D03*
D14*
X5945000Y-5450000D03*
X5945000Y-5360000D03*
D45*
X9445000Y-5595000D03*
X9445000Y-5530000D03*
X9445000Y-5465090D03*
X9445000Y-5400000D03*
X9445000Y-5335000D03*
D46*
X9432500Y-5707500D03*
X9432500Y-5222500D03*
D47*
X9732500Y-5737500D03*
X9732500Y-5192500D03*
D48*
X9757500Y-5561250D03*
X9757500Y-5368750D03*
D43*
X7777500Y-6255000D03*
D44*
X7523500Y-6255000D03*
X7269500Y-6255000D03*
X7015500Y-6255000D03*
X6761500Y-6255000D03*
D13*
X7912500Y-5942500D03*
X8002500Y-5942500D03*
X8860000Y-5680000D03*
X8770000Y-5680000D03*
X7880000Y-5505000D03*
X7970000Y-5505000D03*
D14*
X9000000Y-4850000D03*
X9000000Y-4940000D03*
X7665000Y-5965000D03*
X7665000Y-6055000D03*
D13*
X7380000Y-5415000D03*
X7290000Y-5415000D03*
X7100000Y-5415000D03*
X7190000Y-5415000D03*
X6807500Y-5897500D03*
X6897500Y-5897500D03*
X6807500Y-5767500D03*
X6897500Y-5767500D03*
X6207500Y-5932500D03*
X6297500Y-5932500D03*
D42*
X8425000Y-5555000D03*
X8520000Y-5555000D03*
X8615000Y-5555000D03*
X8615000Y-5335000D03*
X8425000Y-5335000D03*
D41*
X8000000Y-5815000D03*
X8050000Y-5815000D03*
X8100000Y-5815000D03*
X8150000Y-5815000D03*
X8200000Y-5815000D03*
X8200000Y-5635000D03*
X8150000Y-5635000D03*
X8100000Y-5635000D03*
X8050000Y-5635000D03*
X8000000Y-5635000D03*
D40*
X5180000Y-5520000D03*
X5520000Y-5520000D03*
D39*
X8840000Y-5545000D03*
X8890000Y-5544996D03*
X8940000Y-5545000D03*
X8990000Y-5545000D03*
X8990000Y-5355000D03*
X8940000Y-5355000D03*
X8890000Y-5355000D03*
X8840000Y-5355000D03*
D38*
X8575000Y-6285000D03*
X9075000Y-6285000D03*
X8825000Y-5845000D03*
D23*
X8485000Y-6065000D03*
X9165000Y-6065000D03*
D21*
X6597500Y-5702500D03*
X6597500Y-5652500D03*
X6597500Y-5602500D03*
X6597500Y-5552500D03*
X6597500Y-5502500D03*
D20*
X6497500Y-5402500D03*
X6447500Y-5402500D03*
X6397500Y-5402500D03*
X6347500Y-5402500D03*
X6297500Y-5402500D03*
D21*
X6197500Y-5502500D03*
X6197500Y-5552500D03*
X6197500Y-5602500D03*
X6197500Y-5652500D03*
X6197500Y-5702500D03*
D20*
X6297500Y-5802500D03*
X6347500Y-5802500D03*
X6397500Y-5802500D03*
X6447500Y-5802500D03*
X6497500Y-5802500D03*
D19*
X6397500Y-5602500D03*
D18*
X7412500Y-5845000D03*
X7412500Y-5780000D03*
X7412500Y-5715000D03*
X7412500Y-5650000D03*
D17*
X7310000Y-5547500D03*
X7245000Y-5547500D03*
X7180000Y-5547500D03*
X7115000Y-5547500D03*
D18*
X7012500Y-5650000D03*
X7012500Y-5715000D03*
X7012500Y-5780000D03*
X7012500Y-5845000D03*
D17*
X7115000Y-5947500D03*
X7180000Y-5947500D03*
X7245000Y-5947500D03*
X7310000Y-5947500D03*
D19*
X7212500Y-5747500D03*
D37*
X6232500Y-5260000D03*
X6232500Y-5075000D03*
X6462500Y-5075000D03*
X6462500Y-5260000D03*
D15*
X6091800Y-4005000D03*
X7565000Y-4005000D03*
X9038200Y-4005000D03*
D13*
X7530000Y-5630000D03*
X7620000Y-5630000D03*
D14*
X7545000Y-5425000D03*
X7545000Y-5515000D03*
D11*
X5410000Y-6075000D03*
D12*
X5490000Y-4720000D03*
D11*
X9710000Y-6075000D03*
M02*
