M48
METRIC,TZ
T1C0.300
T2C0.400
T3C0.650
T4C0.700
T5C1.016
%
G90
G05
T1
X67100Y-55550
X67100Y-118550
X68400Y-56850
X68400Y-119850
X74500Y-54600
X74500Y-117600
X75300Y-57350
X75300Y-120350
X76250Y-59000
X76250Y-122000
X89400Y-52700
X89400Y-115700
X119100Y-55550
X119100Y-118550
X120400Y-56850
X120400Y-119850
X126500Y-54600
X126500Y-117600
X127300Y-57350
X127300Y-120350
X128250Y-59000
X128250Y-122000
X141400Y-52700
X141400Y-115700
X189050Y-38550
X189050Y-88550
X190950Y-53450
X190950Y-103450
X191900Y-60850
X191900Y-110850
X193200Y-59550
X193200Y-109550
X193700Y-52650
X193700Y-102650
X195350Y-51700
X195350Y-101700
T2
X57750Y-53400
X57750Y-116400
X59650Y-51450
X59650Y-114450
X61250Y-59350
X61250Y-122350
X61700Y-49400
X61700Y-112400
X62250Y-61500
X62250Y-124500
X64000Y-61450
X64000Y-124450
X66100Y-52600
X66100Y-115600
X66500Y-59300
X66500Y-60450
X66500Y-122300
X66500Y-123450
X70000Y-54150
X70000Y-117150
X71350Y-40400
X71350Y-103400
X71650Y-60600
X71650Y-123600
X73100Y-60450
X73100Y-123450
X74250Y-59300
X74250Y-122300
X75650Y-44900
X75650Y-107900
X76600Y-54250
X76600Y-117250
X77550Y-56850
X77550Y-119850
X78150Y-60650
X78150Y-123650
X78250Y-59500
X78250Y-122500
X79900Y-40400
X79900Y-103400
X80450Y-55400
X80450Y-118400
X81600Y-55850
X81600Y-118850
X82550Y-60100
X82550Y-123100
X85350Y-50850
X85350Y-113850
X85400Y-57750
X85400Y-120750
X87550Y-56100
X87550Y-119100
X88400Y-52100
X88400Y-115100
X91350Y-51450
X91350Y-114450
X94100Y-58900
X94100Y-121900
X94150Y-50650
X94150Y-113650
X97100Y-50650
X97100Y-113650
X98850Y-57350
X98850Y-120350
X109750Y-53400
X109750Y-116400
X111650Y-51450
X111650Y-114450
X113250Y-59350
X113250Y-122350
X113700Y-49400
X113700Y-112400
X114250Y-61500
X114250Y-124500
X116000Y-61450
X116000Y-124450
X118100Y-52600
X118100Y-115600
X118500Y-59300
X118500Y-60450
X118500Y-122300
X118500Y-123450
X122000Y-54150
X122000Y-117150
X123350Y-40400
X123350Y-103400
X123650Y-60600
X123650Y-123600
X125100Y-60450
X125100Y-123450
X126250Y-59300
X126250Y-122300
X127650Y-44900
X127650Y-107900
X128600Y-54250
X128600Y-117250
X129550Y-56850
X129550Y-119850
X130150Y-60650
X130150Y-123650
X130250Y-59500
X130250Y-122500
X131900Y-40400
X131900Y-103400
X132450Y-55400
X132450Y-118400
X133600Y-55850
X133600Y-118850
X134550Y-60100
X134550Y-123100
X137350Y-50850
X137350Y-113850
X137400Y-57750
X137400Y-120750
X139550Y-56100
X139550Y-119100
X140400Y-52100
X140400Y-115100
X143350Y-51450
X143350Y-114450
X146100Y-58900
X146100Y-121900
X146150Y-50650
X146150Y-113650
X149100Y-50650
X149100Y-113650
X150850Y-57350
X150850Y-120350
X176750Y-48050
X176750Y-56600
X176750Y-98050
X176750Y-106600
X181250Y-52300
X181250Y-102300
X185750Y-66250
X185750Y-116250
X187000Y-30850
X187000Y-33800
X187000Y-80850
X187000Y-83800
X187200Y-42600
X187200Y-92600
X187800Y-36600
X187800Y-68300
X187800Y-86600
X187800Y-118300
X188450Y-39550
X188450Y-89550
X188950Y-61850
X188950Y-111850
X189750Y-70200
X189750Y-120200
X190500Y-57950
X190500Y-107950
X190600Y-51350
X190600Y-101350
X191750Y-47500
X191750Y-97500
X192200Y-46350
X192200Y-96350
X192450Y-40400
X192450Y-90400
X193200Y-50400
X193200Y-100400
X193700Y-29100
X193700Y-79100
X194100Y-42550
X194100Y-92550
X195250Y-33850
X195250Y-83850
X195650Y-53700
X195650Y-61450
X195650Y-103700
X195650Y-111450
X195700Y-66700
X195700Y-116700
X195850Y-49700
X195850Y-99700
X196450Y-45400
X196450Y-95400
X196800Y-54850
X196800Y-61450
X196800Y-104850
X196800Y-111450
X196950Y-56300
X196950Y-106300
X197000Y-49800
X197000Y-99800
X197800Y-63950
X197800Y-113950
X197850Y-65700
X197850Y-115700
T5
X67615Y-62550
X67615Y-125550
X70155Y-62550
X70155Y-125550
X72695Y-62550
X72695Y-125550
X75235Y-62550
X75235Y-125550
X77775Y-62550
X77775Y-125550
X119615Y-62550
X119615Y-125550
X122155Y-62550
X122155Y-125550
X124695Y-62550
X124695Y-125550
X127235Y-62550
X127235Y-125550
X129775Y-62550
X129775Y-125550
X198900Y-50175
X198900Y-52715
X198900Y-55255
X198900Y-57795
X198900Y-60335
X198900Y-100175
X198900Y-102715
X198900Y-105255
X198900Y-107795
X198900Y-110335
T3
X94525Y-52225G85X94125Y-52225
G05
X94525Y-57075G85X94125Y-57075
G05
X94525Y-115225G85X94125Y-115225
G05
X94525Y-120075G85X94125Y-120075
G05
X146525Y-52225G85X146125Y-52225
G05
X146525Y-57075G85X146125Y-57075
G05
X146525Y-115225G85X146125Y-115225
G05
X146525Y-120075G85X146125Y-120075
G05
X188575Y-33425G85X188575Y-33825
G05
X188575Y-83425G85X188575Y-83825
G05
X193425Y-33425G85X193425Y-33825
G05
X193425Y-83425G85X193425Y-83825
G05
T4
X97575Y-51925G85X97075Y-51925
G05
X97575Y-57375G85X97075Y-57375
G05
X97575Y-114925G85X97075Y-114925
G05
X97575Y-120375G85X97075Y-120375
G05
X149575Y-51925G85X149075Y-51925
G05
X149575Y-57375G85X149075Y-57375
G05
X149575Y-114925G85X149075Y-114925
G05
X149575Y-120375G85X149075Y-120375
G05
X188275Y-30375G85X188275Y-30875
G05
X188275Y-80375G85X188275Y-80875
G05
X193725Y-30375G85X193725Y-30875
G05
X193725Y-80375G85X193725Y-80875
G05
T0
M30
