M48
METRIC,TZ
T1C0.900
T2C2.200
T3C4.000
%
G90
G05
T1
X84850Y-60650
X84850Y-123650
X91650Y-60650
X91650Y-123650
X136850Y-60650
X136850Y-123650
X143650Y-60650
X143650Y-123650
X197000Y-36300
X197000Y-43100
X197000Y-86300
X197000Y-93100
T2
X54100Y-30750
X54100Y-60750
X54100Y-93750
X54100Y-123750
X97100Y-60750
X97100Y-123750
X97150Y-30800
X97150Y-93800
X106100Y-30750
X106100Y-60750
X106100Y-93750
X106100Y-123750
X149100Y-60750
X149100Y-123750
X149150Y-30800
X149150Y-93800
X167100Y-73850
X167100Y-123850
X167150Y-30800
X167150Y-80800
X197100Y-30850
X197100Y-73850
X197100Y-80850
X197100Y-123850
T3
X54900Y-47200
X54900Y-110200
X96400Y-46200
X96400Y-109200
X106900Y-47200
X106900Y-110200
X148400Y-46200
X148400Y-109200
X182550Y-31550
X182550Y-81550
X183550Y-73050
X183550Y-123050
T0
M30
