G04 #@! TF.FileFunction,Copper,L1,Top,Signal*
%FSLAX46Y46*%
G04 Gerber Fmt 4.6, Leading zero omitted, Abs format (unit mm)*
G04 Created by KiCad (PCBNEW 4.0.2+dfsg1-stable) date Sun 14 May 2017 07:45:38 PM MDT*
%MOMM*%
G01*
G04 APERTURE LIST*
%ADD10C,0.100000*%
%ADD11R,1.397000X0.431800*%
%ADD12C,1.250000*%
%ADD13C,1.550000*%
%ADD14R,0.500000X0.900000*%
%ADD15R,1.727200X2.032000*%
%ADD16O,1.727200X2.032000*%
%ADD17R,0.800000X0.750000*%
%ADD18R,0.750000X0.800000*%
%ADD19R,1.800860X1.597660*%
%ADD20R,0.800000X0.600000*%
%ADD21R,0.900000X0.500000*%
%ADD22R,1.100000X0.600000*%
%ADD23R,0.400000X0.600000*%
%ADD24O,2.400000X1.000000*%
%ADD25R,1.000000X1.000000*%
%ADD26R,0.225000X0.600000*%
%ADD27C,0.600000*%
%ADD28C,0.250000*%
%ADD29C,0.400000*%
%ADD30C,0.160000*%
%ADD31C,0.200000*%
G04 APERTURE END LIST*
D10*
D11*
X184794000Y-113930400D03*
X184794000Y-113295400D03*
X184794000Y-112635000D03*
X184794000Y-112000000D03*
X184794000Y-111339600D03*
X184794000Y-110691900D03*
X184794000Y-110044200D03*
X179206000Y-110044200D03*
X179206000Y-110691900D03*
X179206000Y-111339600D03*
X179206000Y-112000000D03*
X179206000Y-112647700D03*
X179206000Y-113295400D03*
X179206000Y-113943100D03*
D12*
X162800000Y-113100000D03*
X162800000Y-108100000D03*
D13*
X160100000Y-114100000D03*
X160100000Y-107100000D03*
D14*
X178950000Y-117000000D03*
X177450000Y-117000000D03*
D15*
X189980000Y-120300000D03*
D16*
X187440000Y-120300000D03*
X184900000Y-120300000D03*
X182360000Y-120300000D03*
X179820000Y-120300000D03*
D17*
X167750000Y-111400000D03*
X166250000Y-111400000D03*
X167750000Y-113059421D03*
X166250000Y-113059421D03*
X171542721Y-115800000D03*
X173042721Y-115800000D03*
D18*
X167500000Y-103550000D03*
X167500000Y-105050000D03*
D17*
X171142721Y-108700000D03*
X172642721Y-108700000D03*
D18*
X169600000Y-103550000D03*
X169600000Y-105050000D03*
X171700000Y-99750000D03*
X171700000Y-101250000D03*
D17*
X184750000Y-117300000D03*
X183250000Y-117300000D03*
X184750000Y-115700000D03*
X183250000Y-115700000D03*
D18*
X184800000Y-106150000D03*
X184800000Y-107650000D03*
X186400000Y-106150000D03*
X186400000Y-107650000D03*
D19*
X176000000Y-105280140D03*
X176000000Y-108119860D03*
D20*
X165900000Y-103450000D03*
X165900000Y-105150000D03*
D14*
X168642721Y-115800000D03*
X170142721Y-115800000D03*
X168242721Y-108700000D03*
X169742721Y-108700000D03*
D21*
X186500000Y-117450000D03*
X186500000Y-115950000D03*
X176000000Y-117650000D03*
X176000000Y-116150000D03*
D22*
X166800000Y-99750000D03*
X166800000Y-100700000D03*
X166800000Y-101650000D03*
X169600000Y-101650000D03*
X169600000Y-99750000D03*
D23*
X176250000Y-114800000D03*
X177150000Y-114800000D03*
D21*
X173600000Y-104750000D03*
X173600000Y-106250000D03*
D24*
X189000000Y-111335000D03*
X189000000Y-110065000D03*
X189000000Y-112605000D03*
X189000000Y-108795000D03*
X189000000Y-107525000D03*
X189000000Y-113875000D03*
X189000000Y-106255000D03*
X189000000Y-115145000D03*
D25*
X200200000Y-115800000D03*
D26*
X170292721Y-113159421D03*
X170692721Y-113159421D03*
X171092721Y-113159421D03*
X171492721Y-113159421D03*
X171892721Y-113159421D03*
X171892721Y-111359421D03*
X171492721Y-111359421D03*
X171092721Y-111359421D03*
X170692721Y-111359421D03*
X170292721Y-111359421D03*
D27*
X173600000Y-107200000D03*
X178500000Y-116000000D03*
X167500000Y-97900000D03*
X164900000Y-96900000D03*
X163300000Y-102700000D03*
X164800000Y-103700000D03*
X186400000Y-108274990D03*
X184800000Y-108274990D03*
X187700000Y-104600000D03*
X180600000Y-106300000D03*
X184100000Y-101000000D03*
X182300000Y-117300000D03*
X182300000Y-115700000D03*
X176000000Y-118400000D03*
X172600000Y-111400000D03*
X171700000Y-109700000D03*
X183400000Y-108274990D03*
X184300000Y-114700000D03*
X174500000Y-103000000D03*
X177700000Y-108100000D03*
X177700000Y-112000000D03*
X174300000Y-119600000D03*
X187400000Y-116800000D03*
X186112421Y-112000000D03*
D28*
X178500000Y-116550000D02*
X178500000Y-116000000D01*
D29*
X173600000Y-106250000D02*
X173600000Y-107200000D01*
D28*
X178500000Y-116550000D02*
X178950000Y-117000000D01*
D30*
X170692721Y-111359421D02*
X170692721Y-111992721D01*
X170692721Y-111992721D02*
X170700000Y-112000000D01*
X170700000Y-112000000D02*
X171485442Y-112000000D01*
X171485442Y-112000000D02*
X171492721Y-112007279D01*
X171492721Y-112007279D02*
X171492721Y-111359421D01*
D28*
X186400000Y-107650000D02*
X186400000Y-108274990D01*
X184800000Y-107650000D02*
X184800000Y-108274990D01*
D29*
X183250000Y-117300000D02*
X182300000Y-117300000D01*
X183250000Y-115700000D02*
X182300000Y-115700000D01*
X176000000Y-117650000D02*
X176000000Y-118400000D01*
D28*
X171892721Y-111359421D02*
X172559421Y-111359421D01*
X172559421Y-111359421D02*
X172600000Y-111400000D01*
D30*
X171492721Y-111359421D02*
X171892721Y-111359421D01*
D29*
X170700000Y-99750000D02*
X171700000Y-99750000D01*
X169600000Y-99750000D02*
X170700000Y-99750000D01*
X170700000Y-99750000D02*
X170700000Y-106042721D01*
X170700000Y-106042721D02*
X168242721Y-108500000D01*
X168242721Y-108500000D02*
X168242721Y-108700000D01*
X171142721Y-109700000D02*
X171142721Y-110457279D01*
X171142721Y-110457279D02*
X171092721Y-110507279D01*
D30*
X171092721Y-111359421D02*
X171092721Y-110507279D01*
D28*
X171092721Y-109750000D02*
X171142721Y-109700000D01*
D29*
X167750000Y-111400000D02*
X167750000Y-109192721D01*
X167750000Y-109192721D02*
X168242721Y-108700000D01*
X167750000Y-113059421D02*
X167750000Y-114907279D01*
X167750000Y-114907279D02*
X168642721Y-115800000D01*
X171142721Y-109700000D02*
X171142721Y-108700000D01*
X171700000Y-109700000D02*
X171142721Y-109700000D01*
X167750000Y-111400000D02*
X167750000Y-113059421D01*
D28*
X167750000Y-113059421D02*
X168059421Y-113059421D01*
X168059421Y-113059421D02*
X168159421Y-113159421D01*
X168159421Y-113159421D02*
X169692721Y-113159421D01*
X169692721Y-113159421D02*
X170255220Y-113159421D01*
D29*
X174500000Y-103000000D02*
X174500000Y-102575736D01*
X174500000Y-102575736D02*
X174500000Y-99750000D01*
X171700000Y-99750000D02*
X174500000Y-99750000D01*
X174500000Y-99750000D02*
X175600000Y-99750000D01*
X175600000Y-99750000D02*
X183400000Y-107550000D01*
X183400000Y-108274990D02*
X183400000Y-107550000D01*
X183400000Y-107550000D02*
X184800000Y-106150000D01*
X184794000Y-114700000D02*
X184794000Y-115656000D01*
X184794000Y-113930400D02*
X184794000Y-114700000D01*
X184794000Y-114700000D02*
X184300000Y-114700000D01*
D28*
X186500000Y-115950000D02*
X185000000Y-115950000D01*
X185000000Y-115950000D02*
X184750000Y-115700000D01*
D29*
X184750000Y-115700000D02*
X184750000Y-117300000D01*
X184794000Y-115656000D02*
X184750000Y-115700000D01*
X187440000Y-120300000D02*
X187440000Y-120147600D01*
X187440000Y-120147600D02*
X184750000Y-117457600D01*
X184750000Y-117457600D02*
X184750000Y-117300000D01*
X186400000Y-106150000D02*
X189695000Y-106150000D01*
X189695000Y-106150000D02*
X189800000Y-106255000D01*
X184800000Y-106150000D02*
X186400000Y-106150000D01*
D28*
X184775000Y-117300000D02*
X184750000Y-117300000D01*
X184687600Y-117300000D02*
X184750000Y-117300000D01*
X171492721Y-113892721D02*
X171542721Y-113942721D01*
X171542721Y-113942721D02*
X171542721Y-115800000D01*
D30*
X171492721Y-113159421D02*
X171492721Y-113892721D01*
X171492721Y-113892721D02*
X171500000Y-113900000D01*
D29*
X166800000Y-99750000D02*
X165700000Y-99750000D01*
X165700000Y-99750000D02*
X165700000Y-101650000D01*
X165700000Y-101650000D02*
X166800000Y-101650000D01*
X165900000Y-103450000D02*
X166800000Y-103450000D01*
X166800000Y-103450000D02*
X167400000Y-103450000D01*
X166800000Y-101650000D02*
X166800000Y-102350000D01*
X166800000Y-102350000D02*
X166800000Y-103450000D01*
X167400000Y-103450000D02*
X167500000Y-103550000D01*
X169600000Y-103550000D02*
X169600000Y-101650000D01*
X173600000Y-104750000D02*
X175469860Y-104750000D01*
X175469860Y-104750000D02*
X176000000Y-105280140D01*
X176069860Y-105350000D02*
X176000000Y-105280140D01*
X177700000Y-108100000D02*
X176019860Y-108100000D01*
X176019860Y-108100000D02*
X176000000Y-108119860D01*
X179206000Y-112000000D02*
X177700000Y-112000000D01*
X165800000Y-105150000D02*
X164700000Y-106250000D01*
X164700000Y-106250000D02*
X164700000Y-114700000D01*
X164700000Y-114700000D02*
X167500000Y-117500000D01*
X167500000Y-117500000D02*
X173300000Y-117500000D01*
X173300000Y-117500000D02*
X174300000Y-118500000D01*
X174300000Y-118500000D02*
X174300000Y-118600000D01*
X174300000Y-118600000D02*
X174300000Y-119600000D01*
D28*
X165900000Y-105150000D02*
X165800000Y-105150000D01*
X187400000Y-116800000D02*
X187400000Y-117400000D01*
X187400000Y-117400000D02*
X187350000Y-117450000D01*
X184794000Y-112000000D02*
X186037499Y-112000000D01*
D29*
X189980000Y-120300000D02*
X189980000Y-120080000D01*
X189980000Y-120080000D02*
X187350000Y-117450000D01*
X187350000Y-117450000D02*
X186500000Y-117450000D01*
D28*
X189980000Y-119580000D02*
X189980000Y-120300000D01*
X177150000Y-114800000D02*
X177600000Y-114800000D01*
X178040000Y-114360000D02*
X178060000Y-114360000D01*
X177600000Y-114800000D02*
X178040000Y-114360000D01*
X179206000Y-113295400D02*
X178104600Y-113295400D01*
X178104600Y-113295400D02*
X178060000Y-113340000D01*
X178060000Y-113340000D02*
X178060000Y-114360000D01*
X178060000Y-114360000D02*
X182360000Y-118660000D01*
X182360000Y-118660000D02*
X182360000Y-120300000D01*
X179206000Y-112647700D02*
X177071070Y-112647700D01*
X177071070Y-112647700D02*
X174900000Y-114818770D01*
X174900000Y-114818770D02*
X174900000Y-118900000D01*
X178706400Y-120300000D02*
X179820000Y-120300000D01*
X174900000Y-118900000D02*
X176300000Y-120300000D01*
X176300000Y-120300000D02*
X178706400Y-120300000D01*
X170692721Y-113907279D02*
X170142721Y-114457279D01*
X170142721Y-114457279D02*
X170142721Y-115800000D01*
X174200000Y-114000000D02*
X176860400Y-111339600D01*
X176860400Y-111339600D02*
X179206000Y-111339600D01*
D30*
X170692721Y-113159421D02*
X170692721Y-113907279D01*
D28*
X170542721Y-107900000D02*
X169742721Y-108700000D01*
D30*
X170292721Y-110792721D02*
X170292721Y-110592721D01*
D28*
X170292721Y-110592721D02*
X169742721Y-110042721D01*
X169742721Y-110042721D02*
X169742721Y-108700000D01*
X173202723Y-107900000D02*
X170542721Y-107900000D01*
X173900000Y-108597277D02*
X173202723Y-107900000D01*
X173900000Y-108600000D02*
X173900000Y-108597277D01*
X175991900Y-110691900D02*
X173900000Y-108600000D01*
X179206000Y-110691900D02*
X175991900Y-110691900D01*
D30*
X170292721Y-111359421D02*
X170292721Y-110792721D01*
D28*
X176000000Y-116150000D02*
X176600000Y-116150000D01*
X176600000Y-116150000D02*
X177450000Y-117000000D01*
X176250000Y-114800000D02*
X176250000Y-115900000D01*
X176250000Y-115900000D02*
X176000000Y-116150000D01*
X184794000Y-110044200D02*
X189779200Y-110044200D01*
X189779200Y-110044200D02*
X189800000Y-110065000D01*
X179206000Y-109578300D02*
X179884300Y-108900000D01*
X179884300Y-108900000D02*
X189695000Y-108900000D01*
X189695000Y-108900000D02*
X189800000Y-108795000D01*
X179206000Y-110044200D02*
X179206000Y-109578300D01*
X187075000Y-113875000D02*
X185835000Y-112635000D01*
X185835000Y-112635000D02*
X184794000Y-112635000D01*
X189800000Y-113875000D02*
X187075000Y-113875000D01*
X189800000Y-112605000D02*
X187805000Y-112605000D01*
X187805000Y-112605000D02*
X186539600Y-111339600D01*
X186539600Y-111339600D02*
X185742500Y-111339600D01*
X185742500Y-111339600D02*
X184794000Y-111339600D01*
X184794000Y-110691900D02*
X186691900Y-110691900D01*
X186691900Y-110691900D02*
X187335000Y-111335000D01*
X187335000Y-111335000D02*
X189800000Y-111335000D01*
X189800000Y-115145000D02*
X187445000Y-115145000D01*
X187445000Y-115145000D02*
X185595400Y-113295400D01*
X185595400Y-113295400D02*
X184794000Y-113295400D01*
D31*
G36*
X192000000Y-121725000D02*
X185573746Y-121725000D01*
X185762297Y-121635167D01*
X186149284Y-121215147D01*
X186326796Y-120731538D01*
X186364974Y-120923472D01*
X186617211Y-121300971D01*
X186994710Y-121553208D01*
X187440000Y-121641782D01*
X187885290Y-121553208D01*
X188262789Y-121300971D01*
X188515026Y-120923472D01*
X188603600Y-120478182D01*
X188603600Y-120121818D01*
X188515026Y-119676528D01*
X188262789Y-119299029D01*
X187885290Y-119046792D01*
X187440000Y-118958218D01*
X187037740Y-119038233D01*
X185994054Y-117994547D01*
X186050000Y-118005877D01*
X186950000Y-118005877D01*
X187061173Y-117984958D01*
X187115500Y-117950000D01*
X187142894Y-117950000D01*
X188810523Y-119617630D01*
X188810523Y-121316000D01*
X188831442Y-121427173D01*
X188897145Y-121529279D01*
X188997397Y-121597778D01*
X189116400Y-121621877D01*
X190843600Y-121621877D01*
X190954773Y-121600958D01*
X191056879Y-121535255D01*
X191125378Y-121435003D01*
X191149477Y-121316000D01*
X191149477Y-119284000D01*
X191128558Y-119172827D01*
X191062855Y-119070721D01*
X190962603Y-119002222D01*
X190843600Y-118978123D01*
X189585230Y-118978123D01*
X187827821Y-117220715D01*
X187908359Y-117140317D01*
X187999896Y-116919871D01*
X188000104Y-116681176D01*
X187908952Y-116460571D01*
X187740317Y-116291641D01*
X187519871Y-116200104D01*
X187281176Y-116199896D01*
X187253590Y-116211294D01*
X187255877Y-116200000D01*
X187255877Y-115700000D01*
X187234958Y-115588827D01*
X187169255Y-115486721D01*
X187069003Y-115418222D01*
X186950000Y-115394123D01*
X186050000Y-115394123D01*
X185938827Y-115415042D01*
X185836721Y-115480745D01*
X185806483Y-115525000D01*
X185455877Y-115525000D01*
X185455877Y-115325000D01*
X185434958Y-115213827D01*
X185369255Y-115111721D01*
X185294000Y-115060302D01*
X185294000Y-114452177D01*
X185492500Y-114452177D01*
X185603673Y-114431258D01*
X185705779Y-114365555D01*
X185774278Y-114265303D01*
X185798377Y-114146300D01*
X185798377Y-114099417D01*
X187144479Y-115445520D01*
X187236608Y-115507078D01*
X187282360Y-115537649D01*
X187445000Y-115570000D01*
X187610925Y-115570000D01*
X187704928Y-115710685D01*
X187964466Y-115884104D01*
X188270613Y-115945000D01*
X189729387Y-115945000D01*
X190035534Y-115884104D01*
X190295072Y-115710685D01*
X190468491Y-115451147D01*
X190529387Y-115145000D01*
X190468491Y-114838853D01*
X190295072Y-114579315D01*
X190191336Y-114510000D01*
X190295072Y-114440685D01*
X190468491Y-114181147D01*
X190529387Y-113875000D01*
X190468491Y-113568853D01*
X190295072Y-113309315D01*
X190191336Y-113240000D01*
X190295072Y-113170685D01*
X190468491Y-112911147D01*
X190529387Y-112605000D01*
X190468491Y-112298853D01*
X190295072Y-112039315D01*
X190191336Y-111970000D01*
X190295072Y-111900685D01*
X190468491Y-111641147D01*
X190529387Y-111335000D01*
X190468491Y-111028853D01*
X190295072Y-110769315D01*
X190191336Y-110700000D01*
X190295072Y-110630685D01*
X190468491Y-110371147D01*
X190529387Y-110065000D01*
X190468491Y-109758853D01*
X190295072Y-109499315D01*
X190191336Y-109430000D01*
X190295072Y-109360685D01*
X190468491Y-109101147D01*
X190529387Y-108795000D01*
X190468491Y-108488853D01*
X190388737Y-108369494D01*
X190583884Y-108196751D01*
X190752844Y-107843624D01*
X190638083Y-107675000D01*
X189150000Y-107675000D01*
X189150000Y-107695000D01*
X188850000Y-107695000D01*
X188850000Y-107675000D01*
X187361917Y-107675000D01*
X187255850Y-107830850D01*
X187225000Y-107800000D01*
X186550000Y-107800000D01*
X186550000Y-107820000D01*
X186250000Y-107820000D01*
X186250000Y-107800000D01*
X184950000Y-107800000D01*
X184950000Y-107820000D01*
X184650000Y-107820000D01*
X184650000Y-107800000D01*
X184630000Y-107800000D01*
X184630000Y-107500000D01*
X184650000Y-107500000D01*
X184650000Y-107480000D01*
X184950000Y-107480000D01*
X184950000Y-107500000D01*
X186250000Y-107500000D01*
X186250000Y-107480000D01*
X186550000Y-107480000D01*
X186550000Y-107500000D01*
X187225000Y-107500000D01*
X187357091Y-107367909D01*
X187361917Y-107375000D01*
X188850000Y-107375000D01*
X188850000Y-107355000D01*
X189150000Y-107355000D01*
X189150000Y-107375000D01*
X190638083Y-107375000D01*
X190752844Y-107206376D01*
X190583884Y-106853249D01*
X190388737Y-106680506D01*
X190468491Y-106561147D01*
X190529387Y-106255000D01*
X190468491Y-105948853D01*
X190295072Y-105689315D01*
X190035534Y-105515896D01*
X189729387Y-105455000D01*
X188270613Y-105455000D01*
X187964466Y-105515896D01*
X187763767Y-105650000D01*
X187062060Y-105650000D01*
X187059958Y-105638827D01*
X186994255Y-105536721D01*
X186894003Y-105468222D01*
X186775000Y-105444123D01*
X186025000Y-105444123D01*
X185913827Y-105465042D01*
X185811721Y-105530745D01*
X185743222Y-105630997D01*
X185739374Y-105650000D01*
X185462060Y-105650000D01*
X185459958Y-105638827D01*
X185394255Y-105536721D01*
X185294003Y-105468222D01*
X185175000Y-105444123D01*
X184425000Y-105444123D01*
X184313827Y-105465042D01*
X184211721Y-105530745D01*
X184143222Y-105630997D01*
X184119123Y-105750000D01*
X184119123Y-106123771D01*
X183400000Y-106842894D01*
X175953553Y-99396447D01*
X175791342Y-99288060D01*
X175600000Y-99250000D01*
X172362060Y-99250000D01*
X172359958Y-99238827D01*
X172294255Y-99136721D01*
X172194003Y-99068222D01*
X172075000Y-99044123D01*
X171325000Y-99044123D01*
X171213827Y-99065042D01*
X171111721Y-99130745D01*
X171043222Y-99230997D01*
X171039374Y-99250000D01*
X170377800Y-99250000D01*
X170369255Y-99236721D01*
X170269003Y-99168222D01*
X170150000Y-99144123D01*
X169050000Y-99144123D01*
X168938827Y-99165042D01*
X168836721Y-99230745D01*
X168768222Y-99330997D01*
X168744123Y-99450000D01*
X168744123Y-100050000D01*
X168765042Y-100161173D01*
X168830745Y-100263279D01*
X168930997Y-100331778D01*
X169050000Y-100355877D01*
X170150000Y-100355877D01*
X170200000Y-100346469D01*
X170200000Y-101054248D01*
X170150000Y-101044123D01*
X169050000Y-101044123D01*
X168938827Y-101065042D01*
X168836721Y-101130745D01*
X168768222Y-101230997D01*
X168744123Y-101350000D01*
X168744123Y-101950000D01*
X168765042Y-102061173D01*
X168830745Y-102163279D01*
X168930997Y-102231778D01*
X169050000Y-102255877D01*
X169100000Y-102255877D01*
X169100000Y-102873939D01*
X169011721Y-102930745D01*
X168943222Y-103030997D01*
X168919123Y-103150000D01*
X168919123Y-103950000D01*
X168940042Y-104061173D01*
X168969218Y-104106513D01*
X168885127Y-104141345D01*
X168716344Y-104310128D01*
X168625000Y-104530653D01*
X168625000Y-104750000D01*
X168775000Y-104900000D01*
X169450000Y-104900000D01*
X169450000Y-104880000D01*
X169750000Y-104880000D01*
X169750000Y-104900000D01*
X169770000Y-104900000D01*
X169770000Y-105200000D01*
X169750000Y-105200000D01*
X169750000Y-105900000D01*
X169900000Y-106050000D01*
X169985614Y-106050000D01*
X168091492Y-107944123D01*
X167992721Y-107944123D01*
X167881548Y-107965042D01*
X167779442Y-108030745D01*
X167710943Y-108130997D01*
X167686844Y-108250000D01*
X167686844Y-108548770D01*
X167396447Y-108839168D01*
X167288060Y-109001379D01*
X167250000Y-109192721D01*
X167250000Y-110737940D01*
X167238827Y-110740042D01*
X167193487Y-110769218D01*
X167158655Y-110685127D01*
X166989872Y-110516344D01*
X166769347Y-110425000D01*
X166550000Y-110425000D01*
X166400000Y-110575000D01*
X166400000Y-111250000D01*
X166420000Y-111250000D01*
X166420000Y-111550000D01*
X166400000Y-111550000D01*
X166400000Y-112225000D01*
X166404711Y-112229711D01*
X166400000Y-112234421D01*
X166400000Y-112909421D01*
X166420000Y-112909421D01*
X166420000Y-113209421D01*
X166400000Y-113209421D01*
X166400000Y-113884421D01*
X166550000Y-114034421D01*
X166769347Y-114034421D01*
X166989872Y-113943077D01*
X167158655Y-113774294D01*
X167193369Y-113690489D01*
X167230997Y-113716199D01*
X167250000Y-113720047D01*
X167250000Y-114907279D01*
X167281381Y-115065042D01*
X167288060Y-115098621D01*
X167396447Y-115260832D01*
X168086844Y-115951229D01*
X168086844Y-116250000D01*
X168107763Y-116361173D01*
X168173466Y-116463279D01*
X168273718Y-116531778D01*
X168392721Y-116555877D01*
X168892721Y-116555877D01*
X169003894Y-116534958D01*
X169106000Y-116469255D01*
X169174499Y-116369003D01*
X169198598Y-116250000D01*
X169198598Y-115350000D01*
X169177679Y-115238827D01*
X169111976Y-115136721D01*
X169011724Y-115068222D01*
X168892721Y-115044123D01*
X168593950Y-115044123D01*
X168250000Y-114700173D01*
X168250000Y-113721481D01*
X168261173Y-113719379D01*
X168363279Y-113653676D01*
X168410599Y-113584421D01*
X169904160Y-113584421D01*
X169960966Y-113672700D01*
X170061218Y-113741199D01*
X170180221Y-113765298D01*
X170233661Y-113765298D01*
X169842201Y-114156759D01*
X169750072Y-114294638D01*
X169748902Y-114300520D01*
X169717721Y-114457279D01*
X169717721Y-115106113D01*
X169679442Y-115130745D01*
X169610943Y-115230997D01*
X169586844Y-115350000D01*
X169586844Y-116250000D01*
X169607763Y-116361173D01*
X169673466Y-116463279D01*
X169773718Y-116531778D01*
X169892721Y-116555877D01*
X170392721Y-116555877D01*
X170503894Y-116534958D01*
X170606000Y-116469255D01*
X170674499Y-116369003D01*
X170698598Y-116250000D01*
X170698598Y-115350000D01*
X170677679Y-115238827D01*
X170611976Y-115136721D01*
X170567721Y-115106483D01*
X170567721Y-114633319D01*
X170993241Y-114207800D01*
X171085369Y-114069920D01*
X171094168Y-114025682D01*
X171100072Y-114055362D01*
X171117721Y-114081775D01*
X171117721Y-115123827D01*
X171031548Y-115140042D01*
X170929442Y-115205745D01*
X170860943Y-115305997D01*
X170836844Y-115425000D01*
X170836844Y-116175000D01*
X170857763Y-116286173D01*
X170923466Y-116388279D01*
X171023718Y-116456778D01*
X171142721Y-116480877D01*
X171942721Y-116480877D01*
X172053894Y-116459958D01*
X172099234Y-116430782D01*
X172134066Y-116514873D01*
X172302849Y-116683656D01*
X172523374Y-116775000D01*
X172742721Y-116775000D01*
X172892721Y-116625000D01*
X172892721Y-115950000D01*
X173192721Y-115950000D01*
X173192721Y-116625000D01*
X173342721Y-116775000D01*
X173562068Y-116775000D01*
X173782593Y-116683656D01*
X173951376Y-116514873D01*
X174042721Y-116294348D01*
X174042721Y-116100000D01*
X173892721Y-115950000D01*
X173192721Y-115950000D01*
X172892721Y-115950000D01*
X172872721Y-115950000D01*
X172872721Y-115650000D01*
X172892721Y-115650000D01*
X172892721Y-114975000D01*
X173192721Y-114975000D01*
X173192721Y-115650000D01*
X173892721Y-115650000D01*
X174042721Y-115500000D01*
X174042721Y-115305652D01*
X173951376Y-115085127D01*
X173782593Y-114916344D01*
X173562068Y-114825000D01*
X173342721Y-114825000D01*
X173192721Y-114975000D01*
X172892721Y-114975000D01*
X172742721Y-114825000D01*
X172523374Y-114825000D01*
X172302849Y-114916344D01*
X172134066Y-115085127D01*
X172099352Y-115168932D01*
X172061724Y-115143222D01*
X171967721Y-115124186D01*
X171967721Y-113942721D01*
X171956810Y-113887868D01*
X171935370Y-113780080D01*
X171925493Y-113765298D01*
X172005221Y-113765298D01*
X172116394Y-113744379D01*
X172218500Y-113678676D01*
X172286999Y-113578424D01*
X172311098Y-113459421D01*
X172311098Y-112859421D01*
X172290179Y-112748248D01*
X172224476Y-112646142D01*
X172124224Y-112577643D01*
X172005221Y-112553544D01*
X171780221Y-112553544D01*
X171689509Y-112570613D01*
X171605221Y-112553544D01*
X171380221Y-112553544D01*
X171289509Y-112570613D01*
X171205221Y-112553544D01*
X170980221Y-112553544D01*
X170889509Y-112570613D01*
X170805221Y-112553544D01*
X170580221Y-112553544D01*
X170489509Y-112570613D01*
X170405221Y-112553544D01*
X170180221Y-112553544D01*
X170069048Y-112574463D01*
X169966942Y-112640166D01*
X169902541Y-112734421D01*
X168455877Y-112734421D01*
X168455877Y-112684421D01*
X168434958Y-112573248D01*
X168369255Y-112471142D01*
X168269003Y-112402643D01*
X168250000Y-112398795D01*
X168250000Y-112062060D01*
X168261173Y-112059958D01*
X168363279Y-111994255D01*
X168431778Y-111894003D01*
X168455877Y-111775000D01*
X168455877Y-111025000D01*
X168434958Y-110913827D01*
X168369255Y-110811721D01*
X168269003Y-110743222D01*
X168250000Y-110739374D01*
X168250000Y-109455877D01*
X168492721Y-109455877D01*
X168603894Y-109434958D01*
X168706000Y-109369255D01*
X168774499Y-109269003D01*
X168798598Y-109150000D01*
X168798598Y-108651229D01*
X169186844Y-108262983D01*
X169186844Y-109150000D01*
X169207763Y-109261173D01*
X169273466Y-109363279D01*
X169317721Y-109393517D01*
X169317721Y-110042721D01*
X169334541Y-110127279D01*
X169350072Y-110205362D01*
X169442201Y-110343241D01*
X169912721Y-110813762D01*
X169912721Y-110919521D01*
X169898443Y-110940418D01*
X169874344Y-111059421D01*
X169874344Y-111659421D01*
X169895263Y-111770594D01*
X169960966Y-111872700D01*
X170042088Y-111928128D01*
X170071565Y-111999293D01*
X170240348Y-112168076D01*
X170460873Y-112259421D01*
X170486471Y-112259421D01*
X170636471Y-112109421D01*
X170636471Y-111852374D01*
X170686999Y-111778424D01*
X170692046Y-111753500D01*
X170695263Y-111770594D01*
X170748971Y-111854059D01*
X170748971Y-112109421D01*
X170898971Y-112259421D01*
X170924569Y-112259421D01*
X171092721Y-112189770D01*
X171260873Y-112259421D01*
X171286471Y-112259421D01*
X171409082Y-112136810D01*
X171440348Y-112168076D01*
X171660873Y-112259421D01*
X171686471Y-112259421D01*
X171692721Y-112253171D01*
X171698971Y-112259421D01*
X171724569Y-112259421D01*
X171945094Y-112168076D01*
X171976360Y-112136810D01*
X172098971Y-112259421D01*
X172124569Y-112259421D01*
X172345094Y-112168076D01*
X172513877Y-111999293D01*
X172605221Y-111778768D01*
X172605221Y-111659421D01*
X172455221Y-111509421D01*
X171780221Y-111509421D01*
X171780221Y-111209421D01*
X172455221Y-111209421D01*
X172605221Y-111059421D01*
X172605221Y-110940074D01*
X172513877Y-110719549D01*
X172345094Y-110550766D01*
X172124569Y-110459421D01*
X172098971Y-110459421D01*
X171976360Y-110582032D01*
X171945094Y-110550766D01*
X171724569Y-110459421D01*
X171698971Y-110459421D01*
X171692721Y-110465671D01*
X171686471Y-110459421D01*
X171660873Y-110459421D01*
X171642723Y-110466939D01*
X171642723Y-110459421D01*
X171642295Y-110459421D01*
X171642721Y-110457279D01*
X171642721Y-110299951D01*
X171818824Y-110300104D01*
X172039429Y-110208952D01*
X172208359Y-110040317D01*
X172299896Y-109819871D01*
X172300022Y-109675000D01*
X172342721Y-109675000D01*
X172492721Y-109525000D01*
X172492721Y-108850000D01*
X172472721Y-108850000D01*
X172472721Y-108550000D01*
X172492721Y-108550000D01*
X172492721Y-108530000D01*
X172792721Y-108530000D01*
X172792721Y-108550000D01*
X172812721Y-108550000D01*
X172812721Y-108850000D01*
X172792721Y-108850000D01*
X172792721Y-109525000D01*
X172942721Y-109675000D01*
X173162068Y-109675000D01*
X173382593Y-109583656D01*
X173551376Y-109414873D01*
X173642721Y-109194348D01*
X173642721Y-109000000D01*
X173492723Y-108850002D01*
X173551684Y-108850002D01*
X173593999Y-108892317D01*
X173599480Y-108900520D01*
X175691379Y-110992420D01*
X175761211Y-111039080D01*
X175829260Y-111084549D01*
X175991900Y-111116900D01*
X176482059Y-111116900D01*
X173899480Y-113699480D01*
X173807351Y-113837359D01*
X173775001Y-114000000D01*
X173807351Y-114162641D01*
X173899480Y-114300520D01*
X174037359Y-114392649D01*
X174200000Y-114424999D01*
X174362641Y-114392649D01*
X174500520Y-114300520D01*
X177036441Y-111764600D01*
X177148076Y-111764600D01*
X177100104Y-111880129D01*
X177099896Y-112118824D01*
X177142817Y-112222700D01*
X177071070Y-112222700D01*
X176908429Y-112255051D01*
X176770550Y-112347179D01*
X174599480Y-114518250D01*
X174507351Y-114656129D01*
X174501984Y-114683113D01*
X174475000Y-114818770D01*
X174475000Y-117967893D01*
X173653553Y-117146447D01*
X173491342Y-117038060D01*
X173300000Y-117000000D01*
X167707106Y-117000000D01*
X165200000Y-114492894D01*
X165200000Y-113359421D01*
X165250000Y-113359421D01*
X165250000Y-113553769D01*
X165341345Y-113774294D01*
X165510128Y-113943077D01*
X165730653Y-114034421D01*
X165950000Y-114034421D01*
X166100000Y-113884421D01*
X166100000Y-113209421D01*
X165400000Y-113209421D01*
X165250000Y-113359421D01*
X165200000Y-113359421D01*
X165200000Y-111700000D01*
X165250000Y-111700000D01*
X165250000Y-111894348D01*
X165341345Y-112114873D01*
X165456183Y-112229711D01*
X165341345Y-112344548D01*
X165250000Y-112565073D01*
X165250000Y-112759421D01*
X165400000Y-112909421D01*
X166100000Y-112909421D01*
X166100000Y-112234421D01*
X166095290Y-112229711D01*
X166100000Y-112225000D01*
X166100000Y-111550000D01*
X165400000Y-111550000D01*
X165250000Y-111700000D01*
X165200000Y-111700000D01*
X165200000Y-110905652D01*
X165250000Y-110905652D01*
X165250000Y-111100000D01*
X165400000Y-111250000D01*
X166100000Y-111250000D01*
X166100000Y-110575000D01*
X165950000Y-110425000D01*
X165730653Y-110425000D01*
X165510128Y-110516344D01*
X165341345Y-110685127D01*
X165250000Y-110905652D01*
X165200000Y-110905652D01*
X165200000Y-106457106D01*
X165901229Y-105755877D01*
X166300000Y-105755877D01*
X166411173Y-105734958D01*
X166513279Y-105669255D01*
X166546340Y-105620868D01*
X166616344Y-105789872D01*
X166785127Y-105958655D01*
X167005652Y-106050000D01*
X167200000Y-106050000D01*
X167350000Y-105900000D01*
X167350000Y-105200000D01*
X167650000Y-105200000D01*
X167650000Y-105900000D01*
X167800000Y-106050000D01*
X167994348Y-106050000D01*
X168214873Y-105958655D01*
X168383656Y-105789872D01*
X168475000Y-105569347D01*
X168475000Y-105350000D01*
X168625000Y-105350000D01*
X168625000Y-105569347D01*
X168716344Y-105789872D01*
X168885127Y-105958655D01*
X169105652Y-106050000D01*
X169300000Y-106050000D01*
X169450000Y-105900000D01*
X169450000Y-105200000D01*
X168775000Y-105200000D01*
X168625000Y-105350000D01*
X168475000Y-105350000D01*
X168325000Y-105200000D01*
X167650000Y-105200000D01*
X167350000Y-105200000D01*
X167330000Y-105200000D01*
X167330000Y-104900000D01*
X167350000Y-104900000D01*
X167350000Y-104880000D01*
X167650000Y-104880000D01*
X167650000Y-104900000D01*
X168325000Y-104900000D01*
X168475000Y-104750000D01*
X168475000Y-104530653D01*
X168383656Y-104310128D01*
X168214873Y-104141345D01*
X168131068Y-104106631D01*
X168156778Y-104069003D01*
X168180877Y-103950000D01*
X168180877Y-103150000D01*
X168159958Y-103038827D01*
X168094255Y-102936721D01*
X167994003Y-102868222D01*
X167875000Y-102844123D01*
X167300000Y-102844123D01*
X167300000Y-102255877D01*
X167350000Y-102255877D01*
X167461173Y-102234958D01*
X167563279Y-102169255D01*
X167631778Y-102069003D01*
X167655877Y-101950000D01*
X167655877Y-101522737D01*
X167689872Y-101508656D01*
X167858655Y-101339873D01*
X167950000Y-101119348D01*
X167950000Y-101000000D01*
X167800000Y-100850000D01*
X166950000Y-100850000D01*
X166950000Y-100870000D01*
X166650000Y-100870000D01*
X166650000Y-100850000D01*
X166630000Y-100850000D01*
X166630000Y-100550000D01*
X166650000Y-100550000D01*
X166650000Y-100530000D01*
X166950000Y-100530000D01*
X166950000Y-100550000D01*
X167800000Y-100550000D01*
X167950000Y-100400000D01*
X167950000Y-100280652D01*
X167858655Y-100060127D01*
X167689872Y-99891344D01*
X167655877Y-99877263D01*
X167655877Y-99450000D01*
X167634958Y-99338827D01*
X167569255Y-99236721D01*
X167469003Y-99168222D01*
X167350000Y-99144123D01*
X166250000Y-99144123D01*
X166138827Y-99165042D01*
X166036721Y-99230745D01*
X166023565Y-99250000D01*
X165700000Y-99250000D01*
X165508658Y-99288060D01*
X165346447Y-99396447D01*
X165238060Y-99558658D01*
X165200000Y-99750000D01*
X165200000Y-101650000D01*
X165238060Y-101841342D01*
X165346447Y-102003553D01*
X165508658Y-102111940D01*
X165700000Y-102150000D01*
X166022200Y-102150000D01*
X166030745Y-102163279D01*
X166130997Y-102231778D01*
X166250000Y-102255877D01*
X166300000Y-102255877D01*
X166300000Y-102844123D01*
X165500000Y-102844123D01*
X165388827Y-102865042D01*
X165286721Y-102930745D01*
X165218222Y-103030997D01*
X165194123Y-103150000D01*
X165194123Y-103750000D01*
X165215042Y-103861173D01*
X165280745Y-103963279D01*
X165380997Y-104031778D01*
X165500000Y-104055877D01*
X166300000Y-104055877D01*
X166411173Y-104034958D01*
X166513279Y-103969255D01*
X166526435Y-103950000D01*
X166819123Y-103950000D01*
X166840042Y-104061173D01*
X166869218Y-104106513D01*
X166785127Y-104141345D01*
X166616344Y-104310128D01*
X166525000Y-104530653D01*
X166525000Y-104645649D01*
X166519255Y-104636721D01*
X166419003Y-104568222D01*
X166300000Y-104544123D01*
X165500000Y-104544123D01*
X165388827Y-104565042D01*
X165286721Y-104630745D01*
X165218222Y-104730997D01*
X165194123Y-104850000D01*
X165194123Y-105048771D01*
X164346447Y-105896447D01*
X164238060Y-106058658D01*
X164200000Y-106250000D01*
X164200000Y-114700000D01*
X164234374Y-114872810D01*
X164238060Y-114891342D01*
X164346447Y-115053553D01*
X167146447Y-117853553D01*
X167308658Y-117961940D01*
X167500000Y-118000000D01*
X172439462Y-118000000D01*
X172264552Y-118174605D01*
X172150131Y-118450161D01*
X172149870Y-118748530D01*
X172263811Y-119024286D01*
X172474605Y-119235448D01*
X172750161Y-119349869D01*
X173048530Y-119350130D01*
X173324286Y-119236189D01*
X173535448Y-119025395D01*
X173649869Y-118749839D01*
X173650038Y-118557144D01*
X173800000Y-118707107D01*
X173800000Y-119251339D01*
X173791641Y-119259683D01*
X173700104Y-119480129D01*
X173699896Y-119718824D01*
X173791048Y-119939429D01*
X173959683Y-120108359D01*
X174180129Y-120199896D01*
X174418824Y-120200104D01*
X174639429Y-120108952D01*
X174808359Y-119940317D01*
X174899896Y-119719871D01*
X174900087Y-119501127D01*
X175999480Y-120600520D01*
X176137359Y-120692649D01*
X176164343Y-120698016D01*
X176300000Y-120725000D01*
X178705495Y-120725000D01*
X178744974Y-120923472D01*
X178997211Y-121300971D01*
X179374710Y-121553208D01*
X179820000Y-121641782D01*
X180265290Y-121553208D01*
X180642789Y-121300971D01*
X180895026Y-120923472D01*
X180983600Y-120478182D01*
X180983600Y-120121818D01*
X180895026Y-119676528D01*
X180642789Y-119299029D01*
X180265290Y-119046792D01*
X179820000Y-118958218D01*
X179374710Y-119046792D01*
X178997211Y-119299029D01*
X178744974Y-119676528D01*
X178705495Y-119875000D01*
X176476040Y-119875000D01*
X175325000Y-118723960D01*
X175325000Y-118456237D01*
X175430652Y-118500000D01*
X175700000Y-118500000D01*
X175850000Y-118350000D01*
X175850000Y-117775000D01*
X175830000Y-117775000D01*
X175830000Y-117525000D01*
X175850000Y-117525000D01*
X175850000Y-116950000D01*
X175700000Y-116800000D01*
X175430652Y-116800000D01*
X175325000Y-116843763D01*
X175325000Y-116604351D01*
X175330745Y-116613279D01*
X175430997Y-116681778D01*
X175550000Y-116705877D01*
X176450000Y-116705877D01*
X176538234Y-116689274D01*
X176705254Y-116856294D01*
X176569348Y-116800000D01*
X176300000Y-116800000D01*
X176150000Y-116950000D01*
X176150000Y-117525000D01*
X176170000Y-117525000D01*
X176170000Y-117775000D01*
X176150000Y-117775000D01*
X176150000Y-118350000D01*
X176300000Y-118500000D01*
X176569348Y-118500000D01*
X176789873Y-118408655D01*
X176958656Y-118239872D01*
X177050000Y-118019347D01*
X177050000Y-117925000D01*
X176925002Y-117800002D01*
X177050000Y-117800002D01*
X177050000Y-117710599D01*
X177080997Y-117731778D01*
X177200000Y-117755877D01*
X177700000Y-117755877D01*
X177811173Y-117734958D01*
X177913279Y-117669255D01*
X177981778Y-117569003D01*
X178005877Y-117450000D01*
X178005877Y-116550000D01*
X177984958Y-116438827D01*
X177919255Y-116336721D01*
X177819003Y-116268222D01*
X177700000Y-116244123D01*
X177295163Y-116244123D01*
X176900520Y-115849480D01*
X176762641Y-115757351D01*
X176735657Y-115751984D01*
X176707668Y-115746416D01*
X176675000Y-115695649D01*
X176675000Y-115302101D01*
X176700004Y-115265506D01*
X176730745Y-115313279D01*
X176830997Y-115381778D01*
X176950000Y-115405877D01*
X177350000Y-115405877D01*
X177461173Y-115384958D01*
X177563279Y-115319255D01*
X177631778Y-115219003D01*
X177631846Y-115218665D01*
X177735657Y-115198016D01*
X177762641Y-115192649D01*
X177900520Y-115100520D01*
X178050000Y-114951040D01*
X178498958Y-115399999D01*
X178381176Y-115399896D01*
X178160571Y-115491048D01*
X177991641Y-115659683D01*
X177900104Y-115880129D01*
X177899896Y-116118824D01*
X177991048Y-116339429D01*
X178075000Y-116423528D01*
X178075000Y-116550000D01*
X178093543Y-116643222D01*
X178107351Y-116712641D01*
X178199480Y-116850520D01*
X178394123Y-117045163D01*
X178394123Y-117450000D01*
X178415042Y-117561173D01*
X178480745Y-117663279D01*
X178580997Y-117731778D01*
X178700000Y-117755877D01*
X179200000Y-117755877D01*
X179311173Y-117734958D01*
X179413279Y-117669255D01*
X179481778Y-117569003D01*
X179505877Y-117450000D01*
X179505877Y-116550000D01*
X179484958Y-116438827D01*
X179419255Y-116336721D01*
X179319003Y-116268222D01*
X179200000Y-116244123D01*
X179048302Y-116244123D01*
X179099896Y-116119871D01*
X179100000Y-116001040D01*
X181935000Y-118836041D01*
X181935000Y-119042756D01*
X181914710Y-119046792D01*
X181537211Y-119299029D01*
X181284974Y-119676528D01*
X181196400Y-120121818D01*
X181196400Y-120478182D01*
X181284974Y-120923472D01*
X181537211Y-121300971D01*
X181914710Y-121553208D01*
X182360000Y-121641782D01*
X182805290Y-121553208D01*
X183182789Y-121300971D01*
X183435026Y-120923472D01*
X183473204Y-120731538D01*
X183650716Y-121215147D01*
X184037703Y-121635167D01*
X184226254Y-121725000D01*
X161036932Y-121725000D01*
X160189610Y-121556457D01*
X159502593Y-121097407D01*
X159043544Y-120410392D01*
X158943405Y-119906961D01*
X159449732Y-119906961D01*
X159685208Y-120476857D01*
X160120849Y-120913260D01*
X160690333Y-121149730D01*
X161306961Y-121150268D01*
X161876857Y-120914792D01*
X162313260Y-120479151D01*
X162549730Y-119909667D01*
X162550268Y-119293039D01*
X162325282Y-118748530D01*
X165349870Y-118748530D01*
X165463811Y-119024286D01*
X165674605Y-119235448D01*
X165950161Y-119349869D01*
X166248530Y-119350130D01*
X166524286Y-119236189D01*
X166735448Y-119025395D01*
X166849869Y-118749839D01*
X166850130Y-118451470D01*
X166736189Y-118175714D01*
X166525395Y-117964552D01*
X166249839Y-117850131D01*
X165951470Y-117849870D01*
X165675714Y-117963811D01*
X165464552Y-118174605D01*
X165350131Y-118450161D01*
X165349870Y-118748530D01*
X162325282Y-118748530D01*
X162314792Y-118723143D01*
X161879151Y-118286740D01*
X161309667Y-118050270D01*
X160693039Y-118049732D01*
X160123143Y-118285208D01*
X159686740Y-118720849D01*
X159450270Y-119290333D01*
X159449732Y-119906961D01*
X158943405Y-119906961D01*
X158875000Y-119563068D01*
X158875000Y-115084942D01*
X159327190Y-115084942D01*
X159402045Y-115315849D01*
X159920459Y-115490394D01*
X160466206Y-115453264D01*
X160797955Y-115315849D01*
X160872810Y-115084942D01*
X160100000Y-114312132D01*
X159327190Y-115084942D01*
X158875000Y-115084942D01*
X158875000Y-114775863D01*
X158884151Y-114797955D01*
X159115058Y-114872810D01*
X159887868Y-114100000D01*
X160312132Y-114100000D01*
X161084942Y-114872810D01*
X161315849Y-114797955D01*
X161490394Y-114279541D01*
X161469736Y-113975903D01*
X162136229Y-113975903D01*
X162192523Y-114191316D01*
X162656393Y-114340716D01*
X163142126Y-114301228D01*
X163407477Y-114191316D01*
X163463771Y-113975903D01*
X162800000Y-113312132D01*
X162136229Y-113975903D01*
X161469736Y-113975903D01*
X161453264Y-113733794D01*
X161315849Y-113402045D01*
X161084942Y-113327190D01*
X160312132Y-114100000D01*
X159887868Y-114100000D01*
X159115058Y-113327190D01*
X158884151Y-113402045D01*
X158875000Y-113429224D01*
X158875000Y-113115058D01*
X159327190Y-113115058D01*
X160100000Y-113887868D01*
X160872810Y-113115058D01*
X160821375Y-112956393D01*
X161559284Y-112956393D01*
X161598772Y-113442126D01*
X161708684Y-113707477D01*
X161924097Y-113763771D01*
X162587868Y-113100000D01*
X163012132Y-113100000D01*
X163675903Y-113763771D01*
X163891316Y-113707477D01*
X164040716Y-113243607D01*
X164001228Y-112757874D01*
X163891316Y-112492523D01*
X163675903Y-112436229D01*
X163012132Y-113100000D01*
X162587868Y-113100000D01*
X161924097Y-112436229D01*
X161708684Y-112492523D01*
X161559284Y-112956393D01*
X160821375Y-112956393D01*
X160797955Y-112884151D01*
X160279541Y-112709606D01*
X159733794Y-112746736D01*
X159402045Y-112884151D01*
X159327190Y-113115058D01*
X158875000Y-113115058D01*
X158875000Y-112224097D01*
X162136229Y-112224097D01*
X162800000Y-112887868D01*
X163463771Y-112224097D01*
X163407477Y-112008684D01*
X162943607Y-111859284D01*
X162457874Y-111898772D01*
X162192523Y-112008684D01*
X162136229Y-112224097D01*
X158875000Y-112224097D01*
X158875000Y-108975903D01*
X162136229Y-108975903D01*
X162192523Y-109191316D01*
X162656393Y-109340716D01*
X163142126Y-109301228D01*
X163407477Y-109191316D01*
X163463771Y-108975903D01*
X162800000Y-108312132D01*
X162136229Y-108975903D01*
X158875000Y-108975903D01*
X158875000Y-108084942D01*
X159327190Y-108084942D01*
X159402045Y-108315849D01*
X159920459Y-108490394D01*
X160466206Y-108453264D01*
X160797955Y-108315849D01*
X160872810Y-108084942D01*
X160744261Y-107956393D01*
X161559284Y-107956393D01*
X161598772Y-108442126D01*
X161708684Y-108707477D01*
X161924097Y-108763771D01*
X162587868Y-108100000D01*
X163012132Y-108100000D01*
X163675903Y-108763771D01*
X163891316Y-108707477D01*
X164040716Y-108243607D01*
X164001228Y-107757874D01*
X163891316Y-107492523D01*
X163675903Y-107436229D01*
X163012132Y-108100000D01*
X162587868Y-108100000D01*
X161924097Y-107436229D01*
X161708684Y-107492523D01*
X161559284Y-107956393D01*
X160744261Y-107956393D01*
X160100000Y-107312132D01*
X159327190Y-108084942D01*
X158875000Y-108084942D01*
X158875000Y-107775863D01*
X158884151Y-107797955D01*
X159115058Y-107872810D01*
X159887868Y-107100000D01*
X160312132Y-107100000D01*
X161084942Y-107872810D01*
X161315849Y-107797955D01*
X161490394Y-107279541D01*
X161486622Y-107224097D01*
X162136229Y-107224097D01*
X162800000Y-107887868D01*
X163463771Y-107224097D01*
X163407477Y-107008684D01*
X162943607Y-106859284D01*
X162457874Y-106898772D01*
X162192523Y-107008684D01*
X162136229Y-107224097D01*
X161486622Y-107224097D01*
X161453264Y-106733794D01*
X161315849Y-106402045D01*
X161084942Y-106327190D01*
X160312132Y-107100000D01*
X159887868Y-107100000D01*
X159115058Y-106327190D01*
X158884151Y-106402045D01*
X158875000Y-106429224D01*
X158875000Y-106115058D01*
X159327190Y-106115058D01*
X160100000Y-106887868D01*
X160872810Y-106115058D01*
X160797955Y-105884151D01*
X160279541Y-105709606D01*
X159733794Y-105746736D01*
X159402045Y-105884151D01*
X159327190Y-106115058D01*
X158875000Y-106115058D01*
X158875000Y-94206961D01*
X159449732Y-94206961D01*
X159685208Y-94776857D01*
X160120849Y-95213260D01*
X160690333Y-95449730D01*
X161306961Y-95450268D01*
X161876857Y-95214792D01*
X162313260Y-94779151D01*
X162549730Y-94209667D01*
X162550268Y-93593039D01*
X162314792Y-93023143D01*
X161879151Y-92586740D01*
X161309667Y-92350270D01*
X160693039Y-92349732D01*
X160123143Y-92585208D01*
X159686740Y-93020849D01*
X159450270Y-93590333D01*
X159449732Y-94206961D01*
X158875000Y-94206961D01*
X158875000Y-93936932D01*
X159043544Y-93089608D01*
X159502593Y-92402593D01*
X160189610Y-91943543D01*
X161036932Y-91775000D01*
X192000000Y-91775000D01*
X192000000Y-121725000D01*
X192000000Y-121725000D01*
G37*
X192000000Y-121725000D02*
X185573746Y-121725000D01*
X185762297Y-121635167D01*
X186149284Y-121215147D01*
X186326796Y-120731538D01*
X186364974Y-120923472D01*
X186617211Y-121300971D01*
X186994710Y-121553208D01*
X187440000Y-121641782D01*
X187885290Y-121553208D01*
X188262789Y-121300971D01*
X188515026Y-120923472D01*
X188603600Y-120478182D01*
X188603600Y-120121818D01*
X188515026Y-119676528D01*
X188262789Y-119299029D01*
X187885290Y-119046792D01*
X187440000Y-118958218D01*
X187037740Y-119038233D01*
X185994054Y-117994547D01*
X186050000Y-118005877D01*
X186950000Y-118005877D01*
X187061173Y-117984958D01*
X187115500Y-117950000D01*
X187142894Y-117950000D01*
X188810523Y-119617630D01*
X188810523Y-121316000D01*
X188831442Y-121427173D01*
X188897145Y-121529279D01*
X188997397Y-121597778D01*
X189116400Y-121621877D01*
X190843600Y-121621877D01*
X190954773Y-121600958D01*
X191056879Y-121535255D01*
X191125378Y-121435003D01*
X191149477Y-121316000D01*
X191149477Y-119284000D01*
X191128558Y-119172827D01*
X191062855Y-119070721D01*
X190962603Y-119002222D01*
X190843600Y-118978123D01*
X189585230Y-118978123D01*
X187827821Y-117220715D01*
X187908359Y-117140317D01*
X187999896Y-116919871D01*
X188000104Y-116681176D01*
X187908952Y-116460571D01*
X187740317Y-116291641D01*
X187519871Y-116200104D01*
X187281176Y-116199896D01*
X187253590Y-116211294D01*
X187255877Y-116200000D01*
X187255877Y-115700000D01*
X187234958Y-115588827D01*
X187169255Y-115486721D01*
X187069003Y-115418222D01*
X186950000Y-115394123D01*
X186050000Y-115394123D01*
X185938827Y-115415042D01*
X185836721Y-115480745D01*
X185806483Y-115525000D01*
X185455877Y-115525000D01*
X185455877Y-115325000D01*
X185434958Y-115213827D01*
X185369255Y-115111721D01*
X185294000Y-115060302D01*
X185294000Y-114452177D01*
X185492500Y-114452177D01*
X185603673Y-114431258D01*
X185705779Y-114365555D01*
X185774278Y-114265303D01*
X185798377Y-114146300D01*
X185798377Y-114099417D01*
X187144479Y-115445520D01*
X187236608Y-115507078D01*
X187282360Y-115537649D01*
X187445000Y-115570000D01*
X187610925Y-115570000D01*
X187704928Y-115710685D01*
X187964466Y-115884104D01*
X188270613Y-115945000D01*
X189729387Y-115945000D01*
X190035534Y-115884104D01*
X190295072Y-115710685D01*
X190468491Y-115451147D01*
X190529387Y-115145000D01*
X190468491Y-114838853D01*
X190295072Y-114579315D01*
X190191336Y-114510000D01*
X190295072Y-114440685D01*
X190468491Y-114181147D01*
X190529387Y-113875000D01*
X190468491Y-113568853D01*
X190295072Y-113309315D01*
X190191336Y-113240000D01*
X190295072Y-113170685D01*
X190468491Y-112911147D01*
X190529387Y-112605000D01*
X190468491Y-112298853D01*
X190295072Y-112039315D01*
X190191336Y-111970000D01*
X190295072Y-111900685D01*
X190468491Y-111641147D01*
X190529387Y-111335000D01*
X190468491Y-111028853D01*
X190295072Y-110769315D01*
X190191336Y-110700000D01*
X190295072Y-110630685D01*
X190468491Y-110371147D01*
X190529387Y-110065000D01*
X190468491Y-109758853D01*
X190295072Y-109499315D01*
X190191336Y-109430000D01*
X190295072Y-109360685D01*
X190468491Y-109101147D01*
X190529387Y-108795000D01*
X190468491Y-108488853D01*
X190388737Y-108369494D01*
X190583884Y-108196751D01*
X190752844Y-107843624D01*
X190638083Y-107675000D01*
X189150000Y-107675000D01*
X189150000Y-107695000D01*
X188850000Y-107695000D01*
X188850000Y-107675000D01*
X187361917Y-107675000D01*
X187255850Y-107830850D01*
X187225000Y-107800000D01*
X186550000Y-107800000D01*
X186550000Y-107820000D01*
X186250000Y-107820000D01*
X186250000Y-107800000D01*
X184950000Y-107800000D01*
X184950000Y-107820000D01*
X184650000Y-107820000D01*
X184650000Y-107800000D01*
X184630000Y-107800000D01*
X184630000Y-107500000D01*
X184650000Y-107500000D01*
X184650000Y-107480000D01*
X184950000Y-107480000D01*
X184950000Y-107500000D01*
X186250000Y-107500000D01*
X186250000Y-107480000D01*
X186550000Y-107480000D01*
X186550000Y-107500000D01*
X187225000Y-107500000D01*
X187357091Y-107367909D01*
X187361917Y-107375000D01*
X188850000Y-107375000D01*
X188850000Y-107355000D01*
X189150000Y-107355000D01*
X189150000Y-107375000D01*
X190638083Y-107375000D01*
X190752844Y-107206376D01*
X190583884Y-106853249D01*
X190388737Y-106680506D01*
X190468491Y-106561147D01*
X190529387Y-106255000D01*
X190468491Y-105948853D01*
X190295072Y-105689315D01*
X190035534Y-105515896D01*
X189729387Y-105455000D01*
X188270613Y-105455000D01*
X187964466Y-105515896D01*
X187763767Y-105650000D01*
X187062060Y-105650000D01*
X187059958Y-105638827D01*
X186994255Y-105536721D01*
X186894003Y-105468222D01*
X186775000Y-105444123D01*
X186025000Y-105444123D01*
X185913827Y-105465042D01*
X185811721Y-105530745D01*
X185743222Y-105630997D01*
X185739374Y-105650000D01*
X185462060Y-105650000D01*
X185459958Y-105638827D01*
X185394255Y-105536721D01*
X185294003Y-105468222D01*
X185175000Y-105444123D01*
X184425000Y-105444123D01*
X184313827Y-105465042D01*
X184211721Y-105530745D01*
X184143222Y-105630997D01*
X184119123Y-105750000D01*
X184119123Y-106123771D01*
X183400000Y-106842894D01*
X175953553Y-99396447D01*
X175791342Y-99288060D01*
X175600000Y-99250000D01*
X172362060Y-99250000D01*
X172359958Y-99238827D01*
X172294255Y-99136721D01*
X172194003Y-99068222D01*
X172075000Y-99044123D01*
X171325000Y-99044123D01*
X171213827Y-99065042D01*
X171111721Y-99130745D01*
X171043222Y-99230997D01*
X171039374Y-99250000D01*
X170377800Y-99250000D01*
X170369255Y-99236721D01*
X170269003Y-99168222D01*
X170150000Y-99144123D01*
X169050000Y-99144123D01*
X168938827Y-99165042D01*
X168836721Y-99230745D01*
X168768222Y-99330997D01*
X168744123Y-99450000D01*
X168744123Y-100050000D01*
X168765042Y-100161173D01*
X168830745Y-100263279D01*
X168930997Y-100331778D01*
X169050000Y-100355877D01*
X170150000Y-100355877D01*
X170200000Y-100346469D01*
X170200000Y-101054248D01*
X170150000Y-101044123D01*
X169050000Y-101044123D01*
X168938827Y-101065042D01*
X168836721Y-101130745D01*
X168768222Y-101230997D01*
X168744123Y-101350000D01*
X168744123Y-101950000D01*
X168765042Y-102061173D01*
X168830745Y-102163279D01*
X168930997Y-102231778D01*
X169050000Y-102255877D01*
X169100000Y-102255877D01*
X169100000Y-102873939D01*
X169011721Y-102930745D01*
X168943222Y-103030997D01*
X168919123Y-103150000D01*
X168919123Y-103950000D01*
X168940042Y-104061173D01*
X168969218Y-104106513D01*
X168885127Y-104141345D01*
X168716344Y-104310128D01*
X168625000Y-104530653D01*
X168625000Y-104750000D01*
X168775000Y-104900000D01*
X169450000Y-104900000D01*
X169450000Y-104880000D01*
X169750000Y-104880000D01*
X169750000Y-104900000D01*
X169770000Y-104900000D01*
X169770000Y-105200000D01*
X169750000Y-105200000D01*
X169750000Y-105900000D01*
X169900000Y-106050000D01*
X169985614Y-106050000D01*
X168091492Y-107944123D01*
X167992721Y-107944123D01*
X167881548Y-107965042D01*
X167779442Y-108030745D01*
X167710943Y-108130997D01*
X167686844Y-108250000D01*
X167686844Y-108548770D01*
X167396447Y-108839168D01*
X167288060Y-109001379D01*
X167250000Y-109192721D01*
X167250000Y-110737940D01*
X167238827Y-110740042D01*
X167193487Y-110769218D01*
X167158655Y-110685127D01*
X166989872Y-110516344D01*
X166769347Y-110425000D01*
X166550000Y-110425000D01*
X166400000Y-110575000D01*
X166400000Y-111250000D01*
X166420000Y-111250000D01*
X166420000Y-111550000D01*
X166400000Y-111550000D01*
X166400000Y-112225000D01*
X166404711Y-112229711D01*
X166400000Y-112234421D01*
X166400000Y-112909421D01*
X166420000Y-112909421D01*
X166420000Y-113209421D01*
X166400000Y-113209421D01*
X166400000Y-113884421D01*
X166550000Y-114034421D01*
X166769347Y-114034421D01*
X166989872Y-113943077D01*
X167158655Y-113774294D01*
X167193369Y-113690489D01*
X167230997Y-113716199D01*
X167250000Y-113720047D01*
X167250000Y-114907279D01*
X167281381Y-115065042D01*
X167288060Y-115098621D01*
X167396447Y-115260832D01*
X168086844Y-115951229D01*
X168086844Y-116250000D01*
X168107763Y-116361173D01*
X168173466Y-116463279D01*
X168273718Y-116531778D01*
X168392721Y-116555877D01*
X168892721Y-116555877D01*
X169003894Y-116534958D01*
X169106000Y-116469255D01*
X169174499Y-116369003D01*
X169198598Y-116250000D01*
X169198598Y-115350000D01*
X169177679Y-115238827D01*
X169111976Y-115136721D01*
X169011724Y-115068222D01*
X168892721Y-115044123D01*
X168593950Y-115044123D01*
X168250000Y-114700173D01*
X168250000Y-113721481D01*
X168261173Y-113719379D01*
X168363279Y-113653676D01*
X168410599Y-113584421D01*
X169904160Y-113584421D01*
X169960966Y-113672700D01*
X170061218Y-113741199D01*
X170180221Y-113765298D01*
X170233661Y-113765298D01*
X169842201Y-114156759D01*
X169750072Y-114294638D01*
X169748902Y-114300520D01*
X169717721Y-114457279D01*
X169717721Y-115106113D01*
X169679442Y-115130745D01*
X169610943Y-115230997D01*
X169586844Y-115350000D01*
X169586844Y-116250000D01*
X169607763Y-116361173D01*
X169673466Y-116463279D01*
X169773718Y-116531778D01*
X169892721Y-116555877D01*
X170392721Y-116555877D01*
X170503894Y-116534958D01*
X170606000Y-116469255D01*
X170674499Y-116369003D01*
X170698598Y-116250000D01*
X170698598Y-115350000D01*
X170677679Y-115238827D01*
X170611976Y-115136721D01*
X170567721Y-115106483D01*
X170567721Y-114633319D01*
X170993241Y-114207800D01*
X171085369Y-114069920D01*
X171094168Y-114025682D01*
X171100072Y-114055362D01*
X171117721Y-114081775D01*
X171117721Y-115123827D01*
X171031548Y-115140042D01*
X170929442Y-115205745D01*
X170860943Y-115305997D01*
X170836844Y-115425000D01*
X170836844Y-116175000D01*
X170857763Y-116286173D01*
X170923466Y-116388279D01*
X171023718Y-116456778D01*
X171142721Y-116480877D01*
X171942721Y-116480877D01*
X172053894Y-116459958D01*
X172099234Y-116430782D01*
X172134066Y-116514873D01*
X172302849Y-116683656D01*
X172523374Y-116775000D01*
X172742721Y-116775000D01*
X172892721Y-116625000D01*
X172892721Y-115950000D01*
X173192721Y-115950000D01*
X173192721Y-116625000D01*
X173342721Y-116775000D01*
X173562068Y-116775000D01*
X173782593Y-116683656D01*
X173951376Y-116514873D01*
X174042721Y-116294348D01*
X174042721Y-116100000D01*
X173892721Y-115950000D01*
X173192721Y-115950000D01*
X172892721Y-115950000D01*
X172872721Y-115950000D01*
X172872721Y-115650000D01*
X172892721Y-115650000D01*
X172892721Y-114975000D01*
X173192721Y-114975000D01*
X173192721Y-115650000D01*
X173892721Y-115650000D01*
X174042721Y-115500000D01*
X174042721Y-115305652D01*
X173951376Y-115085127D01*
X173782593Y-114916344D01*
X173562068Y-114825000D01*
X173342721Y-114825000D01*
X173192721Y-114975000D01*
X172892721Y-114975000D01*
X172742721Y-114825000D01*
X172523374Y-114825000D01*
X172302849Y-114916344D01*
X172134066Y-115085127D01*
X172099352Y-115168932D01*
X172061724Y-115143222D01*
X171967721Y-115124186D01*
X171967721Y-113942721D01*
X171956810Y-113887868D01*
X171935370Y-113780080D01*
X171925493Y-113765298D01*
X172005221Y-113765298D01*
X172116394Y-113744379D01*
X172218500Y-113678676D01*
X172286999Y-113578424D01*
X172311098Y-113459421D01*
X172311098Y-112859421D01*
X172290179Y-112748248D01*
X172224476Y-112646142D01*
X172124224Y-112577643D01*
X172005221Y-112553544D01*
X171780221Y-112553544D01*
X171689509Y-112570613D01*
X171605221Y-112553544D01*
X171380221Y-112553544D01*
X171289509Y-112570613D01*
X171205221Y-112553544D01*
X170980221Y-112553544D01*
X170889509Y-112570613D01*
X170805221Y-112553544D01*
X170580221Y-112553544D01*
X170489509Y-112570613D01*
X170405221Y-112553544D01*
X170180221Y-112553544D01*
X170069048Y-112574463D01*
X169966942Y-112640166D01*
X169902541Y-112734421D01*
X168455877Y-112734421D01*
X168455877Y-112684421D01*
X168434958Y-112573248D01*
X168369255Y-112471142D01*
X168269003Y-112402643D01*
X168250000Y-112398795D01*
X168250000Y-112062060D01*
X168261173Y-112059958D01*
X168363279Y-111994255D01*
X168431778Y-111894003D01*
X168455877Y-111775000D01*
X168455877Y-111025000D01*
X168434958Y-110913827D01*
X168369255Y-110811721D01*
X168269003Y-110743222D01*
X168250000Y-110739374D01*
X168250000Y-109455877D01*
X168492721Y-109455877D01*
X168603894Y-109434958D01*
X168706000Y-109369255D01*
X168774499Y-109269003D01*
X168798598Y-109150000D01*
X168798598Y-108651229D01*
X169186844Y-108262983D01*
X169186844Y-109150000D01*
X169207763Y-109261173D01*
X169273466Y-109363279D01*
X169317721Y-109393517D01*
X169317721Y-110042721D01*
X169334541Y-110127279D01*
X169350072Y-110205362D01*
X169442201Y-110343241D01*
X169912721Y-110813762D01*
X169912721Y-110919521D01*
X169898443Y-110940418D01*
X169874344Y-111059421D01*
X169874344Y-111659421D01*
X169895263Y-111770594D01*
X169960966Y-111872700D01*
X170042088Y-111928128D01*
X170071565Y-111999293D01*
X170240348Y-112168076D01*
X170460873Y-112259421D01*
X170486471Y-112259421D01*
X170636471Y-112109421D01*
X170636471Y-111852374D01*
X170686999Y-111778424D01*
X170692046Y-111753500D01*
X170695263Y-111770594D01*
X170748971Y-111854059D01*
X170748971Y-112109421D01*
X170898971Y-112259421D01*
X170924569Y-112259421D01*
X171092721Y-112189770D01*
X171260873Y-112259421D01*
X171286471Y-112259421D01*
X171409082Y-112136810D01*
X171440348Y-112168076D01*
X171660873Y-112259421D01*
X171686471Y-112259421D01*
X171692721Y-112253171D01*
X171698971Y-112259421D01*
X171724569Y-112259421D01*
X171945094Y-112168076D01*
X171976360Y-112136810D01*
X172098971Y-112259421D01*
X172124569Y-112259421D01*
X172345094Y-112168076D01*
X172513877Y-111999293D01*
X172605221Y-111778768D01*
X172605221Y-111659421D01*
X172455221Y-111509421D01*
X171780221Y-111509421D01*
X171780221Y-111209421D01*
X172455221Y-111209421D01*
X172605221Y-111059421D01*
X172605221Y-110940074D01*
X172513877Y-110719549D01*
X172345094Y-110550766D01*
X172124569Y-110459421D01*
X172098971Y-110459421D01*
X171976360Y-110582032D01*
X171945094Y-110550766D01*
X171724569Y-110459421D01*
X171698971Y-110459421D01*
X171692721Y-110465671D01*
X171686471Y-110459421D01*
X171660873Y-110459421D01*
X171642723Y-110466939D01*
X171642723Y-110459421D01*
X171642295Y-110459421D01*
X171642721Y-110457279D01*
X171642721Y-110299951D01*
X171818824Y-110300104D01*
X172039429Y-110208952D01*
X172208359Y-110040317D01*
X172299896Y-109819871D01*
X172300022Y-109675000D01*
X172342721Y-109675000D01*
X172492721Y-109525000D01*
X172492721Y-108850000D01*
X172472721Y-108850000D01*
X172472721Y-108550000D01*
X172492721Y-108550000D01*
X172492721Y-108530000D01*
X172792721Y-108530000D01*
X172792721Y-108550000D01*
X172812721Y-108550000D01*
X172812721Y-108850000D01*
X172792721Y-108850000D01*
X172792721Y-109525000D01*
X172942721Y-109675000D01*
X173162068Y-109675000D01*
X173382593Y-109583656D01*
X173551376Y-109414873D01*
X173642721Y-109194348D01*
X173642721Y-109000000D01*
X173492723Y-108850002D01*
X173551684Y-108850002D01*
X173593999Y-108892317D01*
X173599480Y-108900520D01*
X175691379Y-110992420D01*
X175761211Y-111039080D01*
X175829260Y-111084549D01*
X175991900Y-111116900D01*
X176482059Y-111116900D01*
X173899480Y-113699480D01*
X173807351Y-113837359D01*
X173775001Y-114000000D01*
X173807351Y-114162641D01*
X173899480Y-114300520D01*
X174037359Y-114392649D01*
X174200000Y-114424999D01*
X174362641Y-114392649D01*
X174500520Y-114300520D01*
X177036441Y-111764600D01*
X177148076Y-111764600D01*
X177100104Y-111880129D01*
X177099896Y-112118824D01*
X177142817Y-112222700D01*
X177071070Y-112222700D01*
X176908429Y-112255051D01*
X176770550Y-112347179D01*
X174599480Y-114518250D01*
X174507351Y-114656129D01*
X174501984Y-114683113D01*
X174475000Y-114818770D01*
X174475000Y-117967893D01*
X173653553Y-117146447D01*
X173491342Y-117038060D01*
X173300000Y-117000000D01*
X167707106Y-117000000D01*
X165200000Y-114492894D01*
X165200000Y-113359421D01*
X165250000Y-113359421D01*
X165250000Y-113553769D01*
X165341345Y-113774294D01*
X165510128Y-113943077D01*
X165730653Y-114034421D01*
X165950000Y-114034421D01*
X166100000Y-113884421D01*
X166100000Y-113209421D01*
X165400000Y-113209421D01*
X165250000Y-113359421D01*
X165200000Y-113359421D01*
X165200000Y-111700000D01*
X165250000Y-111700000D01*
X165250000Y-111894348D01*
X165341345Y-112114873D01*
X165456183Y-112229711D01*
X165341345Y-112344548D01*
X165250000Y-112565073D01*
X165250000Y-112759421D01*
X165400000Y-112909421D01*
X166100000Y-112909421D01*
X166100000Y-112234421D01*
X166095290Y-112229711D01*
X166100000Y-112225000D01*
X166100000Y-111550000D01*
X165400000Y-111550000D01*
X165250000Y-111700000D01*
X165200000Y-111700000D01*
X165200000Y-110905652D01*
X165250000Y-110905652D01*
X165250000Y-111100000D01*
X165400000Y-111250000D01*
X166100000Y-111250000D01*
X166100000Y-110575000D01*
X165950000Y-110425000D01*
X165730653Y-110425000D01*
X165510128Y-110516344D01*
X165341345Y-110685127D01*
X165250000Y-110905652D01*
X165200000Y-110905652D01*
X165200000Y-106457106D01*
X165901229Y-105755877D01*
X166300000Y-105755877D01*
X166411173Y-105734958D01*
X166513279Y-105669255D01*
X166546340Y-105620868D01*
X166616344Y-105789872D01*
X166785127Y-105958655D01*
X167005652Y-106050000D01*
X167200000Y-106050000D01*
X167350000Y-105900000D01*
X167350000Y-105200000D01*
X167650000Y-105200000D01*
X167650000Y-105900000D01*
X167800000Y-106050000D01*
X167994348Y-106050000D01*
X168214873Y-105958655D01*
X168383656Y-105789872D01*
X168475000Y-105569347D01*
X168475000Y-105350000D01*
X168625000Y-105350000D01*
X168625000Y-105569347D01*
X168716344Y-105789872D01*
X168885127Y-105958655D01*
X169105652Y-106050000D01*
X169300000Y-106050000D01*
X169450000Y-105900000D01*
X169450000Y-105200000D01*
X168775000Y-105200000D01*
X168625000Y-105350000D01*
X168475000Y-105350000D01*
X168325000Y-105200000D01*
X167650000Y-105200000D01*
X167350000Y-105200000D01*
X167330000Y-105200000D01*
X167330000Y-104900000D01*
X167350000Y-104900000D01*
X167350000Y-104880000D01*
X167650000Y-104880000D01*
X167650000Y-104900000D01*
X168325000Y-104900000D01*
X168475000Y-104750000D01*
X168475000Y-104530653D01*
X168383656Y-104310128D01*
X168214873Y-104141345D01*
X168131068Y-104106631D01*
X168156778Y-104069003D01*
X168180877Y-103950000D01*
X168180877Y-103150000D01*
X168159958Y-103038827D01*
X168094255Y-102936721D01*
X167994003Y-102868222D01*
X167875000Y-102844123D01*
X167300000Y-102844123D01*
X167300000Y-102255877D01*
X167350000Y-102255877D01*
X167461173Y-102234958D01*
X167563279Y-102169255D01*
X167631778Y-102069003D01*
X167655877Y-101950000D01*
X167655877Y-101522737D01*
X167689872Y-101508656D01*
X167858655Y-101339873D01*
X167950000Y-101119348D01*
X167950000Y-101000000D01*
X167800000Y-100850000D01*
X166950000Y-100850000D01*
X166950000Y-100870000D01*
X166650000Y-100870000D01*
X166650000Y-100850000D01*
X166630000Y-100850000D01*
X166630000Y-100550000D01*
X166650000Y-100550000D01*
X166650000Y-100530000D01*
X166950000Y-100530000D01*
X166950000Y-100550000D01*
X167800000Y-100550000D01*
X167950000Y-100400000D01*
X167950000Y-100280652D01*
X167858655Y-100060127D01*
X167689872Y-99891344D01*
X167655877Y-99877263D01*
X167655877Y-99450000D01*
X167634958Y-99338827D01*
X167569255Y-99236721D01*
X167469003Y-99168222D01*
X167350000Y-99144123D01*
X166250000Y-99144123D01*
X166138827Y-99165042D01*
X166036721Y-99230745D01*
X166023565Y-99250000D01*
X165700000Y-99250000D01*
X165508658Y-99288060D01*
X165346447Y-99396447D01*
X165238060Y-99558658D01*
X165200000Y-99750000D01*
X165200000Y-101650000D01*
X165238060Y-101841342D01*
X165346447Y-102003553D01*
X165508658Y-102111940D01*
X165700000Y-102150000D01*
X166022200Y-102150000D01*
X166030745Y-102163279D01*
X166130997Y-102231778D01*
X166250000Y-102255877D01*
X166300000Y-102255877D01*
X166300000Y-102844123D01*
X165500000Y-102844123D01*
X165388827Y-102865042D01*
X165286721Y-102930745D01*
X165218222Y-103030997D01*
X165194123Y-103150000D01*
X165194123Y-103750000D01*
X165215042Y-103861173D01*
X165280745Y-103963279D01*
X165380997Y-104031778D01*
X165500000Y-104055877D01*
X166300000Y-104055877D01*
X166411173Y-104034958D01*
X166513279Y-103969255D01*
X166526435Y-103950000D01*
X166819123Y-103950000D01*
X166840042Y-104061173D01*
X166869218Y-104106513D01*
X166785127Y-104141345D01*
X166616344Y-104310128D01*
X166525000Y-104530653D01*
X166525000Y-104645649D01*
X166519255Y-104636721D01*
X166419003Y-104568222D01*
X166300000Y-104544123D01*
X165500000Y-104544123D01*
X165388827Y-104565042D01*
X165286721Y-104630745D01*
X165218222Y-104730997D01*
X165194123Y-104850000D01*
X165194123Y-105048771D01*
X164346447Y-105896447D01*
X164238060Y-106058658D01*
X164200000Y-106250000D01*
X164200000Y-114700000D01*
X164234374Y-114872810D01*
X164238060Y-114891342D01*
X164346447Y-115053553D01*
X167146447Y-117853553D01*
X167308658Y-117961940D01*
X167500000Y-118000000D01*
X172439462Y-118000000D01*
X172264552Y-118174605D01*
X172150131Y-118450161D01*
X172149870Y-118748530D01*
X172263811Y-119024286D01*
X172474605Y-119235448D01*
X172750161Y-119349869D01*
X173048530Y-119350130D01*
X173324286Y-119236189D01*
X173535448Y-119025395D01*
X173649869Y-118749839D01*
X173650038Y-118557144D01*
X173800000Y-118707107D01*
X173800000Y-119251339D01*
X173791641Y-119259683D01*
X173700104Y-119480129D01*
X173699896Y-119718824D01*
X173791048Y-119939429D01*
X173959683Y-120108359D01*
X174180129Y-120199896D01*
X174418824Y-120200104D01*
X174639429Y-120108952D01*
X174808359Y-119940317D01*
X174899896Y-119719871D01*
X174900087Y-119501127D01*
X175999480Y-120600520D01*
X176137359Y-120692649D01*
X176164343Y-120698016D01*
X176300000Y-120725000D01*
X178705495Y-120725000D01*
X178744974Y-120923472D01*
X178997211Y-121300971D01*
X179374710Y-121553208D01*
X179820000Y-121641782D01*
X180265290Y-121553208D01*
X180642789Y-121300971D01*
X180895026Y-120923472D01*
X180983600Y-120478182D01*
X180983600Y-120121818D01*
X180895026Y-119676528D01*
X180642789Y-119299029D01*
X180265290Y-119046792D01*
X179820000Y-118958218D01*
X179374710Y-119046792D01*
X178997211Y-119299029D01*
X178744974Y-119676528D01*
X178705495Y-119875000D01*
X176476040Y-119875000D01*
X175325000Y-118723960D01*
X175325000Y-118456237D01*
X175430652Y-118500000D01*
X175700000Y-118500000D01*
X175850000Y-118350000D01*
X175850000Y-117775000D01*
X175830000Y-117775000D01*
X175830000Y-117525000D01*
X175850000Y-117525000D01*
X175850000Y-116950000D01*
X175700000Y-116800000D01*
X175430652Y-116800000D01*
X175325000Y-116843763D01*
X175325000Y-116604351D01*
X175330745Y-116613279D01*
X175430997Y-116681778D01*
X175550000Y-116705877D01*
X176450000Y-116705877D01*
X176538234Y-116689274D01*
X176705254Y-116856294D01*
X176569348Y-116800000D01*
X176300000Y-116800000D01*
X176150000Y-116950000D01*
X176150000Y-117525000D01*
X176170000Y-117525000D01*
X176170000Y-117775000D01*
X176150000Y-117775000D01*
X176150000Y-118350000D01*
X176300000Y-118500000D01*
X176569348Y-118500000D01*
X176789873Y-118408655D01*
X176958656Y-118239872D01*
X177050000Y-118019347D01*
X177050000Y-117925000D01*
X176925002Y-117800002D01*
X177050000Y-117800002D01*
X177050000Y-117710599D01*
X177080997Y-117731778D01*
X177200000Y-117755877D01*
X177700000Y-117755877D01*
X177811173Y-117734958D01*
X177913279Y-117669255D01*
X177981778Y-117569003D01*
X178005877Y-117450000D01*
X178005877Y-116550000D01*
X177984958Y-116438827D01*
X177919255Y-116336721D01*
X177819003Y-116268222D01*
X177700000Y-116244123D01*
X177295163Y-116244123D01*
X176900520Y-115849480D01*
X176762641Y-115757351D01*
X176735657Y-115751984D01*
X176707668Y-115746416D01*
X176675000Y-115695649D01*
X176675000Y-115302101D01*
X176700004Y-115265506D01*
X176730745Y-115313279D01*
X176830997Y-115381778D01*
X176950000Y-115405877D01*
X177350000Y-115405877D01*
X177461173Y-115384958D01*
X177563279Y-115319255D01*
X177631778Y-115219003D01*
X177631846Y-115218665D01*
X177735657Y-115198016D01*
X177762641Y-115192649D01*
X177900520Y-115100520D01*
X178050000Y-114951040D01*
X178498958Y-115399999D01*
X178381176Y-115399896D01*
X178160571Y-115491048D01*
X177991641Y-115659683D01*
X177900104Y-115880129D01*
X177899896Y-116118824D01*
X177991048Y-116339429D01*
X178075000Y-116423528D01*
X178075000Y-116550000D01*
X178093543Y-116643222D01*
X178107351Y-116712641D01*
X178199480Y-116850520D01*
X178394123Y-117045163D01*
X178394123Y-117450000D01*
X178415042Y-117561173D01*
X178480745Y-117663279D01*
X178580997Y-117731778D01*
X178700000Y-117755877D01*
X179200000Y-117755877D01*
X179311173Y-117734958D01*
X179413279Y-117669255D01*
X179481778Y-117569003D01*
X179505877Y-117450000D01*
X179505877Y-116550000D01*
X179484958Y-116438827D01*
X179419255Y-116336721D01*
X179319003Y-116268222D01*
X179200000Y-116244123D01*
X179048302Y-116244123D01*
X179099896Y-116119871D01*
X179100000Y-116001040D01*
X181935000Y-118836041D01*
X181935000Y-119042756D01*
X181914710Y-119046792D01*
X181537211Y-119299029D01*
X181284974Y-119676528D01*
X181196400Y-120121818D01*
X181196400Y-120478182D01*
X181284974Y-120923472D01*
X181537211Y-121300971D01*
X181914710Y-121553208D01*
X182360000Y-121641782D01*
X182805290Y-121553208D01*
X183182789Y-121300971D01*
X183435026Y-120923472D01*
X183473204Y-120731538D01*
X183650716Y-121215147D01*
X184037703Y-121635167D01*
X184226254Y-121725000D01*
X161036932Y-121725000D01*
X160189610Y-121556457D01*
X159502593Y-121097407D01*
X159043544Y-120410392D01*
X158943405Y-119906961D01*
X159449732Y-119906961D01*
X159685208Y-120476857D01*
X160120849Y-120913260D01*
X160690333Y-121149730D01*
X161306961Y-121150268D01*
X161876857Y-120914792D01*
X162313260Y-120479151D01*
X162549730Y-119909667D01*
X162550268Y-119293039D01*
X162325282Y-118748530D01*
X165349870Y-118748530D01*
X165463811Y-119024286D01*
X165674605Y-119235448D01*
X165950161Y-119349869D01*
X166248530Y-119350130D01*
X166524286Y-119236189D01*
X166735448Y-119025395D01*
X166849869Y-118749839D01*
X166850130Y-118451470D01*
X166736189Y-118175714D01*
X166525395Y-117964552D01*
X166249839Y-117850131D01*
X165951470Y-117849870D01*
X165675714Y-117963811D01*
X165464552Y-118174605D01*
X165350131Y-118450161D01*
X165349870Y-118748530D01*
X162325282Y-118748530D01*
X162314792Y-118723143D01*
X161879151Y-118286740D01*
X161309667Y-118050270D01*
X160693039Y-118049732D01*
X160123143Y-118285208D01*
X159686740Y-118720849D01*
X159450270Y-119290333D01*
X159449732Y-119906961D01*
X158943405Y-119906961D01*
X158875000Y-119563068D01*
X158875000Y-115084942D01*
X159327190Y-115084942D01*
X159402045Y-115315849D01*
X159920459Y-115490394D01*
X160466206Y-115453264D01*
X160797955Y-115315849D01*
X160872810Y-115084942D01*
X160100000Y-114312132D01*
X159327190Y-115084942D01*
X158875000Y-115084942D01*
X158875000Y-114775863D01*
X158884151Y-114797955D01*
X159115058Y-114872810D01*
X159887868Y-114100000D01*
X160312132Y-114100000D01*
X161084942Y-114872810D01*
X161315849Y-114797955D01*
X161490394Y-114279541D01*
X161469736Y-113975903D01*
X162136229Y-113975903D01*
X162192523Y-114191316D01*
X162656393Y-114340716D01*
X163142126Y-114301228D01*
X163407477Y-114191316D01*
X163463771Y-113975903D01*
X162800000Y-113312132D01*
X162136229Y-113975903D01*
X161469736Y-113975903D01*
X161453264Y-113733794D01*
X161315849Y-113402045D01*
X161084942Y-113327190D01*
X160312132Y-114100000D01*
X159887868Y-114100000D01*
X159115058Y-113327190D01*
X158884151Y-113402045D01*
X158875000Y-113429224D01*
X158875000Y-113115058D01*
X159327190Y-113115058D01*
X160100000Y-113887868D01*
X160872810Y-113115058D01*
X160821375Y-112956393D01*
X161559284Y-112956393D01*
X161598772Y-113442126D01*
X161708684Y-113707477D01*
X161924097Y-113763771D01*
X162587868Y-113100000D01*
X163012132Y-113100000D01*
X163675903Y-113763771D01*
X163891316Y-113707477D01*
X164040716Y-113243607D01*
X164001228Y-112757874D01*
X163891316Y-112492523D01*
X163675903Y-112436229D01*
X163012132Y-113100000D01*
X162587868Y-113100000D01*
X161924097Y-112436229D01*
X161708684Y-112492523D01*
X161559284Y-112956393D01*
X160821375Y-112956393D01*
X160797955Y-112884151D01*
X160279541Y-112709606D01*
X159733794Y-112746736D01*
X159402045Y-112884151D01*
X159327190Y-113115058D01*
X158875000Y-113115058D01*
X158875000Y-112224097D01*
X162136229Y-112224097D01*
X162800000Y-112887868D01*
X163463771Y-112224097D01*
X163407477Y-112008684D01*
X162943607Y-111859284D01*
X162457874Y-111898772D01*
X162192523Y-112008684D01*
X162136229Y-112224097D01*
X158875000Y-112224097D01*
X158875000Y-108975903D01*
X162136229Y-108975903D01*
X162192523Y-109191316D01*
X162656393Y-109340716D01*
X163142126Y-109301228D01*
X163407477Y-109191316D01*
X163463771Y-108975903D01*
X162800000Y-108312132D01*
X162136229Y-108975903D01*
X158875000Y-108975903D01*
X158875000Y-108084942D01*
X159327190Y-108084942D01*
X159402045Y-108315849D01*
X159920459Y-108490394D01*
X160466206Y-108453264D01*
X160797955Y-108315849D01*
X160872810Y-108084942D01*
X160744261Y-107956393D01*
X161559284Y-107956393D01*
X161598772Y-108442126D01*
X161708684Y-108707477D01*
X161924097Y-108763771D01*
X162587868Y-108100000D01*
X163012132Y-108100000D01*
X163675903Y-108763771D01*
X163891316Y-108707477D01*
X164040716Y-108243607D01*
X164001228Y-107757874D01*
X163891316Y-107492523D01*
X163675903Y-107436229D01*
X163012132Y-108100000D01*
X162587868Y-108100000D01*
X161924097Y-107436229D01*
X161708684Y-107492523D01*
X161559284Y-107956393D01*
X160744261Y-107956393D01*
X160100000Y-107312132D01*
X159327190Y-108084942D01*
X158875000Y-108084942D01*
X158875000Y-107775863D01*
X158884151Y-107797955D01*
X159115058Y-107872810D01*
X159887868Y-107100000D01*
X160312132Y-107100000D01*
X161084942Y-107872810D01*
X161315849Y-107797955D01*
X161490394Y-107279541D01*
X161486622Y-107224097D01*
X162136229Y-107224097D01*
X162800000Y-107887868D01*
X163463771Y-107224097D01*
X163407477Y-107008684D01*
X162943607Y-106859284D01*
X162457874Y-106898772D01*
X162192523Y-107008684D01*
X162136229Y-107224097D01*
X161486622Y-107224097D01*
X161453264Y-106733794D01*
X161315849Y-106402045D01*
X161084942Y-106327190D01*
X160312132Y-107100000D01*
X159887868Y-107100000D01*
X159115058Y-106327190D01*
X158884151Y-106402045D01*
X158875000Y-106429224D01*
X158875000Y-106115058D01*
X159327190Y-106115058D01*
X160100000Y-106887868D01*
X160872810Y-106115058D01*
X160797955Y-105884151D01*
X160279541Y-105709606D01*
X159733794Y-105746736D01*
X159402045Y-105884151D01*
X159327190Y-106115058D01*
X158875000Y-106115058D01*
X158875000Y-94206961D01*
X159449732Y-94206961D01*
X159685208Y-94776857D01*
X160120849Y-95213260D01*
X160690333Y-95449730D01*
X161306961Y-95450268D01*
X161876857Y-95214792D01*
X162313260Y-94779151D01*
X162549730Y-94209667D01*
X162550268Y-93593039D01*
X162314792Y-93023143D01*
X161879151Y-92586740D01*
X161309667Y-92350270D01*
X160693039Y-92349732D01*
X160123143Y-92585208D01*
X159686740Y-93020849D01*
X159450270Y-93590333D01*
X159449732Y-94206961D01*
X158875000Y-94206961D01*
X158875000Y-93936932D01*
X159043544Y-93089608D01*
X159502593Y-92402593D01*
X160189610Y-91943543D01*
X161036932Y-91775000D01*
X192000000Y-91775000D01*
X192000000Y-121725000D01*
G36*
X187704928Y-109360685D02*
X187808664Y-109430000D01*
X187704928Y-109499315D01*
X187624823Y-109619200D01*
X185714444Y-109619200D01*
X185711755Y-109615021D01*
X185611503Y-109546522D01*
X185492500Y-109522423D01*
X184095500Y-109522423D01*
X183984327Y-109543342D01*
X183882221Y-109609045D01*
X183813722Y-109709297D01*
X183789623Y-109828300D01*
X183789623Y-110260100D01*
X183810542Y-110371273D01*
X183810762Y-110371615D01*
X183789623Y-110476000D01*
X183789623Y-110907800D01*
X183810542Y-111018973D01*
X183810762Y-111019315D01*
X183789623Y-111123700D01*
X183789623Y-111555500D01*
X183810542Y-111666673D01*
X183812718Y-111670055D01*
X183789623Y-111784100D01*
X183789623Y-112215900D01*
X183809442Y-112321230D01*
X183789623Y-112419100D01*
X183789623Y-112850900D01*
X183810542Y-112962073D01*
X183812718Y-112965455D01*
X183789623Y-113079500D01*
X183789623Y-113511300D01*
X183809442Y-113616630D01*
X183789623Y-113714500D01*
X183789623Y-114146300D01*
X183810542Y-114257473D01*
X183843196Y-114308218D01*
X183791641Y-114359683D01*
X183700104Y-114580129D01*
X183699978Y-114725000D01*
X183550000Y-114725000D01*
X183400000Y-114875000D01*
X183400000Y-115550000D01*
X183420000Y-115550000D01*
X183420000Y-115850000D01*
X183400000Y-115850000D01*
X183400000Y-117150000D01*
X183420000Y-117150000D01*
X183420000Y-117450000D01*
X183400000Y-117450000D01*
X183400000Y-118125000D01*
X183550000Y-118275000D01*
X183769347Y-118275000D01*
X183989872Y-118183656D01*
X184158655Y-118014873D01*
X184193369Y-117931068D01*
X184230997Y-117956778D01*
X184350000Y-117980877D01*
X184566171Y-117980877D01*
X185357052Y-118771759D01*
X185275905Y-118733097D01*
X185050000Y-118842592D01*
X185050000Y-120150000D01*
X185070000Y-120150000D01*
X185070000Y-120450000D01*
X185050000Y-120450000D01*
X185050000Y-120470000D01*
X184750000Y-120470000D01*
X184750000Y-120450000D01*
X184730000Y-120450000D01*
X184730000Y-120150000D01*
X184750000Y-120150000D01*
X184750000Y-118842592D01*
X184524095Y-118733097D01*
X184037703Y-118964833D01*
X183650716Y-119384853D01*
X183473204Y-119868462D01*
X183435026Y-119676528D01*
X183182789Y-119299029D01*
X182805290Y-119046792D01*
X182785000Y-119042756D01*
X182785000Y-118660000D01*
X182752649Y-118497360D01*
X182693378Y-118408655D01*
X182660520Y-118359479D01*
X181901041Y-117600000D01*
X182250000Y-117600000D01*
X182250000Y-117794348D01*
X182341345Y-118014873D01*
X182510128Y-118183656D01*
X182730653Y-118275000D01*
X182950000Y-118275000D01*
X183100000Y-118125000D01*
X183100000Y-117450000D01*
X182400000Y-117450000D01*
X182250000Y-117600000D01*
X181901041Y-117600000D01*
X180301041Y-116000000D01*
X182250000Y-116000000D01*
X182250000Y-116194348D01*
X182341345Y-116414873D01*
X182426472Y-116500000D01*
X182341345Y-116585127D01*
X182250000Y-116805652D01*
X182250000Y-117000000D01*
X182400000Y-117150000D01*
X183100000Y-117150000D01*
X183100000Y-115850000D01*
X182400000Y-115850000D01*
X182250000Y-116000000D01*
X180301041Y-116000000D01*
X179506693Y-115205652D01*
X182250000Y-115205652D01*
X182250000Y-115400000D01*
X182400000Y-115550000D01*
X183100000Y-115550000D01*
X183100000Y-114875000D01*
X182950000Y-114725000D01*
X182730653Y-114725000D01*
X182510128Y-114816344D01*
X182341345Y-114985127D01*
X182250000Y-115205652D01*
X179506693Y-115205652D01*
X178983020Y-114681980D01*
X179056000Y-114609000D01*
X179056000Y-114051050D01*
X179356000Y-114051050D01*
X179356000Y-114609000D01*
X179506000Y-114759000D01*
X180023848Y-114759000D01*
X180244373Y-114667655D01*
X180413156Y-114498872D01*
X180504500Y-114278347D01*
X180504500Y-114201050D01*
X180354500Y-114051050D01*
X179356000Y-114051050D01*
X179056000Y-114051050D01*
X179036000Y-114051050D01*
X179036000Y-113835150D01*
X179056000Y-113835150D01*
X179056000Y-113817177D01*
X179356000Y-113817177D01*
X179356000Y-113835150D01*
X180354500Y-113835150D01*
X180504500Y-113685150D01*
X180504500Y-113607853D01*
X180413156Y-113387328D01*
X180244373Y-113218545D01*
X180210377Y-113204463D01*
X180210377Y-113079500D01*
X180189458Y-112968327D01*
X180189238Y-112967985D01*
X180210377Y-112863600D01*
X180210377Y-112431800D01*
X180189458Y-112320627D01*
X180189238Y-112320285D01*
X180210377Y-112215900D01*
X180210377Y-111784100D01*
X180189458Y-111672927D01*
X180187282Y-111669545D01*
X180210377Y-111555500D01*
X180210377Y-111123700D01*
X180189458Y-111012527D01*
X180189238Y-111012185D01*
X180210377Y-110907800D01*
X180210377Y-110476000D01*
X180189458Y-110364827D01*
X180189238Y-110364485D01*
X180210377Y-110260100D01*
X180210377Y-109828300D01*
X180189458Y-109717127D01*
X180123755Y-109615021D01*
X180023503Y-109546522D01*
X179904500Y-109522423D01*
X179862917Y-109522423D01*
X180060340Y-109325000D01*
X187681084Y-109325000D01*
X187704928Y-109360685D01*
X187704928Y-109360685D01*
G37*
X187704928Y-109360685D02*
X187808664Y-109430000D01*
X187704928Y-109499315D01*
X187624823Y-109619200D01*
X185714444Y-109619200D01*
X185711755Y-109615021D01*
X185611503Y-109546522D01*
X185492500Y-109522423D01*
X184095500Y-109522423D01*
X183984327Y-109543342D01*
X183882221Y-109609045D01*
X183813722Y-109709297D01*
X183789623Y-109828300D01*
X183789623Y-110260100D01*
X183810542Y-110371273D01*
X183810762Y-110371615D01*
X183789623Y-110476000D01*
X183789623Y-110907800D01*
X183810542Y-111018973D01*
X183810762Y-111019315D01*
X183789623Y-111123700D01*
X183789623Y-111555500D01*
X183810542Y-111666673D01*
X183812718Y-111670055D01*
X183789623Y-111784100D01*
X183789623Y-112215900D01*
X183809442Y-112321230D01*
X183789623Y-112419100D01*
X183789623Y-112850900D01*
X183810542Y-112962073D01*
X183812718Y-112965455D01*
X183789623Y-113079500D01*
X183789623Y-113511300D01*
X183809442Y-113616630D01*
X183789623Y-113714500D01*
X183789623Y-114146300D01*
X183810542Y-114257473D01*
X183843196Y-114308218D01*
X183791641Y-114359683D01*
X183700104Y-114580129D01*
X183699978Y-114725000D01*
X183550000Y-114725000D01*
X183400000Y-114875000D01*
X183400000Y-115550000D01*
X183420000Y-115550000D01*
X183420000Y-115850000D01*
X183400000Y-115850000D01*
X183400000Y-117150000D01*
X183420000Y-117150000D01*
X183420000Y-117450000D01*
X183400000Y-117450000D01*
X183400000Y-118125000D01*
X183550000Y-118275000D01*
X183769347Y-118275000D01*
X183989872Y-118183656D01*
X184158655Y-118014873D01*
X184193369Y-117931068D01*
X184230997Y-117956778D01*
X184350000Y-117980877D01*
X184566171Y-117980877D01*
X185357052Y-118771759D01*
X185275905Y-118733097D01*
X185050000Y-118842592D01*
X185050000Y-120150000D01*
X185070000Y-120150000D01*
X185070000Y-120450000D01*
X185050000Y-120450000D01*
X185050000Y-120470000D01*
X184750000Y-120470000D01*
X184750000Y-120450000D01*
X184730000Y-120450000D01*
X184730000Y-120150000D01*
X184750000Y-120150000D01*
X184750000Y-118842592D01*
X184524095Y-118733097D01*
X184037703Y-118964833D01*
X183650716Y-119384853D01*
X183473204Y-119868462D01*
X183435026Y-119676528D01*
X183182789Y-119299029D01*
X182805290Y-119046792D01*
X182785000Y-119042756D01*
X182785000Y-118660000D01*
X182752649Y-118497360D01*
X182693378Y-118408655D01*
X182660520Y-118359479D01*
X181901041Y-117600000D01*
X182250000Y-117600000D01*
X182250000Y-117794348D01*
X182341345Y-118014873D01*
X182510128Y-118183656D01*
X182730653Y-118275000D01*
X182950000Y-118275000D01*
X183100000Y-118125000D01*
X183100000Y-117450000D01*
X182400000Y-117450000D01*
X182250000Y-117600000D01*
X181901041Y-117600000D01*
X180301041Y-116000000D01*
X182250000Y-116000000D01*
X182250000Y-116194348D01*
X182341345Y-116414873D01*
X182426472Y-116500000D01*
X182341345Y-116585127D01*
X182250000Y-116805652D01*
X182250000Y-117000000D01*
X182400000Y-117150000D01*
X183100000Y-117150000D01*
X183100000Y-115850000D01*
X182400000Y-115850000D01*
X182250000Y-116000000D01*
X180301041Y-116000000D01*
X179506693Y-115205652D01*
X182250000Y-115205652D01*
X182250000Y-115400000D01*
X182400000Y-115550000D01*
X183100000Y-115550000D01*
X183100000Y-114875000D01*
X182950000Y-114725000D01*
X182730653Y-114725000D01*
X182510128Y-114816344D01*
X182341345Y-114985127D01*
X182250000Y-115205652D01*
X179506693Y-115205652D01*
X178983020Y-114681980D01*
X179056000Y-114609000D01*
X179056000Y-114051050D01*
X179356000Y-114051050D01*
X179356000Y-114609000D01*
X179506000Y-114759000D01*
X180023848Y-114759000D01*
X180244373Y-114667655D01*
X180413156Y-114498872D01*
X180504500Y-114278347D01*
X180504500Y-114201050D01*
X180354500Y-114051050D01*
X179356000Y-114051050D01*
X179056000Y-114051050D01*
X179036000Y-114051050D01*
X179036000Y-113835150D01*
X179056000Y-113835150D01*
X179056000Y-113817177D01*
X179356000Y-113817177D01*
X179356000Y-113835150D01*
X180354500Y-113835150D01*
X180504500Y-113685150D01*
X180504500Y-113607853D01*
X180413156Y-113387328D01*
X180244373Y-113218545D01*
X180210377Y-113204463D01*
X180210377Y-113079500D01*
X180189458Y-112968327D01*
X180189238Y-112967985D01*
X180210377Y-112863600D01*
X180210377Y-112431800D01*
X180189458Y-112320627D01*
X180189238Y-112320285D01*
X180210377Y-112215900D01*
X180210377Y-111784100D01*
X180189458Y-111672927D01*
X180187282Y-111669545D01*
X180210377Y-111555500D01*
X180210377Y-111123700D01*
X180189458Y-111012527D01*
X180189238Y-111012185D01*
X180210377Y-110907800D01*
X180210377Y-110476000D01*
X180189458Y-110364827D01*
X180189238Y-110364485D01*
X180210377Y-110260100D01*
X180210377Y-109828300D01*
X180189458Y-109717127D01*
X180123755Y-109615021D01*
X180023503Y-109546522D01*
X179904500Y-109522423D01*
X179862917Y-109522423D01*
X180060340Y-109325000D01*
X187681084Y-109325000D01*
X187704928Y-109360685D01*
G36*
X174000000Y-102651339D02*
X173991641Y-102659683D01*
X173900104Y-102880129D01*
X173899896Y-103118824D01*
X173991048Y-103339429D01*
X174159683Y-103508359D01*
X174380129Y-103599896D01*
X174618824Y-103600104D01*
X174839429Y-103508952D01*
X175008359Y-103340317D01*
X175099896Y-103119871D01*
X175100104Y-102881176D01*
X175008952Y-102660571D01*
X175000000Y-102651603D01*
X175000000Y-100250000D01*
X175392894Y-100250000D01*
X182900000Y-107757107D01*
X182900000Y-107926329D01*
X182891641Y-107934673D01*
X182800104Y-108155119D01*
X182799896Y-108393814D01*
X182833441Y-108475000D01*
X179884300Y-108475000D01*
X179758616Y-108500000D01*
X179721659Y-108507351D01*
X179583780Y-108599480D01*
X178905480Y-109277780D01*
X178813351Y-109415659D01*
X178813351Y-109415660D01*
X178792115Y-109522423D01*
X178507500Y-109522423D01*
X178396327Y-109543342D01*
X178294221Y-109609045D01*
X178225722Y-109709297D01*
X178201623Y-109828300D01*
X178201623Y-110260100D01*
X178202903Y-110266900D01*
X176167941Y-110266900D01*
X175125607Y-109224567D01*
X176900430Y-109224567D01*
X177011603Y-109203648D01*
X177113709Y-109137945D01*
X177182208Y-109037693D01*
X177206307Y-108918690D01*
X177206307Y-108600000D01*
X177351339Y-108600000D01*
X177359683Y-108608359D01*
X177580129Y-108699896D01*
X177818824Y-108700104D01*
X178039429Y-108608952D01*
X178208359Y-108440317D01*
X178299896Y-108219871D01*
X178300104Y-107981176D01*
X178208952Y-107760571D01*
X178040317Y-107591641D01*
X177819871Y-107500104D01*
X177581176Y-107499896D01*
X177360571Y-107591048D01*
X177351603Y-107600000D01*
X177206307Y-107600000D01*
X177206307Y-107321030D01*
X177185388Y-107209857D01*
X177119685Y-107107751D01*
X177019433Y-107039252D01*
X176900430Y-107015153D01*
X175099570Y-107015153D01*
X174988397Y-107036072D01*
X174886291Y-107101775D01*
X174817792Y-107202027D01*
X174793693Y-107321030D01*
X174793693Y-108892653D01*
X174206006Y-108304966D01*
X174200521Y-108296757D01*
X173703854Y-107800091D01*
X173718824Y-107800104D01*
X173939429Y-107708952D01*
X174108359Y-107540317D01*
X174199896Y-107319871D01*
X174200104Y-107081176D01*
X174108952Y-106860571D01*
X174100000Y-106851603D01*
X174100000Y-106796469D01*
X174161173Y-106784958D01*
X174263279Y-106719255D01*
X174331778Y-106619003D01*
X174355877Y-106500000D01*
X174355877Y-106000000D01*
X174334958Y-105888827D01*
X174269255Y-105786721D01*
X174169003Y-105718222D01*
X174050000Y-105694123D01*
X173150000Y-105694123D01*
X173038827Y-105715042D01*
X172936721Y-105780745D01*
X172868222Y-105880997D01*
X172844123Y-106000000D01*
X172844123Y-106500000D01*
X172865042Y-106611173D01*
X172930745Y-106713279D01*
X173030997Y-106781778D01*
X173100000Y-106795752D01*
X173100000Y-106851339D01*
X173091641Y-106859683D01*
X173000104Y-107080129D01*
X172999896Y-107318824D01*
X173064427Y-107475000D01*
X170542721Y-107475000D01*
X170380080Y-107507351D01*
X170242201Y-107599480D01*
X169897558Y-107944123D01*
X169505704Y-107944123D01*
X171053553Y-106396275D01*
X171161940Y-106234063D01*
X171185611Y-106115058D01*
X171200000Y-106042721D01*
X171200000Y-104500000D01*
X172844123Y-104500000D01*
X172844123Y-105000000D01*
X172865042Y-105111173D01*
X172930745Y-105213279D01*
X173030997Y-105281778D01*
X173150000Y-105305877D01*
X174050000Y-105305877D01*
X174161173Y-105284958D01*
X174215500Y-105250000D01*
X174793693Y-105250000D01*
X174793693Y-106078970D01*
X174814612Y-106190143D01*
X174880315Y-106292249D01*
X174980567Y-106360748D01*
X175099570Y-106384847D01*
X176900430Y-106384847D01*
X177011603Y-106363928D01*
X177113709Y-106298225D01*
X177182208Y-106197973D01*
X177206307Y-106078970D01*
X177206307Y-104481310D01*
X177185388Y-104370137D01*
X177119685Y-104268031D01*
X177019433Y-104199532D01*
X176900430Y-104175433D01*
X175099570Y-104175433D01*
X174988397Y-104196352D01*
X174905025Y-104250000D01*
X174215512Y-104250000D01*
X174169003Y-104218222D01*
X174050000Y-104194123D01*
X173150000Y-104194123D01*
X173038827Y-104215042D01*
X172936721Y-104280745D01*
X172868222Y-104380997D01*
X172844123Y-104500000D01*
X171200000Y-104500000D01*
X171200000Y-102247659D01*
X171205652Y-102250000D01*
X171400000Y-102250000D01*
X171550000Y-102100000D01*
X171550000Y-101400000D01*
X171850000Y-101400000D01*
X171850000Y-102100000D01*
X172000000Y-102250000D01*
X172194348Y-102250000D01*
X172414873Y-102158655D01*
X172583656Y-101989872D01*
X172675000Y-101769347D01*
X172675000Y-101550000D01*
X172525000Y-101400000D01*
X171850000Y-101400000D01*
X171550000Y-101400000D01*
X171530000Y-101400000D01*
X171530000Y-101100000D01*
X171550000Y-101100000D01*
X171550000Y-101080000D01*
X171850000Y-101080000D01*
X171850000Y-101100000D01*
X172525000Y-101100000D01*
X172675000Y-100950000D01*
X172675000Y-100730653D01*
X172583656Y-100510128D01*
X172414873Y-100341345D01*
X172331068Y-100306631D01*
X172356778Y-100269003D01*
X172360626Y-100250000D01*
X174000000Y-100250000D01*
X174000000Y-102651339D01*
X174000000Y-102651339D01*
G37*
X174000000Y-102651339D02*
X173991641Y-102659683D01*
X173900104Y-102880129D01*
X173899896Y-103118824D01*
X173991048Y-103339429D01*
X174159683Y-103508359D01*
X174380129Y-103599896D01*
X174618824Y-103600104D01*
X174839429Y-103508952D01*
X175008359Y-103340317D01*
X175099896Y-103119871D01*
X175100104Y-102881176D01*
X175008952Y-102660571D01*
X175000000Y-102651603D01*
X175000000Y-100250000D01*
X175392894Y-100250000D01*
X182900000Y-107757107D01*
X182900000Y-107926329D01*
X182891641Y-107934673D01*
X182800104Y-108155119D01*
X182799896Y-108393814D01*
X182833441Y-108475000D01*
X179884300Y-108475000D01*
X179758616Y-108500000D01*
X179721659Y-108507351D01*
X179583780Y-108599480D01*
X178905480Y-109277780D01*
X178813351Y-109415659D01*
X178813351Y-109415660D01*
X178792115Y-109522423D01*
X178507500Y-109522423D01*
X178396327Y-109543342D01*
X178294221Y-109609045D01*
X178225722Y-109709297D01*
X178201623Y-109828300D01*
X178201623Y-110260100D01*
X178202903Y-110266900D01*
X176167941Y-110266900D01*
X175125607Y-109224567D01*
X176900430Y-109224567D01*
X177011603Y-109203648D01*
X177113709Y-109137945D01*
X177182208Y-109037693D01*
X177206307Y-108918690D01*
X177206307Y-108600000D01*
X177351339Y-108600000D01*
X177359683Y-108608359D01*
X177580129Y-108699896D01*
X177818824Y-108700104D01*
X178039429Y-108608952D01*
X178208359Y-108440317D01*
X178299896Y-108219871D01*
X178300104Y-107981176D01*
X178208952Y-107760571D01*
X178040317Y-107591641D01*
X177819871Y-107500104D01*
X177581176Y-107499896D01*
X177360571Y-107591048D01*
X177351603Y-107600000D01*
X177206307Y-107600000D01*
X177206307Y-107321030D01*
X177185388Y-107209857D01*
X177119685Y-107107751D01*
X177019433Y-107039252D01*
X176900430Y-107015153D01*
X175099570Y-107015153D01*
X174988397Y-107036072D01*
X174886291Y-107101775D01*
X174817792Y-107202027D01*
X174793693Y-107321030D01*
X174793693Y-108892653D01*
X174206006Y-108304966D01*
X174200521Y-108296757D01*
X173703854Y-107800091D01*
X173718824Y-107800104D01*
X173939429Y-107708952D01*
X174108359Y-107540317D01*
X174199896Y-107319871D01*
X174200104Y-107081176D01*
X174108952Y-106860571D01*
X174100000Y-106851603D01*
X174100000Y-106796469D01*
X174161173Y-106784958D01*
X174263279Y-106719255D01*
X174331778Y-106619003D01*
X174355877Y-106500000D01*
X174355877Y-106000000D01*
X174334958Y-105888827D01*
X174269255Y-105786721D01*
X174169003Y-105718222D01*
X174050000Y-105694123D01*
X173150000Y-105694123D01*
X173038827Y-105715042D01*
X172936721Y-105780745D01*
X172868222Y-105880997D01*
X172844123Y-106000000D01*
X172844123Y-106500000D01*
X172865042Y-106611173D01*
X172930745Y-106713279D01*
X173030997Y-106781778D01*
X173100000Y-106795752D01*
X173100000Y-106851339D01*
X173091641Y-106859683D01*
X173000104Y-107080129D01*
X172999896Y-107318824D01*
X173064427Y-107475000D01*
X170542721Y-107475000D01*
X170380080Y-107507351D01*
X170242201Y-107599480D01*
X169897558Y-107944123D01*
X169505704Y-107944123D01*
X171053553Y-106396275D01*
X171161940Y-106234063D01*
X171185611Y-106115058D01*
X171200000Y-106042721D01*
X171200000Y-104500000D01*
X172844123Y-104500000D01*
X172844123Y-105000000D01*
X172865042Y-105111173D01*
X172930745Y-105213279D01*
X173030997Y-105281778D01*
X173150000Y-105305877D01*
X174050000Y-105305877D01*
X174161173Y-105284958D01*
X174215500Y-105250000D01*
X174793693Y-105250000D01*
X174793693Y-106078970D01*
X174814612Y-106190143D01*
X174880315Y-106292249D01*
X174980567Y-106360748D01*
X175099570Y-106384847D01*
X176900430Y-106384847D01*
X177011603Y-106363928D01*
X177113709Y-106298225D01*
X177182208Y-106197973D01*
X177206307Y-106078970D01*
X177206307Y-104481310D01*
X177185388Y-104370137D01*
X177119685Y-104268031D01*
X177019433Y-104199532D01*
X176900430Y-104175433D01*
X175099570Y-104175433D01*
X174988397Y-104196352D01*
X174905025Y-104250000D01*
X174215512Y-104250000D01*
X174169003Y-104218222D01*
X174050000Y-104194123D01*
X173150000Y-104194123D01*
X173038827Y-104215042D01*
X172936721Y-104280745D01*
X172868222Y-104380997D01*
X172844123Y-104500000D01*
X171200000Y-104500000D01*
X171200000Y-102247659D01*
X171205652Y-102250000D01*
X171400000Y-102250000D01*
X171550000Y-102100000D01*
X171550000Y-101400000D01*
X171850000Y-101400000D01*
X171850000Y-102100000D01*
X172000000Y-102250000D01*
X172194348Y-102250000D01*
X172414873Y-102158655D01*
X172583656Y-101989872D01*
X172675000Y-101769347D01*
X172675000Y-101550000D01*
X172525000Y-101400000D01*
X171850000Y-101400000D01*
X171550000Y-101400000D01*
X171530000Y-101400000D01*
X171530000Y-101100000D01*
X171550000Y-101100000D01*
X171550000Y-101080000D01*
X171850000Y-101080000D01*
X171850000Y-101100000D01*
X172525000Y-101100000D01*
X172675000Y-100950000D01*
X172675000Y-100730653D01*
X172583656Y-100510128D01*
X172414873Y-100341345D01*
X172331068Y-100306631D01*
X172356778Y-100269003D01*
X172360626Y-100250000D01*
X174000000Y-100250000D01*
X174000000Y-102651339D01*
M02*
