M48
INCH,TZ
T1C0.016
T2C0.040
%
G90
G05
T1
X31083Y-22579
X31083Y-27382
X31083Y-32185
X31083Y-36988
X31083Y-41791
X31083Y-46594
X31083Y-51398
X31083Y-56201
X31142Y-24547
X31142Y-25197
X31142Y-29350
X31142Y-30000
X31142Y-34154
X31142Y-34803
X31142Y-38957
X31142Y-39606
X31142Y-43760
X31142Y-44409
X31142Y-48563
X31142Y-49213
X31142Y-53366
X31142Y-54016
X31142Y-58169
X31142Y-58819
X31378Y-23150
X31378Y-27953
X31378Y-32756
X31378Y-37559
X31378Y-42362
X31378Y-47165
X31378Y-51969
X31378Y-56772
X31614Y-23780
X31614Y-28583
X31614Y-33386
X31614Y-38189
X31614Y-42992
X31614Y-47795
X31614Y-52598
X31614Y-57402
X31860Y-24951
X31860Y-29754
X31860Y-34557
X31860Y-39360
X31860Y-44163
X31860Y-48967
X31860Y-53770
X31860Y-58573
X32067Y-22815
X32067Y-27618
X32067Y-32421
X32067Y-37224
X32067Y-42028
X32067Y-46831
X32067Y-51634
X32067Y-56437
X33780Y-25866
X33780Y-30669
X33780Y-35472
X33780Y-40276
X33780Y-45079
X33780Y-49882
X33780Y-54685
X33780Y-59488
X33858Y-24803
X33858Y-29606
X33858Y-34409
X33858Y-39213
X33858Y-44016
X33858Y-48819
X33858Y-53622
X33858Y-58425
X34252Y-23268
X34252Y-28071
X34252Y-32874
X34252Y-37677
X34252Y-42480
X34252Y-47283
X34252Y-52087
X34252Y-56890
X34626Y-25807
X34626Y-30610
X34626Y-35413
X34626Y-40217
X34626Y-45020
X34626Y-49823
X34626Y-54626
X34626Y-59429
X34724Y-22756
X34724Y-27559
X34724Y-32362
X34724Y-37165
X34724Y-41969
X34724Y-46772
X34724Y-51575
X34724Y-56378
X34961Y-22146
X34961Y-26949
X34961Y-31752
X34961Y-36555
X34961Y-41358
X34961Y-46161
X34961Y-50965
X34961Y-55768
X35118Y-25984
X35118Y-30787
X35118Y-35591
X35118Y-40394
X35118Y-45197
X35118Y-50000
X35118Y-54803
X35118Y-59606
X35157Y-24213
X35157Y-29016
X35157Y-33819
X35157Y-38622
X35157Y-43425
X35157Y-48228
X35157Y-53031
X35157Y-57835
X40531Y-22579
X40531Y-27382
X40531Y-32185
X40531Y-36988
X40531Y-41791
X40531Y-46594
X40531Y-51398
X40531Y-56201
X40591Y-24547
X40591Y-25197
X40591Y-29350
X40591Y-30000
X40591Y-34154
X40591Y-34803
X40591Y-38957
X40591Y-39606
X40591Y-43760
X40591Y-44409
X40591Y-48563
X40591Y-49213
X40591Y-53366
X40591Y-54016
X40591Y-58169
X40591Y-58819
X40827Y-23150
X40827Y-27953
X40827Y-32756
X40827Y-37559
X40827Y-42362
X40827Y-47165
X40827Y-51969
X40827Y-56772
X41063Y-23780
X41063Y-28583
X41063Y-33386
X41063Y-38189
X41063Y-42992
X41063Y-47795
X41063Y-52598
X41063Y-57402
X41309Y-24951
X41309Y-29754
X41309Y-34557
X41309Y-39360
X41309Y-44163
X41309Y-48967
X41309Y-53770
X41309Y-58573
X41516Y-22815
X41516Y-27618
X41516Y-32421
X41516Y-37224
X41516Y-42028
X41516Y-46831
X41516Y-51634
X41516Y-56437
X43228Y-25866
X43228Y-30669
X43228Y-35472
X43228Y-40276
X43228Y-45079
X43228Y-49882
X43228Y-54685
X43228Y-59488
X43307Y-24803
X43307Y-29606
X43307Y-34409
X43307Y-39213
X43307Y-44016
X43307Y-48819
X43307Y-53622
X43307Y-58425
X43701Y-23268
X43701Y-28071
X43701Y-32874
X43701Y-37677
X43701Y-42480
X43701Y-47283
X43701Y-52087
X43701Y-56890
X44075Y-25807
X44075Y-30610
X44075Y-35413
X44075Y-40217
X44075Y-45020
X44075Y-49823
X44075Y-54626
X44075Y-59429
X44173Y-22756
X44173Y-27559
X44173Y-32362
X44173Y-37165
X44173Y-41969
X44173Y-46772
X44173Y-51575
X44173Y-56378
X44409Y-22146
X44409Y-26949
X44409Y-31752
X44409Y-36555
X44409Y-41358
X44409Y-46161
X44409Y-50965
X44409Y-55768
X44567Y-25984
X44567Y-30787
X44567Y-35591
X44567Y-40394
X44567Y-45197
X44567Y-50000
X44567Y-54803
X44567Y-59606
X44606Y-24213
X44606Y-29016
X44606Y-33819
X44606Y-38622
X44606Y-43425
X44606Y-48228
X44606Y-53031
X44606Y-57835
X49980Y-22579
X49980Y-27382
X49980Y-32185
X49980Y-36988
X49980Y-41791
X49980Y-46594
X49980Y-51398
X49980Y-56201
X50039Y-24547
X50039Y-25197
X50039Y-29350
X50039Y-30000
X50039Y-34154
X50039Y-34803
X50039Y-38957
X50039Y-39606
X50039Y-43760
X50039Y-44409
X50039Y-48563
X50039Y-49213
X50039Y-53366
X50039Y-54016
X50039Y-58169
X50039Y-58819
X50276Y-23150
X50276Y-27953
X50276Y-32756
X50276Y-37559
X50276Y-42362
X50276Y-47165
X50276Y-51969
X50276Y-56772
X50512Y-23780
X50512Y-28583
X50512Y-33386
X50512Y-38189
X50512Y-42992
X50512Y-47795
X50512Y-52598
X50512Y-57402
X50758Y-24951
X50758Y-29754
X50758Y-34557
X50758Y-39360
X50758Y-44163
X50758Y-48967
X50758Y-53770
X50758Y-58573
X50965Y-22815
X50965Y-27618
X50965Y-32421
X50965Y-37224
X50965Y-42028
X50965Y-46831
X50965Y-51634
X50965Y-56437
X52677Y-25866
X52677Y-30669
X52677Y-35472
X52677Y-40276
X52677Y-45079
X52677Y-49882
X52677Y-54685
X52677Y-59488
X52756Y-24803
X52756Y-29606
X52756Y-34409
X52756Y-39213
X52756Y-44016
X52756Y-48819
X52756Y-53622
X52756Y-58425
X53150Y-23268
X53150Y-28071
X53150Y-32874
X53150Y-37677
X53150Y-42480
X53150Y-47283
X53150Y-52087
X53150Y-56890
X53524Y-25807
X53524Y-30610
X53524Y-35413
X53524Y-40217
X53524Y-45020
X53524Y-49823
X53524Y-54626
X53524Y-59429
X53622Y-22756
X53622Y-27559
X53622Y-32362
X53622Y-37165
X53622Y-41969
X53622Y-46772
X53622Y-51575
X53622Y-56378
X53858Y-22146
X53858Y-26949
X53858Y-31752
X53858Y-36555
X53858Y-41358
X53858Y-46161
X53858Y-50965
X53858Y-55768
X54016Y-25984
X54016Y-30787
X54016Y-35591
X54016Y-40394
X54016Y-45197
X54016Y-50000
X54016Y-54803
X54016Y-59606
X54055Y-24213
X54055Y-29016
X54055Y-33819
X54055Y-38622
X54055Y-43425
X54055Y-48228
X54055Y-53031
X54055Y-57835
X59429Y-22579
X59429Y-27382
X59429Y-32185
X59429Y-36988
X59429Y-41791
X59429Y-46594
X59429Y-51398
X59429Y-56201
X59488Y-24547
X59488Y-25197
X59488Y-29350
X59488Y-30000
X59488Y-34154
X59488Y-34803
X59488Y-38957
X59488Y-39606
X59488Y-43760
X59488Y-44409
X59488Y-48563
X59488Y-49213
X59488Y-53366
X59488Y-54016
X59488Y-58169
X59488Y-58819
X59724Y-23150
X59724Y-27953
X59724Y-32756
X59724Y-37559
X59724Y-42362
X59724Y-47165
X59724Y-51969
X59724Y-56772
X59961Y-23780
X59961Y-28583
X59961Y-33386
X59961Y-38189
X59961Y-42992
X59961Y-47795
X59961Y-52598
X59961Y-57402
X60207Y-24951
X60207Y-29754
X60207Y-34557
X60207Y-39360
X60207Y-44163
X60207Y-48967
X60207Y-53770
X60207Y-58573
X60413Y-22815
X60413Y-27618
X60413Y-32421
X60413Y-37224
X60413Y-42028
X60413Y-46831
X60413Y-51634
X60413Y-56437
X62126Y-25866
X62126Y-30669
X62126Y-35472
X62126Y-40276
X62126Y-45079
X62126Y-49882
X62126Y-54685
X62126Y-59488
X62205Y-24803
X62205Y-29606
X62205Y-34409
X62205Y-39213
X62205Y-44016
X62205Y-48819
X62205Y-53622
X62205Y-58425
X62598Y-23268
X62598Y-28071
X62598Y-32874
X62598Y-37677
X62598Y-42480
X62598Y-47283
X62598Y-52087
X62598Y-56890
X62972Y-25807
X62972Y-30610
X62972Y-35413
X62972Y-40217
X62972Y-45020
X62972Y-49823
X62972Y-54626
X62972Y-59429
X63071Y-22756
X63071Y-27559
X63071Y-32362
X63071Y-37165
X63071Y-41969
X63071Y-46772
X63071Y-51575
X63071Y-56378
X63307Y-22146
X63307Y-26949
X63307Y-31752
X63307Y-36555
X63307Y-41358
X63307Y-46161
X63307Y-50965
X63307Y-55768
X63465Y-25984
X63465Y-30787
X63465Y-35591
X63465Y-40394
X63465Y-45197
X63465Y-50000
X63465Y-54803
X63465Y-59606
X63504Y-24213
X63504Y-29016
X63504Y-33819
X63504Y-38622
X63504Y-43425
X63504Y-48228
X63504Y-53031
X63504Y-57835
T2
X29331Y-22539
X29331Y-23539
X29331Y-24539
X29331Y-25539
X29331Y-27343
X29331Y-28343
X29331Y-29343
X29331Y-30343
X29331Y-32146
X29331Y-33146
X29331Y-34146
X29331Y-35146
X29331Y-36949
X29331Y-37949
X29331Y-38949
X29331Y-39949
X29331Y-41752
X29331Y-42752
X29331Y-43752
X29331Y-44752
X29331Y-46555
X29331Y-47555
X29331Y-48555
X29331Y-49555
X29331Y-51358
X29331Y-52358
X29331Y-53358
X29331Y-54358
X29331Y-56161
X29331Y-57161
X29331Y-58161
X29331Y-59161
X30331Y-22539
X30331Y-23539
X30331Y-24539
X30331Y-25539
X30331Y-27343
X30331Y-28343
X30331Y-29343
X30331Y-30343
X30331Y-32146
X30331Y-33146
X30331Y-34146
X30331Y-35146
X30331Y-36949
X30331Y-37949
X30331Y-38949
X30331Y-39949
X30331Y-41752
X30331Y-42752
X30331Y-43752
X30331Y-44752
X30331Y-46555
X30331Y-47555
X30331Y-48555
X30331Y-49555
X30331Y-51358
X30331Y-52358
X30331Y-53358
X30331Y-54358
X30331Y-56161
X30331Y-57161
X30331Y-58161
X30331Y-59161
X38780Y-22539
X38780Y-23539
X38780Y-24539
X38780Y-25539
X38780Y-27343
X38780Y-28343
X38780Y-29343
X38780Y-30343
X38780Y-32146
X38780Y-33146
X38780Y-34146
X38780Y-35146
X38780Y-36949
X38780Y-37949
X38780Y-38949
X38780Y-39949
X38780Y-41752
X38780Y-42752
X38780Y-43752
X38780Y-44752
X38780Y-46555
X38780Y-47555
X38780Y-48555
X38780Y-49555
X38780Y-51358
X38780Y-52358
X38780Y-53358
X38780Y-54358
X38780Y-56161
X38780Y-57161
X38780Y-58161
X38780Y-59161
X39780Y-22539
X39780Y-23539
X39780Y-24539
X39780Y-25539
X39780Y-27343
X39780Y-28343
X39780Y-29343
X39780Y-30343
X39780Y-32146
X39780Y-33146
X39780Y-34146
X39780Y-35146
X39780Y-36949
X39780Y-37949
X39780Y-38949
X39780Y-39949
X39780Y-41752
X39780Y-42752
X39780Y-43752
X39780Y-44752
X39780Y-46555
X39780Y-47555
X39780Y-48555
X39780Y-49555
X39780Y-51358
X39780Y-52358
X39780Y-53358
X39780Y-54358
X39780Y-56161
X39780Y-57161
X39780Y-58161
X39780Y-59161
X48228Y-22539
X48228Y-23539
X48228Y-24539
X48228Y-25539
X48228Y-27343
X48228Y-28343
X48228Y-29343
X48228Y-30343
X48228Y-32146
X48228Y-33146
X48228Y-34146
X48228Y-35146
X48228Y-36949
X48228Y-37949
X48228Y-38949
X48228Y-39949
X48228Y-41752
X48228Y-42752
X48228Y-43752
X48228Y-44752
X48228Y-46555
X48228Y-47555
X48228Y-48555
X48228Y-49555
X48228Y-51358
X48228Y-52358
X48228Y-53358
X48228Y-54358
X48228Y-56161
X48228Y-57161
X48228Y-58161
X48228Y-59161
X49228Y-22539
X49228Y-23539
X49228Y-24539
X49228Y-25539
X49228Y-27343
X49228Y-28343
X49228Y-29343
X49228Y-30343
X49228Y-32146
X49228Y-33146
X49228Y-34146
X49228Y-35146
X49228Y-36949
X49228Y-37949
X49228Y-38949
X49228Y-39949
X49228Y-41752
X49228Y-42752
X49228Y-43752
X49228Y-44752
X49228Y-46555
X49228Y-47555
X49228Y-48555
X49228Y-49555
X49228Y-51358
X49228Y-52358
X49228Y-53358
X49228Y-54358
X49228Y-56161
X49228Y-57161
X49228Y-58161
X49228Y-59161
X57677Y-22539
X57677Y-23539
X57677Y-24539
X57677Y-25539
X57677Y-27323
X57677Y-28323
X57677Y-29323
X57677Y-30323
X57677Y-32146
X57677Y-33146
X57677Y-34146
X57677Y-35146
X57677Y-36949
X57677Y-37949
X57677Y-38949
X57677Y-39949
X57677Y-41752
X57677Y-42752
X57677Y-43752
X57677Y-44752
X57677Y-46555
X57677Y-47555
X57677Y-48555
X57677Y-49555
X57677Y-51358
X57677Y-52358
X57677Y-53358
X57677Y-54358
X57677Y-56161
X57677Y-57161
X57677Y-58161
X57677Y-59161
X58677Y-22539
X58677Y-23539
X58677Y-24539
X58677Y-25539
X58677Y-27323
X58677Y-28323
X58677Y-29323
X58677Y-30323
X58677Y-32146
X58677Y-33146
X58677Y-34146
X58677Y-35146
X58677Y-36949
X58677Y-37949
X58677Y-38949
X58677Y-39949
X58677Y-41752
X58677Y-42752
X58677Y-43752
X58677Y-44752
X58677Y-46555
X58677Y-47555
X58677Y-48555
X58677Y-49555
X58677Y-51358
X58677Y-52358
X58677Y-53358
X58677Y-54358
X58677Y-56161
X58677Y-57161
X58677Y-58161
X58677Y-59161
T0
M30
