G04 #@! TF.FileFunction,Soldermask,Top*
%FSLAX46Y46*%
G04 Gerber Fmt 4.6, Leading zero omitted, Abs format (unit mm)*
G04 Created by KiCad (PCBNEW 4.0.2+e4-6225~38~ubuntu14.04.1-stable) date Fri 01 Jul 2016 09:40:48 PM CDT*
%MOMM*%
G01*
G04 APERTURE LIST*
%ADD10C,0.100000*%
%ADD11R,1.200000X2.000000*%
%ADD12R,1.700000X1.450000*%
%ADD13R,0.700000X1.100000*%
%ADD14R,1.100000X0.700000*%
%ADD15R,1.900000X1.900000*%
%ADD16R,0.800000X1.000000*%
%ADD17R,1.000000X0.800000*%
%ADD18R,0.900000X1.000000*%
%ADD19R,1.000000X0.900000*%
%ADD20R,1.900000X1.650000*%
%ADD21R,2.127200X2.127200*%
%ADD22O,2.127200X2.127200*%
G04 APERTURE END LIST*
D10*
D11*
X95700000Y-108800000D03*
X92300000Y-108800000D03*
D12*
X84750000Y-112675000D03*
X84750000Y-114525000D03*
X82450000Y-114525000D03*
X82450000Y-112675000D03*
D13*
X84300000Y-107300000D03*
X83800000Y-107300000D03*
X83300000Y-107300000D03*
X82800000Y-107300000D03*
X82300000Y-107300000D03*
D14*
X85200000Y-108200000D03*
X85200000Y-108700000D03*
X85200000Y-109200000D03*
X85200000Y-109700000D03*
X85200000Y-110200000D03*
D13*
X82300000Y-111100000D03*
X82800000Y-111100000D03*
X83300000Y-111100000D03*
X83800000Y-111100000D03*
X84300000Y-111100000D03*
D14*
X81400000Y-110200000D03*
X81400000Y-109700000D03*
X81400000Y-109200000D03*
X81400000Y-108700000D03*
X81400000Y-108200000D03*
D15*
X83300000Y-109200000D03*
D16*
X87000000Y-106600000D03*
X86100000Y-106600000D03*
D17*
X87950000Y-110000000D03*
X87950000Y-110900000D03*
D16*
X87800000Y-108800000D03*
X88700000Y-108800000D03*
D17*
X86600000Y-109000000D03*
X86600000Y-109900000D03*
D18*
X90950000Y-111150000D03*
X90950000Y-110050000D03*
D19*
X90950000Y-108800000D03*
X89850000Y-108800000D03*
D18*
X89200000Y-112050000D03*
X89200000Y-113150000D03*
X87950000Y-112050000D03*
X87950000Y-113150000D03*
D19*
X82550000Y-104650000D03*
X81450000Y-104650000D03*
D18*
X80200000Y-105050000D03*
X80200000Y-106150000D03*
X86400000Y-112950000D03*
X86400000Y-114050000D03*
X80800000Y-114550000D03*
X80800000Y-113450000D03*
D19*
X82550000Y-105900000D03*
X81450000Y-105900000D03*
D20*
X84450000Y-105050000D03*
X86950000Y-105050000D03*
X108450000Y-105050000D03*
X110950000Y-105050000D03*
D19*
X106550000Y-105900000D03*
X105450000Y-105900000D03*
D18*
X104800000Y-114550000D03*
X104800000Y-113450000D03*
X110400000Y-112950000D03*
X110400000Y-114050000D03*
X104200000Y-105050000D03*
X104200000Y-106150000D03*
D19*
X106550000Y-104650000D03*
X105450000Y-104650000D03*
D18*
X111950000Y-112050000D03*
X111950000Y-113150000D03*
X113200000Y-112050000D03*
X113200000Y-113150000D03*
D19*
X114950000Y-108800000D03*
X113850000Y-108800000D03*
D18*
X114950000Y-111150000D03*
X114950000Y-110050000D03*
D17*
X110600000Y-109000000D03*
X110600000Y-109900000D03*
D16*
X111800000Y-108800000D03*
X112700000Y-108800000D03*
D17*
X111950000Y-110000000D03*
X111950000Y-110900000D03*
D16*
X111000000Y-106600000D03*
X110100000Y-106600000D03*
D13*
X108300000Y-107300000D03*
X107800000Y-107300000D03*
X107300000Y-107300000D03*
X106800000Y-107300000D03*
X106300000Y-107300000D03*
D14*
X109200000Y-108200000D03*
X109200000Y-108700000D03*
X109200000Y-109200000D03*
X109200000Y-109700000D03*
X109200000Y-110200000D03*
D13*
X106300000Y-111100000D03*
X106800000Y-111100000D03*
X107300000Y-111100000D03*
X107800000Y-111100000D03*
X108300000Y-111100000D03*
D14*
X105400000Y-110200000D03*
X105400000Y-109700000D03*
X105400000Y-109200000D03*
X105400000Y-108700000D03*
X105400000Y-108200000D03*
D15*
X107300000Y-109200000D03*
D12*
X108750000Y-112675000D03*
X108750000Y-114525000D03*
X106450000Y-114525000D03*
X106450000Y-112675000D03*
D11*
X119700000Y-108800000D03*
X116300000Y-108800000D03*
X143700000Y-108800000D03*
X140300000Y-108800000D03*
D12*
X132750000Y-112675000D03*
X132750000Y-114525000D03*
X130450000Y-114525000D03*
X130450000Y-112675000D03*
D13*
X132300000Y-107300000D03*
X131800000Y-107300000D03*
X131300000Y-107300000D03*
X130800000Y-107300000D03*
X130300000Y-107300000D03*
D14*
X133200000Y-108200000D03*
X133200000Y-108700000D03*
X133200000Y-109200000D03*
X133200000Y-109700000D03*
X133200000Y-110200000D03*
D13*
X130300000Y-111100000D03*
X130800000Y-111100000D03*
X131300000Y-111100000D03*
X131800000Y-111100000D03*
X132300000Y-111100000D03*
D14*
X129400000Y-110200000D03*
X129400000Y-109700000D03*
X129400000Y-109200000D03*
X129400000Y-108700000D03*
X129400000Y-108200000D03*
D15*
X131300000Y-109200000D03*
D16*
X135000000Y-106600000D03*
X134100000Y-106600000D03*
D17*
X135950000Y-110000000D03*
X135950000Y-110900000D03*
D16*
X135800000Y-108800000D03*
X136700000Y-108800000D03*
D17*
X134600000Y-109000000D03*
X134600000Y-109900000D03*
D18*
X138950000Y-111150000D03*
X138950000Y-110050000D03*
D19*
X138950000Y-108800000D03*
X137850000Y-108800000D03*
D18*
X137200000Y-112050000D03*
X137200000Y-113150000D03*
X135950000Y-112050000D03*
X135950000Y-113150000D03*
D19*
X130550000Y-104650000D03*
X129450000Y-104650000D03*
D18*
X128200000Y-105050000D03*
X128200000Y-106150000D03*
X134400000Y-112950000D03*
X134400000Y-114050000D03*
X128800000Y-114550000D03*
X128800000Y-113450000D03*
D19*
X130550000Y-105900000D03*
X129450000Y-105900000D03*
D20*
X132450000Y-105050000D03*
X134950000Y-105050000D03*
X156450000Y-105050000D03*
X158950000Y-105050000D03*
D19*
X154550000Y-105900000D03*
X153450000Y-105900000D03*
D18*
X152800000Y-114550000D03*
X152800000Y-113450000D03*
X158400000Y-112950000D03*
X158400000Y-114050000D03*
X152200000Y-105050000D03*
X152200000Y-106150000D03*
D19*
X154550000Y-104650000D03*
X153450000Y-104650000D03*
D18*
X159950000Y-112050000D03*
X159950000Y-113150000D03*
X161200000Y-112050000D03*
X161200000Y-113150000D03*
D19*
X162950000Y-108800000D03*
X161850000Y-108800000D03*
D18*
X162950000Y-111150000D03*
X162950000Y-110050000D03*
D17*
X158600000Y-109000000D03*
X158600000Y-109900000D03*
D16*
X159800000Y-108800000D03*
X160700000Y-108800000D03*
D17*
X159950000Y-110000000D03*
X159950000Y-110900000D03*
D16*
X159000000Y-106600000D03*
X158100000Y-106600000D03*
D13*
X156300000Y-107300000D03*
X155800000Y-107300000D03*
X155300000Y-107300000D03*
X154800000Y-107300000D03*
X154300000Y-107300000D03*
D14*
X157200000Y-108200000D03*
X157200000Y-108700000D03*
X157200000Y-109200000D03*
X157200000Y-109700000D03*
X157200000Y-110200000D03*
D13*
X154300000Y-111100000D03*
X154800000Y-111100000D03*
X155300000Y-111100000D03*
X155800000Y-111100000D03*
X156300000Y-111100000D03*
D14*
X153400000Y-110200000D03*
X153400000Y-109700000D03*
X153400000Y-109200000D03*
X153400000Y-108700000D03*
X153400000Y-108200000D03*
D15*
X155300000Y-109200000D03*
D12*
X156750000Y-112675000D03*
X156750000Y-114525000D03*
X154450000Y-114525000D03*
X154450000Y-112675000D03*
D11*
X167700000Y-108800000D03*
X164300000Y-108800000D03*
X167700000Y-121000000D03*
X164300000Y-121000000D03*
D12*
X156750000Y-124875000D03*
X156750000Y-126725000D03*
X154450000Y-126725000D03*
X154450000Y-124875000D03*
D13*
X156300000Y-119500000D03*
X155800000Y-119500000D03*
X155300000Y-119500000D03*
X154800000Y-119500000D03*
X154300000Y-119500000D03*
D14*
X157200000Y-120400000D03*
X157200000Y-120900000D03*
X157200000Y-121400000D03*
X157200000Y-121900000D03*
X157200000Y-122400000D03*
D13*
X154300000Y-123300000D03*
X154800000Y-123300000D03*
X155300000Y-123300000D03*
X155800000Y-123300000D03*
X156300000Y-123300000D03*
D14*
X153400000Y-122400000D03*
X153400000Y-121900000D03*
X153400000Y-121400000D03*
X153400000Y-120900000D03*
X153400000Y-120400000D03*
D15*
X155300000Y-121400000D03*
D16*
X159000000Y-118800000D03*
X158100000Y-118800000D03*
D17*
X159950000Y-122200000D03*
X159950000Y-123100000D03*
D16*
X159800000Y-121000000D03*
X160700000Y-121000000D03*
D17*
X158600000Y-121200000D03*
X158600000Y-122100000D03*
D18*
X162950000Y-123350000D03*
X162950000Y-122250000D03*
D19*
X162950000Y-121000000D03*
X161850000Y-121000000D03*
D18*
X161200000Y-124250000D03*
X161200000Y-125350000D03*
X159950000Y-124250000D03*
X159950000Y-125350000D03*
D19*
X154550000Y-116850000D03*
X153450000Y-116850000D03*
D18*
X152200000Y-117250000D03*
X152200000Y-118350000D03*
X158400000Y-125150000D03*
X158400000Y-126250000D03*
X152800000Y-126750000D03*
X152800000Y-125650000D03*
D19*
X154550000Y-118100000D03*
X153450000Y-118100000D03*
D20*
X156450000Y-117250000D03*
X158950000Y-117250000D03*
X132450000Y-117250000D03*
X134950000Y-117250000D03*
D19*
X130550000Y-118100000D03*
X129450000Y-118100000D03*
D18*
X128800000Y-126750000D03*
X128800000Y-125650000D03*
X134400000Y-125150000D03*
X134400000Y-126250000D03*
X128200000Y-117250000D03*
X128200000Y-118350000D03*
D19*
X130550000Y-116850000D03*
X129450000Y-116850000D03*
D18*
X135950000Y-124250000D03*
X135950000Y-125350000D03*
X137200000Y-124250000D03*
X137200000Y-125350000D03*
D19*
X138950000Y-121000000D03*
X137850000Y-121000000D03*
D18*
X138950000Y-123350000D03*
X138950000Y-122250000D03*
D17*
X134600000Y-121200000D03*
X134600000Y-122100000D03*
D16*
X135800000Y-121000000D03*
X136700000Y-121000000D03*
D17*
X135950000Y-122200000D03*
X135950000Y-123100000D03*
D16*
X135000000Y-118800000D03*
X134100000Y-118800000D03*
D13*
X132300000Y-119500000D03*
X131800000Y-119500000D03*
X131300000Y-119500000D03*
X130800000Y-119500000D03*
X130300000Y-119500000D03*
D14*
X133200000Y-120400000D03*
X133200000Y-120900000D03*
X133200000Y-121400000D03*
X133200000Y-121900000D03*
X133200000Y-122400000D03*
D13*
X130300000Y-123300000D03*
X130800000Y-123300000D03*
X131300000Y-123300000D03*
X131800000Y-123300000D03*
X132300000Y-123300000D03*
D14*
X129400000Y-122400000D03*
X129400000Y-121900000D03*
X129400000Y-121400000D03*
X129400000Y-120900000D03*
X129400000Y-120400000D03*
D15*
X131300000Y-121400000D03*
D12*
X132750000Y-124875000D03*
X132750000Y-126725000D03*
X130450000Y-126725000D03*
X130450000Y-124875000D03*
D11*
X143700000Y-121000000D03*
X140300000Y-121000000D03*
X119700000Y-121000000D03*
X116300000Y-121000000D03*
D12*
X108750000Y-124875000D03*
X108750000Y-126725000D03*
X106450000Y-126725000D03*
X106450000Y-124875000D03*
D13*
X108300000Y-119500000D03*
X107800000Y-119500000D03*
X107300000Y-119500000D03*
X106800000Y-119500000D03*
X106300000Y-119500000D03*
D14*
X109200000Y-120400000D03*
X109200000Y-120900000D03*
X109200000Y-121400000D03*
X109200000Y-121900000D03*
X109200000Y-122400000D03*
D13*
X106300000Y-123300000D03*
X106800000Y-123300000D03*
X107300000Y-123300000D03*
X107800000Y-123300000D03*
X108300000Y-123300000D03*
D14*
X105400000Y-122400000D03*
X105400000Y-121900000D03*
X105400000Y-121400000D03*
X105400000Y-120900000D03*
X105400000Y-120400000D03*
D15*
X107300000Y-121400000D03*
D16*
X111000000Y-118800000D03*
X110100000Y-118800000D03*
D17*
X111950000Y-122200000D03*
X111950000Y-123100000D03*
D16*
X111800000Y-121000000D03*
X112700000Y-121000000D03*
D17*
X110600000Y-121200000D03*
X110600000Y-122100000D03*
D18*
X114950000Y-123350000D03*
X114950000Y-122250000D03*
D19*
X114950000Y-121000000D03*
X113850000Y-121000000D03*
D18*
X113200000Y-124250000D03*
X113200000Y-125350000D03*
X111950000Y-124250000D03*
X111950000Y-125350000D03*
D19*
X106550000Y-116850000D03*
X105450000Y-116850000D03*
D18*
X104200000Y-117250000D03*
X104200000Y-118350000D03*
X110400000Y-125150000D03*
X110400000Y-126250000D03*
X104800000Y-126750000D03*
X104800000Y-125650000D03*
D19*
X106550000Y-118100000D03*
X105450000Y-118100000D03*
D20*
X108450000Y-117250000D03*
X110950000Y-117250000D03*
X84450000Y-117250000D03*
X86950000Y-117250000D03*
D19*
X82550000Y-118100000D03*
X81450000Y-118100000D03*
D18*
X80800000Y-126750000D03*
X80800000Y-125650000D03*
X86400000Y-125150000D03*
X86400000Y-126250000D03*
X80200000Y-117250000D03*
X80200000Y-118350000D03*
D19*
X82550000Y-116850000D03*
X81450000Y-116850000D03*
D18*
X87950000Y-124250000D03*
X87950000Y-125350000D03*
X89200000Y-124250000D03*
X89200000Y-125350000D03*
D19*
X90950000Y-121000000D03*
X89850000Y-121000000D03*
D18*
X90950000Y-123350000D03*
X90950000Y-122250000D03*
D17*
X86600000Y-121200000D03*
X86600000Y-122100000D03*
D16*
X87800000Y-121000000D03*
X88700000Y-121000000D03*
D17*
X87950000Y-122200000D03*
X87950000Y-123100000D03*
D16*
X87000000Y-118800000D03*
X86100000Y-118800000D03*
D13*
X84300000Y-119500000D03*
X83800000Y-119500000D03*
X83300000Y-119500000D03*
X82800000Y-119500000D03*
X82300000Y-119500000D03*
D14*
X85200000Y-120400000D03*
X85200000Y-120900000D03*
X85200000Y-121400000D03*
X85200000Y-121900000D03*
X85200000Y-122400000D03*
D13*
X82300000Y-123300000D03*
X82800000Y-123300000D03*
X83300000Y-123300000D03*
X83800000Y-123300000D03*
X84300000Y-123300000D03*
D14*
X81400000Y-122400000D03*
X81400000Y-121900000D03*
X81400000Y-121400000D03*
X81400000Y-120900000D03*
X81400000Y-120400000D03*
D15*
X83300000Y-121400000D03*
D12*
X84750000Y-124875000D03*
X84750000Y-126725000D03*
X82450000Y-126725000D03*
X82450000Y-124875000D03*
D11*
X95700000Y-121000000D03*
X92300000Y-121000000D03*
X95700000Y-145400000D03*
X92300000Y-145400000D03*
D12*
X84750000Y-149275000D03*
X84750000Y-151125000D03*
X82450000Y-151125000D03*
X82450000Y-149275000D03*
D13*
X84300000Y-143900000D03*
X83800000Y-143900000D03*
X83300000Y-143900000D03*
X82800000Y-143900000D03*
X82300000Y-143900000D03*
D14*
X85200000Y-144800000D03*
X85200000Y-145300000D03*
X85200000Y-145800000D03*
X85200000Y-146300000D03*
X85200000Y-146800000D03*
D13*
X82300000Y-147700000D03*
X82800000Y-147700000D03*
X83300000Y-147700000D03*
X83800000Y-147700000D03*
X84300000Y-147700000D03*
D14*
X81400000Y-146800000D03*
X81400000Y-146300000D03*
X81400000Y-145800000D03*
X81400000Y-145300000D03*
X81400000Y-144800000D03*
D15*
X83300000Y-145800000D03*
D16*
X87000000Y-143200000D03*
X86100000Y-143200000D03*
D17*
X87950000Y-146600000D03*
X87950000Y-147500000D03*
D16*
X87800000Y-145400000D03*
X88700000Y-145400000D03*
D17*
X86600000Y-145600000D03*
X86600000Y-146500000D03*
D18*
X90950000Y-147750000D03*
X90950000Y-146650000D03*
D19*
X90950000Y-145400000D03*
X89850000Y-145400000D03*
D18*
X89200000Y-148650000D03*
X89200000Y-149750000D03*
X87950000Y-148650000D03*
X87950000Y-149750000D03*
D19*
X82550000Y-141250000D03*
X81450000Y-141250000D03*
D18*
X80200000Y-141650000D03*
X80200000Y-142750000D03*
X86400000Y-149550000D03*
X86400000Y-150650000D03*
X80800000Y-151150000D03*
X80800000Y-150050000D03*
D19*
X82550000Y-142500000D03*
X81450000Y-142500000D03*
D20*
X84450000Y-141650000D03*
X86950000Y-141650000D03*
X108450000Y-141650000D03*
X110950000Y-141650000D03*
D19*
X106550000Y-142500000D03*
X105450000Y-142500000D03*
D18*
X104800000Y-151150000D03*
X104800000Y-150050000D03*
X110400000Y-149550000D03*
X110400000Y-150650000D03*
X104200000Y-141650000D03*
X104200000Y-142750000D03*
D19*
X106550000Y-141250000D03*
X105450000Y-141250000D03*
D18*
X111950000Y-148650000D03*
X111950000Y-149750000D03*
X113200000Y-148650000D03*
X113200000Y-149750000D03*
D19*
X114950000Y-145400000D03*
X113850000Y-145400000D03*
D18*
X114950000Y-147750000D03*
X114950000Y-146650000D03*
D17*
X110600000Y-145600000D03*
X110600000Y-146500000D03*
D16*
X111800000Y-145400000D03*
X112700000Y-145400000D03*
D17*
X111950000Y-146600000D03*
X111950000Y-147500000D03*
D16*
X111000000Y-143200000D03*
X110100000Y-143200000D03*
D13*
X108300000Y-143900000D03*
X107800000Y-143900000D03*
X107300000Y-143900000D03*
X106800000Y-143900000D03*
X106300000Y-143900000D03*
D14*
X109200000Y-144800000D03*
X109200000Y-145300000D03*
X109200000Y-145800000D03*
X109200000Y-146300000D03*
X109200000Y-146800000D03*
D13*
X106300000Y-147700000D03*
X106800000Y-147700000D03*
X107300000Y-147700000D03*
X107800000Y-147700000D03*
X108300000Y-147700000D03*
D14*
X105400000Y-146800000D03*
X105400000Y-146300000D03*
X105400000Y-145800000D03*
X105400000Y-145300000D03*
X105400000Y-144800000D03*
D15*
X107300000Y-145800000D03*
D12*
X108750000Y-149275000D03*
X108750000Y-151125000D03*
X106450000Y-151125000D03*
X106450000Y-149275000D03*
D11*
X119700000Y-145400000D03*
X116300000Y-145400000D03*
X143700000Y-145400000D03*
X140300000Y-145400000D03*
D12*
X132750000Y-149275000D03*
X132750000Y-151125000D03*
X130450000Y-151125000D03*
X130450000Y-149275000D03*
D13*
X132300000Y-143900000D03*
X131800000Y-143900000D03*
X131300000Y-143900000D03*
X130800000Y-143900000D03*
X130300000Y-143900000D03*
D14*
X133200000Y-144800000D03*
X133200000Y-145300000D03*
X133200000Y-145800000D03*
X133200000Y-146300000D03*
X133200000Y-146800000D03*
D13*
X130300000Y-147700000D03*
X130800000Y-147700000D03*
X131300000Y-147700000D03*
X131800000Y-147700000D03*
X132300000Y-147700000D03*
D14*
X129400000Y-146800000D03*
X129400000Y-146300000D03*
X129400000Y-145800000D03*
X129400000Y-145300000D03*
X129400000Y-144800000D03*
D15*
X131300000Y-145800000D03*
D16*
X135000000Y-143200000D03*
X134100000Y-143200000D03*
D17*
X135950000Y-146600000D03*
X135950000Y-147500000D03*
D16*
X135800000Y-145400000D03*
X136700000Y-145400000D03*
D17*
X134600000Y-145600000D03*
X134600000Y-146500000D03*
D18*
X138950000Y-147750000D03*
X138950000Y-146650000D03*
D19*
X138950000Y-145400000D03*
X137850000Y-145400000D03*
D18*
X137200000Y-148650000D03*
X137200000Y-149750000D03*
X135950000Y-148650000D03*
X135950000Y-149750000D03*
D19*
X130550000Y-141250000D03*
X129450000Y-141250000D03*
D18*
X128200000Y-141650000D03*
X128200000Y-142750000D03*
X134400000Y-149550000D03*
X134400000Y-150650000D03*
X128800000Y-151150000D03*
X128800000Y-150050000D03*
D19*
X130550000Y-142500000D03*
X129450000Y-142500000D03*
D20*
X132450000Y-141650000D03*
X134950000Y-141650000D03*
X156450000Y-141650000D03*
X158950000Y-141650000D03*
D19*
X154550000Y-142500000D03*
X153450000Y-142500000D03*
D18*
X152800000Y-151150000D03*
X152800000Y-150050000D03*
X158400000Y-149550000D03*
X158400000Y-150650000D03*
X152200000Y-141650000D03*
X152200000Y-142750000D03*
D19*
X154550000Y-141250000D03*
X153450000Y-141250000D03*
D18*
X159950000Y-148650000D03*
X159950000Y-149750000D03*
X161200000Y-148650000D03*
X161200000Y-149750000D03*
D19*
X162950000Y-145400000D03*
X161850000Y-145400000D03*
D18*
X162950000Y-147750000D03*
X162950000Y-146650000D03*
D17*
X158600000Y-145600000D03*
X158600000Y-146500000D03*
D16*
X159800000Y-145400000D03*
X160700000Y-145400000D03*
D17*
X159950000Y-146600000D03*
X159950000Y-147500000D03*
D16*
X159000000Y-143200000D03*
X158100000Y-143200000D03*
D13*
X156300000Y-143900000D03*
X155800000Y-143900000D03*
X155300000Y-143900000D03*
X154800000Y-143900000D03*
X154300000Y-143900000D03*
D14*
X157200000Y-144800000D03*
X157200000Y-145300000D03*
X157200000Y-145800000D03*
X157200000Y-146300000D03*
X157200000Y-146800000D03*
D13*
X154300000Y-147700000D03*
X154800000Y-147700000D03*
X155300000Y-147700000D03*
X155800000Y-147700000D03*
X156300000Y-147700000D03*
D14*
X153400000Y-146800000D03*
X153400000Y-146300000D03*
X153400000Y-145800000D03*
X153400000Y-145300000D03*
X153400000Y-144800000D03*
D15*
X155300000Y-145800000D03*
D12*
X156750000Y-149275000D03*
X156750000Y-151125000D03*
X154450000Y-151125000D03*
X154450000Y-149275000D03*
D11*
X167700000Y-145400000D03*
X164300000Y-145400000D03*
X167700000Y-133200000D03*
X164300000Y-133200000D03*
D12*
X156750000Y-137075000D03*
X156750000Y-138925000D03*
X154450000Y-138925000D03*
X154450000Y-137075000D03*
D13*
X156300000Y-131700000D03*
X155800000Y-131700000D03*
X155300000Y-131700000D03*
X154800000Y-131700000D03*
X154300000Y-131700000D03*
D14*
X157200000Y-132600000D03*
X157200000Y-133100000D03*
X157200000Y-133600000D03*
X157200000Y-134100000D03*
X157200000Y-134600000D03*
D13*
X154300000Y-135500000D03*
X154800000Y-135500000D03*
X155300000Y-135500000D03*
X155800000Y-135500000D03*
X156300000Y-135500000D03*
D14*
X153400000Y-134600000D03*
X153400000Y-134100000D03*
X153400000Y-133600000D03*
X153400000Y-133100000D03*
X153400000Y-132600000D03*
D15*
X155300000Y-133600000D03*
D16*
X159000000Y-131000000D03*
X158100000Y-131000000D03*
D17*
X159950000Y-134400000D03*
X159950000Y-135300000D03*
D16*
X159800000Y-133200000D03*
X160700000Y-133200000D03*
D17*
X158600000Y-133400000D03*
X158600000Y-134300000D03*
D18*
X162950000Y-135550000D03*
X162950000Y-134450000D03*
D19*
X162950000Y-133200000D03*
X161850000Y-133200000D03*
D18*
X161200000Y-136450000D03*
X161200000Y-137550000D03*
X159950000Y-136450000D03*
X159950000Y-137550000D03*
D19*
X154550000Y-129050000D03*
X153450000Y-129050000D03*
D18*
X152200000Y-129450000D03*
X152200000Y-130550000D03*
X158400000Y-137350000D03*
X158400000Y-138450000D03*
X152800000Y-138950000D03*
X152800000Y-137850000D03*
D19*
X154550000Y-130300000D03*
X153450000Y-130300000D03*
D20*
X156450000Y-129450000D03*
X158950000Y-129450000D03*
X132450000Y-129450000D03*
X134950000Y-129450000D03*
D19*
X130550000Y-130300000D03*
X129450000Y-130300000D03*
D18*
X128800000Y-138950000D03*
X128800000Y-137850000D03*
X134400000Y-137350000D03*
X134400000Y-138450000D03*
X128200000Y-129450000D03*
X128200000Y-130550000D03*
D19*
X130550000Y-129050000D03*
X129450000Y-129050000D03*
D18*
X135950000Y-136450000D03*
X135950000Y-137550000D03*
X137200000Y-136450000D03*
X137200000Y-137550000D03*
D19*
X138950000Y-133200000D03*
X137850000Y-133200000D03*
D18*
X138950000Y-135550000D03*
X138950000Y-134450000D03*
D17*
X134600000Y-133400000D03*
X134600000Y-134300000D03*
D16*
X135800000Y-133200000D03*
X136700000Y-133200000D03*
D17*
X135950000Y-134400000D03*
X135950000Y-135300000D03*
D16*
X135000000Y-131000000D03*
X134100000Y-131000000D03*
D13*
X132300000Y-131700000D03*
X131800000Y-131700000D03*
X131300000Y-131700000D03*
X130800000Y-131700000D03*
X130300000Y-131700000D03*
D14*
X133200000Y-132600000D03*
X133200000Y-133100000D03*
X133200000Y-133600000D03*
X133200000Y-134100000D03*
X133200000Y-134600000D03*
D13*
X130300000Y-135500000D03*
X130800000Y-135500000D03*
X131300000Y-135500000D03*
X131800000Y-135500000D03*
X132300000Y-135500000D03*
D14*
X129400000Y-134600000D03*
X129400000Y-134100000D03*
X129400000Y-133600000D03*
X129400000Y-133100000D03*
X129400000Y-132600000D03*
D15*
X131300000Y-133600000D03*
D12*
X132750000Y-137075000D03*
X132750000Y-138925000D03*
X130450000Y-138925000D03*
X130450000Y-137075000D03*
D11*
X143700000Y-133200000D03*
X140300000Y-133200000D03*
X119700000Y-133200000D03*
X116300000Y-133200000D03*
D12*
X108750000Y-137075000D03*
X108750000Y-138925000D03*
X106450000Y-138925000D03*
X106450000Y-137075000D03*
D13*
X108300000Y-131700000D03*
X107800000Y-131700000D03*
X107300000Y-131700000D03*
X106800000Y-131700000D03*
X106300000Y-131700000D03*
D14*
X109200000Y-132600000D03*
X109200000Y-133100000D03*
X109200000Y-133600000D03*
X109200000Y-134100000D03*
X109200000Y-134600000D03*
D13*
X106300000Y-135500000D03*
X106800000Y-135500000D03*
X107300000Y-135500000D03*
X107800000Y-135500000D03*
X108300000Y-135500000D03*
D14*
X105400000Y-134600000D03*
X105400000Y-134100000D03*
X105400000Y-133600000D03*
X105400000Y-133100000D03*
X105400000Y-132600000D03*
D15*
X107300000Y-133600000D03*
D16*
X111000000Y-131000000D03*
X110100000Y-131000000D03*
D17*
X111950000Y-134400000D03*
X111950000Y-135300000D03*
D16*
X111800000Y-133200000D03*
X112700000Y-133200000D03*
D17*
X110600000Y-133400000D03*
X110600000Y-134300000D03*
D18*
X114950000Y-135550000D03*
X114950000Y-134450000D03*
D19*
X114950000Y-133200000D03*
X113850000Y-133200000D03*
D18*
X113200000Y-136450000D03*
X113200000Y-137550000D03*
X111950000Y-136450000D03*
X111950000Y-137550000D03*
D19*
X106550000Y-129050000D03*
X105450000Y-129050000D03*
D18*
X104200000Y-129450000D03*
X104200000Y-130550000D03*
X110400000Y-137350000D03*
X110400000Y-138450000D03*
X104800000Y-138950000D03*
X104800000Y-137850000D03*
D19*
X106550000Y-130300000D03*
X105450000Y-130300000D03*
D20*
X108450000Y-129450000D03*
X110950000Y-129450000D03*
X84450000Y-129450000D03*
X86950000Y-129450000D03*
D19*
X82550000Y-130300000D03*
X81450000Y-130300000D03*
D18*
X80800000Y-138950000D03*
X80800000Y-137850000D03*
X86400000Y-137350000D03*
X86400000Y-138450000D03*
X80200000Y-129450000D03*
X80200000Y-130550000D03*
D19*
X82550000Y-129050000D03*
X81450000Y-129050000D03*
D18*
X87950000Y-136450000D03*
X87950000Y-137550000D03*
X89200000Y-136450000D03*
X89200000Y-137550000D03*
D19*
X90950000Y-133200000D03*
X89850000Y-133200000D03*
D18*
X90950000Y-135550000D03*
X90950000Y-134450000D03*
D17*
X86600000Y-133400000D03*
X86600000Y-134300000D03*
D16*
X87800000Y-133200000D03*
X88700000Y-133200000D03*
D17*
X87950000Y-134400000D03*
X87950000Y-135300000D03*
D16*
X87000000Y-131000000D03*
X86100000Y-131000000D03*
D13*
X84300000Y-131700000D03*
X83800000Y-131700000D03*
X83300000Y-131700000D03*
X82800000Y-131700000D03*
X82300000Y-131700000D03*
D14*
X85200000Y-132600000D03*
X85200000Y-133100000D03*
X85200000Y-133600000D03*
X85200000Y-134100000D03*
X85200000Y-134600000D03*
D13*
X82300000Y-135500000D03*
X82800000Y-135500000D03*
X83300000Y-135500000D03*
X83800000Y-135500000D03*
X84300000Y-135500000D03*
D14*
X81400000Y-134600000D03*
X81400000Y-134100000D03*
X81400000Y-133600000D03*
X81400000Y-133100000D03*
X81400000Y-132600000D03*
D15*
X83300000Y-133600000D03*
D12*
X84750000Y-137075000D03*
X84750000Y-138925000D03*
X82450000Y-138925000D03*
X82450000Y-137075000D03*
D11*
X95700000Y-133200000D03*
X92300000Y-133200000D03*
X95700000Y-84400000D03*
X92300000Y-84400000D03*
D12*
X84750000Y-88275000D03*
X84750000Y-90125000D03*
X82450000Y-90125000D03*
X82450000Y-88275000D03*
D13*
X84300000Y-82900000D03*
X83800000Y-82900000D03*
X83300000Y-82900000D03*
X82800000Y-82900000D03*
X82300000Y-82900000D03*
D14*
X85200000Y-83800000D03*
X85200000Y-84300000D03*
X85200000Y-84800000D03*
X85200000Y-85300000D03*
X85200000Y-85800000D03*
D13*
X82300000Y-86700000D03*
X82800000Y-86700000D03*
X83300000Y-86700000D03*
X83800000Y-86700000D03*
X84300000Y-86700000D03*
D14*
X81400000Y-85800000D03*
X81400000Y-85300000D03*
X81400000Y-84800000D03*
X81400000Y-84300000D03*
X81400000Y-83800000D03*
D15*
X83300000Y-84800000D03*
D16*
X87000000Y-82200000D03*
X86100000Y-82200000D03*
D17*
X87950000Y-85600000D03*
X87950000Y-86500000D03*
D16*
X87800000Y-84400000D03*
X88700000Y-84400000D03*
D17*
X86600000Y-84600000D03*
X86600000Y-85500000D03*
D18*
X90950000Y-86750000D03*
X90950000Y-85650000D03*
D19*
X90950000Y-84400000D03*
X89850000Y-84400000D03*
D18*
X89200000Y-87650000D03*
X89200000Y-88750000D03*
X87950000Y-87650000D03*
X87950000Y-88750000D03*
D19*
X82550000Y-80250000D03*
X81450000Y-80250000D03*
D18*
X80200000Y-80650000D03*
X80200000Y-81750000D03*
X86400000Y-88550000D03*
X86400000Y-89650000D03*
X80800000Y-90150000D03*
X80800000Y-89050000D03*
D19*
X82550000Y-81500000D03*
X81450000Y-81500000D03*
D20*
X84450000Y-80650000D03*
X86950000Y-80650000D03*
X108450000Y-80650000D03*
X110950000Y-80650000D03*
D19*
X106550000Y-81500000D03*
X105450000Y-81500000D03*
D18*
X104800000Y-90150000D03*
X104800000Y-89050000D03*
X110400000Y-88550000D03*
X110400000Y-89650000D03*
X104200000Y-80650000D03*
X104200000Y-81750000D03*
D19*
X106550000Y-80250000D03*
X105450000Y-80250000D03*
D18*
X111950000Y-87650000D03*
X111950000Y-88750000D03*
X113200000Y-87650000D03*
X113200000Y-88750000D03*
D19*
X114950000Y-84400000D03*
X113850000Y-84400000D03*
D18*
X114950000Y-86750000D03*
X114950000Y-85650000D03*
D17*
X110600000Y-84600000D03*
X110600000Y-85500000D03*
D16*
X111800000Y-84400000D03*
X112700000Y-84400000D03*
D17*
X111950000Y-85600000D03*
X111950000Y-86500000D03*
D16*
X111000000Y-82200000D03*
X110100000Y-82200000D03*
D13*
X108300000Y-82900000D03*
X107800000Y-82900000D03*
X107300000Y-82900000D03*
X106800000Y-82900000D03*
X106300000Y-82900000D03*
D14*
X109200000Y-83800000D03*
X109200000Y-84300000D03*
X109200000Y-84800000D03*
X109200000Y-85300000D03*
X109200000Y-85800000D03*
D13*
X106300000Y-86700000D03*
X106800000Y-86700000D03*
X107300000Y-86700000D03*
X107800000Y-86700000D03*
X108300000Y-86700000D03*
D14*
X105400000Y-85800000D03*
X105400000Y-85300000D03*
X105400000Y-84800000D03*
X105400000Y-84300000D03*
X105400000Y-83800000D03*
D15*
X107300000Y-84800000D03*
D12*
X108750000Y-88275000D03*
X108750000Y-90125000D03*
X106450000Y-90125000D03*
X106450000Y-88275000D03*
D11*
X119700000Y-84400000D03*
X116300000Y-84400000D03*
X143700000Y-84400000D03*
X140300000Y-84400000D03*
D12*
X132750000Y-88275000D03*
X132750000Y-90125000D03*
X130450000Y-90125000D03*
X130450000Y-88275000D03*
D13*
X132300000Y-82900000D03*
X131800000Y-82900000D03*
X131300000Y-82900000D03*
X130800000Y-82900000D03*
X130300000Y-82900000D03*
D14*
X133200000Y-83800000D03*
X133200000Y-84300000D03*
X133200000Y-84800000D03*
X133200000Y-85300000D03*
X133200000Y-85800000D03*
D13*
X130300000Y-86700000D03*
X130800000Y-86700000D03*
X131300000Y-86700000D03*
X131800000Y-86700000D03*
X132300000Y-86700000D03*
D14*
X129400000Y-85800000D03*
X129400000Y-85300000D03*
X129400000Y-84800000D03*
X129400000Y-84300000D03*
X129400000Y-83800000D03*
D15*
X131300000Y-84800000D03*
D16*
X135000000Y-82200000D03*
X134100000Y-82200000D03*
D17*
X135950000Y-85600000D03*
X135950000Y-86500000D03*
D16*
X135800000Y-84400000D03*
X136700000Y-84400000D03*
D17*
X134600000Y-84600000D03*
X134600000Y-85500000D03*
D18*
X138950000Y-86750000D03*
X138950000Y-85650000D03*
D19*
X138950000Y-84400000D03*
X137850000Y-84400000D03*
D18*
X137200000Y-87650000D03*
X137200000Y-88750000D03*
X135950000Y-87650000D03*
X135950000Y-88750000D03*
D19*
X130550000Y-80250000D03*
X129450000Y-80250000D03*
D18*
X128200000Y-80650000D03*
X128200000Y-81750000D03*
X134400000Y-88550000D03*
X134400000Y-89650000D03*
X128800000Y-90150000D03*
X128800000Y-89050000D03*
D19*
X130550000Y-81500000D03*
X129450000Y-81500000D03*
D20*
X132450000Y-80650000D03*
X134950000Y-80650000D03*
X156450000Y-80650000D03*
X158950000Y-80650000D03*
D19*
X154550000Y-81500000D03*
X153450000Y-81500000D03*
D18*
X152800000Y-90150000D03*
X152800000Y-89050000D03*
X158400000Y-88550000D03*
X158400000Y-89650000D03*
X152200000Y-80650000D03*
X152200000Y-81750000D03*
D19*
X154550000Y-80250000D03*
X153450000Y-80250000D03*
D18*
X159950000Y-87650000D03*
X159950000Y-88750000D03*
X161200000Y-87650000D03*
X161200000Y-88750000D03*
D19*
X162950000Y-84400000D03*
X161850000Y-84400000D03*
D18*
X162950000Y-86750000D03*
X162950000Y-85650000D03*
D17*
X158600000Y-84600000D03*
X158600000Y-85500000D03*
D16*
X159800000Y-84400000D03*
X160700000Y-84400000D03*
D17*
X159950000Y-85600000D03*
X159950000Y-86500000D03*
D16*
X159000000Y-82200000D03*
X158100000Y-82200000D03*
D13*
X156300000Y-82900000D03*
X155800000Y-82900000D03*
X155300000Y-82900000D03*
X154800000Y-82900000D03*
X154300000Y-82900000D03*
D14*
X157200000Y-83800000D03*
X157200000Y-84300000D03*
X157200000Y-84800000D03*
X157200000Y-85300000D03*
X157200000Y-85800000D03*
D13*
X154300000Y-86700000D03*
X154800000Y-86700000D03*
X155300000Y-86700000D03*
X155800000Y-86700000D03*
X156300000Y-86700000D03*
D14*
X153400000Y-85800000D03*
X153400000Y-85300000D03*
X153400000Y-84800000D03*
X153400000Y-84300000D03*
X153400000Y-83800000D03*
D15*
X155300000Y-84800000D03*
D12*
X156750000Y-88275000D03*
X156750000Y-90125000D03*
X154450000Y-90125000D03*
X154450000Y-88275000D03*
D11*
X167700000Y-84400000D03*
X164300000Y-84400000D03*
X167700000Y-96600000D03*
X164300000Y-96600000D03*
D12*
X156750000Y-100475000D03*
X156750000Y-102325000D03*
X154450000Y-102325000D03*
X154450000Y-100475000D03*
D13*
X156300000Y-95100000D03*
X155800000Y-95100000D03*
X155300000Y-95100000D03*
X154800000Y-95100000D03*
X154300000Y-95100000D03*
D14*
X157200000Y-96000000D03*
X157200000Y-96500000D03*
X157200000Y-97000000D03*
X157200000Y-97500000D03*
X157200000Y-98000000D03*
D13*
X154300000Y-98900000D03*
X154800000Y-98900000D03*
X155300000Y-98900000D03*
X155800000Y-98900000D03*
X156300000Y-98900000D03*
D14*
X153400000Y-98000000D03*
X153400000Y-97500000D03*
X153400000Y-97000000D03*
X153400000Y-96500000D03*
X153400000Y-96000000D03*
D15*
X155300000Y-97000000D03*
D16*
X159000000Y-94400000D03*
X158100000Y-94400000D03*
D17*
X159950000Y-97800000D03*
X159950000Y-98700000D03*
D16*
X159800000Y-96600000D03*
X160700000Y-96600000D03*
D17*
X158600000Y-96800000D03*
X158600000Y-97700000D03*
D18*
X162950000Y-98950000D03*
X162950000Y-97850000D03*
D19*
X162950000Y-96600000D03*
X161850000Y-96600000D03*
D18*
X161200000Y-99850000D03*
X161200000Y-100950000D03*
X159950000Y-99850000D03*
X159950000Y-100950000D03*
D19*
X154550000Y-92450000D03*
X153450000Y-92450000D03*
D18*
X152200000Y-92850000D03*
X152200000Y-93950000D03*
X158400000Y-100750000D03*
X158400000Y-101850000D03*
X152800000Y-102350000D03*
X152800000Y-101250000D03*
D19*
X154550000Y-93700000D03*
X153450000Y-93700000D03*
D20*
X156450000Y-92850000D03*
X158950000Y-92850000D03*
X132450000Y-92850000D03*
X134950000Y-92850000D03*
D19*
X130550000Y-93700000D03*
X129450000Y-93700000D03*
D18*
X128800000Y-102350000D03*
X128800000Y-101250000D03*
X134400000Y-100750000D03*
X134400000Y-101850000D03*
X128200000Y-92850000D03*
X128200000Y-93950000D03*
D19*
X130550000Y-92450000D03*
X129450000Y-92450000D03*
D18*
X135950000Y-99850000D03*
X135950000Y-100950000D03*
X137200000Y-99850000D03*
X137200000Y-100950000D03*
D19*
X138950000Y-96600000D03*
X137850000Y-96600000D03*
D18*
X138950000Y-98950000D03*
X138950000Y-97850000D03*
D17*
X134600000Y-96800000D03*
X134600000Y-97700000D03*
D16*
X135800000Y-96600000D03*
X136700000Y-96600000D03*
D17*
X135950000Y-97800000D03*
X135950000Y-98700000D03*
D16*
X135000000Y-94400000D03*
X134100000Y-94400000D03*
D13*
X132300000Y-95100000D03*
X131800000Y-95100000D03*
X131300000Y-95100000D03*
X130800000Y-95100000D03*
X130300000Y-95100000D03*
D14*
X133200000Y-96000000D03*
X133200000Y-96500000D03*
X133200000Y-97000000D03*
X133200000Y-97500000D03*
X133200000Y-98000000D03*
D13*
X130300000Y-98900000D03*
X130800000Y-98900000D03*
X131300000Y-98900000D03*
X131800000Y-98900000D03*
X132300000Y-98900000D03*
D14*
X129400000Y-98000000D03*
X129400000Y-97500000D03*
X129400000Y-97000000D03*
X129400000Y-96500000D03*
X129400000Y-96000000D03*
D15*
X131300000Y-97000000D03*
D12*
X132750000Y-100475000D03*
X132750000Y-102325000D03*
X130450000Y-102325000D03*
X130450000Y-100475000D03*
D11*
X143700000Y-96600000D03*
X140300000Y-96600000D03*
X119700000Y-96600000D03*
X116300000Y-96600000D03*
D12*
X108750000Y-100475000D03*
X108750000Y-102325000D03*
X106450000Y-102325000D03*
X106450000Y-100475000D03*
D13*
X108300000Y-95100000D03*
X107800000Y-95100000D03*
X107300000Y-95100000D03*
X106800000Y-95100000D03*
X106300000Y-95100000D03*
D14*
X109200000Y-96000000D03*
X109200000Y-96500000D03*
X109200000Y-97000000D03*
X109200000Y-97500000D03*
X109200000Y-98000000D03*
D13*
X106300000Y-98900000D03*
X106800000Y-98900000D03*
X107300000Y-98900000D03*
X107800000Y-98900000D03*
X108300000Y-98900000D03*
D14*
X105400000Y-98000000D03*
X105400000Y-97500000D03*
X105400000Y-97000000D03*
X105400000Y-96500000D03*
X105400000Y-96000000D03*
D15*
X107300000Y-97000000D03*
D16*
X111000000Y-94400000D03*
X110100000Y-94400000D03*
D17*
X111950000Y-97800000D03*
X111950000Y-98700000D03*
D16*
X111800000Y-96600000D03*
X112700000Y-96600000D03*
D17*
X110600000Y-96800000D03*
X110600000Y-97700000D03*
D18*
X114950000Y-98950000D03*
X114950000Y-97850000D03*
D19*
X114950000Y-96600000D03*
X113850000Y-96600000D03*
D18*
X113200000Y-99850000D03*
X113200000Y-100950000D03*
X111950000Y-99850000D03*
X111950000Y-100950000D03*
D19*
X106550000Y-92450000D03*
X105450000Y-92450000D03*
D18*
X104200000Y-92850000D03*
X104200000Y-93950000D03*
X110400000Y-100750000D03*
X110400000Y-101850000D03*
X104800000Y-102350000D03*
X104800000Y-101250000D03*
D19*
X106550000Y-93700000D03*
X105450000Y-93700000D03*
D20*
X108450000Y-92850000D03*
X110950000Y-92850000D03*
X84450000Y-92850000D03*
X86950000Y-92850000D03*
D19*
X82550000Y-93700000D03*
X81450000Y-93700000D03*
D18*
X80800000Y-102350000D03*
X80800000Y-101250000D03*
X86400000Y-100750000D03*
X86400000Y-101850000D03*
X80200000Y-92850000D03*
X80200000Y-93950000D03*
D19*
X82550000Y-92450000D03*
X81450000Y-92450000D03*
D18*
X87950000Y-99850000D03*
X87950000Y-100950000D03*
X89200000Y-99850000D03*
X89200000Y-100950000D03*
D19*
X90950000Y-96600000D03*
X89850000Y-96600000D03*
D18*
X90950000Y-98950000D03*
X90950000Y-97850000D03*
D17*
X86600000Y-96800000D03*
X86600000Y-97700000D03*
D16*
X87800000Y-96600000D03*
X88700000Y-96600000D03*
D17*
X87950000Y-97800000D03*
X87950000Y-98700000D03*
D16*
X87000000Y-94400000D03*
X86100000Y-94400000D03*
D13*
X84300000Y-95100000D03*
X83800000Y-95100000D03*
X83300000Y-95100000D03*
X82800000Y-95100000D03*
X82300000Y-95100000D03*
D14*
X85200000Y-96000000D03*
X85200000Y-96500000D03*
X85200000Y-97000000D03*
X85200000Y-97500000D03*
X85200000Y-98000000D03*
D13*
X82300000Y-98900000D03*
X82800000Y-98900000D03*
X83300000Y-98900000D03*
X83800000Y-98900000D03*
X84300000Y-98900000D03*
D14*
X81400000Y-98000000D03*
X81400000Y-97500000D03*
X81400000Y-97000000D03*
X81400000Y-96500000D03*
X81400000Y-96000000D03*
D15*
X83300000Y-97000000D03*
D12*
X84750000Y-100475000D03*
X84750000Y-102325000D03*
X82450000Y-102325000D03*
X82450000Y-100475000D03*
D11*
X95700000Y-96600000D03*
X92300000Y-96600000D03*
X95700000Y-72200000D03*
X92300000Y-72200000D03*
D12*
X84750000Y-76075000D03*
X84750000Y-77925000D03*
X82450000Y-77925000D03*
X82450000Y-76075000D03*
D13*
X84300000Y-70700000D03*
X83800000Y-70700000D03*
X83300000Y-70700000D03*
X82800000Y-70700000D03*
X82300000Y-70700000D03*
D14*
X85200000Y-71600000D03*
X85200000Y-72100000D03*
X85200000Y-72600000D03*
X85200000Y-73100000D03*
X85200000Y-73600000D03*
D13*
X82300000Y-74500000D03*
X82800000Y-74500000D03*
X83300000Y-74500000D03*
X83800000Y-74500000D03*
X84300000Y-74500000D03*
D14*
X81400000Y-73600000D03*
X81400000Y-73100000D03*
X81400000Y-72600000D03*
X81400000Y-72100000D03*
X81400000Y-71600000D03*
D15*
X83300000Y-72600000D03*
D16*
X87000000Y-70000000D03*
X86100000Y-70000000D03*
D17*
X87950000Y-73400000D03*
X87950000Y-74300000D03*
D16*
X87800000Y-72200000D03*
X88700000Y-72200000D03*
D17*
X86600000Y-72400000D03*
X86600000Y-73300000D03*
D18*
X90950000Y-74550000D03*
X90950000Y-73450000D03*
D19*
X90950000Y-72200000D03*
X89850000Y-72200000D03*
D18*
X89200000Y-75450000D03*
X89200000Y-76550000D03*
X87950000Y-75450000D03*
X87950000Y-76550000D03*
D19*
X82550000Y-68050000D03*
X81450000Y-68050000D03*
D18*
X80200000Y-68450000D03*
X80200000Y-69550000D03*
X86400000Y-76350000D03*
X86400000Y-77450000D03*
X80800000Y-77950000D03*
X80800000Y-76850000D03*
D19*
X82550000Y-69300000D03*
X81450000Y-69300000D03*
D20*
X84450000Y-68450000D03*
X86950000Y-68450000D03*
X108450000Y-68450000D03*
X110950000Y-68450000D03*
D19*
X106550000Y-69300000D03*
X105450000Y-69300000D03*
D18*
X104800000Y-77950000D03*
X104800000Y-76850000D03*
X110400000Y-76350000D03*
X110400000Y-77450000D03*
X104200000Y-68450000D03*
X104200000Y-69550000D03*
D19*
X106550000Y-68050000D03*
X105450000Y-68050000D03*
D18*
X111950000Y-75450000D03*
X111950000Y-76550000D03*
X113200000Y-75450000D03*
X113200000Y-76550000D03*
D19*
X114950000Y-72200000D03*
X113850000Y-72200000D03*
D18*
X114950000Y-74550000D03*
X114950000Y-73450000D03*
D17*
X110600000Y-72400000D03*
X110600000Y-73300000D03*
D16*
X111800000Y-72200000D03*
X112700000Y-72200000D03*
D17*
X111950000Y-73400000D03*
X111950000Y-74300000D03*
D16*
X111000000Y-70000000D03*
X110100000Y-70000000D03*
D13*
X108300000Y-70700000D03*
X107800000Y-70700000D03*
X107300000Y-70700000D03*
X106800000Y-70700000D03*
X106300000Y-70700000D03*
D14*
X109200000Y-71600000D03*
X109200000Y-72100000D03*
X109200000Y-72600000D03*
X109200000Y-73100000D03*
X109200000Y-73600000D03*
D13*
X106300000Y-74500000D03*
X106800000Y-74500000D03*
X107300000Y-74500000D03*
X107800000Y-74500000D03*
X108300000Y-74500000D03*
D14*
X105400000Y-73600000D03*
X105400000Y-73100000D03*
X105400000Y-72600000D03*
X105400000Y-72100000D03*
X105400000Y-71600000D03*
D15*
X107300000Y-72600000D03*
D12*
X108750000Y-76075000D03*
X108750000Y-77925000D03*
X106450000Y-77925000D03*
X106450000Y-76075000D03*
D11*
X119700000Y-72200000D03*
X116300000Y-72200000D03*
X143700000Y-72200000D03*
X140300000Y-72200000D03*
D12*
X132750000Y-76075000D03*
X132750000Y-77925000D03*
X130450000Y-77925000D03*
X130450000Y-76075000D03*
D13*
X132300000Y-70700000D03*
X131800000Y-70700000D03*
X131300000Y-70700000D03*
X130800000Y-70700000D03*
X130300000Y-70700000D03*
D14*
X133200000Y-71600000D03*
X133200000Y-72100000D03*
X133200000Y-72600000D03*
X133200000Y-73100000D03*
X133200000Y-73600000D03*
D13*
X130300000Y-74500000D03*
X130800000Y-74500000D03*
X131300000Y-74500000D03*
X131800000Y-74500000D03*
X132300000Y-74500000D03*
D14*
X129400000Y-73600000D03*
X129400000Y-73100000D03*
X129400000Y-72600000D03*
X129400000Y-72100000D03*
X129400000Y-71600000D03*
D15*
X131300000Y-72600000D03*
D16*
X135000000Y-70000000D03*
X134100000Y-70000000D03*
D17*
X135950000Y-73400000D03*
X135950000Y-74300000D03*
D16*
X135800000Y-72200000D03*
X136700000Y-72200000D03*
D17*
X134600000Y-72400000D03*
X134600000Y-73300000D03*
D18*
X138950000Y-74550000D03*
X138950000Y-73450000D03*
D19*
X138950000Y-72200000D03*
X137850000Y-72200000D03*
D18*
X137200000Y-75450000D03*
X137200000Y-76550000D03*
X135950000Y-75450000D03*
X135950000Y-76550000D03*
D19*
X130550000Y-68050000D03*
X129450000Y-68050000D03*
D18*
X128200000Y-68450000D03*
X128200000Y-69550000D03*
X134400000Y-76350000D03*
X134400000Y-77450000D03*
X128800000Y-77950000D03*
X128800000Y-76850000D03*
D19*
X130550000Y-69300000D03*
X129450000Y-69300000D03*
D20*
X132450000Y-68450000D03*
X134950000Y-68450000D03*
X156450000Y-68450000D03*
X158950000Y-68450000D03*
D19*
X154550000Y-69300000D03*
X153450000Y-69300000D03*
D18*
X152800000Y-77950000D03*
X152800000Y-76850000D03*
X158400000Y-76350000D03*
X158400000Y-77450000D03*
X152200000Y-68450000D03*
X152200000Y-69550000D03*
D19*
X154550000Y-68050000D03*
X153450000Y-68050000D03*
D18*
X159950000Y-75450000D03*
X159950000Y-76550000D03*
X161200000Y-75450000D03*
X161200000Y-76550000D03*
D19*
X162950000Y-72200000D03*
X161850000Y-72200000D03*
D18*
X162950000Y-74550000D03*
X162950000Y-73450000D03*
D17*
X158600000Y-72400000D03*
X158600000Y-73300000D03*
D16*
X159800000Y-72200000D03*
X160700000Y-72200000D03*
D17*
X159950000Y-73400000D03*
X159950000Y-74300000D03*
D16*
X159000000Y-70000000D03*
X158100000Y-70000000D03*
D13*
X156300000Y-70700000D03*
X155800000Y-70700000D03*
X155300000Y-70700000D03*
X154800000Y-70700000D03*
X154300000Y-70700000D03*
D14*
X157200000Y-71600000D03*
X157200000Y-72100000D03*
X157200000Y-72600000D03*
X157200000Y-73100000D03*
X157200000Y-73600000D03*
D13*
X154300000Y-74500000D03*
X154800000Y-74500000D03*
X155300000Y-74500000D03*
X155800000Y-74500000D03*
X156300000Y-74500000D03*
D14*
X153400000Y-73600000D03*
X153400000Y-73100000D03*
X153400000Y-72600000D03*
X153400000Y-72100000D03*
X153400000Y-71600000D03*
D15*
X155300000Y-72600000D03*
D12*
X156750000Y-76075000D03*
X156750000Y-77925000D03*
X154450000Y-77925000D03*
X154450000Y-76075000D03*
D11*
X167700000Y-72200000D03*
X164300000Y-72200000D03*
X167700000Y-60000000D03*
X164300000Y-60000000D03*
D12*
X156750000Y-63875000D03*
X156750000Y-65725000D03*
X154450000Y-65725000D03*
X154450000Y-63875000D03*
D13*
X156300000Y-58500000D03*
X155800000Y-58500000D03*
X155300000Y-58500000D03*
X154800000Y-58500000D03*
X154300000Y-58500000D03*
D14*
X157200000Y-59400000D03*
X157200000Y-59900000D03*
X157200000Y-60400000D03*
X157200000Y-60900000D03*
X157200000Y-61400000D03*
D13*
X154300000Y-62300000D03*
X154800000Y-62300000D03*
X155300000Y-62300000D03*
X155800000Y-62300000D03*
X156300000Y-62300000D03*
D14*
X153400000Y-61400000D03*
X153400000Y-60900000D03*
X153400000Y-60400000D03*
X153400000Y-59900000D03*
X153400000Y-59400000D03*
D15*
X155300000Y-60400000D03*
D16*
X159000000Y-57800000D03*
X158100000Y-57800000D03*
D17*
X159950000Y-61200000D03*
X159950000Y-62100000D03*
D16*
X159800000Y-60000000D03*
X160700000Y-60000000D03*
D17*
X158600000Y-60200000D03*
X158600000Y-61100000D03*
D18*
X162950000Y-62350000D03*
X162950000Y-61250000D03*
D19*
X162950000Y-60000000D03*
X161850000Y-60000000D03*
D18*
X161200000Y-63250000D03*
X161200000Y-64350000D03*
X159950000Y-63250000D03*
X159950000Y-64350000D03*
D19*
X154550000Y-55850000D03*
X153450000Y-55850000D03*
D18*
X152200000Y-56250000D03*
X152200000Y-57350000D03*
X158400000Y-64150000D03*
X158400000Y-65250000D03*
X152800000Y-65750000D03*
X152800000Y-64650000D03*
D19*
X154550000Y-57100000D03*
X153450000Y-57100000D03*
D20*
X156450000Y-56250000D03*
X158950000Y-56250000D03*
X132450000Y-56250000D03*
X134950000Y-56250000D03*
D19*
X130550000Y-57100000D03*
X129450000Y-57100000D03*
D18*
X128800000Y-65750000D03*
X128800000Y-64650000D03*
X134400000Y-64150000D03*
X134400000Y-65250000D03*
X128200000Y-56250000D03*
X128200000Y-57350000D03*
D19*
X130550000Y-55850000D03*
X129450000Y-55850000D03*
D18*
X135950000Y-63250000D03*
X135950000Y-64350000D03*
X137200000Y-63250000D03*
X137200000Y-64350000D03*
D19*
X138950000Y-60000000D03*
X137850000Y-60000000D03*
D18*
X138950000Y-62350000D03*
X138950000Y-61250000D03*
D17*
X134600000Y-60200000D03*
X134600000Y-61100000D03*
D16*
X135800000Y-60000000D03*
X136700000Y-60000000D03*
D17*
X135950000Y-61200000D03*
X135950000Y-62100000D03*
D16*
X135000000Y-57800000D03*
X134100000Y-57800000D03*
D13*
X132300000Y-58500000D03*
X131800000Y-58500000D03*
X131300000Y-58500000D03*
X130800000Y-58500000D03*
X130300000Y-58500000D03*
D14*
X133200000Y-59400000D03*
X133200000Y-59900000D03*
X133200000Y-60400000D03*
X133200000Y-60900000D03*
X133200000Y-61400000D03*
D13*
X130300000Y-62300000D03*
X130800000Y-62300000D03*
X131300000Y-62300000D03*
X131800000Y-62300000D03*
X132300000Y-62300000D03*
D14*
X129400000Y-61400000D03*
X129400000Y-60900000D03*
X129400000Y-60400000D03*
X129400000Y-59900000D03*
X129400000Y-59400000D03*
D15*
X131300000Y-60400000D03*
D12*
X132750000Y-63875000D03*
X132750000Y-65725000D03*
X130450000Y-65725000D03*
X130450000Y-63875000D03*
D11*
X143700000Y-60000000D03*
X140300000Y-60000000D03*
X119700000Y-60000000D03*
X116300000Y-60000000D03*
D12*
X108750000Y-63875000D03*
X108750000Y-65725000D03*
X106450000Y-65725000D03*
X106450000Y-63875000D03*
D13*
X108300000Y-58500000D03*
X107800000Y-58500000D03*
X107300000Y-58500000D03*
X106800000Y-58500000D03*
X106300000Y-58500000D03*
D14*
X109200000Y-59400000D03*
X109200000Y-59900000D03*
X109200000Y-60400000D03*
X109200000Y-60900000D03*
X109200000Y-61400000D03*
D13*
X106300000Y-62300000D03*
X106800000Y-62300000D03*
X107300000Y-62300000D03*
X107800000Y-62300000D03*
X108300000Y-62300000D03*
D14*
X105400000Y-61400000D03*
X105400000Y-60900000D03*
X105400000Y-60400000D03*
X105400000Y-59900000D03*
X105400000Y-59400000D03*
D15*
X107300000Y-60400000D03*
D16*
X111000000Y-57800000D03*
X110100000Y-57800000D03*
D17*
X111950000Y-61200000D03*
X111950000Y-62100000D03*
D16*
X111800000Y-60000000D03*
X112700000Y-60000000D03*
D17*
X110600000Y-60200000D03*
X110600000Y-61100000D03*
D18*
X114950000Y-62350000D03*
X114950000Y-61250000D03*
D19*
X114950000Y-60000000D03*
X113850000Y-60000000D03*
D18*
X113200000Y-63250000D03*
X113200000Y-64350000D03*
X111950000Y-63250000D03*
X111950000Y-64350000D03*
D19*
X106550000Y-55850000D03*
X105450000Y-55850000D03*
D18*
X104200000Y-56250000D03*
X104200000Y-57350000D03*
X110400000Y-64150000D03*
X110400000Y-65250000D03*
X104800000Y-65750000D03*
X104800000Y-64650000D03*
D19*
X106550000Y-57100000D03*
X105450000Y-57100000D03*
D20*
X108450000Y-56250000D03*
X110950000Y-56250000D03*
X84450000Y-56250000D03*
X86950000Y-56250000D03*
D19*
X82550000Y-57100000D03*
X81450000Y-57100000D03*
D18*
X80800000Y-65750000D03*
X80800000Y-64650000D03*
X86400000Y-64150000D03*
X86400000Y-65250000D03*
X80200000Y-56250000D03*
X80200000Y-57350000D03*
D19*
X82550000Y-55850000D03*
X81450000Y-55850000D03*
D18*
X87950000Y-63250000D03*
X87950000Y-64350000D03*
X89200000Y-63250000D03*
X89200000Y-64350000D03*
D19*
X90950000Y-60000000D03*
X89850000Y-60000000D03*
D18*
X90950000Y-62350000D03*
X90950000Y-61250000D03*
D17*
X86600000Y-60200000D03*
X86600000Y-61100000D03*
D16*
X87800000Y-60000000D03*
X88700000Y-60000000D03*
D17*
X87950000Y-61200000D03*
X87950000Y-62100000D03*
D16*
X87000000Y-57800000D03*
X86100000Y-57800000D03*
D13*
X84300000Y-58500000D03*
X83800000Y-58500000D03*
X83300000Y-58500000D03*
X82800000Y-58500000D03*
X82300000Y-58500000D03*
D14*
X85200000Y-59400000D03*
X85200000Y-59900000D03*
X85200000Y-60400000D03*
X85200000Y-60900000D03*
X85200000Y-61400000D03*
D13*
X82300000Y-62300000D03*
X82800000Y-62300000D03*
X83300000Y-62300000D03*
X83800000Y-62300000D03*
X84300000Y-62300000D03*
D14*
X81400000Y-61400000D03*
X81400000Y-60900000D03*
X81400000Y-60400000D03*
X81400000Y-59900000D03*
X81400000Y-59400000D03*
D15*
X83300000Y-60400000D03*
D12*
X84750000Y-63875000D03*
X84750000Y-65725000D03*
X82450000Y-65725000D03*
X82450000Y-63875000D03*
D11*
X95700000Y-60000000D03*
X92300000Y-60000000D03*
D21*
X74500000Y-57250000D03*
D22*
X77040000Y-57250000D03*
X74500000Y-59790000D03*
X77040000Y-59790000D03*
X74500000Y-62330000D03*
X77040000Y-62330000D03*
X74500000Y-64870000D03*
X77040000Y-64870000D03*
D21*
X74500000Y-69450000D03*
D22*
X77040000Y-69450000D03*
X74500000Y-71990000D03*
X77040000Y-71990000D03*
X74500000Y-74530000D03*
X77040000Y-74530000D03*
X74500000Y-77070000D03*
X77040000Y-77070000D03*
D21*
X74500000Y-93850000D03*
D22*
X77040000Y-93850000D03*
X74500000Y-96390000D03*
X77040000Y-96390000D03*
X74500000Y-98930000D03*
X77040000Y-98930000D03*
X74500000Y-101470000D03*
X77040000Y-101470000D03*
D21*
X74500000Y-81650000D03*
D22*
X77040000Y-81650000D03*
X74500000Y-84190000D03*
X77040000Y-84190000D03*
X74500000Y-86730000D03*
X77040000Y-86730000D03*
X74500000Y-89270000D03*
X77040000Y-89270000D03*
D21*
X74500000Y-106050000D03*
D22*
X77040000Y-106050000D03*
X74500000Y-108590000D03*
X77040000Y-108590000D03*
X74500000Y-111130000D03*
X77040000Y-111130000D03*
X74500000Y-113670000D03*
X77040000Y-113670000D03*
D21*
X74500000Y-118250000D03*
D22*
X77040000Y-118250000D03*
X74500000Y-120790000D03*
X77040000Y-120790000D03*
X74500000Y-123330000D03*
X77040000Y-123330000D03*
X74500000Y-125870000D03*
X77040000Y-125870000D03*
D21*
X74500000Y-130450000D03*
D22*
X77040000Y-130450000D03*
X74500000Y-132990000D03*
X77040000Y-132990000D03*
X74500000Y-135530000D03*
X77040000Y-135530000D03*
X74500000Y-138070000D03*
X77040000Y-138070000D03*
D21*
X74500000Y-142650000D03*
D22*
X77040000Y-142650000D03*
X74500000Y-145190000D03*
X77040000Y-145190000D03*
X74500000Y-147730000D03*
X77040000Y-147730000D03*
X74500000Y-150270000D03*
X77040000Y-150270000D03*
D21*
X98500000Y-57250000D03*
D22*
X101040000Y-57250000D03*
X98500000Y-59790000D03*
X101040000Y-59790000D03*
X98500000Y-62330000D03*
X101040000Y-62330000D03*
X98500000Y-64870000D03*
X101040000Y-64870000D03*
D21*
X98500000Y-69450000D03*
D22*
X101040000Y-69450000D03*
X98500000Y-71990000D03*
X101040000Y-71990000D03*
X98500000Y-74530000D03*
X101040000Y-74530000D03*
X98500000Y-77070000D03*
X101040000Y-77070000D03*
D21*
X122500000Y-57250000D03*
D22*
X125040000Y-57250000D03*
X122500000Y-59790000D03*
X125040000Y-59790000D03*
X122500000Y-62330000D03*
X125040000Y-62330000D03*
X122500000Y-64870000D03*
X125040000Y-64870000D03*
D21*
X122500000Y-69450000D03*
D22*
X125040000Y-69450000D03*
X122500000Y-71990000D03*
X125040000Y-71990000D03*
X122500000Y-74530000D03*
X125040000Y-74530000D03*
X122500000Y-77070000D03*
X125040000Y-77070000D03*
D21*
X146500000Y-57250000D03*
D22*
X149040000Y-57250000D03*
X146500000Y-59790000D03*
X149040000Y-59790000D03*
X146500000Y-62330000D03*
X149040000Y-62330000D03*
X146500000Y-64870000D03*
X149040000Y-64870000D03*
D21*
X146500000Y-69400000D03*
D22*
X149040000Y-69400000D03*
X146500000Y-71940000D03*
X149040000Y-71940000D03*
X146500000Y-74480000D03*
X149040000Y-74480000D03*
X146500000Y-77020000D03*
X149040000Y-77020000D03*
D21*
X98500000Y-81650000D03*
D22*
X101040000Y-81650000D03*
X98500000Y-84190000D03*
X101040000Y-84190000D03*
X98500000Y-86730000D03*
X101040000Y-86730000D03*
X98500000Y-89270000D03*
X101040000Y-89270000D03*
D21*
X122500000Y-81650000D03*
D22*
X125040000Y-81650000D03*
X122500000Y-84190000D03*
X125040000Y-84190000D03*
X122500000Y-86730000D03*
X125040000Y-86730000D03*
X122500000Y-89270000D03*
X125040000Y-89270000D03*
D21*
X146500000Y-81650000D03*
D22*
X149040000Y-81650000D03*
X146500000Y-84190000D03*
X149040000Y-84190000D03*
X146500000Y-86730000D03*
X149040000Y-86730000D03*
X146500000Y-89270000D03*
X149040000Y-89270000D03*
D21*
X146500000Y-93850000D03*
D22*
X149040000Y-93850000D03*
X146500000Y-96390000D03*
X149040000Y-96390000D03*
X146500000Y-98930000D03*
X149040000Y-98930000D03*
X146500000Y-101470000D03*
X149040000Y-101470000D03*
D21*
X122500000Y-93850000D03*
D22*
X125040000Y-93850000D03*
X122500000Y-96390000D03*
X125040000Y-96390000D03*
X122500000Y-98930000D03*
X125040000Y-98930000D03*
X122500000Y-101470000D03*
X125040000Y-101470000D03*
D21*
X98500000Y-93850000D03*
D22*
X101040000Y-93850000D03*
X98500000Y-96390000D03*
X101040000Y-96390000D03*
X98500000Y-98930000D03*
X101040000Y-98930000D03*
X98500000Y-101470000D03*
X101040000Y-101470000D03*
D21*
X146500000Y-106050000D03*
D22*
X149040000Y-106050000D03*
X146500000Y-108590000D03*
X149040000Y-108590000D03*
X146500000Y-111130000D03*
X149040000Y-111130000D03*
X146500000Y-113670000D03*
X149040000Y-113670000D03*
D21*
X122500000Y-106050000D03*
D22*
X125040000Y-106050000D03*
X122500000Y-108590000D03*
X125040000Y-108590000D03*
X122500000Y-111130000D03*
X125040000Y-111130000D03*
X122500000Y-113670000D03*
X125040000Y-113670000D03*
D21*
X98500000Y-106050000D03*
D22*
X101040000Y-106050000D03*
X98500000Y-108590000D03*
X101040000Y-108590000D03*
X98500000Y-111130000D03*
X101040000Y-111130000D03*
X98500000Y-113670000D03*
X101040000Y-113670000D03*
D21*
X98500000Y-118250000D03*
D22*
X101040000Y-118250000D03*
X98500000Y-120790000D03*
X101040000Y-120790000D03*
X98500000Y-123330000D03*
X101040000Y-123330000D03*
X98500000Y-125870000D03*
X101040000Y-125870000D03*
D21*
X122500000Y-118250000D03*
D22*
X125040000Y-118250000D03*
X122500000Y-120790000D03*
X125040000Y-120790000D03*
X122500000Y-123330000D03*
X125040000Y-123330000D03*
X122500000Y-125870000D03*
X125040000Y-125870000D03*
D21*
X146500000Y-118250000D03*
D22*
X149040000Y-118250000D03*
X146500000Y-120790000D03*
X149040000Y-120790000D03*
X146500000Y-123330000D03*
X149040000Y-123330000D03*
X146500000Y-125870000D03*
X149040000Y-125870000D03*
D21*
X146500000Y-130450000D03*
D22*
X149040000Y-130450000D03*
X146500000Y-132990000D03*
X149040000Y-132990000D03*
X146500000Y-135530000D03*
X149040000Y-135530000D03*
X146500000Y-138070000D03*
X149040000Y-138070000D03*
D21*
X122500000Y-130450000D03*
D22*
X125040000Y-130450000D03*
X122500000Y-132990000D03*
X125040000Y-132990000D03*
X122500000Y-135530000D03*
X125040000Y-135530000D03*
X122500000Y-138070000D03*
X125040000Y-138070000D03*
D21*
X98500000Y-130450000D03*
D22*
X101040000Y-130450000D03*
X98500000Y-132990000D03*
X101040000Y-132990000D03*
X98500000Y-135530000D03*
X101040000Y-135530000D03*
X98500000Y-138070000D03*
X101040000Y-138070000D03*
D21*
X98500000Y-142650000D03*
D22*
X101040000Y-142650000D03*
X98500000Y-145190000D03*
X101040000Y-145190000D03*
X98500000Y-147730000D03*
X101040000Y-147730000D03*
X98500000Y-150270000D03*
X101040000Y-150270000D03*
D21*
X122500000Y-142650000D03*
D22*
X125040000Y-142650000D03*
X122500000Y-145190000D03*
X125040000Y-145190000D03*
X122500000Y-147730000D03*
X125040000Y-147730000D03*
X122500000Y-150270000D03*
X125040000Y-150270000D03*
D21*
X146500000Y-142650000D03*
D22*
X149040000Y-142650000D03*
X146500000Y-145190000D03*
X149040000Y-145190000D03*
X146500000Y-147730000D03*
X149040000Y-147730000D03*
X146500000Y-150270000D03*
X149040000Y-150270000D03*
M02*
