G04 #@! TF.FileFunction,Soldermask,Bot*
%FSLAX46Y46*%
G04 Gerber Fmt 4.6, Leading zero omitted, Abs format (unit mm)*
G04 Created by KiCad (PCBNEW 4.0.2+e4-6225~38~ubuntu14.04.1-stable) date Fri 01 Jul 2016 09:40:48 PM CDT*
%MOMM*%
G01*
G04 APERTURE LIST*
%ADD10C,0.100000*%
%ADD11R,2.127200X2.127200*%
%ADD12O,2.127200X2.127200*%
G04 APERTURE END LIST*
D10*
D11*
X74500000Y-57250000D03*
D12*
X77040000Y-57250000D03*
X74500000Y-59790000D03*
X77040000Y-59790000D03*
X74500000Y-62330000D03*
X77040000Y-62330000D03*
X74500000Y-64870000D03*
X77040000Y-64870000D03*
D11*
X74500000Y-69450000D03*
D12*
X77040000Y-69450000D03*
X74500000Y-71990000D03*
X77040000Y-71990000D03*
X74500000Y-74530000D03*
X77040000Y-74530000D03*
X74500000Y-77070000D03*
X77040000Y-77070000D03*
D11*
X74500000Y-93850000D03*
D12*
X77040000Y-93850000D03*
X74500000Y-96390000D03*
X77040000Y-96390000D03*
X74500000Y-98930000D03*
X77040000Y-98930000D03*
X74500000Y-101470000D03*
X77040000Y-101470000D03*
D11*
X74500000Y-81650000D03*
D12*
X77040000Y-81650000D03*
X74500000Y-84190000D03*
X77040000Y-84190000D03*
X74500000Y-86730000D03*
X77040000Y-86730000D03*
X74500000Y-89270000D03*
X77040000Y-89270000D03*
D11*
X74500000Y-106050000D03*
D12*
X77040000Y-106050000D03*
X74500000Y-108590000D03*
X77040000Y-108590000D03*
X74500000Y-111130000D03*
X77040000Y-111130000D03*
X74500000Y-113670000D03*
X77040000Y-113670000D03*
D11*
X74500000Y-118250000D03*
D12*
X77040000Y-118250000D03*
X74500000Y-120790000D03*
X77040000Y-120790000D03*
X74500000Y-123330000D03*
X77040000Y-123330000D03*
X74500000Y-125870000D03*
X77040000Y-125870000D03*
D11*
X74500000Y-130450000D03*
D12*
X77040000Y-130450000D03*
X74500000Y-132990000D03*
X77040000Y-132990000D03*
X74500000Y-135530000D03*
X77040000Y-135530000D03*
X74500000Y-138070000D03*
X77040000Y-138070000D03*
D11*
X74500000Y-142650000D03*
D12*
X77040000Y-142650000D03*
X74500000Y-145190000D03*
X77040000Y-145190000D03*
X74500000Y-147730000D03*
X77040000Y-147730000D03*
X74500000Y-150270000D03*
X77040000Y-150270000D03*
D11*
X98500000Y-57250000D03*
D12*
X101040000Y-57250000D03*
X98500000Y-59790000D03*
X101040000Y-59790000D03*
X98500000Y-62330000D03*
X101040000Y-62330000D03*
X98500000Y-64870000D03*
X101040000Y-64870000D03*
D11*
X98500000Y-69450000D03*
D12*
X101040000Y-69450000D03*
X98500000Y-71990000D03*
X101040000Y-71990000D03*
X98500000Y-74530000D03*
X101040000Y-74530000D03*
X98500000Y-77070000D03*
X101040000Y-77070000D03*
D11*
X122500000Y-57250000D03*
D12*
X125040000Y-57250000D03*
X122500000Y-59790000D03*
X125040000Y-59790000D03*
X122500000Y-62330000D03*
X125040000Y-62330000D03*
X122500000Y-64870000D03*
X125040000Y-64870000D03*
D11*
X122500000Y-69450000D03*
D12*
X125040000Y-69450000D03*
X122500000Y-71990000D03*
X125040000Y-71990000D03*
X122500000Y-74530000D03*
X125040000Y-74530000D03*
X122500000Y-77070000D03*
X125040000Y-77070000D03*
D11*
X146500000Y-57250000D03*
D12*
X149040000Y-57250000D03*
X146500000Y-59790000D03*
X149040000Y-59790000D03*
X146500000Y-62330000D03*
X149040000Y-62330000D03*
X146500000Y-64870000D03*
X149040000Y-64870000D03*
D11*
X146500000Y-69400000D03*
D12*
X149040000Y-69400000D03*
X146500000Y-71940000D03*
X149040000Y-71940000D03*
X146500000Y-74480000D03*
X149040000Y-74480000D03*
X146500000Y-77020000D03*
X149040000Y-77020000D03*
D11*
X98500000Y-81650000D03*
D12*
X101040000Y-81650000D03*
X98500000Y-84190000D03*
X101040000Y-84190000D03*
X98500000Y-86730000D03*
X101040000Y-86730000D03*
X98500000Y-89270000D03*
X101040000Y-89270000D03*
D11*
X122500000Y-81650000D03*
D12*
X125040000Y-81650000D03*
X122500000Y-84190000D03*
X125040000Y-84190000D03*
X122500000Y-86730000D03*
X125040000Y-86730000D03*
X122500000Y-89270000D03*
X125040000Y-89270000D03*
D11*
X146500000Y-81650000D03*
D12*
X149040000Y-81650000D03*
X146500000Y-84190000D03*
X149040000Y-84190000D03*
X146500000Y-86730000D03*
X149040000Y-86730000D03*
X146500000Y-89270000D03*
X149040000Y-89270000D03*
D11*
X146500000Y-93850000D03*
D12*
X149040000Y-93850000D03*
X146500000Y-96390000D03*
X149040000Y-96390000D03*
X146500000Y-98930000D03*
X149040000Y-98930000D03*
X146500000Y-101470000D03*
X149040000Y-101470000D03*
D11*
X122500000Y-93850000D03*
D12*
X125040000Y-93850000D03*
X122500000Y-96390000D03*
X125040000Y-96390000D03*
X122500000Y-98930000D03*
X125040000Y-98930000D03*
X122500000Y-101470000D03*
X125040000Y-101470000D03*
D11*
X98500000Y-93850000D03*
D12*
X101040000Y-93850000D03*
X98500000Y-96390000D03*
X101040000Y-96390000D03*
X98500000Y-98930000D03*
X101040000Y-98930000D03*
X98500000Y-101470000D03*
X101040000Y-101470000D03*
D11*
X146500000Y-106050000D03*
D12*
X149040000Y-106050000D03*
X146500000Y-108590000D03*
X149040000Y-108590000D03*
X146500000Y-111130000D03*
X149040000Y-111130000D03*
X146500000Y-113670000D03*
X149040000Y-113670000D03*
D11*
X122500000Y-106050000D03*
D12*
X125040000Y-106050000D03*
X122500000Y-108590000D03*
X125040000Y-108590000D03*
X122500000Y-111130000D03*
X125040000Y-111130000D03*
X122500000Y-113670000D03*
X125040000Y-113670000D03*
D11*
X98500000Y-106050000D03*
D12*
X101040000Y-106050000D03*
X98500000Y-108590000D03*
X101040000Y-108590000D03*
X98500000Y-111130000D03*
X101040000Y-111130000D03*
X98500000Y-113670000D03*
X101040000Y-113670000D03*
D11*
X98500000Y-118250000D03*
D12*
X101040000Y-118250000D03*
X98500000Y-120790000D03*
X101040000Y-120790000D03*
X98500000Y-123330000D03*
X101040000Y-123330000D03*
X98500000Y-125870000D03*
X101040000Y-125870000D03*
D11*
X122500000Y-118250000D03*
D12*
X125040000Y-118250000D03*
X122500000Y-120790000D03*
X125040000Y-120790000D03*
X122500000Y-123330000D03*
X125040000Y-123330000D03*
X122500000Y-125870000D03*
X125040000Y-125870000D03*
D11*
X146500000Y-118250000D03*
D12*
X149040000Y-118250000D03*
X146500000Y-120790000D03*
X149040000Y-120790000D03*
X146500000Y-123330000D03*
X149040000Y-123330000D03*
X146500000Y-125870000D03*
X149040000Y-125870000D03*
D11*
X146500000Y-130450000D03*
D12*
X149040000Y-130450000D03*
X146500000Y-132990000D03*
X149040000Y-132990000D03*
X146500000Y-135530000D03*
X149040000Y-135530000D03*
X146500000Y-138070000D03*
X149040000Y-138070000D03*
D11*
X122500000Y-130450000D03*
D12*
X125040000Y-130450000D03*
X122500000Y-132990000D03*
X125040000Y-132990000D03*
X122500000Y-135530000D03*
X125040000Y-135530000D03*
X122500000Y-138070000D03*
X125040000Y-138070000D03*
D11*
X98500000Y-130450000D03*
D12*
X101040000Y-130450000D03*
X98500000Y-132990000D03*
X101040000Y-132990000D03*
X98500000Y-135530000D03*
X101040000Y-135530000D03*
X98500000Y-138070000D03*
X101040000Y-138070000D03*
D11*
X98500000Y-142650000D03*
D12*
X101040000Y-142650000D03*
X98500000Y-145190000D03*
X101040000Y-145190000D03*
X98500000Y-147730000D03*
X101040000Y-147730000D03*
X98500000Y-150270000D03*
X101040000Y-150270000D03*
D11*
X122500000Y-142650000D03*
D12*
X125040000Y-142650000D03*
X122500000Y-145190000D03*
X125040000Y-145190000D03*
X122500000Y-147730000D03*
X125040000Y-147730000D03*
X122500000Y-150270000D03*
X125040000Y-150270000D03*
D11*
X146500000Y-142650000D03*
D12*
X149040000Y-142650000D03*
X146500000Y-145190000D03*
X149040000Y-145190000D03*
X146500000Y-147730000D03*
X149040000Y-147730000D03*
X146500000Y-150270000D03*
X149040000Y-150270000D03*
M02*
