G04 #@! TF.FileFunction,Soldermask,Top*
%FSLAX46Y46*%
G04 Gerber Fmt 4.6, Leading zero omitted, Abs format (unit mm)*
G04 Created by KiCad (PCBNEW 4.0.4-stable) date Sunday, October 15, 2017 'PMt' 03:04:39 PM*
%MOMM*%
%LPD*%
G01*
G04 APERTURE LIST*
%ADD10C,0.100000*%
%ADD11R,1.960000X1.050000*%
%ADD12R,2.100000X2.100000*%
%ADD13O,2.100000X2.100000*%
%ADD14R,1.600000X1.150000*%
%ADD15R,1.600000X1.300000*%
%ADD16R,1.300000X1.600000*%
%ADD17R,1.900000X1.650000*%
%ADD18R,1.150000X1.600000*%
%ADD19R,1.650000X1.900000*%
%ADD20R,1.600000X1.800000*%
%ADD21C,1.300000*%
%ADD22R,1.000000X1.900000*%
%ADD23C,2.600000*%
%ADD24R,1.400000X1.400000*%
%ADD25O,1.400000X1.400000*%
%ADD26R,1.750000X1.750000*%
%ADD27O,1.750000X1.750000*%
G04 APERTURE END LIST*
D10*
D11*
X77200000Y-55250000D03*
X77200000Y-54300000D03*
X77200000Y-53350000D03*
X74500000Y-53350000D03*
X74500000Y-55250000D03*
D12*
X64679999Y-52500000D03*
D13*
X62139999Y-52500000D03*
X59599999Y-52500000D03*
X57059999Y-52500000D03*
X54519999Y-52500000D03*
D14*
X56300000Y-56700000D03*
X54400000Y-56700000D03*
D15*
X59200000Y-67600000D03*
X61400000Y-67600000D03*
D16*
X55300000Y-73200000D03*
X55300000Y-75400000D03*
D17*
X71450000Y-55200000D03*
X68950000Y-55200000D03*
X68250000Y-57200000D03*
X70750000Y-57200000D03*
D18*
X52600000Y-63050000D03*
X52600000Y-61150000D03*
D19*
X80100000Y-55250000D03*
X80100000Y-52750000D03*
D20*
X59000000Y-76600000D03*
X64000000Y-76600000D03*
X61500000Y-72200000D03*
D21*
X58100000Y-74400000D03*
X64900000Y-74400000D03*
D22*
X55090000Y-64800000D03*
X56360000Y-64800000D03*
X57630000Y-64800000D03*
X58900000Y-64800000D03*
X60170000Y-64800000D03*
X61440000Y-64800000D03*
X62710000Y-64800000D03*
X62710000Y-59400000D03*
X61440000Y-59400000D03*
X60170000Y-59400000D03*
X58900000Y-59400000D03*
X57630000Y-59400000D03*
X56360000Y-59400000D03*
X55090000Y-59400000D03*
D23*
X85000000Y-76000000D03*
X85000000Y-52000000D03*
X52000000Y-76000000D03*
D24*
X69800000Y-59710000D03*
D25*
X69800000Y-60980000D03*
X69800000Y-62250000D03*
X69800000Y-63520000D03*
X69800000Y-64790000D03*
X69800000Y-66060000D03*
X69800000Y-67330000D03*
X69800000Y-68600000D03*
X80400000Y-69255000D03*
D15*
X52500000Y-70800000D03*
X54700000Y-70800000D03*
X55200000Y-67600000D03*
X57400000Y-67600000D03*
D26*
X70000000Y-74700000D03*
D27*
X72000000Y-74700000D03*
D26*
X78000000Y-74700000D03*
D27*
X80000000Y-74700000D03*
M02*
