G04 #@! TF.FileFunction,Legend,Top*
%FSLAX46Y46*%
G04 Gerber Fmt 4.6, Leading zero omitted, Abs format (unit mm)*
G04 Created by KiCad (PCBNEW 4.0.4-stable) date Sunday, October 15, 2017 'PMt' 03:04:39 PM*
%MOMM*%
%LPD*%
G01*
G04 APERTURE LIST*
%ADD10C,0.100000*%
%ADD11C,0.150000*%
%ADD12C,0.120000*%
G04 APERTURE END LIST*
D10*
D11*
X63295239Y-70086905D02*
X63447620Y-70086905D01*
X63523811Y-70125000D01*
X63600001Y-70201190D01*
X63638096Y-70353571D01*
X63638096Y-70620238D01*
X63600001Y-70772619D01*
X63523811Y-70848810D01*
X63447620Y-70886905D01*
X63295239Y-70886905D01*
X63219049Y-70848810D01*
X63142858Y-70772619D01*
X63104763Y-70620238D01*
X63104763Y-70353571D01*
X63142858Y-70201190D01*
X63219049Y-70125000D01*
X63295239Y-70086905D01*
X64247620Y-70467857D02*
X63980953Y-70467857D01*
X63980953Y-70886905D02*
X63980953Y-70086905D01*
X64361906Y-70086905D01*
X64933334Y-70467857D02*
X64666667Y-70467857D01*
X64666667Y-70886905D02*
X64666667Y-70086905D01*
X65047620Y-70086905D01*
X65923810Y-70048810D02*
X65238095Y-71077381D01*
X63409524Y-72160714D02*
X63371429Y-72198810D01*
X63257143Y-72236905D01*
X63180953Y-72236905D01*
X63066667Y-72198810D01*
X62990476Y-72122619D01*
X62952381Y-72046429D01*
X62914286Y-71894048D01*
X62914286Y-71779762D01*
X62952381Y-71627381D01*
X62990476Y-71551190D01*
X63066667Y-71475000D01*
X63180953Y-71436905D01*
X63257143Y-71436905D01*
X63371429Y-71475000D01*
X63409524Y-71513095D01*
X63752381Y-72236905D02*
X63752381Y-71436905D01*
X63752381Y-71817857D02*
X64209524Y-71817857D01*
X64209524Y-72236905D02*
X64209524Y-71436905D01*
X65047619Y-72236905D02*
X64780952Y-71855952D01*
X64590476Y-72236905D02*
X64590476Y-71436905D01*
X64895238Y-71436905D01*
X64971429Y-71475000D01*
X65009524Y-71513095D01*
X65047619Y-71589286D01*
X65047619Y-71703571D01*
X65009524Y-71779762D01*
X64971429Y-71817857D01*
X64895238Y-71855952D01*
X64590476Y-71855952D01*
X65809524Y-71475000D02*
X65733333Y-71436905D01*
X65619048Y-71436905D01*
X65504762Y-71475000D01*
X65428571Y-71551190D01*
X65390476Y-71627381D01*
X65352381Y-71779762D01*
X65352381Y-71894048D01*
X65390476Y-72046429D01*
X65428571Y-72122619D01*
X65504762Y-72198810D01*
X65619048Y-72236905D01*
X65695238Y-72236905D01*
X65809524Y-72198810D01*
X65847619Y-72160714D01*
X65847619Y-71894048D01*
X65695238Y-71894048D01*
X57342857Y-71461905D02*
X57495238Y-71461905D01*
X57571429Y-71500000D01*
X57647619Y-71576190D01*
X57685714Y-71728571D01*
X57685714Y-71995238D01*
X57647619Y-72147619D01*
X57571429Y-72223810D01*
X57495238Y-72261905D01*
X57342857Y-72261905D01*
X57266667Y-72223810D01*
X57190476Y-72147619D01*
X57152381Y-71995238D01*
X57152381Y-71728571D01*
X57190476Y-71576190D01*
X57266667Y-71500000D01*
X57342857Y-71461905D01*
X58028571Y-72261905D02*
X58028571Y-71461905D01*
X58485714Y-72261905D01*
X58485714Y-71461905D01*
X69000000Y-72242857D02*
X69114286Y-72280952D01*
X69152381Y-72319048D01*
X69190476Y-72395238D01*
X69190476Y-72509524D01*
X69152381Y-72585714D01*
X69114286Y-72623810D01*
X69038095Y-72661905D01*
X68733333Y-72661905D01*
X68733333Y-71861905D01*
X69000000Y-71861905D01*
X69076190Y-71900000D01*
X69114286Y-71938095D01*
X69152381Y-72014286D01*
X69152381Y-72090476D01*
X69114286Y-72166667D01*
X69076190Y-72204762D01*
X69000000Y-72242857D01*
X68733333Y-72242857D01*
X69495238Y-72433333D02*
X69876190Y-72433333D01*
X69419047Y-72661905D02*
X69685714Y-71861905D01*
X69952381Y-72661905D01*
X70104761Y-71861905D02*
X70561904Y-71861905D01*
X70333333Y-72661905D02*
X70333333Y-71861905D01*
X70714285Y-71861905D02*
X71171428Y-71861905D01*
X70942857Y-72661905D02*
X70942857Y-71861905D01*
X71438095Y-72242857D02*
X71704762Y-72242857D01*
X71819048Y-72661905D02*
X71438095Y-72661905D01*
X71438095Y-71861905D01*
X71819048Y-71861905D01*
X72619048Y-72661905D02*
X72352381Y-72280952D01*
X72161905Y-72661905D02*
X72161905Y-71861905D01*
X72466667Y-71861905D01*
X72542858Y-71900000D01*
X72580953Y-71938095D01*
X72619048Y-72014286D01*
X72619048Y-72128571D01*
X72580953Y-72204762D01*
X72542858Y-72242857D01*
X72466667Y-72280952D01*
X72161905Y-72280952D01*
X73114286Y-72280952D02*
X73114286Y-72661905D01*
X72847619Y-71861905D02*
X73114286Y-72280952D01*
X73380953Y-71861905D01*
X76923810Y-72585714D02*
X76885715Y-72623810D01*
X76771429Y-72661905D01*
X76695239Y-72661905D01*
X76580953Y-72623810D01*
X76504762Y-72547619D01*
X76466667Y-72471429D01*
X76428572Y-72319048D01*
X76428572Y-72204762D01*
X76466667Y-72052381D01*
X76504762Y-71976190D01*
X76580953Y-71900000D01*
X76695239Y-71861905D01*
X76771429Y-71861905D01*
X76885715Y-71900000D01*
X76923810Y-71938095D01*
X77266667Y-72661905D02*
X77266667Y-71861905D01*
X77266667Y-72242857D02*
X77723810Y-72242857D01*
X77723810Y-72661905D02*
X77723810Y-71861905D01*
X78066667Y-72433333D02*
X78447619Y-72433333D01*
X77990476Y-72661905D02*
X78257143Y-71861905D01*
X78523810Y-72661905D01*
X79247619Y-72661905D02*
X78980952Y-72280952D01*
X78790476Y-72661905D02*
X78790476Y-71861905D01*
X79095238Y-71861905D01*
X79171429Y-71900000D01*
X79209524Y-71938095D01*
X79247619Y-72014286D01*
X79247619Y-72128571D01*
X79209524Y-72204762D01*
X79171429Y-72242857D01*
X79095238Y-72280952D01*
X78790476Y-72280952D01*
X80009524Y-71900000D02*
X79933333Y-71861905D01*
X79819048Y-71861905D01*
X79704762Y-71900000D01*
X79628571Y-71976190D01*
X79590476Y-72052381D01*
X79552381Y-72204762D01*
X79552381Y-72319048D01*
X79590476Y-72471429D01*
X79628571Y-72547619D01*
X79704762Y-72623810D01*
X79819048Y-72661905D01*
X79895238Y-72661905D01*
X80009524Y-72623810D01*
X80047619Y-72585714D01*
X80047619Y-72319048D01*
X79895238Y-72319048D01*
X80390476Y-72242857D02*
X80657143Y-72242857D01*
X80771429Y-72661905D02*
X80390476Y-72661905D01*
X80390476Y-71861905D01*
X80771429Y-71861905D01*
X81571429Y-72661905D02*
X81304762Y-72280952D01*
X81114286Y-72661905D02*
X81114286Y-71861905D01*
X81419048Y-71861905D01*
X81495239Y-71900000D01*
X81533334Y-71938095D01*
X81571429Y-72014286D01*
X81571429Y-72128571D01*
X81533334Y-72204762D01*
X81495239Y-72242857D01*
X81419048Y-72280952D01*
X81114286Y-72280952D01*
D12*
X76750000Y-52690000D02*
X74950000Y-52690000D01*
X74950000Y-55910000D02*
X77400000Y-55910000D01*
X63409999Y-51170000D02*
X53189999Y-51170000D01*
X53189999Y-51170000D02*
X53189999Y-53830000D01*
X53189999Y-53830000D02*
X63409999Y-53830000D01*
X63409999Y-53830000D02*
X63409999Y-51170000D01*
X64679999Y-51170000D02*
X66009999Y-51170000D01*
X66009999Y-51170000D02*
X66009999Y-52500000D01*
X55700000Y-57300000D02*
X55000000Y-57300000D01*
X55000000Y-56100000D02*
X55700000Y-56100000D01*
X60800000Y-68280000D02*
X59800000Y-68280000D01*
X59800000Y-66920000D02*
X60800000Y-66920000D01*
X55850000Y-72500000D02*
X54750000Y-72500000D01*
X54750000Y-72500000D02*
X54750000Y-75100000D01*
X55850000Y-72500000D02*
X55850000Y-75100000D01*
X69700000Y-56050000D02*
X70700000Y-56050000D01*
X70700000Y-54350000D02*
X69700000Y-54350000D01*
X70000000Y-56350000D02*
X69000000Y-56350000D01*
X69000000Y-58050000D02*
X70000000Y-58050000D01*
X52000000Y-62450000D02*
X52000000Y-61750000D01*
X53200000Y-61750000D02*
X53200000Y-62450000D01*
X79250000Y-53500000D02*
X79250000Y-54500000D01*
X80950000Y-54500000D02*
X80950000Y-53500000D01*
D10*
X57250000Y-72650000D02*
X57250000Y-76150000D01*
X65750000Y-72650000D02*
X65750000Y-76150000D01*
X57250000Y-76150000D02*
X65750000Y-76150000D01*
X57250000Y-72650000D02*
X65750000Y-72650000D01*
D11*
X54450000Y-64175000D02*
X54475000Y-64175000D01*
X54450000Y-60025000D02*
X54565000Y-60025000D01*
X63350000Y-60025000D02*
X63235000Y-60025000D01*
X63350000Y-64175000D02*
X63235000Y-64175000D01*
X54450000Y-64175000D02*
X54450000Y-60025000D01*
X63350000Y-64175000D02*
X63350000Y-60025000D01*
X54475000Y-64175000D02*
X54475000Y-65550000D01*
D12*
X68470000Y-60345000D02*
X68470000Y-69295000D01*
X68470000Y-69295000D02*
X71130000Y-69295000D01*
X71130000Y-69295000D02*
X71130000Y-60345000D01*
X71130000Y-60345000D02*
X68470000Y-60345000D01*
X68470000Y-59710000D02*
X68470000Y-59015000D01*
X68470000Y-59015000D02*
X69800000Y-59015000D01*
X54100000Y-71480000D02*
X53100000Y-71480000D01*
X53100000Y-70120000D02*
X54100000Y-70120000D01*
X56800000Y-68280000D02*
X55800000Y-68280000D01*
X55800000Y-66920000D02*
X56800000Y-66920000D01*
D10*
X68000000Y-77500000D02*
X74000000Y-77500000D01*
X74000000Y-77500000D02*
X74000000Y-73000000D01*
X74000000Y-73000000D02*
X68000000Y-73000000D01*
X68000000Y-73000000D02*
X68000000Y-77500000D01*
X76000000Y-77500000D02*
X82000000Y-77500000D01*
X82000000Y-77500000D02*
X82000000Y-73000000D01*
X82000000Y-73000000D02*
X76000000Y-73000000D01*
X76000000Y-73000000D02*
X76000000Y-77500000D01*
X76666667Y-56216667D02*
X76666667Y-56783333D01*
X76700000Y-56850000D01*
X76733333Y-56883333D01*
X76800000Y-56916667D01*
X76933333Y-56916667D01*
X77000000Y-56883333D01*
X77033333Y-56850000D01*
X77066667Y-56783333D01*
X77066667Y-56216667D01*
X77333333Y-56216667D02*
X77766666Y-56216667D01*
X77533333Y-56483333D01*
X77633333Y-56483333D01*
X77700000Y-56516667D01*
X77733333Y-56550000D01*
X77766666Y-56616667D01*
X77766666Y-56783333D01*
X77733333Y-56850000D01*
X77700000Y-56883333D01*
X77633333Y-56916667D01*
X77433333Y-56916667D01*
X77366666Y-56883333D01*
X77333333Y-56850000D01*
X66583334Y-52816667D02*
X66583334Y-52116667D01*
X66850000Y-52116667D01*
X66916667Y-52150000D01*
X66950000Y-52183333D01*
X66983334Y-52250000D01*
X66983334Y-52350000D01*
X66950000Y-52416667D01*
X66916667Y-52450000D01*
X66850000Y-52483333D01*
X66583334Y-52483333D01*
X67250000Y-52183333D02*
X67283334Y-52150000D01*
X67350000Y-52116667D01*
X67516667Y-52116667D01*
X67583334Y-52150000D01*
X67616667Y-52183333D01*
X67650000Y-52250000D01*
X67650000Y-52316667D01*
X67616667Y-52416667D01*
X67216667Y-52816667D01*
X67650000Y-52816667D01*
X55233334Y-55807000D02*
X55200000Y-55840333D01*
X55100000Y-55873667D01*
X55033334Y-55873667D01*
X54933334Y-55840333D01*
X54866667Y-55773667D01*
X54833334Y-55707000D01*
X54800000Y-55573667D01*
X54800000Y-55473667D01*
X54833334Y-55340333D01*
X54866667Y-55273667D01*
X54933334Y-55207000D01*
X55033334Y-55173667D01*
X55100000Y-55173667D01*
X55200000Y-55207000D01*
X55233334Y-55240333D01*
X55500000Y-55240333D02*
X55533334Y-55207000D01*
X55600000Y-55173667D01*
X55766667Y-55173667D01*
X55833334Y-55207000D01*
X55866667Y-55240333D01*
X55900000Y-55307000D01*
X55900000Y-55373667D01*
X55866667Y-55473667D01*
X55466667Y-55873667D01*
X55900000Y-55873667D01*
X60183334Y-69216667D02*
X59950000Y-68883333D01*
X59783334Y-69216667D02*
X59783334Y-68516667D01*
X60050000Y-68516667D01*
X60116667Y-68550000D01*
X60150000Y-68583333D01*
X60183334Y-68650000D01*
X60183334Y-68750000D01*
X60150000Y-68816667D01*
X60116667Y-68850000D01*
X60050000Y-68883333D01*
X59783334Y-68883333D01*
X60850000Y-69216667D02*
X60450000Y-69216667D01*
X60650000Y-69216667D02*
X60650000Y-68516667D01*
X60583334Y-68616667D01*
X60516667Y-68683333D01*
X60450000Y-68716667D01*
X53383334Y-73516667D02*
X53383334Y-72816667D01*
X53550000Y-72816667D01*
X53650000Y-72850000D01*
X53716667Y-72916667D01*
X53750000Y-72983333D01*
X53783334Y-73116667D01*
X53783334Y-73216667D01*
X53750000Y-73350000D01*
X53716667Y-73416667D01*
X53650000Y-73483333D01*
X53550000Y-73516667D01*
X53383334Y-73516667D01*
X54450000Y-73516667D02*
X54050000Y-73516667D01*
X54250000Y-73516667D02*
X54250000Y-72816667D01*
X54183334Y-72916667D01*
X54116667Y-72983333D01*
X54050000Y-73016667D01*
X70083334Y-54050000D02*
X70050000Y-54083333D01*
X69950000Y-54116667D01*
X69883334Y-54116667D01*
X69783334Y-54083333D01*
X69716667Y-54016667D01*
X69683334Y-53950000D01*
X69650000Y-53816667D01*
X69650000Y-53716667D01*
X69683334Y-53583333D01*
X69716667Y-53516667D01*
X69783334Y-53450000D01*
X69883334Y-53416667D01*
X69950000Y-53416667D01*
X70050000Y-53450000D01*
X70083334Y-53483333D01*
X70716667Y-53416667D02*
X70383334Y-53416667D01*
X70350000Y-53750000D01*
X70383334Y-53716667D01*
X70450000Y-53683333D01*
X70616667Y-53683333D01*
X70683334Y-53716667D01*
X70716667Y-53750000D01*
X70750000Y-53816667D01*
X70750000Y-53983333D01*
X70716667Y-54050000D01*
X70683334Y-54083333D01*
X70616667Y-54116667D01*
X70450000Y-54116667D01*
X70383334Y-54083333D01*
X70350000Y-54050000D01*
X72383334Y-57450000D02*
X72350000Y-57483333D01*
X72250000Y-57516667D01*
X72183334Y-57516667D01*
X72083334Y-57483333D01*
X72016667Y-57416667D01*
X71983334Y-57350000D01*
X71950000Y-57216667D01*
X71950000Y-57116667D01*
X71983334Y-56983333D01*
X72016667Y-56916667D01*
X72083334Y-56850000D01*
X72183334Y-56816667D01*
X72250000Y-56816667D01*
X72350000Y-56850000D01*
X72383334Y-56883333D01*
X73050000Y-57516667D02*
X72650000Y-57516667D01*
X72850000Y-57516667D02*
X72850000Y-56816667D01*
X72783334Y-56916667D01*
X72716667Y-56983333D01*
X72650000Y-57016667D01*
X52483334Y-60050000D02*
X52450000Y-60083333D01*
X52350000Y-60116667D01*
X52283334Y-60116667D01*
X52183334Y-60083333D01*
X52116667Y-60016667D01*
X52083334Y-59950000D01*
X52050000Y-59816667D01*
X52050000Y-59716667D01*
X52083334Y-59583333D01*
X52116667Y-59516667D01*
X52183334Y-59450000D01*
X52283334Y-59416667D01*
X52350000Y-59416667D01*
X52450000Y-59450000D01*
X52483334Y-59483333D01*
X52716667Y-59416667D02*
X53150000Y-59416667D01*
X52916667Y-59683333D01*
X53016667Y-59683333D01*
X53083334Y-59716667D01*
X53116667Y-59750000D01*
X53150000Y-59816667D01*
X53150000Y-59983333D01*
X53116667Y-60050000D01*
X53083334Y-60083333D01*
X53016667Y-60116667D01*
X52816667Y-60116667D01*
X52750000Y-60083333D01*
X52716667Y-60050000D01*
X79983334Y-57050000D02*
X79950000Y-57083333D01*
X79850000Y-57116667D01*
X79783334Y-57116667D01*
X79683334Y-57083333D01*
X79616667Y-57016667D01*
X79583334Y-56950000D01*
X79550000Y-56816667D01*
X79550000Y-56716667D01*
X79583334Y-56583333D01*
X79616667Y-56516667D01*
X79683334Y-56450000D01*
X79783334Y-56416667D01*
X79850000Y-56416667D01*
X79950000Y-56450000D01*
X79983334Y-56483333D01*
X80583334Y-56650000D02*
X80583334Y-57116667D01*
X80416667Y-56383333D02*
X80250000Y-56883333D01*
X80683334Y-56883333D01*
X55966666Y-77283333D02*
X56066666Y-77316667D01*
X56233333Y-77316667D01*
X56300000Y-77283333D01*
X56333333Y-77250000D01*
X56366666Y-77183333D01*
X56366666Y-77116667D01*
X56333333Y-77050000D01*
X56300000Y-77016667D01*
X56233333Y-76983333D01*
X56100000Y-76950000D01*
X56033333Y-76916667D01*
X56000000Y-76883333D01*
X55966666Y-76816667D01*
X55966666Y-76750000D01*
X56000000Y-76683333D01*
X56033333Y-76650000D01*
X56100000Y-76616667D01*
X56266666Y-76616667D01*
X56366666Y-76650000D01*
X56600000Y-76616667D02*
X56766667Y-77316667D01*
X56900000Y-76816667D01*
X57033333Y-77316667D01*
X57200000Y-76616667D01*
X57833333Y-77316667D02*
X57433333Y-77316667D01*
X57633333Y-77316667D02*
X57633333Y-76616667D01*
X57566667Y-76716667D01*
X57500000Y-76783333D01*
X57433333Y-76816667D01*
X52966667Y-64416667D02*
X52966667Y-64983333D01*
X53000000Y-65050000D01*
X53033333Y-65083333D01*
X53100000Y-65116667D01*
X53233333Y-65116667D01*
X53300000Y-65083333D01*
X53333333Y-65050000D01*
X53366667Y-64983333D01*
X53366667Y-64416667D01*
X53666666Y-64483333D02*
X53700000Y-64450000D01*
X53766666Y-64416667D01*
X53933333Y-64416667D01*
X54000000Y-64450000D01*
X54033333Y-64483333D01*
X54066666Y-64550000D01*
X54066666Y-64616667D01*
X54033333Y-64716667D01*
X53633333Y-65116667D01*
X54066666Y-65116667D01*
X66866667Y-59316667D02*
X66866667Y-59883333D01*
X66900000Y-59950000D01*
X66933333Y-59983333D01*
X67000000Y-60016667D01*
X67133333Y-60016667D01*
X67200000Y-59983333D01*
X67233333Y-59950000D01*
X67266667Y-59883333D01*
X67266667Y-59316667D01*
X67966666Y-60016667D02*
X67566666Y-60016667D01*
X67766666Y-60016667D02*
X67766666Y-59316667D01*
X67700000Y-59416667D01*
X67633333Y-59483333D01*
X67566666Y-59516667D01*
X53483334Y-69916667D02*
X53250000Y-69583333D01*
X53083334Y-69916667D02*
X53083334Y-69216667D01*
X53350000Y-69216667D01*
X53416667Y-69250000D01*
X53450000Y-69283333D01*
X53483334Y-69350000D01*
X53483334Y-69450000D01*
X53450000Y-69516667D01*
X53416667Y-69550000D01*
X53350000Y-69583333D01*
X53083334Y-69583333D01*
X53750000Y-69283333D02*
X53783334Y-69250000D01*
X53850000Y-69216667D01*
X54016667Y-69216667D01*
X54083334Y-69250000D01*
X54116667Y-69283333D01*
X54150000Y-69350000D01*
X54150000Y-69416667D01*
X54116667Y-69516667D01*
X53716667Y-69916667D01*
X54150000Y-69916667D01*
X56183334Y-69216667D02*
X55950000Y-68883333D01*
X55783334Y-69216667D02*
X55783334Y-68516667D01*
X56050000Y-68516667D01*
X56116667Y-68550000D01*
X56150000Y-68583333D01*
X56183334Y-68650000D01*
X56183334Y-68750000D01*
X56150000Y-68816667D01*
X56116667Y-68850000D01*
X56050000Y-68883333D01*
X55783334Y-68883333D01*
X56416667Y-68516667D02*
X56850000Y-68516667D01*
X56616667Y-68783333D01*
X56716667Y-68783333D01*
X56783334Y-68816667D01*
X56816667Y-68850000D01*
X56850000Y-68916667D01*
X56850000Y-69083333D01*
X56816667Y-69150000D01*
X56783334Y-69183333D01*
X56716667Y-69216667D01*
X56516667Y-69216667D01*
X56450000Y-69183333D01*
X56416667Y-69150000D01*
X66683334Y-75016667D02*
X66683334Y-74316667D01*
X66950000Y-74316667D01*
X67016667Y-74350000D01*
X67050000Y-74383333D01*
X67083334Y-74450000D01*
X67083334Y-74550000D01*
X67050000Y-74616667D01*
X67016667Y-74650000D01*
X66950000Y-74683333D01*
X66683334Y-74683333D01*
X67316667Y-74316667D02*
X67750000Y-74316667D01*
X67516667Y-74583333D01*
X67616667Y-74583333D01*
X67683334Y-74616667D01*
X67716667Y-74650000D01*
X67750000Y-74716667D01*
X67750000Y-74883333D01*
X67716667Y-74950000D01*
X67683334Y-74983333D01*
X67616667Y-75016667D01*
X67416667Y-75016667D01*
X67350000Y-74983333D01*
X67316667Y-74950000D01*
X74683334Y-75016667D02*
X74683334Y-74316667D01*
X74950000Y-74316667D01*
X75016667Y-74350000D01*
X75050000Y-74383333D01*
X75083334Y-74450000D01*
X75083334Y-74550000D01*
X75050000Y-74616667D01*
X75016667Y-74650000D01*
X74950000Y-74683333D01*
X74683334Y-74683333D01*
X75683334Y-74550000D02*
X75683334Y-75016667D01*
X75516667Y-74283333D02*
X75350000Y-74783333D01*
X75783334Y-74783333D01*
M02*
