G04 #@! TF.FileFunction,Copper,L2,Bot,Signal*
%FSLAX46Y46*%
G04 Gerber Fmt 4.6, Leading zero omitted, Abs format (unit mm)*
G04 Created by KiCad (PCBNEW 4.0.4-stable) date Sunday, October 15, 2017 'PMt' 03:04:39 PM*
%MOMM*%
%LPD*%
G01*
G04 APERTURE LIST*
%ADD10C,0.100000*%
%ADD11R,1.700000X1.700000*%
%ADD12O,1.700000X1.700000*%
%ADD13R,1.000000X3.000000*%
%ADD14R,1.000000X1.000000*%
%ADD15O,1.000000X1.000000*%
%ADD16R,1.350000X1.350000*%
%ADD17O,1.350000X1.350000*%
%ADD18C,1.000000*%
%ADD19C,0.650000*%
%ADD20C,1.000000*%
%ADD21C,0.600000*%
%ADD22C,0.400000*%
%ADD23C,0.250000*%
G04 APERTURE END LIST*
D10*
D11*
X64679999Y-52500000D03*
D12*
X62139999Y-52500000D03*
X59599999Y-52500000D03*
X57059999Y-52500000D03*
X54519999Y-52500000D03*
D13*
X78440000Y-61180000D03*
X78440000Y-66220000D03*
X75900000Y-61180000D03*
X75900000Y-66220000D03*
X73360000Y-61180000D03*
X73360000Y-66220000D03*
D14*
X69800000Y-59710000D03*
D15*
X69800000Y-60980000D03*
X69800000Y-62250000D03*
X69800000Y-63520000D03*
X69800000Y-64790000D03*
X69800000Y-66060000D03*
X69800000Y-67330000D03*
X69800000Y-68600000D03*
X80400000Y-69255000D03*
D16*
X70000000Y-74700000D03*
D17*
X72000000Y-74700000D03*
D16*
X78000000Y-74700000D03*
D17*
X80000000Y-74700000D03*
D18*
X72000000Y-72500000D03*
X79000000Y-72000000D03*
X77000000Y-72000000D03*
X75000000Y-73000000D03*
X73300000Y-59000000D03*
X68600000Y-51400000D03*
X71600000Y-51400000D03*
X74600000Y-51400000D03*
X77600000Y-51400000D03*
X65000000Y-57000000D03*
X63000000Y-57000000D03*
X53000000Y-58000000D03*
D19*
X55100000Y-69000000D03*
X57400000Y-70000000D03*
D18*
X74500000Y-57200000D03*
X62000000Y-55300000D03*
D19*
X67400000Y-61100000D03*
X74900000Y-66200000D03*
X64100000Y-59400000D03*
X57400000Y-68600000D03*
X58900000Y-65800000D03*
D20*
X77000000Y-72000000D02*
X79000000Y-72000000D01*
X73360000Y-61180000D02*
X73360000Y-59060000D01*
X73360000Y-59060000D02*
X73300000Y-59000000D01*
X71600000Y-51400000D02*
X68600000Y-51400000D01*
X77600000Y-51400000D02*
X74600000Y-51400000D01*
D21*
X64679999Y-52500000D02*
X64679999Y-55320001D01*
X64679999Y-55320001D02*
X63000000Y-57000000D01*
X57400000Y-70000000D02*
X56100000Y-70000000D01*
X56100000Y-70000000D02*
X55100000Y-69000000D01*
D20*
X78440000Y-61180000D02*
X78440000Y-60180000D01*
X78440000Y-60180000D02*
X75460000Y-57200000D01*
X75460000Y-57200000D02*
X75180002Y-57200000D01*
X75180002Y-57200000D02*
X74500000Y-57200000D01*
X62000000Y-55300000D02*
X56400000Y-55300000D01*
X56400000Y-55300000D02*
X54519999Y-53419999D01*
X54519999Y-53419999D02*
X54519999Y-52500000D01*
D22*
X69800000Y-64790000D02*
X68390000Y-64790000D01*
X68390000Y-64790000D02*
X67400000Y-63800000D01*
X67400000Y-63800000D02*
X67400000Y-61100000D01*
X75900000Y-66220000D02*
X74920000Y-66220000D01*
X74920000Y-66220000D02*
X74900000Y-66200000D01*
X75900000Y-66220000D02*
X75900000Y-65200000D01*
X75900000Y-67120000D02*
X75900000Y-66120000D01*
X69800000Y-66060000D02*
X70140000Y-66060000D01*
X70140000Y-66060000D02*
X71400000Y-64800000D01*
X71900000Y-63400000D02*
X74680000Y-63400000D01*
X71400000Y-64800000D02*
X71400000Y-63900000D01*
X71400000Y-63900000D02*
X71900000Y-63400000D01*
X75900000Y-62180000D02*
X75900000Y-61180000D01*
X74680000Y-63400000D02*
X75900000Y-62180000D01*
X69800000Y-67330000D02*
X66930000Y-67330000D01*
X66930000Y-67330000D02*
X65400000Y-65800000D01*
X65400000Y-65800000D02*
X65400000Y-60400000D01*
X65400000Y-60400000D02*
X64400000Y-59400000D01*
X64400000Y-59400000D02*
X64100000Y-59400000D01*
X78440000Y-66220000D02*
X78440000Y-64740000D01*
X77800000Y-64100000D02*
X72540000Y-64100000D01*
X78440000Y-64740000D02*
X77800000Y-64100000D01*
X72540000Y-64100000D02*
X72100000Y-64540000D01*
X72100000Y-64540000D02*
X72100000Y-65500000D01*
X72100000Y-65500000D02*
X70270000Y-67330000D01*
X70270000Y-67330000D02*
X69800000Y-67330000D01*
X78440000Y-66220000D02*
X78440000Y-67660000D01*
X73360000Y-66220000D02*
X73360000Y-67640000D01*
X73360000Y-67640000D02*
X71000000Y-70000000D01*
X71000000Y-70000000D02*
X67600000Y-70000000D01*
X67600000Y-70000000D02*
X66800000Y-69200000D01*
X59300000Y-69125000D02*
X59325000Y-69100000D01*
X66800000Y-69200000D02*
X59300000Y-69200000D01*
X59300000Y-69200000D02*
X59300000Y-69125000D01*
X59325000Y-69100000D02*
X59225000Y-69200000D01*
X59225000Y-69200000D02*
X58000000Y-69200000D01*
X58000000Y-69200000D02*
X57400000Y-68600000D01*
X58900000Y-68675000D02*
X59325000Y-69100000D01*
X58900000Y-65800000D02*
X58900000Y-68675000D01*
D23*
G36*
X79575000Y-59668074D02*
X79533663Y-59448389D01*
X79396781Y-59235668D01*
X79187924Y-59092962D01*
X78940000Y-59042756D01*
X78893746Y-59042756D01*
X76255495Y-56404505D01*
X76211351Y-56375009D01*
X75890519Y-56160636D01*
X75460000Y-56075000D01*
X74500409Y-56075000D01*
X74277205Y-56074805D01*
X73863571Y-56245715D01*
X73546828Y-56561907D01*
X73375196Y-56975242D01*
X73374805Y-57422795D01*
X73545715Y-57836429D01*
X73861907Y-58153172D01*
X74275242Y-58324804D01*
X74722795Y-58325195D01*
X74723267Y-58325000D01*
X74994010Y-58325000D01*
X75711766Y-59042756D01*
X75400000Y-59042756D01*
X75168389Y-59086337D01*
X74955668Y-59223219D01*
X74812962Y-59432076D01*
X74762756Y-59680000D01*
X74762756Y-62150518D01*
X74485000Y-62428274D01*
X74485000Y-61461250D01*
X74328750Y-61305000D01*
X73485000Y-61305000D01*
X73485000Y-61325000D01*
X73235000Y-61325000D01*
X73235000Y-61305000D01*
X72391250Y-61305000D01*
X72235000Y-61461250D01*
X72235000Y-62575000D01*
X71900000Y-62575000D01*
X71584286Y-62637799D01*
X71316637Y-62816637D01*
X70891664Y-63241610D01*
X70861404Y-63089481D01*
X70724774Y-62885000D01*
X70861404Y-62680519D01*
X70947040Y-62250000D01*
X70861404Y-61819481D01*
X70724774Y-61615000D01*
X70861404Y-61410519D01*
X70947040Y-60980000D01*
X70861404Y-60549481D01*
X70845646Y-60525897D01*
X70925000Y-60334320D01*
X70925000Y-59991250D01*
X70768750Y-59835000D01*
X69925000Y-59835000D01*
X69925000Y-59855000D01*
X69675000Y-59855000D01*
X69675000Y-59835000D01*
X68831250Y-59835000D01*
X68675000Y-59991250D01*
X68675000Y-60334320D01*
X68754354Y-60525897D01*
X68738596Y-60549481D01*
X68652960Y-60980000D01*
X68738596Y-61410519D01*
X68875226Y-61615000D01*
X68738596Y-61819481D01*
X68652960Y-62250000D01*
X68738596Y-62680519D01*
X68875226Y-62885000D01*
X68738596Y-63089481D01*
X68652960Y-63520000D01*
X68738596Y-63950519D01*
X68748272Y-63965000D01*
X68731726Y-63965000D01*
X68225000Y-63458274D01*
X68225000Y-61590433D01*
X68349835Y-61289796D01*
X68350165Y-60911862D01*
X68205841Y-60562571D01*
X67938835Y-60295098D01*
X67589796Y-60150165D01*
X67211862Y-60149835D01*
X66862571Y-60294159D01*
X66595098Y-60561165D01*
X66450165Y-60910204D01*
X66449835Y-61288138D01*
X66575000Y-61591061D01*
X66575000Y-63800000D01*
X66637799Y-64115714D01*
X66816637Y-64383363D01*
X67806637Y-65373363D01*
X68074286Y-65552201D01*
X68390000Y-65615000D01*
X68748272Y-65615000D01*
X68738596Y-65629481D01*
X68652960Y-66060000D01*
X68738596Y-66490519D01*
X68748272Y-66505000D01*
X67271726Y-66505000D01*
X66225000Y-65458274D01*
X66225000Y-60400000D01*
X66162201Y-60084286D01*
X65983363Y-59816637D01*
X65252406Y-59085680D01*
X68675000Y-59085680D01*
X68675000Y-59428750D01*
X68831250Y-59585000D01*
X69675000Y-59585000D01*
X69675000Y-58741250D01*
X69925000Y-58741250D01*
X69925000Y-59585000D01*
X70768750Y-59585000D01*
X70798070Y-59555680D01*
X72235000Y-59555680D01*
X72235000Y-60898750D01*
X72391250Y-61055000D01*
X73235000Y-61055000D01*
X73235000Y-59211250D01*
X73485000Y-59211250D01*
X73485000Y-61055000D01*
X74328750Y-61055000D01*
X74485000Y-60898750D01*
X74485000Y-59555680D01*
X74389850Y-59325966D01*
X74214034Y-59150151D01*
X73984320Y-59055000D01*
X73641250Y-59055000D01*
X73485000Y-59211250D01*
X73235000Y-59211250D01*
X73078750Y-59055000D01*
X72735680Y-59055000D01*
X72505966Y-59150151D01*
X72330150Y-59325966D01*
X72235000Y-59555680D01*
X70798070Y-59555680D01*
X70925000Y-59428750D01*
X70925000Y-59085680D01*
X70829849Y-58855966D01*
X70654034Y-58680150D01*
X70424320Y-58585000D01*
X70081250Y-58585000D01*
X69925000Y-58741250D01*
X69675000Y-58741250D01*
X69518750Y-58585000D01*
X69175680Y-58585000D01*
X68945966Y-58680150D01*
X68770151Y-58855966D01*
X68675000Y-59085680D01*
X65252406Y-59085680D01*
X64983363Y-58816637D01*
X64715714Y-58637799D01*
X64672975Y-58629298D01*
X64638835Y-58595098D01*
X64289796Y-58450165D01*
X63911862Y-58449835D01*
X63562571Y-58594159D01*
X63295098Y-58861165D01*
X63150165Y-59210204D01*
X63149835Y-59588138D01*
X63294159Y-59937429D01*
X63561165Y-60204902D01*
X63910204Y-60349835D01*
X64183348Y-60350074D01*
X64575000Y-60741726D01*
X64575000Y-65800000D01*
X64637799Y-66115714D01*
X64816637Y-66383363D01*
X66346637Y-67913363D01*
X66614286Y-68092201D01*
X66930000Y-68155000D01*
X68748272Y-68155000D01*
X68738596Y-68169481D01*
X68652960Y-68600000D01*
X68738596Y-69030519D01*
X68835135Y-69175000D01*
X67941726Y-69175000D01*
X67383363Y-68616637D01*
X67115714Y-68437799D01*
X66800000Y-68375000D01*
X59766726Y-68375000D01*
X59725000Y-68333274D01*
X59725000Y-66290433D01*
X59849835Y-65989796D01*
X59850165Y-65611862D01*
X59705841Y-65262571D01*
X59438835Y-64995098D01*
X59089796Y-64850165D01*
X58711862Y-64849835D01*
X58362571Y-64994159D01*
X58095098Y-65261165D01*
X57950165Y-65610204D01*
X57949835Y-65988138D01*
X58075000Y-66291061D01*
X58075000Y-67931501D01*
X57938835Y-67795098D01*
X57589796Y-67650165D01*
X57211862Y-67649835D01*
X56862571Y-67794159D01*
X56595098Y-68061165D01*
X56450165Y-68410204D01*
X56449835Y-68788138D01*
X56568364Y-69075000D01*
X56483147Y-69075000D01*
X55930572Y-68522424D01*
X55905841Y-68462571D01*
X55638835Y-68195098D01*
X55289796Y-68050165D01*
X54911862Y-68049835D01*
X54562571Y-68194159D01*
X54295098Y-68461165D01*
X54150165Y-68810204D01*
X54149835Y-69188138D01*
X54294159Y-69537429D01*
X54561165Y-69804902D01*
X54622026Y-69830173D01*
X55445924Y-70654071D01*
X55445926Y-70654074D01*
X55701735Y-70825000D01*
X55746018Y-70854589D01*
X56100000Y-70925001D01*
X56100005Y-70925000D01*
X57150394Y-70925000D01*
X57210204Y-70949835D01*
X57588138Y-70950165D01*
X57937429Y-70805841D01*
X58204902Y-70538835D01*
X58349835Y-70189796D01*
X58349979Y-70025000D01*
X59225000Y-70025000D01*
X59262500Y-70017541D01*
X59300000Y-70025000D01*
X66458274Y-70025000D01*
X67016637Y-70583363D01*
X67284286Y-70762201D01*
X67600000Y-70825000D01*
X71000000Y-70825000D01*
X71315714Y-70762201D01*
X71583363Y-70583363D01*
X73809482Y-68357244D01*
X73860000Y-68357244D01*
X74091611Y-68313663D01*
X74304332Y-68176781D01*
X74447038Y-67967924D01*
X74497244Y-67720000D01*
X74497244Y-67061407D01*
X74710204Y-67149835D01*
X74762756Y-67149881D01*
X74762756Y-67720000D01*
X74806337Y-67951611D01*
X74943219Y-68164332D01*
X75152076Y-68307038D01*
X75400000Y-68357244D01*
X76400000Y-68357244D01*
X76631611Y-68313663D01*
X76844332Y-68176781D01*
X76987038Y-67967924D01*
X77037244Y-67720000D01*
X77037244Y-64925000D01*
X77302756Y-64925000D01*
X77302756Y-67720000D01*
X77346337Y-67951611D01*
X77483219Y-68164332D01*
X77692076Y-68307038D01*
X77940000Y-68357244D01*
X78027071Y-68357244D01*
X78124286Y-68422201D01*
X78440000Y-68485000D01*
X78755714Y-68422201D01*
X78852929Y-68357244D01*
X78940000Y-68357244D01*
X79171611Y-68313663D01*
X79384332Y-68176781D01*
X79527038Y-67967924D01*
X79575000Y-67731081D01*
X79575000Y-68470677D01*
X79338596Y-68824481D01*
X79252960Y-69255000D01*
X79338596Y-69685519D01*
X79575000Y-70039323D01*
X79575000Y-73482561D01*
X79340540Y-73579670D01*
X79207500Y-73698339D01*
X79131781Y-73580668D01*
X78922924Y-73437962D01*
X78675000Y-73387756D01*
X77325000Y-73387756D01*
X77093389Y-73431337D01*
X76880668Y-73568219D01*
X76737962Y-73777076D01*
X76687756Y-74025000D01*
X76687756Y-75375000D01*
X76731337Y-75606611D01*
X76868219Y-75819332D01*
X77077076Y-75962038D01*
X77325000Y-76012244D01*
X78675000Y-76012244D01*
X78906611Y-75968663D01*
X79119332Y-75831781D01*
X79207959Y-75702071D01*
X79340540Y-75820330D01*
X79575000Y-75917439D01*
X79575000Y-77325000D01*
X53114336Y-77325000D01*
X53461531Y-76978410D01*
X53724700Y-76344629D01*
X53725299Y-75658382D01*
X53463237Y-75024142D01*
X53052705Y-74612893D01*
X57024814Y-74612893D01*
X57188128Y-75008143D01*
X57490267Y-75310809D01*
X57885231Y-75474813D01*
X58312893Y-75475186D01*
X58708143Y-75311872D01*
X59010809Y-75009733D01*
X59174813Y-74614769D01*
X59174814Y-74612893D01*
X63824814Y-74612893D01*
X63988128Y-75008143D01*
X64290267Y-75310809D01*
X64685231Y-75474813D01*
X65112893Y-75475186D01*
X65508143Y-75311872D01*
X65810809Y-75009733D01*
X65974813Y-74614769D01*
X65975186Y-74187107D01*
X65908205Y-74025000D01*
X68687756Y-74025000D01*
X68687756Y-75375000D01*
X68731337Y-75606611D01*
X68868219Y-75819332D01*
X69077076Y-75962038D01*
X69325000Y-76012244D01*
X70675000Y-76012244D01*
X70906611Y-75968663D01*
X71119332Y-75831781D01*
X71207959Y-75702071D01*
X71340540Y-75820330D01*
X71674117Y-75958491D01*
X71875000Y-75836899D01*
X71875000Y-74825000D01*
X72125000Y-74825000D01*
X72125000Y-75836899D01*
X72325883Y-75958491D01*
X72659460Y-75820330D01*
X73037993Y-75482686D01*
X73258502Y-75025885D01*
X73137737Y-74825000D01*
X72125000Y-74825000D01*
X71875000Y-74825000D01*
X71855000Y-74825000D01*
X71855000Y-74575000D01*
X71875000Y-74575000D01*
X71875000Y-73563101D01*
X72125000Y-73563101D01*
X72125000Y-74575000D01*
X73137737Y-74575000D01*
X73258502Y-74374115D01*
X73037993Y-73917314D01*
X72659460Y-73579670D01*
X72325883Y-73441509D01*
X72125000Y-73563101D01*
X71875000Y-73563101D01*
X71674117Y-73441509D01*
X71340540Y-73579670D01*
X71207500Y-73698339D01*
X71131781Y-73580668D01*
X70922924Y-73437962D01*
X70675000Y-73387756D01*
X69325000Y-73387756D01*
X69093389Y-73431337D01*
X68880668Y-73568219D01*
X68737962Y-73777076D01*
X68687756Y-74025000D01*
X65908205Y-74025000D01*
X65811872Y-73791857D01*
X65509733Y-73489191D01*
X65114769Y-73325187D01*
X64687107Y-73324814D01*
X64291857Y-73488128D01*
X63989191Y-73790267D01*
X63825187Y-74185231D01*
X63824814Y-74612893D01*
X59174814Y-74612893D01*
X59175186Y-74187107D01*
X59011872Y-73791857D01*
X58709733Y-73489191D01*
X58314769Y-73325187D01*
X57887107Y-73324814D01*
X57491857Y-73488128D01*
X57189191Y-73790267D01*
X57025187Y-74185231D01*
X57024814Y-74612893D01*
X53052705Y-74612893D01*
X52978410Y-74538469D01*
X52344629Y-74275300D01*
X51658382Y-74274701D01*
X51024142Y-74536763D01*
X50675000Y-74885297D01*
X50675000Y-52471103D01*
X53044999Y-52471103D01*
X53044999Y-52528897D01*
X53157277Y-53093355D01*
X53403250Y-53461482D01*
X53480635Y-53850518D01*
X53697447Y-54175000D01*
X53724504Y-54215494D01*
X55604505Y-56095495D01*
X55969481Y-56339364D01*
X56400000Y-56425000D01*
X61999591Y-56425000D01*
X62222795Y-56425195D01*
X62636429Y-56254285D01*
X62953172Y-55938093D01*
X63124804Y-55524758D01*
X63125195Y-55077205D01*
X62954285Y-54663571D01*
X62638093Y-54346828D01*
X62224758Y-54175196D01*
X61777205Y-54174805D01*
X61776733Y-54175000D01*
X56865990Y-54175000D01*
X56604228Y-53913238D01*
X57059999Y-54003897D01*
X57624457Y-53891619D01*
X58102982Y-53571880D01*
X58329999Y-53232124D01*
X58557016Y-53571880D01*
X59035541Y-53891619D01*
X59599999Y-54003897D01*
X60164457Y-53891619D01*
X60642982Y-53571880D01*
X60869999Y-53232124D01*
X61097016Y-53571880D01*
X61575541Y-53891619D01*
X62139999Y-54003897D01*
X62704457Y-53891619D01*
X63182982Y-53571880D01*
X63221520Y-53514204D01*
X63300149Y-53704034D01*
X63475965Y-53879849D01*
X63705679Y-53975000D01*
X64398749Y-53975000D01*
X64554999Y-53818750D01*
X64554999Y-52625000D01*
X64804999Y-52625000D01*
X64804999Y-53818750D01*
X64961249Y-53975000D01*
X65654319Y-53975000D01*
X65884033Y-53879849D01*
X66059849Y-53704034D01*
X66154999Y-53474320D01*
X66154999Y-52781250D01*
X65998749Y-52625000D01*
X64804999Y-52625000D01*
X64554999Y-52625000D01*
X64534999Y-52625000D01*
X64534999Y-52375000D01*
X64554999Y-52375000D01*
X64554999Y-51181250D01*
X64804999Y-51181250D01*
X64804999Y-52375000D01*
X65998749Y-52375000D01*
X66154999Y-52218750D01*
X66154999Y-51525680D01*
X66059849Y-51295966D01*
X65884033Y-51120151D01*
X65654319Y-51025000D01*
X64961249Y-51025000D01*
X64804999Y-51181250D01*
X64554999Y-51181250D01*
X64398749Y-51025000D01*
X63705679Y-51025000D01*
X63475965Y-51120151D01*
X63300149Y-51295966D01*
X63221520Y-51485796D01*
X63182982Y-51428120D01*
X62704457Y-51108381D01*
X62139999Y-50996103D01*
X61575541Y-51108381D01*
X61097016Y-51428120D01*
X60869999Y-51767876D01*
X60642982Y-51428120D01*
X60164457Y-51108381D01*
X59599999Y-50996103D01*
X59035541Y-51108381D01*
X58557016Y-51428120D01*
X58329999Y-51767876D01*
X58102982Y-51428120D01*
X57624457Y-51108381D01*
X57059999Y-50996103D01*
X56495541Y-51108381D01*
X56017016Y-51428120D01*
X55789999Y-51767876D01*
X55562982Y-51428120D01*
X55084457Y-51108381D01*
X54519999Y-50996103D01*
X53955541Y-51108381D01*
X53477016Y-51428120D01*
X53157277Y-51906645D01*
X53044999Y-52471103D01*
X50675000Y-52471103D01*
X50675000Y-52066481D01*
X50788077Y-51498006D01*
X51072435Y-51072434D01*
X51498005Y-50788078D01*
X52066487Y-50675000D01*
X79575000Y-50675000D01*
X79575000Y-59668074D01*
X79575000Y-59668074D01*
G37*
X79575000Y-59668074D02*
X79533663Y-59448389D01*
X79396781Y-59235668D01*
X79187924Y-59092962D01*
X78940000Y-59042756D01*
X78893746Y-59042756D01*
X76255495Y-56404505D01*
X76211351Y-56375009D01*
X75890519Y-56160636D01*
X75460000Y-56075000D01*
X74500409Y-56075000D01*
X74277205Y-56074805D01*
X73863571Y-56245715D01*
X73546828Y-56561907D01*
X73375196Y-56975242D01*
X73374805Y-57422795D01*
X73545715Y-57836429D01*
X73861907Y-58153172D01*
X74275242Y-58324804D01*
X74722795Y-58325195D01*
X74723267Y-58325000D01*
X74994010Y-58325000D01*
X75711766Y-59042756D01*
X75400000Y-59042756D01*
X75168389Y-59086337D01*
X74955668Y-59223219D01*
X74812962Y-59432076D01*
X74762756Y-59680000D01*
X74762756Y-62150518D01*
X74485000Y-62428274D01*
X74485000Y-61461250D01*
X74328750Y-61305000D01*
X73485000Y-61305000D01*
X73485000Y-61325000D01*
X73235000Y-61325000D01*
X73235000Y-61305000D01*
X72391250Y-61305000D01*
X72235000Y-61461250D01*
X72235000Y-62575000D01*
X71900000Y-62575000D01*
X71584286Y-62637799D01*
X71316637Y-62816637D01*
X70891664Y-63241610D01*
X70861404Y-63089481D01*
X70724774Y-62885000D01*
X70861404Y-62680519D01*
X70947040Y-62250000D01*
X70861404Y-61819481D01*
X70724774Y-61615000D01*
X70861404Y-61410519D01*
X70947040Y-60980000D01*
X70861404Y-60549481D01*
X70845646Y-60525897D01*
X70925000Y-60334320D01*
X70925000Y-59991250D01*
X70768750Y-59835000D01*
X69925000Y-59835000D01*
X69925000Y-59855000D01*
X69675000Y-59855000D01*
X69675000Y-59835000D01*
X68831250Y-59835000D01*
X68675000Y-59991250D01*
X68675000Y-60334320D01*
X68754354Y-60525897D01*
X68738596Y-60549481D01*
X68652960Y-60980000D01*
X68738596Y-61410519D01*
X68875226Y-61615000D01*
X68738596Y-61819481D01*
X68652960Y-62250000D01*
X68738596Y-62680519D01*
X68875226Y-62885000D01*
X68738596Y-63089481D01*
X68652960Y-63520000D01*
X68738596Y-63950519D01*
X68748272Y-63965000D01*
X68731726Y-63965000D01*
X68225000Y-63458274D01*
X68225000Y-61590433D01*
X68349835Y-61289796D01*
X68350165Y-60911862D01*
X68205841Y-60562571D01*
X67938835Y-60295098D01*
X67589796Y-60150165D01*
X67211862Y-60149835D01*
X66862571Y-60294159D01*
X66595098Y-60561165D01*
X66450165Y-60910204D01*
X66449835Y-61288138D01*
X66575000Y-61591061D01*
X66575000Y-63800000D01*
X66637799Y-64115714D01*
X66816637Y-64383363D01*
X67806637Y-65373363D01*
X68074286Y-65552201D01*
X68390000Y-65615000D01*
X68748272Y-65615000D01*
X68738596Y-65629481D01*
X68652960Y-66060000D01*
X68738596Y-66490519D01*
X68748272Y-66505000D01*
X67271726Y-66505000D01*
X66225000Y-65458274D01*
X66225000Y-60400000D01*
X66162201Y-60084286D01*
X65983363Y-59816637D01*
X65252406Y-59085680D01*
X68675000Y-59085680D01*
X68675000Y-59428750D01*
X68831250Y-59585000D01*
X69675000Y-59585000D01*
X69675000Y-58741250D01*
X69925000Y-58741250D01*
X69925000Y-59585000D01*
X70768750Y-59585000D01*
X70798070Y-59555680D01*
X72235000Y-59555680D01*
X72235000Y-60898750D01*
X72391250Y-61055000D01*
X73235000Y-61055000D01*
X73235000Y-59211250D01*
X73485000Y-59211250D01*
X73485000Y-61055000D01*
X74328750Y-61055000D01*
X74485000Y-60898750D01*
X74485000Y-59555680D01*
X74389850Y-59325966D01*
X74214034Y-59150151D01*
X73984320Y-59055000D01*
X73641250Y-59055000D01*
X73485000Y-59211250D01*
X73235000Y-59211250D01*
X73078750Y-59055000D01*
X72735680Y-59055000D01*
X72505966Y-59150151D01*
X72330150Y-59325966D01*
X72235000Y-59555680D01*
X70798070Y-59555680D01*
X70925000Y-59428750D01*
X70925000Y-59085680D01*
X70829849Y-58855966D01*
X70654034Y-58680150D01*
X70424320Y-58585000D01*
X70081250Y-58585000D01*
X69925000Y-58741250D01*
X69675000Y-58741250D01*
X69518750Y-58585000D01*
X69175680Y-58585000D01*
X68945966Y-58680150D01*
X68770151Y-58855966D01*
X68675000Y-59085680D01*
X65252406Y-59085680D01*
X64983363Y-58816637D01*
X64715714Y-58637799D01*
X64672975Y-58629298D01*
X64638835Y-58595098D01*
X64289796Y-58450165D01*
X63911862Y-58449835D01*
X63562571Y-58594159D01*
X63295098Y-58861165D01*
X63150165Y-59210204D01*
X63149835Y-59588138D01*
X63294159Y-59937429D01*
X63561165Y-60204902D01*
X63910204Y-60349835D01*
X64183348Y-60350074D01*
X64575000Y-60741726D01*
X64575000Y-65800000D01*
X64637799Y-66115714D01*
X64816637Y-66383363D01*
X66346637Y-67913363D01*
X66614286Y-68092201D01*
X66930000Y-68155000D01*
X68748272Y-68155000D01*
X68738596Y-68169481D01*
X68652960Y-68600000D01*
X68738596Y-69030519D01*
X68835135Y-69175000D01*
X67941726Y-69175000D01*
X67383363Y-68616637D01*
X67115714Y-68437799D01*
X66800000Y-68375000D01*
X59766726Y-68375000D01*
X59725000Y-68333274D01*
X59725000Y-66290433D01*
X59849835Y-65989796D01*
X59850165Y-65611862D01*
X59705841Y-65262571D01*
X59438835Y-64995098D01*
X59089796Y-64850165D01*
X58711862Y-64849835D01*
X58362571Y-64994159D01*
X58095098Y-65261165D01*
X57950165Y-65610204D01*
X57949835Y-65988138D01*
X58075000Y-66291061D01*
X58075000Y-67931501D01*
X57938835Y-67795098D01*
X57589796Y-67650165D01*
X57211862Y-67649835D01*
X56862571Y-67794159D01*
X56595098Y-68061165D01*
X56450165Y-68410204D01*
X56449835Y-68788138D01*
X56568364Y-69075000D01*
X56483147Y-69075000D01*
X55930572Y-68522424D01*
X55905841Y-68462571D01*
X55638835Y-68195098D01*
X55289796Y-68050165D01*
X54911862Y-68049835D01*
X54562571Y-68194159D01*
X54295098Y-68461165D01*
X54150165Y-68810204D01*
X54149835Y-69188138D01*
X54294159Y-69537429D01*
X54561165Y-69804902D01*
X54622026Y-69830173D01*
X55445924Y-70654071D01*
X55445926Y-70654074D01*
X55701735Y-70825000D01*
X55746018Y-70854589D01*
X56100000Y-70925001D01*
X56100005Y-70925000D01*
X57150394Y-70925000D01*
X57210204Y-70949835D01*
X57588138Y-70950165D01*
X57937429Y-70805841D01*
X58204902Y-70538835D01*
X58349835Y-70189796D01*
X58349979Y-70025000D01*
X59225000Y-70025000D01*
X59262500Y-70017541D01*
X59300000Y-70025000D01*
X66458274Y-70025000D01*
X67016637Y-70583363D01*
X67284286Y-70762201D01*
X67600000Y-70825000D01*
X71000000Y-70825000D01*
X71315714Y-70762201D01*
X71583363Y-70583363D01*
X73809482Y-68357244D01*
X73860000Y-68357244D01*
X74091611Y-68313663D01*
X74304332Y-68176781D01*
X74447038Y-67967924D01*
X74497244Y-67720000D01*
X74497244Y-67061407D01*
X74710204Y-67149835D01*
X74762756Y-67149881D01*
X74762756Y-67720000D01*
X74806337Y-67951611D01*
X74943219Y-68164332D01*
X75152076Y-68307038D01*
X75400000Y-68357244D01*
X76400000Y-68357244D01*
X76631611Y-68313663D01*
X76844332Y-68176781D01*
X76987038Y-67967924D01*
X77037244Y-67720000D01*
X77037244Y-64925000D01*
X77302756Y-64925000D01*
X77302756Y-67720000D01*
X77346337Y-67951611D01*
X77483219Y-68164332D01*
X77692076Y-68307038D01*
X77940000Y-68357244D01*
X78027071Y-68357244D01*
X78124286Y-68422201D01*
X78440000Y-68485000D01*
X78755714Y-68422201D01*
X78852929Y-68357244D01*
X78940000Y-68357244D01*
X79171611Y-68313663D01*
X79384332Y-68176781D01*
X79527038Y-67967924D01*
X79575000Y-67731081D01*
X79575000Y-68470677D01*
X79338596Y-68824481D01*
X79252960Y-69255000D01*
X79338596Y-69685519D01*
X79575000Y-70039323D01*
X79575000Y-73482561D01*
X79340540Y-73579670D01*
X79207500Y-73698339D01*
X79131781Y-73580668D01*
X78922924Y-73437962D01*
X78675000Y-73387756D01*
X77325000Y-73387756D01*
X77093389Y-73431337D01*
X76880668Y-73568219D01*
X76737962Y-73777076D01*
X76687756Y-74025000D01*
X76687756Y-75375000D01*
X76731337Y-75606611D01*
X76868219Y-75819332D01*
X77077076Y-75962038D01*
X77325000Y-76012244D01*
X78675000Y-76012244D01*
X78906611Y-75968663D01*
X79119332Y-75831781D01*
X79207959Y-75702071D01*
X79340540Y-75820330D01*
X79575000Y-75917439D01*
X79575000Y-77325000D01*
X53114336Y-77325000D01*
X53461531Y-76978410D01*
X53724700Y-76344629D01*
X53725299Y-75658382D01*
X53463237Y-75024142D01*
X53052705Y-74612893D01*
X57024814Y-74612893D01*
X57188128Y-75008143D01*
X57490267Y-75310809D01*
X57885231Y-75474813D01*
X58312893Y-75475186D01*
X58708143Y-75311872D01*
X59010809Y-75009733D01*
X59174813Y-74614769D01*
X59174814Y-74612893D01*
X63824814Y-74612893D01*
X63988128Y-75008143D01*
X64290267Y-75310809D01*
X64685231Y-75474813D01*
X65112893Y-75475186D01*
X65508143Y-75311872D01*
X65810809Y-75009733D01*
X65974813Y-74614769D01*
X65975186Y-74187107D01*
X65908205Y-74025000D01*
X68687756Y-74025000D01*
X68687756Y-75375000D01*
X68731337Y-75606611D01*
X68868219Y-75819332D01*
X69077076Y-75962038D01*
X69325000Y-76012244D01*
X70675000Y-76012244D01*
X70906611Y-75968663D01*
X71119332Y-75831781D01*
X71207959Y-75702071D01*
X71340540Y-75820330D01*
X71674117Y-75958491D01*
X71875000Y-75836899D01*
X71875000Y-74825000D01*
X72125000Y-74825000D01*
X72125000Y-75836899D01*
X72325883Y-75958491D01*
X72659460Y-75820330D01*
X73037993Y-75482686D01*
X73258502Y-75025885D01*
X73137737Y-74825000D01*
X72125000Y-74825000D01*
X71875000Y-74825000D01*
X71855000Y-74825000D01*
X71855000Y-74575000D01*
X71875000Y-74575000D01*
X71875000Y-73563101D01*
X72125000Y-73563101D01*
X72125000Y-74575000D01*
X73137737Y-74575000D01*
X73258502Y-74374115D01*
X73037993Y-73917314D01*
X72659460Y-73579670D01*
X72325883Y-73441509D01*
X72125000Y-73563101D01*
X71875000Y-73563101D01*
X71674117Y-73441509D01*
X71340540Y-73579670D01*
X71207500Y-73698339D01*
X71131781Y-73580668D01*
X70922924Y-73437962D01*
X70675000Y-73387756D01*
X69325000Y-73387756D01*
X69093389Y-73431337D01*
X68880668Y-73568219D01*
X68737962Y-73777076D01*
X68687756Y-74025000D01*
X65908205Y-74025000D01*
X65811872Y-73791857D01*
X65509733Y-73489191D01*
X65114769Y-73325187D01*
X64687107Y-73324814D01*
X64291857Y-73488128D01*
X63989191Y-73790267D01*
X63825187Y-74185231D01*
X63824814Y-74612893D01*
X59174814Y-74612893D01*
X59175186Y-74187107D01*
X59011872Y-73791857D01*
X58709733Y-73489191D01*
X58314769Y-73325187D01*
X57887107Y-73324814D01*
X57491857Y-73488128D01*
X57189191Y-73790267D01*
X57025187Y-74185231D01*
X57024814Y-74612893D01*
X53052705Y-74612893D01*
X52978410Y-74538469D01*
X52344629Y-74275300D01*
X51658382Y-74274701D01*
X51024142Y-74536763D01*
X50675000Y-74885297D01*
X50675000Y-52471103D01*
X53044999Y-52471103D01*
X53044999Y-52528897D01*
X53157277Y-53093355D01*
X53403250Y-53461482D01*
X53480635Y-53850518D01*
X53697447Y-54175000D01*
X53724504Y-54215494D01*
X55604505Y-56095495D01*
X55969481Y-56339364D01*
X56400000Y-56425000D01*
X61999591Y-56425000D01*
X62222795Y-56425195D01*
X62636429Y-56254285D01*
X62953172Y-55938093D01*
X63124804Y-55524758D01*
X63125195Y-55077205D01*
X62954285Y-54663571D01*
X62638093Y-54346828D01*
X62224758Y-54175196D01*
X61777205Y-54174805D01*
X61776733Y-54175000D01*
X56865990Y-54175000D01*
X56604228Y-53913238D01*
X57059999Y-54003897D01*
X57624457Y-53891619D01*
X58102982Y-53571880D01*
X58329999Y-53232124D01*
X58557016Y-53571880D01*
X59035541Y-53891619D01*
X59599999Y-54003897D01*
X60164457Y-53891619D01*
X60642982Y-53571880D01*
X60869999Y-53232124D01*
X61097016Y-53571880D01*
X61575541Y-53891619D01*
X62139999Y-54003897D01*
X62704457Y-53891619D01*
X63182982Y-53571880D01*
X63221520Y-53514204D01*
X63300149Y-53704034D01*
X63475965Y-53879849D01*
X63705679Y-53975000D01*
X64398749Y-53975000D01*
X64554999Y-53818750D01*
X64554999Y-52625000D01*
X64804999Y-52625000D01*
X64804999Y-53818750D01*
X64961249Y-53975000D01*
X65654319Y-53975000D01*
X65884033Y-53879849D01*
X66059849Y-53704034D01*
X66154999Y-53474320D01*
X66154999Y-52781250D01*
X65998749Y-52625000D01*
X64804999Y-52625000D01*
X64554999Y-52625000D01*
X64534999Y-52625000D01*
X64534999Y-52375000D01*
X64554999Y-52375000D01*
X64554999Y-51181250D01*
X64804999Y-51181250D01*
X64804999Y-52375000D01*
X65998749Y-52375000D01*
X66154999Y-52218750D01*
X66154999Y-51525680D01*
X66059849Y-51295966D01*
X65884033Y-51120151D01*
X65654319Y-51025000D01*
X64961249Y-51025000D01*
X64804999Y-51181250D01*
X64554999Y-51181250D01*
X64398749Y-51025000D01*
X63705679Y-51025000D01*
X63475965Y-51120151D01*
X63300149Y-51295966D01*
X63221520Y-51485796D01*
X63182982Y-51428120D01*
X62704457Y-51108381D01*
X62139999Y-50996103D01*
X61575541Y-51108381D01*
X61097016Y-51428120D01*
X60869999Y-51767876D01*
X60642982Y-51428120D01*
X60164457Y-51108381D01*
X59599999Y-50996103D01*
X59035541Y-51108381D01*
X58557016Y-51428120D01*
X58329999Y-51767876D01*
X58102982Y-51428120D01*
X57624457Y-51108381D01*
X57059999Y-50996103D01*
X56495541Y-51108381D01*
X56017016Y-51428120D01*
X55789999Y-51767876D01*
X55562982Y-51428120D01*
X55084457Y-51108381D01*
X54519999Y-50996103D01*
X53955541Y-51108381D01*
X53477016Y-51428120D01*
X53157277Y-51906645D01*
X53044999Y-52471103D01*
X50675000Y-52471103D01*
X50675000Y-52066481D01*
X50788077Y-51498006D01*
X51072435Y-51072434D01*
X51498005Y-50788078D01*
X52066487Y-50675000D01*
X79575000Y-50675000D01*
X79575000Y-59668074D01*
M02*
