G04 #@! TF.FileFunction,Legend,Bot*
%FSLAX46Y46*%
G04 Gerber Fmt 4.6, Leading zero omitted, Abs format (unit mm)*
G04 Created by KiCad (PCBNEW 4.0.4-stable) date Sunday, October 15, 2017 'PMt' 03:04:39 PM*
%MOMM*%
%LPD*%
G01*
G04 APERTURE LIST*
%ADD10C,0.100000*%
%ADD11C,0.150000*%
%ADD12C,0.120000*%
%ADD13C,0.010000*%
G04 APERTURE END LIST*
D10*
D11*
X67890476Y-59300000D02*
X67966667Y-59261905D01*
X68080952Y-59261905D01*
X68195238Y-59300000D01*
X68271429Y-59376190D01*
X68309524Y-59452381D01*
X68347619Y-59604762D01*
X68347619Y-59719048D01*
X68309524Y-59871429D01*
X68271429Y-59947619D01*
X68195238Y-60023810D01*
X68080952Y-60061905D01*
X68004762Y-60061905D01*
X67890476Y-60023810D01*
X67852381Y-59985714D01*
X67852381Y-59719048D01*
X68004762Y-59719048D01*
X67509524Y-60061905D02*
X67509524Y-59261905D01*
X67052381Y-60061905D01*
X67052381Y-59261905D01*
X66671429Y-60061905D02*
X66671429Y-59261905D01*
X66480953Y-59261905D01*
X66366667Y-59300000D01*
X66290476Y-59376190D01*
X66252381Y-59452381D01*
X66214286Y-59604762D01*
X66214286Y-59719048D01*
X66252381Y-59871429D01*
X66290476Y-59947619D01*
X66366667Y-60023810D01*
X66480953Y-60061905D01*
X66671429Y-60061905D01*
X68347619Y-65123810D02*
X68233333Y-65161905D01*
X68042857Y-65161905D01*
X67966667Y-65123810D01*
X67928571Y-65085714D01*
X67890476Y-65009524D01*
X67890476Y-64933333D01*
X67928571Y-64857143D01*
X67966667Y-64819048D01*
X68042857Y-64780952D01*
X68195238Y-64742857D01*
X68271429Y-64704762D01*
X68309524Y-64666667D01*
X68347619Y-64590476D01*
X68347619Y-64514286D01*
X68309524Y-64438095D01*
X68271429Y-64400000D01*
X68195238Y-64361905D01*
X68004762Y-64361905D01*
X67890476Y-64400000D01*
X67090476Y-65085714D02*
X67128571Y-65123810D01*
X67242857Y-65161905D01*
X67319047Y-65161905D01*
X67433333Y-65123810D01*
X67509524Y-65047619D01*
X67547619Y-64971429D01*
X67585714Y-64819048D01*
X67585714Y-64704762D01*
X67547619Y-64552381D01*
X67509524Y-64476190D01*
X67433333Y-64400000D01*
X67319047Y-64361905D01*
X67242857Y-64361905D01*
X67128571Y-64400000D01*
X67090476Y-64438095D01*
X66747619Y-65161905D02*
X66747619Y-64361905D01*
X66290476Y-65161905D02*
X66633333Y-64704762D01*
X66290476Y-64361905D02*
X66747619Y-64819048D01*
X68309524Y-67761905D02*
X68309524Y-66961905D01*
X68042857Y-67533333D01*
X67776190Y-66961905D01*
X67776190Y-67761905D01*
X67395238Y-67761905D02*
X67395238Y-66961905D01*
X67052381Y-67723810D02*
X66938095Y-67761905D01*
X66747619Y-67761905D01*
X66671429Y-67723810D01*
X66633333Y-67685714D01*
X66595238Y-67609524D01*
X66595238Y-67533333D01*
X66633333Y-67457143D01*
X66671429Y-67419048D01*
X66747619Y-67380952D01*
X66900000Y-67342857D01*
X66976191Y-67304762D01*
X67014286Y-67266667D01*
X67052381Y-67190476D01*
X67052381Y-67114286D01*
X67014286Y-67038095D01*
X66976191Y-67000000D01*
X66900000Y-66961905D01*
X66709524Y-66961905D01*
X66595238Y-67000000D01*
X66100000Y-66961905D02*
X65947619Y-66961905D01*
X65871428Y-67000000D01*
X65795238Y-67076190D01*
X65757143Y-67228571D01*
X65757143Y-67495238D01*
X65795238Y-67647619D01*
X65871428Y-67723810D01*
X65947619Y-67761905D01*
X66100000Y-67761905D01*
X66176190Y-67723810D01*
X66252381Y-67647619D01*
X66290476Y-67495238D01*
X66290476Y-67228571D01*
X66252381Y-67076190D01*
X66176190Y-67000000D01*
X66100000Y-66961905D01*
X68423810Y-60561905D02*
X68157143Y-61361905D01*
X67890476Y-60561905D01*
X67623810Y-61361905D02*
X67623810Y-60561905D01*
X67433334Y-60561905D01*
X67319048Y-60600000D01*
X67242857Y-60676190D01*
X67204762Y-60752381D01*
X67166667Y-60904762D01*
X67166667Y-61019048D01*
X67204762Y-61171429D01*
X67242857Y-61247619D01*
X67319048Y-61323810D01*
X67433334Y-61361905D01*
X67623810Y-61361905D01*
X66823810Y-61361905D02*
X66823810Y-60561905D01*
X66633334Y-60561905D01*
X66519048Y-60600000D01*
X66442857Y-60676190D01*
X66404762Y-60752381D01*
X66366667Y-60904762D01*
X66366667Y-61019048D01*
X66404762Y-61171429D01*
X66442857Y-61247619D01*
X66519048Y-61323810D01*
X66633334Y-61361905D01*
X66823810Y-61361905D01*
X68309524Y-66461905D02*
X68309524Y-65661905D01*
X68042857Y-66233333D01*
X67776190Y-65661905D01*
X67776190Y-66461905D01*
X67242857Y-65661905D02*
X67090476Y-65661905D01*
X67014285Y-65700000D01*
X66938095Y-65776190D01*
X66900000Y-65928571D01*
X66900000Y-66195238D01*
X66938095Y-66347619D01*
X67014285Y-66423810D01*
X67090476Y-66461905D01*
X67242857Y-66461905D01*
X67319047Y-66423810D01*
X67395238Y-66347619D01*
X67433333Y-66195238D01*
X67433333Y-65928571D01*
X67395238Y-65776190D01*
X67319047Y-65700000D01*
X67242857Y-65661905D01*
X66595238Y-66423810D02*
X66480952Y-66461905D01*
X66290476Y-66461905D01*
X66214286Y-66423810D01*
X66176190Y-66385714D01*
X66138095Y-66309524D01*
X66138095Y-66233333D01*
X66176190Y-66157143D01*
X66214286Y-66119048D01*
X66290476Y-66080952D01*
X66442857Y-66042857D01*
X66519048Y-66004762D01*
X66557143Y-65966667D01*
X66595238Y-65890476D01*
X66595238Y-65814286D01*
X66557143Y-65738095D01*
X66519048Y-65700000D01*
X66442857Y-65661905D01*
X66252381Y-65661905D01*
X66138095Y-65700000D01*
X65795238Y-66461905D02*
X65795238Y-65661905D01*
X81161905Y-62919048D02*
X80361905Y-62919048D01*
X81123810Y-63261905D02*
X81161905Y-63376191D01*
X81161905Y-63566667D01*
X81123810Y-63642857D01*
X81085714Y-63680953D01*
X81009524Y-63719048D01*
X80933333Y-63719048D01*
X80857143Y-63680953D01*
X80819048Y-63642857D01*
X80780952Y-63566667D01*
X80742857Y-63414286D01*
X80704762Y-63338095D01*
X80666667Y-63300000D01*
X80590476Y-63261905D01*
X80514286Y-63261905D01*
X80438095Y-63300000D01*
X80400000Y-63338095D01*
X80361905Y-63414286D01*
X80361905Y-63604762D01*
X80400000Y-63719048D01*
X81161905Y-64061905D02*
X80361905Y-64061905D01*
X80361905Y-64366667D01*
X80400000Y-64442858D01*
X80438095Y-64480953D01*
X80514286Y-64519048D01*
X80628571Y-64519048D01*
X80704762Y-64480953D01*
X80742857Y-64442858D01*
X80780952Y-64366667D01*
X80780952Y-64061905D01*
X61047619Y-71027381D02*
X61047619Y-70360714D01*
X61047619Y-70455952D02*
X61000000Y-70408333D01*
X60904762Y-70360714D01*
X60761904Y-70360714D01*
X60666666Y-70408333D01*
X60619047Y-70503571D01*
X60619047Y-71027381D01*
X60619047Y-70503571D02*
X60571428Y-70408333D01*
X60476190Y-70360714D01*
X60333333Y-70360714D01*
X60238095Y-70408333D01*
X60190476Y-70503571D01*
X60190476Y-71027381D01*
X59380952Y-70503571D02*
X59714286Y-70503571D01*
X59714286Y-71027381D02*
X59714286Y-70027381D01*
X59238095Y-70027381D01*
X58857143Y-71027381D02*
X58857143Y-70027381D01*
X58523809Y-70741667D01*
X58190476Y-70027381D01*
X58190476Y-71027381D01*
X57714286Y-70646429D02*
X56952381Y-70646429D01*
X56619048Y-70027381D02*
X56047619Y-70027381D01*
X56333334Y-71027381D02*
X56333334Y-70027381D01*
X55809524Y-71027381D02*
X55285714Y-70360714D01*
X55809524Y-70360714D02*
X55285714Y-71027381D01*
X53952381Y-70027381D02*
X53857142Y-70027381D01*
X53761904Y-70075000D01*
X53714285Y-70122619D01*
X53666666Y-70217857D01*
X53619047Y-70408333D01*
X53619047Y-70646429D01*
X53666666Y-70836905D01*
X53714285Y-70932143D01*
X53761904Y-70979762D01*
X53857142Y-71027381D01*
X53952381Y-71027381D01*
X54047619Y-70979762D01*
X54095238Y-70932143D01*
X54142857Y-70836905D01*
X54190476Y-70646429D01*
X54190476Y-70408333D01*
X54142857Y-70217857D01*
X54095238Y-70122619D01*
X54047619Y-70075000D01*
X53952381Y-70027381D01*
X53190476Y-70932143D02*
X53142857Y-70979762D01*
X53190476Y-71027381D01*
X53238095Y-70979762D01*
X53190476Y-70932143D01*
X53190476Y-71027381D01*
X52809524Y-70027381D02*
X52190476Y-70027381D01*
X52523810Y-70408333D01*
X52380952Y-70408333D01*
X52285714Y-70455952D01*
X52238095Y-70503571D01*
X52190476Y-70598810D01*
X52190476Y-70836905D01*
X52238095Y-70932143D01*
X52285714Y-70979762D01*
X52380952Y-71027381D01*
X52666667Y-71027381D01*
X52761905Y-70979762D01*
X52809524Y-70932143D01*
X72523810Y-72629762D02*
X72619048Y-72677381D01*
X72809525Y-72677381D01*
X72904763Y-72629762D01*
X72952382Y-72582143D01*
X73000001Y-72486905D01*
X73000001Y-72201190D01*
X72952382Y-72105952D01*
X72904763Y-72058333D01*
X72809525Y-72010714D01*
X72619048Y-72010714D01*
X72523810Y-72058333D01*
X71666667Y-72677381D02*
X71666667Y-72153571D01*
X71714286Y-72058333D01*
X71809524Y-72010714D01*
X72000001Y-72010714D01*
X72095239Y-72058333D01*
X71666667Y-72629762D02*
X71761905Y-72677381D01*
X72000001Y-72677381D01*
X72095239Y-72629762D01*
X72142858Y-72534524D01*
X72142858Y-72439286D01*
X72095239Y-72344048D01*
X72000001Y-72296429D01*
X71761905Y-72296429D01*
X71666667Y-72248810D01*
X71047620Y-72677381D02*
X71142858Y-72629762D01*
X71190477Y-72534524D01*
X71190477Y-71677381D01*
X70238095Y-72629762D02*
X70333333Y-72677381D01*
X70523810Y-72677381D01*
X70619048Y-72629762D01*
X70666667Y-72582143D01*
X70714286Y-72486905D01*
X70714286Y-72201190D01*
X70666667Y-72105952D01*
X70619048Y-72058333D01*
X70523810Y-72010714D01*
X70333333Y-72010714D01*
X70238095Y-72058333D01*
X69809524Y-72677381D02*
X69809524Y-72010714D01*
X69809524Y-71677381D02*
X69857143Y-71725000D01*
X69809524Y-71772619D01*
X69761905Y-71725000D01*
X69809524Y-71677381D01*
X69809524Y-71772619D01*
X68904762Y-72010714D02*
X68904762Y-72677381D01*
X69333334Y-72010714D02*
X69333334Y-72534524D01*
X69285715Y-72629762D01*
X69190477Y-72677381D01*
X69047619Y-72677381D01*
X68952381Y-72629762D01*
X68904762Y-72582143D01*
X68428572Y-72677381D02*
X68428572Y-72010714D01*
X68428572Y-72105952D02*
X68380953Y-72058333D01*
X68285715Y-72010714D01*
X68142857Y-72010714D01*
X68047619Y-72058333D01*
X68000000Y-72153571D01*
X68000000Y-72677381D01*
X68000000Y-72153571D02*
X67952381Y-72058333D01*
X67857143Y-72010714D01*
X67714286Y-72010714D01*
X67619048Y-72058333D01*
X67571429Y-72153571D01*
X67571429Y-72677381D01*
X67190477Y-71677381D02*
X66571429Y-71677381D01*
X66904763Y-72058333D01*
X66761905Y-72058333D01*
X66666667Y-72105952D01*
X66619048Y-72153571D01*
X66571429Y-72248810D01*
X66571429Y-72486905D01*
X66619048Y-72582143D01*
X66666667Y-72629762D01*
X66761905Y-72677381D01*
X67047620Y-72677381D01*
X67142858Y-72629762D01*
X67190477Y-72582143D01*
X65952382Y-71677381D02*
X65857143Y-71677381D01*
X65761905Y-71725000D01*
X65714286Y-71772619D01*
X65666667Y-71867857D01*
X65619048Y-72058333D01*
X65619048Y-72296429D01*
X65666667Y-72486905D01*
X65714286Y-72582143D01*
X65761905Y-72629762D01*
X65857143Y-72677381D01*
X65952382Y-72677381D01*
X66047620Y-72629762D01*
X66095239Y-72582143D01*
X66142858Y-72486905D01*
X66190477Y-72296429D01*
X66190477Y-72058333D01*
X66142858Y-71867857D01*
X66095239Y-71772619D01*
X66047620Y-71725000D01*
X65952382Y-71677381D01*
X65000001Y-71677381D02*
X64904762Y-71677381D01*
X64809524Y-71725000D01*
X64761905Y-71772619D01*
X64714286Y-71867857D01*
X64666667Y-72058333D01*
X64666667Y-72296429D01*
X64714286Y-72486905D01*
X64761905Y-72582143D01*
X64809524Y-72629762D01*
X64904762Y-72677381D01*
X65000001Y-72677381D01*
X65095239Y-72629762D01*
X65142858Y-72582143D01*
X65190477Y-72486905D01*
X65238096Y-72296429D01*
X65238096Y-72058333D01*
X65190477Y-71867857D01*
X65142858Y-71772619D01*
X65095239Y-71725000D01*
X65000001Y-71677381D01*
X64047620Y-71677381D02*
X63952381Y-71677381D01*
X63857143Y-71725000D01*
X63809524Y-71772619D01*
X63761905Y-71867857D01*
X63714286Y-72058333D01*
X63714286Y-72296429D01*
X63761905Y-72486905D01*
X63809524Y-72582143D01*
X63857143Y-72629762D01*
X63952381Y-72677381D01*
X64047620Y-72677381D01*
X64142858Y-72629762D01*
X64190477Y-72582143D01*
X64238096Y-72486905D01*
X64285715Y-72296429D01*
X64285715Y-72058333D01*
X64238096Y-71867857D01*
X64190477Y-71772619D01*
X64142858Y-71725000D01*
X64047620Y-71677381D01*
X63285715Y-72582143D02*
X63238096Y-72629762D01*
X63285715Y-72677381D01*
X63333334Y-72629762D01*
X63285715Y-72582143D01*
X63285715Y-72677381D01*
X62904763Y-72010714D02*
X62714287Y-72677381D01*
X62523810Y-72201190D01*
X62333334Y-72677381D01*
X62142858Y-72010714D01*
X61619049Y-72677381D02*
X61714287Y-72629762D01*
X61761906Y-72582143D01*
X61809525Y-72486905D01*
X61809525Y-72201190D01*
X61761906Y-72105952D01*
X61714287Y-72058333D01*
X61619049Y-72010714D01*
X61476191Y-72010714D01*
X61380953Y-72058333D01*
X61333334Y-72105952D01*
X61285715Y-72201190D01*
X61285715Y-72486905D01*
X61333334Y-72582143D01*
X61380953Y-72629762D01*
X61476191Y-72677381D01*
X61619049Y-72677381D01*
X60857144Y-72677381D02*
X60857144Y-72010714D01*
X60857144Y-72201190D02*
X60809525Y-72105952D01*
X60761906Y-72058333D01*
X60666668Y-72010714D01*
X60571429Y-72010714D01*
X59809524Y-72677381D02*
X59809524Y-71677381D01*
X59809524Y-72629762D02*
X59904762Y-72677381D01*
X60095239Y-72677381D01*
X60190477Y-72629762D01*
X60238096Y-72582143D01*
X60285715Y-72486905D01*
X60285715Y-72201190D01*
X60238096Y-72105952D01*
X60190477Y-72058333D01*
X60095239Y-72010714D01*
X59904762Y-72010714D01*
X59809524Y-72058333D01*
X59333334Y-72010714D02*
X59333334Y-73010714D01*
X59333334Y-72058333D02*
X59238096Y-72010714D01*
X59047619Y-72010714D01*
X58952381Y-72058333D01*
X58904762Y-72105952D01*
X58857143Y-72201190D01*
X58857143Y-72486905D01*
X58904762Y-72582143D01*
X58952381Y-72629762D01*
X59047619Y-72677381D01*
X59238096Y-72677381D01*
X59333334Y-72629762D01*
X58428572Y-72677381D02*
X58428572Y-72010714D01*
X58428572Y-72201190D02*
X58380953Y-72105952D01*
X58333334Y-72058333D01*
X58238096Y-72010714D01*
X58142857Y-72010714D01*
X57428571Y-72629762D02*
X57523809Y-72677381D01*
X57714286Y-72677381D01*
X57809524Y-72629762D01*
X57857143Y-72534524D01*
X57857143Y-72153571D01*
X57809524Y-72058333D01*
X57714286Y-72010714D01*
X57523809Y-72010714D01*
X57428571Y-72058333D01*
X57380952Y-72153571D01*
X57380952Y-72248810D01*
X57857143Y-72344048D01*
X57000000Y-72629762D02*
X56904762Y-72677381D01*
X56714286Y-72677381D01*
X56619047Y-72629762D01*
X56571428Y-72534524D01*
X56571428Y-72486905D01*
X56619047Y-72391667D01*
X56714286Y-72344048D01*
X56857143Y-72344048D01*
X56952381Y-72296429D01*
X57000000Y-72201190D01*
X57000000Y-72153571D01*
X56952381Y-72058333D01*
X56857143Y-72010714D01*
X56714286Y-72010714D01*
X56619047Y-72058333D01*
X56190476Y-72629762D02*
X56095238Y-72677381D01*
X55904762Y-72677381D01*
X55809523Y-72629762D01*
X55761904Y-72534524D01*
X55761904Y-72486905D01*
X55809523Y-72391667D01*
X55904762Y-72344048D01*
X56047619Y-72344048D01*
X56142857Y-72296429D01*
X56190476Y-72201190D01*
X56190476Y-72153571D01*
X56142857Y-72058333D01*
X56047619Y-72010714D01*
X55904762Y-72010714D01*
X55809523Y-72058333D01*
X55333333Y-72582143D02*
X55285714Y-72629762D01*
X55333333Y-72677381D01*
X55380952Y-72629762D01*
X55333333Y-72582143D01*
X55333333Y-72677381D01*
X54428571Y-72629762D02*
X54523809Y-72677381D01*
X54714286Y-72677381D01*
X54809524Y-72629762D01*
X54857143Y-72582143D01*
X54904762Y-72486905D01*
X54904762Y-72201190D01*
X54857143Y-72105952D01*
X54809524Y-72058333D01*
X54714286Y-72010714D01*
X54523809Y-72010714D01*
X54428571Y-72058333D01*
X53857143Y-72677381D02*
X53952381Y-72629762D01*
X54000000Y-72582143D01*
X54047619Y-72486905D01*
X54047619Y-72201190D01*
X54000000Y-72105952D01*
X53952381Y-72058333D01*
X53857143Y-72010714D01*
X53714285Y-72010714D01*
X53619047Y-72058333D01*
X53571428Y-72105952D01*
X53523809Y-72201190D01*
X53523809Y-72486905D01*
X53571428Y-72582143D01*
X53619047Y-72629762D01*
X53714285Y-72677381D01*
X53857143Y-72677381D01*
X53095238Y-72677381D02*
X53095238Y-72010714D01*
X53095238Y-72105952D02*
X53047619Y-72058333D01*
X52952381Y-72010714D01*
X52809523Y-72010714D01*
X52714285Y-72058333D01*
X52666666Y-72153571D01*
X52666666Y-72677381D01*
X52666666Y-72153571D02*
X52619047Y-72058333D01*
X52523809Y-72010714D01*
X52380952Y-72010714D01*
X52285714Y-72058333D01*
X52238095Y-72153571D01*
X52238095Y-72677381D01*
X61190478Y-67285714D02*
X60809526Y-67285714D01*
X61047621Y-66952381D02*
X61047621Y-67809524D01*
X61000002Y-67904762D01*
X60904764Y-67952381D01*
X60809526Y-67952381D01*
X60047620Y-67952381D02*
X60047620Y-67428571D01*
X60095239Y-67333333D01*
X60190477Y-67285714D01*
X60380954Y-67285714D01*
X60476192Y-67333333D01*
X60047620Y-67904762D02*
X60142858Y-67952381D01*
X60380954Y-67952381D01*
X60476192Y-67904762D01*
X60523811Y-67809524D01*
X60523811Y-67714286D01*
X60476192Y-67619048D01*
X60380954Y-67571429D01*
X60142858Y-67571429D01*
X60047620Y-67523810D01*
X59571430Y-67285714D02*
X59571430Y-68285714D01*
X59571430Y-67333333D02*
X59476192Y-67285714D01*
X59285715Y-67285714D01*
X59190477Y-67333333D01*
X59142858Y-67380952D01*
X59095239Y-67476190D01*
X59095239Y-67761905D01*
X59142858Y-67857143D01*
X59190477Y-67904762D01*
X59285715Y-67952381D01*
X59476192Y-67952381D01*
X59571430Y-67904762D01*
X58666668Y-67952381D02*
X58666668Y-67285714D01*
X58666668Y-67476190D02*
X58619049Y-67380952D01*
X58571430Y-67333333D01*
X58476192Y-67285714D01*
X58380953Y-67285714D01*
X58047620Y-67857143D02*
X58000001Y-67904762D01*
X58047620Y-67952381D01*
X58095239Y-67904762D01*
X58047620Y-67857143D01*
X58047620Y-67952381D01*
X57428573Y-67952381D02*
X57523811Y-67904762D01*
X57571430Y-67857143D01*
X57619049Y-67761905D01*
X57619049Y-67476190D01*
X57571430Y-67380952D01*
X57523811Y-67333333D01*
X57428573Y-67285714D01*
X57285715Y-67285714D01*
X57190477Y-67333333D01*
X57142858Y-67380952D01*
X57095239Y-67476190D01*
X57095239Y-67761905D01*
X57142858Y-67857143D01*
X57190477Y-67904762D01*
X57285715Y-67952381D01*
X57428573Y-67952381D01*
X56666668Y-67952381D02*
X56666668Y-67285714D01*
X56666668Y-67476190D02*
X56619049Y-67380952D01*
X56571430Y-67333333D01*
X56476192Y-67285714D01*
X56380953Y-67285714D01*
X55619048Y-67285714D02*
X55619048Y-68095238D01*
X55666667Y-68190476D01*
X55714286Y-68238095D01*
X55809525Y-68285714D01*
X55952382Y-68285714D01*
X56047620Y-68238095D01*
X55619048Y-67904762D02*
X55714286Y-67952381D01*
X55904763Y-67952381D01*
X56000001Y-67904762D01*
X56047620Y-67857143D01*
X56095239Y-67761905D01*
X56095239Y-67476190D01*
X56047620Y-67380952D01*
X56000001Y-67333333D01*
X55904763Y-67285714D01*
X55714286Y-67285714D01*
X55619048Y-67333333D01*
X54428572Y-66904762D02*
X55285715Y-68190476D01*
X53952382Y-67952381D02*
X54047620Y-67904762D01*
X54095239Y-67857143D01*
X54142858Y-67761905D01*
X54142858Y-67476190D01*
X54095239Y-67380952D01*
X54047620Y-67333333D01*
X53952382Y-67285714D01*
X53809524Y-67285714D01*
X53714286Y-67333333D01*
X53666667Y-67380952D01*
X53619048Y-67476190D01*
X53619048Y-67761905D01*
X53666667Y-67857143D01*
X53714286Y-67904762D01*
X53809524Y-67952381D01*
X53952382Y-67952381D01*
X53190477Y-67952381D02*
X53190477Y-66952381D01*
X52761905Y-67952381D02*
X52761905Y-67428571D01*
X52809524Y-67333333D01*
X52904762Y-67285714D01*
X53047620Y-67285714D01*
X53142858Y-67333333D01*
X53190477Y-67380952D01*
X52142858Y-67952381D02*
X52238096Y-67904762D01*
X52285715Y-67809524D01*
X52285715Y-66952381D01*
X73761905Y-68947619D02*
X73380952Y-68680952D01*
X73761905Y-68490476D02*
X72961905Y-68490476D01*
X72961905Y-68795238D01*
X73000000Y-68871429D01*
X73038095Y-68909524D01*
X73114286Y-68947619D01*
X73228571Y-68947619D01*
X73304762Y-68909524D01*
X73342857Y-68871429D01*
X73380952Y-68795238D01*
X73380952Y-68490476D01*
X73723810Y-69252381D02*
X73761905Y-69366667D01*
X73761905Y-69557143D01*
X73723810Y-69633333D01*
X73685714Y-69671429D01*
X73609524Y-69709524D01*
X73533333Y-69709524D01*
X73457143Y-69671429D01*
X73419048Y-69633333D01*
X73380952Y-69557143D01*
X73342857Y-69404762D01*
X73304762Y-69328571D01*
X73266667Y-69290476D01*
X73190476Y-69252381D01*
X73114286Y-69252381D01*
X73038095Y-69290476D01*
X73000000Y-69328571D01*
X72961905Y-69404762D01*
X72961905Y-69595238D01*
X73000000Y-69709524D01*
X72961905Y-69938095D02*
X72961905Y-70395238D01*
X73761905Y-70166667D02*
X72961905Y-70166667D01*
X72824000Y-68300000D02*
X72824000Y-70471429D01*
X68309524Y-68961905D02*
X68309524Y-68161905D01*
X67471429Y-68961905D02*
X67738096Y-68580952D01*
X67928572Y-68961905D02*
X67928572Y-68161905D01*
X67623810Y-68161905D01*
X67547619Y-68200000D01*
X67509524Y-68238095D01*
X67471429Y-68314286D01*
X67471429Y-68428571D01*
X67509524Y-68504762D01*
X67547619Y-68542857D01*
X67623810Y-68580952D01*
X67928572Y-68580952D01*
X66595238Y-69038095D02*
X66671429Y-69000000D01*
X66747619Y-68923810D01*
X66861905Y-68809524D01*
X66938096Y-68771429D01*
X67014286Y-68771429D01*
X66976191Y-68961905D02*
X67052381Y-68923810D01*
X67128572Y-68847619D01*
X67166667Y-68695238D01*
X67166667Y-68428571D01*
X67128572Y-68276190D01*
X67052381Y-68200000D01*
X66976191Y-68161905D01*
X66823810Y-68161905D01*
X66747619Y-68200000D01*
X66671429Y-68276190D01*
X66633334Y-68428571D01*
X66633334Y-68695238D01*
X66671429Y-68847619D01*
X66747619Y-68923810D01*
X66823810Y-68961905D01*
X66976191Y-68961905D01*
X78861905Y-68490476D02*
X78061905Y-68490476D01*
X78633333Y-68757143D01*
X78061905Y-69023810D01*
X78861905Y-69023810D01*
X78861905Y-69404762D02*
X78061905Y-69404762D01*
X78823810Y-69747619D02*
X78861905Y-69861905D01*
X78861905Y-70052381D01*
X78823810Y-70128571D01*
X78785714Y-70166667D01*
X78709524Y-70204762D01*
X78633333Y-70204762D01*
X78557143Y-70166667D01*
X78519048Y-70128571D01*
X78480952Y-70052381D01*
X78442857Y-69900000D01*
X78404762Y-69823809D01*
X78366667Y-69785714D01*
X78290476Y-69747619D01*
X78214286Y-69747619D01*
X78138095Y-69785714D01*
X78100000Y-69823809D01*
X78061905Y-69900000D01*
X78061905Y-70090476D01*
X78100000Y-70204762D01*
X78061905Y-70700000D02*
X78061905Y-70852381D01*
X78100000Y-70928572D01*
X78176190Y-71004762D01*
X78328571Y-71042857D01*
X78595238Y-71042857D01*
X78747619Y-71004762D01*
X78823810Y-70928572D01*
X78861905Y-70852381D01*
X78861905Y-70700000D01*
X78823810Y-70623810D01*
X78747619Y-70547619D01*
X78595238Y-70509524D01*
X78328571Y-70509524D01*
X78176190Y-70547619D01*
X78100000Y-70623810D01*
X78061905Y-70700000D01*
X76261905Y-56395238D02*
X75461905Y-56395238D01*
X76033333Y-56661905D01*
X75461905Y-56928572D01*
X76261905Y-56928572D01*
X75461905Y-57461905D02*
X75461905Y-57614286D01*
X75500000Y-57690477D01*
X75576190Y-57766667D01*
X75728571Y-57804762D01*
X75995238Y-57804762D01*
X76147619Y-57766667D01*
X76223810Y-57690477D01*
X76261905Y-57614286D01*
X76261905Y-57461905D01*
X76223810Y-57385715D01*
X76147619Y-57309524D01*
X75995238Y-57271429D01*
X75728571Y-57271429D01*
X75576190Y-57309524D01*
X75500000Y-57385715D01*
X75461905Y-57461905D01*
X76223810Y-58109524D02*
X76261905Y-58223810D01*
X76261905Y-58414286D01*
X76223810Y-58490476D01*
X76185714Y-58528572D01*
X76109524Y-58566667D01*
X76033333Y-58566667D01*
X75957143Y-58528572D01*
X75919048Y-58490476D01*
X75880952Y-58414286D01*
X75842857Y-58261905D01*
X75804762Y-58185714D01*
X75766667Y-58147619D01*
X75690476Y-58109524D01*
X75614286Y-58109524D01*
X75538095Y-58147619D01*
X75500000Y-58185714D01*
X75461905Y-58261905D01*
X75461905Y-58452381D01*
X75500000Y-58566667D01*
X76261905Y-58909524D02*
X75461905Y-58909524D01*
X76223810Y-68452381D02*
X76261905Y-68566667D01*
X76261905Y-68757143D01*
X76223810Y-68833333D01*
X76185714Y-68871429D01*
X76109524Y-68909524D01*
X76033333Y-68909524D01*
X75957143Y-68871429D01*
X75919048Y-68833333D01*
X75880952Y-68757143D01*
X75842857Y-68604762D01*
X75804762Y-68528571D01*
X75766667Y-68490476D01*
X75690476Y-68452381D01*
X75614286Y-68452381D01*
X75538095Y-68490476D01*
X75500000Y-68528571D01*
X75461905Y-68604762D01*
X75461905Y-68795238D01*
X75500000Y-68909524D01*
X76185714Y-69709524D02*
X76223810Y-69671429D01*
X76261905Y-69557143D01*
X76261905Y-69480953D01*
X76223810Y-69366667D01*
X76147619Y-69290476D01*
X76071429Y-69252381D01*
X75919048Y-69214286D01*
X75804762Y-69214286D01*
X75652381Y-69252381D01*
X75576190Y-69290476D01*
X75500000Y-69366667D01*
X75461905Y-69480953D01*
X75461905Y-69557143D01*
X75500000Y-69671429D01*
X75538095Y-69709524D01*
X76261905Y-70052381D02*
X75461905Y-70052381D01*
X76261905Y-70509524D02*
X75804762Y-70166667D01*
X75461905Y-70509524D02*
X75919048Y-70052381D01*
X67852381Y-63785714D02*
X67890476Y-63823810D01*
X68004762Y-63861905D01*
X68080952Y-63861905D01*
X68195238Y-63823810D01*
X68271429Y-63747619D01*
X68309524Y-63671429D01*
X68347619Y-63519048D01*
X68347619Y-63404762D01*
X68309524Y-63252381D01*
X68271429Y-63176190D01*
X68195238Y-63100000D01*
X68080952Y-63061905D01*
X68004762Y-63061905D01*
X67890476Y-63100000D01*
X67852381Y-63138095D01*
X67547619Y-63823810D02*
X67433333Y-63861905D01*
X67242857Y-63861905D01*
X67166667Y-63823810D01*
X67128571Y-63785714D01*
X67090476Y-63709524D01*
X67090476Y-63633333D01*
X67128571Y-63557143D01*
X67166667Y-63519048D01*
X67242857Y-63480952D01*
X67395238Y-63442857D01*
X67471429Y-63404762D01*
X67509524Y-63366667D01*
X67547619Y-63290476D01*
X67547619Y-63214286D01*
X67509524Y-63138095D01*
X67471429Y-63100000D01*
X67395238Y-63061905D01*
X67204762Y-63061905D01*
X67090476Y-63100000D01*
X68500000Y-62924000D02*
X66938095Y-62924000D01*
X67852381Y-62485714D02*
X67890476Y-62523810D01*
X68004762Y-62561905D01*
X68080952Y-62561905D01*
X68195238Y-62523810D01*
X68271429Y-62447619D01*
X68309524Y-62371429D01*
X68347619Y-62219048D01*
X68347619Y-62104762D01*
X68309524Y-61952381D01*
X68271429Y-61876190D01*
X68195238Y-61800000D01*
X68080952Y-61761905D01*
X68004762Y-61761905D01*
X67890476Y-61800000D01*
X67852381Y-61838095D01*
X67509524Y-62142857D02*
X67242857Y-62142857D01*
X67128571Y-62561905D02*
X67509524Y-62561905D01*
X67509524Y-61761905D01*
X67128571Y-61761905D01*
X78061905Y-56890476D02*
X78861905Y-57157143D01*
X78061905Y-57423810D01*
X78861905Y-57690476D02*
X78061905Y-57690476D01*
X78061905Y-57880952D01*
X78100000Y-57995238D01*
X78176190Y-58071429D01*
X78252381Y-58109524D01*
X78404762Y-58147619D01*
X78519048Y-58147619D01*
X78671429Y-58109524D01*
X78747619Y-58071429D01*
X78823810Y-57995238D01*
X78861905Y-57880952D01*
X78861905Y-57690476D01*
X78861905Y-58490476D02*
X78061905Y-58490476D01*
X78061905Y-58680952D01*
X78100000Y-58795238D01*
X78176190Y-58871429D01*
X78252381Y-58909524D01*
X78404762Y-58947619D01*
X78519048Y-58947619D01*
X78671429Y-58909524D01*
X78747619Y-58871429D01*
X78823810Y-58795238D01*
X78861905Y-58680952D01*
X78861905Y-58490476D01*
X73000000Y-57271429D02*
X72961905Y-57195238D01*
X72961905Y-57080953D01*
X73000000Y-56966667D01*
X73076190Y-56890476D01*
X73152381Y-56852381D01*
X73304762Y-56814286D01*
X73419048Y-56814286D01*
X73571429Y-56852381D01*
X73647619Y-56890476D01*
X73723810Y-56966667D01*
X73761905Y-57080953D01*
X73761905Y-57157143D01*
X73723810Y-57271429D01*
X73685714Y-57309524D01*
X73419048Y-57309524D01*
X73419048Y-57157143D01*
X73761905Y-57652381D02*
X72961905Y-57652381D01*
X73761905Y-58109524D01*
X72961905Y-58109524D01*
X73761905Y-58490476D02*
X72961905Y-58490476D01*
X72961905Y-58680952D01*
X73000000Y-58795238D01*
X73076190Y-58871429D01*
X73152381Y-58909524D01*
X73304762Y-58947619D01*
X73419048Y-58947619D01*
X73571429Y-58909524D01*
X73647619Y-58871429D01*
X73723810Y-58795238D01*
X73761905Y-58680952D01*
X73761905Y-58490476D01*
X64300000Y-54909524D02*
X64261905Y-54833333D01*
X64261905Y-54719048D01*
X64300000Y-54604762D01*
X64376190Y-54528571D01*
X64452381Y-54490476D01*
X64604762Y-54452381D01*
X64719048Y-54452381D01*
X64871429Y-54490476D01*
X64947619Y-54528571D01*
X65023810Y-54604762D01*
X65061905Y-54719048D01*
X65061905Y-54795238D01*
X65023810Y-54909524D01*
X64985714Y-54947619D01*
X64719048Y-54947619D01*
X64719048Y-54795238D01*
X65061905Y-55290476D02*
X64261905Y-55290476D01*
X65061905Y-55747619D01*
X64261905Y-55747619D01*
X65061905Y-56128571D02*
X64261905Y-56128571D01*
X64261905Y-56319047D01*
X64300000Y-56433333D01*
X64376190Y-56509524D01*
X64452381Y-56547619D01*
X64604762Y-56585714D01*
X64719048Y-56585714D01*
X64871429Y-56547619D01*
X64947619Y-56509524D01*
X65023810Y-56433333D01*
X65061905Y-56319047D01*
X65061905Y-56128571D01*
X61661905Y-54414286D02*
X61661905Y-54947619D01*
X62461905Y-54414286D01*
X62461905Y-54947619D01*
X62538095Y-55061905D02*
X62538095Y-55671429D01*
X61661905Y-56014286D02*
X61661905Y-56166667D01*
X61700000Y-56242858D01*
X61776190Y-56319048D01*
X61928571Y-56357143D01*
X62195238Y-56357143D01*
X62347619Y-56319048D01*
X62423810Y-56242858D01*
X62461905Y-56166667D01*
X62461905Y-56014286D01*
X62423810Y-55938096D01*
X62347619Y-55861905D01*
X62195238Y-55823810D01*
X61928571Y-55823810D01*
X61776190Y-55861905D01*
X61700000Y-55938096D01*
X61661905Y-56014286D01*
X61661905Y-56700000D02*
X62309524Y-56700000D01*
X62385714Y-56738095D01*
X62423810Y-56776191D01*
X62461905Y-56852381D01*
X62461905Y-57004762D01*
X62423810Y-57080953D01*
X62385714Y-57119048D01*
X62309524Y-57157143D01*
X61661905Y-57157143D01*
X61661905Y-57423809D02*
X61661905Y-57880952D01*
X62461905Y-57652381D02*
X61661905Y-57652381D01*
X59580952Y-54642857D02*
X59961905Y-54642857D01*
X59161905Y-54376190D02*
X59580952Y-54642857D01*
X59161905Y-54909524D01*
X60038095Y-54985714D02*
X60038095Y-55595238D01*
X59161905Y-55938095D02*
X59161905Y-56090476D01*
X59200000Y-56166667D01*
X59276190Y-56242857D01*
X59428571Y-56280952D01*
X59695238Y-56280952D01*
X59847619Y-56242857D01*
X59923810Y-56166667D01*
X59961905Y-56090476D01*
X59961905Y-55938095D01*
X59923810Y-55861905D01*
X59847619Y-55785714D01*
X59695238Y-55747619D01*
X59428571Y-55747619D01*
X59276190Y-55785714D01*
X59200000Y-55861905D01*
X59161905Y-55938095D01*
X59161905Y-56623809D02*
X59809524Y-56623809D01*
X59885714Y-56661904D01*
X59923810Y-56700000D01*
X59961905Y-56776190D01*
X59961905Y-56928571D01*
X59923810Y-57004762D01*
X59885714Y-57042857D01*
X59809524Y-57080952D01*
X59161905Y-57080952D01*
X59161905Y-57347618D02*
X59161905Y-57804761D01*
X59961905Y-57576190D02*
X59161905Y-57576190D01*
X56661905Y-54414286D02*
X57461905Y-54947619D01*
X56661905Y-54947619D02*
X57461905Y-54414286D01*
X57538095Y-55061905D02*
X57538095Y-55671429D01*
X56661905Y-56014286D02*
X56661905Y-56166667D01*
X56700000Y-56242858D01*
X56776190Y-56319048D01*
X56928571Y-56357143D01*
X57195238Y-56357143D01*
X57347619Y-56319048D01*
X57423810Y-56242858D01*
X57461905Y-56166667D01*
X57461905Y-56014286D01*
X57423810Y-55938096D01*
X57347619Y-55861905D01*
X57195238Y-55823810D01*
X56928571Y-55823810D01*
X56776190Y-55861905D01*
X56700000Y-55938096D01*
X56661905Y-56014286D01*
X56661905Y-56700000D02*
X57309524Y-56700000D01*
X57385714Y-56738095D01*
X57423810Y-56776191D01*
X57461905Y-56852381D01*
X57461905Y-57004762D01*
X57423810Y-57080953D01*
X57385714Y-57119048D01*
X57309524Y-57157143D01*
X56661905Y-57157143D01*
X56661905Y-57423809D02*
X56661905Y-57880952D01*
X57461905Y-57652381D02*
X56661905Y-57652381D01*
X54061905Y-54376190D02*
X54861905Y-54642857D01*
X54061905Y-54909524D01*
X54861905Y-55176190D02*
X54061905Y-55176190D01*
X54061905Y-55366666D01*
X54100000Y-55480952D01*
X54176190Y-55557143D01*
X54252381Y-55595238D01*
X54404762Y-55633333D01*
X54519048Y-55633333D01*
X54671429Y-55595238D01*
X54747619Y-55557143D01*
X54823810Y-55480952D01*
X54861905Y-55366666D01*
X54861905Y-55176190D01*
X54861905Y-55976190D02*
X54061905Y-55976190D01*
X54061905Y-56166666D01*
X54100000Y-56280952D01*
X54176190Y-56357143D01*
X54252381Y-56395238D01*
X54404762Y-56433333D01*
X54519048Y-56433333D01*
X54671429Y-56395238D01*
X54747619Y-56357143D01*
X54823810Y-56280952D01*
X54861905Y-56166666D01*
X54861905Y-55976190D01*
D12*
X79240000Y-66300000D02*
X79770000Y-66300000D01*
X79770000Y-66300000D02*
X79770000Y-61100000D01*
X79770000Y-61100000D02*
X79240000Y-61100000D01*
X72560000Y-66300000D02*
X72030000Y-66300000D01*
X72030000Y-66300000D02*
X72030000Y-61100000D01*
X72030000Y-61100000D02*
X72560000Y-61100000D01*
X79240000Y-67720000D02*
X79240000Y-66300000D01*
D13*
G36*
X59100256Y-65819918D02*
X59044799Y-65847568D01*
X58995852Y-65898480D01*
X58982371Y-65917338D01*
X58967686Y-65942015D01*
X58958158Y-65968816D01*
X58952707Y-66004587D01*
X58950253Y-66056169D01*
X58949714Y-66124267D01*
X58952148Y-66217588D01*
X58960606Y-66287657D01*
X58976826Y-66339931D01*
X59002546Y-66379869D01*
X59039503Y-66412929D01*
X59042218Y-66414886D01*
X59078640Y-66434908D01*
X59122498Y-66444815D01*
X59178276Y-66447257D01*
X59268952Y-66447257D01*
X59268990Y-66535283D01*
X59269834Y-66584308D01*
X59274976Y-66613065D01*
X59288413Y-66630311D01*
X59314142Y-66644808D01*
X59320321Y-66647769D01*
X59349236Y-66661648D01*
X59371624Y-66670414D01*
X59388271Y-66671171D01*
X59399964Y-66661023D01*
X59407490Y-66637073D01*
X59411634Y-66596426D01*
X59413185Y-66536186D01*
X59412929Y-66453455D01*
X59411651Y-66345339D01*
X59411252Y-66313000D01*
X59409815Y-66201524D01*
X59408528Y-66128603D01*
X59269029Y-66128603D01*
X59268245Y-66190499D01*
X59264760Y-66230997D01*
X59256876Y-66257708D01*
X59242895Y-66278244D01*
X59233403Y-66288260D01*
X59194596Y-66317567D01*
X59160237Y-66319952D01*
X59124784Y-66295750D01*
X59123886Y-66294857D01*
X59109461Y-66276153D01*
X59100687Y-66250732D01*
X59096261Y-66211584D01*
X59094882Y-66151697D01*
X59094857Y-66138430D01*
X59098188Y-66055901D01*
X59109031Y-65998691D01*
X59128660Y-65963766D01*
X59158350Y-65948094D01*
X59175509Y-65946514D01*
X59216234Y-65953926D01*
X59244168Y-65978330D01*
X59260983Y-66022980D01*
X59268350Y-66091130D01*
X59269029Y-66128603D01*
X59408528Y-66128603D01*
X59408292Y-66115245D01*
X59406323Y-66050333D01*
X59403550Y-66002958D01*
X59399612Y-65969290D01*
X59394151Y-65945498D01*
X59386808Y-65927753D01*
X59377223Y-65912224D01*
X59373113Y-65906381D01*
X59318595Y-65851185D01*
X59249664Y-65819890D01*
X59169928Y-65811165D01*
X59100256Y-65819918D01*
X59100256Y-65819918D01*
G37*
X59100256Y-65819918D02*
X59044799Y-65847568D01*
X58995852Y-65898480D01*
X58982371Y-65917338D01*
X58967686Y-65942015D01*
X58958158Y-65968816D01*
X58952707Y-66004587D01*
X58950253Y-66056169D01*
X58949714Y-66124267D01*
X58952148Y-66217588D01*
X58960606Y-66287657D01*
X58976826Y-66339931D01*
X59002546Y-66379869D01*
X59039503Y-66412929D01*
X59042218Y-66414886D01*
X59078640Y-66434908D01*
X59122498Y-66444815D01*
X59178276Y-66447257D01*
X59268952Y-66447257D01*
X59268990Y-66535283D01*
X59269834Y-66584308D01*
X59274976Y-66613065D01*
X59288413Y-66630311D01*
X59314142Y-66644808D01*
X59320321Y-66647769D01*
X59349236Y-66661648D01*
X59371624Y-66670414D01*
X59388271Y-66671171D01*
X59399964Y-66661023D01*
X59407490Y-66637073D01*
X59411634Y-66596426D01*
X59413185Y-66536186D01*
X59412929Y-66453455D01*
X59411651Y-66345339D01*
X59411252Y-66313000D01*
X59409815Y-66201524D01*
X59408528Y-66128603D01*
X59269029Y-66128603D01*
X59268245Y-66190499D01*
X59264760Y-66230997D01*
X59256876Y-66257708D01*
X59242895Y-66278244D01*
X59233403Y-66288260D01*
X59194596Y-66317567D01*
X59160237Y-66319952D01*
X59124784Y-66295750D01*
X59123886Y-66294857D01*
X59109461Y-66276153D01*
X59100687Y-66250732D01*
X59096261Y-66211584D01*
X59094882Y-66151697D01*
X59094857Y-66138430D01*
X59098188Y-66055901D01*
X59109031Y-65998691D01*
X59128660Y-65963766D01*
X59158350Y-65948094D01*
X59175509Y-65946514D01*
X59216234Y-65953926D01*
X59244168Y-65978330D01*
X59260983Y-66022980D01*
X59268350Y-66091130D01*
X59269029Y-66128603D01*
X59408528Y-66128603D01*
X59408292Y-66115245D01*
X59406323Y-66050333D01*
X59403550Y-66002958D01*
X59399612Y-65969290D01*
X59394151Y-65945498D01*
X59386808Y-65927753D01*
X59377223Y-65912224D01*
X59373113Y-65906381D01*
X59318595Y-65851185D01*
X59249664Y-65819890D01*
X59169928Y-65811165D01*
X59100256Y-65819918D01*
G36*
X57983907Y-65827780D02*
X57937328Y-65854723D01*
X57904943Y-65881466D01*
X57881258Y-65909484D01*
X57864941Y-65943748D01*
X57854661Y-65989227D01*
X57849086Y-66050892D01*
X57846884Y-66133711D01*
X57846629Y-66193246D01*
X57846629Y-66412391D01*
X57908314Y-66440044D01*
X57970000Y-66467697D01*
X57977257Y-66227670D01*
X57980256Y-66138028D01*
X57983402Y-66072962D01*
X57987299Y-66028026D01*
X57992553Y-65998770D01*
X57999769Y-65980748D01*
X58009550Y-65969511D01*
X58012688Y-65967079D01*
X58060239Y-65948083D01*
X58108303Y-65955600D01*
X58136914Y-65975543D01*
X58148553Y-65989675D01*
X58156609Y-66008220D01*
X58161729Y-66036334D01*
X58164559Y-66079173D01*
X58165744Y-66141895D01*
X58165943Y-66207261D01*
X58165982Y-66289268D01*
X58167386Y-66347316D01*
X58172086Y-66386465D01*
X58182013Y-66411780D01*
X58199097Y-66428323D01*
X58225268Y-66441156D01*
X58260225Y-66454491D01*
X58298404Y-66469007D01*
X58293859Y-66211389D01*
X58292029Y-66118519D01*
X58289888Y-66049889D01*
X58286819Y-66000711D01*
X58282206Y-65966198D01*
X58275432Y-65941562D01*
X58265881Y-65922016D01*
X58254366Y-65904770D01*
X58198810Y-65849680D01*
X58131020Y-65817822D01*
X58057287Y-65810191D01*
X57983907Y-65827780D01*
X57983907Y-65827780D01*
G37*
X57983907Y-65827780D02*
X57937328Y-65854723D01*
X57904943Y-65881466D01*
X57881258Y-65909484D01*
X57864941Y-65943748D01*
X57854661Y-65989227D01*
X57849086Y-66050892D01*
X57846884Y-66133711D01*
X57846629Y-66193246D01*
X57846629Y-66412391D01*
X57908314Y-66440044D01*
X57970000Y-66467697D01*
X57977257Y-66227670D01*
X57980256Y-66138028D01*
X57983402Y-66072962D01*
X57987299Y-66028026D01*
X57992553Y-65998770D01*
X57999769Y-65980748D01*
X58009550Y-65969511D01*
X58012688Y-65967079D01*
X58060239Y-65948083D01*
X58108303Y-65955600D01*
X58136914Y-65975543D01*
X58148553Y-65989675D01*
X58156609Y-66008220D01*
X58161729Y-66036334D01*
X58164559Y-66079173D01*
X58165744Y-66141895D01*
X58165943Y-66207261D01*
X58165982Y-66289268D01*
X58167386Y-66347316D01*
X58172086Y-66386465D01*
X58182013Y-66411780D01*
X58199097Y-66428323D01*
X58225268Y-66441156D01*
X58260225Y-66454491D01*
X58298404Y-66469007D01*
X58293859Y-66211389D01*
X58292029Y-66118519D01*
X58289888Y-66049889D01*
X58286819Y-66000711D01*
X58282206Y-65966198D01*
X58275432Y-65941562D01*
X58265881Y-65922016D01*
X58254366Y-65904770D01*
X58198810Y-65849680D01*
X58131020Y-65817822D01*
X58057287Y-65810191D01*
X57983907Y-65827780D01*
G36*
X59658885Y-65821962D02*
X59590855Y-65857733D01*
X59540649Y-65915301D01*
X59522815Y-65952312D01*
X59508937Y-66007882D01*
X59501833Y-66078096D01*
X59501160Y-66154727D01*
X59506573Y-66229552D01*
X59517730Y-66294342D01*
X59534286Y-66340873D01*
X59539374Y-66348887D01*
X59599645Y-66408707D01*
X59671231Y-66444535D01*
X59748908Y-66455020D01*
X59827452Y-66438810D01*
X59849311Y-66429092D01*
X59891878Y-66399143D01*
X59929237Y-66359433D01*
X59932768Y-66354397D01*
X59947119Y-66330124D01*
X59956606Y-66304178D01*
X59962210Y-66270022D01*
X59964914Y-66221119D01*
X59965701Y-66150935D01*
X59965714Y-66135200D01*
X59965678Y-66130192D01*
X59820571Y-66130192D01*
X59819727Y-66196430D01*
X59816404Y-66240386D01*
X59809417Y-66268779D01*
X59797584Y-66288325D01*
X59791543Y-66294857D01*
X59756814Y-66319680D01*
X59723097Y-66318548D01*
X59689005Y-66297016D01*
X59668671Y-66274029D01*
X59656629Y-66240478D01*
X59649866Y-66187569D01*
X59649402Y-66181399D01*
X59648248Y-66085513D01*
X59660312Y-66014299D01*
X59685430Y-65968194D01*
X59723440Y-65947635D01*
X59737008Y-65946514D01*
X59772636Y-65952152D01*
X59797006Y-65971686D01*
X59811907Y-66009042D01*
X59819125Y-66068150D01*
X59820571Y-66130192D01*
X59965678Y-66130192D01*
X59965174Y-66060413D01*
X59962904Y-66008159D01*
X59957932Y-65971949D01*
X59949287Y-65945299D01*
X59935995Y-65921722D01*
X59933057Y-65917338D01*
X59883687Y-65858249D01*
X59829891Y-65823947D01*
X59764398Y-65810331D01*
X59742158Y-65809665D01*
X59658885Y-65821962D01*
X59658885Y-65821962D01*
G37*
X59658885Y-65821962D02*
X59590855Y-65857733D01*
X59540649Y-65915301D01*
X59522815Y-65952312D01*
X59508937Y-66007882D01*
X59501833Y-66078096D01*
X59501160Y-66154727D01*
X59506573Y-66229552D01*
X59517730Y-66294342D01*
X59534286Y-66340873D01*
X59539374Y-66348887D01*
X59599645Y-66408707D01*
X59671231Y-66444535D01*
X59748908Y-66455020D01*
X59827452Y-66438810D01*
X59849311Y-66429092D01*
X59891878Y-66399143D01*
X59929237Y-66359433D01*
X59932768Y-66354397D01*
X59947119Y-66330124D01*
X59956606Y-66304178D01*
X59962210Y-66270022D01*
X59964914Y-66221119D01*
X59965701Y-66150935D01*
X59965714Y-66135200D01*
X59965678Y-66130192D01*
X59820571Y-66130192D01*
X59819727Y-66196430D01*
X59816404Y-66240386D01*
X59809417Y-66268779D01*
X59797584Y-66288325D01*
X59791543Y-66294857D01*
X59756814Y-66319680D01*
X59723097Y-66318548D01*
X59689005Y-66297016D01*
X59668671Y-66274029D01*
X59656629Y-66240478D01*
X59649866Y-66187569D01*
X59649402Y-66181399D01*
X59648248Y-66085513D01*
X59660312Y-66014299D01*
X59685430Y-65968194D01*
X59723440Y-65947635D01*
X59737008Y-65946514D01*
X59772636Y-65952152D01*
X59797006Y-65971686D01*
X59811907Y-66009042D01*
X59819125Y-66068150D01*
X59820571Y-66130192D01*
X59965678Y-66130192D01*
X59965174Y-66060413D01*
X59962904Y-66008159D01*
X59957932Y-65971949D01*
X59949287Y-65945299D01*
X59935995Y-65921722D01*
X59933057Y-65917338D01*
X59883687Y-65858249D01*
X59829891Y-65823947D01*
X59764398Y-65810331D01*
X59742158Y-65809665D01*
X59658885Y-65821962D01*
G36*
X58531697Y-65831239D02*
X58474473Y-65869735D01*
X58430251Y-65925335D01*
X58403833Y-65996086D01*
X58398490Y-66048162D01*
X58399097Y-66069893D01*
X58404178Y-66086531D01*
X58418145Y-66101437D01*
X58445411Y-66117973D01*
X58490388Y-66139498D01*
X58557489Y-66169374D01*
X58557829Y-66169524D01*
X58619593Y-66197813D01*
X58670241Y-66222933D01*
X58704596Y-66242179D01*
X58717482Y-66252848D01*
X58717486Y-66252934D01*
X58706128Y-66276166D01*
X58679569Y-66301774D01*
X58649077Y-66320221D01*
X58633630Y-66323886D01*
X58591485Y-66311212D01*
X58555192Y-66279471D01*
X58537483Y-66244572D01*
X58520448Y-66218845D01*
X58487078Y-66189546D01*
X58447851Y-66164235D01*
X58413244Y-66150471D01*
X58406007Y-66149714D01*
X58397861Y-66162160D01*
X58397370Y-66193972D01*
X58403357Y-66236866D01*
X58414643Y-66282558D01*
X58430050Y-66322761D01*
X58430829Y-66324322D01*
X58477196Y-66389062D01*
X58537289Y-66433097D01*
X58605535Y-66454711D01*
X58676362Y-66452185D01*
X58744196Y-66423804D01*
X58747212Y-66421808D01*
X58800573Y-66373448D01*
X58835660Y-66310352D01*
X58855078Y-66227387D01*
X58857684Y-66204078D01*
X58862299Y-66094055D01*
X58856767Y-66042748D01*
X58717486Y-66042748D01*
X58715676Y-66074753D01*
X58705778Y-66084093D01*
X58681102Y-66077105D01*
X58642205Y-66060587D01*
X58598725Y-66039881D01*
X58597644Y-66039333D01*
X58560791Y-66019949D01*
X58546000Y-66007013D01*
X58549647Y-65993451D01*
X58565005Y-65975632D01*
X58604077Y-65949845D01*
X58646154Y-65947950D01*
X58683897Y-65966717D01*
X58709966Y-66002915D01*
X58717486Y-66042748D01*
X58856767Y-66042748D01*
X58852806Y-66006027D01*
X58828450Y-65936212D01*
X58794544Y-65887302D01*
X58733347Y-65837878D01*
X58665937Y-65813359D01*
X58597120Y-65811797D01*
X58531697Y-65831239D01*
X58531697Y-65831239D01*
G37*
X58531697Y-65831239D02*
X58474473Y-65869735D01*
X58430251Y-65925335D01*
X58403833Y-65996086D01*
X58398490Y-66048162D01*
X58399097Y-66069893D01*
X58404178Y-66086531D01*
X58418145Y-66101437D01*
X58445411Y-66117973D01*
X58490388Y-66139498D01*
X58557489Y-66169374D01*
X58557829Y-66169524D01*
X58619593Y-66197813D01*
X58670241Y-66222933D01*
X58704596Y-66242179D01*
X58717482Y-66252848D01*
X58717486Y-66252934D01*
X58706128Y-66276166D01*
X58679569Y-66301774D01*
X58649077Y-66320221D01*
X58633630Y-66323886D01*
X58591485Y-66311212D01*
X58555192Y-66279471D01*
X58537483Y-66244572D01*
X58520448Y-66218845D01*
X58487078Y-66189546D01*
X58447851Y-66164235D01*
X58413244Y-66150471D01*
X58406007Y-66149714D01*
X58397861Y-66162160D01*
X58397370Y-66193972D01*
X58403357Y-66236866D01*
X58414643Y-66282558D01*
X58430050Y-66322761D01*
X58430829Y-66324322D01*
X58477196Y-66389062D01*
X58537289Y-66433097D01*
X58605535Y-66454711D01*
X58676362Y-66452185D01*
X58744196Y-66423804D01*
X58747212Y-66421808D01*
X58800573Y-66373448D01*
X58835660Y-66310352D01*
X58855078Y-66227387D01*
X58857684Y-66204078D01*
X58862299Y-66094055D01*
X58856767Y-66042748D01*
X58717486Y-66042748D01*
X58715676Y-66074753D01*
X58705778Y-66084093D01*
X58681102Y-66077105D01*
X58642205Y-66060587D01*
X58598725Y-66039881D01*
X58597644Y-66039333D01*
X58560791Y-66019949D01*
X58546000Y-66007013D01*
X58549647Y-65993451D01*
X58565005Y-65975632D01*
X58604077Y-65949845D01*
X58646154Y-65947950D01*
X58683897Y-65966717D01*
X58709966Y-66002915D01*
X58717486Y-66042748D01*
X58856767Y-66042748D01*
X58852806Y-66006027D01*
X58828450Y-65936212D01*
X58794544Y-65887302D01*
X58733347Y-65837878D01*
X58665937Y-65813359D01*
X58597120Y-65811797D01*
X58531697Y-65831239D01*
G36*
X57324114Y-65751289D02*
X57319861Y-65810613D01*
X57314975Y-65845572D01*
X57308205Y-65860820D01*
X57298298Y-65861015D01*
X57295086Y-65859195D01*
X57252356Y-65846015D01*
X57196773Y-65846785D01*
X57140263Y-65860333D01*
X57104918Y-65877861D01*
X57068679Y-65905861D01*
X57042187Y-65937549D01*
X57024001Y-65977813D01*
X57012678Y-66031543D01*
X57006778Y-66103626D01*
X57004857Y-66198951D01*
X57004823Y-66217237D01*
X57004800Y-66422646D01*
X57050509Y-66438580D01*
X57082973Y-66449420D01*
X57100785Y-66454468D01*
X57101309Y-66454514D01*
X57103063Y-66440828D01*
X57104556Y-66403076D01*
X57105674Y-66346224D01*
X57106303Y-66275234D01*
X57106400Y-66232073D01*
X57106602Y-66146973D01*
X57107642Y-66085981D01*
X57110169Y-66044177D01*
X57114836Y-66016642D01*
X57122293Y-65998456D01*
X57133189Y-65984698D01*
X57139993Y-65978073D01*
X57186728Y-65951375D01*
X57237728Y-65949375D01*
X57283999Y-65971955D01*
X57292556Y-65980107D01*
X57305107Y-65995436D01*
X57313812Y-66013618D01*
X57319369Y-66039909D01*
X57322474Y-66079562D01*
X57323824Y-66137832D01*
X57324114Y-66218173D01*
X57324114Y-66422646D01*
X57369823Y-66438580D01*
X57402287Y-66449420D01*
X57420099Y-66454468D01*
X57420623Y-66454514D01*
X57421963Y-66440623D01*
X57423172Y-66401439D01*
X57424199Y-66340700D01*
X57424998Y-66262141D01*
X57425519Y-66169498D01*
X57425714Y-66066509D01*
X57425714Y-65669342D01*
X57378543Y-65649444D01*
X57331371Y-65629547D01*
X57324114Y-65751289D01*
X57324114Y-65751289D01*
G37*
X57324114Y-65751289D02*
X57319861Y-65810613D01*
X57314975Y-65845572D01*
X57308205Y-65860820D01*
X57298298Y-65861015D01*
X57295086Y-65859195D01*
X57252356Y-65846015D01*
X57196773Y-65846785D01*
X57140263Y-65860333D01*
X57104918Y-65877861D01*
X57068679Y-65905861D01*
X57042187Y-65937549D01*
X57024001Y-65977813D01*
X57012678Y-66031543D01*
X57006778Y-66103626D01*
X57004857Y-66198951D01*
X57004823Y-66217237D01*
X57004800Y-66422646D01*
X57050509Y-66438580D01*
X57082973Y-66449420D01*
X57100785Y-66454468D01*
X57101309Y-66454514D01*
X57103063Y-66440828D01*
X57104556Y-66403076D01*
X57105674Y-66346224D01*
X57106303Y-66275234D01*
X57106400Y-66232073D01*
X57106602Y-66146973D01*
X57107642Y-66085981D01*
X57110169Y-66044177D01*
X57114836Y-66016642D01*
X57122293Y-65998456D01*
X57133189Y-65984698D01*
X57139993Y-65978073D01*
X57186728Y-65951375D01*
X57237728Y-65949375D01*
X57283999Y-65971955D01*
X57292556Y-65980107D01*
X57305107Y-65995436D01*
X57313812Y-66013618D01*
X57319369Y-66039909D01*
X57322474Y-66079562D01*
X57323824Y-66137832D01*
X57324114Y-66218173D01*
X57324114Y-66422646D01*
X57369823Y-66438580D01*
X57402287Y-66449420D01*
X57420099Y-66454468D01*
X57420623Y-66454514D01*
X57421963Y-66440623D01*
X57423172Y-66401439D01*
X57424199Y-66340700D01*
X57424998Y-66262141D01*
X57425519Y-66169498D01*
X57425714Y-66066509D01*
X57425714Y-65669342D01*
X57378543Y-65649444D01*
X57331371Y-65629547D01*
X57324114Y-65751289D01*
G36*
X56660256Y-65850968D02*
X56603384Y-65872087D01*
X56602733Y-65872493D01*
X56567560Y-65898380D01*
X56541593Y-65928633D01*
X56523330Y-65968058D01*
X56511268Y-66021462D01*
X56503904Y-66093651D01*
X56499736Y-66189432D01*
X56499371Y-66203078D01*
X56494124Y-66408842D01*
X56538284Y-66431678D01*
X56570237Y-66447110D01*
X56589530Y-66454423D01*
X56590422Y-66454514D01*
X56593761Y-66441022D01*
X56596413Y-66404626D01*
X56598044Y-66351452D01*
X56598400Y-66308393D01*
X56598408Y-66238641D01*
X56601597Y-66194837D01*
X56612712Y-66173944D01*
X56636499Y-66172925D01*
X56677704Y-66188741D01*
X56739914Y-66217815D01*
X56785659Y-66241963D01*
X56809187Y-66262913D01*
X56816104Y-66285747D01*
X56816114Y-66286877D01*
X56804701Y-66326212D01*
X56770908Y-66347462D01*
X56719191Y-66350539D01*
X56681939Y-66350006D01*
X56662297Y-66360735D01*
X56650048Y-66386505D01*
X56642998Y-66419337D01*
X56653158Y-66437966D01*
X56656983Y-66440632D01*
X56692999Y-66451340D01*
X56743434Y-66452856D01*
X56795374Y-66445759D01*
X56832178Y-66432788D01*
X56883062Y-66389585D01*
X56911986Y-66329446D01*
X56917714Y-66282462D01*
X56913343Y-66240082D01*
X56897525Y-66205488D01*
X56866203Y-66174763D01*
X56815322Y-66143990D01*
X56740824Y-66109252D01*
X56736286Y-66107288D01*
X56669179Y-66076287D01*
X56627768Y-66050862D01*
X56610019Y-66028014D01*
X56613893Y-66004745D01*
X56637357Y-65978056D01*
X56644373Y-65971914D01*
X56691370Y-65948100D01*
X56740067Y-65949103D01*
X56782478Y-65972451D01*
X56810616Y-66015675D01*
X56813231Y-66024160D01*
X56838692Y-66065308D01*
X56870999Y-66085128D01*
X56917714Y-66104770D01*
X56917714Y-66053950D01*
X56903504Y-65980082D01*
X56861325Y-65912327D01*
X56839376Y-65889661D01*
X56789483Y-65860569D01*
X56726033Y-65847400D01*
X56660256Y-65850968D01*
X56660256Y-65850968D01*
G37*
X56660256Y-65850968D02*
X56603384Y-65872087D01*
X56602733Y-65872493D01*
X56567560Y-65898380D01*
X56541593Y-65928633D01*
X56523330Y-65968058D01*
X56511268Y-66021462D01*
X56503904Y-66093651D01*
X56499736Y-66189432D01*
X56499371Y-66203078D01*
X56494124Y-66408842D01*
X56538284Y-66431678D01*
X56570237Y-66447110D01*
X56589530Y-66454423D01*
X56590422Y-66454514D01*
X56593761Y-66441022D01*
X56596413Y-66404626D01*
X56598044Y-66351452D01*
X56598400Y-66308393D01*
X56598408Y-66238641D01*
X56601597Y-66194837D01*
X56612712Y-66173944D01*
X56636499Y-66172925D01*
X56677704Y-66188741D01*
X56739914Y-66217815D01*
X56785659Y-66241963D01*
X56809187Y-66262913D01*
X56816104Y-66285747D01*
X56816114Y-66286877D01*
X56804701Y-66326212D01*
X56770908Y-66347462D01*
X56719191Y-66350539D01*
X56681939Y-66350006D01*
X56662297Y-66360735D01*
X56650048Y-66386505D01*
X56642998Y-66419337D01*
X56653158Y-66437966D01*
X56656983Y-66440632D01*
X56692999Y-66451340D01*
X56743434Y-66452856D01*
X56795374Y-66445759D01*
X56832178Y-66432788D01*
X56883062Y-66389585D01*
X56911986Y-66329446D01*
X56917714Y-66282462D01*
X56913343Y-66240082D01*
X56897525Y-66205488D01*
X56866203Y-66174763D01*
X56815322Y-66143990D01*
X56740824Y-66109252D01*
X56736286Y-66107288D01*
X56669179Y-66076287D01*
X56627768Y-66050862D01*
X56610019Y-66028014D01*
X56613893Y-66004745D01*
X56637357Y-65978056D01*
X56644373Y-65971914D01*
X56691370Y-65948100D01*
X56740067Y-65949103D01*
X56782478Y-65972451D01*
X56810616Y-66015675D01*
X56813231Y-66024160D01*
X56838692Y-66065308D01*
X56870999Y-66085128D01*
X56917714Y-66104770D01*
X56917714Y-66053950D01*
X56903504Y-65980082D01*
X56861325Y-65912327D01*
X56839376Y-65889661D01*
X56789483Y-65860569D01*
X56726033Y-65847400D01*
X56660256Y-65850968D01*
G36*
X56170074Y-65849755D02*
X56104142Y-65874084D01*
X56050727Y-65917117D01*
X56029836Y-65947409D01*
X56007061Y-66002994D01*
X56007534Y-66043186D01*
X56031438Y-66070217D01*
X56040283Y-66074813D01*
X56078470Y-66089144D01*
X56097972Y-66085472D01*
X56104578Y-66061407D01*
X56104914Y-66048114D01*
X56117008Y-65999210D01*
X56148529Y-65964999D01*
X56192341Y-65948476D01*
X56241305Y-65952634D01*
X56281106Y-65974227D01*
X56294550Y-65986544D01*
X56304079Y-66001487D01*
X56310515Y-66024075D01*
X56314683Y-66059328D01*
X56317403Y-66112266D01*
X56319498Y-66187907D01*
X56320040Y-66211857D01*
X56322019Y-66293790D01*
X56324269Y-66351455D01*
X56327643Y-66389608D01*
X56332994Y-66413004D01*
X56341176Y-66426398D01*
X56353041Y-66434545D01*
X56360638Y-66438144D01*
X56392898Y-66450452D01*
X56411889Y-66454514D01*
X56418164Y-66440948D01*
X56421994Y-66399934D01*
X56423400Y-66330999D01*
X56422402Y-66233669D01*
X56422092Y-66218657D01*
X56419899Y-66129859D01*
X56417307Y-66065019D01*
X56413618Y-66019067D01*
X56408136Y-65986935D01*
X56400165Y-65963553D01*
X56389007Y-65943852D01*
X56383170Y-65935410D01*
X56349704Y-65898057D01*
X56312273Y-65869003D01*
X56307691Y-65866467D01*
X56240574Y-65846443D01*
X56170074Y-65849755D01*
X56170074Y-65849755D01*
G37*
X56170074Y-65849755D02*
X56104142Y-65874084D01*
X56050727Y-65917117D01*
X56029836Y-65947409D01*
X56007061Y-66002994D01*
X56007534Y-66043186D01*
X56031438Y-66070217D01*
X56040283Y-66074813D01*
X56078470Y-66089144D01*
X56097972Y-66085472D01*
X56104578Y-66061407D01*
X56104914Y-66048114D01*
X56117008Y-65999210D01*
X56148529Y-65964999D01*
X56192341Y-65948476D01*
X56241305Y-65952634D01*
X56281106Y-65974227D01*
X56294550Y-65986544D01*
X56304079Y-66001487D01*
X56310515Y-66024075D01*
X56314683Y-66059328D01*
X56317403Y-66112266D01*
X56319498Y-66187907D01*
X56320040Y-66211857D01*
X56322019Y-66293790D01*
X56324269Y-66351455D01*
X56327643Y-66389608D01*
X56332994Y-66413004D01*
X56341176Y-66426398D01*
X56353041Y-66434545D01*
X56360638Y-66438144D01*
X56392898Y-66450452D01*
X56411889Y-66454514D01*
X56418164Y-66440948D01*
X56421994Y-66399934D01*
X56423400Y-66330999D01*
X56422402Y-66233669D01*
X56422092Y-66218657D01*
X56419899Y-66129859D01*
X56417307Y-66065019D01*
X56413618Y-66019067D01*
X56408136Y-65986935D01*
X56400165Y-65963553D01*
X56389007Y-65943852D01*
X56383170Y-65935410D01*
X56349704Y-65898057D01*
X56312273Y-65869003D01*
X56307691Y-65866467D01*
X56240574Y-65846443D01*
X56170074Y-65849755D01*
G36*
X55509883Y-65965358D02*
X55510067Y-66073837D01*
X55510781Y-66157287D01*
X55512325Y-66219704D01*
X55514999Y-66265085D01*
X55519106Y-66297429D01*
X55524945Y-66320733D01*
X55532818Y-66338995D01*
X55538779Y-66349418D01*
X55588145Y-66405945D01*
X55650736Y-66441377D01*
X55719987Y-66454090D01*
X55789332Y-66442463D01*
X55830625Y-66421568D01*
X55873975Y-66385422D01*
X55903519Y-66341276D01*
X55921345Y-66283462D01*
X55929537Y-66206313D01*
X55930698Y-66149714D01*
X55930542Y-66145647D01*
X55829143Y-66145647D01*
X55828524Y-66210550D01*
X55825686Y-66253514D01*
X55819160Y-66281622D01*
X55807477Y-66301953D01*
X55793517Y-66317288D01*
X55746635Y-66346890D01*
X55696299Y-66349419D01*
X55648724Y-66324705D01*
X55645021Y-66321356D01*
X55629217Y-66303935D01*
X55619307Y-66283209D01*
X55613942Y-66252362D01*
X55611772Y-66204577D01*
X55611429Y-66151748D01*
X55612173Y-66085381D01*
X55615252Y-66041106D01*
X55621939Y-66012009D01*
X55633504Y-65991173D01*
X55642987Y-65980107D01*
X55687040Y-65952198D01*
X55737776Y-65948843D01*
X55786204Y-65970159D01*
X55795550Y-65978073D01*
X55811460Y-65995647D01*
X55821390Y-66016587D01*
X55826722Y-66047782D01*
X55828837Y-66096122D01*
X55829143Y-66145647D01*
X55930542Y-66145647D01*
X55927190Y-66058568D01*
X55915274Y-65990086D01*
X55892865Y-65938600D01*
X55857876Y-65898443D01*
X55830625Y-65877861D01*
X55781093Y-65855625D01*
X55723684Y-65845304D01*
X55670318Y-65848067D01*
X55640457Y-65859212D01*
X55628739Y-65862383D01*
X55620963Y-65850557D01*
X55615535Y-65818866D01*
X55611429Y-65770593D01*
X55606933Y-65716829D01*
X55600687Y-65684482D01*
X55589324Y-65665985D01*
X55569472Y-65653770D01*
X55557000Y-65648362D01*
X55509829Y-65628601D01*
X55509883Y-65965358D01*
X55509883Y-65965358D01*
G37*
X55509883Y-65965358D02*
X55510067Y-66073837D01*
X55510781Y-66157287D01*
X55512325Y-66219704D01*
X55514999Y-66265085D01*
X55519106Y-66297429D01*
X55524945Y-66320733D01*
X55532818Y-66338995D01*
X55538779Y-66349418D01*
X55588145Y-66405945D01*
X55650736Y-66441377D01*
X55719987Y-66454090D01*
X55789332Y-66442463D01*
X55830625Y-66421568D01*
X55873975Y-66385422D01*
X55903519Y-66341276D01*
X55921345Y-66283462D01*
X55929537Y-66206313D01*
X55930698Y-66149714D01*
X55930542Y-66145647D01*
X55829143Y-66145647D01*
X55828524Y-66210550D01*
X55825686Y-66253514D01*
X55819160Y-66281622D01*
X55807477Y-66301953D01*
X55793517Y-66317288D01*
X55746635Y-66346890D01*
X55696299Y-66349419D01*
X55648724Y-66324705D01*
X55645021Y-66321356D01*
X55629217Y-66303935D01*
X55619307Y-66283209D01*
X55613942Y-66252362D01*
X55611772Y-66204577D01*
X55611429Y-66151748D01*
X55612173Y-66085381D01*
X55615252Y-66041106D01*
X55621939Y-66012009D01*
X55633504Y-65991173D01*
X55642987Y-65980107D01*
X55687040Y-65952198D01*
X55737776Y-65948843D01*
X55786204Y-65970159D01*
X55795550Y-65978073D01*
X55811460Y-65995647D01*
X55821390Y-66016587D01*
X55826722Y-66047782D01*
X55828837Y-66096122D01*
X55829143Y-66145647D01*
X55930542Y-66145647D01*
X55927190Y-66058568D01*
X55915274Y-65990086D01*
X55892865Y-65938600D01*
X55857876Y-65898443D01*
X55830625Y-65877861D01*
X55781093Y-65855625D01*
X55723684Y-65845304D01*
X55670318Y-65848067D01*
X55640457Y-65859212D01*
X55628739Y-65862383D01*
X55620963Y-65850557D01*
X55615535Y-65818866D01*
X55611429Y-65770593D01*
X55606933Y-65716829D01*
X55600687Y-65684482D01*
X55589324Y-65665985D01*
X55569472Y-65653770D01*
X55557000Y-65648362D01*
X55509829Y-65628601D01*
X55509883Y-65965358D01*
G36*
X54920167Y-65858663D02*
X54917952Y-65896850D01*
X54916216Y-65954886D01*
X54915101Y-66028180D01*
X54914743Y-66105055D01*
X54914743Y-66365196D01*
X54960674Y-66411127D01*
X54992325Y-66439429D01*
X55020110Y-66450893D01*
X55058085Y-66450168D01*
X55073160Y-66448321D01*
X55120274Y-66442948D01*
X55159244Y-66439869D01*
X55168743Y-66439585D01*
X55200767Y-66441445D01*
X55246568Y-66446114D01*
X55264326Y-66448321D01*
X55307943Y-66451735D01*
X55337255Y-66444320D01*
X55366320Y-66421427D01*
X55376812Y-66411127D01*
X55422743Y-66365196D01*
X55422743Y-65878602D01*
X55385774Y-65861758D01*
X55353941Y-65849282D01*
X55335317Y-65844914D01*
X55330542Y-65858718D01*
X55326079Y-65897286D01*
X55322225Y-65956356D01*
X55319278Y-66031663D01*
X55317857Y-66095286D01*
X55313886Y-66345657D01*
X55279241Y-66350556D01*
X55247732Y-66347131D01*
X55232292Y-66336041D01*
X55227977Y-66315308D01*
X55224292Y-66271145D01*
X55221531Y-66209146D01*
X55219988Y-66134909D01*
X55219765Y-66096706D01*
X55219543Y-65876783D01*
X55173834Y-65860849D01*
X55141482Y-65850015D01*
X55123885Y-65844962D01*
X55123377Y-65844914D01*
X55121612Y-65858648D01*
X55119671Y-65896730D01*
X55117718Y-65954482D01*
X55115916Y-66027227D01*
X55114657Y-66095286D01*
X55110686Y-66345657D01*
X55023600Y-66345657D01*
X55019604Y-66117240D01*
X55015608Y-65888822D01*
X54973153Y-65866868D01*
X54941808Y-65851793D01*
X54923256Y-65844951D01*
X54922721Y-65844914D01*
X54920167Y-65858663D01*
X54920167Y-65858663D01*
G37*
X54920167Y-65858663D02*
X54917952Y-65896850D01*
X54916216Y-65954886D01*
X54915101Y-66028180D01*
X54914743Y-66105055D01*
X54914743Y-66365196D01*
X54960674Y-66411127D01*
X54992325Y-66439429D01*
X55020110Y-66450893D01*
X55058085Y-66450168D01*
X55073160Y-66448321D01*
X55120274Y-66442948D01*
X55159244Y-66439869D01*
X55168743Y-66439585D01*
X55200767Y-66441445D01*
X55246568Y-66446114D01*
X55264326Y-66448321D01*
X55307943Y-66451735D01*
X55337255Y-66444320D01*
X55366320Y-66421427D01*
X55376812Y-66411127D01*
X55422743Y-66365196D01*
X55422743Y-65878602D01*
X55385774Y-65861758D01*
X55353941Y-65849282D01*
X55335317Y-65844914D01*
X55330542Y-65858718D01*
X55326079Y-65897286D01*
X55322225Y-65956356D01*
X55319278Y-66031663D01*
X55317857Y-66095286D01*
X55313886Y-66345657D01*
X55279241Y-66350556D01*
X55247732Y-66347131D01*
X55232292Y-66336041D01*
X55227977Y-66315308D01*
X55224292Y-66271145D01*
X55221531Y-66209146D01*
X55219988Y-66134909D01*
X55219765Y-66096706D01*
X55219543Y-65876783D01*
X55173834Y-65860849D01*
X55141482Y-65850015D01*
X55123885Y-65844962D01*
X55123377Y-65844914D01*
X55121612Y-65858648D01*
X55119671Y-65896730D01*
X55117718Y-65954482D01*
X55115916Y-66027227D01*
X55114657Y-66095286D01*
X55110686Y-66345657D01*
X55023600Y-66345657D01*
X55019604Y-66117240D01*
X55015608Y-65888822D01*
X54973153Y-65866868D01*
X54941808Y-65851793D01*
X54923256Y-65844951D01*
X54922721Y-65844914D01*
X54920167Y-65858663D01*
G36*
X54555124Y-65856335D02*
X54513333Y-65875344D01*
X54480531Y-65898378D01*
X54456497Y-65924133D01*
X54439903Y-65957358D01*
X54429423Y-66002800D01*
X54423729Y-66065207D01*
X54421493Y-66149327D01*
X54421257Y-66204721D01*
X54421257Y-66420826D01*
X54458226Y-66437670D01*
X54487344Y-66449981D01*
X54501769Y-66454514D01*
X54504528Y-66441025D01*
X54506718Y-66404653D01*
X54508058Y-66351542D01*
X54508343Y-66309372D01*
X54509566Y-66248447D01*
X54512864Y-66200115D01*
X54517679Y-66170518D01*
X54521504Y-66164229D01*
X54547217Y-66170652D01*
X54587582Y-66187125D01*
X54634321Y-66209458D01*
X54679155Y-66233457D01*
X54713807Y-66254930D01*
X54729998Y-66269685D01*
X54730062Y-66269845D01*
X54728670Y-66297152D01*
X54716182Y-66323219D01*
X54694257Y-66344392D01*
X54662257Y-66351474D01*
X54634908Y-66350649D01*
X54596174Y-66350042D01*
X54575842Y-66359116D01*
X54563631Y-66383092D01*
X54562091Y-66387613D01*
X54556797Y-66421806D01*
X54570953Y-66442568D01*
X54607852Y-66452462D01*
X54647711Y-66454292D01*
X54719438Y-66440727D01*
X54756568Y-66421355D01*
X54802424Y-66375845D01*
X54826744Y-66319983D01*
X54828927Y-66260957D01*
X54808371Y-66205953D01*
X54777451Y-66171486D01*
X54746580Y-66152189D01*
X54698058Y-66127759D01*
X54641515Y-66102985D01*
X54632090Y-66099199D01*
X54569981Y-66071791D01*
X54534178Y-66047634D01*
X54522663Y-66023619D01*
X54533420Y-65996635D01*
X54551886Y-65975543D01*
X54595531Y-65949572D01*
X54643554Y-65947624D01*
X54687594Y-65967637D01*
X54719291Y-66007551D01*
X54723451Y-66017848D01*
X54747673Y-66055724D01*
X54783035Y-66083842D01*
X54827657Y-66106917D01*
X54827657Y-66041485D01*
X54825031Y-66001506D01*
X54813770Y-65969997D01*
X54788801Y-65936378D01*
X54764831Y-65910484D01*
X54727559Y-65873817D01*
X54698599Y-65854121D01*
X54667495Y-65846220D01*
X54632287Y-65844914D01*
X54555124Y-65856335D01*
X54555124Y-65856335D01*
G37*
X54555124Y-65856335D02*
X54513333Y-65875344D01*
X54480531Y-65898378D01*
X54456497Y-65924133D01*
X54439903Y-65957358D01*
X54429423Y-66002800D01*
X54423729Y-66065207D01*
X54421493Y-66149327D01*
X54421257Y-66204721D01*
X54421257Y-66420826D01*
X54458226Y-66437670D01*
X54487344Y-66449981D01*
X54501769Y-66454514D01*
X54504528Y-66441025D01*
X54506718Y-66404653D01*
X54508058Y-66351542D01*
X54508343Y-66309372D01*
X54509566Y-66248447D01*
X54512864Y-66200115D01*
X54517679Y-66170518D01*
X54521504Y-66164229D01*
X54547217Y-66170652D01*
X54587582Y-66187125D01*
X54634321Y-66209458D01*
X54679155Y-66233457D01*
X54713807Y-66254930D01*
X54729998Y-66269685D01*
X54730062Y-66269845D01*
X54728670Y-66297152D01*
X54716182Y-66323219D01*
X54694257Y-66344392D01*
X54662257Y-66351474D01*
X54634908Y-66350649D01*
X54596174Y-66350042D01*
X54575842Y-66359116D01*
X54563631Y-66383092D01*
X54562091Y-66387613D01*
X54556797Y-66421806D01*
X54570953Y-66442568D01*
X54607852Y-66452462D01*
X54647711Y-66454292D01*
X54719438Y-66440727D01*
X54756568Y-66421355D01*
X54802424Y-66375845D01*
X54826744Y-66319983D01*
X54828927Y-66260957D01*
X54808371Y-66205953D01*
X54777451Y-66171486D01*
X54746580Y-66152189D01*
X54698058Y-66127759D01*
X54641515Y-66102985D01*
X54632090Y-66099199D01*
X54569981Y-66071791D01*
X54534178Y-66047634D01*
X54522663Y-66023619D01*
X54533420Y-65996635D01*
X54551886Y-65975543D01*
X54595531Y-65949572D01*
X54643554Y-65947624D01*
X54687594Y-65967637D01*
X54719291Y-66007551D01*
X54723451Y-66017848D01*
X54747673Y-66055724D01*
X54783035Y-66083842D01*
X54827657Y-66106917D01*
X54827657Y-66041485D01*
X54825031Y-66001506D01*
X54813770Y-65969997D01*
X54788801Y-65936378D01*
X54764831Y-65910484D01*
X54727559Y-65873817D01*
X54698599Y-65854121D01*
X54667495Y-65846220D01*
X54632287Y-65844914D01*
X54555124Y-65856335D01*
G36*
X54047400Y-65858752D02*
X54030052Y-65866334D01*
X53988644Y-65899128D01*
X53953235Y-65946547D01*
X53931336Y-65997151D01*
X53927771Y-66022098D01*
X53939721Y-66056927D01*
X53965933Y-66075357D01*
X53994036Y-66086516D01*
X54006905Y-66088572D01*
X54013171Y-66073649D01*
X54025544Y-66041175D01*
X54030972Y-66026502D01*
X54061410Y-65975744D01*
X54105480Y-65950427D01*
X54161990Y-65951206D01*
X54166175Y-65952203D01*
X54196345Y-65966507D01*
X54218524Y-65994393D01*
X54233673Y-66039287D01*
X54242750Y-66104615D01*
X54246714Y-66193804D01*
X54247086Y-66241261D01*
X54247270Y-66316071D01*
X54248478Y-66367069D01*
X54251691Y-66399471D01*
X54257891Y-66418495D01*
X54268060Y-66429356D01*
X54283181Y-66437272D01*
X54284054Y-66437670D01*
X54313172Y-66449981D01*
X54327597Y-66454514D01*
X54329814Y-66440809D01*
X54331711Y-66402925D01*
X54333153Y-66345715D01*
X54334002Y-66274027D01*
X54334171Y-66221565D01*
X54333308Y-66120047D01*
X54329930Y-66043032D01*
X54322858Y-65986023D01*
X54310912Y-65944526D01*
X54292910Y-65914043D01*
X54267673Y-65890080D01*
X54242753Y-65873355D01*
X54182829Y-65851097D01*
X54113089Y-65846076D01*
X54047400Y-65858752D01*
X54047400Y-65858752D01*
G37*
X54047400Y-65858752D02*
X54030052Y-65866334D01*
X53988644Y-65899128D01*
X53953235Y-65946547D01*
X53931336Y-65997151D01*
X53927771Y-66022098D01*
X53939721Y-66056927D01*
X53965933Y-66075357D01*
X53994036Y-66086516D01*
X54006905Y-66088572D01*
X54013171Y-66073649D01*
X54025544Y-66041175D01*
X54030972Y-66026502D01*
X54061410Y-65975744D01*
X54105480Y-65950427D01*
X54161990Y-65951206D01*
X54166175Y-65952203D01*
X54196345Y-65966507D01*
X54218524Y-65994393D01*
X54233673Y-66039287D01*
X54242750Y-66104615D01*
X54246714Y-66193804D01*
X54247086Y-66241261D01*
X54247270Y-66316071D01*
X54248478Y-66367069D01*
X54251691Y-66399471D01*
X54257891Y-66418495D01*
X54268060Y-66429356D01*
X54283181Y-66437272D01*
X54284054Y-66437670D01*
X54313172Y-66449981D01*
X54327597Y-66454514D01*
X54329814Y-66440809D01*
X54331711Y-66402925D01*
X54333153Y-66345715D01*
X54334002Y-66274027D01*
X54334171Y-66221565D01*
X54333308Y-66120047D01*
X54329930Y-66043032D01*
X54322858Y-65986023D01*
X54310912Y-65944526D01*
X54292910Y-65914043D01*
X54267673Y-65890080D01*
X54242753Y-65873355D01*
X54182829Y-65851097D01*
X54113089Y-65846076D01*
X54047400Y-65858752D01*
G36*
X53546405Y-65866966D02*
X53488979Y-65904497D01*
X53461281Y-65938096D01*
X53439338Y-65999064D01*
X53437595Y-66047308D01*
X53441543Y-66111816D01*
X53590314Y-66176934D01*
X53662651Y-66210202D01*
X53709916Y-66236964D01*
X53734493Y-66260144D01*
X53738763Y-66282667D01*
X53725111Y-66307455D01*
X53710057Y-66323886D01*
X53666254Y-66350235D01*
X53618611Y-66352081D01*
X53574855Y-66331546D01*
X53542711Y-66290752D01*
X53536962Y-66276347D01*
X53509424Y-66231356D01*
X53477742Y-66212182D01*
X53434286Y-66195779D01*
X53434286Y-66257966D01*
X53438128Y-66300283D01*
X53453177Y-66335969D01*
X53484720Y-66376943D01*
X53489408Y-66382267D01*
X53524494Y-66418720D01*
X53554653Y-66438283D01*
X53592385Y-66447283D01*
X53623665Y-66450230D01*
X53679615Y-66450965D01*
X53719445Y-66441660D01*
X53744292Y-66427846D01*
X53783344Y-66397467D01*
X53810375Y-66364613D01*
X53827483Y-66323294D01*
X53836762Y-66267521D01*
X53840307Y-66191305D01*
X53840590Y-66152622D01*
X53839628Y-66106247D01*
X53751993Y-66106247D01*
X53750977Y-66131126D01*
X53748444Y-66135200D01*
X53731726Y-66129665D01*
X53695751Y-66115017D01*
X53647669Y-66094190D01*
X53637614Y-66089714D01*
X53576848Y-66058814D01*
X53543368Y-66031657D01*
X53536010Y-66006220D01*
X53553609Y-65980481D01*
X53568144Y-65969109D01*
X53620590Y-65946364D01*
X53669678Y-65950122D01*
X53710773Y-65977884D01*
X53739242Y-66027152D01*
X53748369Y-66066257D01*
X53751993Y-66106247D01*
X53839628Y-66106247D01*
X53838715Y-66062249D01*
X53831804Y-65995384D01*
X53818116Y-65946695D01*
X53795904Y-65910849D01*
X53763426Y-65882513D01*
X53749267Y-65873355D01*
X53684947Y-65849507D01*
X53614527Y-65848006D01*
X53546405Y-65866966D01*
X53546405Y-65866966D01*
G37*
X53546405Y-65866966D02*
X53488979Y-65904497D01*
X53461281Y-65938096D01*
X53439338Y-65999064D01*
X53437595Y-66047308D01*
X53441543Y-66111816D01*
X53590314Y-66176934D01*
X53662651Y-66210202D01*
X53709916Y-66236964D01*
X53734493Y-66260144D01*
X53738763Y-66282667D01*
X53725111Y-66307455D01*
X53710057Y-66323886D01*
X53666254Y-66350235D01*
X53618611Y-66352081D01*
X53574855Y-66331546D01*
X53542711Y-66290752D01*
X53536962Y-66276347D01*
X53509424Y-66231356D01*
X53477742Y-66212182D01*
X53434286Y-66195779D01*
X53434286Y-66257966D01*
X53438128Y-66300283D01*
X53453177Y-66335969D01*
X53484720Y-66376943D01*
X53489408Y-66382267D01*
X53524494Y-66418720D01*
X53554653Y-66438283D01*
X53592385Y-66447283D01*
X53623665Y-66450230D01*
X53679615Y-66450965D01*
X53719445Y-66441660D01*
X53744292Y-66427846D01*
X53783344Y-66397467D01*
X53810375Y-66364613D01*
X53827483Y-66323294D01*
X53836762Y-66267521D01*
X53840307Y-66191305D01*
X53840590Y-66152622D01*
X53839628Y-66106247D01*
X53751993Y-66106247D01*
X53750977Y-66131126D01*
X53748444Y-66135200D01*
X53731726Y-66129665D01*
X53695751Y-66115017D01*
X53647669Y-66094190D01*
X53637614Y-66089714D01*
X53576848Y-66058814D01*
X53543368Y-66031657D01*
X53536010Y-66006220D01*
X53553609Y-65980481D01*
X53568144Y-65969109D01*
X53620590Y-65946364D01*
X53669678Y-65950122D01*
X53710773Y-65977884D01*
X53739242Y-66027152D01*
X53748369Y-66066257D01*
X53751993Y-66106247D01*
X53839628Y-66106247D01*
X53838715Y-66062249D01*
X53831804Y-65995384D01*
X53818116Y-65946695D01*
X53795904Y-65910849D01*
X53763426Y-65882513D01*
X53749267Y-65873355D01*
X53684947Y-65849507D01*
X53614527Y-65848006D01*
X53546405Y-65866966D01*
G36*
X56596090Y-61142348D02*
X56517546Y-61142778D01*
X56460702Y-61143942D01*
X56421895Y-61146207D01*
X56397462Y-61149940D01*
X56383738Y-61155506D01*
X56377060Y-61163273D01*
X56373764Y-61173605D01*
X56373444Y-61174943D01*
X56368438Y-61199079D01*
X56359171Y-61246701D01*
X56346608Y-61312741D01*
X56331713Y-61392128D01*
X56315449Y-61479796D01*
X56314881Y-61482875D01*
X56298590Y-61568789D01*
X56283348Y-61644696D01*
X56270139Y-61706045D01*
X56259946Y-61748282D01*
X56253752Y-61766855D01*
X56253457Y-61767184D01*
X56235212Y-61776253D01*
X56197595Y-61791367D01*
X56148729Y-61809262D01*
X56148457Y-61809358D01*
X56086907Y-61832493D01*
X56014343Y-61861965D01*
X55945943Y-61891597D01*
X55942706Y-61893062D01*
X55831298Y-61943626D01*
X55584601Y-61775160D01*
X55508923Y-61723803D01*
X55440369Y-61677889D01*
X55382912Y-61640030D01*
X55340524Y-61612837D01*
X55317175Y-61598921D01*
X55314958Y-61597889D01*
X55297990Y-61602484D01*
X55266299Y-61624655D01*
X55218648Y-61665447D01*
X55153802Y-61725905D01*
X55087603Y-61790227D01*
X55023786Y-61853612D01*
X54966671Y-61911451D01*
X54919695Y-61960175D01*
X54886297Y-61996210D01*
X54869915Y-62015984D01*
X54869306Y-62017002D01*
X54867495Y-62030572D01*
X54874317Y-62052733D01*
X54891460Y-62086478D01*
X54920607Y-62134800D01*
X54963445Y-62200692D01*
X55020552Y-62285517D01*
X55071234Y-62360177D01*
X55116539Y-62427140D01*
X55153850Y-62482516D01*
X55180548Y-62522420D01*
X55194015Y-62542962D01*
X55194863Y-62544356D01*
X55193219Y-62564038D01*
X55180755Y-62602293D01*
X55159952Y-62651889D01*
X55152538Y-62667728D01*
X55120186Y-62738290D01*
X55085672Y-62818353D01*
X55057635Y-62887629D01*
X55037432Y-62939045D01*
X55021385Y-62978119D01*
X55012112Y-62998541D01*
X55010959Y-63000114D01*
X54993904Y-63002721D01*
X54953702Y-63009863D01*
X54895698Y-63020523D01*
X54825237Y-63033685D01*
X54747665Y-63048333D01*
X54668328Y-63063449D01*
X54592569Y-63078018D01*
X54525736Y-63091022D01*
X54473172Y-63101445D01*
X54440224Y-63108270D01*
X54432143Y-63110199D01*
X54423795Y-63114962D01*
X54417494Y-63125718D01*
X54412955Y-63146098D01*
X54409896Y-63179734D01*
X54408033Y-63230255D01*
X54407082Y-63301292D01*
X54406760Y-63396476D01*
X54406743Y-63435492D01*
X54406743Y-63752799D01*
X54482943Y-63767839D01*
X54525337Y-63775995D01*
X54588600Y-63787899D01*
X54665038Y-63802116D01*
X54746957Y-63817210D01*
X54769600Y-63821355D01*
X54845194Y-63836053D01*
X54911047Y-63850505D01*
X54961634Y-63863375D01*
X54991426Y-63873322D01*
X54996388Y-63876287D01*
X55008574Y-63897283D01*
X55026047Y-63937967D01*
X55045423Y-63990322D01*
X55049266Y-64001600D01*
X55074661Y-64071523D01*
X55106183Y-64150418D01*
X55137031Y-64221266D01*
X55137183Y-64221595D01*
X55188553Y-64332733D01*
X55019601Y-64581253D01*
X54850648Y-64829772D01*
X55067571Y-65047058D01*
X55133181Y-65111726D01*
X55193021Y-65168733D01*
X55243733Y-65215033D01*
X55281954Y-65247584D01*
X55304325Y-65263343D01*
X55307534Y-65264343D01*
X55326374Y-65256469D01*
X55364820Y-65234578D01*
X55418670Y-65201267D01*
X55483724Y-65159131D01*
X55554060Y-65111943D01*
X55625445Y-65063810D01*
X55689092Y-65021928D01*
X55740959Y-64988871D01*
X55777005Y-64967218D01*
X55793133Y-64959543D01*
X55812811Y-64966037D01*
X55850125Y-64983150D01*
X55897379Y-65007326D01*
X55902388Y-65010013D01*
X55966023Y-65041927D01*
X56009659Y-65057579D01*
X56036798Y-65057745D01*
X56050943Y-65043204D01*
X56051025Y-65043000D01*
X56058095Y-65025779D01*
X56074958Y-64984899D01*
X56100305Y-64923525D01*
X56132829Y-64844819D01*
X56171222Y-64751947D01*
X56214178Y-64648072D01*
X56255778Y-64547502D01*
X56301496Y-64436516D01*
X56343474Y-64333703D01*
X56380452Y-64242215D01*
X56411173Y-64165201D01*
X56434378Y-64105815D01*
X56448810Y-64067209D01*
X56453257Y-64052800D01*
X56442104Y-64036272D01*
X56412931Y-64009930D01*
X56374029Y-63980887D01*
X56263243Y-63889039D01*
X56176649Y-63783759D01*
X56115284Y-63667266D01*
X56080185Y-63541776D01*
X56072392Y-63409507D01*
X56078057Y-63348457D01*
X56108922Y-63221795D01*
X56162080Y-63109941D01*
X56234233Y-63014001D01*
X56322083Y-62935076D01*
X56422335Y-62874270D01*
X56531690Y-62832687D01*
X56646853Y-62811428D01*
X56764525Y-62811599D01*
X56881410Y-62834301D01*
X56994211Y-62880638D01*
X57099631Y-62951713D01*
X57143632Y-62991911D01*
X57228021Y-63095129D01*
X57286778Y-63207925D01*
X57320296Y-63327010D01*
X57328965Y-63449095D01*
X57313177Y-63570893D01*
X57273322Y-63689116D01*
X57209793Y-63800475D01*
X57122979Y-63901684D01*
X57025971Y-63980887D01*
X56985563Y-64011162D01*
X56957018Y-64037219D01*
X56946743Y-64052825D01*
X56952123Y-64069843D01*
X56967425Y-64110500D01*
X56991388Y-64171642D01*
X57022756Y-64250119D01*
X57060268Y-64342780D01*
X57102667Y-64446472D01*
X57144337Y-64547526D01*
X57190310Y-64658607D01*
X57232893Y-64761541D01*
X57270779Y-64853165D01*
X57302660Y-64930316D01*
X57327229Y-64989831D01*
X57343180Y-65028544D01*
X57349090Y-65043000D01*
X57363052Y-65057685D01*
X57390060Y-65057642D01*
X57433587Y-65042099D01*
X57497110Y-65010284D01*
X57497612Y-65010013D01*
X57545440Y-64985323D01*
X57584103Y-64967338D01*
X57605905Y-64959614D01*
X57606867Y-64959543D01*
X57623279Y-64967378D01*
X57659513Y-64989165D01*
X57711526Y-65022328D01*
X57775275Y-65064291D01*
X57845940Y-65111943D01*
X57917884Y-65160191D01*
X57982726Y-65202151D01*
X58036265Y-65235227D01*
X58074303Y-65256821D01*
X58092467Y-65264343D01*
X58109192Y-65254457D01*
X58142820Y-65226826D01*
X58189990Y-65184495D01*
X58247342Y-65130505D01*
X58311516Y-65067899D01*
X58332503Y-65046983D01*
X58549501Y-64829623D01*
X58384332Y-64587220D01*
X58334136Y-64512781D01*
X58290081Y-64445972D01*
X58254638Y-64390665D01*
X58230281Y-64350729D01*
X58219478Y-64330036D01*
X58219162Y-64328563D01*
X58224857Y-64309058D01*
X58240174Y-64269822D01*
X58262463Y-64217430D01*
X58278107Y-64182355D01*
X58307359Y-64115201D01*
X58334906Y-64047358D01*
X58356263Y-63990034D01*
X58362065Y-63972572D01*
X58378548Y-63925938D01*
X58394660Y-63889905D01*
X58403510Y-63876287D01*
X58423040Y-63867952D01*
X58465666Y-63856137D01*
X58525855Y-63842181D01*
X58598078Y-63827422D01*
X58630400Y-63821355D01*
X58712478Y-63806273D01*
X58791205Y-63791669D01*
X58858891Y-63778980D01*
X58907840Y-63769642D01*
X58917057Y-63767839D01*
X58993257Y-63752799D01*
X58993257Y-63435492D01*
X58993086Y-63331154D01*
X58992384Y-63252213D01*
X58990866Y-63195038D01*
X58988251Y-63155999D01*
X58984254Y-63131465D01*
X58978591Y-63117805D01*
X58970980Y-63111389D01*
X58967857Y-63110199D01*
X58949022Y-63105980D01*
X58907412Y-63097562D01*
X58848370Y-63085961D01*
X58777243Y-63072195D01*
X58699375Y-63057280D01*
X58620113Y-63042232D01*
X58544802Y-63028069D01*
X58478787Y-63015806D01*
X58427413Y-63006461D01*
X58396025Y-63001050D01*
X58389041Y-63000114D01*
X58382715Y-62987596D01*
X58368710Y-62954246D01*
X58349645Y-62906377D01*
X58342366Y-62887629D01*
X58313004Y-62815195D01*
X58278429Y-62735170D01*
X58247463Y-62667728D01*
X58224677Y-62616159D01*
X58209518Y-62573785D01*
X58204458Y-62547834D01*
X58205264Y-62544356D01*
X58215959Y-62527936D01*
X58240380Y-62491417D01*
X58275905Y-62438687D01*
X58319913Y-62373635D01*
X58369783Y-62300151D01*
X58379644Y-62285645D01*
X58437508Y-62199704D01*
X58480044Y-62134261D01*
X58508946Y-62086304D01*
X58525910Y-62052820D01*
X58532633Y-62030795D01*
X58530810Y-62017217D01*
X58530764Y-62017131D01*
X58516414Y-61999297D01*
X58484677Y-61964817D01*
X58438990Y-61917268D01*
X58382796Y-61860222D01*
X58319532Y-61797255D01*
X58312398Y-61790227D01*
X58232670Y-61713020D01*
X58171143Y-61656330D01*
X58126579Y-61619110D01*
X58097743Y-61600315D01*
X58085042Y-61597889D01*
X58066506Y-61608471D01*
X58028039Y-61632916D01*
X57973614Y-61668612D01*
X57907202Y-61712947D01*
X57832775Y-61763311D01*
X57815399Y-61775160D01*
X57568703Y-61943626D01*
X57457294Y-61893062D01*
X57389543Y-61863595D01*
X57316817Y-61833959D01*
X57254297Y-61810330D01*
X57251543Y-61809358D01*
X57202640Y-61791457D01*
X57164943Y-61776320D01*
X57146575Y-61767210D01*
X57146544Y-61767184D01*
X57140715Y-61750717D01*
X57130808Y-61710219D01*
X57117805Y-61650242D01*
X57102691Y-61575340D01*
X57086448Y-61490064D01*
X57085119Y-61482875D01*
X57068825Y-61395014D01*
X57053867Y-61315260D01*
X57041209Y-61248681D01*
X57031814Y-61200347D01*
X57026646Y-61175325D01*
X57026556Y-61174943D01*
X57023411Y-61164299D01*
X57017296Y-61156262D01*
X57004547Y-61150467D01*
X56981500Y-61146547D01*
X56944491Y-61144135D01*
X56889856Y-61142865D01*
X56813933Y-61142371D01*
X56713056Y-61142286D01*
X56700000Y-61142286D01*
X56596090Y-61142348D01*
X56596090Y-61142348D01*
G37*
X56596090Y-61142348D02*
X56517546Y-61142778D01*
X56460702Y-61143942D01*
X56421895Y-61146207D01*
X56397462Y-61149940D01*
X56383738Y-61155506D01*
X56377060Y-61163273D01*
X56373764Y-61173605D01*
X56373444Y-61174943D01*
X56368438Y-61199079D01*
X56359171Y-61246701D01*
X56346608Y-61312741D01*
X56331713Y-61392128D01*
X56315449Y-61479796D01*
X56314881Y-61482875D01*
X56298590Y-61568789D01*
X56283348Y-61644696D01*
X56270139Y-61706045D01*
X56259946Y-61748282D01*
X56253752Y-61766855D01*
X56253457Y-61767184D01*
X56235212Y-61776253D01*
X56197595Y-61791367D01*
X56148729Y-61809262D01*
X56148457Y-61809358D01*
X56086907Y-61832493D01*
X56014343Y-61861965D01*
X55945943Y-61891597D01*
X55942706Y-61893062D01*
X55831298Y-61943626D01*
X55584601Y-61775160D01*
X55508923Y-61723803D01*
X55440369Y-61677889D01*
X55382912Y-61640030D01*
X55340524Y-61612837D01*
X55317175Y-61598921D01*
X55314958Y-61597889D01*
X55297990Y-61602484D01*
X55266299Y-61624655D01*
X55218648Y-61665447D01*
X55153802Y-61725905D01*
X55087603Y-61790227D01*
X55023786Y-61853612D01*
X54966671Y-61911451D01*
X54919695Y-61960175D01*
X54886297Y-61996210D01*
X54869915Y-62015984D01*
X54869306Y-62017002D01*
X54867495Y-62030572D01*
X54874317Y-62052733D01*
X54891460Y-62086478D01*
X54920607Y-62134800D01*
X54963445Y-62200692D01*
X55020552Y-62285517D01*
X55071234Y-62360177D01*
X55116539Y-62427140D01*
X55153850Y-62482516D01*
X55180548Y-62522420D01*
X55194015Y-62542962D01*
X55194863Y-62544356D01*
X55193219Y-62564038D01*
X55180755Y-62602293D01*
X55159952Y-62651889D01*
X55152538Y-62667728D01*
X55120186Y-62738290D01*
X55085672Y-62818353D01*
X55057635Y-62887629D01*
X55037432Y-62939045D01*
X55021385Y-62978119D01*
X55012112Y-62998541D01*
X55010959Y-63000114D01*
X54993904Y-63002721D01*
X54953702Y-63009863D01*
X54895698Y-63020523D01*
X54825237Y-63033685D01*
X54747665Y-63048333D01*
X54668328Y-63063449D01*
X54592569Y-63078018D01*
X54525736Y-63091022D01*
X54473172Y-63101445D01*
X54440224Y-63108270D01*
X54432143Y-63110199D01*
X54423795Y-63114962D01*
X54417494Y-63125718D01*
X54412955Y-63146098D01*
X54409896Y-63179734D01*
X54408033Y-63230255D01*
X54407082Y-63301292D01*
X54406760Y-63396476D01*
X54406743Y-63435492D01*
X54406743Y-63752799D01*
X54482943Y-63767839D01*
X54525337Y-63775995D01*
X54588600Y-63787899D01*
X54665038Y-63802116D01*
X54746957Y-63817210D01*
X54769600Y-63821355D01*
X54845194Y-63836053D01*
X54911047Y-63850505D01*
X54961634Y-63863375D01*
X54991426Y-63873322D01*
X54996388Y-63876287D01*
X55008574Y-63897283D01*
X55026047Y-63937967D01*
X55045423Y-63990322D01*
X55049266Y-64001600D01*
X55074661Y-64071523D01*
X55106183Y-64150418D01*
X55137031Y-64221266D01*
X55137183Y-64221595D01*
X55188553Y-64332733D01*
X55019601Y-64581253D01*
X54850648Y-64829772D01*
X55067571Y-65047058D01*
X55133181Y-65111726D01*
X55193021Y-65168733D01*
X55243733Y-65215033D01*
X55281954Y-65247584D01*
X55304325Y-65263343D01*
X55307534Y-65264343D01*
X55326374Y-65256469D01*
X55364820Y-65234578D01*
X55418670Y-65201267D01*
X55483724Y-65159131D01*
X55554060Y-65111943D01*
X55625445Y-65063810D01*
X55689092Y-65021928D01*
X55740959Y-64988871D01*
X55777005Y-64967218D01*
X55793133Y-64959543D01*
X55812811Y-64966037D01*
X55850125Y-64983150D01*
X55897379Y-65007326D01*
X55902388Y-65010013D01*
X55966023Y-65041927D01*
X56009659Y-65057579D01*
X56036798Y-65057745D01*
X56050943Y-65043204D01*
X56051025Y-65043000D01*
X56058095Y-65025779D01*
X56074958Y-64984899D01*
X56100305Y-64923525D01*
X56132829Y-64844819D01*
X56171222Y-64751947D01*
X56214178Y-64648072D01*
X56255778Y-64547502D01*
X56301496Y-64436516D01*
X56343474Y-64333703D01*
X56380452Y-64242215D01*
X56411173Y-64165201D01*
X56434378Y-64105815D01*
X56448810Y-64067209D01*
X56453257Y-64052800D01*
X56442104Y-64036272D01*
X56412931Y-64009930D01*
X56374029Y-63980887D01*
X56263243Y-63889039D01*
X56176649Y-63783759D01*
X56115284Y-63667266D01*
X56080185Y-63541776D01*
X56072392Y-63409507D01*
X56078057Y-63348457D01*
X56108922Y-63221795D01*
X56162080Y-63109941D01*
X56234233Y-63014001D01*
X56322083Y-62935076D01*
X56422335Y-62874270D01*
X56531690Y-62832687D01*
X56646853Y-62811428D01*
X56764525Y-62811599D01*
X56881410Y-62834301D01*
X56994211Y-62880638D01*
X57099631Y-62951713D01*
X57143632Y-62991911D01*
X57228021Y-63095129D01*
X57286778Y-63207925D01*
X57320296Y-63327010D01*
X57328965Y-63449095D01*
X57313177Y-63570893D01*
X57273322Y-63689116D01*
X57209793Y-63800475D01*
X57122979Y-63901684D01*
X57025971Y-63980887D01*
X56985563Y-64011162D01*
X56957018Y-64037219D01*
X56946743Y-64052825D01*
X56952123Y-64069843D01*
X56967425Y-64110500D01*
X56991388Y-64171642D01*
X57022756Y-64250119D01*
X57060268Y-64342780D01*
X57102667Y-64446472D01*
X57144337Y-64547526D01*
X57190310Y-64658607D01*
X57232893Y-64761541D01*
X57270779Y-64853165D01*
X57302660Y-64930316D01*
X57327229Y-64989831D01*
X57343180Y-65028544D01*
X57349090Y-65043000D01*
X57363052Y-65057685D01*
X57390060Y-65057642D01*
X57433587Y-65042099D01*
X57497110Y-65010284D01*
X57497612Y-65010013D01*
X57545440Y-64985323D01*
X57584103Y-64967338D01*
X57605905Y-64959614D01*
X57606867Y-64959543D01*
X57623279Y-64967378D01*
X57659513Y-64989165D01*
X57711526Y-65022328D01*
X57775275Y-65064291D01*
X57845940Y-65111943D01*
X57917884Y-65160191D01*
X57982726Y-65202151D01*
X58036265Y-65235227D01*
X58074303Y-65256821D01*
X58092467Y-65264343D01*
X58109192Y-65254457D01*
X58142820Y-65226826D01*
X58189990Y-65184495D01*
X58247342Y-65130505D01*
X58311516Y-65067899D01*
X58332503Y-65046983D01*
X58549501Y-64829623D01*
X58384332Y-64587220D01*
X58334136Y-64512781D01*
X58290081Y-64445972D01*
X58254638Y-64390665D01*
X58230281Y-64350729D01*
X58219478Y-64330036D01*
X58219162Y-64328563D01*
X58224857Y-64309058D01*
X58240174Y-64269822D01*
X58262463Y-64217430D01*
X58278107Y-64182355D01*
X58307359Y-64115201D01*
X58334906Y-64047358D01*
X58356263Y-63990034D01*
X58362065Y-63972572D01*
X58378548Y-63925938D01*
X58394660Y-63889905D01*
X58403510Y-63876287D01*
X58423040Y-63867952D01*
X58465666Y-63856137D01*
X58525855Y-63842181D01*
X58598078Y-63827422D01*
X58630400Y-63821355D01*
X58712478Y-63806273D01*
X58791205Y-63791669D01*
X58858891Y-63778980D01*
X58907840Y-63769642D01*
X58917057Y-63767839D01*
X58993257Y-63752799D01*
X58993257Y-63435492D01*
X58993086Y-63331154D01*
X58992384Y-63252213D01*
X58990866Y-63195038D01*
X58988251Y-63155999D01*
X58984254Y-63131465D01*
X58978591Y-63117805D01*
X58970980Y-63111389D01*
X58967857Y-63110199D01*
X58949022Y-63105980D01*
X58907412Y-63097562D01*
X58848370Y-63085961D01*
X58777243Y-63072195D01*
X58699375Y-63057280D01*
X58620113Y-63042232D01*
X58544802Y-63028069D01*
X58478787Y-63015806D01*
X58427413Y-63006461D01*
X58396025Y-63001050D01*
X58389041Y-63000114D01*
X58382715Y-62987596D01*
X58368710Y-62954246D01*
X58349645Y-62906377D01*
X58342366Y-62887629D01*
X58313004Y-62815195D01*
X58278429Y-62735170D01*
X58247463Y-62667728D01*
X58224677Y-62616159D01*
X58209518Y-62573785D01*
X58204458Y-62547834D01*
X58205264Y-62544356D01*
X58215959Y-62527936D01*
X58240380Y-62491417D01*
X58275905Y-62438687D01*
X58319913Y-62373635D01*
X58369783Y-62300151D01*
X58379644Y-62285645D01*
X58437508Y-62199704D01*
X58480044Y-62134261D01*
X58508946Y-62086304D01*
X58525910Y-62052820D01*
X58532633Y-62030795D01*
X58530810Y-62017217D01*
X58530764Y-62017131D01*
X58516414Y-61999297D01*
X58484677Y-61964817D01*
X58438990Y-61917268D01*
X58382796Y-61860222D01*
X58319532Y-61797255D01*
X58312398Y-61790227D01*
X58232670Y-61713020D01*
X58171143Y-61656330D01*
X58126579Y-61619110D01*
X58097743Y-61600315D01*
X58085042Y-61597889D01*
X58066506Y-61608471D01*
X58028039Y-61632916D01*
X57973614Y-61668612D01*
X57907202Y-61712947D01*
X57832775Y-61763311D01*
X57815399Y-61775160D01*
X57568703Y-61943626D01*
X57457294Y-61893062D01*
X57389543Y-61863595D01*
X57316817Y-61833959D01*
X57254297Y-61810330D01*
X57251543Y-61809358D01*
X57202640Y-61791457D01*
X57164943Y-61776320D01*
X57146575Y-61767210D01*
X57146544Y-61767184D01*
X57140715Y-61750717D01*
X57130808Y-61710219D01*
X57117805Y-61650242D01*
X57102691Y-61575340D01*
X57086448Y-61490064D01*
X57085119Y-61482875D01*
X57068825Y-61395014D01*
X57053867Y-61315260D01*
X57041209Y-61248681D01*
X57031814Y-61200347D01*
X57026646Y-61175325D01*
X57026556Y-61174943D01*
X57023411Y-61164299D01*
X57017296Y-61156262D01*
X57004547Y-61150467D01*
X56981500Y-61146547D01*
X56944491Y-61144135D01*
X56889856Y-61142865D01*
X56813933Y-61142371D01*
X56713056Y-61142286D01*
X56700000Y-61142286D01*
X56596090Y-61142348D01*
D10*
X81116666Y-67416667D02*
X81116666Y-66716667D01*
X80850000Y-66716667D01*
X80783333Y-66750000D01*
X80750000Y-66783333D01*
X80716666Y-66850000D01*
X80716666Y-66950000D01*
X80750000Y-67016667D01*
X80783333Y-67050000D01*
X80850000Y-67083333D01*
X81116666Y-67083333D01*
X80050000Y-67416667D02*
X80450000Y-67416667D01*
X80250000Y-67416667D02*
X80250000Y-66716667D01*
X80316666Y-66816667D01*
X80383333Y-66883333D01*
X80450000Y-66916667D01*
M02*
