M48
;DRILL file {KiCad 4.0.4-stable} date Sunday, October 15, 2017 'PMt' 03:04:50 PM
;FORMAT={-:-/ absolute / metric / decimal}
FMAT,2
METRIC,TZ
T1C0.400
T2C0.500
T3C0.700
T4C0.800
T5C1.000
T6C0.900
T7C2.200
%
G90
G05
M71
T1
X55.1Y-69.
X57.4Y-68.6
X57.4Y-70.
X58.9Y-65.8
X64.1Y-59.4
X67.4Y-61.1
X74.9Y-66.2
T2
X53.Y-58.
X62.Y-55.3
X63.Y-57.
X65.Y-57.
X68.6Y-51.4
X71.6Y-51.4
X72.Y-72.5
X73.3Y-59.
X74.5Y-57.2
X74.6Y-51.4
X75.Y-73.
X77.Y-72.
X77.6Y-51.4
X79.Y-72.
T3
X69.8Y-59.71
X69.8Y-60.98
X69.8Y-62.25
X69.8Y-63.52
X69.8Y-64.79
X69.8Y-66.06
X69.8Y-67.33
X69.8Y-68.6
X80.4Y-69.255
T4
X70.Y-74.7
X72.Y-74.7
X78.Y-74.7
X80.Y-74.7
T5
X54.52Y-52.5
X57.06Y-52.5
X59.6Y-52.5
X62.14Y-52.5
X64.68Y-52.5
T6
X58.1Y-74.4
X64.9Y-74.4
T7
X52.Y-76.
X85.Y-52.
X85.Y-76.
T0
M30
